<?xml version="1.0" encoding="UTF-8" standalone="no"?>
<!-- Generated by Microsoft Visio, SVG Export deliverable_pdf_name.svg Page-1 -->
<svg xmlns="http://www.w3.org/2000/svg" xmlns:xlink="http://www.w3.org/1999/xlink" xmlns:ev="http://www.w3.org/2001/xml-events"
		xmlns:v="http://schemas.microsoft.com/visio/2003/SVGExtensions/" width="9.63542in" height="2.88542in"
		viewBox="0 0 693.75 207.75" xml:space="preserve" color-interpolation-filters="sRGB" class="st15">
	<v:documentProperties v:langID="1033" v:viewMarkup="false">
		<v:userDefs>
			<v:ud v:nameU="msvConvertTheme"/>
		</v:userDefs>
	</v:documentProperties>

	<style type="text/css">
	<![CDATA[
		.st1 {marker-end:url(#mrkr5-6);stroke:#000000;stroke-linecap:round;stroke-linejoin:round;stroke-width:3}
		.st2 {fill:#000000;fill-opacity:1;stroke:#000000;stroke-opacity:1;stroke-width:0.54347826086957}
		.st3 {fill:#f2dcda;stroke:#000000;stroke-linecap:round;stroke-linejoin:round;stroke-width:0.75}
		.st4 {fill:#000000;font-family:Consolas;font-size:0.666664em}
		.st5 {font-size:1em}
		.st6 {fill:#ebf1df;stroke:#000000;stroke-linecap:round;stroke-linejoin:round;stroke-width:0.75}
		.st7 {fill:#f2f2f2;stroke:#000000;stroke-linecap:round;stroke-linejoin:round;stroke-width:0.75}
		.st8 {fill:#0070c0;font-size:1em}
		.st9 {fill:#e8e8e8;stroke:none;stroke-linecap:butt;stroke-width:2.01855}
		.st10 {fill:#fb3449;stroke:none;stroke-linecap:butt;stroke-width:2.01855}
		.st11 {fill:#a4a9ad;stroke:none;stroke-linecap:butt;stroke-width:2.01855}
		.st12 {fill:#d1d3d3;stroke:none;stroke-linecap:butt;stroke-width:2.01855}
		.st13 {fill:none;stroke:none;stroke-linecap:round;stroke-linejoin:round;stroke-width:0.75}
		.st14 {fill:#0070c0;font-family:Arial;font-size:1.33333em;font-weight:bold}
		.st15 {fill:none;fill-rule:evenodd;font-size:12px;overflow:visible;stroke-linecap:square;stroke-miterlimit:3}
	]]>
	</style>

	<defs id="Markers">
		<g id="lend5">
			<path d="M 2 1 L 0 0 L 1.98117 -0.993387 C 1.67173 -0.364515 1.67301 0.372641 1.98465 1.00043 " style="stroke:none"/>
		</g>
		<marker id="mrkr5-6" class="st2" v:arrowType="5" v:arrowSize="2" v:setback="3.22" refX="-3.22" orient="auto"
				markerUnits="strokeWidth" overflow="visible">
			<use xlink:href="#lend5" transform="scale(-1.84,-1.84) "/>
		</marker>
	</defs>
	<g v:mID="0" v:index="1" v:groupContext="foregroundPage">
		<title>Page-1</title>
		<v:pageProperties v:drawingScale="1" v:pageScale="1" v:drawingUnits="19" v:shadowOffsetX="9" v:shadowOffsetY="-9"/>
		<g id="shape1-1" v:mID="1" v:groupContext="shape" transform="translate(522.375,-63.375)">
			<title>Sheet.1</title>
			<path d="M0 207.75 L44.34 207.75" class="st1"/>
		</g>
		<g id="shape2-7" v:mID="2" v:groupContext="shape" transform="translate(207.375,-63.375)">
			<title>Sheet.2</title>
			<path d="M0 207.75 L44.34 207.75" class="st1"/>
		</g>
		<g id="shape3-12" v:mID="3" v:groupContext="shape" transform="translate(152.625,63.375) rotate(-90) scale(-1,1)">
			<title>Sheet.3</title>
			<path d="M0 207.75 L35.34 207.75" class="st1"/>
		</g>
		<g id="shape4-17" v:mID="4" v:groupContext="shape" transform="translate(261.375,208.125) scale(1,-1)">
			<title>Sheet.4</title>
			<desc>&#60;context id=&#34;context-A&#34;&#62; &#60;input href=&#34;dita/common_UG.ditamap&#34;...</desc>
			<v:textBlock v:margins="rect(4,4,4,4)" v:tabSpace="8.64"/>
			<v:textRect cx="99" cy="176.25" width="198" height="63"/>
			<rect x="0" y="144.75" width="198" height="63" class="st3"/>
			<text x="4" y="-197.85" transform="scale(1,-1)" class="st4" v:langID="1033"><v:paragraph/><v:tabList/>&#60;context id=&#34;context-A&#34;&#62;<v:newlineChar/><v:tabChar/><tspan
						x="12.64" dy="1.2em" class="st5">&#60;input href=&#34;dita/common_UG.ditamap&#34;/&#62;<v:newlineChar/><v:tabChar/></tspan><tspan
						x="12.64" dy="1.2em" class="st5">&#60;profile&#62;<v:newlineChar/><v:tabChar/><v:tabChar/></tspan><tspan
						x="21.28" dy="1.2em" class="st5">&#60;ditaval href=&#34;filter_A.ditaval&#34;/&#62;<v:newlineChar/><v:tabChar/></tspan><tspan
						x="12.64" dy="1.2em" class="st5">&#60;/profile&#62;<v:newlineChar/></tspan><tspan x="4" dy="1.2em"
						class="st5">&#60;/context&#62;</tspan></text>		</g>
		<g id="shape5-25" v:mID="5" v:groupContext="shape" transform="translate(0.375,-40.875)">
			<title>Sheet.5</title>
			<desc>&#60;publication transtype=&#34;pdf2&#34; id=&#34;pub-pdf&#34;&#62; &#60;param name=&#34;...&#34;...</desc>
			<v:textBlock v:margins="rect(4,4,4,4)" v:verticalAlign="0"/>
			<v:textRect cx="103.5" cy="185.25" width="207" height="45"/>
			<rect x="0" y="162.75" width="207" height="45" class="st6"/>
			<text x="4" y="173.95" class="st4" v:langID="1033"><v:paragraph/><v:tabList/>&#60;publication transtype=&#34;pdf2&#34; id=&#34;pub-pdf&#34;&#62;<v:newlineChar/><tspan
						x="4" dy="1.2em" class="st5">  </tspan>&#60;param name=&#34;...&#34;/&#62;<v:newlineChar/><tspan x="4"
						dy="1.2em" class="st5">  </tspan>&#60;param name=&#34;...&#34;/&#62;<v:newlineChar/><tspan x="4" dy="1.2em"
						class="st5">&#60;/publication&#62;</tspan></text>		</g>
		<g id="shape6-31" v:mID="6" v:groupContext="shape" transform="translate(261.375,-27.375)">
			<title>Sheet.6</title>
			<desc>&#60;deliverable id=&#34;del-pdf-A&#34;&#62; &#60;context idref=&#34;context-A&#34;/&#62; &#60;ou...</desc>
			<v:textBlock v:margins="rect(4,4,4,4)" v:tabSpace="8.64"/>
			<v:textRect cx="130.5" cy="171.75" width="261.01" height="72"/>
			<rect x="0" y="135.75" width="261" height="72" class="st7"/>
			<text x="4" y="145.35" class="st4" v:langID="1033"><v:paragraph/><v:tabList/>&#60;deliverable id=&#34;del-pdf-A&#34;&#62;<v:newlineChar/><v:tabChar/><tspan
						x="12.64" dy="1.2em" class="st5">&#60;context idref=&#34;context</tspan>-A&#34;/&#62;<v:newlineChar/><v:tabChar/><tspan
						x="12.64" dy="1.2em" class="st5">&#60;output href=&#34;olh</tspan>-A/pdf&#34;&#62;<v:newlineChar/><v:tabChar/><tspan
						x="12.64" dy="1.2em" class="st8">&#60;publication idref=&#34;pub</tspan><tspan class="st8">-</tspan><tspan
						class="st8">pdf&#34;&#62;<v:newlineChar/><v:tabChar/><v:tabChar/></tspan><tspan x="21.28" dy="1.2em"
						class="st8">&#60;param name=&#34;outputFile.base&#34; value=&#34;userguide_A&#34;/&#62;<v:newlineChar/><v:tabChar/></tspan><tspan
						x="12.64" dy="1.2em" class="st8">&#60;/publication&#62;<v:newlineChar/></tspan><tspan x="4" dy="1.2em"
						class="st5">&#60;/deliverable&#62;</tspan></text>		</g>
		<g id="group10-42" transform="translate(594.375,-40.0611)" v:mID="10" v:groupContext="group">
			<title>Sheet.10</title>
			<g id="group11-43" v:mID="11" v:groupContext="group">
				<title>Sheet.11</title>
				<g id="shape12-44" v:mID="12" v:groupContext="shape">
					<title>Sheet.12</title>
					<path d="M28.76 161.12 L0 161.12 L0 207.75 L36.53 207.75 L36.53 168.89 L28.76 161.12 Z" class="st9"/>
				</g>
				<g id="shape13-46" v:mID="13" v:groupContext="shape" transform="translate(7.34893,-17.0343)">
					<title>Sheet.13</title>
					<path d="M22.97 201.22 C22.41 200.22 20.48 199.9 19.59 199.76 C18.89 199.65 18.18 199.62 17.47 199.62 C16.91
								 199.61 16.36 199.64 15.82 199.67 C15.62 199.69 15.43 199.7 15.23 199.72 C15.03 199.51 14.83 199.29
								 14.64 199.07 C13.44 197.65 12.47 196.04 11.68 194.36 C11.89 193.55 12.06 192.7 12.16 191.82 C12.34
								 190.22 12.41 188.39 11.81 186.86 C11.6 186.33 11.04 185.69 10.41 186.01 C9.67 186.38 9.47 187.42
								 9.41 188.16 C9.36 188.76 9.39 189.36 9.49 189.94 C9.59 190.54 9.76 191.1 9.94 191.66 C10.1 192.17
								 10.29 192.68 10.49 193.19 C10.36 193.58 10.23 193.98 10.09 194.36 C9.75 195.22 9.4 196.05 9.05 196.84
								 C8.87 197.23 8.69 197.62 8.52 198 C7.97 199.2 7.37 200.39 6.7 201.54 C5.14 202.09 3.74 202.73 2.57
								 203.48 C1.95 203.88 1.4 204.32 0.94 204.8 C0.5 205.25 0.06 205.84 0.02 206.5 C0 206.86 0.15 207.22
								 0.45 207.44 C0.86 207.75 1.41 207.73 1.89 207.63 C3.47 207.3 4.68 205.94 5.71 204.8 C6.42 204.01
								 7.23 203.02 8.07 201.81 C8.08 201.8 8.08 201.8 8.08 201.8 C9.53 201.35 11.11 200.97 12.78 200.69
								 C13.55 200.56 14.33 200.46 15.13 200.39 C15.7 200.91 16.31 201.4 16.97 201.8 C17.49 202.11 18.04
								 202.38 18.61 202.58 C19.2 202.77 19.78 202.93 20.39 203.03 C20.69 203.07 21 203.09 21.32 203.08
								 C22.04 203.05 23.06 202.78 23.13 201.92 C23.15 201.65 23.09 201.42 22.97 201.22 ZM5.92 202.8 C5.59
								 203.32 5.27 203.78 4.97 204.19 C4.22 205.2 3.37 206.4 2.15 206.85 C1.91 206.93 1.61 207.02 1.28
								 207 C1 206.99 0.71 206.86 0.72 206.53 C0.73 206.36 0.81 206.14 0.94 205.93 C1.08 205.69 1.26 205.48
								 1.45 205.28 C1.85 204.85 2.36 204.44 2.95 204.06 C3.85 203.48 4.93 202.95 6.13 202.48 C6.06 202.59
								 5.99 202.7 5.92 202.8 ZM10.11 189.84 C10.02 189.3 10 188.75 10.06 188.23 C10.09 187.96 10.14 187.71
								 10.22 187.47 C10.29 187.26 10.43 186.76 10.65 186.7 C11.03 186.59 11.14 187.39 11.19 187.62 C11.43
								 188.91 11.21 190.35 10.93 191.61 C10.88 191.82 10.83 192.01 10.78 192.21 C10.69 191.97 10.6 191.72
								 10.52 191.47 C10.35 190.93 10.2 190.38 10.11 189.84 ZM12.68 200.04 C11.27 200.26 9.94 200.56 8.68
								 200.91 C8.83 200.87 9.52 199.56 9.68 199.29 C10.4 198.01 11 196.67 11.42 195.26 C12.18 196.75 13.09
								 198.18 14.22 199.45 C14.32 199.56 14.42 199.68 14.53 199.79 C13.9 199.86 13.28 199.94 12.68 200.04
								 ZM22.17 201.83 C22.12 202.11 21.53 202.27 21.25 202.31 C20.43 202.44 19.57 202.34 18.79 202.08 C18.25
								 201.9 17.73 201.65 17.24 201.36 C16.75 201.06 16.29 200.71 15.86 200.33 C16.39 200.3 16.93 200.28
								 17.46 200.29 C18 200.29 18.54 200.32 19.07 200.39 C20.07 200.5 21.2 200.84 21.98 201.49 C22.14 201.62
								 22.19 201.74 22.17 201.83 Z" class="st10"/>
				</g>
				<g id="shape14-48" v:mID="14" v:groupContext="shape" transform="translate(0,-42.7425)">
					<title>Sheet.14</title>
					<path d="M29.96 207.75 L0 207.75 L0 203.86 L28.76 203.86 L29.96 207.75 Z" class="st10"/>
				</g>
				<g id="group15-50" transform="translate(9.10138,-4.50871)" v:mID="15" v:groupContext="group">
					<title>Sheet.15</title>
					<g id="shape16-51" v:mID="16" v:groupContext="shape">
						<title>Sheet.16</title>
						<path d="M5.35 202.72 C5.35 203.54 5.11 204.18 4.63 204.63 C4.14 205.08 3.45 205.3 2.55 205.3 L1.99 205.3
									 L1.99 207.75 L0 207.75 L0 200.37 L2.55 200.37 C3.49 200.37 4.19 200.57 4.65 200.98 C5.12 201.39
									 5.35 201.97 5.35 202.72 ZM1.99 203.68 L2.36 203.68 C2.66 203.68 2.89 203.59 3.07 203.42 C3.25
									 203.26 3.34 203.02 3.34 202.73 C3.34 202.23 3.06 201.98 2.51 201.98 L1.99 201.98 C1.99 201.98
									 1.99 203.68 1.99 203.68 Z" class="st11"/>
					</g>
					<g id="shape17-53" v:mID="17" v:groupContext="shape" transform="translate(6.53091,0)">
						<title>Sheet.17</title>
						<path d="M6.26 203.9 C6.26 205.14 5.92 206.08 5.25 206.75 C4.57 207.42 3.62 207.75 2.39 207.75 L0 207.75
									 L0 200.37 L2.55 200.37 C3.74 200.37 4.65 200.67 5.3 201.28 C5.94 201.89 6.26 202.76 6.26 203.9
									 ZM4.19 203.97 C4.19 203.3 4.06 202.8 3.79 202.47 C3.53 202.14 3.12 201.98 2.57 201.98 L1.99
									 201.98 L1.99 206.11 L2.44 206.11 C3.04 206.11 3.49 205.94 3.77 205.59 C4.05 205.24 4.19 204.7
									 4.19 203.97 Z" class="st11"/>
					</g>
					<g id="shape18-55" v:mID="18" v:groupContext="shape" transform="translate(14.1167,0)">
						<title>Sheet.18</title>
						<path d="M1.96 207.75 L0 207.75 L0 200.37 L4.36 200.37 L4.36 201.97 L1.96 201.97 L1.96 203.38 L4.17 203.38
									 L4.17 204.98 L1.96 204.98 L1.96 207.75 Z" class="st11"/>
					</g>
				</g>
				<g id="shape19-57" v:mID="19" v:groupContext="shape" transform="translate(28.7558,-38.8574)">
					<title>Sheet.19</title>
					<path d="M0 207.75 L7.77 207.75 L0 199.98 L0 207.75 Z" class="st12"/>
				</g>
			</g>
		</g>
		<g id="shape20-59" v:mID="20" v:groupContext="shape" transform="translate(531.375,-0.375)">
			<title>Sheet.20</title>
			<desc>userguide_A.pdf</desc>
			<v:textBlock v:margins="rect(4,4,4,4)"/>
			<v:textRect cx="81" cy="189.75" width="162" height="36"/>
			<rect x="0" y="171.75" width="162" height="36" class="st13"/>
			<text x="17.88" y="194.55" class="st14" v:langID="1033"><v:paragraph v:horizAlign="1"/><v:tabList/>userguide_A.pdf</text>		</g>
	</g>
</svg>
