<?xml version="1.0" encoding="UTF-8" standalone="no"?>
<!-- Generated by Microsoft Visio, SVG Export publication_profiling.svg Page-1 -->
<svg xmlns="http://www.w3.org/2000/svg" xmlns:xlink="http://www.w3.org/1999/xlink" xmlns:ev="http://www.w3.org/2001/xml-events"
		xmlns:v="http://schemas.microsoft.com/visio/2003/SVGExtensions/" width="10.3854in" height="3.13542in"
		viewBox="0 0 747.75 225.75" xml:space="preserve" color-interpolation-filters="sRGB" class="st17">
	<v:documentProperties v:langID="1033" v:viewMarkup="false">
		<v:userDefs>
			<v:ud v:nameU="msvConvertTheme"/>
		</v:userDefs>
	</v:documentProperties>

	<style type="text/css">
	<![CDATA[
		.st1 {marker-end:url(#mrkr5-6);stroke:#000000;stroke-linecap:round;stroke-linejoin:round;stroke-width:3}
		.st2 {fill:#000000;fill-opacity:1;stroke:#000000;stroke-opacity:1;stroke-width:0.54347826086957}
		.st3 {fill:#f2dcda;stroke:#000000;stroke-linecap:round;stroke-linejoin:round;stroke-width:0.75}
		.st4 {fill:#000000;font-family:Consolas;font-size:0.666664em}
		.st5 {font-size:1em}
		.st6 {fill:#ff0000;font-size:1em;font-weight:bold}
		.st7 {fill:#ebf1df;stroke:#000000;stroke-linecap:round;stroke-linejoin:round;stroke-width:0.75}
		.st8 {fill:#00b050;font-size:1em;font-weight:bold}
		.st9 {fill:#f2f2f2;stroke:#000000;stroke-linecap:round;stroke-linejoin:round;stroke-width:0.75}
		.st10 {fill:#e8e8e8;stroke:none;stroke-linecap:butt;stroke-width:2.01855}
		.st11 {fill:#fb3449;stroke:none;stroke-linecap:butt;stroke-width:2.01855}
		.st12 {fill:#a4a9ad;stroke:none;stroke-linecap:butt;stroke-width:2.01855}
		.st13 {fill:#d1d3d3;stroke:none;stroke-linecap:butt;stroke-width:2.01855}
		.st14 {fill:none;stroke:none;stroke-linecap:round;stroke-linejoin:round;stroke-width:0.75}
		.st15 {fill:#00b050;font-family:Arial;font-size:1.33333em;font-weight:bold}
		.st16 {fill:#000000;font-size:1em}
		.st17 {fill:none;fill-rule:evenodd;font-size:12px;overflow:visible;stroke-linecap:square;stroke-miterlimit:3}
	]]>
	</style>

	<defs id="Markers">
		<g id="lend5">
			<path d="M 2 1 L 0 0 L 1.98117 -0.993387 C 1.67173 -0.364515 1.67301 0.372641 1.98465 1.00043 " style="stroke:none"/>
		</g>
		<marker id="mrkr5-6" class="st2" v:arrowType="5" v:arrowSize="2" v:setback="3.22" refX="-3.22" orient="auto"
				markerUnits="strokeWidth" overflow="visible">
			<use xlink:href="#lend5" transform="scale(-1.84,-1.84) "/>
		</marker>
	</defs>
	<g v:mID="0" v:index="1" v:groupContext="foregroundPage">
		<title>Page-1</title>
		<v:pageProperties v:drawingScale="1" v:pageScale="1" v:drawingUnits="19" v:shadowOffsetX="9" v:shadowOffsetY="-9"/>
		<g id="shape1-1" v:mID="1" v:groupContext="shape" transform="translate(549.375,-81.375)">
			<title>Sheet.1</title>
			<path d="M0 225.75 L44.34 225.75" class="st1"/>
		</g>
		<g id="shape2-7" v:mID="2" v:groupContext="shape" transform="translate(234.375,-81.375)">
			<title>Sheet.2</title>
			<path d="M0 225.75 L44.34 225.75" class="st1"/>
		</g>
		<g id="shape3-12" v:mID="3" v:groupContext="shape" transform="translate(161.625,63.375) rotate(-90) scale(-1,1)">
			<title>Sheet.3</title>
			<path d="M0 225.75 L35.34 225.75" class="st1"/>
		</g>
		<g id="shape4-17" v:mID="4" v:groupContext="shape" transform="translate(288.375,226.125) scale(1,-1)">
			<title>Sheet.4</title>
			<desc>&#60;context id=&#34;context-A&#34;&#62; &#60;input href=&#34;dita/common_UG.ditamap&#34;...</desc>
			<v:textBlock v:margins="rect(4,4,4,4)" v:tabSpace="8.64"/>
			<v:textRect cx="99" cy="194.25" width="198" height="63"/>
			<rect x="0" y="162.75" width="198" height="63" class="st3"/>
			<text x="4" y="-215.85" transform="scale(1,-1)" class="st4" v:langID="1033"><v:paragraph/><v:tabList/>&#60;context id=&#34;context-A&#34;&#62;<v:newlineChar/><v:tabChar/><tspan
						x="12.64" dy="1.2em" class="st5">&#60;input href=&#34;dita/common_UG.ditamap&#34;/&#62;<v:newlineChar/><v:tabChar/></tspan><tspan
						x="12.64" dy="1.2em" class="st6">&#60;profile&#62;<v:newlineChar/><v:tabChar/><v:tabChar/></tspan><tspan
						x="21.28" dy="1.2em" class="st6">&#60;ditaval href=&#34;filter_A.ditaval&#34;/&#62;<v:newlineChar/><v:tabChar/></tspan><tspan
						x="12.64" dy="1.2em" class="st6">&#60;/profile&#62;<v:newlineChar/></tspan><tspan x="4" dy="1.2em"
						class="st5">&#60;/context&#62;</tspan></text>		</g>
		<g id="shape5-25" v:mID="5" v:groupContext="shape" transform="translate(0.375,-36.375)">
			<title>Sheet.5</title>
			<desc>&#60;publication transtype=&#34;pdf2&#34; id=&#34;pub-pdf-review&#34;&#62; &#60;profile&#62; ...</desc>
			<v:textBlock v:margins="rect(4,4,4,4)" v:tabSpace="7.2"/>
			<v:textRect cx="117" cy="180.75" width="234" height="90"/>
			<rect x="0" y="135.75" width="234" height="90" class="st7"/>
			<text x="4" y="144.75" class="st4" v:langID="1033"><v:paragraph/><v:tabList/>&#60;publication transtype=&#34;pdf2&#34; id=&#34;pub-pdf-review&#34;&#62;<v:newlineChar/><v:paragraph/><v:tabChar/><tspan
						x="11.2" dy="1.2em" class="st8">&#60;profile&#62;<v:newlineChar/><v:tabChar/><v:tabChar/></tspan><tspan
						x="18.4" dy="1.2em" class="st8">&#60;ditaval href=&#34;filter_audience.ditaval&#34;/&#62;<v:newlineChar/><v:tabChar/><v:tabChar/></tspan><tspan
						x="18.4" dy="1.2em" class="st8">&#60;ditaval href=&#34;filter_deliveryTarget.ditaval&#34;/&#62;<v:newlineChar/><v:paragraph/><v:tabChar/><v:tabChar/></tspan><tspan
						x="18.4" dy="1.2em" class="st8">&#60;ditaval href=&#34;flag_rev.ditaval&#34;/&#62;<v:newlineChar/><v:tabChar/></tspan><tspan
						x="11.2" dy="1.2em" class="st8">&#60;/profile&#62;<v:newlineChar/></tspan><tspan x="4" dy="1.2em"
						class="st5">  </tspan>&#60;param name=&#34;...&#34;/&#62;<v:newlineChar/><tspan x="4" dy="1.2em"
						class="st5">  </tspan>&#60;param name=&#34;...&#34;/&#62;<v:newlineChar/><tspan x="4" dy="1.2em"
						class="st5">&#60;/publication&#62;</tspan></text>		</g>
		<g id="shape6-36" v:mID="6" v:groupContext="shape" transform="translate(288.375,-45.375)">
			<title>Sheet.6</title>
			<desc>&#60;deliverable id=&#34;del-pdf-A&#34;&#62; &#60;context idref=&#34;context-A&#34;/&#62; &#60;ou...</desc>
			<v:textBlock v:margins="rect(4,4,4,4)" v:tabSpace="8.64"/>
			<v:textRect cx="130.5" cy="189.75" width="261.01" height="72"/>
			<rect x="0" y="153.75" width="261" height="72" class="st9"/>
			<text x="4" y="163.35" class="st4" v:langID="1033"><v:paragraph/><v:tabList/>&#60;deliverable id=&#34;del-pdf-A&#34;&#62;<v:newlineChar/><v:tabChar/><tspan
						x="12.64" dy="1.2em" class="st5">&#60;context idref=&#34;context</tspan>-A&#34;/&#62;<v:newlineChar/><v:tabChar/><tspan
						x="12.64" dy="1.2em" class="st5">&#60;output href=&#34;olh</tspan>-A/pdf&#34;&#62;<v:newlineChar/><v:tabChar/><tspan
						x="12.64" dy="1.2em" class="st5">&#60;publication idref=&#34;pub</tspan>-pdf-review&#34;&#62;<v:newlineChar/><v:tabChar/><v:tabChar/><tspan
						x="21.28" dy="1.2em" class="st5">&#60;param name=&#34;outputFile.base&#34; value=&#34;userguide_A&#34;/&#62;<v:newlineChar/><v:tabChar/></tspan><tspan
						x="12.64" dy="1.2em" class="st5">&#60;/publication&#62;<v:newlineChar/></tspan><tspan x="4" dy="1.2em"
						class="st5">&#60;/deliverable&#62;</tspan></text>		</g>
		<g id="group7-45" transform="translate(621.375,-58.0611)" v:mID="7" v:groupContext="group">
			<title>Sheet.7</title>
			<g id="group8-46" v:mID="8" v:groupContext="group">
				<title>Sheet.8</title>
				<g id="shape9-47" v:mID="9" v:groupContext="shape">
					<title>Sheet.9</title>
					<path d="M28.76 179.12 L0 179.12 L0 225.75 L36.53 225.75 L36.53 186.89 L28.76 179.12 Z" class="st10"/>
				</g>
				<g id="shape10-49" v:mID="10" v:groupContext="shape" transform="translate(7.34893,-17.0343)">
					<title>Sheet.10</title>
					<path d="M22.97 219.22 C22.41 218.22 20.48 217.9 19.59 217.76 C18.89 217.65 18.18 217.62 17.47 217.62 C16.91
								 217.61 16.36 217.64 15.82 217.67 C15.62 217.69 15.43 217.7 15.23 217.72 C15.03 217.51 14.83 217.29
								 14.64 217.07 C13.44 215.65 12.47 214.04 11.68 212.36 C11.89 211.55 12.06 210.7 12.16 209.82 C12.34
								 208.22 12.41 206.39 11.81 204.86 C11.6 204.33 11.04 203.69 10.41 204.01 C9.67 204.38 9.47 205.42
								 9.41 206.16 C9.36 206.76 9.39 207.36 9.49 207.94 C9.59 208.54 9.76 209.1 9.94 209.66 C10.1 210.17
								 10.29 210.68 10.49 211.19 C10.36 211.58 10.23 211.98 10.09 212.36 C9.75 213.22 9.4 214.05 9.05 214.84
								 C8.87 215.23 8.69 215.62 8.52 216 C7.97 217.2 7.37 218.39 6.7 219.54 C5.14 220.09 3.74 220.73 2.57
								 221.48 C1.95 221.88 1.4 222.32 0.94 222.8 C0.5 223.25 0.06 223.84 0.02 224.5 C0 224.86 0.15 225.22
								 0.45 225.44 C0.86 225.75 1.41 225.73 1.89 225.63 C3.47 225.3 4.68 223.94 5.71 222.8 C6.42 222.01
								 7.23 221.02 8.07 219.81 C8.08 219.8 8.08 219.8 8.08 219.8 C9.53 219.35 11.11 218.97 12.78 218.69
								 C13.55 218.56 14.33 218.46 15.13 218.39 C15.7 218.91 16.31 219.4 16.97 219.8 C17.49 220.11 18.04
								 220.38 18.61 220.58 C19.2 220.77 19.78 220.93 20.39 221.03 C20.69 221.07 21 221.09 21.32 221.08
								 C22.04 221.05 23.06 220.78 23.13 219.91 C23.15 219.65 23.09 219.42 22.97 219.22 ZM5.92 220.8 C5.59
								 221.32 5.27 221.78 4.97 222.19 C4.22 223.2 3.37 224.4 2.15 224.85 C1.91 224.93 1.61 225.02 1.28
								 225 C1 224.99 0.71 224.86 0.72 224.53 C0.73 224.36 0.81 224.14 0.94 223.93 C1.08 223.69 1.26 223.48
								 1.45 223.28 C1.85 222.85 2.36 222.44 2.95 222.06 C3.85 221.48 4.93 220.95 6.13 220.48 C6.06 220.59
								 5.99 220.7 5.92 220.8 ZM10.11 207.84 C10.02 207.3 10 206.75 10.06 206.23 C10.09 205.96 10.14 205.71
								 10.22 205.47 C10.29 205.26 10.43 204.76 10.65 204.7 C11.03 204.59 11.14 205.39 11.19 205.62 C11.43
								 206.91 11.21 208.35 10.93 209.61 C10.88 209.82 10.83 210.01 10.78 210.21 C10.69 209.97 10.6 209.72
								 10.52 209.47 C10.35 208.93 10.2 208.38 10.11 207.84 ZM12.68 218.04 C11.27 218.26 9.94 218.56 8.68
								 218.91 C8.83 218.87 9.52 217.56 9.68 217.29 C10.4 216.01 11 214.67 11.42 213.26 C12.18 214.75 13.09
								 216.18 14.22 217.45 C14.32 217.56 14.42 217.68 14.53 217.79 C13.9 217.86 13.28 217.94 12.68 218.04
								 ZM22.17 219.83 C22.12 220.11 21.53 220.27 21.25 220.31 C20.43 220.44 19.57 220.34 18.79 220.08 C18.25
								 219.9 17.73 219.65 17.24 219.36 C16.75 219.06 16.29 218.71 15.86 218.33 C16.39 218.3 16.93 218.28
								 17.46 218.29 C18 218.29 18.54 218.32 19.07 218.39 C20.07 218.5 21.2 218.84 21.98 219.49 C22.14 219.62
								 22.19 219.74 22.17 219.83 Z" class="st11"/>
				</g>
				<g id="shape11-51" v:mID="11" v:groupContext="shape" transform="translate(0,-42.7425)">
					<title>Sheet.11</title>
					<path d="M29.96 225.75 L0 225.75 L0 221.86 L28.76 221.86 L29.96 225.75 Z" class="st11"/>
				</g>
				<g id="group12-53" transform="translate(9.10138,-4.50871)" v:mID="12" v:groupContext="group">
					<title>Sheet.12</title>
					<g id="shape13-54" v:mID="13" v:groupContext="shape">
						<title>Sheet.13</title>
						<path d="M5.35 220.72 C5.35 221.54 5.11 222.18 4.63 222.63 C4.14 223.08 3.45 223.3 2.55 223.3 L1.99 223.3
									 L1.99 225.75 L0 225.75 L0 218.37 L2.55 218.37 C3.49 218.37 4.19 218.57 4.65 218.98 C5.12 219.39
									 5.35 219.97 5.35 220.72 ZM1.99 221.68 L2.36 221.68 C2.66 221.68 2.89 221.59 3.07 221.42 C3.25
									 221.26 3.34 221.02 3.34 220.73 C3.34 220.23 3.06 219.98 2.51 219.98 L1.99 219.98 C1.99 219.98
									 1.99 221.68 1.99 221.68 Z" class="st12"/>
					</g>
					<g id="shape14-56" v:mID="14" v:groupContext="shape" transform="translate(6.53091,0)">
						<title>Sheet.14</title>
						<path d="M6.26 221.9 C6.26 223.14 5.92 224.08 5.25 224.75 C4.57 225.42 3.62 225.75 2.39 225.75 L0 225.75
									 L0 218.37 L2.55 218.37 C3.74 218.37 4.65 218.67 5.3 219.28 C5.94 219.89 6.26 220.76 6.26 221.9
									 ZM4.19 221.97 C4.19 221.3 4.06 220.8 3.79 220.47 C3.53 220.14 3.12 219.98 2.57 219.98 L1.99
									 219.98 L1.99 224.11 L2.44 224.11 C3.04 224.11 3.49 223.94 3.77 223.59 C4.05 223.24 4.19 222.7
									 4.19 221.97 Z" class="st12"/>
					</g>
					<g id="shape15-58" v:mID="15" v:groupContext="shape" transform="translate(14.1167,0)">
						<title>Sheet.15</title>
						<path d="M1.96 225.75 L0 225.75 L0 218.37 L4.36 218.37 L4.36 219.97 L1.96 219.97 L1.96 221.38 L4.17 221.38
									 L4.17 222.98 L1.96 222.98 L1.96 225.75 Z" class="st12"/>
					</g>
				</g>
				<g id="shape16-60" v:mID="16" v:groupContext="shape" transform="translate(28.7558,-38.8574)">
					<title>Sheet.16</title>
					<path d="M0 225.75 L7.77 225.75 L0 217.98 L0 225.75 Z" class="st13"/>
				</g>
			</g>
		</g>
		<g id="shape17-62" v:mID="17" v:groupContext="shape" transform="translate(531.375,-0.375)">
			<title>Sheet.17</title>
			<desc>review/ userguide_A.pdf</desc>
			<v:textBlock v:margins="rect(4,4,4,4)"/>
			<v:textRect cx="108" cy="198.75" width="216.01" height="54"/>
			<rect x="0" y="171.75" width="216" height="54" class="st14"/>
			<text x="80.87" y="193.95" class="st15" v:langID="1033"><v:paragraph v:horizAlign="1"/><v:tabList/>review/<v:lf/><tspan
						x="44.88" dy="1.2em" class="st16">userguide_A.pdf</tspan></text>		</g>
	</g>
</svg>
