<?xml version="1.0" encoding="UTF-8"?>
<!DOCTYPE svg PUBLIC "-//W3C//DTD SVG 1.0//EN" "http://www.w3.org/TR/2001/REC-SVG-20010904/DTD/svg10.dtd">
<svg width="145" height="30" viewBox="0 0 145 30" fill="none" xmlns="http://www.w3.org/2000/svg"
    class="fit-icon fit-icon--fit-full-logo" data-v-9bc3fcfb="" data-v-5ad8bb24="">
    <mask id="a" style="mask-type:luminance;" maskUnits="userSpaceOnUse" x="34" y="2" width="11"
        height="22">
        <path d="M34.62 2.285h9.416v21.023H34.62z" fill="#fff"/>
    </mask>
    <g mask="url(#a)">
        <path
            d="M36.58 11.472h-.742c-.802 0-1.218-.412-1.218-1.237v-.5c0-.795.416-1.237 1.218-1.237h.743V7.79c0-4.77 4.247-5.506 5.792-5.506h.446c.802 0 1.217.413 1.217 1.237v.765c0 .795-.445 1.149-1.277 1.208-.92.059-2.406.265-2.406 2.443v.56h2.02c.802 0 1.218.442 1.218 1.237v.5c0 .825-.416 1.237-1.218 1.237h-2.02v10.6c0 .824-.445 1.236-1.248 1.236H37.8c-.802 0-1.218-.412-1.218-1.237z"
            fill="#231F20"/>
    </g>
    <path
        d="M52.827 7.94c4.604 0 8.347 3.269 8.347 7.862 0 4.622-3.743 7.861-8.347 7.861s-8.317-3.239-8.317-7.861c0-4.593 3.713-7.862 8.317-7.862m0 12.543c2.465 0 4.515-1.884 4.515-4.681 0-2.768-2.05-4.682-4.515-4.682s-4.485 1.914-4.485 4.682c0 2.797 2.02 4.681 4.485 4.681M63.91 3.642c0-.795.416-1.237 1.218-1.237h1.307c.802 0 1.218.442 1.218 1.237v14.692c0 1.472.624 1.738 1.188 1.796.535.06.92.383.92 1.06v1.001c0 .766-.355 1.267-1.247 1.267-2.02 0-4.604-.53-4.604-4.83zm8.285 0c0-.795.416-1.237 1.218-1.237h1.307c.802 0 1.218.442 1.218 1.237v14.692c0 1.472.623 1.738 1.188 1.796.534.06.92.383.92 1.06v1.001c0 .766-.356 1.267-1.247 1.267-2.02 0-4.604-.53-4.604-4.83zM87.787 7.94c4.604 0 8.347 3.269 8.347 7.862 0 4.622-3.743 7.861-8.347 7.861s-8.317-3.239-8.317-7.861c0-4.593 3.713-7.862 8.317-7.862m0 12.543c2.466 0 4.515-1.884 4.515-4.681 0-2.768-2.05-4.682-4.515-4.682s-4.485 1.914-4.485 4.682c0 2.797 2.02 4.681 4.485 4.681m9.804-10.804c-.237-.825.178-1.384 1.04-1.384h1.425c.743 0 1.189.353 1.337 1.09l2.435 8.774c.179.795.298 1.59.298 1.59h.059s.119-.795.327-1.59l2.555-8.775c.148-.706.623-1.06 1.366-1.06h1.129c.742 0 1.188.354 1.366 1.06l2.525 8.775c.238.795.327 1.59.327 1.59h.059s.119-.795.327-1.59l2.406-8.775c.178-.736.624-1.09 1.366-1.09h1.367c.891 0 1.277.56 1.04 1.385l-3.892 12.602c-.208.706-.683 1.03-1.396 1.03h-1.99c-.743 0-1.218-.353-1.396-1.06l-2.288-7.508a13 13 0 0 1-.356-1.62h-.059s-.149.825-.386 1.62l-2.288 7.508c-.178.707-.624 1.06-1.366 1.06h-2.05c-.713 0-1.158-.324-1.366-1.03z"
        fill="#231F20"/>
    <path
        d="M121.92 20.747c0-.795.416-1.207 1.247-1.207h1.307c.802 0 1.248.412 1.248 1.207v1.325c0 .825-.446 1.237-1.248 1.237h-1.307q-1.247 0-1.247-1.237zm7.305-16.222c0 .795.416 1.207 1.218 1.207h1.307c.802 0 1.248-.412 1.248-1.207v-.883c0-.795-.446-1.237-1.248-1.237h-1.307c-.802 0-1.218.442-1.218 1.237zm0 17.549c0 .824.416 1.236 1.218 1.236h1.307c.802 0 1.218-.412 1.218-1.236V9.53c0-.795-.416-1.237-1.218-1.237h-1.307c-.802 0-1.218.442-1.218 1.237z"
        fill="#00B04E"/>
    <mask id="b" style="mask-type:luminance;" maskUnits="userSpaceOnUse" x="135" y="4" width="10"
        height="20">
        <path d="M135.52 4.2h9.476v19.256h-9.476z" fill="#fff"/>
    </mask>
    <g mask="url(#b)">
        <path
            d="M137.54 11.473h-.802c-.802 0-1.218-.412-1.218-1.237v-.5c0-.796.416-1.238 1.248-1.238h.861V5.437c0-.795.446-1.237 1.248-1.237h1.188c.802 0 1.248.442 1.248 1.237v3.062h2.198c.802 0 1.247.442 1.247 1.237v.5c0 .825-.445 1.237-1.218 1.237h-2.227v5.83c0 2.237 1.396 2.679 2.435 2.797.921.088 1.248.383 1.248 1.207v.913c0 .883-.505 1.236-1.545 1.236-2.703 0-5.911-1.442-5.911-5.506z"
            fill="#00B04E"/>
    </g>
    <mask id="c" style="mask-type:luminance;" maskUnits="userSpaceOnUse" x="0" y="5" width="29"
        height="22">
        <path d="M0 5.405h28.322v21.313H0z" fill="#fff"/>
    </mask>
    <g mask="url(#c)">
        <path
            d="m27.682 14.541-8.553-8.479c-1.376-1.363-3.727-.397-3.727 1.53v2.962H11.5c-4.776 0-7.937-1.667-9.923-4.749C1.114 5.088 0 5.396 0 6.247v4.307c0 6.295 5.149 11.399 11.5 11.399h3.902v2.597c0 1.927 2.351 2.893 3.726 1.53l8.554-8.48a2.15 2.15 0 0 0 0-3.06"
            fill="#00B04E"/>
    </g>
</svg>
