<?xml version="1.0" encoding="UTF-8" standalone="no"?>
<!DOCTYPE svg PUBLIC "-//W3C//DTD SVG 1.1//EN"
 "http://www.w3.org/Graphics/SVG/1.1/DTD/svg11.dtd">
<!-- Generated by graphviz version 6.0.1 (20220911.1526)
 -->
<!-- Pages: 1 -->
<svg width="1265pt" height="1200pt"
 viewBox="0.00 0.00 1265.00 1200.00" xmlns="http://www.w3.org/2000/svg" xmlns:xlink="http://www.w3.org/1999/xlink">
<g id="graph0" class="graph" transform="scale(1 1) rotate(0) translate(4 1196)">
<polygon fill="white" stroke="none" points="-4,4 -4,-1196 1261,-1196 1261,4 -4,4"/>
<!-- bookmapModule -->
<g id="node1" class="node">
<title>bookmapModule</title>
<path fill="#dddddd" stroke="black" d="M541.87,-599.21C541.87,-599.21 635.87,-599.21 635.87,-599.21 641.87,-599.21 647.87,-605.21 647.87,-611.21 647.87,-611.21 647.87,-623.21 647.87,-623.21 647.87,-629.21 641.87,-635.21 635.87,-635.21 635.87,-635.21 541.87,-635.21 541.87,-635.21 535.87,-635.21 529.87,-629.21 529.87,-623.21 529.87,-623.21 529.87,-611.21 529.87,-611.21 529.87,-605.21 535.87,-599.21 541.87,-599.21"/>
<text text-anchor="middle" x="588.87" y="-613.51" font-family="Arial" font-size="14.00">bookmapModule</text>
</g>
<!-- map -->
<g id="node2" class="node">
<title>map</title>
<path fill="#afa7f4" stroke="black" d="M684.07,-446.06C684.07,-446.06 714.07,-446.06 714.07,-446.06 720.07,-446.06 726.07,-452.06 726.07,-458.06 726.07,-458.06 726.07,-470.06 726.07,-470.06 726.07,-476.06 720.07,-482.06 714.07,-482.06 714.07,-482.06 684.07,-482.06 684.07,-482.06 678.07,-482.06 672.07,-476.06 672.07,-470.06 672.07,-470.06 672.07,-458.06 672.07,-458.06 672.07,-452.06 678.07,-446.06 684.07,-446.06"/>
<text text-anchor="middle" x="699.07" y="-460.36" font-family="Arial" font-size="14.00">map</text>
</g>
<!-- bookmapModule&#45;&gt;map -->
<g id="edge1" class="edge">
<title>bookmapModule&#45;&gt;map</title>
<path fill="none" stroke="#1f78b4" d="M601.94,-599.04C621.33,-572.1 657.8,-521.4 680.12,-490.39"/>
<polygon fill="#a6cee3" stroke="#1f78b4" points="683.01,-492.36 686.01,-482.2 677.33,-488.27 683.01,-492.36"/>
</g>
<!-- topicmeta -->
<g id="node4" class="node">
<title>topicmeta</title>
<path fill="#afa7f4" stroke="black" d="M600.01,-419.69C600.01,-419.69 652.01,-419.69 652.01,-419.69 658.01,-419.69 664.01,-425.69 664.01,-431.69 664.01,-431.69 664.01,-443.69 664.01,-443.69 664.01,-449.69 658.01,-455.69 652.01,-455.69 652.01,-455.69 600.01,-455.69 600.01,-455.69 594.01,-455.69 588.01,-449.69 588.01,-443.69 588.01,-443.69 588.01,-431.69 588.01,-431.69 588.01,-425.69 594.01,-419.69 600.01,-419.69"/>
<text text-anchor="middle" x="626.01" y="-433.99" font-family="Arial" font-size="14.00">topicmeta</text>
</g>
<!-- bookmapModule&#45;&gt;topicmeta -->
<g id="edge3" class="edge">
<title>bookmapModule&#45;&gt;topicmeta</title>
<path fill="none" stroke="#1f78b4" d="M592.63,-599.01C599.11,-567.69 612.41,-503.4 620.12,-466.13"/>
<polygon fill="#a6cee3" stroke="#1f78b4" points="623.63,-466.44 622.23,-455.94 616.78,-465.02 623.63,-466.44"/>
</g>
<!-- topicref -->
<g id="node6" class="node">
<title>topicref</title>
<path fill="#afa7f4" stroke="black" d="M312.03,-244.76C312.03,-244.76 349.03,-244.76 349.03,-244.76 355.03,-244.76 361.03,-250.76 361.03,-256.76 361.03,-256.76 361.03,-268.76 361.03,-268.76 361.03,-274.76 355.03,-280.76 349.03,-280.76 349.03,-280.76 312.03,-280.76 312.03,-280.76 306.03,-280.76 300.03,-274.76 300.03,-268.76 300.03,-268.76 300.03,-256.76 300.03,-256.76 300.03,-250.76 306.03,-244.76 312.03,-244.76"/>
<text text-anchor="middle" x="330.53" y="-259.06" font-family="Arial" font-size="14.00">topicref</text>
</g>
<!-- bookmapModule&#45;&gt;topicref -->
<g id="edge5" class="edge">
<title>bookmapModule&#45;&gt;topicref</title>
<path fill="none" stroke="#1f78b4" d="M575.7,-599.15C533.2,-540.84 399.54,-357.46 349.6,-288.93"/>
<polygon fill="#a6cee3" stroke="#1f78b4" points="352.38,-286.81 343.67,-280.79 346.73,-290.93 352.38,-286.81"/>
</g>
<!-- publisher -->
<g id="node30" class="node">
<title>publisher</title>
<path fill="#afa7f4" stroke="black" d="M752.01,-540.74C752.01,-540.74 799.01,-540.74 799.01,-540.74 805.01,-540.74 811.01,-546.74 811.01,-552.74 811.01,-552.74 811.01,-564.74 811.01,-564.74 811.01,-570.74 805.01,-576.74 799.01,-576.74 799.01,-576.74 752.01,-576.74 752.01,-576.74 746.01,-576.74 740.01,-570.74 740.01,-564.74 740.01,-564.74 740.01,-552.74 740.01,-552.74 740.01,-546.74 746.01,-540.74 752.01,-540.74"/>
<text text-anchor="middle" x="775.51" y="-555.04" font-family="Arial" font-size="14.00">publisher</text>
</g>
<!-- bookmapModule&#45;&gt;publisher -->
<g id="edge29" class="edge">
<title>bookmapModule&#45;&gt;publisher</title>
<path fill="none" stroke="#1f78b4" d="M646.39,-599.19C673.34,-590.75 704.98,-580.84 730.2,-572.94"/>
<polygon fill="#a6cee3" stroke="#1f78b4" points="731.38,-576.23 739.88,-569.9 729.29,-569.55 731.38,-576.23"/>
</g>
<!-- data -->
<g id="node32" class="node">
<title>data</title>
<path fill="#afa7f4" stroke="black" d="M918.99,-876.19C918.99,-876.19 948.99,-876.19 948.99,-876.19 954.99,-876.19 960.99,-882.19 960.99,-888.19 960.99,-888.19 960.99,-900.19 960.99,-900.19 960.99,-906.19 954.99,-912.19 948.99,-912.19 948.99,-912.19 918.99,-912.19 918.99,-912.19 912.99,-912.19 906.99,-906.19 906.99,-900.19 906.99,-900.19 906.99,-888.19 906.99,-888.19 906.99,-882.19 912.99,-876.19 918.99,-876.19"/>
<text text-anchor="middle" x="933.99" y="-890.49" font-family="Arial" font-size="14.00">data</text>
</g>
<!-- bookmapModule&#45;&gt;data -->
<g id="edge31" class="edge">
<title>bookmapModule&#45;&gt;data</title>
<path fill="none" stroke="#1f78b4" d="M611.51,-635.38C671.6,-683.61 835.16,-814.87 903.42,-869.66"/>
<polygon fill="#a6cee3" stroke="#1f78b4" points="901.27,-872.42 911.26,-875.95 905.65,-866.96 901.27,-872.42"/>
</g>
<!-- ph -->
<g id="node57" class="node">
<title>ph</title>
<path fill="#afa7f4" stroke="black" d="M321.29,-844.91C321.29,-844.91 351.29,-844.91 351.29,-844.91 357.29,-844.91 363.29,-850.91 363.29,-856.91 363.29,-856.91 363.29,-868.91 363.29,-868.91 363.29,-874.91 357.29,-880.91 351.29,-880.91 351.29,-880.91 321.29,-880.91 321.29,-880.91 315.29,-880.91 309.29,-874.91 309.29,-868.91 309.29,-868.91 309.29,-856.91 309.29,-856.91 309.29,-850.91 315.29,-844.91 321.29,-844.91"/>
<text text-anchor="middle" x="336.29" y="-859.21" font-family="Arial" font-size="14.00">ph</text>
</g>
<!-- bookmapModule&#45;&gt;ph -->
<g id="edge56" class="edge">
<title>bookmapModule&#45;&gt;ph</title>
<path fill="none" stroke="#1f78b4" d="M570.29,-635.28C525.86,-678.5 413.36,-787.94 362.26,-837.65"/>
<polygon fill="#a6cee3" stroke="#1f78b4" points="359.62,-835.33 354.89,-844.81 364.5,-840.35 359.62,-835.33"/>
</g>
<!-- title -->
<g id="node68" class="node">
<title>title</title>
<path fill="#afa7f4" stroke="black" d="M711.11,-495.7C711.11,-495.7 741.11,-495.7 741.11,-495.7 747.11,-495.7 753.11,-501.7 753.11,-507.7 753.11,-507.7 753.11,-519.7 753.11,-519.7 753.11,-525.7 747.11,-531.7 741.11,-531.7 741.11,-531.7 711.11,-531.7 711.11,-531.7 705.11,-531.7 699.11,-525.7 699.11,-519.7 699.11,-519.7 699.11,-507.7 699.11,-507.7 699.11,-501.7 705.11,-495.7 711.11,-495.7"/>
<text text-anchor="middle" x="726.11" y="-510" font-family="Arial" font-size="14.00">title</text>
</g>
<!-- bookmapModule&#45;&gt;title -->
<g id="edge67" class="edge">
<title>bookmapModule&#45;&gt;title</title>
<path fill="none" stroke="#1f78b4" d="M612.77,-599.18C635.27,-582.22 669.11,-556.69 693.96,-537.94"/>
<polygon fill="#a6cee3" stroke="#1f78b4" points="696.14,-540.69 702.02,-531.87 691.93,-535.1 696.14,-540.69"/>
</g>
<!-- bookmap -->
<g id="node3" class="node">
<title>bookmap</title>
<path fill="#1afabc" stroke="black" d="M772.28,-326.11C772.28,-326.11 821.28,-326.11 821.28,-326.11 827.28,-326.11 833.28,-332.11 833.28,-338.11 833.28,-338.11 833.28,-350.11 833.28,-350.11 833.28,-356.11 827.28,-362.11 821.28,-362.11 821.28,-362.11 772.28,-362.11 772.28,-362.11 766.28,-362.11 760.28,-356.11 760.28,-350.11 760.28,-350.11 760.28,-338.11 760.28,-338.11 760.28,-332.11 766.28,-326.11 772.28,-326.11"/>
<text text-anchor="middle" x="796.78" y="-340.41" font-family="Arial" font-size="14.00">bookmap</text>
</g>
<!-- map&#45;&gt;bookmap -->
<g id="edge2" class="edge">
<title>map&#45;&gt;bookmap</title>
<path fill="none" stroke="#1f78b4" d="M713.91,-445.84C730.27,-425.76 756.72,-393.29 775.34,-370.44"/>
<polygon fill="#a6cee3" stroke="#1f78b4" points="778.2,-372.46 781.8,-362.5 772.77,-368.04 778.2,-372.46"/>
</g>
<!-- bookmeta -->
<g id="node5" class="node">
<title>bookmeta</title>
<path fill="#1afabc" stroke="black" d="M687.22,-283.27C687.22,-283.27 740.22,-283.27 740.22,-283.27 746.22,-283.27 752.22,-289.27 752.22,-295.27 752.22,-295.27 752.22,-307.27 752.22,-307.27 752.22,-313.27 746.22,-319.27 740.22,-319.27 740.22,-319.27 687.22,-319.27 687.22,-319.27 681.22,-319.27 675.22,-313.27 675.22,-307.27 675.22,-307.27 675.22,-295.27 675.22,-295.27 675.22,-289.27 681.22,-283.27 687.22,-283.27"/>
<text text-anchor="middle" x="713.72" y="-297.57" font-family="Arial" font-size="14.00">bookmeta</text>
</g>
<!-- topicmeta&#45;&gt;bookmeta -->
<g id="edge4" class="edge">
<title>topicmeta&#45;&gt;bookmeta</title>
<path fill="none" stroke="#1f78b4" d="M637.66,-419.57C652.73,-396.13 679.11,-355.09 696.5,-328.05"/>
<polygon fill="#a6cee3" stroke="#1f78b4" points="699.56,-329.76 702.03,-319.46 693.67,-325.97 699.56,-329.76"/>
</g>
<!-- frontmatter -->
<g id="node7" class="node">
<title>frontmatter</title>
<path fill="#1afabc" stroke="black" d="M81.53,-340.05C81.53,-340.05 140.53,-340.05 140.53,-340.05 146.53,-340.05 152.53,-346.05 152.53,-352.05 152.53,-352.05 152.53,-364.05 152.53,-364.05 152.53,-370.05 146.53,-376.05 140.53,-376.05 140.53,-376.05 81.53,-376.05 81.53,-376.05 75.53,-376.05 69.53,-370.05 69.53,-364.05 69.53,-364.05 69.53,-352.05 69.53,-352.05 69.53,-346.05 75.53,-340.05 81.53,-340.05"/>
<text text-anchor="middle" x="111.03" y="-354.35" font-family="Arial" font-size="14.00">frontmatter</text>
</g>
<!-- topicref&#45;&gt;frontmatter -->
<g id="edge6" class="edge">
<title>topicref&#45;&gt;frontmatter</title>
<path fill="none" stroke="#1f78b4" d="M300.01,-276.01C264.3,-291.51 204.65,-317.41 161.91,-335.96"/>
<polygon fill="#a6cee3" stroke="#1f78b4" points="160.3,-332.84 152.52,-340.04 163.09,-339.27 160.3,-332.84"/>
</g>
<!-- backmatter -->
<g id="node8" class="node">
<title>backmatter</title>
<path fill="#1afabc" stroke="black" d="M375.53,-17.54C375.53,-17.54 435.53,-17.54 435.53,-17.54 441.53,-17.54 447.53,-23.54 447.53,-29.54 447.53,-29.54 447.53,-41.54 447.53,-41.54 447.53,-47.54 441.53,-53.54 435.53,-53.54 435.53,-53.54 375.53,-53.54 375.53,-53.54 369.53,-53.54 363.53,-47.54 363.53,-41.54 363.53,-41.54 363.53,-29.54 363.53,-29.54 363.53,-23.54 369.53,-17.54 375.53,-17.54"/>
<text text-anchor="middle" x="405.53" y="-31.84" font-family="Arial" font-size="14.00">backmatter</text>
</g>
<!-- topicref&#45;&gt;backmatter -->
<g id="edge7" class="edge">
<title>topicref&#45;&gt;backmatter</title>
<path fill="none" stroke="#1f78b4" d="M336.54,-244.55C349.62,-204.92 380.75,-110.6 396.32,-63.42"/>
<polygon fill="#a6cee3" stroke="#1f78b4" points="399.68,-64.43 399.49,-53.84 393.03,-62.23 399.68,-64.43"/>
</g>
<!-- draftintro -->
<g id="node9" class="node">
<title>draftintro</title>
<path fill="#1afabc" stroke="black" d="M211.45,-12.54C211.45,-12.54 257.45,-12.54 257.45,-12.54 263.45,-12.54 269.45,-18.54 269.45,-24.54 269.45,-24.54 269.45,-36.54 269.45,-36.54 269.45,-42.54 263.45,-48.54 257.45,-48.54 257.45,-48.54 211.45,-48.54 211.45,-48.54 205.45,-48.54 199.45,-42.54 199.45,-36.54 199.45,-36.54 199.45,-24.54 199.45,-24.54 199.45,-18.54 205.45,-12.54 211.45,-12.54"/>
<text text-anchor="middle" x="234.45" y="-26.84" font-family="Arial" font-size="14.00">draftintro</text>
</g>
<!-- topicref&#45;&gt;draftintro -->
<g id="edge8" class="edge">
<title>topicref&#45;&gt;draftintro</title>
<path fill="none" stroke="#1f78b4" d="M322.99,-244.54C306.22,-204.01 265.75,-106.21 245.87,-58.14"/>
<polygon fill="#a6cee3" stroke="#1f78b4" points="249.01,-56.58 241.95,-48.68 242.54,-59.26 249.01,-56.58"/>
</g>
<!-- bookabstract -->
<g id="node10" class="node">
<title>bookabstract</title>
<path fill="#1afabc" stroke="black" d="M517.75,-129.95C517.75,-129.95 587.75,-129.95 587.75,-129.95 593.75,-129.95 599.75,-135.95 599.75,-141.95 599.75,-141.95 599.75,-153.95 599.75,-153.95 599.75,-159.95 593.75,-165.95 587.75,-165.95 587.75,-165.95 517.75,-165.95 517.75,-165.95 511.75,-165.95 505.75,-159.95 505.75,-153.95 505.75,-153.95 505.75,-141.95 505.75,-141.95 505.75,-135.95 511.75,-129.95 517.75,-129.95"/>
<text text-anchor="middle" x="552.75" y="-144.25" font-family="Arial" font-size="14.00">bookabstract</text>
</g>
<!-- topicref&#45;&gt;bookabstract -->
<g id="edge9" class="edge">
<title>topicref&#45;&gt;bookabstract</title>
<path fill="none" stroke="#1f78b4" d="M361.42,-246.8C399.73,-227.01 465.25,-193.15 508.78,-170.66"/>
<polygon fill="#a6cee3" stroke="#1f78b4" points="510.44,-173.74 517.72,-166.04 507.23,-167.52 510.44,-173.74"/>
</g>
<!-- dedication -->
<g id="node11" class="node">
<title>dedication</title>
<path fill="#1afabc" stroke="black" d="M289.46,-0.36C289.46,-0.36 343.46,-0.36 343.46,-0.36 349.46,-0.36 355.46,-6.36 355.46,-12.36 355.46,-12.36 355.46,-24.36 355.46,-24.36 355.46,-30.36 349.46,-36.36 343.46,-36.36 343.46,-36.36 289.46,-36.36 289.46,-36.36 283.46,-36.36 277.46,-30.36 277.46,-24.36 277.46,-24.36 277.46,-12.36 277.46,-12.36 277.46,-6.36 283.46,-0.36 289.46,-0.36"/>
<text text-anchor="middle" x="316.46" y="-14.66" font-family="Arial" font-size="14.00">dedication</text>
</g>
<!-- topicref&#45;&gt;dedication -->
<g id="edge10" class="edge">
<title>topicref&#45;&gt;dedication</title>
<path fill="none" stroke="#1f78b4" d="M329.47,-244.39C327.03,-202.09 321.02,-97.56 318.1,-46.86"/>
<polygon fill="#a6cee3" stroke="#1f78b4" points="321.58,-46.39 317.51,-36.61 314.59,-46.8 321.58,-46.39"/>
</g>
<!-- preface -->
<g id="node12" class="node">
<title>preface</title>
<path fill="#1afabc" stroke="black" d="M175.03,-57.58C175.03,-57.58 213.03,-57.58 213.03,-57.58 219.03,-57.58 225.03,-63.58 225.03,-69.58 225.03,-69.58 225.03,-81.58 225.03,-81.58 225.03,-87.58 219.03,-93.58 213.03,-93.58 213.03,-93.58 175.03,-93.58 175.03,-93.58 169.03,-93.58 163.03,-87.58 163.03,-81.58 163.03,-81.58 163.03,-69.58 163.03,-69.58 163.03,-63.58 169.03,-57.58 175.03,-57.58"/>
<text text-anchor="middle" x="194.03" y="-71.88" font-family="Arial" font-size="14.00">preface</text>
</g>
<!-- topicref&#45;&gt;preface -->
<g id="edge11" class="edge">
<title>topicref&#45;&gt;preface</title>
<path fill="none" stroke="#1f78b4" d="M317.19,-244.47C292.87,-211.12 241.23,-140.31 213.16,-101.82"/>
<polygon fill="#a6cee3" stroke="#1f78b4" points="215.94,-99.69 207.22,-93.67 210.29,-103.81 215.94,-99.69"/>
</g>
<!-- chapter -->
<g id="node13" class="node">
<title>chapter</title>
<path fill="#1afabc" stroke="black" d="M172.56,-316.69C172.56,-316.69 210.56,-316.69 210.56,-316.69 216.56,-316.69 222.56,-322.69 222.56,-328.69 222.56,-328.69 222.56,-340.69 222.56,-340.69 222.56,-346.69 216.56,-352.69 210.56,-352.69 210.56,-352.69 172.56,-352.69 172.56,-352.69 166.56,-352.69 160.56,-346.69 160.56,-340.69 160.56,-340.69 160.56,-328.69 160.56,-328.69 160.56,-322.69 166.56,-316.69 172.56,-316.69"/>
<text text-anchor="middle" x="191.56" y="-330.99" font-family="Arial" font-size="14.00">chapter</text>
</g>
<!-- topicref&#45;&gt;chapter -->
<g id="edge12" class="edge">
<title>topicref&#45;&gt;chapter</title>
<path fill="none" stroke="#1f78b4" d="M299.69,-278.73C279.68,-289.08 253.4,-302.69 231.76,-313.89"/>
<polygon fill="#a6cee3" stroke="#1f78b4" points="230.07,-310.82 222.8,-318.52 233.29,-317.04 230.07,-310.82"/>
</g>
<!-- part -->
<g id="node14" class="node">
<title>part</title>
<path fill="#1afabc" stroke="black" d="M184.65,-133.28C184.65,-133.28 214.65,-133.28 214.65,-133.28 220.65,-133.28 226.65,-139.28 226.65,-145.28 226.65,-145.28 226.65,-157.28 226.65,-157.28 226.65,-163.28 220.65,-169.28 214.65,-169.28 214.65,-169.28 184.65,-169.28 184.65,-169.28 178.65,-169.28 172.65,-163.28 172.65,-157.28 172.65,-157.28 172.65,-145.28 172.65,-145.28 172.65,-139.28 178.65,-133.28 184.65,-133.28"/>
<text text-anchor="middle" x="199.65" y="-147.58" font-family="Arial" font-size="14.00">part</text>
</g>
<!-- topicref&#45;&gt;part -->
<g id="edge13" class="edge">
<title>topicref&#45;&gt;part</title>
<path fill="none" stroke="#1f78b4" d="M309.21,-244.6C287.34,-225.98 253.17,-196.87 228.81,-176.12"/>
<polygon fill="#a6cee3" stroke="#1f78b4" points="230.84,-173.25 220.96,-169.43 226.3,-178.58 230.84,-173.25"/>
</g>
<!-- appendix -->
<g id="node15" class="node">
<title>appendix</title>
<path fill="#1afabc" stroke="black" d="M150.08,-244.55C150.08,-244.55 197.08,-244.55 197.08,-244.55 203.08,-244.55 209.08,-250.55 209.08,-256.55 209.08,-256.55 209.08,-268.55 209.08,-268.55 209.08,-274.55 203.08,-280.55 197.08,-280.55 197.08,-280.55 150.08,-280.55 150.08,-280.55 144.08,-280.55 138.08,-274.55 138.08,-268.55 138.08,-268.55 138.08,-256.55 138.08,-256.55 138.08,-250.55 144.08,-244.55 150.08,-244.55"/>
<text text-anchor="middle" x="173.58" y="-258.85" font-family="Arial" font-size="14.00">appendix</text>
</g>
<!-- topicref&#45;&gt;appendix -->
<g id="edge14" class="edge">
<title>topicref&#45;&gt;appendix</title>
<path fill="none" stroke="#1f78b4" d="M299.89,-262.72C277.08,-262.69 245.54,-262.65 219.68,-262.61"/>
<polygon fill="#a6cee3" stroke="#1f78b4" points="219.36,-259.11 209.35,-262.6 219.35,-266.11 219.36,-259.11"/>
</g>
<!-- appendices -->
<g id="node16" class="node">
<title>appendices</title>
<path fill="#1afabc" stroke="black" d="M23.56,-217.32C23.56,-217.32 85.56,-217.32 85.56,-217.32 91.56,-217.32 97.56,-223.32 97.56,-229.32 97.56,-229.32 97.56,-241.32 97.56,-241.32 97.56,-247.32 91.56,-253.32 85.56,-253.32 85.56,-253.32 23.56,-253.32 23.56,-253.32 17.56,-253.32 11.56,-247.32 11.56,-241.32 11.56,-241.32 11.56,-229.32 11.56,-229.32 11.56,-223.32 17.56,-217.32 23.56,-217.32"/>
<text text-anchor="middle" x="54.56" y="-231.62" font-family="Arial" font-size="14.00">appendices</text>
</g>
<!-- topicref&#45;&gt;appendices -->
<g id="edge15" class="edge">
<title>topicref&#45;&gt;appendices</title>
<path fill="none" stroke="#1f78b4" d="M299.94,-259.72C253.7,-255.12 165.35,-246.34 108.24,-240.66"/>
<polygon fill="#a6cee3" stroke="#1f78b4" points="108.25,-237.14 97.96,-239.64 107.56,-244.11 108.25,-237.14"/>
</g>
<!-- notices -->
<g id="node17" class="node">
<title>notices</title>
<path fill="#1afabc" stroke="black" d="M117.59,-174.21C117.59,-174.21 152.59,-174.21 152.59,-174.21 158.59,-174.21 164.59,-180.21 164.59,-186.21 164.59,-186.21 164.59,-198.21 164.59,-198.21 164.59,-204.21 158.59,-210.21 152.59,-210.21 152.59,-210.21 117.59,-210.21 117.59,-210.21 111.59,-210.21 105.59,-204.21 105.59,-198.21 105.59,-198.21 105.59,-186.21 105.59,-186.21 105.59,-180.21 111.59,-174.21 117.59,-174.21"/>
<text text-anchor="middle" x="135.09" y="-188.51" font-family="Arial" font-size="14.00">notices</text>
</g>
<!-- topicref&#45;&gt;notices -->
<g id="edge16" class="edge">
<title>topicref&#45;&gt;notices</title>
<path fill="none" stroke="#1f78b4" d="M299.99,-251.74C266.09,-239.5 211.28,-219.72 174.25,-206.35"/>
<polygon fill="#a6cee3" stroke="#1f78b4" points="175.37,-203.03 164.78,-202.93 172.99,-209.61 175.37,-203.03"/>
</g>
<!-- amendments -->
<g id="node18" class="node">
<title>amendments</title>
<path fill="#1afabc" stroke="black" d="M464.07,-62.57C464.07,-62.57 536.07,-62.57 536.07,-62.57 542.07,-62.57 548.07,-68.57 548.07,-74.57 548.07,-74.57 548.07,-86.57 548.07,-86.57 548.07,-92.57 542.07,-98.57 536.07,-98.57 536.07,-98.57 464.07,-98.57 464.07,-98.57 458.07,-98.57 452.07,-92.57 452.07,-86.57 452.07,-86.57 452.07,-74.57 452.07,-74.57 452.07,-68.57 458.07,-62.57 464.07,-62.57"/>
<text text-anchor="middle" x="500.07" y="-76.87" font-family="Arial" font-size="14.00">amendments</text>
</g>
<!-- topicref&#45;&gt;amendments -->
<g id="edge17" class="edge">
<title>topicref&#45;&gt;amendments</title>
<path fill="none" stroke="#1f78b4" d="M347.4,-244.63C377.74,-212.02 441.57,-143.43 476.31,-106.1"/>
<polygon fill="#a6cee3" stroke="#1f78b4" points="479.01,-108.33 483.26,-98.63 473.88,-103.57 479.01,-108.33"/>
</g>
<!-- colophon -->
<g id="node19" class="node">
<title>colophon</title>
<path fill="#1afabc" stroke="black" d="M95.98,-96.56C95.98,-96.56 142.98,-96.56 142.98,-96.56 148.98,-96.56 154.98,-102.56 154.98,-108.56 154.98,-108.56 154.98,-120.56 154.98,-120.56 154.98,-126.56 148.98,-132.56 142.98,-132.56 142.98,-132.56 95.98,-132.56 95.98,-132.56 89.98,-132.56 83.98,-126.56 83.98,-120.56 83.98,-120.56 83.98,-108.56 83.98,-108.56 83.98,-102.56 89.98,-96.56 95.98,-96.56"/>
<text text-anchor="middle" x="119.48" y="-110.86" font-family="Arial" font-size="14.00">colophon</text>
</g>
<!-- topicref&#45;&gt;colophon -->
<g id="edge18" class="edge">
<title>topicref&#45;&gt;colophon</title>
<path fill="none" stroke="#1f78b4" d="M304.65,-244.59C266.65,-217.91 195.72,-168.09 153.53,-138.47"/>
<polygon fill="#a6cee3" stroke="#1f78b4" points="155.44,-135.53 145.24,-132.65 151.42,-141.26 155.44,-135.53"/>
</g>
<!-- booklists -->
<g id="node20" class="node">
<title>booklists</title>
<path fill="#1afabc" stroke="black" d="M257,-61.71C257,-61.71 302,-61.71 302,-61.71 308,-61.71 314,-67.71 314,-73.71 314,-73.71 314,-85.71 314,-85.71 314,-91.71 308,-97.71 302,-97.71 302,-97.71 257,-97.71 257,-97.71 251,-97.71 245,-91.71 245,-85.71 245,-85.71 245,-73.71 245,-73.71 245,-67.71 251,-61.71 257,-61.71"/>
<text text-anchor="middle" x="279.5" y="-76.01" font-family="Arial" font-size="14.00">booklists</text>
</g>
<!-- topicref&#45;&gt;booklists -->
<g id="edge19" class="edge">
<title>topicref&#45;&gt;booklists</title>
<path fill="none" stroke="#1f78b4" d="M325.45,-244.54C316.51,-212.47 297.91,-145.74 287.32,-107.75"/>
<polygon fill="#a6cee3" stroke="#1f78b4" points="290.62,-106.55 284.56,-97.85 283.87,-108.43 290.62,-106.55"/>
</g>
<!-- toc -->
<g id="node21" class="node">
<title>toc</title>
<path fill="#1afabc" stroke="black" d="M479.98,-185.11C479.98,-185.11 509.98,-185.11 509.98,-185.11 515.98,-185.11 521.98,-191.11 521.98,-197.11 521.98,-197.11 521.98,-209.11 521.98,-209.11 521.98,-215.11 515.98,-221.11 509.98,-221.11 509.98,-221.11 479.98,-221.11 479.98,-221.11 473.98,-221.11 467.98,-215.11 467.98,-209.11 467.98,-209.11 467.98,-197.11 467.98,-197.11 467.98,-191.11 473.98,-185.11 479.98,-185.11"/>
<text text-anchor="middle" x="494.98" y="-199.41" font-family="Arial" font-size="14.00">toc</text>
</g>
<!-- topicref&#45;&gt;toc -->
<g id="edge20" class="edge">
<title>topicref&#45;&gt;toc</title>
<path fill="none" stroke="#1f78b4" d="M361.07,-251.68C388.61,-241.69 429.16,-226.99 458.42,-216.37"/>
<polygon fill="#a6cee3" stroke="#1f78b4" points="459.66,-219.65 467.87,-212.95 457.28,-213.07 459.66,-219.65"/>
</g>
<!-- figurelist -->
<g id="node22" class="node">
<title>figurelist</title>
<path fill="#1afabc" stroke="black" d="M155.25,-385.09C155.25,-385.09 198.25,-385.09 198.25,-385.09 204.25,-385.09 210.25,-391.09 210.25,-397.09 210.25,-397.09 210.25,-409.09 210.25,-409.09 210.25,-415.09 204.25,-421.09 198.25,-421.09 198.25,-421.09 155.25,-421.09 155.25,-421.09 149.25,-421.09 143.25,-415.09 143.25,-409.09 143.25,-409.09 143.25,-397.09 143.25,-397.09 143.25,-391.09 149.25,-385.09 155.25,-385.09"/>
<text text-anchor="middle" x="176.75" y="-399.39" font-family="Arial" font-size="14.00">figurelist</text>
</g>
<!-- topicref&#45;&gt;figurelist -->
<g id="edge21" class="edge">
<title>topicref&#45;&gt;figurelist</title>
<path fill="none" stroke="#1f78b4" d="M310.74,-280.82C283.78,-305.42 235.38,-349.59 204.72,-377.57"/>
<polygon fill="#a6cee3" stroke="#1f78b4" points="201.98,-375.33 196.95,-384.65 206.7,-380.5 201.98,-375.33"/>
</g>
<!-- tablelist -->
<g id="node23" class="node">
<title>tablelist</title>
<path fill="#1afabc" stroke="black" d="M347.71,-76.51C347.71,-76.51 385.71,-76.51 385.71,-76.51 391.71,-76.51 397.71,-82.51 397.71,-88.51 397.71,-88.51 397.71,-100.51 397.71,-100.51 397.71,-106.51 391.71,-112.51 385.71,-112.51 385.71,-112.51 347.71,-112.51 347.71,-112.51 341.71,-112.51 335.71,-106.51 335.71,-100.51 335.71,-100.51 335.71,-88.51 335.71,-88.51 335.71,-82.51 341.71,-76.51 347.71,-76.51"/>
<text text-anchor="middle" x="366.71" y="-90.81" font-family="Arial" font-size="14.00">tablelist</text>
</g>
<!-- topicref&#45;&gt;tablelist -->
<g id="edge22" class="edge">
<title>topicref&#45;&gt;tablelist</title>
<path fill="none" stroke="#1f78b4" d="M334.4,-244.76C340.69,-215.49 353.19,-157.37 360.67,-122.62"/>
<polygon fill="#a6cee3" stroke="#1f78b4" points="364.13,-123.16 362.81,-112.64 357.29,-121.68 364.13,-123.16"/>
</g>
<!-- abbrevlist -->
<g id="node24" class="node">
<title>abbrevlist</title>
<path fill="#1afabc" stroke="black" d="M435.64,-107.61C435.64,-107.61 485.64,-107.61 485.64,-107.61 491.64,-107.61 497.64,-113.61 497.64,-119.61 497.64,-119.61 497.64,-131.61 497.64,-131.61 497.64,-137.61 491.64,-143.61 485.64,-143.61 485.64,-143.61 435.64,-143.61 435.64,-143.61 429.64,-143.61 423.64,-137.61 423.64,-131.61 423.64,-131.61 423.64,-119.61 423.64,-119.61 423.64,-113.61 429.64,-107.61 435.64,-107.61"/>
<text text-anchor="middle" x="460.64" y="-121.91" font-family="Arial" font-size="14.00">abbrevlist</text>
</g>
<!-- topicref&#45;&gt;abbrevlist -->
<g id="edge23" class="edge">
<title>topicref&#45;&gt;abbrevlist</title>
<path fill="none" stroke="#1f78b4" d="M347.8,-244.55C370.45,-220.67 410.33,-178.65 436.1,-151.48"/>
<polygon fill="#a6cee3" stroke="#1f78b4" points="438.95,-153.56 443.29,-143.9 433.87,-148.74 438.95,-153.56"/>
</g>
<!-- trademarklist -->
<g id="node25" class="node">
<title>trademarklist</title>
<path fill="#1afabc" stroke="black" d="M11.78,-141.57C11.78,-141.57 82.78,-141.57 82.78,-141.57 88.78,-141.57 94.78,-147.57 94.78,-153.57 94.78,-153.57 94.78,-165.57 94.78,-165.57 94.78,-171.57 88.78,-177.57 82.78,-177.57 82.78,-177.57 11.78,-177.57 11.78,-177.57 5.78,-177.57 -0.22,-171.57 -0.22,-165.57 -0.22,-165.57 -0.22,-153.57 -0.22,-153.57 -0.22,-147.57 5.78,-141.57 11.78,-141.57"/>
<text text-anchor="middle" x="47.28" y="-155.87" font-family="Arial" font-size="14.00">trademarklist</text>
</g>
<!-- topicref&#45;&gt;trademarklist -->
<g id="edge24" class="edge">
<title>topicref&#45;&gt;trademarklist</title>
<path fill="none" stroke="#1f78b4" d="M299.94,-251.62C253.26,-234.61 163.44,-201.89 104.44,-180.4"/>
<polygon fill="#a6cee3" stroke="#1f78b4" points="105.48,-177.05 94.88,-176.92 103.08,-183.63 105.48,-177.05"/>
</g>
<!-- bibliolist -->
<g id="node26" class="node">
<title>bibliolist</title>
<path fill="#1afabc" stroke="black" d="M233.85,-402.2C233.85,-402.2 274.85,-402.2 274.85,-402.2 280.85,-402.2 286.85,-408.2 286.85,-414.2 286.85,-414.2 286.85,-426.2 286.85,-426.2 286.85,-432.2 280.85,-438.2 274.85,-438.2 274.85,-438.2 233.85,-438.2 233.85,-438.2 227.85,-438.2 221.85,-432.2 221.85,-426.2 221.85,-426.2 221.85,-414.2 221.85,-414.2 221.85,-408.2 227.85,-402.2 233.85,-402.2"/>
<text text-anchor="middle" x="254.35" y="-416.5" font-family="Arial" font-size="14.00">bibliolist</text>
</g>
<!-- topicref&#45;&gt;bibliolist -->
<g id="edge25" class="edge">
<title>topicref&#45;&gt;bibliolist</title>
<path fill="none" stroke="#1f78b4" d="M321.79,-280.82C308.54,-308.2 283.28,-360.41 267.71,-392.58"/>
<polygon fill="#a6cee3" stroke="#1f78b4" points="264.42,-391.34 263.22,-401.87 270.72,-394.39 264.42,-391.34"/>
</g>
<!-- glossarylist -->
<g id="node27" class="node">
<title>glossarylist</title>
<path fill="#1afabc" stroke="black" d="M58.65,-285.84C58.65,-285.84 117.65,-285.84 117.65,-285.84 123.65,-285.84 129.65,-291.84 129.65,-297.84 129.65,-297.84 129.65,-309.84 129.65,-309.84 129.65,-315.84 123.65,-321.84 117.65,-321.84 117.65,-321.84 58.65,-321.84 58.65,-321.84 52.65,-321.84 46.65,-315.84 46.65,-309.84 46.65,-309.84 46.65,-297.84 46.65,-297.84 46.65,-291.84 52.65,-285.84 58.65,-285.84"/>
<text text-anchor="middle" x="88.15" y="-300.14" font-family="Arial" font-size="14.00">glossarylist</text>
</g>
<!-- topicref&#45;&gt;glossarylist -->
<g id="edge26" class="edge">
<title>topicref&#45;&gt;glossarylist</title>
<path fill="none" stroke="#1f78b4" d="M299.83,-267.97C259.63,-274.78 188.58,-286.82 139.97,-295.06"/>
<polygon fill="#a6cee3" stroke="#1f78b4" points="139.23,-291.63 129.96,-296.75 140.4,-298.53 139.23,-291.63"/>
</g>
<!-- indexlist -->
<g id="node28" class="node">
<title>indexlist</title>
<path fill="#1afabc" stroke="black" d="M319.53,-374.62C319.53,-374.62 360.53,-374.62 360.53,-374.62 366.53,-374.62 372.53,-380.62 372.53,-386.62 372.53,-386.62 372.53,-398.62 372.53,-398.62 372.53,-404.62 366.53,-410.62 360.53,-410.62 360.53,-410.62 319.53,-410.62 319.53,-410.62 313.53,-410.62 307.53,-404.62 307.53,-398.62 307.53,-398.62 307.53,-386.62 307.53,-386.62 307.53,-380.62 313.53,-374.62 319.53,-374.62"/>
<text text-anchor="middle" x="340.03" y="-388.92" font-family="Arial" font-size="14.00">indexlist</text>
</g>
<!-- topicref&#45;&gt;indexlist -->
<g id="edge27" class="edge">
<title>topicref&#45;&gt;indexlist</title>
<path fill="none" stroke="#1f78b4" d="M331.85,-280.82C333.43,-302.4 336.09,-338.79 337.94,-364.17"/>
<polygon fill="#a6cee3" stroke="#1f78b4" points="334.46,-364.58 338.69,-374.29 341.45,-364.07 334.46,-364.58"/>
</g>
<!-- booklist -->
<g id="node29" class="node">
<title>booklist</title>
<path fill="#1afabc" stroke="black" d="M448.61,-261.53C448.61,-261.53 486.61,-261.53 486.61,-261.53 492.61,-261.53 498.61,-267.53 498.61,-273.53 498.61,-273.53 498.61,-285.53 498.61,-285.53 498.61,-291.53 492.61,-297.53 486.61,-297.53 486.61,-297.53 448.61,-297.53 448.61,-297.53 442.61,-297.53 436.61,-291.53 436.61,-285.53 436.61,-285.53 436.61,-273.53 436.61,-273.53 436.61,-267.53 442.61,-261.53 448.61,-261.53"/>
<text text-anchor="middle" x="467.61" y="-275.83" font-family="Arial" font-size="14.00">booklist</text>
</g>
<!-- topicref&#45;&gt;booklist -->
<g id="edge28" class="edge">
<title>topicref&#45;&gt;booklist</title>
<path fill="none" stroke="#1f78b4" d="M361.29,-266.53C380.47,-268.87 405.39,-271.92 426.28,-274.47"/>
<polygon fill="#a6cee3" stroke="#1f78b4" points="426.12,-277.98 436.47,-275.72 426.97,-271.03 426.12,-277.98"/>
</g>
<!-- publisherinformation -->
<g id="node31" class="node">
<title>publisherinformation</title>
<path fill="#1afabc" stroke="black" d="M889.32,-448.39C889.32,-448.39 1004.32,-448.39 1004.32,-448.39 1010.32,-448.39 1016.32,-454.39 1016.32,-460.39 1016.32,-460.39 1016.32,-472.39 1016.32,-472.39 1016.32,-478.39 1010.32,-484.39 1004.32,-484.39 1004.32,-484.39 889.32,-484.39 889.32,-484.39 883.32,-484.39 877.32,-478.39 877.32,-472.39 877.32,-472.39 877.32,-460.39 877.32,-460.39 877.32,-454.39 883.32,-448.39 889.32,-448.39"/>
<text text-anchor="middle" x="946.82" y="-462.69" font-family="Arial" font-size="14.00">publisherinformation</text>
</g>
<!-- publisher&#45;&gt;publisherinformation -->
<g id="edge30" class="edge">
<title>publisher&#45;&gt;publisherinformation</title>
<path fill="none" stroke="#1f78b4" d="M808.95,-540.72C836.22,-526.02 874.9,-505.16 904.35,-489.28"/>
<polygon fill="#a6cee3" stroke="#1f78b4" points="906.03,-492.35 913.18,-484.53 902.71,-486.19 906.03,-492.35"/>
</g>
<!-- person -->
<g id="node33" class="node">
<title>person</title>
<path fill="#1afabc" stroke="black" d="M905.33,-1024.92C905.33,-1024.92 939.33,-1024.92 939.33,-1024.92 945.33,-1024.92 951.33,-1030.92 951.33,-1036.92 951.33,-1036.92 951.33,-1048.92 951.33,-1048.92 951.33,-1054.92 945.33,-1060.92 939.33,-1060.92 939.33,-1060.92 905.33,-1060.92 905.33,-1060.92 899.33,-1060.92 893.33,-1054.92 893.33,-1048.92 893.33,-1048.92 893.33,-1036.92 893.33,-1036.92 893.33,-1030.92 899.33,-1024.92 905.33,-1024.92"/>
<text text-anchor="middle" x="922.33" y="-1039.22" font-family="Arial" font-size="14.00">person</text>
</g>
<!-- data&#45;&gt;person -->
<g id="edge32" class="edge">
<title>data&#45;&gt;person</title>
<path fill="none" stroke="#1f78b4" d="M932.56,-912.43C930.56,-937.85 926.93,-984.2 924.58,-1014.26"/>
<polygon fill="#a6cee3" stroke="#1f78b4" points="921.06,-1014.29 923.77,-1024.53 928.04,-1014.84 921.06,-1014.29"/>
</g>
<!-- organization -->
<g id="node34" class="node">
<title>organization</title>
<path fill="#1afabc" stroke="black" d="M1167.37,-1007.19C1167.37,-1007.19 1233.37,-1007.19 1233.37,-1007.19 1239.37,-1007.19 1245.37,-1013.19 1245.37,-1019.19 1245.37,-1019.19 1245.37,-1031.19 1245.37,-1031.19 1245.37,-1037.19 1239.37,-1043.19 1233.37,-1043.19 1233.37,-1043.19 1167.37,-1043.19 1167.37,-1043.19 1161.37,-1043.19 1155.37,-1037.19 1155.37,-1031.19 1155.37,-1031.19 1155.37,-1019.19 1155.37,-1019.19 1155.37,-1013.19 1161.37,-1007.19 1167.37,-1007.19"/>
<text text-anchor="middle" x="1200.37" y="-1021.49" font-family="Arial" font-size="14.00">organization</text>
</g>
<!-- data&#45;&gt;organization -->
<g id="edge33" class="edge">
<title>data&#45;&gt;organization</title>
<path fill="none" stroke="#1f78b4" d="M960.99,-907.47C1006.38,-929.79 1098.45,-975.07 1154.25,-1002.51"/>
<polygon fill="#a6cee3" stroke="#1f78b4" points="1153.03,-1005.81 1163.55,-1007.08 1156.12,-999.53 1153.03,-1005.81"/>
</g>
<!-- bookchangehistory -->
<g id="node35" class="node">
<title>bookchangehistory</title>
<path fill="#1afabc" stroke="black" d="M954.9,-1155.57C954.9,-1155.57 1060.9,-1155.57 1060.9,-1155.57 1066.9,-1155.57 1072.9,-1161.57 1072.9,-1167.57 1072.9,-1167.57 1072.9,-1179.57 1072.9,-1179.57 1072.9,-1185.57 1066.9,-1191.57 1060.9,-1191.57 1060.9,-1191.57 954.9,-1191.57 954.9,-1191.57 948.9,-1191.57 942.9,-1185.57 942.9,-1179.57 942.9,-1179.57 942.9,-1167.57 942.9,-1167.57 942.9,-1161.57 948.9,-1155.57 954.9,-1155.57"/>
<text text-anchor="middle" x="1007.9" y="-1169.87" font-family="Arial" font-size="14.00">bookchangehistory</text>
</g>
<!-- data&#45;&gt;bookchangehistory -->
<g id="edge34" class="edge">
<title>data&#45;&gt;bookchangehistory</title>
<path fill="none" stroke="#1f78b4" d="M938.84,-912.52C951.47,-960.29 985.48,-1088.83 1000.54,-1145.77"/>
<polygon fill="#a6cee3" stroke="#1f78b4" points="997.18,-1146.76 1003.12,-1155.53 1003.95,-1144.97 997.18,-1146.76"/>
</g>
<!-- bookid -->
<g id="node36" class="node">
<title>bookid</title>
<path fill="#1afabc" stroke="black" d="M789.63,-973.82C789.63,-973.82 821.63,-973.82 821.63,-973.82 827.63,-973.82 833.63,-979.82 833.63,-985.82 833.63,-985.82 833.63,-997.82 833.63,-997.82 833.63,-1003.82 827.63,-1009.82 821.63,-1009.82 821.63,-1009.82 789.63,-1009.82 789.63,-1009.82 783.63,-1009.82 777.63,-1003.82 777.63,-997.82 777.63,-997.82 777.63,-985.82 777.63,-985.82 777.63,-979.82 783.63,-973.82 789.63,-973.82"/>
<text text-anchor="middle" x="805.63" y="-988.12" font-family="Arial" font-size="14.00">bookid</text>
</g>
<!-- data&#45;&gt;bookid -->
<g id="edge35" class="edge">
<title>data&#45;&gt;bookid</title>
<path fill="none" stroke="#1f78b4" d="M910.14,-912.32C889.7,-927.87 860.07,-950.41 837.58,-967.52"/>
<polygon fill="#a6cee3" stroke="#1f78b4" points="835.18,-964.94 829.34,-973.78 839.42,-970.51 835.18,-964.94"/>
</g>
<!-- printlocation -->
<g id="node37" class="node">
<title>printlocation</title>
<path fill="#1afabc" stroke="black" d="M1065.49,-719.71C1065.49,-719.71 1130.49,-719.71 1130.49,-719.71 1136.49,-719.71 1142.49,-725.71 1142.49,-731.71 1142.49,-731.71 1142.49,-743.71 1142.49,-743.71 1142.49,-749.71 1136.49,-755.71 1130.49,-755.71 1130.49,-755.71 1065.49,-755.71 1065.49,-755.71 1059.49,-755.71 1053.49,-749.71 1053.49,-743.71 1053.49,-743.71 1053.49,-731.71 1053.49,-731.71 1053.49,-725.71 1059.49,-719.71 1065.49,-719.71"/>
<text text-anchor="middle" x="1097.99" y="-734.01" font-family="Arial" font-size="14.00">printlocation</text>
</g>
<!-- data&#45;&gt;printlocation -->
<g id="edge36" class="edge">
<title>data&#45;&gt;printlocation</title>
<path fill="none" stroke="#1f78b4" d="M953.12,-875.93C982.38,-848.02 1038.31,-794.65 1071.47,-763.02"/>
<polygon fill="#a6cee3" stroke="#1f78b4" points="1074.16,-765.29 1078.98,-755.85 1069.32,-760.22 1074.16,-765.29"/>
</g>
<!-- published -->
<g id="node38" class="node">
<title>published</title>
<path fill="#1afabc" stroke="black" d="M973.33,-696.88C973.33,-696.88 1023.33,-696.88 1023.33,-696.88 1029.33,-696.88 1035.33,-702.88 1035.33,-708.88 1035.33,-708.88 1035.33,-720.88 1035.33,-720.88 1035.33,-726.88 1029.33,-732.88 1023.33,-732.88 1023.33,-732.88 973.33,-732.88 973.33,-732.88 967.33,-732.88 961.33,-726.88 961.33,-720.88 961.33,-720.88 961.33,-708.88 961.33,-708.88 961.33,-702.88 967.33,-696.88 973.33,-696.88"/>
<text text-anchor="middle" x="998.33" y="-711.18" font-family="Arial" font-size="14.00">published</text>
</g>
<!-- data&#45;&gt;published -->
<g id="edge37" class="edge">
<title>data&#45;&gt;published</title>
<path fill="none" stroke="#1f78b4" d="M940.51,-876.01C951.78,-844.6 974.98,-779.96 988.31,-742.81"/>
<polygon fill="#a6cee3" stroke="#1f78b4" points="991.71,-743.7 991.79,-733.11 985.12,-741.34 991.71,-743.7"/>
</g>
<!-- publishtype -->
<g id="node39" class="node">
<title>publishtype</title>
<path fill="#1afabc" stroke="black" d="M743.19,-1019.3C743.19,-1019.3 804.19,-1019.3 804.19,-1019.3 810.19,-1019.3 816.19,-1025.3 816.19,-1031.3 816.19,-1031.3 816.19,-1043.3 816.19,-1043.3 816.19,-1049.3 810.19,-1055.3 804.19,-1055.3 804.19,-1055.3 743.19,-1055.3 743.19,-1055.3 737.19,-1055.3 731.19,-1049.3 731.19,-1043.3 731.19,-1043.3 731.19,-1031.3 731.19,-1031.3 731.19,-1025.3 737.19,-1019.3 743.19,-1019.3"/>
<text text-anchor="middle" x="773.69" y="-1033.6" font-family="Arial" font-size="14.00">publishtype</text>
</g>
<!-- data&#45;&gt;publishtype -->
<g id="edge38" class="edge">
<title>data&#45;&gt;publishtype</title>
<path fill="none" stroke="#1f78b4" d="M913.69,-912.31C885.34,-937.62 833.79,-983.65 801.77,-1012.23"/>
<polygon fill="#a6cee3" stroke="#1f78b4" points="799.21,-1009.83 794.08,-1019.1 803.87,-1015.05 799.21,-1009.83"/>
</g>
<!-- reviewed -->
<g id="node40" class="node">
<title>reviewed</title>
<path fill="#1afabc" stroke="black" d="M1086.14,-901.02C1086.14,-901.02 1133.14,-901.02 1133.14,-901.02 1139.14,-901.02 1145.14,-907.02 1145.14,-913.02 1145.14,-913.02 1145.14,-925.02 1145.14,-925.02 1145.14,-931.02 1139.14,-937.02 1133.14,-937.02 1133.14,-937.02 1086.14,-937.02 1086.14,-937.02 1080.14,-937.02 1074.14,-931.02 1074.14,-925.02 1074.14,-925.02 1074.14,-913.02 1074.14,-913.02 1074.14,-907.02 1080.14,-901.02 1086.14,-901.02"/>
<text text-anchor="middle" x="1109.64" y="-915.32" font-family="Arial" font-size="14.00">reviewed</text>
</g>
<!-- data&#45;&gt;reviewed -->
<g id="edge39" class="edge">
<title>data&#45;&gt;reviewed</title>
<path fill="none" stroke="#1f78b4" d="M961.05,-898.02C988.4,-901.88 1031.18,-907.93 1063.83,-912.55"/>
<polygon fill="#a6cee3" stroke="#1f78b4" points="1063.65,-916.06 1074.04,-913.99 1064.63,-909.13 1063.65,-916.06"/>
</g>
<!-- edited -->
<g id="node41" class="node">
<title>edited</title>
<path fill="#1afabc" stroke="black" d="M994.07,-752.45C994.07,-752.45 1024.07,-752.45 1024.07,-752.45 1030.07,-752.45 1036.07,-758.45 1036.07,-764.45 1036.07,-764.45 1036.07,-776.45 1036.07,-776.45 1036.07,-782.45 1030.07,-788.45 1024.07,-788.45 1024.07,-788.45 994.07,-788.45 994.07,-788.45 988.07,-788.45 982.07,-782.45 982.07,-776.45 982.07,-776.45 982.07,-764.45 982.07,-764.45 982.07,-758.45 988.07,-752.45 994.07,-752.45"/>
<text text-anchor="middle" x="1009.07" y="-766.75" font-family="Arial" font-size="14.00">edited</text>
</g>
<!-- data&#45;&gt;edited -->
<g id="edge40" class="edge">
<title>data&#45;&gt;edited</title>
<path fill="none" stroke="#1f78b4" d="M945.07,-875.93C957.65,-855.19 978.32,-821.13 992.75,-797.34"/>
<polygon fill="#a6cee3" stroke="#1f78b4" points="995.75,-799.15 997.94,-788.78 989.77,-795.51 995.75,-799.15"/>
</g>
<!-- tested -->
<g id="node42" class="node">
<title>tested</title>
<path fill="#1afabc" stroke="black" d="M804.03,-834.24C804.03,-834.24 834.03,-834.24 834.03,-834.24 840.03,-834.24 846.03,-840.24 846.03,-846.24 846.03,-846.24 846.03,-858.24 846.03,-858.24 846.03,-864.24 840.03,-870.24 834.03,-870.24 834.03,-870.24 804.03,-870.24 804.03,-870.24 798.03,-870.24 792.03,-864.24 792.03,-858.24 792.03,-858.24 792.03,-846.24 792.03,-846.24 792.03,-840.24 798.03,-834.24 804.03,-834.24"/>
<text text-anchor="middle" x="819.03" y="-848.54" font-family="Arial" font-size="14.00">tested</text>
</g>
<!-- data&#45;&gt;tested -->
<g id="edge41" class="edge">
<title>data&#45;&gt;tested</title>
<path fill="none" stroke="#1f78b4" d="M906.74,-884.25C891.42,-878.66 872.1,-871.61 855.49,-865.55"/>
<polygon fill="#a6cee3" stroke="#1f78b4" points="856.67,-862.25 846.08,-862.11 854.27,-868.83 856.67,-862.25"/>
</g>
<!-- approved -->
<g id="node43" class="node">
<title>approved</title>
<path fill="#1afabc" stroke="black" d="M887.08,-725.3C887.08,-725.3 936.08,-725.3 936.08,-725.3 942.08,-725.3 948.08,-731.3 948.08,-737.3 948.08,-737.3 948.08,-749.3 948.08,-749.3 948.08,-755.3 942.08,-761.3 936.08,-761.3 936.08,-761.3 887.08,-761.3 887.08,-761.3 881.08,-761.3 875.08,-755.3 875.08,-749.3 875.08,-749.3 875.08,-737.3 875.08,-737.3 875.08,-731.3 881.08,-725.3 887.08,-725.3"/>
<text text-anchor="middle" x="911.58" y="-739.6" font-family="Arial" font-size="14.00">approved</text>
</g>
<!-- data&#45;&gt;approved -->
<g id="edge42" class="edge">
<title>data&#45;&gt;approved</title>
<path fill="none" stroke="#1f78b4" d="M931.28,-875.99C927.43,-850.05 920.32,-802.2 915.78,-771.6"/>
<polygon fill="#a6cee3" stroke="#1f78b4" points="919.22,-770.94 914.29,-761.57 912.3,-771.97 919.22,-770.94"/>
</g>
<!-- bookevent -->
<g id="node44" class="node">
<title>bookevent</title>
<path fill="#1afabc" stroke="black" d="M1033.68,-797.45C1033.68,-797.45 1088.68,-797.45 1088.68,-797.45 1094.68,-797.45 1100.68,-803.45 1100.68,-809.45 1100.68,-809.45 1100.68,-821.45 1100.68,-821.45 1100.68,-827.45 1094.68,-833.45 1088.68,-833.45 1088.68,-833.45 1033.68,-833.45 1033.68,-833.45 1027.68,-833.45 1021.68,-827.45 1021.68,-821.45 1021.68,-821.45 1021.68,-809.45 1021.68,-809.45 1021.68,-803.45 1027.68,-797.45 1033.68,-797.45"/>
<text text-anchor="middle" x="1061.18" y="-811.75" font-family="Arial" font-size="14.00">bookevent</text>
</g>
<!-- data&#45;&gt;bookevent -->
<g id="edge43" class="edge">
<title>data&#45;&gt;bookevent</title>
<path fill="none" stroke="#1f78b4" d="M961.27,-877.3C979.33,-866.12 1003.26,-851.3 1023.18,-838.98"/>
<polygon fill="#a6cee3" stroke="#1f78b4" points="1025.06,-841.93 1031.72,-833.69 1021.38,-835.97 1025.06,-841.93"/>
</g>
<!-- bookeventtype -->
<g id="node45" class="node">
<title>bookeventtype</title>
<path fill="#1afabc" stroke="black" d="M1165.24,-882.15C1165.24,-882.15 1245.24,-882.15 1245.24,-882.15 1251.24,-882.15 1257.24,-888.15 1257.24,-894.15 1257.24,-894.15 1257.24,-906.15 1257.24,-906.15 1257.24,-912.15 1251.24,-918.15 1245.24,-918.15 1245.24,-918.15 1165.24,-918.15 1165.24,-918.15 1159.24,-918.15 1153.24,-912.15 1153.24,-906.15 1153.24,-906.15 1153.24,-894.15 1153.24,-894.15 1153.24,-888.15 1159.24,-882.15 1165.24,-882.15"/>
<text text-anchor="middle" x="1205.24" y="-896.45" font-family="Arial" font-size="14.00">bookeventtype</text>
</g>
<!-- data&#45;&gt;bookeventtype -->
<g id="edge44" class="edge">
<title>data&#45;&gt;bookeventtype</title>
<path fill="none" stroke="#1f78b4" d="M960.99,-894.78C1003.15,-895.71 1085.72,-897.53 1143.12,-898.79"/>
<polygon fill="#a6cee3" stroke="#1f78b4" points="1143.1,-902.29 1153.17,-899.01 1143.25,-895.29 1143.1,-902.29"/>
</g>
<!-- bookpartno -->
<g id="node46" class="node">
<title>bookpartno</title>
<path fill="#1afabc" stroke="black" d="M1071.21,-984.87C1071.21,-984.87 1131.21,-984.87 1131.21,-984.87 1137.21,-984.87 1143.21,-990.87 1143.21,-996.87 1143.21,-996.87 1143.21,-1008.87 1143.21,-1008.87 1143.21,-1014.87 1137.21,-1020.87 1131.21,-1020.87 1131.21,-1020.87 1071.21,-1020.87 1071.21,-1020.87 1065.21,-1020.87 1059.21,-1014.87 1059.21,-1008.87 1059.21,-1008.87 1059.21,-996.87 1059.21,-996.87 1059.21,-990.87 1065.21,-984.87 1071.21,-984.87"/>
<text text-anchor="middle" x="1101.21" y="-999.17" font-family="Arial" font-size="14.00">bookpartno</text>
</g>
<!-- data&#45;&gt;bookpartno -->
<g id="edge45" class="edge">
<title>data&#45;&gt;bookpartno</title>
<path fill="none" stroke="#1f78b4" d="M961.23,-911.89C989.48,-930.26 1033.81,-959.07 1065,-979.34"/>
<polygon fill="#a6cee3" stroke="#1f78b4" points="1063.14,-982.3 1073.43,-984.81 1066.95,-976.43 1063.14,-982.3"/>
</g>
<!-- edition -->
<g id="node47" class="node">
<title>edition</title>
<path fill="#1afabc" stroke="black" d="M1007.1,-1024.53C1007.1,-1024.53 1039.1,-1024.53 1039.1,-1024.53 1045.1,-1024.53 1051.1,-1030.53 1051.1,-1036.53 1051.1,-1036.53 1051.1,-1048.53 1051.1,-1048.53 1051.1,-1054.53 1045.1,-1060.53 1039.1,-1060.53 1039.1,-1060.53 1007.1,-1060.53 1007.1,-1060.53 1001.1,-1060.53 995.1,-1054.53 995.1,-1048.53 995.1,-1048.53 995.1,-1036.53 995.1,-1036.53 995.1,-1030.53 1001.1,-1024.53 1007.1,-1024.53"/>
<text text-anchor="middle" x="1023.1" y="-1038.83" font-family="Arial" font-size="14.00">edition</text>
</g>
<!-- data&#45;&gt;edition -->
<g id="edge46" class="edge">
<title>data&#45;&gt;edition</title>
<path fill="none" stroke="#1f78b4" d="M944.91,-912.38C960.41,-938.18 988.9,-985.59 1006.87,-1015.51"/>
<polygon fill="#a6cee3" stroke="#1f78b4" points="1003.94,-1017.42 1012.09,-1024.19 1009.94,-1013.82 1003.94,-1017.42"/>
</g>
<!-- isbn -->
<g id="node48" class="node">
<title>isbn</title>
<path fill="#1afabc" stroke="black" d="M766.22,-921.11C766.22,-921.11 796.22,-921.11 796.22,-921.11 802.22,-921.11 808.22,-927.11 808.22,-933.11 808.22,-933.11 808.22,-945.11 808.22,-945.11 808.22,-951.11 802.22,-957.11 796.22,-957.11 796.22,-957.11 766.22,-957.11 766.22,-957.11 760.22,-957.11 754.22,-951.11 754.22,-945.11 754.22,-945.11 754.22,-933.11 754.22,-933.11 754.22,-927.11 760.22,-921.11 766.22,-921.11"/>
<text text-anchor="middle" x="781.22" y="-935.41" font-family="Arial" font-size="14.00">isbn</text>
</g>
<!-- data&#45;&gt;isbn -->
<g id="edge47" class="edge">
<title>data&#45;&gt;isbn</title>
<path fill="none" stroke="#1f78b4" d="M906.67,-902.22C881.91,-909.5 845.21,-920.29 817.89,-928.33"/>
<polygon fill="#a6cee3" stroke="#1f78b4" points="816.9,-924.97 808.29,-931.15 818.87,-931.69 816.9,-924.97"/>
</g>
<!-- booknumber -->
<g id="node49" class="node">
<title>booknumber</title>
<path fill="#1afabc" stroke="black" d="M1163.4,-946.06C1163.4,-946.06 1231.4,-946.06 1231.4,-946.06 1237.4,-946.06 1243.4,-952.06 1243.4,-958.06 1243.4,-958.06 1243.4,-970.06 1243.4,-970.06 1243.4,-976.06 1237.4,-982.06 1231.4,-982.06 1231.4,-982.06 1163.4,-982.06 1163.4,-982.06 1157.4,-982.06 1151.4,-976.06 1151.4,-970.06 1151.4,-970.06 1151.4,-958.06 1151.4,-958.06 1151.4,-952.06 1157.4,-946.06 1163.4,-946.06"/>
<text text-anchor="middle" x="1197.4" y="-960.36" font-family="Arial" font-size="14.00">booknumber</text>
</g>
<!-- data&#45;&gt;booknumber -->
<g id="edge48" class="edge">
<title>data&#45;&gt;booknumber</title>
<path fill="none" stroke="#1f78b4" d="M961.18,-901.4C1003.47,-912.62 1085.86,-934.48 1141.28,-949.17"/>
<polygon fill="#a6cee3" stroke="#1f78b4" points="1140.39,-952.56 1150.95,-951.74 1142.18,-945.79 1140.39,-952.56"/>
</g>
<!-- volume -->
<g id="node50" class="node">
<title>volume</title>
<path fill="#1afabc" stroke="black" d="M836.27,-1056.24C836.27,-1056.24 873.27,-1056.24 873.27,-1056.24 879.27,-1056.24 885.27,-1062.24 885.27,-1068.24 885.27,-1068.24 885.27,-1080.24 885.27,-1080.24 885.27,-1086.24 879.27,-1092.24 873.27,-1092.24 873.27,-1092.24 836.27,-1092.24 836.27,-1092.24 830.27,-1092.24 824.27,-1086.24 824.27,-1080.24 824.27,-1080.24 824.27,-1068.24 824.27,-1068.24 824.27,-1062.24 830.27,-1056.24 836.27,-1056.24"/>
<text text-anchor="middle" x="854.77" y="-1070.54" font-family="Arial" font-size="14.00">volume</text>
</g>
<!-- data&#45;&gt;volume -->
<g id="edge49" class="edge">
<title>data&#45;&gt;volume</title>
<path fill="none" stroke="#1f78b4" d="M925.95,-912.44C911.98,-944.2 883.13,-1009.78 866.77,-1046.96"/>
<polygon fill="#a6cee3" stroke="#1f78b4" points="863.53,-1045.64 862.7,-1056.2 869.94,-1048.46 863.53,-1045.64"/>
</g>
<!-- maintainer -->
<g id="node51" class="node">
<title>maintainer</title>
<path fill="#1afabc" stroke="black" d="M1122.5,-837.12C1122.5,-837.12 1178.5,-837.12 1178.5,-837.12 1184.5,-837.12 1190.5,-843.12 1190.5,-849.12 1190.5,-849.12 1190.5,-861.12 1190.5,-861.12 1190.5,-867.12 1184.5,-873.12 1178.5,-873.12 1178.5,-873.12 1122.5,-873.12 1122.5,-873.12 1116.5,-873.12 1110.5,-867.12 1110.5,-861.12 1110.5,-861.12 1110.5,-849.12 1110.5,-849.12 1110.5,-843.12 1116.5,-837.12 1122.5,-837.12"/>
<text text-anchor="middle" x="1150.5" y="-851.42" font-family="Arial" font-size="14.00">maintainer</text>
</g>
<!-- data&#45;&gt;maintainer -->
<g id="edge50" class="edge">
<title>data&#45;&gt;maintainer</title>
<path fill="none" stroke="#1f78b4" d="M961.41,-889.24C996.28,-882.95 1057.14,-871.96 1100.39,-864.16"/>
<polygon fill="#a6cee3" stroke="#1f78b4" points="1101.21,-867.57 1110.43,-862.35 1099.97,-860.68 1101.21,-867.57"/>
</g>
<!-- bookrights -->
<g id="node52" class="node">
<title>bookrights</title>
<path fill="#1afabc" stroke="black" d="M1086.61,-1052.23C1086.61,-1052.23 1141.61,-1052.23 1141.61,-1052.23 1147.61,-1052.23 1153.61,-1058.23 1153.61,-1064.23 1153.61,-1064.23 1153.61,-1076.23 1153.61,-1076.23 1153.61,-1082.23 1147.61,-1088.23 1141.61,-1088.23 1141.61,-1088.23 1086.61,-1088.23 1086.61,-1088.23 1080.61,-1088.23 1074.61,-1082.23 1074.61,-1076.23 1074.61,-1076.23 1074.61,-1064.23 1074.61,-1064.23 1074.61,-1058.23 1080.61,-1052.23 1086.61,-1052.23"/>
<text text-anchor="middle" x="1114.11" y="-1066.53" font-family="Arial" font-size="14.00">bookrights</text>
</g>
<!-- data&#45;&gt;bookrights -->
<g id="edge51" class="edge">
<title>data&#45;&gt;bookrights</title>
<path fill="none" stroke="#1f78b4" d="M952.58,-912.37C984.89,-943.94 1051.44,-1008.98 1088.24,-1044.94"/>
<polygon fill="#a6cee3" stroke="#1f78b4" points="1086.02,-1047.66 1095.61,-1052.15 1090.91,-1042.66 1086.02,-1047.66"/>
</g>
<!-- copyrfirst -->
<g id="node53" class="node">
<title>copyrfirst</title>
<path fill="#1afabc" stroke="black" d="M866.98,-1112.03C866.98,-1112.03 913.98,-1112.03 913.98,-1112.03 919.98,-1112.03 925.98,-1118.03 925.98,-1124.03 925.98,-1124.03 925.98,-1136.03 925.98,-1136.03 925.98,-1142.03 919.98,-1148.03 913.98,-1148.03 913.98,-1148.03 866.98,-1148.03 866.98,-1148.03 860.98,-1148.03 854.98,-1142.03 854.98,-1136.03 854.98,-1136.03 854.98,-1124.03 854.98,-1124.03 854.98,-1118.03 860.98,-1112.03 866.98,-1112.03"/>
<text text-anchor="middle" x="890.48" y="-1126.33" font-family="Arial" font-size="14.00">copyrfirst</text>
</g>
<!-- data&#45;&gt;copyrfirst -->
<g id="edge52" class="edge">
<title>data&#45;&gt;copyrfirst</title>
<path fill="none" stroke="#1f78b4" d="M930.65,-912.3C923.1,-953.2 904.7,-1052.94 895.67,-1101.93"/>
<polygon fill="#a6cee3" stroke="#1f78b4" points="892.21,-1101.39 893.84,-1111.86 899.09,-1102.66 892.21,-1101.39"/>
</g>
<!-- copyrlast -->
<g id="node54" class="node">
<title>copyrlast</title>
<path fill="#1afabc" stroke="black" d="M946.05,-1081.8C946.05,-1081.8 993.05,-1081.8 993.05,-1081.8 999.05,-1081.8 1005.05,-1087.8 1005.05,-1093.8 1005.05,-1093.8 1005.05,-1105.8 1005.05,-1105.8 1005.05,-1111.8 999.05,-1117.8 993.05,-1117.8 993.05,-1117.8 946.05,-1117.8 946.05,-1117.8 940.05,-1117.8 934.05,-1111.8 934.05,-1105.8 934.05,-1105.8 934.05,-1093.8 934.05,-1093.8 934.05,-1087.8 940.05,-1081.8 946.05,-1081.8"/>
<text text-anchor="middle" x="969.55" y="-1096.1" font-family="Arial" font-size="14.00">copyrlast</text>
</g>
<!-- data&#45;&gt;copyrlast -->
<g id="edge53" class="edge">
<title>data&#45;&gt;copyrlast</title>
<path fill="none" stroke="#1f78b4" d="M937.14,-912.44C943.37,-948.41 957.25,-1028.69 964.67,-1071.55"/>
<polygon fill="#a6cee3" stroke="#1f78b4" points="961.25,-1072.34 966.4,-1081.6 968.15,-1071.14 961.25,-1072.34"/>
</g>
<!-- bookowner -->
<g id="node55" class="node">
<title>bookowner</title>
<path fill="#1afabc" stroke="black" d="M1025.08,-1097.26C1025.08,-1097.26 1084.08,-1097.26 1084.08,-1097.26 1090.08,-1097.26 1096.08,-1103.26 1096.08,-1109.26 1096.08,-1109.26 1096.08,-1121.26 1096.08,-1121.26 1096.08,-1127.26 1090.08,-1133.26 1084.08,-1133.26 1084.08,-1133.26 1025.08,-1133.26 1025.08,-1133.26 1019.08,-1133.26 1013.08,-1127.26 1013.08,-1121.26 1013.08,-1121.26 1013.08,-1109.26 1013.08,-1109.26 1013.08,-1103.26 1019.08,-1097.26 1025.08,-1097.26"/>
<text text-anchor="middle" x="1054.58" y="-1111.56" font-family="Arial" font-size="14.00">bookowner</text>
</g>
<!-- data&#45;&gt;bookowner -->
<g id="edge54" class="edge">
<title>data&#45;&gt;bookowner</title>
<path fill="none" stroke="#1f78b4" d="M943.86,-912.28C965.02,-951.08 1014.87,-1042.47 1039.82,-1088.2"/>
<polygon fill="#a6cee3" stroke="#1f78b4" points="1036.88,-1090.13 1044.75,-1097.23 1043.03,-1086.78 1036.88,-1090.13"/>
</g>
<!-- bookrestriction -->
<g id="node56" class="node">
<title>bookrestriction</title>
<path fill="#1afabc" stroke="black" d="M1120.84,-764.76C1120.84,-764.76 1200.84,-764.76 1200.84,-764.76 1206.84,-764.76 1212.84,-770.76 1212.84,-776.76 1212.84,-776.76 1212.84,-788.76 1212.84,-788.76 1212.84,-794.76 1206.84,-800.76 1200.84,-800.76 1200.84,-800.76 1120.84,-800.76 1120.84,-800.76 1114.84,-800.76 1108.84,-794.76 1108.84,-788.76 1108.84,-788.76 1108.84,-776.76 1108.84,-776.76 1108.84,-770.76 1114.84,-764.76 1120.84,-764.76"/>
<text text-anchor="middle" x="1160.84" y="-779.06" font-family="Arial" font-size="14.00">bookrestriction</text>
</g>
<!-- data&#45;&gt;bookrestriction -->
<g id="edge55" class="edge">
<title>data&#45;&gt;bookrestriction</title>
<path fill="none" stroke="#1f78b4" d="M961.35,-880.75C999.39,-862.06 1068.75,-828 1114.82,-805.36"/>
<polygon fill="#a6cee3" stroke="#1f78b4" points="1116.56,-808.41 1123.99,-800.86 1113.47,-802.12 1116.56,-808.41"/>
</g>
<!-- summary -->
<g id="node58" class="node">
<title>summary</title>
<path fill="#1afabc" stroke="black" d="M341.05,-1016.81C341.05,-1016.81 391.05,-1016.81 391.05,-1016.81 397.05,-1016.81 403.05,-1022.81 403.05,-1028.81 403.05,-1028.81 403.05,-1040.81 403.05,-1040.81 403.05,-1046.81 397.05,-1052.81 391.05,-1052.81 391.05,-1052.81 341.05,-1052.81 341.05,-1052.81 335.05,-1052.81 329.05,-1046.81 329.05,-1040.81 329.05,-1040.81 329.05,-1028.81 329.05,-1028.81 329.05,-1022.81 335.05,-1016.81 341.05,-1016.81"/>
<text text-anchor="middle" x="366.05" y="-1031.11" font-family="Arial" font-size="14.00">summary</text>
</g>
<!-- ph&#45;&gt;summary -->
<g id="edge57" class="edge">
<title>ph&#45;&gt;summary</title>
<path fill="none" stroke="#1f78b4" d="M339.42,-880.98C344.6,-910.9 354.99,-970.95 361.15,-1006.53"/>
<polygon fill="#a6cee3" stroke="#1f78b4" points="357.76,-1007.47 362.92,-1016.72 364.66,-1006.27 357.76,-1007.47"/>
</g>
<!-- revisionid -->
<g id="node59" class="node">
<title>revisionid</title>
<path fill="#1afabc" stroke="black" d="M258.82,-1020.01C258.82,-1020.01 308.82,-1020.01 308.82,-1020.01 314.82,-1020.01 320.82,-1026.01 320.82,-1032.01 320.82,-1032.01 320.82,-1044.01 320.82,-1044.01 320.82,-1050.01 314.82,-1056.01 308.82,-1056.01 308.82,-1056.01 258.82,-1056.01 258.82,-1056.01 252.82,-1056.01 246.82,-1050.01 246.82,-1044.01 246.82,-1044.01 246.82,-1032.01 246.82,-1032.01 246.82,-1026.01 252.82,-1020.01 258.82,-1020.01"/>
<text text-anchor="middle" x="283.82" y="-1034.31" font-family="Arial" font-size="14.00">revisionid</text>
</g>
<!-- ph&#45;&gt;revisionid -->
<g id="edge58" class="edge">
<title>ph&#45;&gt;revisionid</title>
<path fill="none" stroke="#1f78b4" d="M330.87,-880.98C321.72,-911.52 303.14,-973.54 292.27,-1009.82"/>
<polygon fill="#a6cee3" stroke="#1f78b4" points="288.81,-1009.18 289.29,-1019.76 295.51,-1011.19 288.81,-1009.18"/>
</g>
<!-- started -->
<g id="node60" class="node">
<title>started</title>
<path fill="#1afabc" stroke="black" d="M194.51,-897.35C194.51,-897.35 228.51,-897.35 228.51,-897.35 234.51,-897.35 240.51,-903.35 240.51,-909.35 240.51,-909.35 240.51,-921.35 240.51,-921.35 240.51,-927.35 234.51,-933.35 228.51,-933.35 228.51,-933.35 194.51,-933.35 194.51,-933.35 188.51,-933.35 182.51,-927.35 182.51,-921.35 182.51,-921.35 182.51,-909.35 182.51,-909.35 182.51,-903.35 188.51,-897.35 194.51,-897.35"/>
<text text-anchor="middle" x="211.51" y="-911.65" font-family="Arial" font-size="14.00">started</text>
</g>
<!-- ph&#45;&gt;started -->
<g id="edge59" class="edge">
<title>ph&#45;&gt;started</title>
<path fill="none" stroke="#1f78b4" d="M309.21,-874.29C291.92,-881.55 269.23,-891.09 250.07,-899.14"/>
<polygon fill="#a6cee3" stroke="#1f78b4" points="248.57,-895.98 240.71,-903.08 251.28,-902.43 248.57,-895.98"/>
</g>
<!-- completed -->
<g id="node61" class="node">
<title>completed</title>
<path fill="#1afabc" stroke="black" d="M106.34,-884.52C106.34,-884.52 162.34,-884.52 162.34,-884.52 168.34,-884.52 174.34,-890.52 174.34,-896.52 174.34,-896.52 174.34,-908.52 174.34,-908.52 174.34,-914.52 168.34,-920.52 162.34,-920.52 162.34,-920.52 106.34,-920.52 106.34,-920.52 100.34,-920.52 94.34,-914.52 94.34,-908.52 94.34,-908.52 94.34,-896.52 94.34,-896.52 94.34,-890.52 100.34,-884.52 106.34,-884.52"/>
<text text-anchor="middle" x="134.34" y="-898.82" font-family="Arial" font-size="14.00">completed</text>
</g>
<!-- ph&#45;&gt;completed -->
<g id="edge60" class="edge">
<title>ph&#45;&gt;completed</title>
<path fill="none" stroke="#1f78b4" d="M309.05,-868.25C277.16,-874.5 223.69,-884.99 184.29,-892.72"/>
<polygon fill="#a6cee3" stroke="#1f78b4" points="183.48,-889.32 174.34,-894.68 184.83,-896.19 183.48,-889.32"/>
</g>
<!-- year -->
<g id="node62" class="node">
<title>year</title>
<path fill="#1afabc" stroke="black" d="M202.71,-794.06C202.71,-794.06 232.71,-794.06 232.71,-794.06 238.71,-794.06 244.71,-800.06 244.71,-806.06 244.71,-806.06 244.71,-818.06 244.71,-818.06 244.71,-824.06 238.71,-830.06 232.71,-830.06 232.71,-830.06 202.71,-830.06 202.71,-830.06 196.71,-830.06 190.71,-824.06 190.71,-818.06 190.71,-818.06 190.71,-806.06 190.71,-806.06 190.71,-800.06 196.71,-794.06 202.71,-794.06"/>
<text text-anchor="middle" x="217.71" y="-808.36" font-family="Arial" font-size="14.00">year</text>
</g>
<!-- ph&#45;&gt;year -->
<g id="edge61" class="edge">
<title>ph&#45;&gt;year</title>
<path fill="none" stroke="#1f78b4" d="M309.09,-851.24C292.82,-844.27 271.94,-835.31 254.24,-827.72"/>
<polygon fill="#a6cee3" stroke="#1f78b4" points="255.36,-824.4 244.79,-823.67 252.6,-830.83 255.36,-824.4"/>
</g>
<!-- month -->
<g id="node63" class="node">
<title>month</title>
<path fill="#1afabc" stroke="black" d="M244.97,-942.77C244.97,-942.77 275.97,-942.77 275.97,-942.77 281.97,-942.77 287.97,-948.77 287.97,-954.77 287.97,-954.77 287.97,-966.77 287.97,-966.77 287.97,-972.77 281.97,-978.77 275.97,-978.77 275.97,-978.77 244.97,-978.77 244.97,-978.77 238.97,-978.77 232.97,-972.77 232.97,-966.77 232.97,-966.77 232.97,-954.77 232.97,-954.77 232.97,-948.77 238.97,-942.77 244.97,-942.77"/>
<text text-anchor="middle" x="260.47" y="-957.07" font-family="Arial" font-size="14.00">month</text>
</g>
<!-- ph&#45;&gt;month -->
<g id="edge62" class="edge">
<title>ph&#45;&gt;month</title>
<path fill="none" stroke="#1f78b4" d="M322.03,-881.31C310.48,-896.21 294.07,-917.4 281.1,-934.15"/>
<polygon fill="#a6cee3" stroke="#1f78b4" points="278.02,-932.4 274.67,-942.45 283.56,-936.68 278.02,-932.4"/>
</g>
<!-- day -->
<g id="node64" class="node">
<title>day</title>
<path fill="#1afabc" stroke="black" d="M397.27,-971.78C397.27,-971.78 427.27,-971.78 427.27,-971.78 433.27,-971.78 439.27,-977.78 439.27,-983.78 439.27,-983.78 439.27,-995.78 439.27,-995.78 439.27,-1001.78 433.27,-1007.78 427.27,-1007.78 427.27,-1007.78 397.27,-1007.78 397.27,-1007.78 391.27,-1007.78 385.27,-1001.78 385.27,-995.78 385.27,-995.78 385.27,-983.78 385.27,-983.78 385.27,-977.78 391.27,-971.78 397.27,-971.78"/>
<text text-anchor="middle" x="412.27" y="-986.08" font-family="Arial" font-size="14.00">day</text>
</g>
<!-- ph&#45;&gt;day -->
<g id="edge63" class="edge">
<title>ph&#45;&gt;day</title>
<path fill="none" stroke="#1f78b4" d="M347.18,-881.08C359.98,-902.47 381.37,-938.17 396.11,-962.79"/>
<polygon fill="#a6cee3" stroke="#1f78b4" points="393.26,-964.85 401.4,-971.63 399.27,-961.26 393.26,-964.85"/>
</g>
<!-- booklibrary -->
<g id="node65" class="node">
<title>booklibrary</title>
<path fill="#1afabc" stroke="black" d="M131.04,-839.11C131.04,-839.11 190.04,-839.11 190.04,-839.11 196.04,-839.11 202.04,-845.11 202.04,-851.11 202.04,-851.11 202.04,-863.11 202.04,-863.11 202.04,-869.11 196.04,-875.11 190.04,-875.11 190.04,-875.11 131.04,-875.11 131.04,-875.11 125.04,-875.11 119.04,-869.11 119.04,-863.11 119.04,-863.11 119.04,-851.11 119.04,-851.11 119.04,-845.11 125.04,-839.11 131.04,-839.11"/>
<text text-anchor="middle" x="160.54" y="-853.41" font-family="Arial" font-size="14.00">booklibrary</text>
</g>
<!-- ph&#45;&gt;booklibrary -->
<g id="edge64" class="edge">
<title>ph&#45;&gt;booklibrary</title>
<path fill="none" stroke="#1f78b4" d="M309.21,-862.01C283.41,-861.16 243.88,-859.86 212.07,-858.81"/>
<polygon fill="#a6cee3" stroke="#1f78b4" points="212.15,-855.31 202.04,-858.48 211.92,-862.3 212.15,-855.31"/>
</g>
<!-- mainbooktitle -->
<g id="node66" class="node">
<title>mainbooktitle</title>
<path fill="#1afabc" stroke="black" d="M99.64,-942.77C99.64,-942.77 172.64,-942.77 172.64,-942.77 178.64,-942.77 184.64,-948.77 184.64,-954.77 184.64,-954.77 184.64,-966.77 184.64,-966.77 184.64,-972.77 178.64,-978.77 172.64,-978.77 172.64,-978.77 99.64,-978.77 99.64,-978.77 93.64,-978.77 87.64,-972.77 87.64,-966.77 87.64,-966.77 87.64,-954.77 87.64,-954.77 87.64,-948.77 93.64,-942.77 99.64,-942.77"/>
<text text-anchor="middle" x="136.14" y="-957.07" font-family="Arial" font-size="14.00">mainbooktitle</text>
</g>
<!-- ph&#45;&gt;mainbooktitle -->
<g id="edge65" class="edge">
<title>ph&#45;&gt;mainbooktitle</title>
<path fill="none" stroke="#1f78b4" d="M308.88,-876.31C276.27,-892.25 221.32,-919.12 182.16,-938.27"/>
<polygon fill="#a6cee3" stroke="#1f78b4" points="180.51,-935.18 173.06,-942.71 183.59,-941.47 180.51,-935.18"/>
</g>
<!-- booktitlealt -->
<g id="node67" class="node">
<title>booktitlealt</title>
<path fill="#1afabc" stroke="black" d="M169.61,-987.81C169.61,-987.81 226.61,-987.81 226.61,-987.81 232.61,-987.81 238.61,-993.81 238.61,-999.81 238.61,-999.81 238.61,-1011.81 238.61,-1011.81 238.61,-1017.81 232.61,-1023.81 226.61,-1023.81 226.61,-1023.81 169.61,-1023.81 169.61,-1023.81 163.61,-1023.81 157.61,-1017.81 157.61,-1011.81 157.61,-1011.81 157.61,-999.81 157.61,-999.81 157.61,-993.81 163.61,-987.81 169.61,-987.81"/>
<text text-anchor="middle" x="198.11" y="-1002.11" font-family="Arial" font-size="14.00">booktitlealt</text>
</g>
<!-- ph&#45;&gt;booktitlealt -->
<g id="edge66" class="edge">
<title>ph&#45;&gt;booktitlealt</title>
<path fill="none" stroke="#1f78b4" d="M318.79,-881C294.52,-906.1 250.53,-951.6 222.89,-980.18"/>
<polygon fill="#a6cee3" stroke="#1f78b4" points="220.34,-977.79 215.9,-987.41 225.37,-982.65 220.34,-977.79"/>
</g>
<!-- booktitle -->
<g id="node69" class="node">
<title>booktitle</title>
<path fill="#1afabc" stroke="black" d="M814.24,-403.88C814.24,-403.88 857.24,-403.88 857.24,-403.88 863.24,-403.88 869.24,-409.88 869.24,-415.88 869.24,-415.88 869.24,-427.88 869.24,-427.88 869.24,-433.88 863.24,-439.88 857.24,-439.88 857.24,-439.88 814.24,-439.88 814.24,-439.88 808.24,-439.88 802.24,-433.88 802.24,-427.88 802.24,-427.88 802.24,-415.88 802.24,-415.88 802.24,-409.88 808.24,-403.88 814.24,-403.88"/>
<text text-anchor="middle" x="835.74" y="-418.18" font-family="Arial" font-size="14.00">booktitle</text>
</g>
<!-- title&#45;&gt;booktitle -->
<g id="edge68" class="edge">
<title>title&#45;&gt;booktitle</title>
<path fill="none" stroke="#1f78b4" d="M747.77,-495.56C764.44,-481.6 787.65,-462.15 806.05,-446.74"/>
<polygon fill="#a6cee3" stroke="#1f78b4" points="808.7,-449.08 814.12,-439.98 804.21,-443.72 808.7,-449.08"/>
</g>
</g>
</svg>
