<?xml version="1.0" encoding="UTF-8" standalone="no"?>
<!-- Generated by graphviz version 6.0.1 (20220911.1526)
 -->
<!-- Pages: 1 -->
<svg width="260pt" height="354pt"
 viewBox="0.00 0.00 260.00 354.00" xmlns="http://www.w3.org/2000/svg" xmlns:xlink="http://www.w3.org/1999/xlink">
<g id="graph0" class="graph" transform="scale(1 1) rotate(0) translate(4 350)">
<polygon fill="white" stroke="none" points="-4,4 -4,-350 256,-350 256,4 -4,4"/>
<!-- conceptModule -->
<g id="node1" class="node">
<title>conceptModule</title>
<path fill="#dddddd" stroke="black" d="M128.43,-152.01C128.43,-152.01 213.43,-152.01 213.43,-152.01 219.43,-152.01 225.43,-158.01 225.43,-164.01 225.43,-164.01 225.43,-176.01 225.43,-176.01 225.43,-182.01 219.43,-188.01 213.43,-188.01 213.43,-188.01 128.43,-188.01 128.43,-188.01 122.43,-188.01 116.43,-182.01 116.43,-176.01 116.43,-176.01 116.43,-164.01 116.43,-164.01 116.43,-158.01 122.43,-152.01 128.43,-152.01"/>
<text text-anchor="middle" x="170.93" y="-166.31" font-family="Arial" font-size="14.00">conceptModule</text>
</g>
<!-- topic -->
<g id="node2" class="node">
<title>topic</title>
<path fill="#afa7f4" stroke="black" d="M193.29,-98.68C193.29,-98.68 223.29,-98.68 223.29,-98.68 229.29,-98.68 235.29,-104.68 235.29,-110.68 235.29,-110.68 235.29,-122.68 235.29,-122.68 235.29,-128.68 229.29,-134.68 223.29,-134.68 223.29,-134.68 193.29,-134.68 193.29,-134.68 187.29,-134.68 181.29,-128.68 181.29,-122.68 181.29,-122.68 181.29,-110.68 181.29,-110.68 181.29,-104.68 187.29,-98.68 193.29,-98.68"/>
<text text-anchor="middle" x="208.29" y="-112.98" font-family="Arial" font-size="14.00">topic</text>
</g>
<!-- conceptModule&#45;&gt;topic -->
<g id="edge1" class="edge">
<title>conceptModule&#45;&gt;topic</title>
<path fill="none" stroke="#1f78b4" d="M183.57,-151.95C185.58,-149.09 187.7,-146.07 189.8,-143.06"/>
<polygon fill="#a6cee3" stroke="#1f78b4" points="192.78,-144.91 195.65,-134.72 187.05,-140.9 192.78,-144.91"/>
</g>
<!-- body -->
<g id="node4" class="node">
<title>body</title>
<path fill="#afa7f4" stroke="black" d="M91.43,-250.8C91.43,-250.8 121.43,-250.8 121.43,-250.8 127.43,-250.8 133.43,-256.8 133.43,-262.8 133.43,-262.8 133.43,-274.8 133.43,-274.8 133.43,-280.8 127.43,-286.8 121.43,-286.8 121.43,-286.8 91.43,-286.8 91.43,-286.8 85.43,-286.8 79.43,-280.8 79.43,-274.8 79.43,-274.8 79.43,-262.8 79.43,-262.8 79.43,-256.8 85.43,-250.8 91.43,-250.8"/>
<text text-anchor="middle" x="106.43" y="-265.1" font-family="Arial" font-size="14.00">body</text>
</g>
<!-- conceptModule&#45;&gt;body -->
<g id="edge3" class="edge">
<title>conceptModule&#45;&gt;body</title>
<path fill="none" stroke="#1f78b4" d="M159.1,-188.13C149.19,-203.31 134.91,-225.18 123.71,-242.32"/>
<polygon fill="#a6cee3" stroke="#1f78b4" points="120.72,-240.51 118.18,-250.79 126.58,-244.33 120.72,-240.51"/>
</g>
<!-- bodydiv -->
<g id="node6" class="node">
<title>bodydiv</title>
<path fill="#afa7f4" stroke="black" d="M36.3,-113.93C36.3,-113.93 75.3,-113.93 75.3,-113.93 81.3,-113.93 87.3,-119.93 87.3,-125.93 87.3,-125.93 87.3,-137.93 87.3,-137.93 87.3,-143.93 81.3,-149.93 75.3,-149.93 75.3,-149.93 36.3,-149.93 36.3,-149.93 30.3,-149.93 24.3,-143.93 24.3,-137.93 24.3,-137.93 24.3,-125.93 24.3,-125.93 24.3,-119.93 30.3,-113.93 36.3,-113.93"/>
<text text-anchor="middle" x="55.8" y="-128.23" font-family="Arial" font-size="14.00">bodydiv</text>
</g>
<!-- conceptModule&#45;&gt;bodydiv -->
<g id="edge5" class="edge">
<title>conceptModule&#45;&gt;bodydiv</title>
<path fill="none" stroke="#1f78b4" d="M116.4,-151.97C109.91,-149.83 103.38,-147.67 97.12,-145.6"/>
<polygon fill="#a6cee3" stroke="#1f78b4" points="98.16,-142.25 87.56,-142.44 95.96,-148.9 98.16,-142.25"/>
</g>
<!-- concept -->
<g id="node3" class="node">
<title>concept</title>
<path fill="#1afabc" stroke="black" d="M200.08,-0.73C200.08,-0.73 240.08,-0.73 240.08,-0.73 246.08,-0.73 252.08,-6.73 252.08,-12.73 252.08,-12.73 252.08,-24.73 252.08,-24.73 252.08,-30.73 246.08,-36.73 240.08,-36.73 240.08,-36.73 200.08,-36.73 200.08,-36.73 194.08,-36.73 188.08,-30.73 188.08,-24.73 188.08,-24.73 188.08,-12.73 188.08,-12.73 188.08,-6.73 194.08,-0.73 200.08,-0.73"/>
<text text-anchor="middle" x="220.08" y="-15.03" font-family="Arial" font-size="14.00">concept</text>
</g>
<!-- topic&#45;&gt;concept -->
<g id="edge2" class="edge">
<title>topic&#45;&gt;concept</title>
<path fill="none" stroke="#1f78b4" d="M210.5,-98.26C212.24,-83.8 214.7,-63.43 216.68,-46.93"/>
<polygon fill="#a6cee3" stroke="#1f78b4" points="220.19,-47.09 217.91,-36.74 213.24,-46.25 220.19,-47.09"/>
</g>
<!-- conbody -->
<g id="node5" class="node">
<title>conbody</title>
<path fill="#1afabc" stroke="black" d="M163.87,-309.24C163.87,-309.24 207.87,-309.24 207.87,-309.24 213.87,-309.24 219.87,-315.24 219.87,-321.24 219.87,-321.24 219.87,-333.24 219.87,-333.24 219.87,-339.24 213.87,-345.24 207.87,-345.24 207.87,-345.24 163.87,-345.24 163.87,-345.24 157.87,-345.24 151.87,-339.24 151.87,-333.24 151.87,-333.24 151.87,-321.24 151.87,-321.24 151.87,-315.24 157.87,-309.24 163.87,-309.24"/>
<text text-anchor="middle" x="185.87" y="-323.54" font-family="Arial" font-size="14.00">conbody</text>
</g>
<!-- body&#45;&gt;conbody -->
<g id="edge4" class="edge">
<title>body&#45;&gt;conbody</title>
<path fill="none" stroke="#1f78b4" d="M131.13,-286.97C138,-292.03 145.58,-297.6 152.85,-302.95"/>
<polygon fill="#a6cee3" stroke="#1f78b4" points="151.05,-305.97 161.18,-309.08 155.2,-300.33 151.05,-305.97"/>
</g>
<!-- conbodydiv -->
<g id="node7" class="node">
<title>conbodydiv</title>
<path fill="#1afabc" stroke="black" d="M11.9,-61.58C11.9,-61.58 72.9,-61.58 72.9,-61.58 78.9,-61.58 84.9,-67.58 84.9,-73.58 84.9,-73.58 84.9,-85.58 84.9,-85.58 84.9,-91.58 78.9,-97.58 72.9,-97.58 72.9,-97.58 11.9,-97.58 11.9,-97.58 5.9,-97.58 -0.1,-91.58 -0.1,-85.58 -0.1,-85.58 -0.1,-73.58 -0.1,-73.58 -0.1,-67.58 5.9,-61.58 11.9,-61.58"/>
<text text-anchor="middle" x="42.4" y="-75.88" font-family="Arial" font-size="14.00">conbodydiv</text>
</g>
<!-- bodydiv&#45;&gt;conbodydiv -->
<g id="edge6" class="edge">
<title>bodydiv&#45;&gt;conbodydiv</title>
<path fill="none" stroke="#1f78b4" d="M51.19,-113.91C50.67,-111.88 50.13,-109.77 49.58,-107.65"/>
<polygon fill="#a6cee3" stroke="#1f78b4" points="52.94,-106.63 47.07,-97.81 46.15,-108.36 52.94,-106.63"/>
</g>
</g>
</svg>
