<?xml version="1.0" encoding="UTF-8" standalone="no"?>
<!-- Generated by graphviz version 6.0.1 (20220911.1526)
 -->
<!-- Pages: 1 -->
<svg width="177pt" height="137pt"
 viewBox="0.00 0.00 177.00 137.00" xmlns="http://www.w3.org/2000/svg" xmlns:xlink="http://www.w3.org/1999/xlink">
<g id="graph0" class="graph" transform="scale(1 1) rotate(0) translate(4 133)">
<polygon fill="white" stroke="none" points="-4,4 -4,-133 173,-133 173,4 -4,4"/>
<!-- glossgroupModule -->
<g id="node1" class="node">
<title>glossgroupModule</title>
<path fill="#dddddd" stroke="black" d="M11.98,-92.12C11.98,-92.12 115.98,-92.12 115.98,-92.12 121.98,-92.12 127.98,-98.12 127.98,-104.12 127.98,-104.12 127.98,-116.12 127.98,-116.12 127.98,-122.12 121.98,-128.12 115.98,-128.12 115.98,-128.12 11.98,-128.12 11.98,-128.12 5.98,-128.12 -0.02,-122.12 -0.02,-116.12 -0.02,-116.12 -0.02,-104.12 -0.02,-104.12 -0.02,-98.12 5.98,-92.12 11.98,-92.12"/>
<text text-anchor="middle" x="63.98" y="-106.42" font-family="Arial" font-size="14.00">glossgroupModule</text>
</g>
<!-- concept -->
<g id="node2" class="node">
<title>concept</title>
<path fill="#afa7f4" stroke="black" d="M103.83,-47.07C103.83,-47.07 143.83,-47.07 143.83,-47.07 149.83,-47.07 155.83,-53.07 155.83,-59.07 155.83,-59.07 155.83,-71.07 155.83,-71.07 155.83,-77.07 149.83,-83.07 143.83,-83.07 143.83,-83.07 103.83,-83.07 103.83,-83.07 97.83,-83.07 91.83,-77.07 91.83,-71.07 91.83,-71.07 91.83,-59.07 91.83,-59.07 91.83,-53.07 97.83,-47.07 103.83,-47.07"/>
<text text-anchor="middle" x="123.83" y="-61.37" font-family="Arial" font-size="14.00">concept</text>
</g>
<!-- glossgroupModule&#45;&gt;concept -->
<g id="edge1" class="edge">
<title>glossgroupModule&#45;&gt;concept</title>
<path fill="none" stroke="#1f78b4" d="M87.98,-92.06C89.2,-91.14 90.43,-90.21 91.67,-89.28"/>
<polygon fill="#a6cee3" stroke="#1f78b4" points="93.94,-91.95 99.82,-83.14 89.73,-86.36 93.94,-91.95"/>
</g>
<!-- glossgroup -->
<g id="node3" class="node">
<title>glossgroup</title>
<path fill="#1afabc" stroke="black" d="M98,-0.97C98,-0.97 157,-0.97 157,-0.97 163,-0.97 169,-6.97 169,-12.97 169,-12.97 169,-24.97 169,-24.97 169,-30.97 163,-36.97 157,-36.97 157,-36.97 98,-36.97 98,-36.97 92,-36.97 86,-30.97 86,-24.97 86,-24.97 86,-12.97 86,-12.97 86,-6.97 92,-0.97 98,-0.97"/>
<text text-anchor="middle" x="127.5" y="-15.27" font-family="Arial" font-size="14.00">glossgroup</text>
</g>
<!-- concept&#45;&gt;glossgroup -->
<g id="edge2" class="edge">
<title>concept&#45;&gt;glossgroup</title>
<path fill="none" stroke="#1f78b4" d="M125.28,-46.85C125.28,-46.75 125.29,-46.65 125.3,-46.55"/>
<polygon fill="#a6cee3" stroke="#1f78b4" points="128.75,-47.3 126.06,-37.06 121.77,-46.75 128.75,-47.3"/>
</g>
</g>
</svg>
