<?xml version="1.0" encoding="UTF-8" standalone="no"?>
<!DOCTYPE svg PUBLIC "-//W3C//DTD SVG 1.1//EN"
 "http://www.w3.org/Graphics/SVG/1.1/DTD/svg11.dtd">
<!-- Generated by graphviz version 6.0.1 (20220911.1526)
 -->
<!-- Pages: 1 -->
<svg width="636pt" height="492pt"
 viewBox="0.00 0.00 636.00 492.00" xmlns="http://www.w3.org/2000/svg" xmlns:xlink="http://www.w3.org/1999/xlink">
<g id="graph0" class="graph" transform="scale(1 1) rotate(0) translate(4 488)">
<polygon fill="white" stroke="none" points="-4,4 -4,-488 632,-488 632,4 -4,4"/>
<!-- glossentryModule -->
<g id="node1" class="node">
<title>glossentryModule</title>
<path fill="#dddddd" stroke="black" d="M273.63,-240.5C273.63,-240.5 372.63,-240.5 372.63,-240.5 378.63,-240.5 384.63,-246.5 384.63,-252.5 384.63,-252.5 384.63,-264.5 384.63,-264.5 384.63,-270.5 378.63,-276.5 372.63,-276.5 372.63,-276.5 273.63,-276.5 273.63,-276.5 267.63,-276.5 261.63,-270.5 261.63,-264.5 261.63,-264.5 261.63,-252.5 261.63,-252.5 261.63,-246.5 267.63,-240.5 273.63,-240.5"/>
<text text-anchor="middle" x="323.13" y="-254.8" font-family="Arial" font-size="14.00">glossentryModule</text>
</g>
<!-- concept -->
<g id="node2" class="node">
<title>concept</title>
<path fill="#afa7f4" stroke="black" d="M335.34,-109.35C335.34,-109.35 375.34,-109.35 375.34,-109.35 381.34,-109.35 387.34,-115.35 387.34,-121.35 387.34,-121.35 387.34,-133.35 387.34,-133.35 387.34,-139.35 381.34,-145.35 375.34,-145.35 375.34,-145.35 335.34,-145.35 335.34,-145.35 329.34,-145.35 323.34,-139.35 323.34,-133.35 323.34,-133.35 323.34,-121.35 323.34,-121.35 323.34,-115.35 329.34,-109.35 335.34,-109.35"/>
<text text-anchor="middle" x="355.34" y="-123.65" font-family="Arial" font-size="14.00">concept</text>
</g>
<!-- glossentryModule&#45;&gt;concept -->
<g id="edge1" class="edge">
<title>glossentryModule&#45;&gt;concept</title>
<path fill="none" stroke="#1f78b4" d="M327.61,-240.26C333.01,-218.24 342.17,-180.96 348.47,-155.3"/>
<polygon fill="#a6cee3" stroke="#1f78b4" points="351.91,-155.97 350.9,-145.43 345.11,-154.3 351.91,-155.97"/>
</g>
<!-- title -->
<g id="node4" class="node">
<title>title</title>
<path fill="#afa7f4" stroke="black" d="M215.37,-134.55C215.37,-134.55 245.37,-134.55 245.37,-134.55 251.37,-134.55 257.37,-140.55 257.37,-146.55 257.37,-146.55 257.37,-158.55 257.37,-158.55 257.37,-164.55 251.37,-170.55 245.37,-170.55 245.37,-170.55 215.37,-170.55 215.37,-170.55 209.37,-170.55 203.37,-164.55 203.37,-158.55 203.37,-158.55 203.37,-146.55 203.37,-146.55 203.37,-140.55 209.37,-134.55 215.37,-134.55"/>
<text text-anchor="middle" x="230.37" y="-148.85" font-family="Arial" font-size="14.00">title</text>
</g>
<!-- glossentryModule&#45;&gt;title -->
<g id="edge3" class="edge">
<title>glossentryModule&#45;&gt;title</title>
<path fill="none" stroke="#1f78b4" d="M306.97,-240.04C292.07,-223.03 269.81,-197.59 253.12,-178.53"/>
<polygon fill="#a6cee3" stroke="#1f78b4" points="255.56,-176.01 246.34,-170.79 250.3,-180.62 255.56,-176.01"/>
</g>
<!-- abstract -->
<g id="node10" class="node">
<title>abstract</title>
<path fill="#afa7f4" stroke="black" d="M419.88,-149.4C419.88,-149.4 460.88,-149.4 460.88,-149.4 466.88,-149.4 472.88,-155.4 472.88,-161.4 472.88,-161.4 472.88,-173.4 472.88,-173.4 472.88,-179.4 466.88,-185.4 460.88,-185.4 460.88,-185.4 419.88,-185.4 419.88,-185.4 413.88,-185.4 407.88,-179.4 407.88,-173.4 407.88,-173.4 407.88,-161.4 407.88,-161.4 407.88,-155.4 413.88,-149.4 419.88,-149.4"/>
<text text-anchor="middle" x="440.38" y="-163.7" font-family="Arial" font-size="14.00">abstract</text>
</g>
<!-- glossentryModule&#45;&gt;abstract -->
<g id="edge9" class="edge">
<title>glossentryModule&#45;&gt;abstract</title>
<path fill="none" stroke="#1f78b4" d="M346.57,-240.28C364.47,-226.38 389.3,-207.09 408.92,-191.84"/>
<polygon fill="#a6cee3" stroke="#1f78b4" points="411.22,-194.49 416.97,-185.59 406.93,-188.96 411.22,-194.49"/>
</g>
<!-- conbody -->
<g id="node12" class="node">
<title>conbody</title>
<path fill="#afa7f4" stroke="black" d="M440.38,-296.14C440.38,-296.14 484.38,-296.14 484.38,-296.14 490.38,-296.14 496.38,-302.14 496.38,-308.14 496.38,-308.14 496.38,-320.14 496.38,-320.14 496.38,-326.14 490.38,-332.14 484.38,-332.14 484.38,-332.14 440.38,-332.14 440.38,-332.14 434.38,-332.14 428.38,-326.14 428.38,-320.14 428.38,-320.14 428.38,-308.14 428.38,-308.14 428.38,-302.14 434.38,-296.14 440.38,-296.14"/>
<text text-anchor="middle" x="462.38" y="-310.44" font-family="Arial" font-size="14.00">conbody</text>
</g>
<!-- glossentryModule&#45;&gt;conbody -->
<g id="edge11" class="edge">
<title>glossentryModule&#45;&gt;conbody</title>
<path fill="none" stroke="#1f78b4" d="M368.34,-276.56C384.38,-282.98 402.41,-290.18 418.36,-296.55"/>
<polygon fill="#a6cee3" stroke="#1f78b4" points="417.4,-299.94 427.98,-300.4 420,-293.44 417.4,-299.94"/>
</g>
<!-- data -->
<g id="node14" class="node">
<title>data</title>
<path fill="#afa7f4" stroke="black" d="M448.47,-212.93C448.47,-212.93 478.47,-212.93 478.47,-212.93 484.47,-212.93 490.47,-218.93 490.47,-224.93 490.47,-224.93 490.47,-236.93 490.47,-236.93 490.47,-242.93 484.47,-248.93 478.47,-248.93 478.47,-248.93 448.47,-248.93 448.47,-248.93 442.47,-248.93 436.47,-242.93 436.47,-236.93 436.47,-236.93 436.47,-224.93 436.47,-224.93 436.47,-218.93 442.47,-212.93 448.47,-212.93"/>
<text text-anchor="middle" x="463.47" y="-227.23" font-family="Arial" font-size="14.00">data</text>
</g>
<!-- glossentryModule&#45;&gt;data -->
<g id="edge13" class="edge">
<title>glossentryModule&#45;&gt;data</title>
<path fill="none" stroke="#1f78b4" d="M384.68,-246.41C398.98,-243.6 413.76,-240.69 426.6,-238.17"/>
<polygon fill="#a6cee3" stroke="#1f78b4" points="427.3,-241.6 436.44,-236.24 425.95,-234.73 427.3,-241.6"/>
</g>
<!-- p -->
<g id="node18" class="node">
<title>p</title>
<path fill="#afa7f4" stroke="black" d="M270.1,-373.21C270.1,-373.21 300.1,-373.21 300.1,-373.21 306.1,-373.21 312.1,-379.21 312.1,-385.21 312.1,-385.21 312.1,-397.21 312.1,-397.21 312.1,-403.21 306.1,-409.21 300.1,-409.21 300.1,-409.21 270.1,-409.21 270.1,-409.21 264.1,-409.21 258.1,-403.21 258.1,-397.21 258.1,-397.21 258.1,-385.21 258.1,-385.21 258.1,-379.21 264.1,-373.21 270.1,-373.21"/>
<text text-anchor="middle" x="285.1" y="-387.51" font-family="Arial" font-size="14.00">p</text>
</g>
<!-- glossentryModule&#45;&gt;p -->
<g id="edge17" class="edge">
<title>glossentryModule&#45;&gt;p</title>
<path fill="none" stroke="#1f78b4" d="M317.92,-276.67C311.53,-298.98 300.61,-337.06 293.14,-363.14"/>
<polygon fill="#a6cee3" stroke="#1f78b4" points="289.75,-362.26 290.36,-372.83 296.48,-364.18 289.75,-362.26"/>
</g>
<!-- note -->
<g id="node20" class="node">
<title>note</title>
<path fill="#afa7f4" stroke="black" d="M170.11,-268.42C170.11,-268.42 200.11,-268.42 200.11,-268.42 206.11,-268.42 212.11,-274.42 212.11,-280.42 212.11,-280.42 212.11,-292.42 212.11,-292.42 212.11,-298.42 206.11,-304.42 200.11,-304.42 200.11,-304.42 170.11,-304.42 170.11,-304.42 164.11,-304.42 158.11,-298.42 158.11,-292.42 158.11,-292.42 158.11,-280.42 158.11,-280.42 158.11,-274.42 164.11,-268.42 170.11,-268.42"/>
<text text-anchor="middle" x="185.11" y="-282.72" font-family="Arial" font-size="14.00">note</text>
</g>
<!-- glossentryModule&#45;&gt;note -->
<g id="edge19" class="edge">
<title>glossentryModule&#45;&gt;note</title>
<path fill="none" stroke="#1f78b4" d="M261.38,-270.99C248.06,-273.68 234.37,-276.45 222.34,-278.89"/>
<polygon fill="#a6cee3" stroke="#1f78b4" points="221.34,-275.52 212.23,-280.93 222.73,-282.38 221.34,-275.52"/>
</g>
<!-- image -->
<g id="node23" class="node">
<title>image</title>
<path fill="#afa7f4" stroke="black" d="M325.59,-300.11C325.59,-300.11 355.59,-300.11 355.59,-300.11 361.59,-300.11 367.59,-306.11 367.59,-312.11 367.59,-312.11 367.59,-324.11 367.59,-324.11 367.59,-330.11 361.59,-336.11 355.59,-336.11 355.59,-336.11 325.59,-336.11 325.59,-336.11 319.59,-336.11 313.59,-330.11 313.59,-324.11 313.59,-324.11 313.59,-312.11 313.59,-312.11 313.59,-306.11 319.59,-300.11 325.59,-300.11"/>
<text text-anchor="middle" x="340.59" y="-314.41" font-family="Arial" font-size="14.00">image</text>
</g>
<!-- glossentryModule&#45;&gt;image -->
<g id="edge22" class="edge">
<title>glossentryModule&#45;&gt;image</title>
<path fill="none" stroke="#1f78b4" d="M328.46,-276.71C329.71,-280.98 331.08,-285.63 332.42,-290.23"/>
<polygon fill="#a6cee3" stroke="#1f78b4" points="329.12,-291.4 335.29,-300.01 335.83,-289.43 329.12,-291.4"/>
</g>
<!-- section -->
<g id="node25" class="node">
<title>section</title>
<path fill="#afa7f4" stroke="black" d="M196.42,-330.72C196.42,-330.72 231.42,-330.72 231.42,-330.72 237.42,-330.72 243.42,-336.72 243.42,-342.72 243.42,-342.72 243.42,-354.72 243.42,-354.72 243.42,-360.72 237.42,-366.72 231.42,-366.72 231.42,-366.72 196.42,-366.72 196.42,-366.72 190.42,-366.72 184.42,-360.72 184.42,-354.72 184.42,-354.72 184.42,-342.72 184.42,-342.72 184.42,-336.72 190.42,-330.72 196.42,-330.72"/>
<text text-anchor="middle" x="213.92" y="-345.02" font-family="Arial" font-size="14.00">section</text>
</g>
<!-- glossentryModule&#45;&gt;section -->
<g id="edge24" class="edge">
<title>glossentryModule&#45;&gt;section</title>
<path fill="none" stroke="#1f78b4" d="M301.29,-276.54C284.77,-290.18 261.91,-309.08 243.71,-324.11"/>
<polygon fill="#a6cee3" stroke="#1f78b4" points="241.2,-321.65 235.72,-330.71 245.66,-327.04 241.2,-321.65"/>
</g>
<!-- xref -->
<g id="node27" class="node">
<title>xref</title>
<path fill="#afa7f4" stroke="black" d="M407.76,-345.95C407.76,-345.95 437.76,-345.95 437.76,-345.95 443.76,-345.95 449.76,-351.95 449.76,-357.95 449.76,-357.95 449.76,-369.95 449.76,-369.95 449.76,-375.95 443.76,-381.95 437.76,-381.95 437.76,-381.95 407.76,-381.95 407.76,-381.95 401.76,-381.95 395.76,-375.95 395.76,-369.95 395.76,-369.95 395.76,-357.95 395.76,-357.95 395.76,-351.95 401.76,-345.95 407.76,-345.95"/>
<text text-anchor="middle" x="422.76" y="-360.25" font-family="Arial" font-size="14.00">xref</text>
</g>
<!-- glossentryModule&#45;&gt;xref -->
<g id="edge26" class="edge">
<title>glossentryModule&#45;&gt;xref</title>
<path fill="none" stroke="#1f78b4" d="M340.48,-276.86C356.56,-293.88 380.61,-319.34 398.57,-338.34"/>
<polygon fill="#a6cee3" stroke="#1f78b4" points="396.2,-340.92 405.61,-345.79 401.28,-336.12 396.2,-340.92"/>
</g>
<!-- glossentry -->
<g id="node3" class="node">
<title>glossentry</title>
<path fill="#1afabc" stroke="black" d="M352.95,-0.36C352.95,-0.36 406.95,-0.36 406.95,-0.36 412.95,-0.36 418.95,-6.36 418.95,-12.36 418.95,-12.36 418.95,-24.36 418.95,-24.36 418.95,-30.36 412.95,-36.36 406.95,-36.36 406.95,-36.36 352.95,-36.36 352.95,-36.36 346.95,-36.36 340.95,-30.36 340.95,-24.36 340.95,-24.36 340.95,-12.36 340.95,-12.36 340.95,-6.36 346.95,-0.36 352.95,-0.36"/>
<text text-anchor="middle" x="379.95" y="-14.66" font-family="Arial" font-size="14.00">glossentry</text>
</g>
<!-- concept&#45;&gt;glossentry -->
<g id="edge2" class="edge">
<title>concept&#45;&gt;glossentry</title>
<path fill="none" stroke="#1f78b4" d="M359.51,-108.86C363.37,-91.77 369.16,-66.12 373.59,-46.49"/>
<polygon fill="#a6cee3" stroke="#1f78b4" points="377.04,-47.1 375.83,-36.57 370.22,-45.56 377.04,-47.1"/>
</g>
<!-- glossterm -->
<g id="node5" class="node">
<title>glossterm</title>
<path fill="#1afabc" stroke="black" d="M240.91,-32.74C240.91,-32.74 292.91,-32.74 292.91,-32.74 298.91,-32.74 304.91,-38.74 304.91,-44.74 304.91,-44.74 304.91,-56.74 304.91,-56.74 304.91,-62.74 298.91,-68.74 292.91,-68.74 292.91,-68.74 240.91,-68.74 240.91,-68.74 234.91,-68.74 228.91,-62.74 228.91,-56.74 228.91,-56.74 228.91,-44.74 228.91,-44.74 228.91,-38.74 234.91,-32.74 240.91,-32.74"/>
<text text-anchor="middle" x="266.91" y="-47.04" font-family="Arial" font-size="14.00">glossterm</text>
</g>
<!-- title&#45;&gt;glossterm -->
<g id="edge4" class="edge">
<title>title&#45;&gt;glossterm</title>
<path fill="none" stroke="#1f78b4" d="M236.9,-134.35C242.46,-118.86 250.54,-96.36 256.91,-78.6"/>
<polygon fill="#a6cee3" stroke="#1f78b4" points="260.35,-79.38 260.44,-68.79 253.77,-77.02 260.35,-79.38"/>
</g>
<!-- glossAbbreviation -->
<g id="node6" class="node">
<title>glossAbbreviation</title>
<path fill="#1afabc" stroke="black" d="M101.36,-15.3C101.36,-15.3 200.36,-15.3 200.36,-15.3 206.36,-15.3 212.36,-21.3 212.36,-27.3 212.36,-27.3 212.36,-39.3 212.36,-39.3 212.36,-45.3 206.36,-51.3 200.36,-51.3 200.36,-51.3 101.36,-51.3 101.36,-51.3 95.36,-51.3 89.36,-45.3 89.36,-39.3 89.36,-39.3 89.36,-27.3 89.36,-27.3 89.36,-21.3 95.36,-15.3 101.36,-15.3"/>
<text text-anchor="middle" x="150.86" y="-29.6" font-family="Arial" font-size="14.00">glossAbbreviation</text>
</g>
<!-- title&#45;&gt;glossAbbreviation -->
<g id="edge5" class="edge">
<title>title&#45;&gt;glossAbbreviation</title>
<path fill="none" stroke="#1f78b4" d="M218.29,-134.44C205.1,-114.65 183.83,-82.76 168.71,-60.08"/>
<polygon fill="#a6cee3" stroke="#1f78b4" points="171.51,-57.96 163.05,-51.58 165.68,-61.85 171.51,-57.96"/>
</g>
<!-- glossAcronym -->
<g id="node7" class="node">
<title>glossAcronym</title>
<path fill="#1afabc" stroke="black" d="M68.62,-128.8C68.62,-128.8 146.62,-128.8 146.62,-128.8 152.62,-128.8 158.62,-134.8 158.62,-140.8 158.62,-140.8 158.62,-152.8 158.62,-152.8 158.62,-158.8 152.62,-164.8 146.62,-164.8 146.62,-164.8 68.62,-164.8 68.62,-164.8 62.62,-164.8 56.62,-158.8 56.62,-152.8 56.62,-152.8 56.62,-140.8 56.62,-140.8 56.62,-134.8 62.62,-128.8 68.62,-128.8"/>
<text text-anchor="middle" x="107.62" y="-143.1" font-family="Arial" font-size="14.00">glossAcronym</text>
</g>
<!-- title&#45;&gt;glossAcronym -->
<g id="edge6" class="edge">
<title>title&#45;&gt;glossAcronym</title>
<path fill="none" stroke="#1f78b4" d="M203.13,-151.27C192.97,-150.79 180.99,-150.23 169.01,-149.67"/>
<polygon fill="#a6cee3" stroke="#1f78b4" points="169.14,-146.17 158.99,-149.2 168.81,-153.17 169.14,-146.17"/>
</g>
<!-- glossShortForm -->
<g id="node8" class="node">
<title>glossShortForm</title>
<path fill="#1afabc" stroke="black" d="M78.8,-179.38C78.8,-179.38 167.8,-179.38 167.8,-179.38 173.8,-179.38 179.8,-185.38 179.8,-191.38 179.8,-191.38 179.8,-203.38 179.8,-203.38 179.8,-209.38 173.8,-215.38 167.8,-215.38 167.8,-215.38 78.8,-215.38 78.8,-215.38 72.8,-215.38 66.8,-209.38 66.8,-203.38 66.8,-203.38 66.8,-191.38 66.8,-191.38 66.8,-185.38 72.8,-179.38 78.8,-179.38"/>
<text text-anchor="middle" x="123.3" y="-193.68" font-family="Arial" font-size="14.00">glossShortForm</text>
</g>
<!-- title&#45;&gt;glossShortForm -->
<g id="edge7" class="edge">
<title>title&#45;&gt;glossShortForm</title>
<path fill="none" stroke="#1f78b4" d="M203.35,-163.86C194.99,-167.36 185.47,-171.35 175.99,-175.32"/>
<polygon fill="#a6cee3" stroke="#1f78b4" points="174.43,-172.17 166.56,-179.26 177.13,-178.63 174.43,-172.17"/>
</g>
<!-- glossSynonym -->
<g id="node9" class="node">
<title>glossSynonym</title>
<path fill="#1afabc" stroke="black" d="M83.51,-67.45C83.51,-67.45 164.51,-67.45 164.51,-67.45 170.51,-67.45 176.51,-73.45 176.51,-79.45 176.51,-79.45 176.51,-91.45 176.51,-91.45 176.51,-97.45 170.51,-103.45 164.51,-103.45 164.51,-103.45 83.51,-103.45 83.51,-103.45 77.51,-103.45 71.51,-97.45 71.51,-91.45 71.51,-91.45 71.51,-79.45 71.51,-79.45 71.51,-73.45 77.51,-67.45 83.51,-67.45"/>
<text text-anchor="middle" x="124.01" y="-81.75" font-family="Arial" font-size="14.00">glossSynonym</text>
</g>
<!-- title&#45;&gt;glossSynonym -->
<g id="edge8" class="edge">
<title>title&#45;&gt;glossSynonym</title>
<path fill="none" stroke="#1f78b4" d="M203.25,-135.44C190.53,-127.42 175.16,-117.72 161.36,-109.02"/>
<polygon fill="#a6cee3" stroke="#1f78b4" points="162.88,-105.84 152.56,-103.46 159.15,-111.76 162.88,-105.84"/>
</g>
<!-- glossdef -->
<g id="node11" class="node">
<title>glossdef</title>
<path fill="#1afabc" stroke="black" d="M483.8,-68.45C483.8,-68.45 526.8,-68.45 526.8,-68.45 532.8,-68.45 538.8,-74.45 538.8,-80.45 538.8,-80.45 538.8,-92.45 538.8,-92.45 538.8,-98.45 532.8,-104.45 526.8,-104.45 526.8,-104.45 483.8,-104.45 483.8,-104.45 477.8,-104.45 471.8,-98.45 471.8,-92.45 471.8,-92.45 471.8,-80.45 471.8,-80.45 471.8,-74.45 477.8,-68.45 483.8,-68.45"/>
<text text-anchor="middle" x="505.3" y="-82.75" font-family="Arial" font-size="14.00">glossdef</text>
</g>
<!-- abstract&#45;&gt;glossdef -->
<g id="edge10" class="edge">
<title>abstract&#45;&gt;glossdef</title>
<path fill="none" stroke="#1f78b4" d="M455.11,-149.03C463.8,-138.19 474.94,-124.3 484.52,-112.36"/>
<polygon fill="#a6cee3" stroke="#1f78b4" points="487.32,-114.46 490.85,-104.47 481.86,-110.08 487.32,-114.46"/>
</g>
<!-- glossBody -->
<g id="node13" class="node">
<title>glossBody</title>
<path fill="#1afabc" stroke="black" d="M537.11,-345.61C537.11,-345.61 592.11,-345.61 592.11,-345.61 598.11,-345.61 604.11,-351.61 604.11,-357.61 604.11,-357.61 604.11,-369.61 604.11,-369.61 604.11,-375.61 598.11,-381.61 592.11,-381.61 592.11,-381.61 537.11,-381.61 537.11,-381.61 531.11,-381.61 525.11,-375.61 525.11,-369.61 525.11,-369.61 525.11,-357.61 525.11,-357.61 525.11,-351.61 531.11,-345.61 537.11,-345.61"/>
<text text-anchor="middle" x="564.61" y="-359.91" font-family="Arial" font-size="14.00">glossBody</text>
</g>
<!-- conbody&#45;&gt;glossBody -->
<g id="edge12" class="edge">
<title>conbody&#45;&gt;glossBody</title>
<path fill="none" stroke="#1f78b4" d="M496.42,-330.61C503.37,-333.97 510.78,-337.56 518.08,-341.09"/>
<polygon fill="#a6cee3" stroke="#1f78b4" points="516.68,-344.3 527.2,-345.51 519.72,-338 516.68,-344.3"/>
</g>
<!-- glossPartOfSpeech -->
<g id="node15" class="node">
<title>glossPartOfSpeech</title>
<path fill="#1afabc" stroke="black" d="M274.15,-191.66C274.15,-191.66 384.15,-191.66 384.15,-191.66 390.15,-191.66 396.15,-197.66 396.15,-203.66 396.15,-203.66 396.15,-215.66 396.15,-215.66 396.15,-221.66 390.15,-227.66 384.15,-227.66 384.15,-227.66 274.15,-227.66 274.15,-227.66 268.15,-227.66 262.15,-221.66 262.15,-215.66 262.15,-215.66 262.15,-203.66 262.15,-203.66 262.15,-197.66 268.15,-191.66 274.15,-191.66"/>
<text text-anchor="middle" x="329.15" y="-205.96" font-family="Arial" font-size="14.00">glossPartOfSpeech</text>
</g>
<!-- data&#45;&gt;glossPartOfSpeech -->
<g id="edge14" class="edge">
<title>data&#45;&gt;glossPartOfSpeech</title>
<path fill="none" stroke="#1f78b4" d="M436.29,-226.63C427.37,-225.21 416.97,-223.57 406.22,-221.86"/>
<polygon fill="#a6cee3" stroke="#1f78b4" points="406.71,-218.4 396.29,-220.29 405.62,-225.31 406.71,-218.4"/>
</g>
<!-- glossStatus -->
<g id="node16" class="node">
<title>glossStatus</title>
<path fill="#1afabc" stroke="black" d="M530.33,-166.13C530.33,-166.13 592.33,-166.13 592.33,-166.13 598.33,-166.13 604.33,-172.13 604.33,-178.13 604.33,-178.13 604.33,-190.13 604.33,-190.13 604.33,-196.13 598.33,-202.13 592.33,-202.13 592.33,-202.13 530.33,-202.13 530.33,-202.13 524.33,-202.13 518.33,-196.13 518.33,-190.13 518.33,-190.13 518.33,-178.13 518.33,-178.13 518.33,-172.13 524.33,-166.13 530.33,-166.13"/>
<text text-anchor="middle" x="561.33" y="-180.43" font-family="Arial" font-size="14.00">glossStatus</text>
</g>
<!-- data&#45;&gt;glossStatus -->
<g id="edge15" class="edge">
<title>data&#45;&gt;glossStatus</title>
<path fill="none" stroke="#1f78b4" d="M490.47,-218.02C497.87,-214.48 506.11,-210.54 514.28,-206.63"/>
<polygon fill="#a6cee3" stroke="#1f78b4" points="515.92,-209.73 523.43,-202.25 512.9,-203.41 515.92,-209.73"/>
</g>
<!-- glossProperty -->
<g id="node17" class="node">
<title>glossProperty</title>
<path fill="#1afabc" stroke="black" d="M540.95,-225.02C540.95,-225.02 615.95,-225.02 615.95,-225.02 621.95,-225.02 627.95,-231.02 627.95,-237.02 627.95,-237.02 627.95,-249.02 627.95,-249.02 627.95,-255.02 621.95,-261.02 615.95,-261.02 615.95,-261.02 540.95,-261.02 540.95,-261.02 534.95,-261.02 528.95,-255.02 528.95,-249.02 528.95,-249.02 528.95,-237.02 528.95,-237.02 528.95,-231.02 534.95,-225.02 540.95,-225.02"/>
<text text-anchor="middle" x="578.45" y="-239.32" font-family="Arial" font-size="14.00">glossProperty</text>
</g>
<!-- data&#45;&gt;glossProperty -->
<g id="edge16" class="edge">
<title>data&#45;&gt;glossProperty</title>
<path fill="none" stroke="#1f78b4" d="M490.72,-233.8C499.19,-234.69 508.9,-235.71 518.69,-236.74"/>
<polygon fill="#a6cee3" stroke="#1f78b4" points="518.57,-240.24 528.88,-237.81 519.3,-233.28 518.57,-240.24"/>
</g>
<!-- glossSurfaceForm -->
<g id="node19" class="node">
<title>glossSurfaceForm</title>
<path fill="#1afabc" stroke="black" d="M200.06,-423.48C200.06,-423.48 303.06,-423.48 303.06,-423.48 309.06,-423.48 315.06,-429.48 315.06,-435.48 315.06,-435.48 315.06,-447.48 315.06,-447.48 315.06,-453.48 309.06,-459.48 303.06,-459.48 303.06,-459.48 200.06,-459.48 200.06,-459.48 194.06,-459.48 188.06,-453.48 188.06,-447.48 188.06,-447.48 188.06,-435.48 188.06,-435.48 188.06,-429.48 194.06,-423.48 200.06,-423.48"/>
<text text-anchor="middle" x="251.56" y="-437.78" font-family="Arial" font-size="14.00">glossSurfaceForm</text>
</g>
<!-- p&#45;&gt;glossSurfaceForm -->
<g id="edge18" class="edge">
<title>p&#45;&gt;glossSurfaceForm</title>
<path fill="none" stroke="#1f78b4" d="M272.99,-409.36C271.87,-411.05 270.71,-412.78 269.55,-414.53"/>
<polygon fill="#a6cee3" stroke="#1f78b4" points="266.4,-412.93 263.76,-423.19 272.23,-416.81 266.4,-412.93"/>
</g>
<!-- glossUsage -->
<g id="node21" class="node">
<title>glossUsage</title>
<path fill="#1afabc" stroke="black" d="M49.52,-313.72C49.52,-313.72 112.52,-313.72 112.52,-313.72 118.52,-313.72 124.52,-319.72 124.52,-325.72 124.52,-325.72 124.52,-337.72 124.52,-337.72 124.52,-343.72 118.52,-349.72 112.52,-349.72 112.52,-349.72 49.52,-349.72 49.52,-349.72 43.52,-349.72 37.52,-343.72 37.52,-337.72 37.52,-337.72 37.52,-325.72 37.52,-325.72 37.52,-319.72 43.52,-313.72 49.52,-313.72"/>
<text text-anchor="middle" x="81.02" y="-328.02" font-family="Arial" font-size="14.00">glossUsage</text>
</g>
<!-- note&#45;&gt;glossUsage -->
<g id="edge20" class="edge">
<title>note&#45;&gt;glossUsage</title>
<path fill="none" stroke="#1f78b4" d="M158.03,-298.2C149.98,-301.7 140.89,-305.66 131.85,-309.6"/>
<polygon fill="#a6cee3" stroke="#1f78b4" points="130.26,-306.47 122.49,-313.67 133.06,-312.89 130.26,-306.47"/>
</g>
<!-- glossScopeNote -->
<g id="node22" class="node">
<title>glossScopeNote</title>
<path fill="#1afabc" stroke="black" d="M12.01,-257.48C12.01,-257.48 103.01,-257.48 103.01,-257.48 109.01,-257.48 115.01,-263.48 115.01,-269.48 115.01,-269.48 115.01,-281.48 115.01,-281.48 115.01,-287.48 109.01,-293.48 103.01,-293.48 103.01,-293.48 12.01,-293.48 12.01,-293.48 6.01,-293.48 0.01,-287.48 0.01,-281.48 0.01,-281.48 0.01,-269.48 0.01,-269.48 0.01,-263.48 6.01,-257.48 12.01,-257.48"/>
<text text-anchor="middle" x="57.51" y="-271.78" font-family="Arial" font-size="14.00">glossScopeNote</text>
</g>
<!-- note&#45;&gt;glossScopeNote -->
<g id="edge21" class="edge">
<title>note&#45;&gt;glossScopeNote</title>
<path fill="none" stroke="#1f78b4" d="M158.05,-284.1C148.37,-283.27 136.99,-282.29 125.42,-281.3"/>
<polygon fill="#a6cee3" stroke="#1f78b4" points="125.51,-277.8 115.25,-280.43 124.92,-284.77 125.51,-277.8"/>
</g>
<!-- glossSymbol -->
<g id="node24" class="node">
<title>glossSymbol</title>
<path fill="#1afabc" stroke="black" d="M341.35,-403.83C341.35,-403.83 411.35,-403.83 411.35,-403.83 417.35,-403.83 423.35,-409.83 423.35,-415.83 423.35,-415.83 423.35,-427.83 423.35,-427.83 423.35,-433.83 417.35,-439.83 411.35,-439.83 411.35,-439.83 341.35,-439.83 341.35,-439.83 335.35,-439.83 329.35,-433.83 329.35,-427.83 329.35,-427.83 329.35,-415.83 329.35,-415.83 329.35,-409.83 335.35,-403.83 341.35,-403.83"/>
<text text-anchor="middle" x="376.35" y="-418.13" font-family="Arial" font-size="14.00">glossSymbol</text>
</g>
<!-- image&#45;&gt;glossSymbol -->
<g id="edge23" class="edge">
<title>image&#45;&gt;glossSymbol</title>
<path fill="none" stroke="#1f78b4" d="M346.82,-336.17C352.32,-352.14 360.43,-375.67 366.76,-394.03"/>
<polygon fill="#a6cee3" stroke="#1f78b4" points="363.5,-395.31 370.07,-403.62 370.12,-393.03 363.5,-395.31"/>
</g>
<!-- glossAlt -->
<g id="node26" class="node">
<title>glossAlt</title>
<path fill="#1afabc" stroke="black" d="M119.79,-404.29C119.79,-404.29 159.79,-404.29 159.79,-404.29 165.79,-404.29 171.79,-410.29 171.79,-416.29 171.79,-416.29 171.79,-428.29 171.79,-428.29 171.79,-434.29 165.79,-440.29 159.79,-440.29 159.79,-440.29 119.79,-440.29 119.79,-440.29 113.79,-440.29 107.79,-434.29 107.79,-428.29 107.79,-428.29 107.79,-416.29 107.79,-416.29 107.79,-410.29 113.79,-404.29 119.79,-404.29"/>
<text text-anchor="middle" x="139.79" y="-418.59" font-family="Arial" font-size="14.00">glossAlt</text>
</g>
<!-- section&#45;&gt;glossAlt -->
<g id="edge25" class="edge">
<title>section&#45;&gt;glossAlt</title>
<path fill="none" stroke="#1f78b4" d="M195.6,-366.91C186.51,-375.93 175.38,-386.97 165.46,-396.81"/>
<polygon fill="#a6cee3" stroke="#1f78b4" points="162.79,-394.53 158.16,-404.06 167.72,-399.5 162.79,-394.53"/>
</g>
<!-- glossAlternateFor -->
<g id="node28" class="node">
<title>glossAlternateFor</title>
<path fill="#1afabc" stroke="black" d="M452.45,-447.87C452.45,-447.87 550.45,-447.87 550.45,-447.87 556.45,-447.87 562.45,-453.87 562.45,-459.87 562.45,-459.87 562.45,-471.87 562.45,-471.87 562.45,-477.87 556.45,-483.87 550.45,-483.87 550.45,-483.87 452.45,-483.87 452.45,-483.87 446.45,-483.87 440.45,-477.87 440.45,-471.87 440.45,-471.87 440.45,-459.87 440.45,-459.87 440.45,-453.87 446.45,-447.87 452.45,-447.87"/>
<text text-anchor="middle" x="501.45" y="-462.17" font-family="Arial" font-size="14.00">glossAlternateFor</text>
</g>
<!-- xref&#45;&gt;glossAlternateFor -->
<g id="edge27" class="edge">
<title>xref&#45;&gt;glossAlternateFor</title>
<path fill="none" stroke="#1f78b4" d="M436.83,-382.17C449.14,-398.11 467.17,-421.47 481.06,-439.46"/>
<polygon fill="#a6cee3" stroke="#1f78b4" points="478.62,-442.03 487.5,-447.81 484.16,-437.75 478.62,-442.03"/>
</g>
</g>
</svg>
