<?xml version="1.0" encoding="UTF-8" standalone="no"?>
<!-- Generated by graphviz version 6.0.1 (20220911.1526)
 -->
<!-- Pages: 1 -->
<svg width="941pt" height="734pt"
 viewBox="0.00 0.00 941.00 734.00" xmlns="http://www.w3.org/2000/svg" xmlns:xlink="http://www.w3.org/1999/xlink">
<g id="graph0" class="graph" transform="scale(1 1) rotate(0) translate(4 730)">
<polygon fill="white" stroke="none" points="-4,4 -4,-730 937,-730 937,4 -4,4"/>
<!-- learningBaseModule -->
<g id="node1" class="node">
<title>learningBaseModule</title>
<path fill="#dddddd" stroke="black" d="M392.2,-321.61C392.2,-321.61 508.2,-321.61 508.2,-321.61 514.2,-321.61 520.2,-327.61 520.2,-333.61 520.2,-333.61 520.2,-345.61 520.2,-345.61 520.2,-351.61 514.2,-357.61 508.2,-357.61 508.2,-357.61 392.2,-357.61 392.2,-357.61 386.2,-357.61 380.2,-351.61 380.2,-345.61 380.2,-345.61 380.2,-333.61 380.2,-333.61 380.2,-327.61 386.2,-321.61 392.2,-321.61"/>
<text text-anchor="middle" x="450.2" y="-335.91" font-family="Arial" font-size="14.00">learningBaseModule</text>
</g>
<!-- topic -->
<g id="node2" class="node">
<title>topic</title>
<path fill="#afa7f4" stroke="black" d="M353.29,-144.08C353.29,-144.08 383.29,-144.08 383.29,-144.08 389.29,-144.08 395.29,-150.08 395.29,-156.08 395.29,-156.08 395.29,-168.08 395.29,-168.08 395.29,-174.08 389.29,-180.08 383.29,-180.08 383.29,-180.08 353.29,-180.08 353.29,-180.08 347.29,-180.08 341.29,-174.08 341.29,-168.08 341.29,-168.08 341.29,-156.08 341.29,-156.08 341.29,-150.08 347.29,-144.08 353.29,-144.08"/>
<text text-anchor="middle" x="368.29" y="-158.38" font-family="Arial" font-size="14.00">topic</text>
</g>
<!-- learningBaseModule&#45;&gt;topic -->
<g id="edge1" class="edge">
<title>learningBaseModule&#45;&gt;topic</title>
<path fill="none" stroke="#1f78b4" d="M441.74,-321.28C427.3,-289.97 397.8,-226.03 380.91,-189.42"/>
<polygon fill="#a6cee3" stroke="#1f78b4" points="384.07,-187.92 376.7,-180.31 377.71,-190.85 384.07,-187.92"/>
</g>
<!-- body -->
<g id="node4" class="node">
<title>body</title>
<path fill="#afa7f4" stroke="black" d="M450.69,-523.04C450.69,-523.04 480.69,-523.04 480.69,-523.04 486.69,-523.04 492.69,-529.04 492.69,-535.04 492.69,-535.04 492.69,-547.04 492.69,-547.04 492.69,-553.04 486.69,-559.04 480.69,-559.04 480.69,-559.04 450.69,-559.04 450.69,-559.04 444.69,-559.04 438.69,-553.04 438.69,-547.04 438.69,-547.04 438.69,-535.04 438.69,-535.04 438.69,-529.04 444.69,-523.04 450.69,-523.04"/>
<text text-anchor="middle" x="465.69" y="-537.34" font-family="Arial" font-size="14.00">body</text>
</g>
<!-- learningBaseModule&#45;&gt;body -->
<g id="edge3" class="edge">
<title>learningBaseModule&#45;&gt;body</title>
<path fill="none" stroke="#1f78b4" d="M451.6,-357.84C454.31,-393.12 460.3,-470.94 463.52,-512.9"/>
<polygon fill="#a6cee3" stroke="#1f78b4" points="460.04,-513.3 464.3,-523 467.02,-512.76 460.04,-513.3"/>
</g>
<!-- section -->
<g id="node6" class="node">
<title>section</title>
<path fill="#afa7f4" stroke="black" d="M700.52,-257.34C700.52,-257.34 735.52,-257.34 735.52,-257.34 741.52,-257.34 747.52,-263.34 747.52,-269.34 747.52,-269.34 747.52,-281.34 747.52,-281.34 747.52,-287.34 741.52,-293.34 735.52,-293.34 735.52,-293.34 700.52,-293.34 700.52,-293.34 694.52,-293.34 688.52,-287.34 688.52,-281.34 688.52,-281.34 688.52,-269.34 688.52,-269.34 688.52,-263.34 694.52,-257.34 700.52,-257.34"/>
<text text-anchor="middle" x="718.02" y="-271.64" font-family="Arial" font-size="14.00">section</text>
</g>
<!-- learningBaseModule&#45;&gt;section -->
<g id="edge5" class="edge">
<title>learningBaseModule&#45;&gt;section</title>
<path fill="none" stroke="#1f78b4" d="M520.22,-322.81C570.76,-310.68 637.17,-294.74 678.72,-284.77"/>
<polygon fill="#a6cee3" stroke="#1f78b4" points="679.57,-288.17 688.47,-282.43 677.93,-281.36 679.57,-288.17"/>
</g>
<!-- ph -->
<g id="node19" class="node">
<title>ph</title>
<path fill="#afa7f4" stroke="black" d="M256.72,-420.17C256.72,-420.17 286.72,-420.17 286.72,-420.17 292.72,-420.17 298.72,-426.17 298.72,-432.17 298.72,-432.17 298.72,-444.17 298.72,-444.17 298.72,-450.17 292.72,-456.17 286.72,-456.17 286.72,-456.17 256.72,-456.17 256.72,-456.17 250.72,-456.17 244.72,-450.17 244.72,-444.17 244.72,-444.17 244.72,-432.17 244.72,-432.17 244.72,-426.17 250.72,-420.17 256.72,-420.17"/>
<text text-anchor="middle" x="271.72" y="-434.47" font-family="Arial" font-size="14.00">ph</text>
</g>
<!-- learningBaseModule&#45;&gt;ph -->
<g id="edge18" class="edge">
<title>learningBaseModule&#45;&gt;ph</title>
<path fill="none" stroke="#1f78b4" d="M417.46,-357.69C386.5,-374.78 340.13,-400.39 308.04,-418.11"/>
<polygon fill="#a6cee3" stroke="#1f78b4" points="306.05,-415.21 298.99,-423.11 309.43,-421.34 306.05,-415.21"/>
</g>
<!-- ul -->
<g id="node21" class="node">
<title>ul</title>
<path fill="#afa7f4" stroke="black" d="M236.4,-239.76C236.4,-239.76 266.4,-239.76 266.4,-239.76 272.4,-239.76 278.4,-245.76 278.4,-251.76 278.4,-251.76 278.4,-263.76 278.4,-263.76 278.4,-269.76 272.4,-275.76 266.4,-275.76 266.4,-275.76 236.4,-275.76 236.4,-275.76 230.4,-275.76 224.4,-269.76 224.4,-263.76 224.4,-263.76 224.4,-251.76 224.4,-251.76 224.4,-245.76 230.4,-239.76 236.4,-239.76"/>
<text text-anchor="middle" x="251.4" y="-254.06" font-family="Arial" font-size="14.00">ul</text>
</g>
<!-- learningBaseModule&#45;&gt;ul -->
<g id="edge20" class="edge">
<title>learningBaseModule&#45;&gt;ul</title>
<path fill="none" stroke="#1f78b4" d="M406.08,-321.44C370.58,-306.83 321.28,-286.53 287.96,-272.81"/>
<polygon fill="#a6cee3" stroke="#1f78b4" points="289.16,-269.52 278.58,-268.95 286.5,-276 289.16,-269.52"/>
</g>
<!-- li -->
<g id="node23" class="node">
<title>li</title>
<path fill="#afa7f4" stroke="black" d="M336.74,-500.2C336.74,-500.2 366.74,-500.2 366.74,-500.2 372.74,-500.2 378.74,-506.2 378.74,-512.2 378.74,-512.2 378.74,-524.2 378.74,-524.2 378.74,-530.2 372.74,-536.2 366.74,-536.2 366.74,-536.2 336.74,-536.2 336.74,-536.2 330.74,-536.2 324.74,-530.2 324.74,-524.2 324.74,-524.2 324.74,-512.2 324.74,-512.2 324.74,-506.2 330.74,-500.2 336.74,-500.2"/>
<text text-anchor="middle" x="351.74" y="-514.5" font-family="Arial" font-size="14.00">li</text>
</g>
<!-- learningBaseModule&#45;&gt;li -->
<g id="edge22" class="edge">
<title>learningBaseModule&#45;&gt;li</title>
<path fill="none" stroke="#1f78b4" d="M440.22,-357.72C422.89,-389.14 387.17,-453.93 366.82,-490.86"/>
<polygon fill="#a6cee3" stroke="#1f78b4" points="363.51,-489.6 361.75,-500.04 369.64,-492.98 363.51,-489.6"/>
</g>
<!-- data -->
<g id="node25" class="node">
<title>data</title>
<path fill="#afa7f4" stroke="black" d="M256.5,-294.17C256.5,-294.17 286.5,-294.17 286.5,-294.17 292.5,-294.17 298.5,-300.17 298.5,-306.17 298.5,-306.17 298.5,-318.17 298.5,-318.17 298.5,-324.17 292.5,-330.17 286.5,-330.17 286.5,-330.17 256.5,-330.17 256.5,-330.17 250.5,-330.17 244.5,-324.17 244.5,-318.17 244.5,-318.17 244.5,-306.17 244.5,-306.17 244.5,-300.17 250.5,-294.17 256.5,-294.17"/>
<text text-anchor="middle" x="271.5" y="-308.47" font-family="Arial" font-size="14.00">data</text>
</g>
<!-- learningBaseModule&#45;&gt;data -->
<g id="edge24" class="edge">
<title>learningBaseModule&#45;&gt;data</title>
<path fill="none" stroke="#1f78b4" d="M380.08,-328.84C355.66,-325.09 329.22,-321.03 308.54,-317.86"/>
<polygon fill="#a6cee3" stroke="#1f78b4" points="309.01,-314.39 298.6,-316.33 307.95,-321.31 309.01,-314.39"/>
</g>
<!-- learningBase -->
<g id="node3" class="node">
<title>learningBase</title>
<path fill="#1afabc" stroke="black" d="M263.6,-0.58C263.6,-0.58 334.6,-0.58 334.6,-0.58 340.6,-0.58 346.6,-6.58 346.6,-12.58 346.6,-12.58 346.6,-24.58 346.6,-24.58 346.6,-30.58 340.6,-36.58 334.6,-36.58 334.6,-36.58 263.6,-36.58 263.6,-36.58 257.6,-36.58 251.6,-30.58 251.6,-24.58 251.6,-24.58 251.6,-12.58 251.6,-12.58 251.6,-6.58 257.6,-0.58 263.6,-0.58"/>
<text text-anchor="middle" x="299.1" y="-14.88" font-family="Arial" font-size="14.00">learningBase</text>
</g>
<!-- topic&#45;&gt;learningBase -->
<g id="edge2" class="edge">
<title>topic&#45;&gt;learningBase</title>
<path fill="none" stroke="#1f78b4" d="M359.53,-143.9C347.57,-119.1 326.05,-74.47 312.18,-45.7"/>
<polygon fill="#a6cee3" stroke="#1f78b4" points="315.29,-44.1 307.79,-36.61 308.98,-47.14 315.29,-44.1"/>
</g>
<!-- learningBasebody -->
<g id="node5" class="node">
<title>learningBasebody</title>
<path fill="#1afabc" stroke="black" d="M423.3,-689.72C423.3,-689.72 524.3,-689.72 524.3,-689.72 530.3,-689.72 536.3,-695.72 536.3,-701.72 536.3,-701.72 536.3,-713.72 536.3,-713.72 536.3,-719.72 530.3,-725.72 524.3,-725.72 524.3,-725.72 423.3,-725.72 423.3,-725.72 417.3,-725.72 411.3,-719.72 411.3,-713.72 411.3,-713.72 411.3,-701.72 411.3,-701.72 411.3,-695.72 417.3,-689.72 423.3,-689.72"/>
<text text-anchor="middle" x="473.8" y="-704.02" font-family="Arial" font-size="14.00">learningBasebody</text>
</g>
<!-- body&#45;&gt;learningBasebody -->
<g id="edge4" class="edge">
<title>body&#45;&gt;learningBasebody</title>
<path fill="none" stroke="#1f78b4" d="M466.57,-559.2C467.98,-588.13 470.75,-644.92 472.42,-679.28"/>
<polygon fill="#a6cee3" stroke="#1f78b4" points="468.94,-679.77 472.92,-689.59 475.93,-679.43 468.94,-679.77"/>
</g>
<!-- lcIntro -->
<g id="node7" class="node">
<title>lcIntro</title>
<path fill="#1afabc" stroke="black" d="M746.93,-110.85C746.93,-110.85 776.93,-110.85 776.93,-110.85 782.93,-110.85 788.93,-116.85 788.93,-122.85 788.93,-122.85 788.93,-134.85 788.93,-134.85 788.93,-140.85 782.93,-146.85 776.93,-146.85 776.93,-146.85 746.93,-146.85 746.93,-146.85 740.93,-146.85 734.93,-140.85 734.93,-134.85 734.93,-134.85 734.93,-122.85 734.93,-122.85 734.93,-116.85 740.93,-110.85 746.93,-110.85"/>
<text text-anchor="middle" x="761.93" y="-125.15" font-family="Arial" font-size="14.00">lcIntro</text>
</g>
<!-- section&#45;&gt;lcIntro -->
<g id="edge6" class="edge">
<title>section&#45;&gt;lcIntro</title>
<path fill="none" stroke="#1f78b4" d="M723.5,-257.08C731.06,-231.83 744.79,-186.04 753.62,-156.56"/>
<polygon fill="#a6cee3" stroke="#1f78b4" points="757.01,-157.46 756.53,-146.87 750.3,-155.45 757.01,-157.46"/>
</g>
<!-- lcObjectives -->
<g id="node8" class="node">
<title>lcObjectives</title>
<path fill="#1afabc" stroke="black" d="M855.44,-241.63C855.44,-241.63 921.44,-241.63 921.44,-241.63 927.44,-241.63 933.44,-247.63 933.44,-253.63 933.44,-253.63 933.44,-265.63 933.44,-265.63 933.44,-271.63 927.44,-277.63 921.44,-277.63 921.44,-277.63 855.44,-277.63 855.44,-277.63 849.44,-277.63 843.44,-271.63 843.44,-265.63 843.44,-265.63 843.44,-253.63 843.44,-253.63 843.44,-247.63 849.44,-241.63 855.44,-241.63"/>
<text text-anchor="middle" x="888.44" y="-255.93" font-family="Arial" font-size="14.00">lcObjectives</text>
</g>
<!-- section&#45;&gt;lcObjectives -->
<g id="edge7" class="edge">
<title>section&#45;&gt;lcObjectives</title>
<path fill="none" stroke="#1f78b4" d="M747.71,-272.6C771.23,-270.43 804.76,-267.34 833.19,-264.72"/>
<polygon fill="#a6cee3" stroke="#1f78b4" points="833.77,-268.19 843.4,-263.78 833.12,-261.22 833.77,-268.19"/>
</g>
<!-- lcAudience -->
<g id="node9" class="node">
<title>lcAudience</title>
<path fill="#1afabc" stroke="black" d="M650.54,-105.75C650.54,-105.75 709.54,-105.75 709.54,-105.75 715.54,-105.75 721.54,-111.75 721.54,-117.75 721.54,-117.75 721.54,-129.75 721.54,-129.75 721.54,-135.75 715.54,-141.75 709.54,-141.75 709.54,-141.75 650.54,-141.75 650.54,-141.75 644.54,-141.75 638.54,-135.75 638.54,-129.75 638.54,-129.75 638.54,-117.75 638.54,-117.75 638.54,-111.75 644.54,-105.75 650.54,-105.75"/>
<text text-anchor="middle" x="680.04" y="-120.05" font-family="Arial" font-size="14.00">lcAudience</text>
</g>
<!-- section&#45;&gt;lcAudience -->
<g id="edge8" class="edge">
<title>section&#45;&gt;lcAudience</title>
<path fill="none" stroke="#1f78b4" d="M713.44,-257.05C706.91,-230.99 694.86,-182.92 687.16,-152.18"/>
<polygon fill="#a6cee3" stroke="#1f78b4" points="690.46,-150.95 684.63,-142.1 683.67,-152.65 690.46,-150.95"/>
</g>
<!-- lcDuration -->
<g id="node10" class="node">
<title>lcDuration</title>
<path fill="#1afabc" stroke="black" d="M815.31,-343.51C815.31,-343.51 868.31,-343.51 868.31,-343.51 874.31,-343.51 880.31,-349.51 880.31,-355.51 880.31,-355.51 880.31,-367.51 880.31,-367.51 880.31,-373.51 874.31,-379.51 868.31,-379.51 868.31,-379.51 815.31,-379.51 815.31,-379.51 809.31,-379.51 803.31,-373.51 803.31,-367.51 803.31,-367.51 803.31,-355.51 803.31,-355.51 803.31,-349.51 809.31,-343.51 815.31,-343.51"/>
<text text-anchor="middle" x="841.81" y="-357.81" font-family="Arial" font-size="14.00">lcDuration</text>
</g>
<!-- section&#45;&gt;lcDuration -->
<g id="edge9" class="edge">
<title>section&#45;&gt;lcDuration</title>
<path fill="none" stroke="#1f78b4" d="M743.97,-293.4C762.46,-306.27 787.49,-323.7 807.61,-337.7"/>
<polygon fill="#a6cee3" stroke="#1f78b4" points="805.69,-340.63 815.89,-343.47 809.69,-334.89 805.69,-340.63"/>
</g>
<!-- lcPrereqs -->
<g id="node11" class="node">
<title>lcPrereqs</title>
<path fill="#1afabc" stroke="black" d="M822.2,-188.67C822.2,-188.67 872.2,-188.67 872.2,-188.67 878.2,-188.67 884.2,-194.67 884.2,-200.67 884.2,-200.67 884.2,-212.67 884.2,-212.67 884.2,-218.67 878.2,-224.67 872.2,-224.67 872.2,-224.67 822.2,-224.67 822.2,-224.67 816.2,-224.67 810.2,-218.67 810.2,-212.67 810.2,-212.67 810.2,-200.67 810.2,-200.67 810.2,-194.67 816.2,-188.67 822.2,-188.67"/>
<text text-anchor="middle" x="847.2" y="-202.97" font-family="Arial" font-size="14.00">lcPrereqs</text>
</g>
<!-- section&#45;&gt;lcPrereqs -->
<g id="edge10" class="edge">
<title>section&#45;&gt;lcPrereqs</title>
<path fill="none" stroke="#1f78b4" d="M747.66,-259.58C764.43,-250.67 785.7,-239.36 804.27,-229.49"/>
<polygon fill="#a6cee3" stroke="#1f78b4" points="805.95,-232.56 813.14,-224.78 802.67,-226.38 805.95,-232.56"/>
</g>
<!-- lcSummary -->
<g id="node12" class="node">
<title>lcSummary</title>
<path fill="#1afabc" stroke="black" d="M583.89,-161.37C583.89,-161.37 645.89,-161.37 645.89,-161.37 651.89,-161.37 657.89,-167.37 657.89,-173.37 657.89,-173.37 657.89,-185.37 657.89,-185.37 657.89,-191.37 651.89,-197.37 645.89,-197.37 645.89,-197.37 583.89,-197.37 583.89,-197.37 577.89,-197.37 571.89,-191.37 571.89,-185.37 571.89,-185.37 571.89,-173.37 571.89,-173.37 571.89,-167.37 577.89,-161.37 583.89,-161.37"/>
<text text-anchor="middle" x="614.89" y="-175.67" font-family="Arial" font-size="14.00">lcSummary</text>
</g>
<!-- section&#45;&gt;lcSummary -->
<g id="edge11" class="edge">
<title>section&#45;&gt;lcSummary</title>
<path fill="none" stroke="#1f78b4" d="M698.63,-257.29C682.74,-242.5 660.07,-221.41 642.32,-204.89"/>
<polygon fill="#a6cee3" stroke="#1f78b4" points="644.26,-201.92 634.56,-197.67 639.49,-207.04 644.26,-201.92"/>
</g>
<!-- lcNextSteps -->
<g id="node13" class="node">
<title>lcNextSteps</title>
<path fill="#1afabc" stroke="black" d="M715.14,-162.81C715.14,-162.81 780.14,-162.81 780.14,-162.81 786.14,-162.81 792.14,-168.81 792.14,-174.81 792.14,-174.81 792.14,-186.81 792.14,-186.81 792.14,-192.81 786.14,-198.81 780.14,-198.81 780.14,-198.81 715.14,-198.81 715.14,-198.81 709.14,-198.81 703.14,-192.81 703.14,-186.81 703.14,-186.81 703.14,-174.81 703.14,-174.81 703.14,-168.81 709.14,-162.81 715.14,-162.81"/>
<text text-anchor="middle" x="747.64" y="-177.11" font-family="Arial" font-size="14.00">lcNextSteps</text>
</g>
<!-- section&#45;&gt;lcNextSteps -->
<g id="edge12" class="edge">
<title>section&#45;&gt;lcNextSteps</title>
<path fill="none" stroke="#1f78b4" d="M723.74,-257.11C728.04,-243.38 734.01,-224.31 738.91,-208.67"/>
<polygon fill="#a6cee3" stroke="#1f78b4" points="742.3,-209.57 741.95,-198.98 735.62,-207.48 742.3,-209.57"/>
</g>
<!-- lcReview -->
<g id="node14" class="node">
<title>lcReview</title>
<path fill="#1afabc" stroke="black" d="M719.52,-347.9C719.52,-347.9 766.52,-347.9 766.52,-347.9 772.52,-347.9 778.52,-353.9 778.52,-359.9 778.52,-359.9 778.52,-371.9 778.52,-371.9 778.52,-377.9 772.52,-383.9 766.52,-383.9 766.52,-383.9 719.52,-383.9 719.52,-383.9 713.52,-383.9 707.52,-377.9 707.52,-371.9 707.52,-371.9 707.52,-359.9 707.52,-359.9 707.52,-353.9 713.52,-347.9 719.52,-347.9"/>
<text text-anchor="middle" x="743.02" y="-362.2" font-family="Arial" font-size="14.00">lcReview</text>
</g>
<!-- section&#45;&gt;lcReview -->
<g id="edge13" class="edge">
<title>section&#45;&gt;lcReview</title>
<path fill="none" stroke="#1f78b4" d="M723.08,-293.66C726.57,-306.31 731.28,-323.36 735.24,-337.72"/>
<polygon fill="#a6cee3" stroke="#1f78b4" points="731.93,-338.89 737.97,-347.6 738.68,-337.03 731.93,-338.89"/>
</g>
<!-- lcResources -->
<g id="node15" class="node">
<title>lcResources</title>
<path fill="#1afabc" stroke="black" d="M804.55,-394.18C804.55,-394.18 871.55,-394.18 871.55,-394.18 877.55,-394.18 883.55,-400.18 883.55,-406.18 883.55,-406.18 883.55,-418.18 883.55,-418.18 883.55,-424.18 877.55,-430.18 871.55,-430.18 871.55,-430.18 804.55,-430.18 804.55,-430.18 798.55,-430.18 792.55,-424.18 792.55,-418.18 792.55,-418.18 792.55,-406.18 792.55,-406.18 792.55,-400.18 798.55,-394.18 804.55,-394.18"/>
<text text-anchor="middle" x="838.05" y="-408.48" font-family="Arial" font-size="14.00">lcResources</text>
</g>
<!-- section&#45;&gt;lcResources -->
<g id="edge14" class="edge">
<title>section&#45;&gt;lcResources</title>
<path fill="none" stroke="#1f78b4" d="M733.96,-293.51C754.86,-317.33 791.63,-359.26 815.41,-386.37"/>
<polygon fill="#a6cee3" stroke="#1f78b4" points="812.82,-388.72 822.04,-393.93 818.08,-384.11 812.82,-388.72"/>
</g>
<!-- lcChallenge -->
<g id="node16" class="node">
<title>lcChallenge</title>
<path fill="#1afabc" stroke="black" d="M641.23,-395.15C641.23,-395.15 704.23,-395.15 704.23,-395.15 710.23,-395.15 716.23,-401.15 716.23,-407.15 716.23,-407.15 716.23,-419.15 716.23,-419.15 716.23,-425.15 710.23,-431.15 704.23,-431.15 704.23,-431.15 641.23,-431.15 641.23,-431.15 635.23,-431.15 629.23,-425.15 629.23,-419.15 629.23,-419.15 629.23,-407.15 629.23,-407.15 629.23,-401.15 635.23,-395.15 641.23,-395.15"/>
<text text-anchor="middle" x="672.73" y="-409.45" font-family="Arial" font-size="14.00">lcChallenge</text>
</g>
<!-- section&#45;&gt;lcChallenge -->
<g id="edge15" class="edge">
<title>section&#45;&gt;lcChallenge</title>
<path fill="none" stroke="#1f78b4" d="M712.1,-293.35C704.41,-316.77 690.88,-357.91 681.87,-385.35"/>
<polygon fill="#a6cee3" stroke="#1f78b4" points="678.45,-384.54 678.65,-395.13 685.1,-386.72 678.45,-384.54"/>
</g>
<!-- lcInstruction -->
<g id="node17" class="node">
<title>lcInstruction</title>
<path fill="#1afabc" stroke="black" d="M818.57,-138.06C818.57,-138.06 883.57,-138.06 883.57,-138.06 889.57,-138.06 895.57,-144.06 895.57,-150.06 895.57,-150.06 895.57,-162.06 895.57,-162.06 895.57,-168.06 889.57,-174.06 883.57,-174.06 883.57,-174.06 818.57,-174.06 818.57,-174.06 812.57,-174.06 806.57,-168.06 806.57,-162.06 806.57,-162.06 806.57,-150.06 806.57,-150.06 806.57,-144.06 812.57,-138.06 818.57,-138.06"/>
<text text-anchor="middle" x="851.07" y="-152.36" font-family="Arial" font-size="14.00">lcInstruction</text>
</g>
<!-- section&#45;&gt;lcInstruction -->
<g id="edge16" class="edge">
<title>section&#45;&gt;lcInstruction</title>
<path fill="none" stroke="#1f78b4" d="M738.23,-257.22C760.89,-236.9 797.79,-203.82 823.19,-181.05"/>
<polygon fill="#a6cee3" stroke="#1f78b4" points="825.57,-183.62 830.68,-174.34 820.89,-178.41 825.57,-183.62"/>
</g>
<!-- lcInteraction -->
<g id="node18" class="node">
<title>lcInteraction</title>
<path fill="#1afabc" stroke="black" d="M850.21,-297.04C850.21,-297.04 915.21,-297.04 915.21,-297.04 921.21,-297.04 927.21,-303.04 927.21,-309.04 927.21,-309.04 927.21,-321.04 927.21,-321.04 927.21,-327.04 921.21,-333.04 915.21,-333.04 915.21,-333.04 850.21,-333.04 850.21,-333.04 844.21,-333.04 838.21,-327.04 838.21,-321.04 838.21,-321.04 838.21,-309.04 838.21,-309.04 838.21,-303.04 844.21,-297.04 850.21,-297.04"/>
<text text-anchor="middle" x="882.71" y="-311.34" font-family="Arial" font-size="14.00">lcInteraction</text>
</g>
<!-- section&#45;&gt;lcInteraction -->
<g id="edge17" class="edge">
<title>section&#45;&gt;lcInteraction</title>
<path fill="none" stroke="#1f78b4" d="M747.85,-282.53C770.12,-287.9 801.2,-295.39 827.9,-301.83"/>
<polygon fill="#a6cee3" stroke="#1f78b4" points="827.35,-305.3 837.9,-304.24 828.99,-298.49 827.35,-305.3"/>
</g>
<!-- lcObjectivesStem -->
<g id="node20" class="node">
<title>lcObjectivesStem</title>
<path fill="#1afabc" stroke="black" d="M75.51,-498.51C75.51,-498.51 173.51,-498.51 173.51,-498.51 179.51,-498.51 185.51,-504.51 185.51,-510.51 185.51,-510.51 185.51,-522.51 185.51,-522.51 185.51,-528.51 179.51,-534.51 173.51,-534.51 173.51,-534.51 75.51,-534.51 75.51,-534.51 69.51,-534.51 63.51,-528.51 63.51,-522.51 63.51,-522.51 63.51,-510.51 63.51,-510.51 63.51,-504.51 69.51,-498.51 75.51,-498.51"/>
<text text-anchor="middle" x="124.51" y="-512.81" font-family="Arial" font-size="14.00">lcObjectivesStem</text>
</g>
<!-- ph&#45;&gt;lcObjectivesStem -->
<g id="edge19" class="edge">
<title>ph&#45;&gt;lcObjectivesStem</title>
<path fill="none" stroke="#1f78b4" d="M244.72,-452.54C223.13,-464.03 192.46,-480.35 167.5,-493.63"/>
<polygon fill="#a6cee3" stroke="#1f78b4" points="165.78,-490.59 158.59,-498.37 169.07,-496.76 165.78,-490.59"/>
</g>
<!-- lcObjectivesGroup -->
<g id="node22" class="node">
<title>lcObjectivesGroup</title>
<path fill="#1afabc" stroke="black" d="M12.1,-227.42C12.1,-227.42 116.1,-227.42 116.1,-227.42 122.1,-227.42 128.1,-233.42 128.1,-239.42 128.1,-239.42 128.1,-251.42 128.1,-251.42 128.1,-257.42 122.1,-263.42 116.1,-263.42 116.1,-263.42 12.1,-263.42 12.1,-263.42 6.1,-263.42 0.1,-257.42 0.1,-251.42 0.1,-251.42 0.1,-239.42 0.1,-239.42 0.1,-233.42 6.1,-227.42 12.1,-227.42"/>
<text text-anchor="middle" x="64.1" y="-241.72" font-family="Arial" font-size="14.00">lcObjectivesGroup</text>
</g>
<!-- ul&#45;&gt;lcObjectivesGroup -->
<g id="edge21" class="edge">
<title>ul&#45;&gt;lcObjectivesGroup</title>
<path fill="none" stroke="#1f78b4" d="M224.17,-255.97C201.65,-254.48 168.58,-252.3 138.34,-250.31"/>
<polygon fill="#a6cee3" stroke="#1f78b4" points="138.42,-246.81 128.21,-249.64 137.96,-253.79 138.42,-246.81"/>
</g>
<!-- lcObjective -->
<g id="node24" class="node">
<title>lcObjective</title>
<path fill="#1afabc" stroke="black" d="M250.7,-626.4C250.7,-626.4 309.7,-626.4 309.7,-626.4 315.7,-626.4 321.7,-632.4 321.7,-638.4 321.7,-638.4 321.7,-650.4 321.7,-650.4 321.7,-656.4 315.7,-662.4 309.7,-662.4 309.7,-662.4 250.7,-662.4 250.7,-662.4 244.7,-662.4 238.7,-656.4 238.7,-650.4 238.7,-650.4 238.7,-638.4 238.7,-638.4 238.7,-632.4 244.7,-626.4 250.7,-626.4"/>
<text text-anchor="middle" x="280.2" y="-640.7" font-family="Arial" font-size="14.00">lcObjective</text>
</g>
<!-- li&#45;&gt;lcObjective -->
<g id="edge23" class="edge">
<title>li&#45;&gt;lcObjective</title>
<path fill="none" stroke="#1f78b4" d="M341.49,-536.28C329.43,-557.56 309.3,-593.07 295.41,-617.56"/>
<polygon fill="#a6cee3" stroke="#1f78b4" points="292.32,-615.93 290.43,-626.36 298.41,-619.38 292.32,-615.93"/>
</g>
<!-- lcTime -->
<g id="node26" class="node">
<title>lcTime</title>
<path fill="#1afabc" stroke="black" d="M155.79,-208.45C155.79,-208.45 188.79,-208.45 188.79,-208.45 194.79,-208.45 200.79,-214.45 200.79,-220.45 200.79,-220.45 200.79,-232.45 200.79,-232.45 200.79,-238.45 194.79,-244.45 188.79,-244.45 188.79,-244.45 155.79,-244.45 155.79,-244.45 149.79,-244.45 143.79,-238.45 143.79,-232.45 143.79,-232.45 143.79,-220.45 143.79,-220.45 143.79,-214.45 149.79,-208.45 155.79,-208.45"/>
<text text-anchor="middle" x="172.29" y="-222.75" font-family="Arial" font-size="14.00">lcTime</text>
</g>
<!-- data&#45;&gt;lcTime -->
<g id="edge25" class="edge">
<title>data&#45;&gt;lcTime</title>
<path fill="none" stroke="#1f78b4" d="M250.46,-293.99C236.12,-281.6 216.95,-265.04 201.19,-251.42"/>
<polygon fill="#a6cee3" stroke="#1f78b4" points="203.15,-248.49 193.3,-244.6 198.58,-253.79 203.15,-248.49"/>
</g>
</g>
</svg>
