<?xml version="1.0" encoding="UTF-8" standalone="no"?>
<!DOCTYPE svg PUBLIC "-//W3C//DTD SVG 1.1//EN"
 "http://www.w3.org/Graphics/SVG/1.1/DTD/svg11.dtd">
<!-- Generated by graphviz version 6.0.1 (20220911.1526)
 -->
<!-- Pages: 1 -->
<svg width="221pt" height="136pt"
 viewBox="0.00 0.00 221.00 136.00" xmlns="http://www.w3.org/2000/svg" xmlns:xlink="http://www.w3.org/1999/xlink">
<g id="graph0" class="graph" transform="scale(1 1) rotate(0) translate(4 132)">
<polygon fill="white" stroke="none" points="-4,4 -4,-132 217,-132 217,4 -4,4"/>
<!-- learningObjectMapModule -->
<g id="node1" class="node">
<title>learningObjectMapModule</title>
<path fill="#dddddd" stroke="black" d="M12,-91.05C12,-91.05 164,-91.05 164,-91.05 170,-91.05 176,-97.05 176,-103.05 176,-103.05 176,-115.05 176,-115.05 176,-121.05 170,-127.05 164,-127.05 164,-127.05 12,-127.05 12,-127.05 6,-127.05 0,-121.05 0,-115.05 0,-115.05 0,-103.05 0,-103.05 0,-97.05 6,-91.05 12,-91.05"/>
<text text-anchor="middle" x="88" y="-105.35" font-family="Arial" font-size="14.00">learningObjectMapModule</text>
</g>
<!-- map -->
<g id="node2" class="node">
<title>map</title>
<path fill="#afa7f4" stroke="black" d="M129.99,-45.8C129.99,-45.8 159.99,-45.8 159.99,-45.8 165.99,-45.8 171.99,-51.8 171.99,-57.8 171.99,-57.8 171.99,-69.8 171.99,-69.8 171.99,-75.8 165.99,-81.8 159.99,-81.8 159.99,-81.8 129.99,-81.8 129.99,-81.8 123.99,-81.8 117.99,-75.8 117.99,-69.8 117.99,-69.8 117.99,-57.8 117.99,-57.8 117.99,-51.8 123.99,-45.8 129.99,-45.8"/>
<text text-anchor="middle" x="144.99" y="-60.1" font-family="Arial" font-size="14.00">map</text>
</g>
<!-- learningObjectMapModule&#45;&gt;map -->
<g id="edge1" class="edge">
<title>learningObjectMapModule&#45;&gt;map</title>
<path fill="none" stroke="#1f78b4" d="M110.85,-90.91C111.89,-90.08 112.95,-89.24 114.01,-88.4"/>
<polygon fill="#a6cee3" stroke="#1f78b4" points="116.48,-90.91 122.13,-81.95 112.12,-85.43 116.48,-90.91"/>
</g>
<!-- learningObjectMap -->
<g id="node3" class="node">
<title>learningObjectMap</title>
<path fill="#1afabc" stroke="black" d="M94.11,-0.57C94.11,-0.57 201.11,-0.57 201.11,-0.57 207.11,-0.57 213.11,-6.57 213.11,-12.57 213.11,-12.57 213.11,-24.57 213.11,-24.57 213.11,-30.57 207.11,-36.57 201.11,-36.57 201.11,-36.57 94.11,-36.57 94.11,-36.57 88.11,-36.57 82.11,-30.57 82.11,-24.57 82.11,-24.57 82.11,-12.57 82.11,-12.57 82.11,-6.57 88.11,-0.57 94.11,-0.57"/>
<text text-anchor="middle" x="147.61" y="-14.87" font-family="Arial" font-size="14.00">learningObjectMap</text>
</g>
<!-- map&#45;&gt;learningObjectMap -->
<g id="edge2" class="edge">
<title>map&#45;&gt;learningObjectMap</title>
<path fill="none" stroke="#1f78b4" d="M146.04,-45.66C146.05,-45.57 146.05,-45.48 146.06,-45.39"/>
<polygon fill="#a6cee3" stroke="#1f78b4" points="149.48,-46.9 146.56,-36.71 142.49,-46.49 149.48,-46.9"/>
</g>
</g>
</svg>
