<?xml version="1.0" encoding="UTF-8" standalone="no"?>
<!DOCTYPE svg PUBLIC "-//W3C//DTD SVG 1.1//EN"
 "http://www.w3.org/Graphics/SVG/1.1/DTD/svg11.dtd">
<!-- Generated by graphviz version 6.0.1 (20220911.1526)
 -->
<!-- Pages: 1 -->
<svg width="220pt" height="136pt"
 viewBox="0.00 0.00 220.00 136.00" xmlns="http://www.w3.org/2000/svg" xmlns:xlink="http://www.w3.org/1999/xlink">
<g id="graph0" class="graph" transform="scale(1 1) rotate(0) translate(4 132)">
<polygon fill="white" stroke="none" points="-4,4 -4,-132 216,-132 216,4 -4,4"/>
<!-- learningGroupMapModule -->
<g id="node1" class="node">
<title>learningGroupMapModule</title>
<path fill="#dddddd" stroke="black" d="M11.52,-91.1C11.52,-91.1 162.52,-91.1 162.52,-91.1 168.52,-91.1 174.52,-97.1 174.52,-103.1 174.52,-103.1 174.52,-115.1 174.52,-115.1 174.52,-121.1 168.52,-127.1 162.52,-127.1 162.52,-127.1 11.52,-127.1 11.52,-127.1 5.52,-127.1 -0.48,-121.1 -0.48,-115.1 -0.48,-115.1 -0.48,-103.1 -0.48,-103.1 -0.48,-97.1 5.52,-91.1 11.52,-91.1"/>
<text text-anchor="middle" x="87.02" y="-105.4" font-family="Arial" font-size="14.00">learningGroupMapModule</text>
</g>
<!-- map -->
<g id="node2" class="node">
<title>map</title>
<path fill="#afa7f4" stroke="black" d="M129.12,-45.85C129.12,-45.85 159.12,-45.85 159.12,-45.85 165.12,-45.85 171.12,-51.85 171.12,-57.85 171.12,-57.85 171.12,-69.85 171.12,-69.85 171.12,-75.85 165.12,-81.85 159.12,-81.85 159.12,-81.85 129.12,-81.85 129.12,-81.85 123.12,-81.85 117.12,-75.85 117.12,-69.85 117.12,-69.85 117.12,-57.85 117.12,-57.85 117.12,-51.85 123.12,-45.85 129.12,-45.85"/>
<text text-anchor="middle" x="144.12" y="-60.15" font-family="Arial" font-size="14.00">map</text>
</g>
<!-- learningGroupMapModule&#45;&gt;map -->
<g id="edge1" class="edge">
<title>learningGroupMapModule&#45;&gt;map</title>
<path fill="none" stroke="#1f78b4" d="M109.92,-90.95C110.96,-90.13 112.02,-89.29 113.08,-88.45"/>
<polygon fill="#a6cee3" stroke="#1f78b4" points="115.56,-90.95 121.22,-82 111.21,-85.47 115.56,-90.95"/>
</g>
<!-- learningGroupMap -->
<g id="node3" class="node">
<title>learningGroupMap</title>
<path fill="#1afabc" stroke="black" d="M93.68,-0.56C93.68,-0.56 199.68,-0.56 199.68,-0.56 205.68,-0.56 211.68,-6.56 211.68,-12.56 211.68,-12.56 211.68,-24.56 211.68,-24.56 211.68,-30.56 205.68,-36.56 199.68,-36.56 199.68,-36.56 93.68,-36.56 93.68,-36.56 87.68,-36.56 81.68,-30.56 81.68,-24.56 81.68,-24.56 81.68,-12.56 81.68,-12.56 81.68,-6.56 87.68,-0.56 93.68,-0.56"/>
<text text-anchor="middle" x="146.68" y="-14.86" font-family="Arial" font-size="14.00">learningGroupMap</text>
</g>
<!-- map&#45;&gt;learningGroupMap -->
<g id="edge2" class="edge">
<title>map&#45;&gt;learningGroupMap</title>
<path fill="none" stroke="#1f78b4" d="M145.15,-45.69C145.15,-45.6 145.16,-45.51 145.16,-45.41"/>
<polygon fill="#a6cee3" stroke="#1f78b4" points="148.58,-46.91 145.65,-36.73 141.6,-46.51 148.58,-46.91"/>
</g>
</g>
</svg>
