<?xml version="1.0" encoding="UTF-8" standalone="no"?>
<!DOCTYPE svg PUBLIC "-//W3C//DTD SVG 1.1//EN"
 "http://www.w3.org/Graphics/SVG/1.1/DTD/svg11.dtd">
<!-- Generated by graphviz version 6.0.1 (20220911.1526)
 -->
<!-- Pages: 1 -->
<svg width="326pt" height="251pt"
 viewBox="0.00 0.00 326.00 251.00" xmlns="http://www.w3.org/2000/svg" xmlns:xlink="http://www.w3.org/1999/xlink">
<g id="graph0" class="graph" transform="scale(1 1) rotate(0) translate(4 247)">
<polygon fill="white" stroke="none" points="-4,4 -4,-247 322,-247 322,4 -4,4"/>
<!-- learningContentModule -->
<g id="node1" class="node">
<title>learningContentModule</title>
<path fill="#dddddd" stroke="black" d="M11.54,-95.12C11.54,-95.12 144.54,-95.12 144.54,-95.12 150.54,-95.12 156.54,-101.12 156.54,-107.12 156.54,-107.12 156.54,-119.12 156.54,-119.12 156.54,-125.12 150.54,-131.12 144.54,-131.12 144.54,-131.12 11.54,-131.12 11.54,-131.12 5.54,-131.12 -0.46,-125.12 -0.46,-119.12 -0.46,-119.12 -0.46,-107.12 -0.46,-107.12 -0.46,-101.12 5.54,-95.12 11.54,-95.12"/>
<text text-anchor="middle" x="78.04" y="-109.42" font-family="Arial" font-size="14.00">learningContentModule</text>
</g>
<!-- learningBase -->
<g id="node2" class="node">
<title>learningBase</title>
<path fill="#afa7f4" stroke="black" d="M179.84,-50.04C179.84,-50.04 250.84,-50.04 250.84,-50.04 256.84,-50.04 262.84,-56.04 262.84,-62.04 262.84,-62.04 262.84,-74.04 262.84,-74.04 262.84,-80.04 256.84,-86.04 250.84,-86.04 250.84,-86.04 179.84,-86.04 179.84,-86.04 173.84,-86.04 167.84,-80.04 167.84,-74.04 167.84,-74.04 167.84,-62.04 167.84,-62.04 167.84,-56.04 173.84,-50.04 179.84,-50.04"/>
<text text-anchor="middle" x="215.34" y="-64.34" font-family="Arial" font-size="14.00">learningBase</text>
</g>
<!-- learningContentModule&#45;&gt;learningBase -->
<g id="edge1" class="edge">
<title>learningContentModule&#45;&gt;learningBase</title>
<path fill="none" stroke="#1f78b4" d="M133.09,-95.04C141.35,-92.33 149.88,-89.53 158.18,-86.8"/>
<polygon fill="#a6cee3" stroke="#1f78b4" points="159.38,-90.09 167.79,-83.65 157.2,-83.44 159.38,-90.09"/>
</g>
<!-- learningBasebody -->
<g id="node4" class="node">
<title>learningBasebody</title>
<path fill="#afa7f4" stroke="black" d="M36.78,-143.44C36.78,-143.44 137.78,-143.44 137.78,-143.44 143.78,-143.44 149.78,-149.44 149.78,-155.44 149.78,-155.44 149.78,-167.44 149.78,-167.44 149.78,-173.44 143.78,-179.44 137.78,-179.44 137.78,-179.44 36.78,-179.44 36.78,-179.44 30.78,-179.44 24.78,-173.44 24.78,-167.44 24.78,-167.44 24.78,-155.44 24.78,-155.44 24.78,-149.44 30.78,-143.44 36.78,-143.44"/>
<text text-anchor="middle" x="87.28" y="-157.74" font-family="Arial" font-size="14.00">learningBasebody</text>
</g>
<!-- learningContentModule&#45;&gt;learningBasebody -->
<g id="edge3" class="edge">
<title>learningContentModule&#45;&gt;learningBasebody</title>
<path fill="none" stroke="#1f78b4" d="M81.53,-131.38C81.64,-131.99 81.76,-132.59 81.88,-133.2"/>
<polygon fill="#a6cee3" stroke="#1f78b4" points="78.46,-133.98 83.78,-143.14 85.34,-132.66 78.46,-133.98"/>
</g>
<!-- learningContent -->
<g id="node3" class="node">
<title>learningContent</title>
<path fill="#1afabc" stroke="black" d="M135.52,-0.79C135.52,-0.79 223.52,-0.79 223.52,-0.79 229.52,-0.79 235.52,-6.79 235.52,-12.79 235.52,-12.79 235.52,-24.79 235.52,-24.79 235.52,-30.79 229.52,-36.79 223.52,-36.79 223.52,-36.79 135.52,-36.79 135.52,-36.79 129.52,-36.79 123.52,-30.79 123.52,-24.79 123.52,-24.79 123.52,-12.79 123.52,-12.79 123.52,-6.79 129.52,-0.79 135.52,-0.79"/>
<text text-anchor="middle" x="179.52" y="-15.09" font-family="Arial" font-size="14.00">learningContent</text>
</g>
<!-- learningBase&#45;&gt;learningContent -->
<g id="edge2" class="edge">
<title>learningBase&#45;&gt;learningContent</title>
<path fill="none" stroke="#1f78b4" d="M202.2,-49.98C201.04,-48.37 199.84,-46.73 198.63,-45.07"/>
<polygon fill="#a6cee3" stroke="#1f78b4" points="201.37,-42.87 192.65,-36.85 195.7,-46.99 201.37,-42.87"/>
</g>
<!-- learningContentbody -->
<g id="node5" class="node">
<title>learningContentbody</title>
<path fill="#1afabc" stroke="black" d="M189.36,-206.97C189.36,-206.97 306.36,-206.97 306.36,-206.97 312.36,-206.97 318.36,-212.97 318.36,-218.97 318.36,-218.97 318.36,-230.97 318.36,-230.97 318.36,-236.97 312.36,-242.97 306.36,-242.97 306.36,-242.97 189.36,-242.97 189.36,-242.97 183.36,-242.97 177.36,-236.97 177.36,-230.97 177.36,-230.97 177.36,-218.97 177.36,-218.97 177.36,-212.97 183.36,-206.97 189.36,-206.97"/>
<text text-anchor="middle" x="247.86" y="-221.27" font-family="Arial" font-size="14.00">learningContentbody</text>
</g>
<!-- learningBasebody&#45;&gt;learningContentbody -->
<g id="edge4" class="edge">
<title>learningBasebody&#45;&gt;learningContentbody</title>
<path fill="none" stroke="#1f78b4" d="M132.86,-179.47C151.51,-186.85 173.25,-195.45 192.77,-203.18"/>
<polygon fill="#a6cee3" stroke="#1f78b4" points="191.57,-206.47 202.16,-206.89 194.15,-199.96 191.57,-206.47"/>
</g>
</g>
</svg>
