<?xml version="1.0" encoding="UTF-8" standalone="no"?>
<!DOCTYPE svg PUBLIC "-//W3C//DTD SVG 1.1//EN"
 "http://www.w3.org/Graphics/SVG/1.1/DTD/svg11.dtd">
<!-- Generated by graphviz version 6.0.1 (20220911.1526)
 -->
<!-- Pages: 1 -->
<svg width="1033pt" height="701pt"
 viewBox="0.00 0.00 1033.00 701.00" xmlns="http://www.w3.org/2000/svg" xmlns:xlink="http://www.w3.org/1999/xlink">
<g id="graph0" class="graph" transform="scale(1 1) rotate(0) translate(4 697)">
<polygon fill="white" stroke="none" points="-4,4 -4,-697 1029,-697 1029,4 -4,4"/>
<!-- learningPlanModule -->
<g id="node1" class="node">
<title>learningPlanModule</title>
<path fill="#dddddd" stroke="black" d="M441.72,-282.6C441.72,-282.6 554.72,-282.6 554.72,-282.6 560.72,-282.6 566.72,-288.6 566.72,-294.6 566.72,-294.6 566.72,-306.6 566.72,-306.6 566.72,-312.6 560.72,-318.6 554.72,-318.6 554.72,-318.6 441.72,-318.6 441.72,-318.6 435.72,-318.6 429.72,-312.6 429.72,-306.6 429.72,-306.6 429.72,-294.6 429.72,-294.6 429.72,-288.6 435.72,-282.6 441.72,-282.6"/>
<text text-anchor="middle" x="498.22" y="-296.9" font-family="Arial" font-size="14.00">learningPlanModule</text>
</g>
<!-- learningBase -->
<g id="node2" class="node">
<title>learningBase</title>
<path fill="#afa7f4" stroke="black" d="M400.34,-194.18C400.34,-194.18 471.34,-194.18 471.34,-194.18 477.34,-194.18 483.34,-200.18 483.34,-206.18 483.34,-206.18 483.34,-218.18 483.34,-218.18 483.34,-224.18 477.34,-230.18 471.34,-230.18 471.34,-230.18 400.34,-230.18 400.34,-230.18 394.34,-230.18 388.34,-224.18 388.34,-218.18 388.34,-218.18 388.34,-206.18 388.34,-206.18 388.34,-200.18 394.34,-194.18 400.34,-194.18"/>
<text text-anchor="middle" x="435.84" y="-208.48" font-family="Arial" font-size="14.00">learningBase</text>
</g>
<!-- learningPlanModule&#45;&gt;learningBase -->
<g id="edge1" class="edge">
<title>learningPlanModule&#45;&gt;learningBase</title>
<path fill="none" stroke="#1f78b4" d="M485.3,-282.28C476.43,-269.71 464.53,-252.83 454.62,-238.79"/>
<polygon fill="#a6cee3" stroke="#1f78b4" points="457.38,-236.63 448.75,-230.47 451.66,-240.66 457.38,-236.63"/>
</g>
<!-- learningBasebody -->
<g id="node4" class="node">
<title>learningBasebody</title>
<path fill="#afa7f4" stroke="black" d="M308.69,-239.2C308.69,-239.2 409.69,-239.2 409.69,-239.2 415.69,-239.2 421.69,-245.2 421.69,-251.2 421.69,-251.2 421.69,-263.2 421.69,-263.2 421.69,-269.2 415.69,-275.2 409.69,-275.2 409.69,-275.2 308.69,-275.2 308.69,-275.2 302.69,-275.2 296.69,-269.2 296.69,-263.2 296.69,-263.2 296.69,-251.2 296.69,-251.2 296.69,-245.2 302.69,-239.2 308.69,-239.2"/>
<text text-anchor="middle" x="359.19" y="-253.5" font-family="Arial" font-size="14.00">learningBasebody</text>
</g>
<!-- learningPlanModule&#45;&gt;learningBasebody -->
<g id="edge3" class="edge">
<title>learningPlanModule&#45;&gt;learningBasebody</title>
<path fill="none" stroke="#1f78b4" d="M440.47,-282.57C435.98,-281.17 431.43,-279.75 426.89,-278.33"/>
<polygon fill="#a6cee3" stroke="#1f78b4" points="427.58,-274.88 416.99,-275.24 425.49,-281.56 427.58,-274.88"/>
</g>
<!-- section -->
<g id="node6" class="node">
<title>section</title>
<path fill="#afa7f4" stroke="black" d="M404.44,-128.51C404.44,-128.51 439.44,-128.51 439.44,-128.51 445.44,-128.51 451.44,-134.51 451.44,-140.51 451.44,-140.51 451.44,-152.51 451.44,-152.51 451.44,-158.51 445.44,-164.51 439.44,-164.51 439.44,-164.51 404.44,-164.51 404.44,-164.51 398.44,-164.51 392.44,-158.51 392.44,-152.51 392.44,-152.51 392.44,-140.51 392.44,-140.51 392.44,-134.51 398.44,-128.51 404.44,-128.51"/>
<text text-anchor="middle" x="421.94" y="-142.81" font-family="Arial" font-size="14.00">section</text>
</g>
<!-- learningPlanModule&#45;&gt;section -->
<g id="edge5" class="edge">
<title>learningPlanModule&#45;&gt;section</title>
<path fill="none" stroke="#1f78b4" d="M489.17,-282.32C475.87,-255.44 450.93,-205.08 435.45,-173.81"/>
<polygon fill="#a6cee3" stroke="#1f78b4" points="438.55,-172.18 430.98,-164.77 432.28,-175.29 438.55,-172.18"/>
</g>
<!-- fig -->
<g id="node12" class="node">
<title>fig</title>
<path fill="#afa7f4" stroke="black" d="M358.27,-416.52C358.27,-416.52 388.27,-416.52 388.27,-416.52 394.27,-416.52 400.27,-422.52 400.27,-428.52 400.27,-428.52 400.27,-440.52 400.27,-440.52 400.27,-446.52 394.27,-452.52 388.27,-452.52 388.27,-452.52 358.27,-452.52 358.27,-452.52 352.27,-452.52 346.27,-446.52 346.27,-440.52 346.27,-440.52 346.27,-428.52 346.27,-428.52 346.27,-422.52 352.27,-416.52 358.27,-416.52"/>
<text text-anchor="middle" x="373.27" y="-430.82" font-family="Arial" font-size="14.00">fig</text>
</g>
<!-- learningPlanModule&#45;&gt;fig -->
<g id="edge11" class="edge">
<title>learningPlanModule&#45;&gt;fig</title>
<path fill="none" stroke="#1f78b4" d="M481.37,-318.66C459.66,-341.92 421.8,-382.5 397.14,-408.93"/>
<polygon fill="#a6cee3" stroke="#1f78b4" points="394.51,-406.62 390.25,-416.32 399.63,-411.39 394.51,-406.62"/>
</g>
<!-- p -->
<g id="node41" class="node">
<title>p</title>
<path fill="#afa7f4" stroke="black" d="M647.48,-226.56C647.48,-226.56 677.48,-226.56 677.48,-226.56 683.48,-226.56 689.48,-232.56 689.48,-238.56 689.48,-238.56 689.48,-250.56 689.48,-250.56 689.48,-256.56 683.48,-262.56 677.48,-262.56 677.48,-262.56 647.48,-262.56 647.48,-262.56 641.48,-262.56 635.48,-256.56 635.48,-250.56 635.48,-250.56 635.48,-238.56 635.48,-238.56 635.48,-232.56 641.48,-226.56 647.48,-226.56"/>
<text text-anchor="middle" x="662.48" y="-240.86" font-family="Arial" font-size="14.00">p</text>
</g>
<!-- learningPlanModule&#45;&gt;p -->
<g id="edge40" class="edge">
<title>learningPlanModule&#45;&gt;p</title>
<path fill="none" stroke="#1f78b4" d="M551.1,-282.56C575.5,-274.24 603.86,-264.56 625.86,-257.06"/>
<polygon fill="#a6cee3" stroke="#1f78b4" points="627.15,-260.31 635.48,-253.77 624.89,-253.69 627.15,-260.31"/>
</g>
<!-- learningPlan -->
<g id="node3" class="node">
<title>learningPlan</title>
<path fill="#1afabc" stroke="black" d="M302.41,-149.15C302.41,-149.15 370.41,-149.15 370.41,-149.15 376.41,-149.15 382.41,-155.15 382.41,-161.15 382.41,-161.15 382.41,-173.15 382.41,-173.15 382.41,-179.15 376.41,-185.15 370.41,-185.15 370.41,-185.15 302.41,-185.15 302.41,-185.15 296.41,-185.15 290.41,-179.15 290.41,-173.15 290.41,-173.15 290.41,-161.15 290.41,-161.15 290.41,-155.15 296.41,-149.15 302.41,-149.15"/>
<text text-anchor="middle" x="336.41" y="-163.45" font-family="Arial" font-size="14.00">learningPlan</text>
</g>
<!-- learningBase&#45;&gt;learningPlan -->
<g id="edge2" class="edge">
<title>learningBase&#45;&gt;learningPlan</title>
<path fill="none" stroke="#1f78b4" d="M395.97,-194.12C392.53,-192.56 389.02,-190.97 385.51,-189.39"/>
<polygon fill="#a6cee3" stroke="#1f78b4" points="386.84,-186.15 376.29,-185.21 383.96,-192.52 386.84,-186.15"/>
</g>
<!-- learningPlanbody -->
<g id="node5" class="node">
<title>learningPlanbody</title>
<path fill="#1afabc" stroke="black" d="M151.08,-196.59C151.08,-196.59 248.08,-196.59 248.08,-196.59 254.08,-196.59 260.08,-202.59 260.08,-208.59 260.08,-208.59 260.08,-220.59 260.08,-220.59 260.08,-226.59 254.08,-232.59 248.08,-232.59 248.08,-232.59 151.08,-232.59 151.08,-232.59 145.08,-232.59 139.08,-226.59 139.08,-220.59 139.08,-220.59 139.08,-208.59 139.08,-208.59 139.08,-202.59 145.08,-196.59 151.08,-196.59"/>
<text text-anchor="middle" x="199.58" y="-210.89" font-family="Arial" font-size="14.00">learningPlanbody</text>
</g>
<!-- learningBasebody&#45;&gt;learningPlanbody -->
<g id="edge4" class="edge">
<title>learningBasebody&#45;&gt;learningPlanbody</title>
<path fill="none" stroke="#1f78b4" d="M296.57,-240.48C287.87,-238.16 278.89,-235.77 270.07,-233.41"/>
<polygon fill="#a6cee3" stroke="#1f78b4" points="270.76,-229.97 260.2,-230.77 268.95,-236.73 270.76,-229.97"/>
</g>
<!-- lcProject -->
<g id="node7" class="node">
<title>lcProject</title>
<path fill="#1afabc" stroke="black" d="M298.28,-71.34C298.28,-71.34 342.28,-71.34 342.28,-71.34 348.28,-71.34 354.28,-77.34 354.28,-83.34 354.28,-83.34 354.28,-95.34 354.28,-95.34 354.28,-101.34 348.28,-107.34 342.28,-107.34 342.28,-107.34 298.28,-107.34 298.28,-107.34 292.28,-107.34 286.28,-101.34 286.28,-95.34 286.28,-95.34 286.28,-83.34 286.28,-83.34 286.28,-77.34 292.28,-71.34 298.28,-71.34"/>
<text text-anchor="middle" x="320.28" y="-85.64" font-family="Arial" font-size="14.00">lcProject</text>
</g>
<!-- section&#45;&gt;lcProject -->
<g id="edge6" class="edge">
<title>section&#45;&gt;lcProject</title>
<path fill="none" stroke="#1f78b4" d="M392.26,-129.82C382.56,-124.37 371.61,-118.21 361.23,-112.37"/>
<polygon fill="#a6cee3" stroke="#1f78b4" points="362.74,-109.2 352.3,-107.35 359.3,-115.3 362.74,-109.2"/>
</g>
<!-- lcNeedsAnalysis -->
<g id="node8" class="node">
<title>lcNeedsAnalysis</title>
<path fill="#1afabc" stroke="black" d="M159.24,-67.37C159.24,-67.37 251.24,-67.37 251.24,-67.37 257.24,-67.37 263.24,-73.37 263.24,-79.37 263.24,-79.37 263.24,-91.37 263.24,-91.37 263.24,-97.37 257.24,-103.37 251.24,-103.37 251.24,-103.37 159.24,-103.37 159.24,-103.37 153.24,-103.37 147.24,-97.37 147.24,-91.37 147.24,-91.37 147.24,-79.37 147.24,-79.37 147.24,-73.37 153.24,-67.37 159.24,-67.37"/>
<text text-anchor="middle" x="205.24" y="-81.67" font-family="Arial" font-size="14.00">lcNeedsAnalysis</text>
</g>
<!-- section&#45;&gt;lcNeedsAnalysis -->
<g id="edge7" class="edge">
<title>section&#45;&gt;lcNeedsAnalysis</title>
<path fill="none" stroke="#1f78b4" d="M392.26,-138.14C361.74,-129.53 313.15,-115.82 273.15,-104.53"/>
<polygon fill="#a6cee3" stroke="#1f78b4" points="274.02,-101.14 263.45,-101.79 272.12,-107.88 274.02,-101.14"/>
</g>
<!-- lcGapAnalysis -->
<g id="node9" class="node">
<title>lcGapAnalysis</title>
<path fill="#1afabc" stroke="black" d="M213.25,-9.15C213.25,-9.15 292.25,-9.15 292.25,-9.15 298.25,-9.15 304.25,-15.15 304.25,-21.15 304.25,-21.15 304.25,-33.15 304.25,-33.15 304.25,-39.15 298.25,-45.15 292.25,-45.15 292.25,-45.15 213.25,-45.15 213.25,-45.15 207.25,-45.15 201.25,-39.15 201.25,-33.15 201.25,-33.15 201.25,-21.15 201.25,-21.15 201.25,-15.15 207.25,-9.15 213.25,-9.15"/>
<text text-anchor="middle" x="252.75" y="-23.45" font-family="Arial" font-size="14.00">lcGapAnalysis</text>
</g>
<!-- section&#45;&gt;lcGapAnalysis -->
<g id="edge8" class="edge">
<title>section&#45;&gt;lcGapAnalysis</title>
<path fill="none" stroke="#1f78b4" d="M396.24,-128.39C366.97,-107.73 319.01,-73.89 286.68,-51.09"/>
<polygon fill="#a6cee3" stroke="#1f78b4" points="288.6,-48.16 278.41,-45.25 284.57,-53.88 288.6,-48.16"/>
</g>
<!-- lcIntervention -->
<g id="node10" class="node">
<title>lcIntervention</title>
<path fill="#1afabc" stroke="black" d="M330.56,-0.63C330.56,-0.63 403.56,-0.63 403.56,-0.63 409.56,-0.63 415.56,-6.63 415.56,-12.63 415.56,-12.63 415.56,-24.63 415.56,-24.63 415.56,-30.63 409.56,-36.63 403.56,-36.63 403.56,-36.63 330.56,-36.63 330.56,-36.63 324.56,-36.63 318.56,-30.63 318.56,-24.63 318.56,-24.63 318.56,-12.63 318.56,-12.63 318.56,-6.63 324.56,-0.63 330.56,-0.63"/>
<text text-anchor="middle" x="367.06" y="-14.93" font-family="Arial" font-size="14.00">lcIntervention</text>
</g>
<!-- section&#45;&gt;lcIntervention -->
<g id="edge9" class="edge">
<title>section&#45;&gt;lcIntervention</title>
<path fill="none" stroke="#1f78b4" d="M414.19,-128.46C405.01,-107.07 389.61,-71.18 378.93,-46.28"/>
<polygon fill="#a6cee3" stroke="#1f78b4" points="382.1,-44.81 374.94,-37 375.67,-47.57 382.1,-44.81"/>
</g>
<!-- lcTechnical -->
<g id="node11" class="node">
<title>lcTechnical</title>
<path fill="#1afabc" stroke="black" d="M414.83,-45.79C414.83,-45.79 473.83,-45.79 473.83,-45.79 479.83,-45.79 485.83,-51.79 485.83,-57.79 485.83,-57.79 485.83,-69.79 485.83,-69.79 485.83,-75.79 479.83,-81.79 473.83,-81.79 473.83,-81.79 414.83,-81.79 414.83,-81.79 408.83,-81.79 402.83,-75.79 402.83,-69.79 402.83,-69.79 402.83,-57.79 402.83,-57.79 402.83,-51.79 408.83,-45.79 414.83,-45.79"/>
<text text-anchor="middle" x="444.33" y="-60.09" font-family="Arial" font-size="14.00">lcTechnical</text>
</g>
<!-- section&#45;&gt;lcTechnical -->
<g id="edge10" class="edge">
<title>section&#45;&gt;lcTechnical</title>
<path fill="none" stroke="#1f78b4" d="M426.91,-128.16C429.8,-117.48 433.5,-103.81 436.75,-91.81"/>
<polygon fill="#a6cee3" stroke="#1f78b4" points="440.22,-92.38 439.45,-81.82 433.46,-90.55 440.22,-92.38"/>
</g>
<!-- lcClient -->
<g id="node13" class="node">
<title>lcClient</title>
<path fill="#1afabc" stroke="black" d="M299.79,-299.76C299.79,-299.76 336.79,-299.76 336.79,-299.76 342.79,-299.76 348.79,-305.76 348.79,-311.76 348.79,-311.76 348.79,-323.76 348.79,-323.76 348.79,-329.76 342.79,-335.76 336.79,-335.76 336.79,-335.76 299.79,-335.76 299.79,-335.76 293.79,-335.76 287.79,-329.76 287.79,-323.76 287.79,-323.76 287.79,-311.76 287.79,-311.76 287.79,-305.76 293.79,-299.76 299.79,-299.76"/>
<text text-anchor="middle" x="318.29" y="-314.06" font-family="Arial" font-size="14.00">lcClient</text>
</g>
<!-- fig&#45;&gt;lcClient -->
<g id="edge12" class="edge">
<title>fig&#45;&gt;lcClient</title>
<path fill="none" stroke="#1f78b4" d="M364.68,-416.28C355.68,-397.17 341.45,-366.94 331.12,-345.01"/>
<polygon fill="#a6cee3" stroke="#1f78b4" points="334.25,-343.43 326.82,-335.88 327.91,-346.42 334.25,-343.43"/>
</g>
<!-- lcPlanTitle -->
<g id="node14" class="node">
<title>lcPlanTitle</title>
<path fill="#1afabc" stroke="black" d="M161.18,-403.91C161.18,-403.91 216.18,-403.91 216.18,-403.91 222.18,-403.91 228.18,-409.91 228.18,-415.91 228.18,-415.91 228.18,-427.91 228.18,-427.91 228.18,-433.91 222.18,-439.91 216.18,-439.91 216.18,-439.91 161.18,-439.91 161.18,-439.91 155.18,-439.91 149.18,-433.91 149.18,-427.91 149.18,-427.91 149.18,-415.91 149.18,-415.91 149.18,-409.91 155.18,-403.91 161.18,-403.91"/>
<text text-anchor="middle" x="188.68" y="-418.21" font-family="Arial" font-size="14.00">lcPlanTitle</text>
</g>
<!-- fig&#45;&gt;lcPlanTitle -->
<g id="edge13" class="edge">
<title>fig&#45;&gt;lcPlanTitle</title>
<path fill="none" stroke="#1f78b4" d="M346.03,-432.66C317.86,-430.74 273.22,-427.69 238.68,-425.33"/>
<polygon fill="#a6cee3" stroke="#1f78b4" points="238.53,-421.81 228.31,-424.62 238.05,-428.79 238.53,-421.81"/>
</g>
<!-- lcCIN -->
<g id="node15" class="node">
<title>lcCIN</title>
<path fill="#1afabc" stroke="black" d="M468.83,-404.37C468.83,-404.37 498.83,-404.37 498.83,-404.37 504.83,-404.37 510.83,-410.37 510.83,-416.37 510.83,-416.37 510.83,-428.37 510.83,-428.37 510.83,-434.37 504.83,-440.37 498.83,-440.37 498.83,-440.37 468.83,-440.37 468.83,-440.37 462.83,-440.37 456.83,-434.37 456.83,-428.37 456.83,-428.37 456.83,-416.37 456.83,-416.37 456.83,-410.37 462.83,-404.37 468.83,-404.37"/>
<text text-anchor="middle" x="483.83" y="-418.67" font-family="Arial" font-size="14.00">lcCIN</text>
</g>
<!-- fig&#45;&gt;lcCIN -->
<g id="edge14" class="edge">
<title>fig&#45;&gt;lcCIN</title>
<path fill="none" stroke="#1f78b4" d="M400.31,-431.55C414.23,-430.02 431.42,-428.13 446.57,-426.46"/>
<polygon fill="#a6cee3" stroke="#1f78b4" points="447.12,-429.93 456.68,-425.35 446.35,-422.97 447.12,-429.93"/>
</g>
<!-- lcModDate -->
<g id="node16" class="node">
<title>lcModDate</title>
<path fill="#1afabc" stroke="black" d="M232.89,-610.76C232.89,-610.76 290.89,-610.76 290.89,-610.76 296.89,-610.76 302.89,-616.76 302.89,-622.76 302.89,-622.76 302.89,-634.76 302.89,-634.76 302.89,-640.76 296.89,-646.76 290.89,-646.76 290.89,-646.76 232.89,-646.76 232.89,-646.76 226.89,-646.76 220.89,-640.76 220.89,-634.76 220.89,-634.76 220.89,-622.76 220.89,-622.76 220.89,-616.76 226.89,-610.76 232.89,-610.76"/>
<text text-anchor="middle" x="261.89" y="-625.06" font-family="Arial" font-size="14.00">lcModDate</text>
</g>
<!-- fig&#45;&gt;lcModDate -->
<g id="edge15" class="edge">
<title>fig&#45;&gt;lcModDate</title>
<path fill="none" stroke="#1f78b4" d="M362.79,-452.79C343.04,-487.23 300.25,-561.85 277.25,-601.96"/>
<polygon fill="#a6cee3" stroke="#1f78b4" points="274.19,-600.26 272.25,-610.67 280.27,-603.74 274.19,-600.26"/>
</g>
<!-- lcDelivDate -->
<g id="node17" class="node">
<title>lcDelivDate</title>
<path fill="#1afabc" stroke="black" d="M39.74,-495.55C39.74,-495.55 100.74,-495.55 100.74,-495.55 106.74,-495.55 112.74,-501.55 112.74,-507.55 112.74,-507.55 112.74,-519.55 112.74,-519.55 112.74,-525.55 106.74,-531.55 100.74,-531.55 100.74,-531.55 39.74,-531.55 39.74,-531.55 33.74,-531.55 27.74,-525.55 27.74,-519.55 27.74,-519.55 27.74,-507.55 27.74,-507.55 27.74,-501.55 33.74,-495.55 39.74,-495.55"/>
<text text-anchor="middle" x="70.24" y="-509.85" font-family="Arial" font-size="14.00">lcDelivDate</text>
</g>
<!-- fig&#45;&gt;lcDelivDate -->
<g id="edge16" class="edge">
<title>fig&#45;&gt;lcDelivDate</title>
<path fill="none" stroke="#1f78b4" d="M346.11,-441.6C295.92,-454.69 187.83,-482.88 122.85,-499.83"/>
<polygon fill="#a6cee3" stroke="#1f78b4" points="121.6,-496.54 112.81,-502.45 123.37,-503.31 121.6,-496.54"/>
</g>
<!-- lcPlanSubject -->
<g id="node18" class="node">
<title>lcPlanSubject</title>
<path fill="#1afabc" stroke="black" d="M79.29,-313.77C79.29,-313.77 153.29,-313.77 153.29,-313.77 159.29,-313.77 165.29,-319.77 165.29,-325.77 165.29,-325.77 165.29,-337.77 165.29,-337.77 165.29,-343.77 159.29,-349.77 153.29,-349.77 153.29,-349.77 79.29,-349.77 79.29,-349.77 73.29,-349.77 67.29,-343.77 67.29,-337.77 67.29,-337.77 67.29,-325.77 67.29,-325.77 67.29,-319.77 73.29,-313.77 79.29,-313.77"/>
<text text-anchor="middle" x="116.29" y="-328.07" font-family="Arial" font-size="14.00">lcPlanSubject</text>
</g>
<!-- fig&#45;&gt;lcPlanSubject -->
<g id="edge17" class="edge">
<title>fig&#45;&gt;lcPlanSubject</title>
<path fill="none" stroke="#1f78b4" d="M346.25,-423.72C304.8,-407.15 224.66,-375.1 170.81,-353.57"/>
<polygon fill="#a6cee3" stroke="#1f78b4" points="171.99,-350.28 161.4,-349.81 169.39,-356.78 171.99,-350.28"/>
</g>
<!-- lcPlanDescrip -->
<g id="node19" class="node">
<title>lcPlanDescrip</title>
<path fill="#1afabc" stroke="black" d="M363.54,-611.16C363.54,-611.16 438.54,-611.16 438.54,-611.16 444.54,-611.16 450.54,-617.16 450.54,-623.16 450.54,-623.16 450.54,-635.16 450.54,-635.16 450.54,-641.16 444.54,-647.16 438.54,-647.16 438.54,-647.16 363.54,-647.16 363.54,-647.16 357.54,-647.16 351.54,-641.16 351.54,-635.16 351.54,-635.16 351.54,-623.16 351.54,-623.16 351.54,-617.16 357.54,-611.16 363.54,-611.16"/>
<text text-anchor="middle" x="401.04" y="-625.46" font-family="Arial" font-size="14.00">lcPlanDescrip</text>
</g>
<!-- fig&#45;&gt;lcPlanDescrip -->
<g id="edge18" class="edge">
<title>fig&#45;&gt;lcPlanDescrip</title>
<path fill="none" stroke="#1f78b4" d="M375.88,-452.83C380.75,-486.97 391.25,-560.55 397.02,-601.03"/>
<polygon fill="#a6cee3" stroke="#1f78b4" points="393.57,-601.64 398.45,-611.04 400.5,-600.65 393.57,-601.64"/>
</g>
<!-- lcPlanPrereqs -->
<g id="node20" class="node">
<title>lcPlanPrereqs</title>
<path fill="#1afabc" stroke="black" d="M154.69,-493.83C154.69,-493.83 231.69,-493.83 231.69,-493.83 237.69,-493.83 243.69,-499.83 243.69,-505.83 243.69,-505.83 243.69,-517.83 243.69,-517.83 243.69,-523.83 237.69,-529.83 231.69,-529.83 231.69,-529.83 154.69,-529.83 154.69,-529.83 148.69,-529.83 142.69,-523.83 142.69,-517.83 142.69,-517.83 142.69,-505.83 142.69,-505.83 142.69,-499.83 148.69,-493.83 154.69,-493.83"/>
<text text-anchor="middle" x="193.19" y="-508.13" font-family="Arial" font-size="14.00">lcPlanPrereqs</text>
</g>
<!-- fig&#45;&gt;lcPlanPrereqs -->
<g id="edge19" class="edge">
<title>fig&#45;&gt;lcPlanPrereqs</title>
<path fill="none" stroke="#1f78b4" d="M345.92,-446.26C319.14,-457.76 277.68,-475.56 244.71,-489.71"/>
<polygon fill="#a6cee3" stroke="#1f78b4" points="243.03,-486.62 235.22,-493.79 245.79,-493.06 243.03,-486.62"/>
</g>
<!-- lcOrganizational -->
<g id="node21" class="node">
<title>lcOrganizational</title>
<path fill="#1afabc" stroke="black" d="M598.63,-494.41C598.63,-494.41 688.63,-494.41 688.63,-494.41 694.63,-494.41 700.63,-500.41 700.63,-506.41 700.63,-506.41 700.63,-518.41 700.63,-518.41 700.63,-524.41 694.63,-530.41 688.63,-530.41 688.63,-530.41 598.63,-530.41 598.63,-530.41 592.63,-530.41 586.63,-524.41 586.63,-518.41 586.63,-518.41 586.63,-506.41 586.63,-506.41 586.63,-500.41 592.63,-494.41 598.63,-494.41"/>
<text text-anchor="middle" x="643.63" y="-508.71" font-family="Arial" font-size="14.00">lcOrganizational</text>
</g>
<!-- fig&#45;&gt;lcOrganizational -->
<g id="edge20" class="edge">
<title>fig&#45;&gt;lcOrganizational</title>
<path fill="none" stroke="#1f78b4" d="M400.43,-442.35C441.38,-454.14 520.18,-476.84 577,-493.21"/>
<polygon fill="#a6cee3" stroke="#1f78b4" points="576.05,-496.58 586.63,-495.99 577.99,-489.86 576.05,-496.58"/>
</g>
<!-- lcPlanAudience -->
<g id="node22" class="node">
<title>lcPlanAudience</title>
<path fill="#1afabc" stroke="black" d="M282.97,-656.22C282.97,-656.22 368.97,-656.22 368.97,-656.22 374.97,-656.22 380.97,-662.22 380.97,-668.22 380.97,-668.22 380.97,-680.22 380.97,-680.22 380.97,-686.22 374.97,-692.22 368.97,-692.22 368.97,-692.22 282.97,-692.22 282.97,-692.22 276.97,-692.22 270.97,-686.22 270.97,-680.22 270.97,-680.22 270.97,-668.22 270.97,-668.22 270.97,-662.22 276.97,-656.22 282.97,-656.22"/>
<text text-anchor="middle" x="325.97" y="-670.52" font-family="Arial" font-size="14.00">lcPlanAudience</text>
</g>
<!-- fig&#45;&gt;lcPlanAudience -->
<g id="edge21" class="edge">
<title>fig&#45;&gt;lcPlanAudience</title>
<path fill="none" stroke="#1f78b4" d="M369.71,-452.54C361.55,-493.92 341.4,-596.04 331.56,-645.9"/>
<polygon fill="#a6cee3" stroke="#1f78b4" points="328.07,-645.5 329.57,-655.99 334.94,-646.86 328.07,-645.5"/>
</g>
<!-- lcWorkEnv -->
<g id="node23" class="node">
<title>lcWorkEnv</title>
<path fill="#1afabc" stroke="black" d="M514.6,-449.4C514.6,-449.4 571.6,-449.4 571.6,-449.4 577.6,-449.4 583.6,-455.4 583.6,-461.4 583.6,-461.4 583.6,-473.4 583.6,-473.4 583.6,-479.4 577.6,-485.4 571.6,-485.4 571.6,-485.4 514.6,-485.4 514.6,-485.4 508.6,-485.4 502.6,-479.4 502.6,-473.4 502.6,-473.4 502.6,-461.4 502.6,-461.4 502.6,-455.4 508.6,-449.4 514.6,-449.4"/>
<text text-anchor="middle" x="543.1" y="-463.7" font-family="Arial" font-size="14.00">lcWorkEnv</text>
</g>
<!-- fig&#45;&gt;lcWorkEnv -->
<g id="edge22" class="edge">
<title>fig&#45;&gt;lcWorkEnv</title>
<path fill="none" stroke="#1f78b4" d="M400.55,-439.8C425.32,-444.6 462.47,-451.79 492.64,-457.63"/>
<polygon fill="#a6cee3" stroke="#1f78b4" points="492.09,-461.09 502.57,-459.55 493.42,-454.21 492.09,-461.09"/>
</g>
<!-- lcTask -->
<g id="node24" class="node">
<title>lcTask</title>
<path fill="#1afabc" stroke="black" d="M371.64,-305.06C371.64,-305.06 401.64,-305.06 401.64,-305.06 407.64,-305.06 413.64,-311.06 413.64,-317.06 413.64,-317.06 413.64,-329.06 413.64,-329.06 413.64,-335.06 407.64,-341.06 401.64,-341.06 401.64,-341.06 371.64,-341.06 371.64,-341.06 365.64,-341.06 359.64,-335.06 359.64,-329.06 359.64,-329.06 359.64,-317.06 359.64,-317.06 359.64,-311.06 365.64,-305.06 371.64,-305.06"/>
<text text-anchor="middle" x="386.64" y="-319.36" font-family="Arial" font-size="14.00">lcTask</text>
</g>
<!-- fig&#45;&gt;lcTask -->
<g id="edge23" class="edge">
<title>fig&#45;&gt;lcTask</title>
<path fill="none" stroke="#1f78b4" d="M375.48,-416.12C377.6,-398.43 380.83,-371.45 383.28,-351.09"/>
<polygon fill="#a6cee3" stroke="#1f78b4" points="386.76,-351.47 384.47,-341.13 379.81,-350.64 386.76,-351.47"/>
</g>
<!-- lcGapItem -->
<g id="node25" class="node">
<title>lcGapItem</title>
<path fill="#1afabc" stroke="black" d="M109.23,-358.8C109.23,-358.8 165.23,-358.8 165.23,-358.8 171.23,-358.8 177.23,-364.8 177.23,-370.8 177.23,-370.8 177.23,-382.8 177.23,-382.8 177.23,-388.8 171.23,-394.8 165.23,-394.8 165.23,-394.8 109.23,-394.8 109.23,-394.8 103.23,-394.8 97.23,-388.8 97.23,-382.8 97.23,-382.8 97.23,-370.8 97.23,-370.8 97.23,-364.8 103.23,-358.8 109.23,-358.8"/>
<text text-anchor="middle" x="137.23" y="-373.1" font-family="Arial" font-size="14.00">lcGapItem</text>
</g>
<!-- fig&#45;&gt;lcGapItem -->
<g id="edge24" class="edge">
<title>fig&#45;&gt;lcGapItem</title>
<path fill="none" stroke="#1f78b4" d="M346.19,-427.9C307.53,-418.45 235.82,-400.91 187.32,-389.05"/>
<polygon fill="#a6cee3" stroke="#1f78b4" points="187.89,-385.59 177.34,-386.61 186.22,-392.39 187.89,-385.59"/>
</g>
<!-- lcInterventionItem -->
<g id="node26" class="node">
<title>lcInterventionItem</title>
<path fill="#1afabc" stroke="black" d="M475.45,-629.55C475.45,-629.55 575.45,-629.55 575.45,-629.55 581.45,-629.55 587.45,-635.55 587.45,-641.55 587.45,-641.55 587.45,-653.55 587.45,-653.55 587.45,-659.55 581.45,-665.55 575.45,-665.55 575.45,-665.55 475.45,-665.55 475.45,-665.55 469.45,-665.55 463.45,-659.55 463.45,-653.55 463.45,-653.55 463.45,-641.55 463.45,-641.55 463.45,-635.55 469.45,-629.55 475.45,-629.55"/>
<text text-anchor="middle" x="525.45" y="-643.85" font-family="Arial" font-size="14.00">lcInterventionItem</text>
</g>
<!-- fig&#45;&gt;lcInterventionItem -->
<g id="edge25" class="edge">
<title>fig&#45;&gt;lcInterventionItem</title>
<path fill="none" stroke="#1f78b4" d="M386.24,-452.68C413.2,-490.42 475.35,-577.41 506.67,-621.27"/>
<polygon fill="#a6cee3" stroke="#1f78b4" points="503.85,-623.33 512.51,-629.43 509.54,-619.26 503.85,-623.33"/>
</g>
<!-- lcLMS -->
<g id="node27" class="node">
<title>lcLMS</title>
<path fill="#1afabc" stroke="black" d="M379.03,-520.37C379.03,-520.37 410.03,-520.37 410.03,-520.37 416.03,-520.37 422.03,-526.37 422.03,-532.37 422.03,-532.37 422.03,-544.37 422.03,-544.37 422.03,-550.37 416.03,-556.37 410.03,-556.37 410.03,-556.37 379.03,-556.37 379.03,-556.37 373.03,-556.37 367.03,-550.37 367.03,-544.37 367.03,-544.37 367.03,-532.37 367.03,-532.37 367.03,-526.37 373.03,-520.37 379.03,-520.37"/>
<text text-anchor="middle" x="394.53" y="-534.67" font-family="Arial" font-size="14.00">lcLMS</text>
</g>
<!-- fig&#45;&gt;lcLMS -->
<g id="edge26" class="edge">
<title>fig&#45;&gt;lcLMS</title>
<path fill="none" stroke="#1f78b4" d="M376.97,-452.61C380.23,-468.52 385.02,-491.94 388.78,-510.28"/>
<polygon fill="#a6cee3" stroke="#1f78b4" points="385.36,-511.04 390.8,-520.14 392.22,-509.64 385.36,-511.04"/>
</g>
<!-- lcNoLMS -->
<g id="node28" class="node">
<title>lcNoLMS</title>
<path fill="#1afabc" stroke="black" d="M136.88,-538.85C136.88,-538.85 184.88,-538.85 184.88,-538.85 190.88,-538.85 196.88,-544.85 196.88,-550.85 196.88,-550.85 196.88,-562.85 196.88,-562.85 196.88,-568.85 190.88,-574.85 184.88,-574.85 184.88,-574.85 136.88,-574.85 136.88,-574.85 130.88,-574.85 124.88,-568.85 124.88,-562.85 124.88,-562.85 124.88,-550.85 124.88,-550.85 124.88,-544.85 130.88,-538.85 136.88,-538.85"/>
<text text-anchor="middle" x="160.88" y="-553.15" font-family="Arial" font-size="14.00">lcNoLMS</text>
</g>
<!-- fig&#45;&gt;lcNoLMS -->
<g id="edge27" class="edge">
<title>fig&#45;&gt;lcNoLMS</title>
<path fill="none" stroke="#1f78b4" d="M345.94,-450.26C309.12,-471.47 243.32,-509.36 200.92,-533.79"/>
<polygon fill="#a6cee3" stroke="#1f78b4" points="199.16,-530.76 192.24,-538.78 202.66,-536.83 199.16,-530.76"/>
</g>
<!-- lcHandouts -->
<g id="node29" class="node">
<title>lcHandouts</title>
<path fill="#1afabc" stroke="black" d="M67.86,-448.82C67.86,-448.82 127.86,-448.82 127.86,-448.82 133.86,-448.82 139.86,-454.82 139.86,-460.82 139.86,-460.82 139.86,-472.82 139.86,-472.82 139.86,-478.82 133.86,-484.82 127.86,-484.82 127.86,-484.82 67.86,-484.82 67.86,-484.82 61.86,-484.82 55.86,-478.82 55.86,-472.82 55.86,-472.82 55.86,-460.82 55.86,-460.82 55.86,-454.82 61.86,-448.82 67.86,-448.82"/>
<text text-anchor="middle" x="97.86" y="-463.12" font-family="Arial" font-size="14.00">lcHandouts</text>
</g>
<!-- fig&#45;&gt;lcHandouts -->
<g id="edge28" class="edge">
<title>fig&#45;&gt;lcHandouts</title>
<path fill="none" stroke="#1f78b4" d="M346.11,-437.71C300.66,-443.04 208.46,-453.85 150.11,-460.69"/>
<polygon fill="#a6cee3" stroke="#1f78b4" points="149.5,-457.24 139.98,-461.88 150.32,-464.19 149.5,-457.24"/>
</g>
<!-- lcClassroom -->
<g id="node30" class="node">
<title>lcClassroom</title>
<path fill="#1afabc" stroke="black" d="M132.46,-583.89C132.46,-583.89 200.46,-583.89 200.46,-583.89 206.46,-583.89 212.46,-589.89 212.46,-595.89 212.46,-595.89 212.46,-607.89 212.46,-607.89 212.46,-613.89 206.46,-619.89 200.46,-619.89 200.46,-619.89 132.46,-619.89 132.46,-619.89 126.46,-619.89 120.46,-613.89 120.46,-607.89 120.46,-607.89 120.46,-595.89 120.46,-595.89 120.46,-589.89 126.46,-583.89 132.46,-583.89"/>
<text text-anchor="middle" x="166.46" y="-598.19" font-family="Arial" font-size="14.00">lcClassroom</text>
</g>
<!-- fig&#45;&gt;lcClassroom -->
<g id="edge29" class="edge">
<title>fig&#45;&gt;lcClassroom</title>
<path fill="none" stroke="#1f78b4" d="M350.74,-452.75C313.45,-482.93 238.84,-543.32 196.89,-577.26"/>
<polygon fill="#a6cee3" stroke="#1f78b4" points="194.53,-574.67 188.96,-583.68 198.94,-580.11 194.53,-574.67"/>
</g>
<!-- lcOJT -->
<g id="node31" class="node">
<title>lcOJT</title>
<path fill="#1afabc" stroke="black" d="M436.33,-345.71C436.33,-345.71 466.33,-345.71 466.33,-345.71 472.33,-345.71 478.33,-351.71 478.33,-357.71 478.33,-357.71 478.33,-369.71 478.33,-369.71 478.33,-375.71 472.33,-381.71 466.33,-381.71 466.33,-381.71 436.33,-381.71 436.33,-381.71 430.33,-381.71 424.33,-375.71 424.33,-369.71 424.33,-369.71 424.33,-357.71 424.33,-357.71 424.33,-351.71 430.33,-345.71 436.33,-345.71"/>
<text text-anchor="middle" x="451.33" y="-360.01" font-family="Arial" font-size="14.00">lcOJT</text>
</g>
<!-- fig&#45;&gt;lcOJT -->
<g id="edge30" class="edge">
<title>fig&#45;&gt;lcOJT</title>
<path fill="none" stroke="#1f78b4" d="M393.37,-416.29C402.66,-407.86 413.83,-397.72 423.88,-388.61"/>
<polygon fill="#a6cee3" stroke="#1f78b4" points="426.24,-391.2 431.29,-381.88 421.54,-386.01 426.24,-391.2"/>
</g>
<!-- lcConstraints -->
<g id="node32" class="node">
<title>lcConstraints</title>
<path fill="#1afabc" stroke="black" d="M219.62,-538.86C219.62,-538.86 290.62,-538.86 290.62,-538.86 296.62,-538.86 302.62,-544.86 302.62,-550.86 302.62,-550.86 302.62,-562.86 302.62,-562.86 302.62,-568.86 296.62,-574.86 290.62,-574.86 290.62,-574.86 219.62,-574.86 219.62,-574.86 213.62,-574.86 207.62,-568.86 207.62,-562.86 207.62,-562.86 207.62,-550.86 207.62,-550.86 207.62,-544.86 213.62,-538.86 219.62,-538.86"/>
<text text-anchor="middle" x="255.12" y="-553.16" font-family="Arial" font-size="14.00">lcConstraints</text>
</g>
<!-- fig&#45;&gt;lcConstraints -->
<g id="edge31" class="edge">
<title>fig&#45;&gt;lcConstraints</title>
<path fill="none" stroke="#1f78b4" d="M355.83,-452.57C335.68,-473.44 302.36,-507.94 279.61,-531.5"/>
<polygon fill="#a6cee3" stroke="#1f78b4" points="277.06,-529.11 272.63,-538.73 282.09,-533.97 277.06,-529.11"/>
</g>
<!-- lcW3C -->
<g id="node33" class="node">
<title>lcW3C</title>
<path fill="#1afabc" stroke="black" d="M470.55,-569.28C470.55,-569.28 503.55,-569.28 503.55,-569.28 509.55,-569.28 515.55,-575.28 515.55,-581.28 515.55,-581.28 515.55,-593.28 515.55,-593.28 515.55,-599.28 509.55,-605.28 503.55,-605.28 503.55,-605.28 470.55,-605.28 470.55,-605.28 464.55,-605.28 458.55,-599.28 458.55,-593.28 458.55,-593.28 458.55,-581.28 458.55,-581.28 458.55,-575.28 464.55,-569.28 470.55,-569.28"/>
<text text-anchor="middle" x="487.05" y="-583.58" font-family="Arial" font-size="14.00">lcW3C</text>
</g>
<!-- fig&#45;&gt;lcW3C -->
<g id="edge32" class="edge">
<title>fig&#45;&gt;lcW3C</title>
<path fill="none" stroke="#1f78b4" d="M386.77,-452.64C406.78,-479.52 444.44,-530.08 467.48,-561.02"/>
<polygon fill="#a6cee3" stroke="#1f78b4" points="464.79,-563.25 473.57,-569.18 470.4,-559.07 464.79,-563.25"/>
</g>
<!-- lcPlayers -->
<g id="node34" class="node">
<title>lcPlayers</title>
<path fill="#1afabc" stroke="black" d="M322.97,-565.67C322.97,-565.67 369.97,-565.67 369.97,-565.67 375.97,-565.67 381.97,-571.67 381.97,-577.67 381.97,-577.67 381.97,-589.67 381.97,-589.67 381.97,-595.67 375.97,-601.67 369.97,-601.67 369.97,-601.67 322.97,-601.67 322.97,-601.67 316.97,-601.67 310.97,-595.67 310.97,-589.67 310.97,-589.67 310.97,-577.67 310.97,-577.67 310.97,-571.67 316.97,-565.67 322.97,-565.67"/>
<text text-anchor="middle" x="346.47" y="-579.97" font-family="Arial" font-size="14.00">lcPlayers</text>
</g>
<!-- fig&#45;&gt;lcPlayers -->
<g id="edge33" class="edge">
<title>fig&#45;&gt;lcPlayers</title>
<path fill="none" stroke="#1f78b4" d="M369.98,-452.81C365.38,-478.41 356.98,-525.19 351.56,-555.32"/>
<polygon fill="#a6cee3" stroke="#1f78b4" points="348.11,-554.77 349.78,-565.23 355,-556 348.11,-554.77"/>
</g>
<!-- lcGraphics -->
<g id="node35" class="node">
<title>lcGraphics</title>
<path fill="#1afabc" stroke="black" d="M508.43,-524.25C508.43,-524.25 565.43,-524.25 565.43,-524.25 571.43,-524.25 577.43,-530.25 577.43,-536.25 577.43,-536.25 577.43,-548.25 577.43,-548.25 577.43,-554.25 571.43,-560.25 565.43,-560.25 565.43,-560.25 508.43,-560.25 508.43,-560.25 502.43,-560.25 496.43,-554.25 496.43,-548.25 496.43,-548.25 496.43,-536.25 496.43,-536.25 496.43,-530.25 502.43,-524.25 508.43,-524.25"/>
<text text-anchor="middle" x="536.93" y="-538.55" font-family="Arial" font-size="14.00">lcGraphics</text>
</g>
<!-- fig&#45;&gt;lcGraphics -->
<g id="edge34" class="edge">
<title>fig&#45;&gt;lcGraphics</title>
<path fill="none" stroke="#1f78b4" d="M400.29,-452.31C427.73,-470.37 470.37,-498.44 500.71,-518.41"/>
<polygon fill="#a6cee3" stroke="#1f78b4" points="499.04,-521.5 509.31,-524.07 502.89,-515.65 499.04,-521.5"/>
</g>
<!-- lcViewers -->
<g id="node36" class="node">
<title>lcViewers</title>
<path fill="#1afabc" stroke="black" d="M197.35,-353.39C197.35,-353.39 247.35,-353.39 247.35,-353.39 253.35,-353.39 259.35,-359.39 259.35,-365.39 259.35,-365.39 259.35,-377.39 259.35,-377.39 259.35,-383.39 253.35,-389.39 247.35,-389.39 247.35,-389.39 197.35,-389.39 197.35,-389.39 191.35,-389.39 185.35,-383.39 185.35,-377.39 185.35,-377.39 185.35,-365.39 185.35,-365.39 185.35,-359.39 191.35,-353.39 197.35,-353.39"/>
<text text-anchor="middle" x="222.35" y="-367.69" font-family="Arial" font-size="14.00">lcViewers</text>
</g>
<!-- fig&#45;&gt;lcViewers -->
<g id="edge35" class="edge">
<title>fig&#45;&gt;lcViewers</title>
<path fill="none" stroke="#1f78b4" d="M345.94,-423.09C324.47,-414.11 294.08,-401.4 268.81,-390.83"/>
<polygon fill="#a6cee3" stroke="#1f78b4" points="269.99,-387.52 259.41,-386.89 267.28,-393.98 269.99,-387.52"/>
</g>
<!-- lcResolution -->
<g id="node37" class="node">
<title>lcResolution</title>
<path fill="#1afabc" stroke="black" d="M210.66,-254.68C210.66,-254.68 276.66,-254.68 276.66,-254.68 282.66,-254.68 288.66,-260.68 288.66,-266.68 288.66,-266.68 288.66,-278.68 288.66,-278.68 288.66,-284.68 282.66,-290.68 276.66,-290.68 276.66,-290.68 210.66,-290.68 210.66,-290.68 204.66,-290.68 198.66,-284.68 198.66,-278.68 198.66,-278.68 198.66,-266.68 198.66,-266.68 198.66,-260.68 204.66,-254.68 210.66,-254.68"/>
<text text-anchor="middle" x="243.66" y="-268.98" font-family="Arial" font-size="14.00">lcResolution</text>
</g>
<!-- fig&#45;&gt;lcResolution -->
<g id="edge36" class="edge">
<title>fig&#45;&gt;lcResolution</title>
<path fill="none" stroke="#1f78b4" d="M358.65,-416.27C335.71,-387.62 291.13,-331.95 264.72,-298.98"/>
<polygon fill="#a6cee3" stroke="#1f78b4" points="267.41,-296.73 258.42,-291.11 261.94,-301.11 267.41,-296.73"/>
</g>
<!-- lcFileSizeLimitations -->
<g id="node38" class="node">
<title>lcFileSizeLimitations</title>
<path fill="#1afabc" stroke="black" d="M535.83,-584.53C535.83,-584.53 651.83,-584.53 651.83,-584.53 657.83,-584.53 663.83,-590.53 663.83,-596.53 663.83,-596.53 663.83,-608.53 663.83,-608.53 663.83,-614.53 657.83,-620.53 651.83,-620.53 651.83,-620.53 535.83,-620.53 535.83,-620.53 529.83,-620.53 523.83,-614.53 523.83,-608.53 523.83,-608.53 523.83,-596.53 523.83,-596.53 523.83,-590.53 529.83,-584.53 535.83,-584.53"/>
<text text-anchor="middle" x="593.83" y="-598.83" font-family="Arial" font-size="14.00">lcFileSizeLimitations</text>
</g>
<!-- fig&#45;&gt;lcFileSizeLimitations -->
<g id="edge37" class="edge">
<title>fig&#45;&gt;lcFileSizeLimitations</title>
<path fill="none" stroke="#1f78b4" d="M397.29,-452.82C437.25,-483.26 517.4,-544.31 562.01,-578.29"/>
<polygon fill="#a6cee3" stroke="#1f78b4" points="560.09,-581.23 570.17,-584.51 564.34,-575.66 560.09,-581.23"/>
</g>
<!-- lcDownloadTime -->
<g id="node39" class="node">
<title>lcDownloadTime</title>
<path fill="#1afabc" stroke="black" d="M11.88,-403.82C11.88,-403.82 104.88,-403.82 104.88,-403.82 110.88,-403.82 116.88,-409.82 116.88,-415.82 116.88,-415.82 116.88,-427.82 116.88,-427.82 116.88,-433.82 110.88,-439.82 104.88,-439.82 104.88,-439.82 11.88,-439.82 11.88,-439.82 5.88,-439.82 -0.12,-433.82 -0.12,-427.82 -0.12,-427.82 -0.12,-415.82 -0.12,-415.82 -0.12,-409.82 5.88,-403.82 11.88,-403.82"/>
<text text-anchor="middle" x="58.38" y="-418.12" font-family="Arial" font-size="14.00">lcDownloadTime</text>
</g>
<!-- fig&#45;&gt;lcDownloadTime -->
<g id="edge38" class="edge">
<title>fig&#45;&gt;lcDownloadTime</title>
<path fill="none" stroke="#1f78b4" d="M346.15,-433.43C297.97,-431.48 196.1,-427.37 127.42,-424.6"/>
<polygon fill="#a6cee3" stroke="#1f78b4" points="127.25,-421.09 117.12,-424.19 126.97,-428.09 127.25,-421.09"/>
</g>
<!-- lcSecurity -->
<g id="node40" class="node">
<title>lcSecurity</title>
<path fill="#1afabc" stroke="black" d="M185.37,-299.72C185.37,-299.72 236.37,-299.72 236.37,-299.72 242.37,-299.72 248.37,-305.72 248.37,-311.72 248.37,-311.72 248.37,-323.72 248.37,-323.72 248.37,-329.72 242.37,-335.72 236.37,-335.72 236.37,-335.72 185.37,-335.72 185.37,-335.72 179.37,-335.72 173.37,-329.72 173.37,-323.72 173.37,-323.72 173.37,-311.72 173.37,-311.72 173.37,-305.72 179.37,-299.72 185.37,-299.72"/>
<text text-anchor="middle" x="210.87" y="-314.02" font-family="Arial" font-size="14.00">lcSecurity</text>
</g>
<!-- fig&#45;&gt;lcSecurity -->
<g id="edge39" class="edge">
<title>fig&#45;&gt;lcSecurity</title>
<path fill="none" stroke="#1f78b4" d="M347.89,-416.27C320.01,-396.21 275.09,-363.91 244.34,-341.79"/>
<polygon fill="#a6cee3" stroke="#1f78b4" points="246.23,-338.84 236.06,-335.84 242.14,-344.52 246.23,-338.84"/>
</g>
<!-- lcGeneralDescription -->
<g id="node42" class="node">
<title>lcGeneralDescription</title>
<path fill="#1afabc" stroke="black" d="M876.56,-228.97C876.56,-228.97 995.56,-228.97 995.56,-228.97 1001.56,-228.97 1007.56,-234.97 1007.56,-240.97 1007.56,-240.97 1007.56,-252.97 1007.56,-252.97 1007.56,-258.97 1001.56,-264.97 995.56,-264.97 995.56,-264.97 876.56,-264.97 876.56,-264.97 870.56,-264.97 864.56,-258.97 864.56,-252.97 864.56,-252.97 864.56,-240.97 864.56,-240.97 864.56,-234.97 870.56,-228.97 876.56,-228.97"/>
<text text-anchor="middle" x="936.06" y="-243.27" font-family="Arial" font-size="14.00">lcGeneralDescription</text>
</g>
<!-- p&#45;&gt;lcGeneralDescription -->
<g id="edge41" class="edge">
<title>p&#45;&gt;lcGeneralDescription</title>
<path fill="none" stroke="#1f78b4" d="M689.72,-244.8C727.69,-245.13 798.19,-245.75 854.07,-246.25"/>
<polygon fill="#a6cee3" stroke="#1f78b4" points="854.29,-249.75 864.32,-246.34 854.36,-242.75 854.29,-249.75"/>
</g>
<!-- lcGoals -->
<g id="node43" class="node">
<title>lcGoals</title>
<path fill="#1afabc" stroke="black" d="M598.28,-121.23C598.28,-121.23 636.28,-121.23 636.28,-121.23 642.28,-121.23 648.28,-127.23 648.28,-133.23 648.28,-133.23 648.28,-145.23 648.28,-145.23 648.28,-151.23 642.28,-157.23 636.28,-157.23 636.28,-157.23 598.28,-157.23 598.28,-157.23 592.28,-157.23 586.28,-151.23 586.28,-145.23 586.28,-145.23 586.28,-133.23 586.28,-133.23 586.28,-127.23 592.28,-121.23 598.28,-121.23"/>
<text text-anchor="middle" x="617.28" y="-135.53" font-family="Arial" font-size="14.00">lcGoals</text>
</g>
<!-- p&#45;&gt;lcGoals -->
<g id="edge42" class="edge">
<title>p&#45;&gt;lcGoals</title>
<path fill="none" stroke="#1f78b4" d="M654.61,-226.21C647.54,-209.75 637.08,-185.36 629.03,-166.6"/>
<polygon fill="#a6cee3" stroke="#1f78b4" points="632.22,-165.17 625.06,-157.37 625.79,-167.94 632.22,-165.17"/>
</g>
<!-- lcNeeds -->
<g id="node44" class="node">
<title>lcNeeds</title>
<path fill="#1afabc" stroke="black" d="M552.29,-226.18C552.29,-226.18 593.29,-226.18 593.29,-226.18 599.29,-226.18 605.29,-232.18 605.29,-238.18 605.29,-238.18 605.29,-250.18 605.29,-250.18 605.29,-256.18 599.29,-262.18 593.29,-262.18 593.29,-262.18 552.29,-262.18 552.29,-262.18 546.29,-262.18 540.29,-256.18 540.29,-250.18 540.29,-250.18 540.29,-238.18 540.29,-238.18 540.29,-232.18 546.29,-226.18 552.29,-226.18"/>
<text text-anchor="middle" x="572.79" y="-240.48" font-family="Arial" font-size="14.00">lcNeeds</text>
</g>
<!-- p&#45;&gt;lcNeeds -->
<g id="edge43" class="edge">
<title>p&#45;&gt;lcNeeds</title>
<path fill="none" stroke="#1f78b4" d="M635.09,-244.44C628.93,-244.42 622.26,-244.39 615.65,-244.36"/>
<polygon fill="#a6cee3" stroke="#1f78b4" points="615.4,-240.86 605.38,-244.32 615.37,-247.86 615.4,-240.86"/>
</g>
<!-- lcValues -->
<g id="node45" class="node">
<title>lcValues</title>
<path fill="#1afabc" stroke="black" d="M739.77,-156.76C739.77,-156.76 782.77,-156.76 782.77,-156.76 788.77,-156.76 794.77,-162.76 794.77,-168.76 794.77,-168.76 794.77,-180.76 794.77,-180.76 794.77,-186.76 788.77,-192.76 782.77,-192.76 782.77,-192.76 739.77,-192.76 739.77,-192.76 733.77,-192.76 727.77,-186.76 727.77,-180.76 727.77,-180.76 727.77,-168.76 727.77,-168.76 727.77,-162.76 733.77,-156.76 739.77,-156.76"/>
<text text-anchor="middle" x="761.27" y="-171.06" font-family="Arial" font-size="14.00">lcValues</text>
</g>
<!-- p&#45;&gt;lcValues -->
<g id="edge44" class="edge">
<title>p&#45;&gt;lcValues</title>
<path fill="none" stroke="#1f78b4" d="M688.18,-226.41C700.19,-217.92 714.64,-207.71 727.51,-198.62"/>
<polygon fill="#a6cee3" stroke="#1f78b4" points="729.55,-201.46 735.7,-192.83 725.51,-195.74 729.55,-201.46"/>
</g>
<!-- lcOrgConstraints -->
<g id="node46" class="node">
<title>lcOrgConstraints</title>
<path fill="#1afabc" stroke="black" d="M668.98,-310.49C668.98,-310.49 762.98,-310.49 762.98,-310.49 768.98,-310.49 774.98,-316.49 774.98,-322.49 774.98,-322.49 774.98,-334.49 774.98,-334.49 774.98,-340.49 768.98,-346.49 762.98,-346.49 762.98,-346.49 668.98,-346.49 668.98,-346.49 662.98,-346.49 656.98,-340.49 656.98,-334.49 656.98,-334.49 656.98,-322.49 656.98,-322.49 656.98,-316.49 662.98,-310.49 668.98,-310.49"/>
<text text-anchor="middle" x="715.98" y="-324.79" font-family="Arial" font-size="14.00">lcOrgConstraints</text>
</g>
<!-- p&#45;&gt;lcOrgConstraints -->
<g id="edge45" class="edge">
<title>p&#45;&gt;lcOrgConstraints</title>
<path fill="none" stroke="#1f78b4" d="M674.09,-262.77C681.31,-274.1 690.73,-288.87 698.8,-301.54"/>
<polygon fill="#a6cee3" stroke="#1f78b4" points="696.07,-303.77 704.4,-310.32 701.97,-300 696.07,-303.77"/>
</g>
<!-- lcEdLevel -->
<g id="node47" class="node">
<title>lcEdLevel</title>
<path fill="#1afabc" stroke="black" d="M523.4,-166.24C523.4,-166.24 574.4,-166.24 574.4,-166.24 580.4,-166.24 586.4,-172.24 586.4,-178.24 586.4,-178.24 586.4,-190.24 586.4,-190.24 586.4,-196.24 580.4,-202.24 574.4,-202.24 574.4,-202.24 523.4,-202.24 523.4,-202.24 517.4,-202.24 511.4,-196.24 511.4,-190.24 511.4,-190.24 511.4,-178.24 511.4,-178.24 511.4,-172.24 517.4,-166.24 523.4,-166.24"/>
<text text-anchor="middle" x="548.9" y="-180.54" font-family="Arial" font-size="14.00">lcEdLevel</text>
</g>
<!-- p&#45;&gt;lcEdLevel -->
<g id="edge46" class="edge">
<title>p&#45;&gt;lcEdLevel</title>
<path fill="none" stroke="#1f78b4" d="M635.28,-230.11C622.23,-223.19 606.3,-214.72 591.68,-206.96"/>
<polygon fill="#a6cee3" stroke="#1f78b4" points="593.27,-203.84 582.79,-202.24 589.98,-210.02 593.27,-203.84"/>
</g>
<!-- lcAge -->
<g id="node48" class="node">
<title>lcAge</title>
<path fill="#1afabc" stroke="black" d="M586.79,-295.58C586.79,-295.58 616.79,-295.58 616.79,-295.58 622.79,-295.58 628.79,-301.58 628.79,-307.58 628.79,-307.58 628.79,-319.58 628.79,-319.58 628.79,-325.58 622.79,-331.58 616.79,-331.58 616.79,-331.58 586.79,-331.58 586.79,-331.58 580.79,-331.58 574.79,-325.58 574.79,-319.58 574.79,-319.58 574.79,-307.58 574.79,-307.58 574.79,-301.58 580.79,-295.58 586.79,-295.58"/>
<text text-anchor="middle" x="601.79" y="-309.88" font-family="Arial" font-size="14.00">lcAge</text>
</g>
<!-- p&#45;&gt;lcAge -->
<g id="edge47" class="edge">
<title>p&#45;&gt;lcAge</title>
<path fill="none" stroke="#1f78b4" d="M646.54,-262.7C639.83,-270.32 631.9,-279.34 624.59,-287.65"/>
<polygon fill="#a6cee3" stroke="#1f78b4" points="621.81,-285.51 617.84,-295.33 627.07,-290.13 621.81,-285.51"/>
</g>
<!-- lcBackground -->
<g id="node49" class="node">
<title>lcBackground</title>
<path fill="#1afabc" stroke="black" d="M794.99,-319.07C794.99,-319.07 868.99,-319.07 868.99,-319.07 874.99,-319.07 880.99,-325.07 880.99,-331.07 880.99,-331.07 880.99,-343.07 880.99,-343.07 880.99,-349.07 874.99,-355.07 868.99,-355.07 868.99,-355.07 794.99,-355.07 794.99,-355.07 788.99,-355.07 782.99,-349.07 782.99,-343.07 782.99,-343.07 782.99,-331.07 782.99,-331.07 782.99,-325.07 788.99,-319.07 794.99,-319.07"/>
<text text-anchor="middle" x="831.99" y="-333.37" font-family="Arial" font-size="14.00">lcBackground</text>
</g>
<!-- p&#45;&gt;lcBackground -->
<g id="edge48" class="edge">
<title>p&#45;&gt;lcBackground</title>
<path fill="none" stroke="#1f78b4" d="M689.72,-259.42C716.72,-274.16 758.47,-296.94 789.77,-314.03"/>
<polygon fill="#a6cee3" stroke="#1f78b4" points="788.25,-317.19 798.71,-318.91 791.61,-311.04 788.25,-317.19"/>
</g>
<!-- lcSkills -->
<g id="node50" class="node">
<title>lcSkills</title>
<path fill="#1afabc" stroke="black" d="M668.31,-113.67C668.31,-113.67 702.31,-113.67 702.31,-113.67 708.31,-113.67 714.31,-119.67 714.31,-125.67 714.31,-125.67 714.31,-137.67 714.31,-137.67 714.31,-143.67 708.31,-149.67 702.31,-149.67 702.31,-149.67 668.31,-149.67 668.31,-149.67 662.31,-149.67 656.31,-143.67 656.31,-137.67 656.31,-137.67 656.31,-125.67 656.31,-125.67 656.31,-119.67 662.31,-113.67 668.31,-113.67"/>
<text text-anchor="middle" x="685.31" y="-127.97" font-family="Arial" font-size="14.00">lcSkills</text>
</g>
<!-- p&#45;&gt;lcSkills -->
<g id="edge49" class="edge">
<title>p&#45;&gt;lcSkills</title>
<path fill="none" stroke="#1f78b4" d="M666.15,-226.42C669.79,-208.4 675.43,-180.51 679.65,-159.65"/>
<polygon fill="#a6cee3" stroke="#1f78b4" points="683.1,-160.26 681.65,-149.76 676.24,-158.87 683.1,-160.26"/>
</g>
<!-- lcKnowledge -->
<g id="node51" class="node">
<title>lcKnowledge</title>
<path fill="#1afabc" stroke="black" d="M827.47,-135.93C827.47,-135.93 896.47,-135.93 896.47,-135.93 902.47,-135.93 908.47,-141.93 908.47,-147.93 908.47,-147.93 908.47,-159.93 908.47,-159.93 908.47,-165.93 902.47,-171.93 896.47,-171.93 896.47,-171.93 827.47,-171.93 827.47,-171.93 821.47,-171.93 815.47,-165.93 815.47,-159.93 815.47,-159.93 815.47,-147.93 815.47,-147.93 815.47,-141.93 821.47,-135.93 827.47,-135.93"/>
<text text-anchor="middle" x="861.97" y="-150.23" font-family="Arial" font-size="14.00">lcKnowledge</text>
</g>
<!-- p&#45;&gt;lcKnowledge -->
<g id="edge50" class="edge">
<title>p&#45;&gt;lcKnowledge</title>
<path fill="none" stroke="#1f78b4" d="M689.8,-232.15C721.38,-217.8 773.97,-193.91 812.73,-176.3"/>
<polygon fill="#a6cee3" stroke="#1f78b4" points="814.61,-179.29 822.27,-171.97 811.72,-172.92 814.61,-179.29"/>
</g>
<!-- lcMotivation -->
<g id="node52" class="node">
<title>lcMotivation</title>
<path fill="#1afabc" stroke="black" d="M680.81,-398.64C680.81,-398.64 745.81,-398.64 745.81,-398.64 751.81,-398.64 757.81,-404.64 757.81,-410.64 757.81,-410.64 757.81,-422.64 757.81,-422.64 757.81,-428.64 751.81,-434.64 745.81,-434.64 745.81,-434.64 680.81,-434.64 680.81,-434.64 674.81,-434.64 668.81,-428.64 668.81,-422.64 668.81,-422.64 668.81,-410.64 668.81,-410.64 668.81,-404.64 674.81,-398.64 680.81,-398.64"/>
<text text-anchor="middle" x="713.31" y="-412.94" font-family="Arial" font-size="14.00">lcMotivation</text>
</g>
<!-- p&#45;&gt;lcMotivation -->
<g id="edge51" class="edge">
<title>p&#45;&gt;lcMotivation</title>
<path fill="none" stroke="#1f78b4" d="M667.83,-262.65C676.71,-292.73 694.58,-353.23 705.08,-388.79"/>
<polygon fill="#a6cee3" stroke="#1f78b4" points="701.77,-389.94 707.96,-398.54 708.48,-387.95 701.77,-389.94"/>
</g>
<!-- lcSpecChars -->
<g id="node53" class="node">
<title>lcSpecChars</title>
<path fill="#1afabc" stroke="black" d="M794.94,-90.81C794.94,-90.81 863.94,-90.81 863.94,-90.81 869.94,-90.81 875.94,-96.81 875.94,-102.81 875.94,-102.81 875.94,-114.81 875.94,-114.81 875.94,-120.81 869.94,-126.81 863.94,-126.81 863.94,-126.81 794.94,-126.81 794.94,-126.81 788.94,-126.81 782.94,-120.81 782.94,-114.81 782.94,-114.81 782.94,-102.81 782.94,-102.81 782.94,-96.81 788.94,-90.81 794.94,-90.81"/>
<text text-anchor="middle" x="829.44" y="-105.11" font-family="Arial" font-size="14.00">lcSpecChars</text>
</g>
<!-- p&#45;&gt;lcSpecChars -->
<g id="edge52" class="edge">
<title>p&#45;&gt;lcSpecChars</title>
<path fill="none" stroke="#1f78b4" d="M684.65,-226.53C714.09,-202.6 766.2,-160.23 799.22,-133.38"/>
<polygon fill="#a6cee3" stroke="#1f78b4" points="801.62,-135.94 807.17,-126.91 797.21,-130.5 801.62,-135.94"/>
</g>
<!-- lcWorkEnvDescription -->
<g id="node54" class="node">
<title>lcWorkEnvDescription</title>
<path fill="#1afabc" stroke="black" d="M888.01,-273.98C888.01,-273.98 1013.01,-273.98 1013.01,-273.98 1019.01,-273.98 1025.01,-279.98 1025.01,-285.98 1025.01,-285.98 1025.01,-297.98 1025.01,-297.98 1025.01,-303.98 1019.01,-309.98 1013.01,-309.98 1013.01,-309.98 888.01,-309.98 888.01,-309.98 882.01,-309.98 876.01,-303.98 876.01,-297.98 876.01,-297.98 876.01,-285.98 876.01,-285.98 876.01,-279.98 882.01,-273.98 888.01,-273.98"/>
<text text-anchor="middle" x="950.51" y="-288.28" font-family="Arial" font-size="14.00">lcWorkEnvDescription</text>
</g>
<!-- p&#45;&gt;lcWorkEnvDescription -->
<g id="edge53" class="edge">
<title>p&#45;&gt;lcWorkEnvDescription</title>
<path fill="none" stroke="#1f78b4" d="M689.58,-249.02C729.49,-255.59 805.83,-268.16 865.66,-278.01"/>
<polygon fill="#a6cee3" stroke="#1f78b4" points="865.44,-281.52 875.87,-279.69 866.57,-274.61 865.44,-281.52"/>
</g>
<!-- lcPlanResources -->
<g id="node55" class="node">
<title>lcPlanResources</title>
<path fill="#1afabc" stroke="black" d="M472.12,-91.22C472.12,-91.22 566.12,-91.22 566.12,-91.22 572.12,-91.22 578.12,-97.22 578.12,-103.22 578.12,-103.22 578.12,-115.22 578.12,-115.22 578.12,-121.22 572.12,-127.22 566.12,-127.22 566.12,-127.22 472.12,-127.22 472.12,-127.22 466.12,-127.22 460.12,-121.22 460.12,-115.22 460.12,-115.22 460.12,-103.22 460.12,-103.22 460.12,-97.22 466.12,-91.22 472.12,-91.22"/>
<text text-anchor="middle" x="519.12" y="-105.52" font-family="Arial" font-size="14.00">lcPlanResources</text>
</g>
<!-- p&#45;&gt;lcPlanResources -->
<g id="edge54" class="edge">
<title>p&#45;&gt;lcPlanResources</title>
<path fill="none" stroke="#1f78b4" d="M643.15,-226.31C618.14,-202.7 574.43,-161.44 546.15,-134.74"/>
<polygon fill="#a6cee3" stroke="#1f78b4" points="548.28,-131.94 538.61,-127.62 543.48,-137.03 548.28,-131.94"/>
</g>
<!-- lcProcesses -->
<g id="node56" class="node">
<title>lcProcesses</title>
<path fill="#1afabc" stroke="black" d="M589.14,-46.18C589.14,-46.18 654.14,-46.18 654.14,-46.18 660.14,-46.18 666.14,-52.18 666.14,-58.18 666.14,-58.18 666.14,-70.18 666.14,-70.18 666.14,-76.18 660.14,-82.18 654.14,-82.18 654.14,-82.18 589.14,-82.18 589.14,-82.18 583.14,-82.18 577.14,-76.18 577.14,-70.18 577.14,-70.18 577.14,-58.18 577.14,-58.18 577.14,-52.18 583.14,-46.18 589.14,-46.18"/>
<text text-anchor="middle" x="621.64" y="-60.48" font-family="Arial" font-size="14.00">lcProcesses</text>
</g>
<!-- p&#45;&gt;lcProcesses -->
<g id="edge55" class="edge">
<title>p&#45;&gt;lcProcesses</title>
<path fill="none" stroke="#1f78b4" d="M658.34,-226.27C651.2,-194.73 636.52,-129.87 628.05,-92.47"/>
<polygon fill="#a6cee3" stroke="#1f78b4" points="631.36,-91.23 625.73,-82.25 624.53,-92.78 631.36,-91.23"/>
</g>
<!-- lcTaskItem -->
<g id="node57" class="node">
<title>lcTaskItem</title>
<path fill="#1afabc" stroke="black" d="M786.72,-259.79C786.72,-259.79 843.72,-259.79 843.72,-259.79 849.72,-259.79 855.72,-265.79 855.72,-271.79 855.72,-271.79 855.72,-283.79 855.72,-283.79 855.72,-289.79 849.72,-295.79 843.72,-295.79 843.72,-295.79 786.72,-295.79 786.72,-295.79 780.72,-295.79 774.72,-289.79 774.72,-283.79 774.72,-283.79 774.72,-271.79 774.72,-271.79 774.72,-265.79 780.72,-259.79 786.72,-259.79"/>
<text text-anchor="middle" x="815.22" y="-274.09" font-family="Arial" font-size="14.00">lcTaskItem</text>
</g>
<!-- p&#45;&gt;lcTaskItem -->
<g id="edge56" class="edge">
<title>p&#45;&gt;lcTaskItem</title>
<path fill="none" stroke="#1f78b4" d="M689.79,-250.5C710.53,-255.01 739.64,-261.35 764.6,-266.78"/>
<polygon fill="#a6cee3" stroke="#1f78b4" points="764.13,-270.26 774.64,-268.96 765.61,-263.42 764.13,-270.26"/>
</g>
<!-- lcAttitude -->
<g id="node58" class="node">
<title>lcAttitude</title>
<path fill="#1afabc" stroke="black" d="M782.02,-214.74C782.02,-214.74 830.02,-214.74 830.02,-214.74 836.02,-214.74 842.02,-220.74 842.02,-226.74 842.02,-226.74 842.02,-238.74 842.02,-238.74 842.02,-244.74 836.02,-250.74 830.02,-250.74 830.02,-250.74 782.02,-250.74 782.02,-250.74 776.02,-250.74 770.02,-244.74 770.02,-238.74 770.02,-238.74 770.02,-226.74 770.02,-226.74 770.02,-220.74 776.02,-214.74 782.02,-214.74"/>
<text text-anchor="middle" x="806.02" y="-229.04" font-family="Arial" font-size="14.00">lcAttitude</text>
</g>
<!-- p&#45;&gt;lcAttitude -->
<g id="edge57" class="edge">
<title>p&#45;&gt;lcAttitude</title>
<path fill="none" stroke="#1f78b4" d="M689.82,-242.31C709.5,-240.69 736.53,-238.46 759.57,-236.57"/>
<polygon fill="#a6cee3" stroke="#1f78b4" points="760.15,-240.03 769.83,-235.72 759.58,-233.05 760.15,-240.03"/>
</g>
<!-- lcPlanObjective -->
<g id="node59" class="node">
<title>lcPlanObjective</title>
<path fill="#1afabc" stroke="black" d="M646.15,-0.3C646.15,-0.3 732.15,-0.3 732.15,-0.3 738.15,-0.3 744.15,-6.3 744.15,-12.3 744.15,-12.3 744.15,-24.3 744.15,-24.3 744.15,-30.3 738.15,-36.3 732.15,-36.3 732.15,-36.3 646.15,-36.3 646.15,-36.3 640.15,-36.3 634.15,-30.3 634.15,-24.3 634.15,-24.3 634.15,-12.3 634.15,-12.3 634.15,-6.3 640.15,-0.3 646.15,-0.3"/>
<text text-anchor="middle" x="689.15" y="-14.6" font-family="Arial" font-size="14.00">lcPlanObjective</text>
</g>
<!-- p&#45;&gt;lcPlanObjective -->
<g id="edge58" class="edge">
<title>p&#45;&gt;lcPlanObjective</title>
<path fill="none" stroke="#1f78b4" d="M664.62,-226.43C669.25,-187.12 680.25,-93.83 685.81,-46.66"/>
<polygon fill="#a6cee3" stroke="#1f78b4" points="689.31,-46.86 687.01,-36.52 682.36,-46.05 689.31,-46.86"/>
</g>
<!-- lcJtaItem -->
<g id="node60" class="node">
<title>lcJtaItem</title>
<path fill="#1afabc" stroke="black" d="M589.91,-351.46C589.91,-351.46 636.91,-351.46 636.91,-351.46 642.91,-351.46 648.91,-357.46 648.91,-363.46 648.91,-363.46 648.91,-375.46 648.91,-375.46 648.91,-381.46 642.91,-387.46 636.91,-387.46 636.91,-387.46 589.91,-387.46 589.91,-387.46 583.91,-387.46 577.91,-381.46 577.91,-375.46 577.91,-375.46 577.91,-363.46 577.91,-363.46 577.91,-357.46 583.91,-351.46 589.91,-351.46"/>
<text text-anchor="middle" x="613.41" y="-365.76" font-family="Arial" font-size="14.00">lcJtaItem</text>
</g>
<!-- p&#45;&gt;lcJtaItem -->
<g id="edge59" class="edge">
<title>p&#45;&gt;lcJtaItem</title>
<path fill="none" stroke="#1f78b4" d="M655.35,-262.72C647.17,-283.53 633.68,-317.87 624.22,-341.96"/>
<polygon fill="#a6cee3" stroke="#1f78b4" points="620.96,-340.69 620.56,-351.27 627.47,-343.24 620.96,-340.69"/>
</g>
<!-- lcGapItemDelta -->
<g id="node61" class="node">
<title>lcGapItemDelta</title>
<path fill="#1afabc" stroke="black" d="M867.54,-180.99C867.54,-180.99 954.54,-180.99 954.54,-180.99 960.54,-180.99 966.54,-186.99 966.54,-192.99 966.54,-192.99 966.54,-204.99 966.54,-204.99 966.54,-210.99 960.54,-216.99 954.54,-216.99 954.54,-216.99 867.54,-216.99 867.54,-216.99 861.54,-216.99 855.54,-210.99 855.54,-204.99 855.54,-204.99 855.54,-192.99 855.54,-192.99 855.54,-186.99 861.54,-180.99 867.54,-180.99"/>
<text text-anchor="middle" x="911.04" y="-195.29" font-family="Arial" font-size="14.00">lcGapItemDelta</text>
</g>
<!-- p&#45;&gt;lcGapItemDelta -->
<g id="edge60" class="edge">
<title>p&#45;&gt;lcGapItemDelta</title>
<path fill="none" stroke="#1f78b4" d="M689.56,-239.6C726.71,-232.78 794.69,-220.32 845.57,-210.99"/>
<polygon fill="#a6cee3" stroke="#1f78b4" points="846.3,-214.42 855.5,-209.17 845.04,-207.53 846.3,-214.42"/>
</g>
<!-- lcLearnStrat -->
<g id="node62" class="node">
<title>lcLearnStrat</title>
<path fill="#1afabc" stroke="black" d="M779.8,-367.86C779.8,-367.86 844.8,-367.86 844.8,-367.86 850.8,-367.86 856.8,-373.86 856.8,-379.86 856.8,-379.86 856.8,-391.86 856.8,-391.86 856.8,-397.86 850.8,-403.86 844.8,-403.86 844.8,-403.86 779.8,-403.86 779.8,-403.86 773.8,-403.86 767.8,-397.86 767.8,-391.86 767.8,-391.86 767.8,-379.86 767.8,-379.86 767.8,-373.86 773.8,-367.86 779.8,-367.86"/>
<text text-anchor="middle" x="812.3" y="-382.16" font-family="Arial" font-size="14.00">lcLearnStrat</text>
</g>
<!-- p&#45;&gt;lcLearnStrat -->
<g id="edge61" class="edge">
<title>p&#45;&gt;lcLearnStrat</title>
<path fill="none" stroke="#1f78b4" d="M681.76,-262.74C708.17,-287.65 755.7,-332.48 785.54,-360.62"/>
<polygon fill="#a6cee3" stroke="#1f78b4" points="783.41,-363.43 793.09,-367.74 788.22,-358.34 783.41,-363.43"/>
</g>
<!-- lcAssessment -->
<g id="node63" class="node">
<title>lcAssessment</title>
<path fill="#1afabc" stroke="black" d="M720.72,-45.59C720.72,-45.59 797.72,-45.59 797.72,-45.59 803.72,-45.59 809.72,-51.59 809.72,-57.59 809.72,-57.59 809.72,-69.59 809.72,-69.59 809.72,-75.59 803.72,-81.59 797.72,-81.59 797.72,-81.59 720.72,-81.59 720.72,-81.59 714.72,-81.59 708.72,-75.59 708.72,-69.59 708.72,-69.59 708.72,-57.59 708.72,-57.59 708.72,-51.59 714.72,-45.59 720.72,-45.59"/>
<text text-anchor="middle" x="759.22" y="-59.89" font-family="Arial" font-size="14.00">lcAssessment</text>
</g>
<!-- p&#45;&gt;lcAssessment -->
<g id="edge62" class="edge">
<title>p&#45;&gt;lcAssessment</title>
<path fill="none" stroke="#1f78b4" d="M672.11,-226.55C689.16,-194.65 724.74,-128.09 744.75,-90.65"/>
<polygon fill="#a6cee3" stroke="#1f78b4" points="747.86,-92.27 749.48,-81.8 741.68,-88.97 747.86,-92.27"/>
</g>
<!-- lcDelivery -->
<g id="node64" class="node">
<title>lcDelivery</title>
<path fill="#1afabc" stroke="black" d="M498.6,-359.34C498.6,-359.34 549.6,-359.34 549.6,-359.34 555.6,-359.34 561.6,-365.34 561.6,-371.34 561.6,-371.34 561.6,-383.34 561.6,-383.34 561.6,-389.34 555.6,-395.34 549.6,-395.34 549.6,-395.34 498.6,-395.34 498.6,-395.34 492.6,-395.34 486.6,-389.34 486.6,-383.34 486.6,-383.34 486.6,-371.34 486.6,-371.34 486.6,-365.34 492.6,-359.34 498.6,-359.34"/>
<text text-anchor="middle" x="524.1" y="-373.64" font-family="Arial" font-size="14.00">lcDelivery</text>
</g>
<!-- p&#45;&gt;lcDelivery -->
<g id="edge63" class="edge">
<title>p&#45;&gt;lcDelivery</title>
<path fill="none" stroke="#1f78b4" d="M643.53,-262.74C619.45,-285.86 577.73,-325.88 550.53,-351.98"/>
<polygon fill="#a6cee3" stroke="#1f78b4" points="548.06,-349.5 543.27,-358.95 552.91,-354.55 548.06,-349.5"/>
</g>
</g>
</svg>
