<?xml version="1.0" encoding="UTF-8" standalone="no"?>
<!-- Generated by graphviz version 6.0.1 (20220911.1526)
 -->
<!-- Pages: 1 -->
<svg width="364pt" height="266pt"
 viewBox="0.00 0.00 364.00 266.00" xmlns="http://www.w3.org/2000/svg" xmlns:xlink="http://www.w3.org/1999/xlink">
<g id="graph0" class="graph" transform="scale(1 1) rotate(0) translate(4 262)">
<polygon fill="white" stroke="none" points="-4,4 -4,-262 360,-262 360,4 -4,4"/>
<!-- learningAssessmentModule -->
<g id="node1" class="node">
<title>learningAssessmentModule</title>
<path fill="#dddddd" stroke="black" d="M12.46,-95.39C12.46,-95.39 172.46,-95.39 172.46,-95.39 178.46,-95.39 184.46,-101.39 184.46,-107.39 184.46,-107.39 184.46,-119.39 184.46,-119.39 184.46,-125.39 178.46,-131.39 172.46,-131.39 172.46,-131.39 12.46,-131.39 12.46,-131.39 6.46,-131.39 0.46,-125.39 0.46,-119.39 0.46,-119.39 0.46,-107.39 0.46,-107.39 0.46,-101.39 6.46,-95.39 12.46,-95.39"/>
<text text-anchor="middle" x="92.46" y="-109.69" font-family="Arial" font-size="14.00">learningAssessmentModule</text>
</g>
<!-- learningBase -->
<g id="node2" class="node">
<title>learningBase</title>
<path fill="#afa7f4" stroke="black" d="M194.02,-49.57C194.02,-49.57 265.02,-49.57 265.02,-49.57 271.02,-49.57 277.02,-55.57 277.02,-61.57 277.02,-61.57 277.02,-73.57 277.02,-73.57 277.02,-79.57 271.02,-85.57 265.02,-85.57 265.02,-85.57 194.02,-85.57 194.02,-85.57 188.02,-85.57 182.02,-79.57 182.02,-73.57 182.02,-73.57 182.02,-61.57 182.02,-61.57 182.02,-55.57 188.02,-49.57 194.02,-49.57"/>
<text text-anchor="middle" x="229.52" y="-63.87" font-family="Arial" font-size="14.00">learningBase</text>
</g>
<!-- learningAssessmentModule&#45;&gt;learningBase -->
<g id="edge1" class="edge">
<title>learningAssessmentModule&#45;&gt;learningBase</title>
<path fill="none" stroke="#1f78b4" d="M146.63,-95.28C155.11,-92.44 163.9,-89.51 172.44,-86.65"/>
<polygon fill="#a6cee3" stroke="#1f78b4" points="173.58,-89.96 181.96,-83.47 171.36,-83.32 173.58,-89.96"/>
</g>
<!-- learningBasebody -->
<g id="node4" class="node">
<title>learningBasebody</title>
<path fill="#afa7f4" stroke="black" d="M50.44,-143.16C50.44,-143.16 151.44,-143.16 151.44,-143.16 157.44,-143.16 163.44,-149.16 163.44,-155.16 163.44,-155.16 163.44,-167.16 163.44,-167.16 163.44,-173.16 157.44,-179.16 151.44,-179.16 151.44,-179.16 50.44,-179.16 50.44,-179.16 44.44,-179.16 38.44,-173.16 38.44,-167.16 38.44,-167.16 38.44,-155.16 38.44,-155.16 38.44,-149.16 44.44,-143.16 50.44,-143.16"/>
<text text-anchor="middle" x="100.94" y="-157.46" font-family="Arial" font-size="14.00">learningBasebody</text>
</g>
<!-- learningAssessmentModule&#45;&gt;learningBasebody -->
<g id="edge3" class="edge">
<title>learningAssessmentModule&#45;&gt;learningBasebody</title>
<path fill="none" stroke="#1f78b4" d="M95.66,-131.45C95.75,-131.92 95.83,-132.4 95.92,-132.88"/>
<polygon fill="#a6cee3" stroke="#1f78b4" points="92.53,-133.84 97.73,-143.07 99.42,-132.62 92.53,-133.84"/>
</g>
<!-- learningAssessment -->
<g id="node3" class="node">
<title>learningAssessment</title>
<path fill="#1afabc" stroke="black" d="M138.75,-0.15C138.75,-0.15 253.75,-0.15 253.75,-0.15 259.75,-0.15 265.75,-6.15 265.75,-12.15 265.75,-12.15 265.75,-24.15 265.75,-24.15 265.75,-30.15 259.75,-36.15 253.75,-36.15 253.75,-36.15 138.75,-36.15 138.75,-36.15 132.75,-36.15 126.75,-30.15 126.75,-24.15 126.75,-24.15 126.75,-12.15 126.75,-12.15 126.75,-6.15 132.75,-0.15 138.75,-0.15"/>
<text text-anchor="middle" x="196.25" y="-14.45" font-family="Arial" font-size="14.00">learningAssessment</text>
</g>
<!-- learningBase&#45;&gt;learningAssessment -->
<g id="edge2" class="edge">
<title>learningBase&#45;&gt;learningAssessment</title>
<path fill="none" stroke="#1f78b4" d="M217.32,-49.45C216.33,-47.97 215.31,-46.46 214.29,-44.94"/>
<polygon fill="#a6cee3" stroke="#1f78b4" points="216.94,-42.61 208.45,-36.27 211.13,-46.52 216.94,-42.61"/>
</g>
<!-- learningAssessmentbody -->
<g id="node5" class="node">
<title>learningAssessmentbody</title>
<path fill="#1afabc" stroke="black" d="M199.6,-221.72C199.6,-221.72 343.6,-221.72 343.6,-221.72 349.6,-221.72 355.6,-227.72 355.6,-233.72 355.6,-233.72 355.6,-245.72 355.6,-245.72 355.6,-251.72 349.6,-257.72 343.6,-257.72 343.6,-257.72 199.6,-257.72 199.6,-257.72 193.6,-257.72 187.6,-251.72 187.6,-245.72 187.6,-245.72 187.6,-233.72 187.6,-233.72 187.6,-227.72 193.6,-221.72 199.6,-221.72"/>
<text text-anchor="middle" x="271.6" y="-236.02" font-family="Arial" font-size="14.00">learningAssessmentbody</text>
</g>
<!-- learningBasebody&#45;&gt;learningAssessmentbody -->
<g id="edge4" class="edge">
<title>learningBasebody&#45;&gt;learningAssessmentbody</title>
<path fill="none" stroke="#1f78b4" d="M140.09,-179.18C164.72,-190.52 196.69,-205.24 222.94,-217.32"/>
<polygon fill="#a6cee3" stroke="#1f78b4" points="221.78,-220.64 232.33,-221.64 224.71,-214.28 221.78,-220.64"/>
</g>
</g>
</svg>
