<?xml version="1.0" encoding="UTF-8" standalone="no"?>
<!-- Generated by graphviz version 6.0.1 (20220911.1526)
 -->
<!-- Pages: 1 -->
<svg width="579pt" height="536pt"
 viewBox="0.00 0.00 579.00 536.00" xmlns="http://www.w3.org/2000/svg" xmlns:xlink="http://www.w3.org/1999/xlink">
<g id="graph0" class="graph" transform="scale(1 1) rotate(0) translate(4 532)">
<polygon fill="white" stroke="none" points="-4,4 -4,-532 575,-532 575,4 -4,4"/>
<!-- referenceModule -->
<g id="node1" class="node">
<title>referenceModule</title>
<path fill="#dddddd" stroke="black" d="M243.56,-234.47C243.56,-234.47 338.56,-234.47 338.56,-234.47 344.56,-234.47 350.56,-240.47 350.56,-246.47 350.56,-246.47 350.56,-258.47 350.56,-258.47 350.56,-264.47 344.56,-270.47 338.56,-270.47 338.56,-270.47 243.56,-270.47 243.56,-270.47 237.56,-270.47 231.56,-264.47 231.56,-258.47 231.56,-258.47 231.56,-246.47 231.56,-246.47 231.56,-240.47 237.56,-234.47 243.56,-234.47"/>
<text text-anchor="middle" x="291.06" y="-248.77" font-family="Arial" font-size="14.00">referenceModule</text>
</g>
<!-- topic -->
<g id="node2" class="node">
<title>topic</title>
<path fill="#afa7f4" stroke="black" d="M227.58,-102.23C227.58,-102.23 257.58,-102.23 257.58,-102.23 263.58,-102.23 269.58,-108.23 269.58,-114.23 269.58,-114.23 269.58,-126.23 269.58,-126.23 269.58,-132.23 263.58,-138.23 257.58,-138.23 257.58,-138.23 227.58,-138.23 227.58,-138.23 221.58,-138.23 215.58,-132.23 215.58,-126.23 215.58,-126.23 215.58,-114.23 215.58,-114.23 215.58,-108.23 221.58,-102.23 227.58,-102.23"/>
<text text-anchor="middle" x="242.58" y="-116.53" font-family="Arial" font-size="14.00">topic</text>
</g>
<!-- referenceModule&#45;&gt;topic -->
<g id="edge1" class="edge">
<title>referenceModule&#45;&gt;topic</title>
<path fill="none" stroke="#1f78b4" d="M284.42,-234.36C276.27,-212.13 262.36,-174.18 252.84,-148.19"/>
<polygon fill="#a6cee3" stroke="#1f78b4" points="256.03,-146.73 249.3,-138.54 249.45,-149.14 256.03,-146.73"/>
</g>
<!-- body -->
<g id="node4" class="node">
<title>body</title>
<path fill="#afa7f4" stroke="black" d="M172.76,-316.41C172.76,-316.41 202.76,-316.41 202.76,-316.41 208.76,-316.41 214.76,-322.41 214.76,-328.41 214.76,-328.41 214.76,-340.41 214.76,-340.41 214.76,-346.41 208.76,-352.41 202.76,-352.41 202.76,-352.41 172.76,-352.41 172.76,-352.41 166.76,-352.41 160.76,-346.41 160.76,-340.41 160.76,-340.41 160.76,-328.41 160.76,-328.41 160.76,-322.41 166.76,-316.41 172.76,-316.41"/>
<text text-anchor="middle" x="187.76" y="-330.71" font-family="Arial" font-size="14.00">body</text>
</g>
<!-- referenceModule&#45;&gt;body -->
<g id="edge3" class="edge">
<title>referenceModule&#45;&gt;body</title>
<path fill="none" stroke="#1f78b4" d="M268.14,-270.65C253.56,-282.22 234.51,-297.33 218.61,-309.94"/>
<polygon fill="#a6cee3" stroke="#1f78b4" points="216.28,-307.32 210.62,-316.28 220.63,-312.81 216.28,-307.32"/>
</g>
<!-- bodydiv -->
<g id="node6" class="node">
<title>bodydiv</title>
<path fill="#afa7f4" stroke="black" d="M132.73,-239.11C132.73,-239.11 171.73,-239.11 171.73,-239.11 177.73,-239.11 183.73,-245.11 183.73,-251.11 183.73,-251.11 183.73,-263.11 183.73,-263.11 183.73,-269.11 177.73,-275.11 171.73,-275.11 171.73,-275.11 132.73,-275.11 132.73,-275.11 126.73,-275.11 120.73,-269.11 120.73,-263.11 120.73,-263.11 120.73,-251.11 120.73,-251.11 120.73,-245.11 126.73,-239.11 132.73,-239.11"/>
<text text-anchor="middle" x="152.23" y="-253.41" font-family="Arial" font-size="14.00">bodydiv</text>
</g>
<!-- referenceModule&#45;&gt;bodydiv -->
<g id="edge5" class="edge">
<title>referenceModule&#45;&gt;bodydiv</title>
<path fill="none" stroke="#1f78b4" d="M231.38,-254.47C218.89,-254.88 205.97,-255.32 194.28,-255.71"/>
<polygon fill="#a6cee3" stroke="#1f78b4" points="193.82,-252.22 183.94,-256.05 194.05,-259.22 193.82,-252.22"/>
</g>
<!-- section -->
<g id="node8" class="node">
<title>section</title>
<path fill="#afa7f4" stroke="black" d="M377.68,-133.18C377.68,-133.18 412.68,-133.18 412.68,-133.18 418.68,-133.18 424.68,-139.18 424.68,-145.18 424.68,-145.18 424.68,-157.18 424.68,-157.18 424.68,-163.18 418.68,-169.18 412.68,-169.18 412.68,-169.18 377.68,-169.18 377.68,-169.18 371.68,-169.18 365.68,-163.18 365.68,-157.18 365.68,-157.18 365.68,-145.18 365.68,-145.18 365.68,-139.18 371.68,-133.18 377.68,-133.18"/>
<text text-anchor="middle" x="395.18" y="-147.48" font-family="Arial" font-size="14.00">section</text>
</g>
<!-- referenceModule&#45;&gt;section -->
<g id="edge7" class="edge">
<title>referenceModule&#45;&gt;section</title>
<path fill="none" stroke="#1f78b4" d="M309.67,-234.36C326.15,-218.33 350.39,-194.75 368.85,-176.79"/>
<polygon fill="#a6cee3" stroke="#1f78b4" points="371.65,-178.95 376.37,-169.47 366.76,-173.93 371.65,-178.95"/>
</g>
<!-- simpletable -->
<g id="node10" class="node">
<title>simpletable</title>
<path fill="#afa7f4" stroke="black" d="M273.24,-189.14C273.24,-189.14 335.24,-189.14 335.24,-189.14 341.24,-189.14 347.24,-195.14 347.24,-201.14 347.24,-201.14 347.24,-213.14 347.24,-213.14 347.24,-219.14 341.24,-225.14 335.24,-225.14 335.24,-225.14 273.24,-225.14 273.24,-225.14 267.24,-225.14 261.24,-219.14 261.24,-213.14 261.24,-213.14 261.24,-201.14 261.24,-201.14 261.24,-195.14 267.24,-189.14 273.24,-189.14"/>
<text text-anchor="middle" x="304.24" y="-203.44" font-family="Arial" font-size="14.00">simpletable</text>
</g>
<!-- referenceModule&#45;&gt;simpletable -->
<g id="edge9" class="edge">
<title>referenceModule&#45;&gt;simpletable</title>
<path fill="none" stroke="#1f78b4" d="M296.35,-234.29C296.37,-234.2 296.4,-234.11 296.43,-234.01"/>
<polygon fill="#a6cee3" stroke="#1f78b4" points="299.52,-235.9 298.96,-225.32 292.8,-233.94 299.52,-235.9"/>
</g>
<!-- sthead -->
<g id="node12" class="node">
<title>sthead</title>
<path fill="#afa7f4" stroke="black" d="M411.82,-216.41C411.82,-216.41 444.82,-216.41 444.82,-216.41 450.82,-216.41 456.82,-222.41 456.82,-228.41 456.82,-228.41 456.82,-240.41 456.82,-240.41 456.82,-246.41 450.82,-252.41 444.82,-252.41 444.82,-252.41 411.82,-252.41 411.82,-252.41 405.82,-252.41 399.82,-246.41 399.82,-240.41 399.82,-240.41 399.82,-228.41 399.82,-228.41 399.82,-222.41 405.82,-216.41 411.82,-216.41"/>
<text text-anchor="middle" x="428.32" y="-230.71" font-family="Arial" font-size="14.00">sthead</text>
</g>
<!-- referenceModule&#45;&gt;sthead -->
<g id="edge11" class="edge">
<title>referenceModule&#45;&gt;sthead</title>
<path fill="none" stroke="#1f78b4" d="M350.86,-244.6C363.94,-242.88 377.45,-241.1 389.45,-239.53"/>
<polygon fill="#a6cee3" stroke="#1f78b4" points="390.1,-242.97 399.56,-238.2 389.19,-236.03 390.1,-242.97"/>
</g>
<!-- stentry -->
<g id="node14" class="node">
<title>stentry</title>
<path fill="#afa7f4" stroke="black" d="M324.08,-381.66C324.08,-381.66 357.08,-381.66 357.08,-381.66 363.08,-381.66 369.08,-387.66 369.08,-393.66 369.08,-393.66 369.08,-405.66 369.08,-405.66 369.08,-411.66 363.08,-417.66 357.08,-417.66 357.08,-417.66 324.08,-417.66 324.08,-417.66 318.08,-417.66 312.08,-411.66 312.08,-405.66 312.08,-405.66 312.08,-393.66 312.08,-393.66 312.08,-387.66 318.08,-381.66 324.08,-381.66"/>
<text text-anchor="middle" x="340.58" y="-395.96" font-family="Arial" font-size="14.00">stentry</text>
</g>
<!-- referenceModule&#45;&gt;stentry -->
<g id="edge13" class="edge">
<title>referenceModule&#45;&gt;stentry</title>
<path fill="none" stroke="#1f78b4" d="M297.13,-270.52C305.63,-295.79 321.16,-341.95 331.17,-371.69"/>
<polygon fill="#a6cee3" stroke="#1f78b4" points="327.95,-373.1 334.46,-381.46 334.59,-370.87 327.95,-373.1"/>
</g>
<!-- strow -->
<g id="node21" class="node">
<title>strow</title>
<path fill="#afa7f4" stroke="black" d="M163.23,-155.98C163.23,-155.98 193.23,-155.98 193.23,-155.98 199.23,-155.98 205.23,-161.98 205.23,-167.98 205.23,-167.98 205.23,-179.98 205.23,-179.98 205.23,-185.98 199.23,-191.98 193.23,-191.98 193.23,-191.98 163.23,-191.98 163.23,-191.98 157.23,-191.98 151.23,-185.98 151.23,-179.98 151.23,-179.98 151.23,-167.98 151.23,-167.98 151.23,-161.98 157.23,-155.98 163.23,-155.98"/>
<text text-anchor="middle" x="178.23" y="-170.28" font-family="Arial" font-size="14.00">strow</text>
</g>
<!-- referenceModule&#45;&gt;strow -->
<g id="edge20" class="edge">
<title>referenceModule&#45;&gt;strow</title>
<path fill="none" stroke="#1f78b4" d="M265.17,-234.46C249.66,-223.67 229.74,-209.81 212.88,-198.09"/>
<polygon fill="#a6cee3" stroke="#1f78b4" points="214.59,-195.01 204.39,-192.18 210.6,-200.76 214.59,-195.01"/>
</g>
<!-- reference -->
<g id="node3" class="node">
<title>reference</title>
<path fill="#1afabc" stroke="black" d="M190.95,-0.15C190.95,-0.15 240.95,-0.15 240.95,-0.15 246.95,-0.15 252.95,-6.15 252.95,-12.15 252.95,-12.15 252.95,-24.15 252.95,-24.15 252.95,-30.15 246.95,-36.15 240.95,-36.15 240.95,-36.15 190.95,-36.15 190.95,-36.15 184.95,-36.15 178.95,-30.15 178.95,-24.15 178.95,-24.15 178.95,-12.15 178.95,-12.15 178.95,-6.15 184.95,-0.15 190.95,-0.15"/>
<text text-anchor="middle" x="215.95" y="-14.45" font-family="Arial" font-size="14.00">reference</text>
</g>
<!-- topic&#45;&gt;reference -->
<g id="edge2" class="edge">
<title>topic&#45;&gt;reference</title>
<path fill="none" stroke="#1f78b4" d="M237.82,-101.98C233.77,-86.44 227.88,-63.89 223.24,-46.08"/>
<polygon fill="#a6cee3" stroke="#1f78b4" points="226.58,-45.03 220.67,-36.24 219.81,-46.8 226.58,-45.03"/>
</g>
<!-- refbody -->
<g id="node5" class="node">
<title>refbody</title>
<path fill="#1afabc" stroke="black" d="M88.27,-378C88.27,-378 126.27,-378 126.27,-378 132.27,-378 138.27,-384 138.27,-390 138.27,-390 138.27,-402 138.27,-402 138.27,-408 132.27,-414 126.27,-414 126.27,-414 88.27,-414 88.27,-414 82.27,-414 76.27,-408 76.27,-402 76.27,-402 76.27,-390 76.27,-390 76.27,-384 82.27,-378 88.27,-378"/>
<text text-anchor="middle" x="107.27" y="-392.3" font-family="Arial" font-size="14.00">refbody</text>
</g>
<!-- body&#45;&gt;refbody -->
<g id="edge4" class="edge">
<title>body&#45;&gt;refbody</title>
<path fill="none" stroke="#1f78b4" d="M164.05,-352.56C156.19,-358.57 147.31,-365.37 138.95,-371.76"/>
<polygon fill="#a6cee3" stroke="#1f78b4" points="136.63,-369.13 130.82,-377.99 140.89,-374.69 136.63,-369.13"/>
</g>
<!-- refbodydiv -->
<g id="node7" class="node">
<title>refbodydiv</title>
<path fill="#1afabc" stroke="black" d="M11.84,-245.68C11.84,-245.68 66.84,-245.68 66.84,-245.68 72.84,-245.68 78.84,-251.68 78.84,-257.68 78.84,-257.68 78.84,-269.68 78.84,-269.68 78.84,-275.68 72.84,-281.68 66.84,-281.68 66.84,-281.68 11.84,-281.68 11.84,-281.68 5.84,-281.68 -0.16,-275.68 -0.16,-269.68 -0.16,-269.68 -0.16,-257.68 -0.16,-257.68 -0.16,-251.68 5.84,-245.68 11.84,-245.68"/>
<text text-anchor="middle" x="39.34" y="-259.98" font-family="Arial" font-size="14.00">refbodydiv</text>
</g>
<!-- bodydiv&#45;&gt;refbodydiv -->
<g id="edge6" class="edge">
<title>bodydiv&#45;&gt;refbodydiv</title>
<path fill="none" stroke="#1f78b4" d="M120.49,-258.96C110.7,-259.53 99.68,-260.17 88.99,-260.79"/>
<polygon fill="#a6cee3" stroke="#1f78b4" points="88.68,-257.3 78.9,-261.38 89.08,-264.29 88.68,-257.3"/>
</g>
<!-- refsyn -->
<g id="node9" class="node">
<title>refsyn</title>
<path fill="#1afabc" stroke="black" d="M442.52,-59.96C442.52,-59.96 472.52,-59.96 472.52,-59.96 478.52,-59.96 484.52,-65.96 484.52,-71.96 484.52,-71.96 484.52,-83.96 484.52,-83.96 484.52,-89.96 478.52,-95.96 472.52,-95.96 472.52,-95.96 442.52,-95.96 442.52,-95.96 436.52,-95.96 430.52,-89.96 430.52,-83.96 430.52,-83.96 430.52,-71.96 430.52,-71.96 430.52,-65.96 436.52,-59.96 442.52,-59.96"/>
<text text-anchor="middle" x="457.52" y="-74.26" font-family="Arial" font-size="14.00">refsyn</text>
</g>
<!-- section&#45;&gt;refsyn -->
<g id="edge8" class="edge">
<title>section&#45;&gt;refsyn</title>
<path fill="none" stroke="#1f78b4" d="M410.59,-133.08C418.08,-124.28 427.22,-113.54 435.44,-103.89"/>
<polygon fill="#a6cee3" stroke="#1f78b4" points="438.25,-105.99 442.07,-96.1 432.92,-101.45 438.25,-105.99"/>
</g>
<!-- properties -->
<g id="node11" class="node">
<title>properties</title>
<path fill="#1afabc" stroke="black" d="M289.62,-143.79C289.62,-143.79 342.62,-143.79 342.62,-143.79 348.62,-143.79 354.62,-149.79 354.62,-155.79 354.62,-155.79 354.62,-167.79 354.62,-167.79 354.62,-173.79 348.62,-179.79 342.62,-179.79 342.62,-179.79 289.62,-179.79 289.62,-179.79 283.62,-179.79 277.62,-173.79 277.62,-167.79 277.62,-167.79 277.62,-155.79 277.62,-155.79 277.62,-149.79 283.62,-143.79 289.62,-143.79"/>
<text text-anchor="middle" x="316.12" y="-158.09" font-family="Arial" font-size="14.00">properties</text>
</g>
<!-- simpletable&#45;&gt;properties -->
<g id="edge10" class="edge">
<title>simpletable&#45;&gt;properties</title>
<path fill="none" stroke="#1f78b4" d="M309.01,-188.95C309.03,-188.86 309.06,-188.77 309.08,-188.68"/>
<polygon fill="#a6cee3" stroke="#1f78b4" points="312.21,-190.54 311.36,-179.98 305.44,-188.76 312.21,-190.54"/>
</g>
<!-- prophead -->
<g id="node13" class="node">
<title>prophead</title>
<path fill="#1afabc" stroke="black" d="M509.28,-201.59C509.28,-201.59 559.28,-201.59 559.28,-201.59 565.28,-201.59 571.28,-207.59 571.28,-213.59 571.28,-213.59 571.28,-225.59 571.28,-225.59 571.28,-231.59 565.28,-237.59 559.28,-237.59 559.28,-237.59 509.28,-237.59 509.28,-237.59 503.28,-237.59 497.28,-231.59 497.28,-225.59 497.28,-225.59 497.28,-213.59 497.28,-213.59 497.28,-207.59 503.28,-201.59 509.28,-201.59"/>
<text text-anchor="middle" x="534.28" y="-215.89" font-family="Arial" font-size="14.00">prophead</text>
</g>
<!-- sthead&#45;&gt;prophead -->
<g id="edge12" class="edge">
<title>sthead&#45;&gt;prophead</title>
<path fill="none" stroke="#1f78b4" d="M456.99,-230.4C466.28,-229.1 476.83,-227.63 487.1,-226.19"/>
<polygon fill="#a6cee3" stroke="#1f78b4" points="487.79,-229.63 497.2,-224.78 486.82,-222.7 487.79,-229.63"/>
</g>
<!-- proptypehd -->
<g id="node15" class="node">
<title>proptypehd</title>
<path fill="#1afabc" stroke="black" d="M309.79,-428.34C309.79,-428.34 369.79,-428.34 369.79,-428.34 375.79,-428.34 381.79,-434.34 381.79,-440.34 381.79,-440.34 381.79,-452.34 381.79,-452.34 381.79,-458.34 375.79,-464.34 369.79,-464.34 369.79,-464.34 309.79,-464.34 309.79,-464.34 303.79,-464.34 297.79,-458.34 297.79,-452.34 297.79,-452.34 297.79,-440.34 297.79,-440.34 297.79,-434.34 303.79,-428.34 309.79,-428.34"/>
<text text-anchor="middle" x="339.79" y="-442.64" font-family="Arial" font-size="14.00">proptypehd</text>
</g>
<!-- stentry&#45;&gt;proptypehd -->
<g id="edge14" class="edge">
<title>stentry&#45;&gt;proptypehd</title>
<path fill="none" stroke="#1f78b4" d="M340.27,-417.84C340.27,-417.94 340.27,-418.05 340.27,-418.16"/>
<polygon fill="#a6cee3" stroke="#1f78b4" points="336.77,-418.07 340.1,-428.13 343.77,-418.19 336.77,-418.07"/>
</g>
<!-- propvaluehd -->
<g id="node16" class="node">
<title>propvaluehd</title>
<path fill="#1afabc" stroke="black" d="M403.58,-468.79C403.58,-468.79 470.58,-468.79 470.58,-468.79 476.58,-468.79 482.58,-474.79 482.58,-480.79 482.58,-480.79 482.58,-492.79 482.58,-492.79 482.58,-498.79 476.58,-504.79 470.58,-504.79 470.58,-504.79 403.58,-504.79 403.58,-504.79 397.58,-504.79 391.58,-498.79 391.58,-492.79 391.58,-492.79 391.58,-480.79 391.58,-480.79 391.58,-474.79 397.58,-468.79 403.58,-468.79"/>
<text text-anchor="middle" x="437.08" y="-483.09" font-family="Arial" font-size="14.00">propvaluehd</text>
</g>
<!-- stentry&#45;&gt;propvaluehd -->
<g id="edge15" class="edge">
<title>stentry&#45;&gt;propvaluehd</title>
<path fill="none" stroke="#1f78b4" d="M360.57,-417.71C374.68,-430.45 393.75,-447.67 409.33,-461.73"/>
<polygon fill="#a6cee3" stroke="#1f78b4" points="407.34,-464.65 417.11,-468.76 412.03,-459.46 407.34,-464.65"/>
</g>
<!-- propdeschd -->
<g id="node17" class="node">
<title>propdeschd</title>
<path fill="#1afabc" stroke="black" d="M416.43,-421.31C416.43,-421.31 479.43,-421.31 479.43,-421.31 485.43,-421.31 491.43,-427.31 491.43,-433.31 491.43,-433.31 491.43,-445.31 491.43,-445.31 491.43,-451.31 485.43,-457.31 479.43,-457.31 479.43,-457.31 416.43,-457.31 416.43,-457.31 410.43,-457.31 404.43,-451.31 404.43,-445.31 404.43,-445.31 404.43,-433.31 404.43,-433.31 404.43,-427.31 410.43,-421.31 416.43,-421.31"/>
<text text-anchor="middle" x="447.93" y="-435.61" font-family="Arial" font-size="14.00">propdeschd</text>
</g>
<!-- stentry&#45;&gt;propdeschd -->
<g id="edge16" class="edge">
<title>stentry&#45;&gt;propdeschd</title>
<path fill="none" stroke="#1f78b4" d="M369.35,-410.28C377.19,-413.18 385.95,-416.42 394.69,-419.64"/>
<polygon fill="#a6cee3" stroke="#1f78b4" points="393.53,-422.95 404.12,-423.13 395.96,-416.38 393.53,-422.95"/>
</g>
<!-- proptype -->
<g id="node18" class="node">
<title>proptype</title>
<path fill="#1afabc" stroke="black" d="M318.95,-491.52C318.95,-491.52 363.95,-491.52 363.95,-491.52 369.95,-491.52 375.95,-497.52 375.95,-503.52 375.95,-503.52 375.95,-515.52 375.95,-515.52 375.95,-521.52 369.95,-527.52 363.95,-527.52 363.95,-527.52 318.95,-527.52 318.95,-527.52 312.95,-527.52 306.95,-521.52 306.95,-515.52 306.95,-515.52 306.95,-503.52 306.95,-503.52 306.95,-497.52 312.95,-491.52 318.95,-491.52"/>
<text text-anchor="middle" x="341.45" y="-505.82" font-family="Arial" font-size="14.00">proptype</text>
</g>
<!-- stentry&#45;&gt;proptype -->
<g id="edge17" class="edge">
<title>stentry&#45;&gt;proptype</title>
<path fill="none" stroke="#1f78b4" d="M340.72,-417.8C340.86,-435.05 341.07,-461.27 341.23,-481.26"/>
<polygon fill="#a6cee3" stroke="#1f78b4" points="337.73,-481.38 341.3,-491.35 344.73,-481.32 337.73,-481.38"/>
</g>
<!-- propvalue -->
<g id="node19" class="node">
<title>propvalue</title>
<path fill="#1afabc" stroke="black" d="M225.4,-462.02C225.4,-462.02 277.4,-462.02 277.4,-462.02 283.4,-462.02 289.4,-468.02 289.4,-474.02 289.4,-474.02 289.4,-486.02 289.4,-486.02 289.4,-492.02 283.4,-498.02 277.4,-498.02 277.4,-498.02 225.4,-498.02 225.4,-498.02 219.4,-498.02 213.4,-492.02 213.4,-486.02 213.4,-486.02 213.4,-474.02 213.4,-474.02 213.4,-468.02 219.4,-462.02 225.4,-462.02"/>
<text text-anchor="middle" x="251.4" y="-476.32" font-family="Arial" font-size="14.00">propvalue</text>
</g>
<!-- stentry&#45;&gt;propvalue -->
<g id="edge18" class="edge">
<title>stentry&#45;&gt;propvalue</title>
<path fill="none" stroke="#1f78b4" d="M320.34,-417.89C308.14,-428.89 292.43,-443.04 279.09,-455.06"/>
<polygon fill="#a6cee3" stroke="#1f78b4" points="276.64,-452.56 271.55,-461.86 281.33,-457.76 276.64,-452.56"/>
</g>
<!-- propdesc -->
<g id="node20" class="node">
<title>propdesc</title>
<path fill="#1afabc" stroke="black" d="M415.57,-356.69C415.57,-356.69 463.57,-356.69 463.57,-356.69 469.57,-356.69 475.57,-362.69 475.57,-368.69 475.57,-368.69 475.57,-380.69 475.57,-380.69 475.57,-386.69 469.57,-392.69 463.57,-392.69 463.57,-392.69 415.57,-392.69 415.57,-392.69 409.57,-392.69 403.57,-386.69 403.57,-380.69 403.57,-380.69 403.57,-368.69 403.57,-368.69 403.57,-362.69 409.57,-356.69 415.57,-356.69"/>
<text text-anchor="middle" x="439.57" y="-370.99" font-family="Arial" font-size="14.00">propdesc</text>
</g>
<!-- stentry&#45;&gt;propdesc -->
<g id="edge19" class="edge">
<title>stentry&#45;&gt;propdesc</title>
<path fill="none" stroke="#1f78b4" d="M369.21,-392.44C376.76,-390.53 385.1,-388.43 393.33,-386.35"/>
<polygon fill="#a6cee3" stroke="#1f78b4" points="394.4,-389.69 403.24,-383.85 392.68,-382.91 394.4,-389.69"/>
</g>
<!-- property -->
<g id="node22" class="node">
<title>property</title>
<path fill="#1afabc" stroke="black" d="M72.94,-98.22C72.94,-98.22 114.94,-98.22 114.94,-98.22 120.94,-98.22 126.94,-104.22 126.94,-110.22 126.94,-110.22 126.94,-122.22 126.94,-122.22 126.94,-128.22 120.94,-134.22 114.94,-134.22 114.94,-134.22 72.94,-134.22 72.94,-134.22 66.94,-134.22 60.94,-128.22 60.94,-122.22 60.94,-122.22 60.94,-110.22 60.94,-110.22 60.94,-104.22 66.94,-98.22 72.94,-98.22"/>
<text text-anchor="middle" x="93.94" y="-112.52" font-family="Arial" font-size="14.00">property</text>
</g>
<!-- strow&#45;&gt;property -->
<g id="edge21" class="edge">
<title>strow&#45;&gt;property</title>
<path fill="none" stroke="#1f78b4" d="M151.56,-155.7C144.42,-150.81 136.59,-145.45 129.06,-140.29"/>
<polygon fill="#a6cee3" stroke="#1f78b4" points="130.66,-137.14 120.43,-134.37 126.7,-142.92 130.66,-137.14"/>
</g>
</g>
</svg>
