<?xml version="1.0" encoding="UTF-8" standalone="no"?>
<!-- Generated by graphviz version 6.0.1 (20220911.1526)
 -->
<!-- Pages: 1 -->
<svg width="770pt" height="582pt"
 viewBox="0.00 0.00 770.00 582.00" xmlns="http://www.w3.org/2000/svg" xmlns:xlink="http://www.w3.org/1999/xlink">
<g id="graph0" class="graph" transform="scale(1 1) rotate(0) translate(4 578)">
<polygon fill="white" stroke="none" points="-4,4 -4,-578 766,-578 766,4 -4,4"/>
<!-- subjectSchemeModule -->
<g id="node1" class="node">
<title>subjectSchemeModule</title>
<path fill="#dddddd" stroke="black" d="M288.28,-259.74C288.28,-259.74 419.28,-259.74 419.28,-259.74 425.28,-259.74 431.28,-265.74 431.28,-271.74 431.28,-271.74 431.28,-283.74 431.28,-283.74 431.28,-289.74 425.28,-295.74 419.28,-295.74 419.28,-295.74 288.28,-295.74 288.28,-295.74 282.28,-295.74 276.28,-289.74 276.28,-283.74 276.28,-283.74 276.28,-271.74 276.28,-271.74 276.28,-265.74 282.28,-259.74 288.28,-259.74"/>
<text text-anchor="middle" x="353.78" y="-274.04" font-family="Arial" font-size="14.00">subjectSchemeModule</text>
</g>
<!-- map -->
<g id="node2" class="node">
<title>map</title>
<path fill="#afa7f4" stroke="black" d="M272.32,-104C272.32,-104 302.32,-104 302.32,-104 308.32,-104 314.32,-110 314.32,-116 314.32,-116 314.32,-128 314.32,-128 314.32,-134 308.32,-140 302.32,-140 302.32,-140 272.32,-140 272.32,-140 266.32,-140 260.32,-134 260.32,-128 260.32,-128 260.32,-116 260.32,-116 260.32,-110 266.32,-104 272.32,-104"/>
<text text-anchor="middle" x="287.32" y="-118.3" font-family="Arial" font-size="14.00">map</text>
</g>
<!-- subjectSchemeModule&#45;&gt;map -->
<g id="edge1" class="edge">
<title>subjectSchemeModule&#45;&gt;map</title>
<path fill="none" stroke="#1f78b4" d="M346.02,-259.57C334.47,-232.49 312.64,-181.34 299.11,-149.62"/>
<polygon fill="#a6cee3" stroke="#1f78b4" points="302.17,-147.88 295.03,-140.06 295.73,-150.63 302.17,-147.88"/>
</g>
<!-- topicref -->
<g id="node4" class="node">
<title>topicref</title>
<path fill="#afa7f4" stroke="black" d="M537.26,-385.72C537.26,-385.72 574.26,-385.72 574.26,-385.72 580.26,-385.72 586.26,-391.72 586.26,-397.72 586.26,-397.72 586.26,-409.72 586.26,-409.72 586.26,-415.72 580.26,-421.72 574.26,-421.72 574.26,-421.72 537.26,-421.72 537.26,-421.72 531.26,-421.72 525.26,-415.72 525.26,-409.72 525.26,-409.72 525.26,-397.72 525.26,-397.72 525.26,-391.72 531.26,-385.72 537.26,-385.72"/>
<text text-anchor="middle" x="555.76" y="-400.02" font-family="Arial" font-size="14.00">topicref</text>
</g>
<!-- subjectSchemeModule&#45;&gt;topicref -->
<g id="edge3" class="edge">
<title>subjectSchemeModule&#45;&gt;topicref</title>
<path fill="none" stroke="#1f78b4" d="M382.72,-295.79C418.41,-318.05 479.17,-355.95 518.37,-380.4"/>
<polygon fill="#a6cee3" stroke="#1f78b4" points="516.54,-383.38 526.87,-385.7 520.24,-377.44 516.54,-383.38"/>
</g>
<!-- topicmeta -->
<g id="node16" class="node">
<title>topicmeta</title>
<path fill="#afa7f4" stroke="black" d="M354.2,-203.73C354.2,-203.73 406.2,-203.73 406.2,-203.73 412.2,-203.73 418.2,-209.73 418.2,-215.73 418.2,-215.73 418.2,-227.73 418.2,-227.73 418.2,-233.73 412.2,-239.73 406.2,-239.73 406.2,-239.73 354.2,-239.73 354.2,-239.73 348.2,-239.73 342.2,-233.73 342.2,-227.73 342.2,-227.73 342.2,-215.73 342.2,-215.73 342.2,-209.73 348.2,-203.73 354.2,-203.73"/>
<text text-anchor="middle" x="380.2" y="-218.03" font-family="Arial" font-size="14.00">topicmeta</text>
</g>
<!-- subjectSchemeModule&#45;&gt;topicmeta -->
<g id="edge15" class="edge">
<title>subjectSchemeModule&#45;&gt;topicmeta</title>
<path fill="none" stroke="#1f78b4" d="M362.28,-259.71C363.86,-256.38 365.53,-252.83 367.2,-249.3"/>
<polygon fill="#a6cee3" stroke="#1f78b4" points="370.43,-250.65 371.53,-240.11 364.1,-247.66 370.43,-250.65"/>
</g>
<!-- data -->
<g id="node18" class="node">
<title>data</title>
<path fill="#afa7f4" stroke="black" d="M146.87,-256.93C146.87,-256.93 176.87,-256.93 176.87,-256.93 182.87,-256.93 188.87,-262.93 188.87,-268.93 188.87,-268.93 188.87,-280.93 188.87,-280.93 188.87,-286.93 182.87,-292.93 176.87,-292.93 176.87,-292.93 146.87,-292.93 146.87,-292.93 140.87,-292.93 134.87,-286.93 134.87,-280.93 134.87,-280.93 134.87,-268.93 134.87,-268.93 134.87,-262.93 140.87,-256.93 146.87,-256.93"/>
<text text-anchor="middle" x="161.87" y="-271.23" font-family="Arial" font-size="14.00">data</text>
</g>
<!-- subjectSchemeModule&#45;&gt;data -->
<g id="edge17" class="edge">
<title>subjectSchemeModule&#45;&gt;data</title>
<path fill="none" stroke="#1f78b4" d="M276.27,-276.61C249.63,-276.22 221.02,-275.8 199.07,-275.48"/>
<polygon fill="#a6cee3" stroke="#1f78b4" points="198.92,-271.97 188.87,-275.33 198.82,-278.97 198.92,-271.97"/>
</g>
<!-- reltable -->
<g id="node21" class="node">
<title>reltable</title>
<path fill="#afa7f4" stroke="black" d="M183.37,-145.58C183.37,-145.58 220.37,-145.58 220.37,-145.58 226.37,-145.58 232.37,-151.58 232.37,-157.58 232.37,-157.58 232.37,-169.58 232.37,-169.58 232.37,-175.58 226.37,-181.58 220.37,-181.58 220.37,-181.58 183.37,-181.58 183.37,-181.58 177.37,-181.58 171.37,-175.58 171.37,-169.58 171.37,-169.58 171.37,-157.58 171.37,-157.58 171.37,-151.58 177.37,-145.58 183.37,-145.58"/>
<text text-anchor="middle" x="201.87" y="-159.88" font-family="Arial" font-size="14.00">reltable</text>
</g>
<!-- subjectSchemeModule&#45;&gt;reltable -->
<g id="edge20" class="edge">
<title>subjectSchemeModule&#45;&gt;reltable</title>
<path fill="none" stroke="#1f78b4" d="M329.71,-259.65C303.82,-240.2 262.53,-209.16 233.91,-187.66"/>
<polygon fill="#a6cee3" stroke="#1f78b4" points="235.93,-184.8 225.83,-181.59 231.72,-190.39 235.93,-184.8"/>
</g>
<!-- relrow -->
<g id="node23" class="node">
<title>relrow</title>
<path fill="#afa7f4" stroke="black" d="M214.51,-398.31C214.51,-398.31 244.51,-398.31 244.51,-398.31 250.51,-398.31 256.51,-404.31 256.51,-410.31 256.51,-410.31 256.51,-422.31 256.51,-422.31 256.51,-428.31 250.51,-434.31 244.51,-434.31 244.51,-434.31 214.51,-434.31 214.51,-434.31 208.51,-434.31 202.51,-428.31 202.51,-422.31 202.51,-422.31 202.51,-410.31 202.51,-410.31 202.51,-404.31 208.51,-398.31 214.51,-398.31"/>
<text text-anchor="middle" x="229.51" y="-412.61" font-family="Arial" font-size="14.00">relrow</text>
</g>
<!-- subjectSchemeModule&#45;&gt;relrow -->
<g id="edge22" class="edge">
<title>subjectSchemeModule&#45;&gt;relrow</title>
<path fill="none" stroke="#1f78b4" d="M337.53,-295.85C315.86,-320.03 277.34,-362.97 252.64,-390.52"/>
<polygon fill="#a6cee3" stroke="#1f78b4" points="249.83,-388.41 245.76,-398.19 255.04,-393.08 249.83,-388.41"/>
</g>
<!-- relcell -->
<g id="node26" class="node">
<title>relcell</title>
<path fill="#afa7f4" stroke="black" d="M455.59,-102.67C455.59,-102.67 485.59,-102.67 485.59,-102.67 491.59,-102.67 497.59,-108.67 497.59,-114.67 497.59,-114.67 497.59,-126.67 497.59,-126.67 497.59,-132.67 491.59,-138.67 485.59,-138.67 485.59,-138.67 455.59,-138.67 455.59,-138.67 449.59,-138.67 443.59,-132.67 443.59,-126.67 443.59,-126.67 443.59,-114.67 443.59,-114.67 443.59,-108.67 449.59,-102.67 455.59,-102.67"/>
<text text-anchor="middle" x="470.59" y="-116.97" font-family="Arial" font-size="14.00">relcell</text>
</g>
<!-- subjectSchemeModule&#45;&gt;relcell -->
<g id="edge25" class="edge">
<title>subjectSchemeModule&#45;&gt;relcell</title>
<path fill="none" stroke="#1f78b4" d="M367.18,-259.72C387.75,-232.06 427.23,-178.97 451.01,-146.99"/>
<polygon fill="#a6cee3" stroke="#1f78b4" points="453.82,-149.07 456.98,-138.96 448.21,-144.9 453.82,-149.07"/>
</g>
<!-- subjectScheme -->
<g id="node3" class="node">
<title>subjectScheme</title>
<path fill="#1afabc" stroke="black" d="M193.47,-0.09C193.47,-0.09 279.47,-0.09 279.47,-0.09 285.47,-0.09 291.47,-6.09 291.47,-12.09 291.47,-12.09 291.47,-24.09 291.47,-24.09 291.47,-30.09 285.47,-36.09 279.47,-36.09 279.47,-36.09 193.47,-36.09 193.47,-36.09 187.47,-36.09 181.47,-30.09 181.47,-24.09 181.47,-24.09 181.47,-12.09 181.47,-12.09 181.47,-6.09 187.47,-0.09 193.47,-0.09"/>
<text text-anchor="middle" x="236.47" y="-14.39" font-family="Arial" font-size="14.00">subjectScheme</text>
</g>
<!-- map&#45;&gt;subjectScheme -->
<g id="edge2" class="edge">
<title>map&#45;&gt;subjectScheme</title>
<path fill="none" stroke="#1f78b4" d="M278.47,-103.9C270.57,-87.76 258.89,-63.89 249.85,-45.42"/>
<polygon fill="#a6cee3" stroke="#1f78b4" points="252.94,-43.77 245.4,-36.33 246.65,-46.85 252.94,-43.77"/>
</g>
<!-- schemeref -->
<g id="node5" class="node">
<title>schemeref</title>
<path fill="#1afabc" stroke="black" d="M499.29,-434.95C499.29,-434.95 555.29,-434.95 555.29,-434.95 561.29,-434.95 567.29,-440.95 567.29,-446.95 567.29,-446.95 567.29,-458.95 567.29,-458.95 567.29,-464.95 561.29,-470.95 555.29,-470.95 555.29,-470.95 499.29,-470.95 499.29,-470.95 493.29,-470.95 487.29,-464.95 487.29,-458.95 487.29,-458.95 487.29,-446.95 487.29,-446.95 487.29,-440.95 493.29,-434.95 499.29,-434.95"/>
<text text-anchor="middle" x="527.29" y="-449.25" font-family="Arial" font-size="14.00">schemeref</text>
</g>
<!-- topicref&#45;&gt;schemeref -->
<g id="edge4" class="edge">
<title>topicref&#45;&gt;schemeref</title>
<path fill="none" stroke="#1f78b4" d="M545.32,-421.77C544.54,-423.11 543.75,-424.47 542.96,-425.85"/>
<polygon fill="#a6cee3" stroke="#1f78b4" points="539.7,-424.49 537.73,-434.9 545.76,-427.99 539.7,-424.49"/>
</g>
<!-- hasNarrower -->
<g id="node6" class="node">
<title>hasNarrower</title>
<path fill="#1afabc" stroke="black" d="M654.72,-375.97C654.72,-375.97 724.72,-375.97 724.72,-375.97 730.72,-375.97 736.72,-381.97 736.72,-387.97 736.72,-387.97 736.72,-399.97 736.72,-399.97 736.72,-405.97 730.72,-411.97 724.72,-411.97 724.72,-411.97 654.72,-411.97 654.72,-411.97 648.72,-411.97 642.72,-405.97 642.72,-399.97 642.72,-399.97 642.72,-387.97 642.72,-387.97 642.72,-381.97 648.72,-375.97 654.72,-375.97"/>
<text text-anchor="middle" x="689.72" y="-390.27" font-family="Arial" font-size="14.00">hasNarrower</text>
</g>
<!-- topicref&#45;&gt;hasNarrower -->
<g id="edge5" class="edge">
<title>topicref&#45;&gt;hasNarrower</title>
<path fill="none" stroke="#1f78b4" d="M586.49,-401.48C600.12,-400.49 616.6,-399.29 632.36,-398.14"/>
<polygon fill="#a6cee3" stroke="#1f78b4" points="632.86,-401.62 642.58,-397.4 632.35,-394.64 632.86,-401.62"/>
</g>
<!-- hasKind -->
<g id="node7" class="node">
<title>hasKind</title>
<path fill="#1afabc" stroke="black" d="M419.91,-400.63C419.91,-400.63 460.91,-400.63 460.91,-400.63 466.91,-400.63 472.91,-406.63 472.91,-412.63 472.91,-412.63 472.91,-424.63 472.91,-424.63 472.91,-430.63 466.91,-436.63 460.91,-436.63 460.91,-436.63 419.91,-436.63 419.91,-436.63 413.91,-436.63 407.91,-430.63 407.91,-424.63 407.91,-424.63 407.91,-412.63 407.91,-412.63 407.91,-406.63 413.91,-400.63 419.91,-400.63"/>
<text text-anchor="middle" x="440.41" y="-414.93" font-family="Arial" font-size="14.00">hasKind</text>
</g>
<!-- topicref&#45;&gt;hasKind -->
<g id="edge6" class="edge">
<title>topicref&#45;&gt;hasKind</title>
<path fill="none" stroke="#1f78b4" d="M525.15,-407.68C512.38,-409.33 497.33,-411.27 483.48,-413.06"/>
<polygon fill="#a6cee3" stroke="#1f78b4" points="482.65,-409.64 473.18,-414.39 483.55,-416.58 482.65,-409.64"/>
</g>
<!-- hasPart -->
<g id="node8" class="node">
<title>hasPart</title>
<path fill="#1afabc" stroke="black" d="M592.15,-479.53C592.15,-479.53 631.15,-479.53 631.15,-479.53 637.15,-479.53 643.15,-485.53 643.15,-491.53 643.15,-491.53 643.15,-503.53 643.15,-503.53 643.15,-509.53 637.15,-515.53 631.15,-515.53 631.15,-515.53 592.15,-515.53 592.15,-515.53 586.15,-515.53 580.15,-509.53 580.15,-503.53 580.15,-503.53 580.15,-491.53 580.15,-491.53 580.15,-485.53 586.15,-479.53 592.15,-479.53"/>
<text text-anchor="middle" x="611.65" y="-493.83" font-family="Arial" font-size="14.00">hasPart</text>
</g>
<!-- topicref&#45;&gt;hasPart -->
<g id="edge7" class="edge">
<title>topicref&#45;&gt;hasPart</title>
<path fill="none" stroke="#1f78b4" d="M566.54,-421.81C574.81,-435.7 586.36,-455.08 595.71,-470.77"/>
<polygon fill="#a6cee3" stroke="#1f78b4" points="592.79,-472.7 600.91,-479.5 598.8,-469.12 592.79,-472.7"/>
</g>
<!-- hasInstance -->
<g id="node9" class="node">
<title>hasInstance</title>
<path fill="#1afabc" stroke="black" d="M539.99,-336.77C539.99,-336.77 604.99,-336.77 604.99,-336.77 610.99,-336.77 616.99,-342.77 616.99,-348.77 616.99,-348.77 616.99,-360.77 616.99,-360.77 616.99,-366.77 610.99,-372.77 604.99,-372.77 604.99,-372.77 539.99,-372.77 539.99,-372.77 533.99,-372.77 527.99,-366.77 527.99,-360.77 527.99,-360.77 527.99,-348.77 527.99,-348.77 527.99,-342.77 533.99,-336.77 539.99,-336.77"/>
<text text-anchor="middle" x="572.49" y="-351.07" font-family="Arial" font-size="14.00">hasInstance</text>
</g>
<!-- topicref&#45;&gt;hasInstance -->
<g id="edge8" class="edge">
<title>topicref&#45;&gt;hasInstance</title>
<path fill="none" stroke="#1f78b4" d="M561.99,-385.49C562.34,-384.46 562.7,-383.41 563.06,-382.35"/>
<polygon fill="#a6cee3" stroke="#1f78b4" points="566.39,-383.44 566.31,-372.85 559.76,-381.18 566.39,-383.44"/>
</g>
<!-- hasRelated -->
<g id="node10" class="node">
<title>hasRelated</title>
<path fill="#1afabc" stroke="black" d="M653.15,-322.13C653.15,-322.13 714.15,-322.13 714.15,-322.13 720.15,-322.13 726.15,-328.13 726.15,-334.13 726.15,-334.13 726.15,-346.13 726.15,-346.13 726.15,-352.13 720.15,-358.13 714.15,-358.13 714.15,-358.13 653.15,-358.13 653.15,-358.13 647.15,-358.13 641.15,-352.13 641.15,-346.13 641.15,-346.13 641.15,-334.13 641.15,-334.13 641.15,-328.13 647.15,-322.13 653.15,-322.13"/>
<text text-anchor="middle" x="683.65" y="-336.43" font-family="Arial" font-size="14.00">hasRelated</text>
</g>
<!-- topicref&#45;&gt;hasRelated -->
<g id="edge9" class="edge">
<title>topicref&#45;&gt;hasRelated</title>
<path fill="none" stroke="#1f78b4" d="M586.39,-388.49C601.85,-380.8 620.92,-371.32 638.07,-362.8"/>
<polygon fill="#a6cee3" stroke="#1f78b4" points="639.96,-365.76 647.36,-358.18 636.84,-359.49 639.96,-365.76"/>
</g>
<!-- subjectdef -->
<g id="node11" class="node">
<title>subjectdef</title>
<path fill="#1afabc" stroke="black" d="M588.72,-276.98C588.72,-276.98 642.72,-276.98 642.72,-276.98 648.72,-276.98 654.72,-282.98 654.72,-288.98 654.72,-288.98 654.72,-300.98 654.72,-300.98 654.72,-306.98 648.72,-312.98 642.72,-312.98 642.72,-312.98 588.72,-312.98 588.72,-312.98 582.72,-312.98 576.72,-306.98 576.72,-300.98 576.72,-300.98 576.72,-288.98 576.72,-288.98 576.72,-282.98 582.72,-276.98 588.72,-276.98"/>
<text text-anchor="middle" x="615.72" y="-291.28" font-family="Arial" font-size="14.00">subjectdef</text>
</g>
<!-- topicref&#45;&gt;subjectdef -->
<g id="edge10" class="edge">
<title>topicref&#45;&gt;subjectdef</title>
<path fill="none" stroke="#1f78b4" d="M565.93,-385.27C575.51,-367.91 589.96,-341.69 600.84,-321.97"/>
<polygon fill="#a6cee3" stroke="#1f78b4" points="603.93,-323.6 605.7,-313.16 597.8,-320.22 603.93,-323.6"/>
</g>
<!-- subjectHead -->
<g id="node12" class="node">
<title>subjectHead</title>
<path fill="#1afabc" stroke="black" d="M520.36,-537.52C520.36,-537.52 588.36,-537.52 588.36,-537.52 594.36,-537.52 600.36,-543.52 600.36,-549.52 600.36,-549.52 600.36,-561.52 600.36,-561.52 600.36,-567.52 594.36,-573.52 588.36,-573.52 588.36,-573.52 520.36,-573.52 520.36,-573.52 514.36,-573.52 508.36,-567.52 508.36,-561.52 508.36,-561.52 508.36,-549.52 508.36,-549.52 508.36,-543.52 514.36,-537.52 520.36,-537.52"/>
<text text-anchor="middle" x="554.36" y="-551.82" font-family="Arial" font-size="14.00">subjectHead</text>
</g>
<!-- topicref&#45;&gt;subjectHead -->
<g id="edge11" class="edge">
<title>topicref&#45;&gt;subjectHead</title>
<path fill="none" stroke="#1f78b4" d="M555.59,-421.73C555.35,-447.72 554.91,-496.02 554.62,-526.92"/>
<polygon fill="#a6cee3" stroke="#1f78b4" points="551.12,-527.03 554.53,-537.06 558.12,-527.09 551.12,-527.03"/>
</g>
<!-- enumerationdef -->
<g id="node13" class="node">
<title>enumerationdef</title>
<path fill="#1afabc" stroke="black" d="M654.04,-423.67C654.04,-423.67 741.04,-423.67 741.04,-423.67 747.04,-423.67 753.04,-429.67 753.04,-435.67 753.04,-435.67 753.04,-447.67 753.04,-447.67 753.04,-453.67 747.04,-459.67 741.04,-459.67 741.04,-459.67 654.04,-459.67 654.04,-459.67 648.04,-459.67 642.04,-453.67 642.04,-447.67 642.04,-447.67 642.04,-435.67 642.04,-435.67 642.04,-429.67 648.04,-423.67 654.04,-423.67"/>
<text text-anchor="middle" x="697.54" y="-437.97" font-family="Arial" font-size="14.00">enumerationdef</text>
</g>
<!-- topicref&#45;&gt;enumerationdef -->
<g id="edge12" class="edge">
<title>topicref&#45;&gt;enumerationdef</title>
<path fill="none" stroke="#1f78b4" d="M586.52,-411.95C599.94,-415.55 616.23,-419.91 632.14,-424.16"/>
<polygon fill="#a6cee3" stroke="#1f78b4" points="631.4,-427.59 641.97,-426.8 633.21,-420.83 631.4,-427.59"/>
</g>
<!-- defaultSubject -->
<g id="node14" class="node">
<title>defaultSubject</title>
<path fill="#1afabc" stroke="black" d="M409.28,-491.4C409.28,-491.4 487.28,-491.4 487.28,-491.4 493.28,-491.4 499.28,-497.4 499.28,-503.4 499.28,-503.4 499.28,-515.4 499.28,-515.4 499.28,-521.4 493.28,-527.4 487.28,-527.4 487.28,-527.4 409.28,-527.4 409.28,-527.4 403.28,-527.4 397.28,-521.4 397.28,-515.4 397.28,-515.4 397.28,-503.4 397.28,-503.4 397.28,-497.4 403.28,-491.4 409.28,-491.4"/>
<text text-anchor="middle" x="448.28" y="-505.7" font-family="Arial" font-size="14.00">defaultSubject</text>
</g>
<!-- topicref&#45;&gt;defaultSubject -->
<g id="edge13" class="edge">
<title>topicref&#45;&gt;defaultSubject</title>
<path fill="none" stroke="#1f78b4" d="M537.04,-422.13C519.62,-439.25 493.51,-464.92 474.12,-484"/>
<polygon fill="#a6cee3" stroke="#1f78b4" points="471.46,-481.7 466.78,-491.21 476.37,-486.69 471.46,-481.7"/>
</g>
<!-- relatedSubjects -->
<g id="node15" class="node">
<title>relatedSubjects</title>
<path fill="#1afabc" stroke="black" d="M664.01,-477.62C664.01,-477.62 750.01,-477.62 750.01,-477.62 756.01,-477.62 762.01,-483.62 762.01,-489.62 762.01,-489.62 762.01,-501.62 762.01,-501.62 762.01,-507.62 756.01,-513.62 750.01,-513.62 750.01,-513.62 664.01,-513.62 664.01,-513.62 658.01,-513.62 652.01,-507.62 652.01,-501.62 652.01,-501.62 652.01,-489.62 652.01,-489.62 652.01,-483.62 658.01,-477.62 664.01,-477.62"/>
<text text-anchor="middle" x="707.01" y="-491.92" font-family="Arial" font-size="14.00">relatedSubjects</text>
</g>
<!-- topicref&#45;&gt;relatedSubjects -->
<g id="edge14" class="edge">
<title>topicref&#45;&gt;relatedSubjects</title>
<path fill="none" stroke="#1f78b4" d="M585.64,-421.88C609.36,-436.29 642.7,-456.54 668.43,-472.18"/>
<polygon fill="#a6cee3" stroke="#1f78b4" points="666.83,-475.3 677.19,-477.5 670.46,-469.31 666.83,-475.3"/>
</g>
<!-- subjectHeadMeta -->
<g id="node17" class="node">
<title>subjectHeadMeta</title>
<path fill="#1afabc" stroke="black" d="M326.28,-156.98C326.28,-156.98 424.28,-156.98 424.28,-156.98 430.28,-156.98 436.28,-162.98 436.28,-168.98 436.28,-168.98 436.28,-180.98 436.28,-180.98 436.28,-186.98 430.28,-192.98 424.28,-192.98 424.28,-192.98 326.28,-192.98 326.28,-192.98 320.28,-192.98 314.28,-186.98 314.28,-180.98 314.28,-180.98 314.28,-168.98 314.28,-168.98 314.28,-162.98 320.28,-156.98 326.28,-156.98"/>
<text text-anchor="middle" x="375.28" y="-171.28" font-family="Arial" font-size="14.00">subjectHeadMeta</text>
</g>
<!-- topicmeta&#45;&gt;subjectHeadMeta -->
<g id="edge16" class="edge">
<title>topicmeta&#45;&gt;subjectHeadMeta</title>
<path fill="none" stroke="#1f78b4" d="M378.29,-203.52C378.27,-203.41 378.26,-203.31 378.25,-203.2"/>
<polygon fill="#a6cee3" stroke="#1f78b4" points="381.73,-202.79 377.2,-193.21 374.77,-203.52 381.73,-202.79"/>
</g>
<!-- elementdef -->
<g id="node19" class="node">
<title>elementdef</title>
<path fill="#1afabc" stroke="black" d="M12.11,-296.24C12.11,-296.24 72.11,-296.24 72.11,-296.24 78.11,-296.24 84.11,-302.24 84.11,-308.24 84.11,-308.24 84.11,-320.24 84.11,-320.24 84.11,-326.24 78.11,-332.24 72.11,-332.24 72.11,-332.24 12.11,-332.24 12.11,-332.24 6.11,-332.24 0.11,-326.24 0.11,-320.24 0.11,-320.24 0.11,-308.24 0.11,-308.24 0.11,-302.24 6.11,-296.24 12.11,-296.24"/>
<text text-anchor="middle" x="42.11" y="-310.54" font-family="Arial" font-size="14.00">elementdef</text>
</g>
<!-- data&#45;&gt;elementdef -->
<g id="edge18" class="edge">
<title>data&#45;&gt;elementdef</title>
<path fill="none" stroke="#1f78b4" d="M134.69,-283.85C122.58,-287.83 107.9,-292.65 93.82,-297.27"/>
<polygon fill="#a6cee3" stroke="#1f78b4" points="92.63,-293.98 84.22,-300.42 94.81,-300.63 92.63,-293.98"/>
</g>
<!-- attributedef -->
<g id="node20" class="node">
<title>attributedef</title>
<path fill="#1afabc" stroke="black" d="M11.73,-219.16C11.73,-219.16 71.73,-219.16 71.73,-219.16 77.73,-219.16 83.73,-225.16 83.73,-231.16 83.73,-231.16 83.73,-243.16 83.73,-243.16 83.73,-249.16 77.73,-255.16 71.73,-255.16 71.73,-255.16 11.73,-255.16 11.73,-255.16 5.73,-255.16 -0.27,-249.16 -0.27,-243.16 -0.27,-243.16 -0.27,-231.16 -0.27,-231.16 -0.27,-225.16 5.73,-219.16 11.73,-219.16"/>
<text text-anchor="middle" x="41.73" y="-233.46" font-family="Arial" font-size="14.00">attributedef</text>
</g>
<!-- data&#45;&gt;attributedef -->
<g id="edge19" class="edge">
<title>data&#45;&gt;attributedef</title>
<path fill="none" stroke="#1f78b4" d="M134.61,-266.36C122.46,-262.54 107.73,-257.91 93.61,-253.47"/>
<polygon fill="#a6cee3" stroke="#1f78b4" points="94.56,-250.1 83.97,-250.44 92.46,-256.78 94.56,-250.1"/>
</g>
<!-- subjectRelTable -->
<g id="node22" class="node">
<title>subjectRelTable</title>
<path fill="#1afabc" stroke="black" d="M45.32,-56.25C45.32,-56.25 133.32,-56.25 133.32,-56.25 139.32,-56.25 145.32,-62.25 145.32,-68.25 145.32,-68.25 145.32,-80.25 145.32,-80.25 145.32,-86.25 139.32,-92.25 133.32,-92.25 133.32,-92.25 45.32,-92.25 45.32,-92.25 39.32,-92.25 33.32,-86.25 33.32,-80.25 33.32,-80.25 33.32,-68.25 33.32,-68.25 33.32,-62.25 39.32,-56.25 45.32,-56.25"/>
<text text-anchor="middle" x="89.32" y="-70.55" font-family="Arial" font-size="14.00">subjectRelTable</text>
</g>
<!-- reltable&#45;&gt;subjectRelTable -->
<g id="edge21" class="edge">
<title>reltable&#45;&gt;subjectRelTable</title>
<path fill="none" stroke="#1f78b4" d="M179.1,-145.5C162.09,-132 138.66,-113.41 120,-98.6"/>
<polygon fill="#a6cee3" stroke="#1f78b4" points="122.07,-95.77 112.06,-92.3 117.72,-101.26 122.07,-95.77"/>
</g>
<!-- subjectRelHeader -->
<g id="node24" class="node">
<title>subjectRelHeader</title>
<path fill="#1afabc" stroke="black" d="M185.94,-459.81C185.94,-459.81 285.94,-459.81 285.94,-459.81 291.94,-459.81 297.94,-465.81 297.94,-471.81 297.94,-471.81 297.94,-483.81 297.94,-483.81 297.94,-489.81 291.94,-495.81 285.94,-495.81 285.94,-495.81 185.94,-495.81 185.94,-495.81 179.94,-495.81 173.94,-489.81 173.94,-483.81 173.94,-483.81 173.94,-471.81 173.94,-471.81 173.94,-465.81 179.94,-459.81 185.94,-459.81"/>
<text text-anchor="middle" x="235.94" y="-474.11" font-family="Arial" font-size="14.00">subjectRelHeader</text>
</g>
<!-- relrow&#45;&gt;subjectRelHeader -->
<g id="edge23" class="edge">
<title>relrow&#45;&gt;subjectRelHeader</title>
<path fill="none" stroke="#1f78b4" d="M231.4,-434.43C231.9,-439.14 232.44,-444.33 232.97,-449.44"/>
<polygon fill="#a6cee3" stroke="#1f78b4" points="229.52,-450.03 234.04,-459.61 236.48,-449.3 229.52,-450.03"/>
</g>
<!-- subjectRel -->
<g id="node25" class="node">
<title>subjectRel</title>
<path fill="#1afabc" stroke="black" d="M88.57,-472.5C88.57,-472.5 144.57,-472.5 144.57,-472.5 150.57,-472.5 156.57,-478.5 156.57,-484.5 156.57,-484.5 156.57,-496.5 156.57,-496.5 156.57,-502.5 150.57,-508.5 144.57,-508.5 144.57,-508.5 88.57,-508.5 88.57,-508.5 82.57,-508.5 76.57,-502.5 76.57,-496.5 76.57,-496.5 76.57,-484.5 76.57,-484.5 76.57,-478.5 82.57,-472.5 88.57,-472.5"/>
<text text-anchor="middle" x="116.57" y="-486.8" font-family="Arial" font-size="14.00">subjectRel</text>
</g>
<!-- relrow&#45;&gt;subjectRel -->
<g id="edge24" class="edge">
<title>relrow&#45;&gt;subjectRel</title>
<path fill="none" stroke="#1f78b4" d="M202.46,-434.08C187.59,-443.85 168.95,-456.09 152.84,-466.68"/>
<polygon fill="#a6cee3" stroke="#1f78b4" points="150.62,-463.94 144.19,-472.36 154.47,-469.79 150.62,-463.94"/>
</g>
<!-- subjectRole -->
<g id="node27" class="node">
<title>subjectRole</title>
<path fill="#1afabc" stroke="black" d="M510.81,-1.09C510.81,-1.09 573.81,-1.09 573.81,-1.09 579.81,-1.09 585.81,-7.09 585.81,-13.09 585.81,-13.09 585.81,-25.09 585.81,-25.09 585.81,-31.09 579.81,-37.09 573.81,-37.09 573.81,-37.09 510.81,-37.09 510.81,-37.09 504.81,-37.09 498.81,-31.09 498.81,-25.09 498.81,-25.09 498.81,-13.09 498.81,-13.09 498.81,-7.09 504.81,-1.09 510.81,-1.09"/>
<text text-anchor="middle" x="542.31" y="-15.39" font-family="Arial" font-size="14.00">subjectRole</text>
</g>
<!-- relcell&#45;&gt;subjectRole -->
<g id="edge26" class="edge">
<title>relcell&#45;&gt;subjectRole</title>
<path fill="none" stroke="#1f78b4" d="M483.41,-102.51C494.63,-86.62 511.07,-63.34 523.73,-45.41"/>
<polygon fill="#a6cee3" stroke="#1f78b4" points="526.69,-47.28 529.6,-37.09 520.97,-43.24 526.69,-47.28"/>
</g>
</g>
</svg>
