<?xml version="1.0" encoding="UTF-8" standalone="no"?>
<!DOCTYPE svg PUBLIC "-//W3C//DTD SVG 1.1//EN"
 "http://www.w3.org/Graphics/SVG/1.1/DTD/svg11.dtd">
<!-- Generated by graphviz version 6.0.1 (20220911.1526)
 -->
<!-- Pages: 1 -->
<svg width="940pt" height="879pt"
 viewBox="0.00 0.00 940.00 879.00" xmlns="http://www.w3.org/2000/svg" xmlns:xlink="http://www.w3.org/1999/xlink">
<g id="graph0" class="graph" transform="scale(1 1) rotate(0) translate(4 875)">
<polygon fill="white" stroke="none" points="-4,4 -4,-875 936,-875 936,4 -4,4"/>
<!-- taskModule -->
<g id="node1" class="node">
<title>taskModule</title>
<path fill="#dddddd" stroke="black" d="M441.44,-462.8C441.44,-462.8 503.44,-462.8 503.44,-462.8 509.44,-462.8 515.44,-468.8 515.44,-474.8 515.44,-474.8 515.44,-486.8 515.44,-486.8 515.44,-492.8 509.44,-498.8 503.44,-498.8 503.44,-498.8 441.44,-498.8 441.44,-498.8 435.44,-498.8 429.44,-492.8 429.44,-486.8 429.44,-486.8 429.44,-474.8 429.44,-474.8 429.44,-468.8 435.44,-462.8 441.44,-462.8"/>
<text text-anchor="middle" x="472.44" y="-477.1" font-family="Arial" font-size="14.00">taskModule</text>
</g>
<!-- topic -->
<g id="node2" class="node">
<title>topic</title>
<path fill="#afa7f4" stroke="black" d="M553.08,-300.98C553.08,-300.98 583.08,-300.98 583.08,-300.98 589.08,-300.98 595.08,-306.98 595.08,-312.98 595.08,-312.98 595.08,-324.98 595.08,-324.98 595.08,-330.98 589.08,-336.98 583.08,-336.98 583.08,-336.98 553.08,-336.98 553.08,-336.98 547.08,-336.98 541.08,-330.98 541.08,-324.98 541.08,-324.98 541.08,-312.98 541.08,-312.98 541.08,-306.98 547.08,-300.98 553.08,-300.98"/>
<text text-anchor="middle" x="568.08" y="-315.28" font-family="Arial" font-size="14.00">topic</text>
</g>
<!-- taskModule&#45;&gt;topic -->
<g id="edge1" class="edge">
<title>taskModule&#45;&gt;topic</title>
<path fill="none" stroke="#1f78b4" d="M483.23,-462.55C500.02,-434.14 532.5,-379.18 552.05,-346.12"/>
<polygon fill="#a6cee3" stroke="#1f78b4" points="555.12,-347.8 557.19,-337.41 549.09,-344.24 555.12,-347.8"/>
</g>
<!-- body -->
<g id="node4" class="node">
<title>body</title>
<path fill="#afa7f4" stroke="black" d="M604.97,-536.22C604.97,-536.22 634.97,-536.22 634.97,-536.22 640.97,-536.22 646.97,-542.22 646.97,-548.22 646.97,-548.22 646.97,-560.22 646.97,-560.22 646.97,-566.22 640.97,-572.22 634.97,-572.22 634.97,-572.22 604.97,-572.22 604.97,-572.22 598.97,-572.22 592.97,-566.22 592.97,-560.22 592.97,-560.22 592.97,-548.22 592.97,-548.22 592.97,-542.22 598.97,-536.22 604.97,-536.22"/>
<text text-anchor="middle" x="619.97" y="-550.52" font-family="Arial" font-size="14.00">body</text>
</g>
<!-- taskModule&#45;&gt;body -->
<g id="edge3" class="edge">
<title>taskModule&#45;&gt;body</title>
<path fill="none" stroke="#1f78b4" d="M508.91,-498.95C531.71,-510.29 560.95,-524.85 583.71,-536.18"/>
<polygon fill="#a6cee3" stroke="#1f78b4" points="582.2,-539.33 592.72,-540.66 585.32,-533.07 582.2,-539.33"/>
</g>
<!-- section -->
<g id="node6" class="node">
<title>section</title>
<path fill="#afa7f4" stroke="black" d="M370.41,-195.91C370.41,-195.91 405.41,-195.91 405.41,-195.91 411.41,-195.91 417.41,-201.91 417.41,-207.91 417.41,-207.91 417.41,-219.91 417.41,-219.91 417.41,-225.91 411.41,-231.91 405.41,-231.91 405.41,-231.91 370.41,-231.91 370.41,-231.91 364.41,-231.91 358.41,-225.91 358.41,-219.91 358.41,-219.91 358.41,-207.91 358.41,-207.91 358.41,-201.91 364.41,-195.91 370.41,-195.91"/>
<text text-anchor="middle" x="387.91" y="-210.21" font-family="Arial" font-size="14.00">section</text>
</g>
<!-- taskModule&#45;&gt;section -->
<g id="edge5" class="edge">
<title>taskModule&#45;&gt;section</title>
<path fill="none" stroke="#1f78b4" d="M466.63,-462.45C452.09,-416.54 414.05,-296.44 396.73,-241.75"/>
<polygon fill="#a6cee3" stroke="#1f78b4" points="400.01,-240.51 393.65,-232.03 393.33,-242.62 400.01,-240.51"/>
</g>
<!-- ol -->
<g id="node13" class="node">
<title>ol</title>
<path fill="#afa7f4" stroke="black" d="M580.86,-614.24C580.86,-614.24 610.86,-614.24 610.86,-614.24 616.86,-614.24 622.86,-620.24 622.86,-626.24 622.86,-626.24 622.86,-638.24 622.86,-638.24 622.86,-644.24 616.86,-650.24 610.86,-650.24 610.86,-650.24 580.86,-650.24 580.86,-650.24 574.86,-650.24 568.86,-644.24 568.86,-638.24 568.86,-638.24 568.86,-626.24 568.86,-626.24 568.86,-620.24 574.86,-614.24 580.86,-614.24"/>
<text text-anchor="middle" x="595.86" y="-628.54" font-family="Arial" font-size="14.00">ol</text>
</g>
<!-- taskModule&#45;&gt;ol -->
<g id="edge12" class="edge">
<title>taskModule&#45;&gt;ol</title>
<path fill="none" stroke="#1f78b4" d="M487.33,-499.06C509.01,-525.67 549.41,-575.23 574.33,-605.82"/>
<polygon fill="#a6cee3" stroke="#1f78b4" points="571.89,-608.36 580.92,-613.9 577.32,-603.94 571.89,-608.36"/>
</g>
<!-- ul -->
<g id="node16" class="node">
<title>ul</title>
<path fill="#afa7f4" stroke="black" d="M365.97,-300.19C365.97,-300.19 395.97,-300.19 395.97,-300.19 401.97,-300.19 407.97,-306.19 407.97,-312.19 407.97,-312.19 407.97,-324.19 407.97,-324.19 407.97,-330.19 401.97,-336.19 395.97,-336.19 395.97,-336.19 365.97,-336.19 365.97,-336.19 359.97,-336.19 353.97,-330.19 353.97,-324.19 353.97,-324.19 353.97,-312.19 353.97,-312.19 353.97,-306.19 359.97,-300.19 365.97,-300.19"/>
<text text-anchor="middle" x="380.97" y="-314.49" font-family="Arial" font-size="14.00">ul</text>
</g>
<!-- taskModule&#45;&gt;ul -->
<g id="edge15" class="edge">
<title>taskModule&#45;&gt;ul</title>
<path fill="none" stroke="#1f78b4" d="M462.3,-462.77C446.23,-434.2 414.81,-378.35 396.08,-345.05"/>
<polygon fill="#a6cee3" stroke="#1f78b4" points="399.1,-343.29 391.15,-336.29 393,-346.73 399.1,-343.29"/>
</g>
<!-- li -->
<g id="node19" class="node">
<title>li</title>
<path fill="#afa7f4" stroke="black" d="M220.84,-499.66C220.84,-499.66 250.84,-499.66 250.84,-499.66 256.84,-499.66 262.84,-505.66 262.84,-511.66 262.84,-511.66 262.84,-523.66 262.84,-523.66 262.84,-529.66 256.84,-535.66 250.84,-535.66 250.84,-535.66 220.84,-535.66 220.84,-535.66 214.84,-535.66 208.84,-529.66 208.84,-523.66 208.84,-523.66 208.84,-511.66 208.84,-511.66 208.84,-505.66 214.84,-499.66 220.84,-499.66"/>
<text text-anchor="middle" x="235.84" y="-513.96" font-family="Arial" font-size="14.00">li</text>
</g>
<!-- taskModule&#45;&gt;li -->
<g id="edge18" class="edge">
<title>taskModule&#45;&gt;li</title>
<path fill="none" stroke="#1f78b4" d="M429.32,-487.51C384.62,-494.48 315.48,-505.25 273.08,-511.85"/>
<polygon fill="#a6cee3" stroke="#1f78b4" points="272.51,-508.4 263.17,-513.4 273.59,-515.32 272.51,-508.4"/>
</g>
<!-- ph -->
<g id="node24" class="node">
<title>ph</title>
<path fill="#afa7f4" stroke="black" d="M500.32,-621.65C500.32,-621.65 530.32,-621.65 530.32,-621.65 536.32,-621.65 542.32,-627.65 542.32,-633.65 542.32,-633.65 542.32,-645.65 542.32,-645.65 542.32,-651.65 536.32,-657.65 530.32,-657.65 530.32,-657.65 500.32,-657.65 500.32,-657.65 494.32,-657.65 488.32,-651.65 488.32,-645.65 488.32,-645.65 488.32,-633.65 488.32,-633.65 488.32,-627.65 494.32,-621.65 500.32,-621.65"/>
<text text-anchor="middle" x="515.32" y="-635.95" font-family="Arial" font-size="14.00">ph</text>
</g>
<!-- taskModule&#45;&gt;ph -->
<g id="edge23" class="edge">
<title>taskModule&#45;&gt;ph</title>
<path fill="none" stroke="#1f78b4" d="M477.36,-499.02C484.82,-526.67 499.06,-579.43 507.82,-611.87"/>
<polygon fill="#a6cee3" stroke="#1f78b4" points="504.47,-612.9 510.46,-621.64 511.23,-611.07 504.47,-612.9"/>
</g>
<!-- itemgroup -->
<g id="node26" class="node">
<title>itemgroup</title>
<path fill="#afa7f4" stroke="black" d="M679.88,-361.21C679.88,-361.21 732.88,-361.21 732.88,-361.21 738.88,-361.21 744.88,-367.21 744.88,-373.21 744.88,-373.21 744.88,-385.21 744.88,-385.21 744.88,-391.21 738.88,-397.21 732.88,-397.21 732.88,-397.21 679.88,-397.21 679.88,-397.21 673.88,-397.21 667.88,-391.21 667.88,-385.21 667.88,-385.21 667.88,-373.21 667.88,-373.21 667.88,-367.21 673.88,-361.21 679.88,-361.21"/>
<text text-anchor="middle" x="706.38" y="-375.51" font-family="Arial" font-size="14.00">itemgroup</text>
</g>
<!-- taskModule&#45;&gt;itemgroup -->
<g id="edge25" class="edge">
<title>taskModule&#45;&gt;itemgroup</title>
<path fill="none" stroke="#1f78b4" d="M513.99,-462.75C554.4,-445.2 615.73,-418.57 658.24,-400.11"/>
<polygon fill="#a6cee3" stroke="#1f78b4" points="659.76,-403.26 667.54,-396.07 656.97,-396.84 659.76,-403.26"/>
</g>
<!-- simpletable -->
<g id="node32" class="node">
<title>simpletable</title>
<path fill="#afa7f4" stroke="black" d="M241.61,-390.71C241.61,-390.71 303.61,-390.71 303.61,-390.71 309.61,-390.71 315.61,-396.71 315.61,-402.71 315.61,-402.71 315.61,-414.71 315.61,-414.71 315.61,-420.71 309.61,-426.71 303.61,-426.71 303.61,-426.71 241.61,-426.71 241.61,-426.71 235.61,-426.71 229.61,-420.71 229.61,-414.71 229.61,-414.71 229.61,-402.71 229.61,-402.71 229.61,-396.71 235.61,-390.71 241.61,-390.71"/>
<text text-anchor="middle" x="272.61" y="-405.01" font-family="Arial" font-size="14.00">simpletable</text>
</g>
<!-- taskModule&#45;&gt;simpletable -->
<g id="edge31" class="edge">
<title>taskModule&#45;&gt;simpletable</title>
<path fill="none" stroke="#1f78b4" d="M429.08,-465.15C398.7,-454.19 357.93,-439.48 325.62,-427.83"/>
<polygon fill="#a6cee3" stroke="#1f78b4" points="326.48,-424.42 315.89,-424.32 324.1,-431 326.48,-424.42"/>
</g>
<!-- sthead -->
<g id="node34" class="node">
<title>sthead</title>
<path fill="#afa7f4" stroke="black" d="M621.12,-468.22C621.12,-468.22 654.12,-468.22 654.12,-468.22 660.12,-468.22 666.12,-474.22 666.12,-480.22 666.12,-480.22 666.12,-492.22 666.12,-492.22 666.12,-498.22 660.12,-504.22 654.12,-504.22 654.12,-504.22 621.12,-504.22 621.12,-504.22 615.12,-504.22 609.12,-498.22 609.12,-492.22 609.12,-492.22 609.12,-480.22 609.12,-480.22 609.12,-474.22 615.12,-468.22 621.12,-468.22"/>
<text text-anchor="middle" x="637.62" y="-482.52" font-family="Arial" font-size="14.00">sthead</text>
</g>
<!-- taskModule&#45;&gt;sthead -->
<g id="edge33" class="edge">
<title>taskModule&#45;&gt;sthead</title>
<path fill="none" stroke="#1f78b4" d="M515.84,-482.22C541.6,-483.07 573.98,-484.13 598.88,-484.95"/>
<polygon fill="#a6cee3" stroke="#1f78b4" points="598.94,-488.45 609.05,-485.28 599.17,-481.45 598.94,-488.45"/>
</g>
<!-- stentry -->
<g id="node36" class="node">
<title>stentry</title>
<path fill="#afa7f4" stroke="black" d="M340.05,-656.71C340.05,-656.71 373.05,-656.71 373.05,-656.71 379.05,-656.71 385.05,-662.71 385.05,-668.71 385.05,-668.71 385.05,-680.71 385.05,-680.71 385.05,-686.71 379.05,-692.71 373.05,-692.71 373.05,-692.71 340.05,-692.71 340.05,-692.71 334.05,-692.71 328.05,-686.71 328.05,-680.71 328.05,-680.71 328.05,-668.71 328.05,-668.71 328.05,-662.71 334.05,-656.71 340.05,-656.71"/>
<text text-anchor="middle" x="356.55" y="-671.01" font-family="Arial" font-size="14.00">stentry</text>
</g>
<!-- taskModule&#45;&gt;stentry -->
<g id="edge35" class="edge">
<title>taskModule&#45;&gt;stentry</title>
<path fill="none" stroke="#1f78b4" d="M461.54,-499.04C440.99,-533.41 396.47,-607.92 372.54,-647.96"/>
<polygon fill="#a6cee3" stroke="#1f78b4" points="369.47,-646.28 367.34,-656.66 375.48,-649.87 369.47,-646.28"/>
</g>
<!-- strow -->
<g id="node41" class="node">
<title>strow</title>
<path fill="#afa7f4" stroke="black" d="M427.36,-617.89C427.36,-617.89 457.36,-617.89 457.36,-617.89 463.36,-617.89 469.36,-623.89 469.36,-629.89 469.36,-629.89 469.36,-641.89 469.36,-641.89 469.36,-647.89 463.36,-653.89 457.36,-653.89 457.36,-653.89 427.36,-653.89 427.36,-653.89 421.36,-653.89 415.36,-647.89 415.36,-641.89 415.36,-641.89 415.36,-629.89 415.36,-629.89 415.36,-623.89 421.36,-617.89 427.36,-617.89"/>
<text text-anchor="middle" x="442.36" y="-632.19" font-family="Arial" font-size="14.00">strow</text>
</g>
<!-- taskModule&#45;&gt;strow -->
<g id="edge40" class="edge">
<title>taskModule&#45;&gt;strow</title>
<path fill="none" stroke="#1f78b4" d="M468.93,-498.89C463.75,-525.6 454.01,-575.81 447.87,-607.47"/>
<polygon fill="#a6cee3" stroke="#1f78b4" points="444.41,-606.95 445.94,-617.43 451.28,-608.28 444.41,-606.95"/>
</g>
<!-- task -->
<g id="node3" class="node">
<title>task</title>
<path fill="#1afabc" stroke="black" d="M625.71,-184.9C625.71,-184.9 655.71,-184.9 655.71,-184.9 661.71,-184.9 667.71,-190.9 667.71,-196.9 667.71,-196.9 667.71,-208.9 667.71,-208.9 667.71,-214.9 661.71,-220.9 655.71,-220.9 655.71,-220.9 625.71,-220.9 625.71,-220.9 619.71,-220.9 613.71,-214.9 613.71,-208.9 613.71,-208.9 613.71,-196.9 613.71,-196.9 613.71,-190.9 619.71,-184.9 625.71,-184.9"/>
<text text-anchor="middle" x="640.71" y="-199.2" font-family="Arial" font-size="14.00">task</text>
</g>
<!-- topic&#45;&gt;task -->
<g id="edge2" class="edge">
<title>topic&#45;&gt;task</title>
<path fill="none" stroke="#1f78b4" d="M579.43,-300.85C591.42,-281.68 610.46,-251.26 624.13,-229.41"/>
<polygon fill="#a6cee3" stroke="#1f78b4" points="627.11,-231.25 629.44,-220.91 621.17,-227.53 627.11,-231.25"/>
</g>
<!-- taskbody -->
<g id="node5" class="node">
<title>taskbody</title>
<path fill="#1afabc" stroke="black" d="M752.66,-619.99C752.66,-619.99 799.66,-619.99 799.66,-619.99 805.66,-619.99 811.66,-625.99 811.66,-631.99 811.66,-631.99 811.66,-643.99 811.66,-643.99 811.66,-649.99 805.66,-655.99 799.66,-655.99 799.66,-655.99 752.66,-655.99 752.66,-655.99 746.66,-655.99 740.66,-649.99 740.66,-643.99 740.66,-643.99 740.66,-631.99 740.66,-631.99 740.66,-625.99 746.66,-619.99 752.66,-619.99"/>
<text text-anchor="middle" x="776.16" y="-634.29" font-family="Arial" font-size="14.00">taskbody</text>
</g>
<!-- body&#45;&gt;taskbody -->
<g id="edge4" class="edge">
<title>body&#45;&gt;taskbody</title>
<path fill="none" stroke="#1f78b4" d="M647.17,-568.81C670.97,-581.57 705.92,-600.32 733.44,-615.08"/>
<polygon fill="#a6cee3" stroke="#1f78b4" points="732,-618.27 742.47,-619.92 735.31,-612.1 732,-618.27"/>
</g>
<!-- prereq -->
<g id="node7" class="node">
<title>prereq</title>
<path fill="#1afabc" stroke="black" d="M394.44,-54.98C394.44,-54.98 426.44,-54.98 426.44,-54.98 432.44,-54.98 438.44,-60.98 438.44,-66.98 438.44,-66.98 438.44,-78.98 438.44,-78.98 438.44,-84.98 432.44,-90.98 426.44,-90.98 426.44,-90.98 394.44,-90.98 394.44,-90.98 388.44,-90.98 382.44,-84.98 382.44,-78.98 382.44,-78.98 382.44,-66.98 382.44,-66.98 382.44,-60.98 388.44,-54.98 394.44,-54.98"/>
<text text-anchor="middle" x="410.44" y="-69.28" font-family="Arial" font-size="14.00">prereq</text>
</g>
<!-- section&#45;&gt;prereq -->
<g id="edge6" class="edge">
<title>section&#45;&gt;prereq</title>
<path fill="none" stroke="#1f78b4" d="M390.81,-195.78C394.65,-171.78 401.45,-129.24 405.95,-101.07"/>
<polygon fill="#a6cee3" stroke="#1f78b4" points="409.43,-101.47 407.55,-91.04 402.52,-100.37 409.43,-101.47"/>
</g>
<!-- context -->
<g id="node8" class="node">
<title>context</title>
<path fill="#1afabc" stroke="black" d="M323.35,-52.7C323.35,-52.7 359.35,-52.7 359.35,-52.7 365.35,-52.7 371.35,-58.7 371.35,-64.7 371.35,-64.7 371.35,-76.7 371.35,-76.7 371.35,-82.7 365.35,-88.7 359.35,-88.7 359.35,-88.7 323.35,-88.7 323.35,-88.7 317.35,-88.7 311.35,-82.7 311.35,-76.7 311.35,-76.7 311.35,-64.7 311.35,-64.7 311.35,-58.7 317.35,-52.7 323.35,-52.7"/>
<text text-anchor="middle" x="341.35" y="-67" font-family="Arial" font-size="14.00">context</text>
</g>
<!-- section&#45;&gt;context -->
<g id="edge7" class="edge">
<title>section&#45;&gt;context</title>
<path fill="none" stroke="#1f78b4" d="M382.02,-195.78C374.08,-171.38 359.89,-127.73 350.55,-98.99"/>
<polygon fill="#a6cee3" stroke="#1f78b4" points="353.77,-97.57 347.35,-89.14 347.11,-99.74 353.77,-97.57"/>
</g>
<!-- steps&#45;informal -->
<g id="node9" class="node">
<title>steps&#45;informal</title>
<path fill="#1afabc" stroke="black" d="M332.73,-0.13C332.73,-0.13 410.73,-0.13 410.73,-0.13 416.73,-0.13 422.73,-6.13 422.73,-12.13 422.73,-12.13 422.73,-24.13 422.73,-24.13 422.73,-30.13 416.73,-36.13 410.73,-36.13 410.73,-36.13 332.73,-36.13 332.73,-36.13 326.73,-36.13 320.73,-30.13 320.73,-24.13 320.73,-24.13 320.73,-12.13 320.73,-12.13 320.73,-6.13 326.73,-0.13 332.73,-0.13"/>
<text text-anchor="middle" x="371.73" y="-14.43" font-family="Arial" font-size="14.00">steps&#45;informal</text>
</g>
<!-- section&#45;&gt;steps&#45;informal -->
<g id="edge8" class="edge">
<title>section&#45;&gt;steps&#45;informal</title>
<path fill="none" stroke="#1f78b4" d="M386.42,-195.85C383.59,-161.61 377.43,-87.06 374.05,-46.24"/>
<polygon fill="#a6cee3" stroke="#1f78b4" points="377.53,-45.84 373.22,-36.16 370.55,-46.41 377.53,-45.84"/>
</g>
<!-- tasktroubleshooting -->
<g id="node10" class="node">
<title>tasktroubleshooting</title>
<path fill="#1afabc" stroke="black" d="M481.22,-43.94C481.22,-43.94 591.22,-43.94 591.22,-43.94 597.22,-43.94 603.22,-49.94 603.22,-55.94 603.22,-55.94 603.22,-67.94 603.22,-67.94 603.22,-73.94 597.22,-79.94 591.22,-79.94 591.22,-79.94 481.22,-79.94 481.22,-79.94 475.22,-79.94 469.22,-73.94 469.22,-67.94 469.22,-67.94 469.22,-55.94 469.22,-55.94 469.22,-49.94 475.22,-43.94 481.22,-43.94"/>
<text text-anchor="middle" x="536.22" y="-58.24" font-family="Arial" font-size="14.00">tasktroubleshooting</text>
</g>
<!-- section&#45;&gt;tasktroubleshooting -->
<g id="edge9" class="edge">
<title>section&#45;&gt;tasktroubleshooting</title>
<path fill="none" stroke="#1f78b4" d="M405.51,-195.88C431.82,-168.92 481.53,-117.98 511.48,-87.29"/>
<polygon fill="#a6cee3" stroke="#1f78b4" points="514.17,-89.55 518.65,-79.94 509.16,-84.66 514.17,-89.55"/>
</g>
<!-- result -->
<g id="node11" class="node">
<title>result</title>
<path fill="#1afabc" stroke="black" d="M243.82,-150.53C243.82,-150.53 273.82,-150.53 273.82,-150.53 279.82,-150.53 285.82,-156.53 285.82,-162.53 285.82,-162.53 285.82,-174.53 285.82,-174.53 285.82,-180.53 279.82,-186.53 273.82,-186.53 273.82,-186.53 243.82,-186.53 243.82,-186.53 237.82,-186.53 231.82,-180.53 231.82,-174.53 231.82,-174.53 231.82,-162.53 231.82,-162.53 231.82,-156.53 237.82,-150.53 243.82,-150.53"/>
<text text-anchor="middle" x="258.82" y="-164.83" font-family="Arial" font-size="14.00">result</text>
</g>
<!-- section&#45;&gt;result -->
<g id="edge10" class="edge">
<title>section&#45;&gt;result</title>
<path fill="none" stroke="#1f78b4" d="M358.3,-203.5C339.7,-196.97 315.57,-188.48 295.74,-181.51"/>
<polygon fill="#a6cee3" stroke="#1f78b4" points="296.69,-178.14 286.1,-178.12 294.37,-184.74 296.69,-178.14"/>
</g>
<!-- postreq -->
<g id="node12" class="node">
<title>postreq</title>
<path fill="#1afabc" stroke="black" d="M242.72,-80.79C242.72,-80.79 280.72,-80.79 280.72,-80.79 286.72,-80.79 292.72,-86.79 292.72,-92.79 292.72,-92.79 292.72,-104.79 292.72,-104.79 292.72,-110.79 286.72,-116.79 280.72,-116.79 280.72,-116.79 242.72,-116.79 242.72,-116.79 236.72,-116.79 230.72,-110.79 230.72,-104.79 230.72,-104.79 230.72,-92.79 230.72,-92.79 230.72,-86.79 236.72,-80.79 242.72,-80.79"/>
<text text-anchor="middle" x="261.72" y="-95.09" font-family="Arial" font-size="14.00">postreq</text>
</g>
<!-- section&#45;&gt;postreq -->
<g id="edge11" class="edge">
<title>section&#45;&gt;postreq</title>
<path fill="none" stroke="#1f78b4" d="M367.92,-195.67C346.69,-176.3 312.99,-145.56 289.26,-123.91"/>
<polygon fill="#a6cee3" stroke="#1f78b4" points="291.37,-121.1 281.62,-116.94 286.65,-126.27 291.37,-121.1"/>
</g>
<!-- steps -->
<g id="node14" class="node">
<title>steps</title>
<path fill="#1afabc" stroke="black" d="M712.63,-722.34C712.63,-722.34 742.63,-722.34 742.63,-722.34 748.63,-722.34 754.63,-728.34 754.63,-734.34 754.63,-734.34 754.63,-746.34 754.63,-746.34 754.63,-752.34 748.63,-758.34 742.63,-758.34 742.63,-758.34 712.63,-758.34 712.63,-758.34 706.63,-758.34 700.63,-752.34 700.63,-746.34 700.63,-746.34 700.63,-734.34 700.63,-734.34 700.63,-728.34 706.63,-722.34 712.63,-722.34"/>
<text text-anchor="middle" x="727.63" y="-736.64" font-family="Arial" font-size="14.00">steps</text>
</g>
<!-- ol&#45;&gt;steps -->
<g id="edge13" class="edge">
<title>ol&#45;&gt;steps</title>
<path fill="none" stroke="#1f78b4" d="M617.92,-650.33C639.77,-668.26 673.4,-695.84 697.66,-715.75"/>
<polygon fill="#a6cee3" stroke="#1f78b4" points="695.55,-718.55 705.5,-722.18 699.99,-713.13 695.55,-718.55"/>
</g>
<!-- substeps -->
<g id="node15" class="node">
<title>substeps</title>
<path fill="#1afabc" stroke="black" d="M657.6,-775.47C657.6,-775.47 704.6,-775.47 704.6,-775.47 710.6,-775.47 716.6,-781.47 716.6,-787.47 716.6,-787.47 716.6,-799.47 716.6,-799.47 716.6,-805.47 710.6,-811.47 704.6,-811.47 704.6,-811.47 657.6,-811.47 657.6,-811.47 651.6,-811.47 645.6,-805.47 645.6,-799.47 645.6,-799.47 645.6,-787.47 645.6,-787.47 645.6,-781.47 651.6,-775.47 657.6,-775.47"/>
<text text-anchor="middle" x="681.1" y="-789.77" font-family="Arial" font-size="14.00">substeps</text>
</g>
<!-- ol&#45;&gt;substeps -->
<g id="edge14" class="edge">
<title>ol&#45;&gt;substeps</title>
<path fill="none" stroke="#1f78b4" d="M605.48,-650.42C620.38,-678.6 649.14,-733.02 666.58,-766.01"/>
<polygon fill="#a6cee3" stroke="#1f78b4" points="663.62,-767.9 671.39,-775.1 669.81,-764.63 663.62,-767.9"/>
</g>
<!-- steps&#45;unordered -->
<g id="node17" class="node">
<title>steps&#45;unordered</title>
<path fill="#1afabc" stroke="black" d="M179.77,-234.61C179.77,-234.61 270.77,-234.61 270.77,-234.61 276.77,-234.61 282.77,-240.61 282.77,-246.61 282.77,-246.61 282.77,-258.61 282.77,-258.61 282.77,-264.61 276.77,-270.61 270.77,-270.61 270.77,-270.61 179.77,-270.61 179.77,-270.61 173.77,-270.61 167.77,-264.61 167.77,-258.61 167.77,-258.61 167.77,-246.61 167.77,-246.61 167.77,-240.61 173.77,-234.61 179.77,-234.61"/>
<text text-anchor="middle" x="225.27" y="-248.91" font-family="Arial" font-size="14.00">steps&#45;unordered</text>
</g>
<!-- ul&#45;&gt;steps&#45;unordered -->
<g id="edge16" class="edge">
<title>ul&#45;&gt;steps&#45;unordered</title>
<path fill="none" stroke="#1f78b4" d="M353.85,-306.77C332.82,-297.91 303.04,-285.37 277.44,-274.58"/>
<polygon fill="#a6cee3" stroke="#1f78b4" points="278.79,-271.36 268.22,-270.7 276.08,-277.81 278.79,-271.36"/>
</g>
<!-- choices -->
<g id="node18" class="node">
<title>choices</title>
<path fill="#1afabc" stroke="black" d="M461.62,-190.83C461.62,-190.83 499.62,-190.83 499.62,-190.83 505.62,-190.83 511.62,-196.83 511.62,-202.83 511.62,-202.83 511.62,-214.83 511.62,-214.83 511.62,-220.83 505.62,-226.83 499.62,-226.83 499.62,-226.83 461.62,-226.83 461.62,-226.83 455.62,-226.83 449.62,-220.83 449.62,-214.83 449.62,-214.83 449.62,-202.83 449.62,-202.83 449.62,-196.83 455.62,-190.83 461.62,-190.83"/>
<text text-anchor="middle" x="480.62" y="-205.13" font-family="Arial" font-size="14.00">choices</text>
</g>
<!-- ul&#45;&gt;choices -->
<g id="edge17" class="edge">
<title>ul&#45;&gt;choices</title>
<path fill="none" stroke="#1f78b4" d="M397.42,-300.13C413.72,-282.24 438.84,-254.68 457.22,-234.51"/>
<polygon fill="#a6cee3" stroke="#1f78b4" points="459.99,-236.67 464.14,-226.92 454.82,-231.95 459.99,-236.67"/>
</g>
<!-- stepsection -->
<g id="node20" class="node">
<title>stepsection</title>
<path fill="#1afabc" stroke="black" d="M12.29,-506.49C12.29,-506.49 73.29,-506.49 73.29,-506.49 79.29,-506.49 85.29,-512.49 85.29,-518.49 85.29,-518.49 85.29,-530.49 85.29,-530.49 85.29,-536.49 79.29,-542.49 73.29,-542.49 73.29,-542.49 12.29,-542.49 12.29,-542.49 6.29,-542.49 0.29,-536.49 0.29,-530.49 0.29,-530.49 0.29,-518.49 0.29,-518.49 0.29,-512.49 6.29,-506.49 12.29,-506.49"/>
<text text-anchor="middle" x="42.79" y="-520.79" font-family="Arial" font-size="14.00">stepsection</text>
</g>
<!-- li&#45;&gt;stepsection -->
<g id="edge19" class="edge">
<title>li&#45;&gt;stepsection</title>
<path fill="none" stroke="#1f78b4" d="M208.59,-518.62C179.33,-519.66 132.12,-521.33 95.54,-522.62"/>
<polygon fill="#a6cee3" stroke="#1f78b4" points="95.4,-519.13 85.53,-522.98 95.65,-526.12 95.4,-519.13"/>
</g>
<!-- step -->
<g id="node21" class="node">
<title>step</title>
<path fill="#1afabc" stroke="black" d="M69.87,-449.58C69.87,-449.58 99.87,-449.58 99.87,-449.58 105.87,-449.58 111.87,-455.58 111.87,-461.58 111.87,-461.58 111.87,-473.58 111.87,-473.58 111.87,-479.58 105.87,-485.58 99.87,-485.58 99.87,-485.58 69.87,-485.58 69.87,-485.58 63.87,-485.58 57.87,-479.58 57.87,-473.58 57.87,-473.58 57.87,-461.58 57.87,-461.58 57.87,-455.58 63.87,-449.58 69.87,-449.58"/>
<text text-anchor="middle" x="84.87" y="-463.88" font-family="Arial" font-size="14.00">step</text>
</g>
<!-- li&#45;&gt;step -->
<g id="edge20" class="edge">
<title>li&#45;&gt;step</title>
<path fill="none" stroke="#1f78b4" d="M208.5,-508.59C184.24,-500.54 148.59,-488.71 121.8,-479.83"/>
<polygon fill="#a6cee3" stroke="#1f78b4" points="122.6,-476.4 112,-476.58 120.39,-483.05 122.6,-476.4"/>
</g>
<!-- substep -->
<g id="node22" class="node">
<title>substep</title>
<path fill="#1afabc" stroke="black" d="M60.11,-556.72C60.11,-556.72 100.11,-556.72 100.11,-556.72 106.11,-556.72 112.11,-562.72 112.11,-568.72 112.11,-568.72 112.11,-580.72 112.11,-580.72 112.11,-586.72 106.11,-592.72 100.11,-592.72 100.11,-592.72 60.11,-592.72 60.11,-592.72 54.11,-592.72 48.11,-586.72 48.11,-580.72 48.11,-580.72 48.11,-568.72 48.11,-568.72 48.11,-562.72 54.11,-556.72 60.11,-556.72"/>
<text text-anchor="middle" x="80.11" y="-571.02" font-family="Arial" font-size="14.00">substep</text>
</g>
<!-- li&#45;&gt;substep -->
<g id="edge21" class="edge">
<title>li&#45;&gt;substep</title>
<path fill="none" stroke="#1f78b4" d="M208.72,-527.59C184.71,-536.39 149.3,-549.37 121.71,-559.47"/>
<polygon fill="#a6cee3" stroke="#1f78b4" points="120.49,-556.19 112.31,-562.92 122.9,-562.76 120.49,-556.19"/>
</g>
<!-- choice -->
<g id="node23" class="node">
<title>choice</title>
<path fill="#1afabc" stroke="black" d="M92.46,-609C92.46,-609 124.46,-609 124.46,-609 130.46,-609 136.46,-615 136.46,-621 136.46,-621 136.46,-633 136.46,-633 136.46,-639 130.46,-645 124.46,-645 124.46,-645 92.46,-645 92.46,-645 86.46,-645 80.46,-639 80.46,-633 80.46,-633 80.46,-621 80.46,-621 80.46,-615 86.46,-609 92.46,-609"/>
<text text-anchor="middle" x="108.46" y="-623.3" font-family="Arial" font-size="14.00">choice</text>
</g>
<!-- li&#45;&gt;choice -->
<g id="edge22" class="edge">
<title>li&#45;&gt;choice</title>
<path fill="none" stroke="#1f78b4" d="M214.81,-535.71C193.6,-553.91 160.72,-582.13 137.14,-602.38"/>
<polygon fill="#a6cee3" stroke="#1f78b4" points="134.84,-599.74 129.53,-608.91 139.39,-605.06 134.84,-599.74"/>
</g>
<!-- cmd -->
<g id="node25" class="node">
<title>cmd</title>
<path fill="#1afabc" stroke="black" d="M550.64,-782.27C550.64,-782.27 580.64,-782.27 580.64,-782.27 586.64,-782.27 592.64,-788.27 592.64,-794.27 592.64,-794.27 592.64,-806.27 592.64,-806.27 592.64,-812.27 586.64,-818.27 580.64,-818.27 580.64,-818.27 550.64,-818.27 550.64,-818.27 544.64,-818.27 538.64,-812.27 538.64,-806.27 538.64,-806.27 538.64,-794.27 538.64,-794.27 538.64,-788.27 544.64,-782.27 550.64,-782.27"/>
<text text-anchor="middle" x="565.64" y="-796.57" font-family="Arial" font-size="14.00">cmd</text>
</g>
<!-- ph&#45;&gt;cmd -->
<g id="edge24" class="edge">
<title>ph&#45;&gt;cmd</title>
<path fill="none" stroke="#1f78b4" d="M520.99,-657.76C529.71,-685.6 546.48,-739.12 556.81,-772.06"/>
<polygon fill="#a6cee3" stroke="#1f78b4" points="553.58,-773.48 559.91,-781.98 560.26,-771.39 553.58,-773.48"/>
</g>
<!-- info -->
<g id="node27" class="node">
<title>info</title>
<path fill="#1afabc" stroke="black" d="M866.23,-404.6C866.23,-404.6 896.23,-404.6 896.23,-404.6 902.23,-404.6 908.23,-410.6 908.23,-416.6 908.23,-416.6 908.23,-428.6 908.23,-428.6 908.23,-434.6 902.23,-440.6 896.23,-440.6 896.23,-440.6 866.23,-440.6 866.23,-440.6 860.23,-440.6 854.23,-434.6 854.23,-428.6 854.23,-428.6 854.23,-416.6 854.23,-416.6 854.23,-410.6 860.23,-404.6 866.23,-404.6"/>
<text text-anchor="middle" x="881.23" y="-418.9" font-family="Arial" font-size="14.00">info</text>
</g>
<!-- itemgroup&#45;&gt;info -->
<g id="edge26" class="edge">
<title>itemgroup&#45;&gt;info</title>
<path fill="none" stroke="#1f78b4" d="M745.18,-388.84C774.79,-396.18 815.31,-406.24 844.41,-413.46"/>
<polygon fill="#a6cee3" stroke="#1f78b4" points="843.65,-416.88 854.2,-415.89 845.33,-410.09 843.65,-416.88"/>
</g>
<!-- tutorialinfo -->
<g id="node28" class="node">
<title>tutorialinfo</title>
<path fill="#1afabc" stroke="black" d="M807.72,-216.18C807.72,-216.18 862.72,-216.18 862.72,-216.18 868.72,-216.18 874.72,-222.18 874.72,-228.18 874.72,-228.18 874.72,-240.18 874.72,-240.18 874.72,-246.18 868.72,-252.18 862.72,-252.18 862.72,-252.18 807.72,-252.18 807.72,-252.18 801.72,-252.18 795.72,-246.18 795.72,-240.18 795.72,-240.18 795.72,-228.18 795.72,-228.18 795.72,-222.18 801.72,-216.18 807.72,-216.18"/>
<text text-anchor="middle" x="835.22" y="-230.48" font-family="Arial" font-size="14.00">tutorialinfo</text>
</g>
<!-- itemgroup&#45;&gt;tutorialinfo -->
<g id="edge27" class="edge">
<title>itemgroup&#45;&gt;tutorialinfo</title>
<path fill="none" stroke="#1f78b4" d="M722.43,-361.13C745,-335.73 786.23,-289.32 812.1,-260.2"/>
<polygon fill="#a6cee3" stroke="#1f78b4" points="814.93,-262.28 818.96,-252.48 809.7,-257.63 814.93,-262.28"/>
</g>
<!-- stepxmp -->
<g id="node29" class="node">
<title>stepxmp</title>
<path fill="#1afabc" stroke="black" d="M876.19,-340.28C876.19,-340.28 920.19,-340.28 920.19,-340.28 926.19,-340.28 932.19,-346.28 932.19,-352.28 932.19,-352.28 932.19,-364.28 932.19,-364.28 932.19,-370.28 926.19,-376.28 920.19,-376.28 920.19,-376.28 876.19,-376.28 876.19,-376.28 870.19,-376.28 864.19,-370.28 864.19,-364.28 864.19,-364.28 864.19,-352.28 864.19,-352.28 864.19,-346.28 870.19,-340.28 876.19,-340.28"/>
<text text-anchor="middle" x="898.19" y="-354.58" font-family="Arial" font-size="14.00">stepxmp</text>
</g>
<!-- itemgroup&#45;&gt;stepxmp -->
<g id="edge28" class="edge">
<title>itemgroup&#45;&gt;stepxmp</title>
<path fill="none" stroke="#1f78b4" d="M745.19,-374.97C776.6,-371.54 820.86,-366.72 853.7,-363.13"/>
<polygon fill="#a6cee3" stroke="#1f78b4" points="854.37,-366.58 863.93,-362.02 853.61,-359.62 854.37,-366.58"/>
</g>
<!-- stepresult -->
<g id="node30" class="node">
<title>stepresult</title>
<path fill="#1afabc" stroke="black" d="M858.59,-275.95C858.59,-275.95 909.59,-275.95 909.59,-275.95 915.59,-275.95 921.59,-281.95 921.59,-287.95 921.59,-287.95 921.59,-299.95 921.59,-299.95 921.59,-305.95 915.59,-311.95 909.59,-311.95 909.59,-311.95 858.59,-311.95 858.59,-311.95 852.59,-311.95 846.59,-305.95 846.59,-299.95 846.59,-299.95 846.59,-287.95 846.59,-287.95 846.59,-281.95 852.59,-275.95 858.59,-275.95"/>
<text text-anchor="middle" x="884.09" y="-290.25" font-family="Arial" font-size="14.00">stepresult</text>
</g>
<!-- itemgroup&#45;&gt;stepresult -->
<g id="edge29" class="edge">
<title>itemgroup&#45;&gt;stepresult</title>
<path fill="none" stroke="#1f78b4" d="M744.06,-361.12C771.28,-348.07 808.21,-330.35 837.31,-316.39"/>
<polygon fill="#a6cee3" stroke="#1f78b4" points="838.95,-319.48 846.46,-312 835.93,-313.17 838.95,-319.48"/>
</g>
<!-- steptroubleshooting -->
<g id="node31" class="node">
<title>steptroubleshooting</title>
<path fill="#1afabc" stroke="black" d="M711.45,-292.23C711.45,-292.23 821.45,-292.23 821.45,-292.23 827.45,-292.23 833.45,-298.23 833.45,-304.23 833.45,-304.23 833.45,-316.23 833.45,-316.23 833.45,-322.23 827.45,-328.23 821.45,-328.23 821.45,-328.23 711.45,-328.23 711.45,-328.23 705.45,-328.23 699.45,-322.23 699.45,-316.23 699.45,-316.23 699.45,-304.23 699.45,-304.23 699.45,-298.23 705.45,-292.23 711.45,-292.23"/>
<text text-anchor="middle" x="766.45" y="-306.53" font-family="Arial" font-size="14.00">steptroubleshooting</text>
</g>
<!-- itemgroup&#45;&gt;steptroubleshooting -->
<g id="edge30" class="edge">
<title>itemgroup&#45;&gt;steptroubleshooting</title>
<path fill="none" stroke="#1f78b4" d="M722.16,-361.08C728.8,-353.46 736.65,-344.45 743.88,-336.15"/>
<polygon fill="#a6cee3" stroke="#1f78b4" points="746.63,-338.31 750.56,-328.47 741.36,-333.71 746.63,-338.31"/>
</g>
<!-- choicetable -->
<g id="node33" class="node">
<title>choicetable</title>
<path fill="#1afabc" stroke="black" d="M79.92,-324.59C79.92,-324.59 140.92,-324.59 140.92,-324.59 146.92,-324.59 152.92,-330.59 152.92,-336.59 152.92,-336.59 152.92,-348.59 152.92,-348.59 152.92,-354.59 146.92,-360.59 140.92,-360.59 140.92,-360.59 79.92,-360.59 79.92,-360.59 73.92,-360.59 67.92,-354.59 67.92,-348.59 67.92,-348.59 67.92,-336.59 67.92,-336.59 67.92,-330.59 73.92,-324.59 79.92,-324.59"/>
<text text-anchor="middle" x="110.42" y="-338.89" font-family="Arial" font-size="14.00">choicetable</text>
</g>
<!-- simpletable&#45;&gt;choicetable -->
<g id="edge32" class="edge">
<title>simpletable&#45;&gt;choicetable</title>
<path fill="none" stroke="#1f78b4" d="M229.57,-391.16C208.97,-382.76 184.13,-372.64 162.48,-363.81"/>
<polygon fill="#a6cee3" stroke="#1f78b4" points="163.68,-360.52 153.1,-359.99 161.04,-367 163.68,-360.52"/>
</g>
<!-- chhead -->
<g id="node35" class="node">
<title>chhead</title>
<path fill="#1afabc" stroke="black" d="M781.91,-510.6C781.91,-510.6 818.91,-510.6 818.91,-510.6 824.91,-510.6 830.91,-516.6 830.91,-522.6 830.91,-522.6 830.91,-534.6 830.91,-534.6 830.91,-540.6 824.91,-546.6 818.91,-546.6 818.91,-546.6 781.91,-546.6 781.91,-546.6 775.91,-546.6 769.91,-540.6 769.91,-534.6 769.91,-534.6 769.91,-522.6 769.91,-522.6 769.91,-516.6 775.91,-510.6 781.91,-510.6"/>
<text text-anchor="middle" x="800.41" y="-524.9" font-family="Arial" font-size="14.00">chhead</text>
</g>
<!-- sthead&#45;&gt;chhead -->
<g id="edge34" class="edge">
<title>sthead&#45;&gt;chhead</title>
<path fill="none" stroke="#1f78b4" d="M666.35,-493.7C692.31,-500.46 730.81,-510.48 759.89,-518.05"/>
<polygon fill="#a6cee3" stroke="#1f78b4" points="759.2,-521.49 769.75,-520.62 760.96,-514.71 759.2,-521.49"/>
</g>
<!-- choptionhd -->
<g id="node37" class="node">
<title>choptionhd</title>
<path fill="#1afabc" stroke="black" d="M212.88,-803.84C212.88,-803.84 271.88,-803.84 271.88,-803.84 277.88,-803.84 283.88,-809.84 283.88,-815.84 283.88,-815.84 283.88,-827.84 283.88,-827.84 283.88,-833.84 277.88,-839.84 271.88,-839.84 271.88,-839.84 212.88,-839.84 212.88,-839.84 206.88,-839.84 200.88,-833.84 200.88,-827.84 200.88,-827.84 200.88,-815.84 200.88,-815.84 200.88,-809.84 206.88,-803.84 212.88,-803.84"/>
<text text-anchor="middle" x="242.38" y="-818.14" font-family="Arial" font-size="14.00">choptionhd</text>
</g>
<!-- stentry&#45;&gt;choptionhd -->
<g id="edge36" class="edge">
<title>stentry&#45;&gt;choptionhd</title>
<path fill="none" stroke="#1f78b4" d="M342.55,-692.75C322.61,-718.45 285.89,-765.77 262.88,-795.42"/>
<polygon fill="#a6cee3" stroke="#1f78b4" points="259.86,-793.6 256.49,-803.65 265.39,-797.9 259.86,-793.6"/>
</g>
<!-- chdeschd -->
<g id="node38" class="node">
<title>chdeschd</title>
<path fill="#1afabc" stroke="black" d="M367.56,-834.9C367.56,-834.9 417.56,-834.9 417.56,-834.9 423.56,-834.9 429.56,-840.9 429.56,-846.9 429.56,-846.9 429.56,-858.9 429.56,-858.9 429.56,-864.9 423.56,-870.9 417.56,-870.9 417.56,-870.9 367.56,-870.9 367.56,-870.9 361.56,-870.9 355.56,-864.9 355.56,-858.9 355.56,-858.9 355.56,-846.9 355.56,-846.9 355.56,-840.9 361.56,-834.9 367.56,-834.9"/>
<text text-anchor="middle" x="392.56" y="-849.2" font-family="Arial" font-size="14.00">chdeschd</text>
</g>
<!-- stentry&#45;&gt;chdeschd -->
<g id="edge37" class="edge">
<title>stentry&#45;&gt;chdeschd</title>
<path fill="none" stroke="#1f78b4" d="M360.2,-692.78C366.49,-723.86 379.38,-787.68 386.86,-824.67"/>
<polygon fill="#a6cee3" stroke="#1f78b4" points="383.49,-825.68 388.9,-834.78 390.35,-824.29 383.49,-825.68"/>
</g>
<!-- choption -->
<g id="node39" class="node">
<title>choption</title>
<path fill="#1afabc" stroke="black" d="M193.36,-750.53C193.36,-750.53 237.36,-750.53 237.36,-750.53 243.36,-750.53 249.36,-756.53 249.36,-762.53 249.36,-762.53 249.36,-774.53 249.36,-774.53 249.36,-780.53 243.36,-786.53 237.36,-786.53 237.36,-786.53 193.36,-786.53 193.36,-786.53 187.36,-786.53 181.36,-780.53 181.36,-774.53 181.36,-774.53 181.36,-762.53 181.36,-762.53 181.36,-756.53 187.36,-750.53 193.36,-750.53"/>
<text text-anchor="middle" x="215.36" y="-764.83" font-family="Arial" font-size="14.00">choption</text>
</g>
<!-- stentry&#45;&gt;choption -->
<g id="edge38" class="edge">
<title>stentry&#45;&gt;choption</title>
<path fill="none" stroke="#1f78b4" d="M329.33,-692.8C307.06,-707.6 275.39,-728.64 251.09,-744.79"/>
<polygon fill="#a6cee3" stroke="#1f78b4" points="248.89,-742.05 242.5,-750.49 252.76,-747.88 248.89,-742.05"/>
</g>
<!-- chdesc -->
<g id="node40" class="node">
<title>chdesc</title>
<path fill="#1afabc" stroke="black" d="M305.76,-782.86C305.76,-782.86 340.76,-782.86 340.76,-782.86 346.76,-782.86 352.76,-788.86 352.76,-794.86 352.76,-794.86 352.76,-806.86 352.76,-806.86 352.76,-812.86 346.76,-818.86 340.76,-818.86 340.76,-818.86 305.76,-818.86 305.76,-818.86 299.76,-818.86 293.76,-812.86 293.76,-806.86 293.76,-806.86 293.76,-794.86 293.76,-794.86 293.76,-788.86 299.76,-782.86 305.76,-782.86"/>
<text text-anchor="middle" x="323.26" y="-797.16" font-family="Arial" font-size="14.00">chdesc</text>
</g>
<!-- stentry&#45;&gt;chdesc -->
<g id="edge39" class="edge">
<title>stentry&#45;&gt;chdesc</title>
<path fill="none" stroke="#1f78b4" d="M351.78,-692.79C346.25,-713.77 337.05,-748.62 330.6,-773.06"/>
<polygon fill="#a6cee3" stroke="#1f78b4" points="327.19,-772.26 328.02,-782.82 333.96,-774.04 327.19,-772.26"/>
</g>
<!-- chrow -->
<g id="node42" class="node">
<title>chrow</title>
<path fill="#1afabc" stroke="black" d="M439.75,-778.85C439.75,-778.85 469.75,-778.85 469.75,-778.85 475.75,-778.85 481.75,-784.85 481.75,-790.85 481.75,-790.85 481.75,-802.85 481.75,-802.85 481.75,-808.85 475.75,-814.85 469.75,-814.85 469.75,-814.85 439.75,-814.85 439.75,-814.85 433.75,-814.85 427.75,-808.85 427.75,-802.85 427.75,-802.85 427.75,-790.85 427.75,-790.85 427.75,-784.85 433.75,-778.85 439.75,-778.85"/>
<text text-anchor="middle" x="454.75" y="-793.15" font-family="Arial" font-size="14.00">chrow</text>
</g>
<!-- strow&#45;&gt;chrow -->
<g id="edge41" class="edge">
<title>strow&#45;&gt;chrow</title>
<path fill="none" stroke="#1f78b4" d="M443.76,-654.04C445.89,-681.82 450,-735.11 452.54,-768.15"/>
<polygon fill="#a6cee3" stroke="#1f78b4" points="449.08,-768.81 453.34,-778.52 456.06,-768.28 449.08,-768.81"/>
</g>
</g>
</svg>
