<?xml version="1.0" encoding="UTF-8" standalone="no"?>
<!DOCTYPE svg PUBLIC "-//W3C//DTD SVG 1.1//EN"
 "http://www.w3.org/Graphics/SVG/1.1/DTD/svg11.dtd">
<!-- Generated by graphviz version 6.0.1 (20220911.1526)
 -->
<!-- Pages: 1 -->
<svg width="617pt" height="349pt"
 viewBox="0.00 0.00 617.00 349.00" xmlns="http://www.w3.org/2000/svg" xmlns:xlink="http://www.w3.org/1999/xlink">
<g id="graph0" class="graph" transform="scale(1 1) rotate(0) translate(4 345)">
<polygon fill="white" stroke="none" points="-4,4 -4,-345 613,-345 613,4 -4,4"/>
<!-- troubleshootingModule -->
<g id="node1" class="node">
<title>troubleshootingModule</title>
<path fill="#dddddd" stroke="black" d="M211.09,-176.99C211.09,-176.99 341.09,-176.99 341.09,-176.99 347.09,-176.99 353.09,-182.99 353.09,-188.99 353.09,-188.99 353.09,-200.99 353.09,-200.99 353.09,-206.99 347.09,-212.99 341.09,-212.99 341.09,-212.99 211.09,-212.99 211.09,-212.99 205.09,-212.99 199.09,-206.99 199.09,-200.99 199.09,-200.99 199.09,-188.99 199.09,-188.99 199.09,-182.99 205.09,-176.99 211.09,-176.99"/>
<text text-anchor="middle" x="276.09" y="-191.29" font-family="Arial" font-size="14.00">troubleshootingModule</text>
</g>
<!-- topic -->
<g id="node2" class="node">
<title>topic</title>
<path fill="#afa7f4" stroke="black" d="M378.26,-78.36C378.26,-78.36 408.26,-78.36 408.26,-78.36 414.26,-78.36 420.26,-84.36 420.26,-90.36 420.26,-90.36 420.26,-102.36 420.26,-102.36 420.26,-108.36 414.26,-114.36 408.26,-114.36 408.26,-114.36 378.26,-114.36 378.26,-114.36 372.26,-114.36 366.26,-108.36 366.26,-102.36 366.26,-102.36 366.26,-90.36 366.26,-90.36 366.26,-84.36 372.26,-78.36 378.26,-78.36"/>
<text text-anchor="middle" x="393.26" y="-92.66" font-family="Arial" font-size="14.00">topic</text>
</g>
<!-- troubleshootingModule&#45;&gt;topic -->
<g id="edge1" class="edge">
<title>troubleshootingModule&#45;&gt;topic</title>
<path fill="none" stroke="#1f78b4" d="M297.58,-176.9C316.13,-161.29 343.1,-138.58 363.68,-121.26"/>
<polygon fill="#a6cee3" stroke="#1f78b4" points="366.11,-123.79 371.51,-114.67 361.6,-118.43 366.11,-123.79"/>
</g>
<!-- body -->
<g id="node4" class="node">
<title>body</title>
<path fill="#afa7f4" stroke="black" d="M122.92,-245.99C122.92,-245.99 152.92,-245.99 152.92,-245.99 158.92,-245.99 164.92,-251.99 164.92,-257.99 164.92,-257.99 164.92,-269.99 164.92,-269.99 164.92,-275.99 158.92,-281.99 152.92,-281.99 152.92,-281.99 122.92,-281.99 122.92,-281.99 116.92,-281.99 110.92,-275.99 110.92,-269.99 110.92,-269.99 110.92,-257.99 110.92,-257.99 110.92,-251.99 116.92,-245.99 122.92,-245.99"/>
<text text-anchor="middle" x="137.92" y="-260.29" font-family="Arial" font-size="14.00">body</text>
</g>
<!-- troubleshootingModule&#45;&gt;body -->
<g id="edge3" class="edge">
<title>troubleshootingModule&#45;&gt;body</title>
<path fill="none" stroke="#1f78b4" d="M239.79,-213.12C219.63,-223.18 194.63,-235.67 174.44,-245.75"/>
<polygon fill="#a6cee3" stroke="#1f78b4" points="172.63,-242.74 165.25,-250.34 175.76,-249 172.63,-242.74"/>
</g>
<!-- section -->
<g id="node6" class="node">
<title>section</title>
<path fill="#afa7f4" stroke="black" d="M222.46,-131.36C222.46,-131.36 257.46,-131.36 257.46,-131.36 263.46,-131.36 269.46,-137.36 269.46,-143.36 269.46,-143.36 269.46,-155.36 269.46,-155.36 269.46,-161.36 263.46,-167.36 257.46,-167.36 257.46,-167.36 222.46,-167.36 222.46,-167.36 216.46,-167.36 210.46,-161.36 210.46,-155.36 210.46,-155.36 210.46,-143.36 210.46,-143.36 210.46,-137.36 216.46,-131.36 222.46,-131.36"/>
<text text-anchor="middle" x="239.96" y="-145.66" font-family="Arial" font-size="14.00">section</text>
</g>
<!-- troubleshootingModule&#45;&gt;section -->
<g id="edge5" class="edge">
<title>troubleshootingModule&#45;&gt;section</title>
<path fill="none" stroke="#1f78b4" d="M261.81,-176.96C261.43,-176.47 261.05,-175.99 260.66,-175.5"/>
<polygon fill="#a6cee3" stroke="#1f78b4" points="263.33,-173.23 254.37,-167.56 257.84,-177.57 263.33,-173.23"/>
</g>
<!-- p -->
<g id="node10" class="node">
<title>p</title>
<path fill="#afa7f4" stroke="black" d="M410.96,-202.58C410.96,-202.58 440.96,-202.58 440.96,-202.58 446.96,-202.58 452.96,-208.58 452.96,-214.58 452.96,-214.58 452.96,-226.58 452.96,-226.58 452.96,-232.58 446.96,-238.58 440.96,-238.58 440.96,-238.58 410.96,-238.58 410.96,-238.58 404.96,-238.58 398.96,-232.58 398.96,-226.58 398.96,-226.58 398.96,-214.58 398.96,-214.58 398.96,-208.58 404.96,-202.58 410.96,-202.58"/>
<text text-anchor="middle" x="425.96" y="-216.88" font-family="Arial" font-size="14.00">p</text>
</g>
<!-- troubleshootingModule&#45;&gt;p -->
<g id="edge9" class="edge">
<title>troubleshootingModule&#45;&gt;p</title>
<path fill="none" stroke="#1f78b4" d="M353.22,-208.16C365.61,-210.27 377.93,-212.38 388.8,-214.23"/>
<polygon fill="#a6cee3" stroke="#1f78b4" points="388.3,-217.7 398.74,-215.93 389.47,-210.8 388.3,-217.7"/>
</g>
<!-- bodydiv -->
<g id="node12" class="node">
<title>bodydiv</title>
<path fill="#afa7f4" stroke="black" d="M266.23,-222.05C266.23,-222.05 305.23,-222.05 305.23,-222.05 311.23,-222.05 317.23,-228.05 317.23,-234.05 317.23,-234.05 317.23,-246.05 317.23,-246.05 317.23,-252.05 311.23,-258.05 305.23,-258.05 305.23,-258.05 266.23,-258.05 266.23,-258.05 260.23,-258.05 254.23,-252.05 254.23,-246.05 254.23,-246.05 254.23,-234.05 254.23,-234.05 254.23,-228.05 260.23,-222.05 266.23,-222.05"/>
<text text-anchor="middle" x="285.73" y="-236.35" font-family="Arial" font-size="14.00">bodydiv</text>
</g>
<!-- troubleshootingModule&#45;&gt;bodydiv -->
<g id="edge11" class="edge">
<title>troubleshootingModule&#45;&gt;bodydiv</title>
<path fill="none" stroke="#1f78b4" d="M279.96,-213.06C279.98,-213.15 280,-213.24 280.02,-213.33"/>
<polygon fill="#a6cee3" stroke="#1f78b4" points="276.35,-212.93 281.87,-221.98 283.2,-211.47 276.35,-212.93"/>
</g>
<!-- troubleshooting -->
<g id="node3" class="node">
<title>troubleshooting</title>
<path fill="#1afabc" stroke="black" d="M443.17,-0.04C443.17,-0.04 528.17,-0.04 528.17,-0.04 534.17,-0.04 540.17,-6.04 540.17,-12.04 540.17,-12.04 540.17,-24.04 540.17,-24.04 540.17,-30.04 534.17,-36.04 528.17,-36.04 528.17,-36.04 443.17,-36.04 443.17,-36.04 437.17,-36.04 431.17,-30.04 431.17,-24.04 431.17,-24.04 431.17,-12.04 431.17,-12.04 431.17,-6.04 437.17,-0.04 443.17,-0.04"/>
<text text-anchor="middle" x="485.67" y="-14.34" font-family="Arial" font-size="14.00">troubleshooting</text>
</g>
<!-- topic&#45;&gt;troubleshooting -->
<g id="edge2" class="edge">
<title>topic&#45;&gt;troubleshooting</title>
<path fill="none" stroke="#1f78b4" d="M414.69,-78.2C427.17,-67.62 443.07,-54.14 456.66,-42.62"/>
<polygon fill="#a6cee3" stroke="#1f78b4" points="458.99,-45.24 464.35,-36.1 454.46,-39.9 458.99,-45.24"/>
</g>
<!-- troublebody -->
<g id="node5" class="node">
<title>troublebody</title>
<path fill="#1afabc" stroke="black" d="M11.9,-304.39C11.9,-304.39 74.9,-304.39 74.9,-304.39 80.9,-304.39 86.9,-310.39 86.9,-316.39 86.9,-316.39 86.9,-328.39 86.9,-328.39 86.9,-334.39 80.9,-340.39 74.9,-340.39 74.9,-340.39 11.9,-340.39 11.9,-340.39 5.9,-340.39 -0.1,-334.39 -0.1,-328.39 -0.1,-328.39 -0.1,-316.39 -0.1,-316.39 -0.1,-310.39 5.9,-304.39 11.9,-304.39"/>
<text text-anchor="middle" x="43.4" y="-318.69" font-family="Arial" font-size="14.00">troublebody</text>
</g>
<!-- body&#45;&gt;troublebody -->
<g id="edge4" class="edge">
<title>body&#45;&gt;troublebody</title>
<path fill="none" stroke="#1f78b4" d="M110.83,-280.72C101.73,-286.35 91.4,-292.73 81.6,-298.78"/>
<polygon fill="#a6cee3" stroke="#1f78b4" points="79.48,-295.98 72.81,-304.22 83.15,-301.94 79.48,-295.98"/>
</g>
<!-- cause -->
<g id="node7" class="node">
<title>cause</title>
<path fill="#1afabc" stroke="black" d="M128.5,-114.27C128.5,-114.27 158.5,-114.27 158.5,-114.27 164.5,-114.27 170.5,-120.27 170.5,-126.27 170.5,-126.27 170.5,-138.27 170.5,-138.27 170.5,-144.27 164.5,-150.27 158.5,-150.27 158.5,-150.27 128.5,-150.27 128.5,-150.27 122.5,-150.27 116.5,-144.27 116.5,-138.27 116.5,-138.27 116.5,-126.27 116.5,-126.27 116.5,-120.27 122.5,-114.27 128.5,-114.27"/>
<text text-anchor="middle" x="143.5" y="-128.57" font-family="Arial" font-size="14.00">cause</text>
</g>
<!-- section&#45;&gt;cause -->
<g id="edge6" class="edge">
<title>section&#45;&gt;cause</title>
<path fill="none" stroke="#1f78b4" d="M210.23,-144.09C200.86,-142.43 190.4,-140.58 180.58,-138.84"/>
<polygon fill="#a6cee3" stroke="#1f78b4" points="181.12,-135.38 170.67,-137.08 179.9,-142.27 181.12,-135.38"/>
</g>
<!-- condition -->
<g id="node8" class="node">
<title>condition</title>
<path fill="#1afabc" stroke="black" d="M234.4,-26.71C234.4,-26.71 281.4,-26.71 281.4,-26.71 287.4,-26.71 293.4,-32.71 293.4,-38.71 293.4,-38.71 293.4,-50.71 293.4,-50.71 293.4,-56.71 287.4,-62.71 281.4,-62.71 281.4,-62.71 234.4,-62.71 234.4,-62.71 228.4,-62.71 222.4,-56.71 222.4,-50.71 222.4,-50.71 222.4,-38.71 222.4,-38.71 222.4,-32.71 228.4,-26.71 234.4,-26.71"/>
<text text-anchor="middle" x="257.9" y="-41.01" font-family="Arial" font-size="14.00">condition</text>
</g>
<!-- section&#45;&gt;condition -->
<g id="edge7" class="edge">
<title>section&#45;&gt;condition</title>
<path fill="none" stroke="#1f78b4" d="M243.09,-131.13C245.85,-115 249.93,-91.21 253.11,-72.67"/>
<polygon fill="#a6cee3" stroke="#1f78b4" points="256.57,-73.18 254.81,-62.73 249.67,-72 256.57,-73.18"/>
</g>
<!-- remedy -->
<g id="node9" class="node">
<title>remedy</title>
<path fill="#1afabc" stroke="black" d="M157.25,-52.23C157.25,-52.23 195.25,-52.23 195.25,-52.23 201.25,-52.23 207.25,-58.23 207.25,-64.23 207.25,-64.23 207.25,-76.23 207.25,-76.23 207.25,-82.23 201.25,-88.23 195.25,-88.23 195.25,-88.23 157.25,-88.23 157.25,-88.23 151.25,-88.23 145.25,-82.23 145.25,-76.23 145.25,-76.23 145.25,-64.23 145.25,-64.23 145.25,-58.23 151.25,-52.23 157.25,-52.23"/>
<text text-anchor="middle" x="176.25" y="-66.53" font-family="Arial" font-size="14.00">remedy</text>
</g>
<!-- section&#45;&gt;remedy -->
<g id="edge8" class="edge">
<title>section&#45;&gt;remedy</title>
<path fill="none" stroke="#1f78b4" d="M225.18,-131.01C216.9,-120.72 206.43,-107.72 197.3,-96.38"/>
<polygon fill="#a6cee3" stroke="#1f78b4" points="199.94,-94.07 190.94,-88.48 194.49,-98.46 199.94,-94.07"/>
</g>
<!-- responsibleParty -->
<g id="node11" class="node">
<title>responsibleParty</title>
<path fill="#1afabc" stroke="black" d="M503.63,-231.52C503.63,-231.52 596.63,-231.52 596.63,-231.52 602.63,-231.52 608.63,-237.52 608.63,-243.52 608.63,-243.52 608.63,-255.52 608.63,-255.52 608.63,-261.52 602.63,-267.52 596.63,-267.52 596.63,-267.52 503.63,-267.52 503.63,-267.52 497.63,-267.52 491.63,-261.52 491.63,-255.52 491.63,-255.52 491.63,-243.52 491.63,-243.52 491.63,-237.52 497.63,-231.52 503.63,-231.52"/>
<text text-anchor="middle" x="550.13" y="-245.82" font-family="Arial" font-size="14.00">responsibleParty</text>
</g>
<!-- p&#45;&gt;responsibleParty -->
<g id="edge10" class="edge">
<title>p&#45;&gt;responsibleParty</title>
<path fill="none" stroke="#1f78b4" d="M453.21,-226.93C461.67,-228.9 471.41,-231.17 481.37,-233.49"/>
<polygon fill="#a6cee3" stroke="#1f78b4" points="480.85,-236.96 491.38,-235.83 482.44,-230.15 480.85,-236.96"/>
</g>
<!-- troubleSolution -->
<g id="node13" class="node">
<title>troubleSolution</title>
<path fill="#1afabc" stroke="black" d="M253.11,-267.64C253.11,-267.64 336.11,-267.64 336.11,-267.64 342.11,-267.64 348.11,-273.64 348.11,-279.64 348.11,-279.64 348.11,-291.64 348.11,-291.64 348.11,-297.64 342.11,-303.64 336.11,-303.64 336.11,-303.64 253.11,-303.64 253.11,-303.64 247.11,-303.64 241.11,-297.64 241.11,-291.64 241.11,-291.64 241.11,-279.64 241.11,-279.64 241.11,-273.64 247.11,-267.64 253.11,-267.64"/>
<text text-anchor="middle" x="294.61" y="-281.94" font-family="Arial" font-size="14.00">troubleSolution</text>
</g>
<!-- bodydiv&#45;&gt;troubleSolution -->
<g id="edge12" class="edge">
<title>bodydiv&#45;&gt;troubleSolution</title>
<path fill="none" stroke="#1f78b4" d="M289.24,-258.07C289.26,-258.17 289.28,-258.26 289.3,-258.36"/>
<polygon fill="#a6cee3" stroke="#1f78b4" points="285.72,-258.31 291.07,-267.45 292.59,-256.97 285.72,-258.31"/>
</g>
</g>
</svg>
