<?xml version="1.0" encoding="UTF-8" standalone="no"?>
<!-- Generated by graphviz version 6.0.1 (20220911.1526)
 -->
<!-- Pages: 1 -->
<svg width="168pt" height="139pt"
 viewBox="0.00 0.00 168.00 139.00" xmlns="http://www.w3.org/2000/svg" xmlns:xlink="http://www.w3.org/1999/xlink">
<g id="graph0" class="graph" transform="scale(1 1) rotate(0) translate(4 135)">
<polygon fill="white" stroke="none" points="-4,4 -4,-135 164,-135 164,4 -4,4"/>
<!-- abbrev&#45;d -->
<g id="node1" class="node">
<title>abbrev&#45;d</title>
<path fill="#dddddd" stroke="black" d="M12.21,-94.11C12.21,-94.11 58.21,-94.11 58.21,-94.11 64.21,-94.11 70.21,-100.11 70.21,-106.11 70.21,-106.11 70.21,-118.11 70.21,-118.11 70.21,-124.11 64.21,-130.11 58.21,-130.11 58.21,-130.11 12.21,-130.11 12.21,-130.11 6.21,-130.11 0.21,-124.11 0.21,-118.11 0.21,-118.11 0.21,-106.11 0.21,-106.11 0.21,-100.11 6.21,-94.11 12.21,-94.11"/>
<text text-anchor="middle" x="35.21" y="-108.41" font-family="Arial" font-size="14.00">abbrev&#45;d</text>
</g>
<!-- term -->
<g id="node2" class="node">
<title>term</title>
<path fill="#afa7f4" stroke="black" d="M87.71,-46.33C87.71,-46.33 117.71,-46.33 117.71,-46.33 123.71,-46.33 129.71,-52.33 129.71,-58.33 129.71,-58.33 129.71,-70.33 129.71,-70.33 129.71,-76.33 123.71,-82.33 117.71,-82.33 117.71,-82.33 87.71,-82.33 87.71,-82.33 81.71,-82.33 75.71,-76.33 75.71,-70.33 75.71,-70.33 75.71,-58.33 75.71,-58.33 75.71,-52.33 81.71,-46.33 87.71,-46.33"/>
<text text-anchor="middle" x="102.71" y="-60.63" font-family="Arial" font-size="14.00">term</text>
</g>
<!-- abbrev&#45;d&#45;&gt;term -->
<g id="edge1" class="edge">
<title>abbrev&#45;d&#45;&gt;term</title>
<path fill="none" stroke="#1f78b4" d="M60.73,-94.05C63.42,-92.14 66.18,-90.19 68.94,-88.23"/>
<polygon fill="#a6cee3" stroke="#1f78b4" points="71.02,-91.05 77.16,-82.42 66.97,-85.34 71.02,-91.05"/>
</g>
<!-- abbreviated&#45;form -->
<g id="node3" class="node">
<title>abbreviated&#45;form</title>
<path fill="#1afabc" stroke="black" d="M53.26,-0.46C53.26,-0.46 148.26,-0.46 148.26,-0.46 154.26,-0.46 160.26,-6.46 160.26,-12.46 160.26,-12.46 160.26,-24.46 160.26,-24.46 160.26,-30.46 154.26,-36.46 148.26,-36.46 148.26,-36.46 53.26,-36.46 53.26,-36.46 47.26,-36.46 41.26,-30.46 41.26,-24.46 41.26,-24.46 41.26,-12.46 41.26,-12.46 41.26,-6.46 47.26,-0.46 53.26,-0.46"/>
<text text-anchor="middle" x="100.76" y="-14.76" font-family="Arial" font-size="14.00">abbreviated&#45;form</text>
</g>
<!-- term&#45;&gt;abbreviated&#45;form -->
<g id="edge2" class="edge">
<title>term&#45;&gt;abbreviated&#45;form</title>
<path fill="none" stroke="#1f78b4" d="M101.94,-46.2C101.94,-46.1 101.93,-46.01 101.93,-45.91"/>
<polygon fill="#a6cee3" stroke="#1f78b4" points="105.46,-46.6 101.54,-36.76 98.47,-46.9 105.46,-46.6"/>
</g>
</g>
</svg>
