<?xml version="1.0" encoding="UTF-8" standalone="no"?>
<!-- Generated by graphviz version 6.0.1 (20220911.1526)
 -->
<!-- Pages: 1 -->
<svg width="551pt" height="434pt"
 viewBox="0.00 0.00 551.00 434.00" xmlns="http://www.w3.org/2000/svg" xmlns:xlink="http://www.w3.org/1999/xlink">
<g id="graph0" class="graph" transform="scale(1 1) rotate(0) translate(4 430)">
<polygon fill="white" stroke="none" points="-4,4 -4,-430 547,-430 547,4 -4,4"/>
<!-- classify&#45;d -->
<g id="node1" class="node">
<title>classify&#45;d</title>
<path fill="#dddddd" stroke="black" d="M268.91,-157C268.91,-157 317.91,-157 317.91,-157 323.91,-157 329.91,-163 329.91,-169 329.91,-169 329.91,-181 329.91,-181 329.91,-187 323.91,-193 317.91,-193 317.91,-193 268.91,-193 268.91,-193 262.91,-193 256.91,-187 256.91,-181 256.91,-181 256.91,-169 256.91,-169 256.91,-163 262.91,-157 268.91,-157"/>
<text text-anchor="middle" x="293.41" y="-171.3" font-family="Arial" font-size="14.00">classify&#45;d</text>
</g>
<!-- topicref -->
<g id="node2" class="node">
<title>topicref</title>
<path fill="#afa7f4" stroke="black" d="M273.46,-279.11C273.46,-279.11 310.46,-279.11 310.46,-279.11 316.46,-279.11 322.46,-285.11 322.46,-291.11 322.46,-291.11 322.46,-303.11 322.46,-303.11 322.46,-309.11 316.46,-315.11 310.46,-315.11 310.46,-315.11 273.46,-315.11 273.46,-315.11 267.46,-315.11 261.46,-309.11 261.46,-303.11 261.46,-303.11 261.46,-291.11 261.46,-291.11 261.46,-285.11 267.46,-279.11 273.46,-279.11"/>
<text text-anchor="middle" x="291.96" y="-293.41" font-family="Arial" font-size="14.00">topicref</text>
</g>
<!-- classify&#45;d&#45;&gt;topicref -->
<g id="edge1" class="edge">
<title>classify&#45;d&#45;&gt;topicref</title>
<path fill="none" stroke="#1f78b4" d="M293.2,-193.01C292.96,-213.04 292.57,-245.62 292.29,-269"/>
<polygon fill="#a6cee3" stroke="#1f78b4" points="288.79,-268.98 292.17,-279.02 295.79,-269.06 288.79,-268.98"/>
</g>
<!-- reltable -->
<g id="node6" class="node">
<title>reltable</title>
<path fill="#afa7f4" stroke="black" d="M170.15,-110.45C170.15,-110.45 207.15,-110.45 207.15,-110.45 213.15,-110.45 219.15,-116.45 219.15,-122.45 219.15,-122.45 219.15,-134.45 219.15,-134.45 219.15,-140.45 213.15,-146.45 207.15,-146.45 207.15,-146.45 170.15,-146.45 170.15,-146.45 164.15,-146.45 158.15,-140.45 158.15,-134.45 158.15,-134.45 158.15,-122.45 158.15,-122.45 158.15,-116.45 164.15,-110.45 170.15,-110.45"/>
<text text-anchor="middle" x="188.65" y="-124.75" font-family="Arial" font-size="14.00">reltable</text>
</g>
<!-- classify&#45;d&#45;&gt;reltable -->
<g id="edge5" class="edge">
<title>classify&#45;d&#45;&gt;reltable</title>
<path fill="none" stroke="#1f78b4" d="M256.77,-158.72C247.66,-154.67 237.85,-150.31 228.59,-146.2"/>
<polygon fill="#a6cee3" stroke="#1f78b4" points="229.76,-142.89 219.2,-142.02 226.91,-149.28 229.76,-142.89"/>
</g>
<!-- relrow -->
<g id="node8" class="node">
<title>relrow</title>
<path fill="#afa7f4" stroke="black" d="M361.13,-80.72C361.13,-80.72 391.13,-80.72 391.13,-80.72 397.13,-80.72 403.13,-86.72 403.13,-92.72 403.13,-92.72 403.13,-104.72 403.13,-104.72 403.13,-110.72 397.13,-116.72 391.13,-116.72 391.13,-116.72 361.13,-116.72 361.13,-116.72 355.13,-116.72 349.13,-110.72 349.13,-104.72 349.13,-104.72 349.13,-92.72 349.13,-92.72 349.13,-86.72 355.13,-80.72 361.13,-80.72"/>
<text text-anchor="middle" x="376.13" y="-95.02" font-family="Arial" font-size="14.00">relrow</text>
</g>
<!-- classify&#45;d&#45;&gt;relrow -->
<g id="edge7" class="edge">
<title>classify&#45;d&#45;&gt;relrow</title>
<path fill="none" stroke="#1f78b4" d="M313.02,-156.92C323.75,-147.02 337.23,-134.59 348.97,-123.77"/>
<polygon fill="#a6cee3" stroke="#1f78b4" points="351.4,-126.28 356.38,-116.93 346.66,-121.13 351.4,-126.28"/>
</g>
<!-- relcell -->
<g id="node11" class="node">
<title>relcell</title>
<path fill="#afa7f4" stroke="black" d="M346.9,-244.09C346.9,-244.09 376.9,-244.09 376.9,-244.09 382.9,-244.09 388.9,-250.09 388.9,-256.09 388.9,-256.09 388.9,-268.09 388.9,-268.09 388.9,-274.09 382.9,-280.09 376.9,-280.09 376.9,-280.09 346.9,-280.09 346.9,-280.09 340.9,-280.09 334.9,-274.09 334.9,-268.09 334.9,-268.09 334.9,-256.09 334.9,-256.09 334.9,-250.09 340.9,-244.09 346.9,-244.09"/>
<text text-anchor="middle" x="361.9" y="-258.39" font-family="Arial" font-size="14.00">relcell</text>
</g>
<!-- classify&#45;d&#45;&gt;relcell -->
<g id="edge10" class="edge">
<title>classify&#45;d&#45;&gt;relcell</title>
<path fill="none" stroke="#1f78b4" d="M307.6,-193.04C317.34,-205.42 330.41,-222.04 341.29,-235.88"/>
<polygon fill="#a6cee3" stroke="#1f78b4" points="338.8,-238.37 347.73,-244.07 344.3,-234.05 338.8,-238.37"/>
</g>
<!-- topicsubject -->
<g id="node3" class="node">
<title>topicsubject</title>
<path fill="#1afabc" stroke="black" d="M144.11,-286.39C144.11,-286.39 208.11,-286.39 208.11,-286.39 214.11,-286.39 220.11,-292.39 220.11,-298.39 220.11,-298.39 220.11,-310.39 220.11,-310.39 220.11,-316.39 214.11,-322.39 208.11,-322.39 208.11,-322.39 144.11,-322.39 144.11,-322.39 138.11,-322.39 132.11,-316.39 132.11,-310.39 132.11,-310.39 132.11,-298.39 132.11,-298.39 132.11,-292.39 138.11,-286.39 144.11,-286.39"/>
<text text-anchor="middle" x="176.11" y="-300.69" font-family="Arial" font-size="14.00">topicsubject</text>
</g>
<!-- topicref&#45;&gt;topicsubject -->
<g id="edge2" class="edge">
<title>topicref&#45;&gt;topicsubject</title>
<path fill="none" stroke="#1f78b4" d="M261.21,-299.04C251.77,-299.64 241.07,-300.31 230.53,-300.97"/>
<polygon fill="#a6cee3" stroke="#1f78b4" points="230.28,-297.48 220.52,-301.6 230.72,-304.47 230.28,-297.48"/>
</g>
<!-- topicapply -->
<g id="node4" class="node">
<title>topicapply</title>
<path fill="#1afabc" stroke="black" d="M355.63,-344.93C355.63,-344.93 408.63,-344.93 408.63,-344.93 414.63,-344.93 420.63,-350.93 420.63,-356.93 420.63,-356.93 420.63,-368.93 420.63,-368.93 420.63,-374.93 414.63,-380.93 408.63,-380.93 408.63,-380.93 355.63,-380.93 355.63,-380.93 349.63,-380.93 343.63,-374.93 343.63,-368.93 343.63,-368.93 343.63,-356.93 343.63,-356.93 343.63,-350.93 349.63,-344.93 355.63,-344.93"/>
<text text-anchor="middle" x="382.13" y="-359.23" font-family="Arial" font-size="14.00">topicapply</text>
</g>
<!-- topicref&#45;&gt;topicapply -->
<g id="edge3" class="edge">
<title>topicref&#45;&gt;topicapply</title>
<path fill="none" stroke="#1f78b4" d="M317.08,-315.45C327.03,-322.71 338.6,-331.16 349.21,-338.9"/>
<polygon fill="#a6cee3" stroke="#1f78b4" points="347.32,-341.86 357.46,-344.92 351.45,-336.2 347.32,-341.86"/>
</g>
<!-- subjectref -->
<g id="node5" class="node">
<title>subjectref</title>
<path fill="#1afabc" stroke="black" d="M271.31,-389.74C271.31,-389.74 322.31,-389.74 322.31,-389.74 328.31,-389.74 334.31,-395.74 334.31,-401.74 334.31,-401.74 334.31,-413.74 334.31,-413.74 334.31,-419.74 328.31,-425.74 322.31,-425.74 322.31,-425.74 271.31,-425.74 271.31,-425.74 265.31,-425.74 259.31,-419.74 259.31,-413.74 259.31,-413.74 259.31,-401.74 259.31,-401.74 259.31,-395.74 265.31,-389.74 271.31,-389.74"/>
<text text-anchor="middle" x="296.81" y="-404.04" font-family="Arial" font-size="14.00">subjectref</text>
</g>
<!-- topicref&#45;&gt;subjectref -->
<g id="edge4" class="edge">
<title>topicref&#45;&gt;subjectref</title>
<path fill="none" stroke="#1f78b4" d="M292.76,-315.38C293.52,-332.76 294.68,-359.16 295.56,-379.29"/>
<polygon fill="#a6cee3" stroke="#1f78b4" points="292.07,-379.61 296.01,-389.45 299.07,-379.3 292.07,-379.61"/>
</g>
<!-- topicSubjectTable -->
<g id="node7" class="node">
<title>topicSubjectTable</title>
<path fill="#1afabc" stroke="black" d="M11.64,-65.86C11.64,-65.86 109.64,-65.86 109.64,-65.86 115.64,-65.86 121.64,-71.86 121.64,-77.86 121.64,-77.86 121.64,-89.86 121.64,-89.86 121.64,-95.86 115.64,-101.86 109.64,-101.86 109.64,-101.86 11.64,-101.86 11.64,-101.86 5.64,-101.86 -0.36,-95.86 -0.36,-89.86 -0.36,-89.86 -0.36,-77.86 -0.36,-77.86 -0.36,-71.86 5.64,-65.86 11.64,-65.86"/>
<text text-anchor="middle" x="60.64" y="-80.16" font-family="Arial" font-size="14.00">topicSubjectTable</text>
</g>
<!-- reltable&#45;&gt;topicSubjectTable -->
<g id="edge6" class="edge">
<title>reltable&#45;&gt;topicSubjectTable</title>
<path fill="none" stroke="#1f78b4" d="M157.99,-117.77C147.14,-113.99 134.52,-109.6 122.04,-105.25"/>
<polygon fill="#a6cee3" stroke="#1f78b4" points="123.14,-101.93 112.55,-101.94 120.84,-108.54 123.14,-101.93"/>
</g>
<!-- topicSubjectHeader -->
<g id="node9" class="node">
<title>topicSubjectHeader</title>
<path fill="#1afabc" stroke="black" d="M292.76,-35.4C292.76,-35.4 402.76,-35.4 402.76,-35.4 408.76,-35.4 414.76,-41.4 414.76,-47.4 414.76,-47.4 414.76,-59.4 414.76,-59.4 414.76,-65.4 408.76,-71.4 402.76,-71.4 402.76,-71.4 292.76,-71.4 292.76,-71.4 286.76,-71.4 280.76,-65.4 280.76,-59.4 280.76,-59.4 280.76,-47.4 280.76,-47.4 280.76,-41.4 286.76,-35.4 292.76,-35.4"/>
<text text-anchor="middle" x="347.76" y="-49.7" font-family="Arial" font-size="14.00">topicSubjectHeader</text>
</g>
<!-- relrow&#45;&gt;topicSubjectHeader -->
<g id="edge8" class="edge">
<title>relrow&#45;&gt;topicSubjectHeader</title>
<path fill="none" stroke="#1f78b4" d="M364.75,-80.54C364.7,-80.45 364.64,-80.36 364.58,-80.27"/>
<polygon fill="#a6cee3" stroke="#1f78b4" points="367.41,-78.19 359.14,-71.57 361.48,-81.9 367.41,-78.19"/>
</g>
<!-- topicSubjectRow -->
<g id="node10" class="node">
<title>topicSubjectRow</title>
<path fill="#1afabc" stroke="black" d="M437.65,-0.78C437.65,-0.78 530.65,-0.78 530.65,-0.78 536.65,-0.78 542.65,-6.78 542.65,-12.78 542.65,-12.78 542.65,-24.78 542.65,-24.78 542.65,-30.78 536.65,-36.78 530.65,-36.78 530.65,-36.78 437.65,-36.78 437.65,-36.78 431.65,-36.78 425.65,-30.78 425.65,-24.78 425.65,-24.78 425.65,-12.78 425.65,-12.78 425.65,-6.78 431.65,-0.78 437.65,-0.78"/>
<text text-anchor="middle" x="484.15" y="-15.08" font-family="Arial" font-size="14.00">topicSubjectRow</text>
</g>
<!-- relrow&#45;&gt;topicSubjectRow -->
<g id="edge9" class="edge">
<title>relrow&#45;&gt;topicSubjectRow</title>
<path fill="none" stroke="#1f78b4" d="M400.64,-80.58C415.7,-69.44 435.16,-55.03 451.51,-42.94"/>
<polygon fill="#a6cee3" stroke="#1f78b4" points="453.78,-45.61 459.74,-36.85 449.62,-39.98 453.78,-45.61"/>
</g>
<!-- topicCell -->
<g id="node12" class="node">
<title>topicCell</title>
<path fill="#1afabc" stroke="black" d="M273.02,-324.97C273.02,-324.97 317.02,-324.97 317.02,-324.97 323.02,-324.97 329.02,-330.97 329.02,-336.97 329.02,-336.97 329.02,-348.97 329.02,-348.97 329.02,-354.97 323.02,-360.97 317.02,-360.97 317.02,-360.97 273.02,-360.97 273.02,-360.97 267.02,-360.97 261.02,-354.97 261.02,-348.97 261.02,-348.97 261.02,-336.97 261.02,-336.97 261.02,-330.97 267.02,-324.97 273.02,-324.97"/>
<text text-anchor="middle" x="295.02" y="-339.27" font-family="Arial" font-size="14.00">topicCell</text>
</g>
<!-- relcell&#45;&gt;topicCell -->
<g id="edge11" class="edge">
<title>relcell&#45;&gt;topicCell</title>
<path fill="none" stroke="#1f78b4" d="M346.73,-280.45C337.77,-291.28 326.29,-305.16 316.43,-317.08"/>
<polygon fill="#a6cee3" stroke="#1f78b4" points="313.58,-315.03 309.91,-324.97 318.98,-319.49 313.58,-315.03"/>
</g>
<!-- subjectCell -->
<g id="node13" class="node">
<title>subjectCell</title>
<path fill="#1afabc" stroke="black" d="M443.63,-233.57C443.63,-233.57 502.63,-233.57 502.63,-233.57 508.63,-233.57 514.63,-239.57 514.63,-245.57 514.63,-245.57 514.63,-257.57 514.63,-257.57 514.63,-263.57 508.63,-269.57 502.63,-269.57 502.63,-269.57 443.63,-269.57 443.63,-269.57 437.63,-269.57 431.63,-263.57 431.63,-257.57 431.63,-257.57 431.63,-245.57 431.63,-245.57 431.63,-239.57 437.63,-233.57 443.63,-233.57"/>
<text text-anchor="middle" x="473.13" y="-247.87" font-family="Arial" font-size="14.00">subjectCell</text>
</g>
<!-- relcell&#45;&gt;subjectCell -->
<g id="edge12" class="edge">
<title>relcell&#45;&gt;subjectCell</title>
<path fill="none" stroke="#1f78b4" d="M389.11,-259.52C398.86,-258.6 410.2,-257.52 421.34,-256.47"/>
<polygon fill="#a6cee3" stroke="#1f78b4" points="421.83,-259.94 431.46,-255.51 421.17,-252.97 421.83,-259.94"/>
</g>
</g>
</svg>
