<?xml version="1.0" encoding="UTF-8" standalone="no"?>
<!-- Generated by graphviz version 6.0.1 (20220911.1526)
 -->
<!-- Pages: 1 -->
<svg width="583pt" height="324pt"
 viewBox="0.00 0.00 583.00 324.00" xmlns="http://www.w3.org/2000/svg" xmlns:xlink="http://www.w3.org/1999/xlink">
<g id="graph0" class="graph" transform="scale(1 1) rotate(0) translate(4 320)">
<polygon fill="white" stroke="none" points="-4,4 -4,-320 579,-320 579,4 -4,4"/>
<!-- ditavalref&#45;d -->
<g id="node1" class="node">
<title>ditavalref&#45;d</title>
<path fill="#dddddd" stroke="black" d="M285.25,-153.16C285.25,-153.16 344.25,-153.16 344.25,-153.16 350.25,-153.16 356.25,-159.16 356.25,-165.16 356.25,-165.16 356.25,-177.16 356.25,-177.16 356.25,-183.16 350.25,-189.16 344.25,-189.16 344.25,-189.16 285.25,-189.16 285.25,-189.16 279.25,-189.16 273.25,-183.16 273.25,-177.16 273.25,-177.16 273.25,-165.16 273.25,-165.16 273.25,-159.16 279.25,-153.16 285.25,-153.16"/>
<text text-anchor="middle" x="314.75" y="-167.46" font-family="Arial" font-size="14.00">ditavalref&#45;d</text>
</g>
<!-- topicref -->
<g id="node2" class="node">
<title>topicref</title>
<path fill="#afa7f4" stroke="black" d="M415.05,-177.67C415.05,-177.67 452.05,-177.67 452.05,-177.67 458.05,-177.67 464.05,-183.67 464.05,-189.67 464.05,-189.67 464.05,-201.67 464.05,-201.67 464.05,-207.67 458.05,-213.67 452.05,-213.67 452.05,-213.67 415.05,-213.67 415.05,-213.67 409.05,-213.67 403.05,-207.67 403.05,-201.67 403.05,-201.67 403.05,-189.67 403.05,-189.67 403.05,-183.67 409.05,-177.67 415.05,-177.67"/>
<text text-anchor="middle" x="433.55" y="-191.97" font-family="Arial" font-size="14.00">topicref</text>
</g>
<!-- ditavalref&#45;d&#45;&gt;topicref -->
<g id="edge1" class="edge">
<title>ditavalref&#45;d&#45;&gt;topicref</title>
<path fill="none" stroke="#1f78b4" d="M356.3,-179.74C368.1,-182.17 380.93,-184.82 392.69,-187.24"/>
<polygon fill="#a6cee3" stroke="#1f78b4" points="392.19,-190.72 402.69,-189.31 393.61,-183.86 392.19,-190.72"/>
</g>
<!-- topicmeta -->
<g id="node4" class="node">
<title>topicmeta</title>
<path fill="#afa7f4" stroke="black" d="M218.5,-228.18C218.5,-228.18 270.5,-228.18 270.5,-228.18 276.5,-228.18 282.5,-234.18 282.5,-240.18 282.5,-240.18 282.5,-252.18 282.5,-252.18 282.5,-258.18 276.5,-264.18 270.5,-264.18 270.5,-264.18 218.5,-264.18 218.5,-264.18 212.5,-264.18 206.5,-258.18 206.5,-252.18 206.5,-252.18 206.5,-240.18 206.5,-240.18 206.5,-234.18 212.5,-228.18 218.5,-228.18"/>
<text text-anchor="middle" x="244.5" y="-242.48" font-family="Arial" font-size="14.00">topicmeta</text>
</g>
<!-- ditavalref&#45;d&#45;&gt;topicmeta -->
<g id="edge3" class="edge">
<title>ditavalref&#45;d&#45;&gt;topicmeta</title>
<path fill="none" stroke="#1f78b4" d="M297.75,-189.32C289.01,-198.65 278.21,-210.18 268.63,-220.41"/>
<polygon fill="#a6cee3" stroke="#1f78b4" points="265.87,-218.24 261.59,-227.93 270.98,-223.02 265.87,-218.24"/>
</g>
<!-- data -->
<g id="node6" class="node">
<title>data</title>
<path fill="#afa7f4" stroke="black" d="M176.73,-135.68C176.73,-135.68 206.73,-135.68 206.73,-135.68 212.73,-135.68 218.73,-141.68 218.73,-147.68 218.73,-147.68 218.73,-159.68 218.73,-159.68 218.73,-165.68 212.73,-171.68 206.73,-171.68 206.73,-171.68 176.73,-171.68 176.73,-171.68 170.73,-171.68 164.73,-165.68 164.73,-159.68 164.73,-159.68 164.73,-147.68 164.73,-147.68 164.73,-141.68 170.73,-135.68 176.73,-135.68"/>
<text text-anchor="middle" x="191.73" y="-149.98" font-family="Arial" font-size="14.00">data</text>
</g>
<!-- ditavalref&#45;d&#45;&gt;data -->
<g id="edge5" class="edge">
<title>ditavalref&#45;d&#45;&gt;data</title>
<path fill="none" stroke="#1f78b4" d="M273.11,-165.25C258.89,-163.23 243.08,-160.98 229.21,-159.01"/>
<polygon fill="#a6cee3" stroke="#1f78b4" points="229.43,-155.5 219.04,-157.56 228.44,-162.44 229.43,-155.5"/>
</g>
<!-- ditavalref -->
<g id="node3" class="node">
<title>ditavalref</title>
<path fill="#1afabc" stroke="black" d="M516,-204.04C516,-204.04 563,-204.04 563,-204.04 569,-204.04 575,-210.04 575,-216.04 575,-216.04 575,-228.04 575,-228.04 575,-234.04 569,-240.04 563,-240.04 563,-240.04 516,-240.04 516,-240.04 510,-240.04 504,-234.04 504,-228.04 504,-228.04 504,-216.04 504,-216.04 504,-210.04 510,-204.04 516,-204.04"/>
<text text-anchor="middle" x="539.5" y="-218.34" font-family="Arial" font-size="14.00">ditavalref</text>
</g>
<!-- topicref&#45;&gt;ditavalref -->
<g id="edge2" class="edge">
<title>topicref&#45;&gt;ditavalref</title>
<path fill="none" stroke="#1f78b4" d="M464.19,-203.3C473.45,-205.6 483.83,-208.18 493.84,-210.68"/>
<polygon fill="#a6cee3" stroke="#1f78b4" points="493.14,-214.11 503.69,-213.13 494.83,-207.31 493.14,-214.11"/>
</g>
<!-- ditavalmeta -->
<g id="node5" class="node">
<title>ditavalmeta</title>
<path fill="#1afabc" stroke="black" d="M195.31,-279.57C195.31,-279.57 257.31,-279.57 257.31,-279.57 263.31,-279.57 269.31,-285.57 269.31,-291.57 269.31,-291.57 269.31,-303.57 269.31,-303.57 269.31,-309.57 263.31,-315.57 257.31,-315.57 257.31,-315.57 195.31,-315.57 195.31,-315.57 189.31,-315.57 183.31,-309.57 183.31,-303.57 183.31,-303.57 183.31,-291.57 183.31,-291.57 183.31,-285.57 189.31,-279.57 195.31,-279.57"/>
<text text-anchor="middle" x="226.31" y="-293.87" font-family="Arial" font-size="14.00">ditavalmeta</text>
</g>
<!-- topicmeta&#45;&gt;ditavalmeta -->
<g id="edge4" class="edge">
<title>topicmeta&#45;&gt;ditavalmeta</title>
<path fill="none" stroke="#1f78b4" d="M238.03,-264.44C237.44,-266.11 236.84,-267.82 236.23,-269.55"/>
<polygon fill="#a6cee3" stroke="#1f78b4" points="232.79,-268.77 232.75,-279.37 239.39,-271.11 232.79,-268.77"/>
</g>
<!-- dvrResourcePrefix -->
<g id="node7" class="node">
<title>dvrResourcePrefix</title>
<path fill="#1afabc" stroke="black" d="M18.52,-193.08C18.52,-193.08 122.52,-193.08 122.52,-193.08 128.52,-193.08 134.52,-199.08 134.52,-205.08 134.52,-205.08 134.52,-217.08 134.52,-217.08 134.52,-223.08 128.52,-229.08 122.52,-229.08 122.52,-229.08 18.52,-229.08 18.52,-229.08 12.52,-229.08 6.52,-223.08 6.52,-217.08 6.52,-217.08 6.52,-205.08 6.52,-205.08 6.52,-199.08 12.52,-193.08 18.52,-193.08"/>
<text text-anchor="middle" x="70.52" y="-207.38" font-family="Arial" font-size="14.00">dvrResourcePrefix</text>
</g>
<!-- data&#45;&gt;dvrResourcePrefix -->
<g id="edge6" class="edge">
<title>data&#45;&gt;dvrResourcePrefix</title>
<path fill="none" stroke="#1f78b4" d="M164.53,-166.56C150.76,-173.08 133.64,-181.19 117.8,-188.69"/>
<polygon fill="#a6cee3" stroke="#1f78b4" points="116.2,-185.57 108.66,-193.02 119.2,-191.9 116.2,-185.57"/>
</g>
<!-- dvrResourceSuffix -->
<g id="node8" class="node">
<title>dvrResourceSuffix</title>
<path fill="#1afabc" stroke="black" d="M172.4,-0.76C172.4,-0.76 275.4,-0.76 275.4,-0.76 281.4,-0.76 287.4,-6.76 287.4,-12.76 287.4,-12.76 287.4,-24.76 287.4,-24.76 287.4,-30.76 281.4,-36.76 275.4,-36.76 275.4,-36.76 172.4,-36.76 172.4,-36.76 166.4,-36.76 160.4,-30.76 160.4,-24.76 160.4,-24.76 160.4,-12.76 160.4,-12.76 160.4,-6.76 166.4,-0.76 172.4,-0.76"/>
<text text-anchor="middle" x="223.9" y="-15.06" font-family="Arial" font-size="14.00">dvrResourceSuffix</text>
</g>
<!-- data&#45;&gt;dvrResourceSuffix -->
<g id="edge7" class="edge">
<title>data&#45;&gt;dvrResourceSuffix</title>
<path fill="none" stroke="#1f78b4" d="M196.07,-135.49C201.49,-112.75 210.82,-73.61 217.17,-46.98"/>
<polygon fill="#a6cee3" stroke="#1f78b4" points="220.61,-47.64 219.52,-37.1 213.8,-46.02 220.61,-47.64"/>
</g>
<!-- dvrKeyscopePrefix -->
<g id="node9" class="node">
<title>dvrKeyscopePrefix</title>
<path fill="#1afabc" stroke="black" d="M12.42,-81.01C12.42,-81.01 117.42,-81.01 117.42,-81.01 123.42,-81.01 129.42,-87.01 129.42,-93.01 129.42,-93.01 129.42,-105.01 129.42,-105.01 129.42,-111.01 123.42,-117.01 117.42,-117.01 117.42,-117.01 12.42,-117.01 12.42,-117.01 6.42,-117.01 0.42,-111.01 0.42,-105.01 0.42,-105.01 0.42,-93.01 0.42,-93.01 0.42,-87.01 6.42,-81.01 12.42,-81.01"/>
<text text-anchor="middle" x="64.92" y="-95.31" font-family="Arial" font-size="14.00">dvrKeyscopePrefix</text>
</g>
<!-- data&#45;&gt;dvrKeyscopePrefix -->
<g id="edge8" class="edge">
<title>data&#45;&gt;dvrKeyscopePrefix</title>
<path fill="none" stroke="#1f78b4" d="M164.53,-141.96C150.54,-135.92 133,-128.37 116.57,-121.28"/>
<polygon fill="#a6cee3" stroke="#1f78b4" points="117.62,-117.92 107.05,-117.18 114.85,-124.35 117.62,-117.92"/>
</g>
<!-- dvrKeyscopeSuffix -->
<g id="node10" class="node">
<title>dvrKeyscopeSuffix</title>
<path fill="#1afabc" stroke="black" d="M149.62,-84.46C149.62,-84.46 253.62,-84.46 253.62,-84.46 259.62,-84.46 265.62,-90.46 265.62,-96.46 265.62,-96.46 265.62,-108.46 265.62,-108.46 265.62,-114.46 259.62,-120.46 253.62,-120.46 253.62,-120.46 149.62,-120.46 149.62,-120.46 143.62,-120.46 137.62,-114.46 137.62,-108.46 137.62,-108.46 137.62,-96.46 137.62,-96.46 137.62,-90.46 143.62,-84.46 149.62,-84.46"/>
<text text-anchor="middle" x="201.62" y="-98.76" font-family="Arial" font-size="14.00">dvrKeyscopeSuffix</text>
</g>
<!-- data&#45;&gt;dvrKeyscopeSuffix -->
<g id="edge9" class="edge">
<title>data&#45;&gt;dvrKeyscopeSuffix</title>
<path fill="none" stroke="#1f78b4" d="M195.25,-135.48C195.54,-133.97 195.84,-132.42 196.14,-130.86"/>
<polygon fill="#a6cee3" stroke="#1f78b4" points="199.66,-131.08 198.12,-120.6 192.79,-129.76 199.66,-131.08"/>
</g>
</g>
</svg>
