<?xml version="1.0" encoding="UTF-8" standalone="no"?>
<!DOCTYPE svg PUBLIC "-//W3C//DTD SVG 1.1//EN"
 "http://www.w3.org/Graphics/SVG/1.1/DTD/svg11.dtd">
<!-- Generated by graphviz version 6.0.1 (20220911.1526)
 -->
<!-- Pages: 1 -->
<svg width="316pt" height="221pt"
 viewBox="0.00 0.00 316.00 221.00" xmlns="http://www.w3.org/2000/svg" xmlns:xlink="http://www.w3.org/1999/xlink">
<g id="graph0" class="graph" transform="scale(1 1) rotate(0) translate(4 217)">
<polygon fill="white" stroke="none" points="-4,4 -4,-217 312,-217 312,4 -4,4"/>
<!-- equation&#45;d -->
<g id="node1" class="node">
<title>equation&#45;d</title>
<path fill="#dddddd" stroke="black" d="M82.67,-71.25C82.67,-71.25 138.67,-71.25 138.67,-71.25 144.67,-71.25 150.67,-77.25 150.67,-83.25 150.67,-83.25 150.67,-95.25 150.67,-95.25 150.67,-101.25 144.67,-107.25 138.67,-107.25 138.67,-107.25 82.67,-107.25 82.67,-107.25 76.67,-107.25 70.67,-101.25 70.67,-95.25 70.67,-95.25 70.67,-83.25 70.67,-83.25 70.67,-77.25 76.67,-71.25 82.67,-71.25"/>
<text text-anchor="middle" x="110.67" y="-85.55" font-family="Arial" font-size="14.00">equation&#45;d</text>
</g>
<!-- ph -->
<g id="node2" class="node">
<title>ph</title>
<path fill="#afa7f4" stroke="black" d="M131.72,-122.6C131.72,-122.6 161.72,-122.6 161.72,-122.6 167.72,-122.6 173.72,-128.6 173.72,-134.6 173.72,-134.6 173.72,-146.6 173.72,-146.6 173.72,-152.6 167.72,-158.6 161.72,-158.6 161.72,-158.6 131.72,-158.6 131.72,-158.6 125.72,-158.6 119.72,-152.6 119.72,-146.6 119.72,-146.6 119.72,-134.6 119.72,-134.6 119.72,-128.6 125.72,-122.6 131.72,-122.6"/>
<text text-anchor="middle" x="146.72" y="-136.9" font-family="Arial" font-size="14.00">ph</text>
</g>
<!-- equation&#45;d&#45;&gt;ph -->
<g id="edge1" class="edge">
<title>equation&#45;d&#45;&gt;ph</title>
<path fill="none" stroke="#1f78b4" d="M123.48,-107.5C124.97,-109.62 126.51,-111.81 128.05,-114.01"/>
<polygon fill="#a6cee3" stroke="#1f78b4" points="125.34,-116.24 133.95,-122.41 131.07,-112.21 125.34,-116.24"/>
</g>
<!-- div -->
<g id="node5" class="node">
<title>div</title>
<path fill="#afa7f4" stroke="black" d="M31.82,-120.03C31.82,-120.03 61.82,-120.03 61.82,-120.03 67.82,-120.03 73.82,-126.03 73.82,-132.03 73.82,-132.03 73.82,-144.03 73.82,-144.03 73.82,-150.03 67.82,-156.03 61.82,-156.03 61.82,-156.03 31.82,-156.03 31.82,-156.03 25.82,-156.03 19.82,-150.03 19.82,-144.03 19.82,-144.03 19.82,-132.03 19.82,-132.03 19.82,-126.03 25.82,-120.03 31.82,-120.03"/>
<text text-anchor="middle" x="46.82" y="-134.33" font-family="Arial" font-size="14.00">div</text>
</g>
<!-- equation&#45;d&#45;&gt;div -->
<g id="edge4" class="edge">
<title>equation&#45;d&#45;&gt;div</title>
<path fill="none" stroke="#1f78b4" d="M86.89,-107.41C84.12,-109.54 81.25,-111.73 78.39,-113.91"/>
<polygon fill="#a6cee3" stroke="#1f78b4" points="76.23,-111.16 70.4,-120.01 80.47,-116.72 76.23,-111.16"/>
</g>
<!-- fig -->
<g id="node7" class="node">
<title>fig</title>
<path fill="#afa7f4" stroke="black" d="M83.12,-16.3C83.12,-16.3 113.12,-16.3 113.12,-16.3 119.12,-16.3 125.12,-22.3 125.12,-28.3 125.12,-28.3 125.12,-40.3 125.12,-40.3 125.12,-46.3 119.12,-52.3 113.12,-52.3 113.12,-52.3 83.12,-52.3 83.12,-52.3 77.12,-52.3 71.12,-46.3 71.12,-40.3 71.12,-40.3 71.12,-28.3 71.12,-28.3 71.12,-22.3 77.12,-16.3 83.12,-16.3"/>
<text text-anchor="middle" x="98.12" y="-30.6" font-family="Arial" font-size="14.00">fig</text>
</g>
<!-- equation&#45;d&#45;&gt;fig -->
<g id="edge6" class="edge">
<title>equation&#45;d&#45;&gt;fig</title>
<path fill="none" stroke="#1f78b4" d="M106.49,-70.95C105.85,-68.14 105.18,-65.19 104.5,-62.23"/>
<polygon fill="#a6cee3" stroke="#1f78b4" points="107.88,-61.3 102.24,-52.33 101.05,-62.86 107.88,-61.3"/>
</g>
<!-- equation&#45;inline -->
<g id="node3" class="node">
<title>equation&#45;inline</title>
<path fill="#1afabc" stroke="black" d="M215.5,-98.55C215.5,-98.55 295.5,-98.55 295.5,-98.55 301.5,-98.55 307.5,-104.55 307.5,-110.55 307.5,-110.55 307.5,-122.55 307.5,-122.55 307.5,-128.55 301.5,-134.55 295.5,-134.55 295.5,-134.55 215.5,-134.55 215.5,-134.55 209.5,-134.55 203.5,-128.55 203.5,-122.55 203.5,-122.55 203.5,-110.55 203.5,-110.55 203.5,-104.55 209.5,-98.55 215.5,-98.55"/>
<text text-anchor="middle" x="255.5" y="-112.85" font-family="Arial" font-size="14.00">equation&#45;inline</text>
</g>
<!-- ph&#45;&gt;equation&#45;inline -->
<g id="edge2" class="edge">
<title>ph&#45;&gt;equation&#45;inline</title>
<path fill="none" stroke="#1f78b4" d="M173.89,-134.59C179.89,-133.26 186.49,-131.8 193.26,-130.31"/>
<polygon fill="#a6cee3" stroke="#1f78b4" points="194.23,-133.68 203.24,-128.1 192.72,-126.84 194.23,-133.68"/>
</g>
<!-- equation&#45;number -->
<g id="node4" class="node">
<title>equation&#45;number</title>
<path fill="#1afabc" stroke="black" d="M134.19,-176.6C134.19,-176.6 229.19,-176.6 229.19,-176.6 235.19,-176.6 241.19,-182.6 241.19,-188.6 241.19,-188.6 241.19,-200.6 241.19,-200.6 241.19,-206.6 235.19,-212.6 229.19,-212.6 229.19,-212.6 134.19,-212.6 134.19,-212.6 128.19,-212.6 122.19,-206.6 122.19,-200.6 122.19,-200.6 122.19,-188.6 122.19,-188.6 122.19,-182.6 128.19,-176.6 134.19,-176.6"/>
<text text-anchor="middle" x="181.69" y="-190.9" font-family="Arial" font-size="14.00">equation&#45;number</text>
</g>
<!-- ph&#45;&gt;equation&#45;number -->
<g id="edge3" class="edge">
<title>ph&#45;&gt;equation&#45;number</title>
<path fill="none" stroke="#1f78b4" d="M158.56,-158.88C160.44,-161.78 162.42,-164.84 164.39,-167.88"/>
<polygon fill="#a6cee3" stroke="#1f78b4" points="161.49,-169.84 169.86,-176.33 167.37,-166.04 161.49,-169.84"/>
</g>
<!-- equation&#45;block -->
<g id="node6" class="node">
<title>equation&#45;block</title>
<path fill="#1afabc" stroke="black" d="M12.07,-165.23C12.07,-165.23 92.07,-165.23 92.07,-165.23 98.07,-165.23 104.07,-171.23 104.07,-177.23 104.07,-177.23 104.07,-189.23 104.07,-189.23 104.07,-195.23 98.07,-201.23 92.07,-201.23 92.07,-201.23 12.07,-201.23 12.07,-201.23 6.07,-201.23 0.07,-195.23 0.07,-189.23 0.07,-189.23 0.07,-177.23 0.07,-177.23 0.07,-171.23 6.07,-165.23 12.07,-165.23"/>
<text text-anchor="middle" x="52.07" y="-179.53" font-family="Arial" font-size="14.00">equation&#45;block</text>
</g>
<!-- div&#45;&gt;equation&#45;block -->
<g id="edge5" class="edge">
<title>div&#45;&gt;equation&#45;block</title>
<path fill="none" stroke="#1f78b4" d="M48.93,-156.15C48.94,-156.25 48.95,-156.34 48.96,-156.43"/>
<polygon fill="#a6cee3" stroke="#1f78b4" points="45.34,-155.57 49.97,-165.1 52.29,-154.77 45.34,-155.57"/>
</g>
<!-- equation&#45;figure -->
<g id="node8" class="node">
<title>equation&#45;figure</title>
<path fill="#1afabc" stroke="black" d="M175.08,-0.13C175.08,-0.13 258.08,-0.13 258.08,-0.13 264.08,-0.13 270.08,-6.13 270.08,-12.13 270.08,-12.13 270.08,-24.13 270.08,-24.13 270.08,-30.13 264.08,-36.13 258.08,-36.13 258.08,-36.13 175.08,-36.13 175.08,-36.13 169.08,-36.13 163.08,-30.13 163.08,-24.13 163.08,-24.13 163.08,-12.13 163.08,-12.13 163.08,-6.13 169.08,-0.13 175.08,-0.13"/>
<text text-anchor="middle" x="216.58" y="-14.43" font-family="Arial" font-size="14.00">equation&#45;figure</text>
</g>
<!-- fig&#45;&gt;equation&#45;figure -->
<g id="edge7" class="edge">
<title>fig&#45;&gt;equation&#45;figure</title>
<path fill="none" stroke="#1f78b4" d="M125.3,-30.59C133.61,-29.45 143.13,-28.16 152.82,-26.83"/>
<polygon fill="#a6cee3" stroke="#1f78b4" points="153.49,-30.27 162.92,-25.45 152.54,-23.34 153.49,-30.27"/>
</g>
</g>
</svg>
