<?xml version="1.0" encoding="UTF-8" standalone="no"?>
<!-- Generated by graphviz version 6.0.1 (20220911.1526)
 -->
<!-- Pages: 1 -->
<svg width="144pt" height="154pt"
 viewBox="0.00 0.00 144.00 154.00" xmlns="http://www.w3.org/2000/svg" xmlns:xlink="http://www.w3.org/1999/xlink">
<g id="graph0" class="graph" transform="scale(1 1) rotate(0) translate(4 150)">
<polygon fill="white" stroke="none" points="-4,4 -4,-150 140,-150 140,4 -4,4"/>
<!-- glossref&#45;d -->
<g id="node1" class="node">
<title>glossref&#45;d</title>
<path fill="#dddddd" stroke="black" d="M12.39,-109.89C12.39,-109.89 64.39,-109.89 64.39,-109.89 70.39,-109.89 76.39,-115.89 76.39,-121.89 76.39,-121.89 76.39,-133.89 76.39,-133.89 76.39,-139.89 70.39,-145.89 64.39,-145.89 64.39,-145.89 12.39,-145.89 12.39,-145.89 6.39,-145.89 0.39,-139.89 0.39,-133.89 0.39,-133.89 0.39,-121.89 0.39,-121.89 0.39,-115.89 6.39,-109.89 12.39,-109.89"/>
<text text-anchor="middle" x="38.39" y="-124.19" font-family="Arial" font-size="14.00">glossref&#45;d</text>
</g>
<!-- topicref -->
<g id="node2" class="node">
<title>topicref</title>
<path fill="#afa7f4" stroke="black" d="M86.6,-61.86C86.6,-61.86 123.6,-61.86 123.6,-61.86 129.6,-61.86 135.6,-67.86 135.6,-73.86 135.6,-73.86 135.6,-85.86 135.6,-85.86 135.6,-91.86 129.6,-97.86 123.6,-97.86 123.6,-97.86 86.6,-97.86 86.6,-97.86 80.6,-97.86 74.6,-91.86 74.6,-85.86 74.6,-85.86 74.6,-73.86 74.6,-73.86 74.6,-67.86 80.6,-61.86 86.6,-61.86"/>
<text text-anchor="middle" x="105.1" y="-76.16" font-family="Arial" font-size="14.00">topicref</text>
</g>
<!-- glossref&#45;d&#45;&gt;topicref -->
<g id="edge1" class="edge">
<title>glossref&#45;d&#45;&gt;topicref</title>
<path fill="none" stroke="#1f78b4" d="M63.61,-109.73C66.27,-107.82 69,-105.85 71.73,-103.89"/>
<polygon fill="#a6cee3" stroke="#1f78b4" points="73.78,-106.73 79.85,-98.04 69.69,-101.05 73.78,-106.73"/>
</g>
<!-- glossref -->
<g id="node3" class="node">
<title>glossref</title>
<path fill="#1afabc" stroke="black" d="M82.84,-0.75C82.84,-0.75 122.84,-0.75 122.84,-0.75 128.84,-0.75 134.84,-6.75 134.84,-12.75 134.84,-12.75 134.84,-24.75 134.84,-24.75 134.84,-30.75 128.84,-36.75 122.84,-36.75 122.84,-36.75 82.84,-36.75 82.84,-36.75 76.84,-36.75 70.84,-30.75 70.84,-24.75 70.84,-24.75 70.84,-12.75 70.84,-12.75 70.84,-6.75 76.84,-0.75 82.84,-0.75"/>
<text text-anchor="middle" x="102.84" y="-15.05" font-family="Arial" font-size="14.00">glossref</text>
</g>
<!-- topicref&#45;&gt;glossref -->
<g id="edge2" class="edge">
<title>topicref&#45;&gt;glossref</title>
<path fill="none" stroke="#1f78b4" d="M104.44,-61.85C104.26,-57.17 104.07,-52.01 103.88,-46.94"/>
<polygon fill="#a6cee3" stroke="#1f78b4" points="107.38,-46.7 103.51,-36.84 100.38,-46.96 107.38,-46.7"/>
</g>
</g>
</svg>
