<?xml version="1.0" encoding="UTF-8" standalone="no"?>
<!-- Generated by graphviz version 6.0.1 (20220911.1526)
 -->
<!-- Pages: 1 -->
<svg width="404pt" height="280pt"
 viewBox="0.00 0.00 404.00 280.00" xmlns="http://www.w3.org/2000/svg" xmlns:xlink="http://www.w3.org/1999/xlink">
<g id="graph0" class="graph" transform="scale(1 1) rotate(0) translate(4 276)">
<polygon fill="white" stroke="none" points="-4,4 -4,-276 400,-276 400,4 -4,4"/>
<!-- hazard&#45;d -->
<g id="node1" class="node">
<title>hazard&#45;d</title>
<path fill="#dddddd" stroke="black" d="M181.61,-128.52C181.61,-128.52 227.61,-128.52 227.61,-128.52 233.61,-128.52 239.61,-134.52 239.61,-140.52 239.61,-140.52 239.61,-152.52 239.61,-152.52 239.61,-158.52 233.61,-164.52 227.61,-164.52 227.61,-164.52 181.61,-164.52 181.61,-164.52 175.61,-164.52 169.61,-158.52 169.61,-152.52 169.61,-152.52 169.61,-140.52 169.61,-140.52 169.61,-134.52 175.61,-128.52 181.61,-128.52"/>
<text text-anchor="middle" x="204.61" y="-142.82" font-family="Arial" font-size="14.00">hazard&#45;d</text>
</g>
<!-- note -->
<g id="node2" class="node">
<title>note</title>
<path fill="#afa7f4" stroke="black" d="M290.32,-137.05C290.32,-137.05 320.32,-137.05 320.32,-137.05 326.32,-137.05 332.32,-143.05 332.32,-149.05 332.32,-149.05 332.32,-161.05 332.32,-161.05 332.32,-167.05 326.32,-173.05 320.32,-173.05 320.32,-173.05 290.32,-173.05 290.32,-173.05 284.32,-173.05 278.32,-167.05 278.32,-161.05 278.32,-161.05 278.32,-149.05 278.32,-149.05 278.32,-143.05 284.32,-137.05 290.32,-137.05"/>
<text text-anchor="middle" x="305.32" y="-151.35" font-family="Arial" font-size="14.00">note</text>
</g>
<!-- hazard&#45;d&#45;&gt;note -->
<g id="edge1" class="edge">
<title>hazard&#45;d&#45;&gt;note</title>
<path fill="none" stroke="#1f78b4" d="M239.83,-149.5C248.98,-150.28 258.86,-151.12 268.11,-151.9"/>
<polygon fill="#a6cee3" stroke="#1f78b4" points="267.95,-155.4 278.21,-152.76 268.54,-148.42 267.95,-155.4"/>
</g>
<!-- image -->
<g id="node4" class="node">
<title>image</title>
<path fill="#afa7f4" stroke="black" d="M176.96,-225.93C176.96,-225.93 206.96,-225.93 206.96,-225.93 212.96,-225.93 218.96,-231.93 218.96,-237.93 218.96,-237.93 218.96,-249.93 218.96,-249.93 218.96,-255.93 212.96,-261.93 206.96,-261.93 206.96,-261.93 176.96,-261.93 176.96,-261.93 170.96,-261.93 164.96,-255.93 164.96,-249.93 164.96,-249.93 164.96,-237.93 164.96,-237.93 164.96,-231.93 170.96,-225.93 176.96,-225.93"/>
<text text-anchor="middle" x="191.96" y="-240.23" font-family="Arial" font-size="14.00">image</text>
</g>
<!-- hazard&#45;d&#45;&gt;image -->
<g id="edge3" class="edge">
<title>hazard&#45;d&#45;&gt;image</title>
<path fill="none" stroke="#1f78b4" d="M202.23,-164.84C200.37,-179.13 197.76,-199.22 195.64,-215.58"/>
<polygon fill="#a6cee3" stroke="#1f78b4" points="192.14,-215.32 194.33,-225.69 199.09,-216.22 192.14,-215.32"/>
</g>
<!-- ul -->
<g id="node6" class="node">
<title>ul</title>
<path fill="#afa7f4" stroke="black" d="M101.6,-172.88C101.6,-172.88 131.6,-172.88 131.6,-172.88 137.6,-172.88 143.6,-178.88 143.6,-184.88 143.6,-184.88 143.6,-196.88 143.6,-196.88 143.6,-202.88 137.6,-208.88 131.6,-208.88 131.6,-208.88 101.6,-208.88 101.6,-208.88 95.6,-208.88 89.6,-202.88 89.6,-196.88 89.6,-196.88 89.6,-184.88 89.6,-184.88 89.6,-178.88 95.6,-172.88 101.6,-172.88"/>
<text text-anchor="middle" x="116.6" y="-187.18" font-family="Arial" font-size="14.00">ul</text>
</g>
<!-- hazard&#45;d&#45;&gt;ul -->
<g id="edge5" class="edge">
<title>hazard&#45;d&#45;&gt;ul</title>
<path fill="none" stroke="#1f78b4" d="M169.57,-164.18C164.04,-166.96 158.32,-169.85 152.77,-172.65"/>
<polygon fill="#a6cee3" stroke="#1f78b4" points="151,-169.62 143.65,-177.24 154.15,-175.87 151,-169.62"/>
</g>
<!-- li -->
<g id="node8" class="node">
<title>li</title>
<path fill="#afa7f4" stroke="black" d="M211.79,-53.55C211.79,-53.55 241.79,-53.55 241.79,-53.55 247.79,-53.55 253.79,-59.55 253.79,-65.55 253.79,-65.55 253.79,-77.55 253.79,-77.55 253.79,-83.55 247.79,-89.55 241.79,-89.55 241.79,-89.55 211.79,-89.55 211.79,-89.55 205.79,-89.55 199.79,-83.55 199.79,-77.55 199.79,-77.55 199.79,-65.55 199.79,-65.55 199.79,-59.55 205.79,-53.55 211.79,-53.55"/>
<text text-anchor="middle" x="226.79" y="-67.85" font-family="Arial" font-size="14.00">li</text>
</g>
<!-- hazard&#45;d&#45;&gt;li -->
<g id="edge7" class="edge">
<title>hazard&#45;d&#45;&gt;li</title>
<path fill="none" stroke="#1f78b4" d="M209.97,-128.37C212.54,-119.69 215.68,-109.1 218.54,-99.42"/>
<polygon fill="#a6cee3" stroke="#1f78b4" points="221.91,-100.37 221.39,-89.79 215.2,-98.38 221.91,-100.37"/>
</g>
<!-- hazardstatement -->
<g id="node3" class="node">
<title>hazardstatement</title>
<path fill="#1afabc" stroke="black" d="M290.32,-13.85C290.32,-13.85 384.32,-13.85 384.32,-13.85 390.32,-13.85 396.32,-19.85 396.32,-25.85 396.32,-25.85 396.32,-37.85 396.32,-37.85 396.32,-43.85 390.32,-49.85 384.32,-49.85 384.32,-49.85 290.32,-49.85 290.32,-49.85 284.32,-49.85 278.32,-43.85 278.32,-37.85 278.32,-37.85 278.32,-25.85 278.32,-25.85 278.32,-19.85 284.32,-13.85 290.32,-13.85"/>
<text text-anchor="middle" x="337.32" y="-28.15" font-family="Arial" font-size="14.00">hazardstatement</text>
</g>
<!-- note&#45;&gt;hazardstatement -->
<g id="edge2" class="edge">
<title>note&#45;&gt;hazardstatement</title>
<path fill="none" stroke="#1f78b4" d="M310.04,-136.87C315.31,-116.58 323.9,-83.5 330.04,-59.89"/>
<polygon fill="#a6cee3" stroke="#1f78b4" points="333.45,-60.66 332.58,-50.1 326.68,-58.9 333.45,-60.66"/>
</g>
<!-- hazardsymbol -->
<g id="node5" class="node">
<title>hazardsymbol</title>
<path fill="#1afabc" stroke="black" d="M264.28,-235.32C264.28,-235.32 341.28,-235.32 341.28,-235.32 347.28,-235.32 353.28,-241.32 353.28,-247.32 353.28,-247.32 353.28,-259.32 353.28,-259.32 353.28,-265.32 347.28,-271.32 341.28,-271.32 341.28,-271.32 264.28,-271.32 264.28,-271.32 258.28,-271.32 252.28,-265.32 252.28,-259.32 252.28,-259.32 252.28,-247.32 252.28,-247.32 252.28,-241.32 258.28,-235.32 264.28,-235.32"/>
<text text-anchor="middle" x="302.78" y="-249.62" font-family="Arial" font-size="14.00">hazardsymbol</text>
</g>
<!-- image&#45;&gt;hazardsymbol -->
<g id="edge4" class="edge">
<title>image&#45;&gt;hazardsymbol</title>
<path fill="none" stroke="#1f78b4" d="M219.07,-246.22C226.1,-246.82 233.96,-247.49 241.97,-248.16"/>
<polygon fill="#a6cee3" stroke="#1f78b4" points="241.88,-251.67 252.14,-249.03 242.48,-244.7 241.88,-251.67"/>
</g>
<!-- messagepanel -->
<g id="node7" class="node">
<title>messagepanel</title>
<path fill="#1afabc" stroke="black" d="M12.05,-119.71C12.05,-119.71 93.05,-119.71 93.05,-119.71 99.05,-119.71 105.05,-125.71 105.05,-131.71 105.05,-131.71 105.05,-143.71 105.05,-143.71 105.05,-149.71 99.05,-155.71 93.05,-155.71 93.05,-155.71 12.05,-155.71 12.05,-155.71 6.05,-155.71 0.05,-149.71 0.05,-143.71 0.05,-143.71 0.05,-131.71 0.05,-131.71 0.05,-125.71 6.05,-119.71 12.05,-119.71"/>
<text text-anchor="middle" x="52.55" y="-134.01" font-family="Arial" font-size="14.00">messagepanel</text>
</g>
<!-- ul&#45;&gt;messagepanel -->
<g id="edge6" class="edge">
<title>ul&#45;&gt;messagepanel</title>
<path fill="none" stroke="#1f78b4" d="M94.91,-172.88C90.93,-169.57 86.71,-166.07 82.54,-162.6"/>
<polygon fill="#a6cee3" stroke="#1f78b4" points="84.58,-159.75 74.65,-156.05 80.1,-165.13 84.58,-159.75"/>
</g>
<!-- typeofhazard -->
<g id="node9" class="node">
<title>typeofhazard</title>
<path fill="#1afabc" stroke="black" d="M176.89,-0.69C176.89,-0.69 247.89,-0.69 247.89,-0.69 253.89,-0.69 259.89,-6.69 259.89,-12.69 259.89,-12.69 259.89,-24.69 259.89,-24.69 259.89,-30.69 253.89,-36.69 247.89,-36.69 247.89,-36.69 176.89,-36.69 176.89,-36.69 170.89,-36.69 164.89,-30.69 164.89,-24.69 164.89,-24.69 164.89,-12.69 164.89,-12.69 164.89,-6.69 170.89,-0.69 176.89,-0.69"/>
<text text-anchor="middle" x="212.39" y="-14.99" font-family="Arial" font-size="14.00">typeofhazard</text>
</g>
<!-- li&#45;&gt;typeofhazard -->
<g id="edge8" class="edge">
<title>li&#45;&gt;typeofhazard</title>
<path fill="none" stroke="#1f78b4" d="M221.83,-53.36C221.24,-51.17 220.62,-48.91 220,-46.63"/>
<polygon fill="#a6cee3" stroke="#1f78b4" points="223.31,-45.47 217.3,-36.74 216.56,-47.31 223.31,-45.47"/>
</g>
<!-- consequence -->
<g id="node10" class="node">
<title>consequence</title>
<path fill="#1afabc" stroke="black" d="M305.41,-73.47C305.41,-73.47 378.41,-73.47 378.41,-73.47 384.41,-73.47 390.41,-79.47 390.41,-85.47 390.41,-85.47 390.41,-97.47 390.41,-97.47 390.41,-103.47 384.41,-109.47 378.41,-109.47 378.41,-109.47 305.41,-109.47 305.41,-109.47 299.41,-109.47 293.41,-103.47 293.41,-97.47 293.41,-97.47 293.41,-85.47 293.41,-85.47 293.41,-79.47 299.41,-73.47 305.41,-73.47"/>
<text text-anchor="middle" x="341.91" y="-87.77" font-family="Arial" font-size="14.00">consequence</text>
</g>
<!-- li&#45;&gt;consequence -->
<g id="edge9" class="edge">
<title>li&#45;&gt;consequence</title>
<path fill="none" stroke="#1f78b4" d="M254.07,-76.27C262.85,-77.79 272.94,-79.53 283.08,-81.29"/>
<polygon fill="#a6cee3" stroke="#1f78b4" points="282.74,-84.78 293.19,-83.04 283.94,-77.88 282.74,-84.78"/>
</g>
<!-- howtoavoid -->
<g id="node11" class="node">
<title>howtoavoid</title>
<path fill="#1afabc" stroke="black" d="M79.82,-44.18C79.82,-44.18 140.82,-44.18 140.82,-44.18 146.82,-44.18 152.82,-50.18 152.82,-56.18 152.82,-56.18 152.82,-68.18 152.82,-68.18 152.82,-74.18 146.82,-80.18 140.82,-80.18 140.82,-80.18 79.82,-80.18 79.82,-80.18 73.82,-80.18 67.82,-74.18 67.82,-68.18 67.82,-68.18 67.82,-56.18 67.82,-56.18 67.82,-50.18 73.82,-44.18 79.82,-44.18"/>
<text text-anchor="middle" x="110.32" y="-58.48" font-family="Arial" font-size="14.00">howtoavoid</text>
</g>
<!-- li&#45;&gt;howtoavoid -->
<g id="edge10" class="edge">
<title>li&#45;&gt;howtoavoid</title>
<path fill="none" stroke="#1f78b4" d="M199.77,-69.37C188.85,-68.49 175.85,-67.45 163.18,-66.43"/>
<polygon fill="#a6cee3" stroke="#1f78b4" points="163.4,-62.94 153.15,-65.62 162.83,-69.91 163.4,-62.94"/>
</g>
</g>
</svg>
