<?xml version="1.0" encoding="UTF-8" standalone="no"?>
<!-- Generated by graphviz version 6.0.1 (20220911.1526)
 -->
<!-- Pages: 1 -->
<svg width="267pt" height="222pt"
 viewBox="0.00 0.00 267.00 222.00" xmlns="http://www.w3.org/2000/svg" xmlns:xlink="http://www.w3.org/1999/xlink">
<g id="graph0" class="graph" transform="scale(1 1) rotate(0) translate(4 218)">
<polygon fill="white" stroke="none" points="-4,4 -4,-218 263,-218 263,4 -4,4"/>
<!-- hi&#45;d -->
<g id="node1" class="node">
<title>hi&#45;d</title>
<path fill="#dddddd" stroke="black" d="M12.2,-119.78C12.2,-119.78 42.2,-119.78 42.2,-119.78 48.2,-119.78 54.2,-125.78 54.2,-131.78 54.2,-131.78 54.2,-143.78 54.2,-143.78 54.2,-149.78 48.2,-155.78 42.2,-155.78 42.2,-155.78 12.2,-155.78 12.2,-155.78 6.2,-155.78 0.2,-149.78 0.2,-143.78 0.2,-143.78 0.2,-131.78 0.2,-131.78 0.2,-125.78 6.2,-119.78 12.2,-119.78"/>
<text text-anchor="middle" x="27.2" y="-134.08" font-family="Arial" font-size="14.00">hi&#45;d</text>
</g>
<!-- ph -->
<g id="node2" class="node">
<title>ph</title>
<path fill="#afa7f4" stroke="black" d="M116.58,-97.61C116.58,-97.61 146.58,-97.61 146.58,-97.61 152.58,-97.61 158.58,-103.61 158.58,-109.61 158.58,-109.61 158.58,-121.61 158.58,-121.61 158.58,-127.61 152.58,-133.61 146.58,-133.61 146.58,-133.61 116.58,-133.61 116.58,-133.61 110.58,-133.61 104.58,-127.61 104.58,-121.61 104.58,-121.61 104.58,-109.61 104.58,-109.61 104.58,-103.61 110.58,-97.61 116.58,-97.61"/>
<text text-anchor="middle" x="131.58" y="-111.91" font-family="Arial" font-size="14.00">ph</text>
</g>
<!-- hi&#45;d&#45;&gt;ph -->
<g id="edge1" class="edge">
<title>hi&#45;d&#45;&gt;ph</title>
<path fill="none" stroke="#1f78b4" d="M54.36,-132.01C66.68,-129.39 81.44,-126.26 94.74,-123.43"/>
<polygon fill="#a6cee3" stroke="#1f78b4" points="95.51,-126.85 104.57,-121.35 94.06,-120 95.51,-126.85"/>
</g>
<!-- b -->
<g id="node3" class="node">
<title>b</title>
<path fill="#1afabc" stroke="black" d="M118.41,-0.71C118.41,-0.71 148.41,-0.71 148.41,-0.71 154.41,-0.71 160.41,-6.71 160.41,-12.71 160.41,-12.71 160.41,-24.71 160.41,-24.71 160.41,-30.71 154.41,-36.71 148.41,-36.71 148.41,-36.71 118.41,-36.71 118.41,-36.71 112.41,-36.71 106.41,-30.71 106.41,-24.71 106.41,-24.71 106.41,-12.71 106.41,-12.71 106.41,-6.71 112.41,-0.71 118.41,-0.71"/>
<text text-anchor="middle" x="133.41" y="-15.01" font-family="Arial" font-size="14.00">b</text>
</g>
<!-- ph&#45;&gt;b -->
<g id="edge2" class="edge">
<title>ph&#45;&gt;b</title>
<path fill="none" stroke="#1f78b4" d="M131.93,-97.38C132.19,-83.17 132.57,-63.18 132.88,-46.91"/>
<polygon fill="#a6cee3" stroke="#1f78b4" points="136.38,-46.92 133.07,-36.85 129.38,-46.78 136.38,-46.92"/>
</g>
<!-- u -->
<g id="node4" class="node">
<title>u</title>
<path fill="#1afabc" stroke="black" d="M130.33,-171.71C130.33,-171.71 160.33,-171.71 160.33,-171.71 166.33,-171.71 172.33,-177.71 172.33,-183.71 172.33,-183.71 172.33,-195.71 172.33,-195.71 172.33,-201.71 166.33,-207.71 160.33,-207.71 160.33,-207.71 130.33,-207.71 130.33,-207.71 124.33,-207.71 118.33,-201.71 118.33,-195.71 118.33,-195.71 118.33,-183.71 118.33,-183.71 118.33,-177.71 124.33,-171.71 130.33,-171.71"/>
<text text-anchor="middle" x="145.33" y="-186.01" font-family="Arial" font-size="14.00">u</text>
</g>
<!-- ph&#45;&gt;u -->
<g id="edge3" class="edge">
<title>ph&#45;&gt;u</title>
<path fill="none" stroke="#1f78b4" d="M134.98,-133.92C136.53,-142.27 138.4,-152.33 140.12,-161.61"/>
<polygon fill="#a6cee3" stroke="#1f78b4" points="136.71,-162.41 141.97,-171.6 143.59,-161.13 136.71,-162.41"/>
</g>
<!-- i -->
<g id="node5" class="node">
<title>i</title>
<path fill="#1afabc" stroke="black" d="M195.08,-167.76C195.08,-167.76 225.08,-167.76 225.08,-167.76 231.08,-167.76 237.08,-173.76 237.08,-179.76 237.08,-179.76 237.08,-191.76 237.08,-191.76 237.08,-197.76 231.08,-203.76 225.08,-203.76 225.08,-203.76 195.08,-203.76 195.08,-203.76 189.08,-203.76 183.08,-197.76 183.08,-191.76 183.08,-191.76 183.08,-179.76 183.08,-179.76 183.08,-173.76 189.08,-167.76 195.08,-167.76"/>
<text text-anchor="middle" x="210.08" y="-182.06" font-family="Arial" font-size="14.00">i</text>
</g>
<!-- ph&#45;&gt;i -->
<g id="edge4" class="edge">
<title>ph&#45;&gt;i</title>
<path fill="none" stroke="#1f78b4" d="M151.8,-133.67C161.05,-141.94 172.15,-151.87 182.18,-160.83"/>
<polygon fill="#a6cee3" stroke="#1f78b4" points="180.15,-163.7 189.94,-167.76 184.81,-158.48 180.15,-163.7"/>
</g>
<!-- line&#45;through -->
<g id="node6" class="node">
<title>line&#45;through</title>
<path fill="#1afabc" stroke="black" d="M19.8,-177.69C19.8,-177.69 83.8,-177.69 83.8,-177.69 89.8,-177.69 95.8,-183.69 95.8,-189.69 95.8,-189.69 95.8,-201.69 95.8,-201.69 95.8,-207.69 89.8,-213.69 83.8,-213.69 83.8,-213.69 19.8,-213.69 19.8,-213.69 13.8,-213.69 7.8,-207.69 7.8,-201.69 7.8,-201.69 7.8,-189.69 7.8,-189.69 7.8,-183.69 13.8,-177.69 19.8,-177.69"/>
<text text-anchor="middle" x="51.8" y="-191.99" font-family="Arial" font-size="14.00">line&#45;through</text>
</g>
<!-- ph&#45;&gt;line&#45;through -->
<g id="edge5" class="edge">
<title>ph&#45;&gt;line&#45;through</title>
<path fill="none" stroke="#1f78b4" d="M113.48,-133.78C102.67,-144.63 88.77,-158.58 76.91,-170.49"/>
<polygon fill="#a6cee3" stroke="#1f78b4" points="74.41,-168.04 69.83,-177.59 79.37,-172.98 74.41,-168.04"/>
</g>
<!-- overline -->
<g id="node7" class="node">
<title>overline</title>
<path fill="#1afabc" stroke="black" d="M38.58,-20.16C38.58,-20.16 78.58,-20.16 78.58,-20.16 84.58,-20.16 90.58,-26.16 90.58,-32.16 90.58,-32.16 90.58,-44.16 90.58,-44.16 90.58,-50.16 84.58,-56.16 78.58,-56.16 78.58,-56.16 38.58,-56.16 38.58,-56.16 32.58,-56.16 26.58,-50.16 26.58,-44.16 26.58,-44.16 26.58,-32.16 26.58,-32.16 26.58,-26.16 32.58,-20.16 38.58,-20.16"/>
<text text-anchor="middle" x="58.58" y="-34.46" font-family="Arial" font-size="14.00">overline</text>
</g>
<!-- ph&#45;&gt;overline -->
<g id="edge6" class="edge">
<title>ph&#45;&gt;overline</title>
<path fill="none" stroke="#1f78b4" d="M114.28,-97.25C104.83,-87.22 92.97,-74.64 82.62,-63.67"/>
<polygon fill="#a6cee3" stroke="#1f78b4" points="85.16,-61.26 75.76,-56.38 80.07,-66.06 85.16,-61.26"/>
</g>
<!-- tt -->
<g id="node8" class="node">
<title>tt</title>
<path fill="#1afabc" stroke="black" d="M216.84,-100.03C216.84,-100.03 246.84,-100.03 246.84,-100.03 252.84,-100.03 258.84,-106.03 258.84,-112.03 258.84,-112.03 258.84,-124.03 258.84,-124.03 258.84,-130.03 252.84,-136.03 246.84,-136.03 246.84,-136.03 216.84,-136.03 216.84,-136.03 210.84,-136.03 204.84,-130.03 204.84,-124.03 204.84,-124.03 204.84,-112.03 204.84,-112.03 204.84,-106.03 210.84,-100.03 216.84,-100.03"/>
<text text-anchor="middle" x="231.84" y="-114.33" font-family="Arial" font-size="14.00">tt</text>
</g>
<!-- ph&#45;&gt;tt -->
<g id="edge7" class="edge">
<title>ph&#45;&gt;tt</title>
<path fill="none" stroke="#1f78b4" d="M158.71,-116.26C169.75,-116.53 182.68,-116.84 194.57,-117.13"/>
<polygon fill="#a6cee3" stroke="#1f78b4" points="194.6,-120.63 204.68,-117.38 194.77,-113.63 194.6,-120.63"/>
</g>
<!-- sup -->
<g id="node9" class="node">
<title>sup</title>
<path fill="#1afabc" stroke="black" d="M49.94,-69.8C49.94,-69.8 79.94,-69.8 79.94,-69.8 85.94,-69.8 91.94,-75.8 91.94,-81.8 91.94,-81.8 91.94,-93.8 91.94,-93.8 91.94,-99.8 85.94,-105.8 79.94,-105.8 79.94,-105.8 49.94,-105.8 49.94,-105.8 43.94,-105.8 37.94,-99.8 37.94,-93.8 37.94,-93.8 37.94,-81.8 37.94,-81.8 37.94,-75.8 43.94,-69.8 49.94,-69.8"/>
<text text-anchor="middle" x="64.94" y="-84.1" font-family="Arial" font-size="14.00">sup</text>
</g>
<!-- ph&#45;&gt;sup -->
<g id="edge8" class="edge">
<title>ph&#45;&gt;sup</title>
<path fill="none" stroke="#1f78b4" d="M104.48,-104.3C103.59,-103.93 102.71,-103.56 101.81,-103.19"/>
<polygon fill="#a6cee3" stroke="#1f78b4" points="102.82,-99.81 92.24,-99.19 100.12,-106.27 102.82,-99.81"/>
</g>
<!-- sub -->
<g id="node10" class="node">
<title>sub</title>
<path fill="#1afabc" stroke="black" d="M192.17,-36.15C192.17,-36.15 222.17,-36.15 222.17,-36.15 228.17,-36.15 234.17,-42.15 234.17,-48.15 234.17,-48.15 234.17,-60.15 234.17,-60.15 234.17,-66.15 228.17,-72.15 222.17,-72.15 222.17,-72.15 192.17,-72.15 192.17,-72.15 186.17,-72.15 180.17,-66.15 180.17,-60.15 180.17,-60.15 180.17,-48.15 180.17,-48.15 180.17,-42.15 186.17,-36.15 192.17,-36.15"/>
<text text-anchor="middle" x="207.17" y="-50.45" font-family="Arial" font-size="14.00">sub</text>
</g>
<!-- ph&#45;&gt;sub -->
<g id="edge9" class="edge">
<title>ph&#45;&gt;sub</title>
<path fill="none" stroke="#1f78b4" d="M153.85,-97.5C161.02,-91.68 169.08,-85.12 176.73,-78.9"/>
<polygon fill="#a6cee3" stroke="#1f78b4" points="179.25,-81.36 184.8,-72.34 174.83,-75.93 179.25,-81.36"/>
</g>
</g>
</svg>
