<?xml version="1.0" encoding="UTF-8" standalone="no"?>
<!DOCTYPE svg PUBLIC "-//W3C//DTD SVG 1.1//EN"
 "http://www.w3.org/Graphics/SVG/1.1/DTD/svg11.dtd">
<!-- Generated by graphviz version 6.0.1 (20220911.1526)
 -->
<!-- Pages: 1 -->
<svg width="222pt" height="150pt"
 viewBox="0.00 0.00 222.00 150.00" xmlns="http://www.w3.org/2000/svg" xmlns:xlink="http://www.w3.org/1999/xlink">
<g id="graph0" class="graph" transform="scale(1 1) rotate(0) translate(4 146)">
<polygon fill="white" stroke="none" points="-4,4 -4,-146 218,-146 218,4 -4,4"/>
<!-- indexing&#45;d -->
<g id="node1" class="node">
<title>indexing&#45;d</title>
<path fill="#dddddd" stroke="black" d="M30.51,-0.86C30.51,-0.86 85.51,-0.86 85.51,-0.86 91.51,-0.86 97.51,-6.86 97.51,-12.86 97.51,-12.86 97.51,-24.86 97.51,-24.86 97.51,-30.86 91.51,-36.86 85.51,-36.86 85.51,-36.86 30.51,-36.86 30.51,-36.86 24.51,-36.86 18.51,-30.86 18.51,-24.86 18.51,-24.86 18.51,-12.86 18.51,-12.86 18.51,-6.86 24.51,-0.86 30.51,-0.86"/>
<text text-anchor="middle" x="58.01" y="-15.16" font-family="Arial" font-size="14.00">indexing&#45;d</text>
</g>
<!-- index&#45;base -->
<g id="node2" class="node">
<title>index&#45;base</title>
<path fill="#afa7f4" stroke="black" d="M88.94,-53.67C88.94,-53.67 147.94,-53.67 147.94,-53.67 153.94,-53.67 159.94,-59.67 159.94,-65.67 159.94,-65.67 159.94,-77.67 159.94,-77.67 159.94,-83.67 153.94,-89.67 147.94,-89.67 147.94,-89.67 88.94,-89.67 88.94,-89.67 82.94,-89.67 76.94,-83.67 76.94,-77.67 76.94,-77.67 76.94,-65.67 76.94,-65.67 76.94,-59.67 82.94,-53.67 88.94,-53.67"/>
<text text-anchor="middle" x="118.44" y="-67.97" font-family="Arial" font-size="14.00">index&#45;base</text>
</g>
<!-- indexing&#45;d&#45;&gt;index&#45;base -->
<g id="edge1" class="edge">
<title>indexing&#45;d&#45;&gt;index&#45;base</title>
<path fill="none" stroke="#1f78b4" d="M78.81,-37.04C82.46,-40.23 86.31,-43.59 90.12,-46.92"/>
<polygon fill="#a6cee3" stroke="#1f78b4" points="87.98,-49.7 97.81,-53.64 92.58,-44.43 87.98,-49.7"/>
</g>
<!-- index&#45;see -->
<g id="node3" class="node">
<title>index&#45;see</title>
<path fill="#1afabc" stroke="black" d="M147.45,-0.91C147.45,-0.91 198.45,-0.91 198.45,-0.91 204.45,-0.91 210.45,-6.91 210.45,-12.91 210.45,-12.91 210.45,-24.91 210.45,-24.91 210.45,-30.91 204.45,-36.91 198.45,-36.91 198.45,-36.91 147.45,-36.91 147.45,-36.91 141.45,-36.91 135.45,-30.91 135.45,-24.91 135.45,-24.91 135.45,-12.91 135.45,-12.91 135.45,-6.91 141.45,-0.91 147.45,-0.91"/>
<text text-anchor="middle" x="172.95" y="-15.21" font-family="Arial" font-size="14.00">index&#45;see</text>
</g>
<!-- index&#45;base&#45;&gt;index&#45;see -->
<g id="edge2" class="edge">
<title>index&#45;base&#45;&gt;index&#45;see</title>
<path fill="none" stroke="#1f78b4" d="M137.2,-53.51C140.4,-50.41 143.78,-47.14 147.13,-43.9"/>
<polygon fill="#a6cee3" stroke="#1f78b4" points="149.59,-46.39 154.34,-36.92 144.72,-41.36 149.59,-46.39"/>
</g>
<!-- index&#45;see&#45;also -->
<g id="node4" class="node">
<title>index&#45;see&#45;also</title>
<path fill="#1afabc" stroke="black" d="M122.47,-100.16C122.47,-100.16 202.47,-100.16 202.47,-100.16 208.47,-100.16 214.47,-106.16 214.47,-112.16 214.47,-112.16 214.47,-124.16 214.47,-124.16 214.47,-130.16 208.47,-136.16 202.47,-136.16 202.47,-136.16 122.47,-136.16 122.47,-136.16 116.47,-136.16 110.47,-130.16 110.47,-124.16 110.47,-124.16 110.47,-112.16 110.47,-112.16 110.47,-106.16 116.47,-100.16 122.47,-100.16"/>
<text text-anchor="middle" x="162.47" y="-114.46" font-family="Arial" font-size="14.00">index&#45;see&#45;also</text>
</g>
<!-- index&#45;base&#45;&gt;index&#45;see&#45;also -->
<g id="edge3" class="edge">
<title>index&#45;base&#45;&gt;index&#45;see&#45;also</title>
<path fill="none" stroke="#1f78b4" d="M135.59,-89.78C136.48,-90.73 137.39,-91.68 138.3,-92.65"/>
<polygon fill="#a6cee3" stroke="#1f78b4" points="135.87,-95.17 145.29,-100.03 140.96,-90.36 135.87,-95.17"/>
</g>
<!-- index&#45;sort&#45;as -->
<g id="node5" class="node">
<title>index&#45;sort&#45;as</title>
<path fill="#1afabc" stroke="black" d="M11.85,-105.97C11.85,-105.97 82.85,-105.97 82.85,-105.97 88.85,-105.97 94.85,-111.97 94.85,-117.97 94.85,-117.97 94.85,-129.97 94.85,-129.97 94.85,-135.97 88.85,-141.97 82.85,-141.97 82.85,-141.97 11.85,-141.97 11.85,-141.97 5.85,-141.97 -0.15,-135.97 -0.15,-129.97 -0.15,-129.97 -0.15,-117.97 -0.15,-117.97 -0.15,-111.97 5.85,-105.97 11.85,-105.97"/>
<text text-anchor="middle" x="47.35" y="-120.27" font-family="Arial" font-size="14.00">index&#45;sort&#45;as</text>
</g>
<!-- index&#45;base&#45;&gt;index&#45;sort&#45;as -->
<g id="edge4" class="edge">
<title>index&#45;base&#45;&gt;index&#45;sort&#45;as</title>
<path fill="none" stroke="#1f78b4" d="M93.57,-89.96C89.17,-93.2 84.52,-96.62 79.94,-99.99"/>
<polygon fill="#a6cee3" stroke="#1f78b4" points="77.82,-97.21 71.84,-105.95 81.97,-102.85 77.82,-97.21"/>
</g>
</g>
</svg>
