<?xml version="1.0" encoding="UTF-8" standalone="no"?>
<!-- Generated by graphviz version 6.0.1 (20220911.1526)
 -->
<!-- Pages: 1 -->
<svg width="415pt" height="158pt"
 viewBox="0.00 0.00 415.00 158.00" xmlns="http://www.w3.org/2000/svg" xmlns:xlink="http://www.w3.org/1999/xlink">
<g id="graph0" class="graph" transform="scale(1 1) rotate(0) translate(4 154)">
<polygon fill="white" stroke="none" points="-4,4 -4,-154 411,-154 411,4 -4,4"/>
<!-- learningInteractionBase2&#45;d -->
<g id="node1" class="node">
<title>learningInteractionBase2&#45;d</title>
<path fill="#dddddd" stroke="black" d="M39.83,-17.21C39.83,-17.21 193.83,-17.21 193.83,-17.21 199.83,-17.21 205.83,-23.21 205.83,-29.21 205.83,-29.21 205.83,-41.21 205.83,-41.21 205.83,-47.21 199.83,-53.21 193.83,-53.21 193.83,-53.21 39.83,-53.21 39.83,-53.21 33.83,-53.21 27.83,-47.21 27.83,-41.21 27.83,-41.21 27.83,-29.21 27.83,-29.21 27.83,-23.21 33.83,-17.21 39.83,-17.21"/>
<text text-anchor="middle" x="116.83" y="-31.51" font-family="Arial" font-size="14.00">learningInteractionBase2&#45;d</text>
</g>
<!-- div -->
<g id="node2" class="node">
<title>div</title>
<path fill="#afa7f4" stroke="black" d="M210.52,-62.32C210.52,-62.32 240.52,-62.32 240.52,-62.32 246.52,-62.32 252.52,-68.32 252.52,-74.32 252.52,-74.32 252.52,-86.32 252.52,-86.32 252.52,-92.32 246.52,-98.32 240.52,-98.32 240.52,-98.32 210.52,-98.32 210.52,-98.32 204.52,-98.32 198.52,-92.32 198.52,-86.32 198.52,-86.32 198.52,-74.32 198.52,-74.32 198.52,-68.32 204.52,-62.32 210.52,-62.32"/>
<text text-anchor="middle" x="225.52" y="-76.62" font-family="Arial" font-size="14.00">div</text>
</g>
<!-- learningInteractionBase2&#45;d&#45;&gt;div -->
<g id="edge1" class="edge">
<title>learningInteractionBase2&#45;d&#45;&gt;div</title>
<path fill="none" stroke="#1f78b4" d="M160.41,-53.3C169.97,-57.26 179.99,-61.42 189.22,-65.25"/>
<polygon fill="#a6cee3" stroke="#1f78b4" points="187.93,-68.51 198.51,-69.11 190.61,-62.04 187.93,-68.51"/>
</g>
<!-- p -->
<g id="node5" class="node">
<title>p</title>
<path fill="#afa7f4" stroke="black" d="M77.04,-67.02C77.04,-67.02 107.04,-67.02 107.04,-67.02 113.04,-67.02 119.04,-73.02 119.04,-79.02 119.04,-79.02 119.04,-91.02 119.04,-91.02 119.04,-97.02 113.04,-103.02 107.04,-103.02 107.04,-103.02 77.04,-103.02 77.04,-103.02 71.04,-103.02 65.04,-97.02 65.04,-91.02 65.04,-91.02 65.04,-79.02 65.04,-79.02 65.04,-73.02 71.04,-67.02 77.04,-67.02"/>
<text text-anchor="middle" x="92.04" y="-81.32" font-family="Arial" font-size="14.00">p</text>
</g>
<!-- learningInteractionBase2&#45;d&#45;&gt;p -->
<g id="edge4" class="edge">
<title>learningInteractionBase2&#45;d&#45;&gt;p</title>
<path fill="none" stroke="#1f78b4" d="M107.74,-53.47C107.07,-54.83 106.38,-56.21 105.69,-57.6"/>
<polygon fill="#a6cee3" stroke="#1f78b4" points="102.45,-56.25 101.13,-66.76 108.72,-59.36 102.45,-56.25"/>
</g>
<!-- lcInteractionBase2 -->
<g id="node3" class="node">
<title>lcInteractionBase2</title>
<path fill="#1afabc" stroke="black" d="M291,-0.91C291,-0.91 395,-0.91 395,-0.91 401,-0.91 407,-6.91 407,-12.91 407,-12.91 407,-24.91 407,-24.91 407,-30.91 401,-36.91 395,-36.91 395,-36.91 291,-36.91 291,-36.91 285,-36.91 279,-30.91 279,-24.91 279,-24.91 279,-12.91 279,-12.91 279,-6.91 285,-0.91 291,-0.91"/>
<text text-anchor="middle" x="343" y="-15.21" font-family="Arial" font-size="14.00">lcInteractionBase2</text>
</g>
<!-- div&#45;&gt;lcInteractionBase2 -->
<g id="edge2" class="edge">
<title>div&#45;&gt;lcInteractionBase2</title>
<path fill="none" stroke="#1f78b4" d="M252.77,-66.08C266.59,-58.85 283.72,-49.9 299.33,-41.74"/>
<polygon fill="#a6cee3" stroke="#1f78b4" points="301.07,-44.78 308.31,-37.04 297.82,-38.58 301.07,-44.78"/>
</g>
<!-- lcQuestionBase2 -->
<g id="node4" class="node">
<title>lcQuestionBase2</title>
<path fill="#1afabc" stroke="black" d="M185.36,-109.28C185.36,-109.28 280.36,-109.28 280.36,-109.28 286.36,-109.28 292.36,-115.28 292.36,-121.28 292.36,-121.28 292.36,-133.28 292.36,-133.28 292.36,-139.28 286.36,-145.28 280.36,-145.28 280.36,-145.28 185.36,-145.28 185.36,-145.28 179.36,-145.28 173.36,-139.28 173.36,-133.28 173.36,-133.28 173.36,-121.28 173.36,-121.28 173.36,-115.28 179.36,-109.28 185.36,-109.28"/>
<text text-anchor="middle" x="232.86" y="-123.58" font-family="Arial" font-size="14.00">lcQuestionBase2</text>
</g>
<!-- div&#45;&gt;lcQuestionBase2 -->
<g id="edge3" class="edge">
<title>div&#45;&gt;lcQuestionBase2</title>
<path fill="none" stroke="#1f78b4" d="M228.34,-98.34C228.37,-98.56 228.41,-98.78 228.44,-99"/>
<polygon fill="#a6cee3" stroke="#1f78b4" points="225.02,-99.73 230.02,-109.07 231.93,-98.65 225.02,-99.73"/>
</g>
<!-- lcInteractionLabel2 -->
<g id="node6" class="node">
<title>lcInteractionLabel2</title>
<path fill="#1afabc" stroke="black" d="M12.33,-113.91C12.33,-113.91 118.33,-113.91 118.33,-113.91 124.33,-113.91 130.33,-119.91 130.33,-125.91 130.33,-125.91 130.33,-137.91 130.33,-137.91 130.33,-143.91 124.33,-149.91 118.33,-149.91 118.33,-149.91 12.33,-149.91 12.33,-149.91 6.33,-149.91 0.33,-143.91 0.33,-137.91 0.33,-137.91 0.33,-125.91 0.33,-125.91 0.33,-119.91 6.33,-113.91 12.33,-113.91"/>
<text text-anchor="middle" x="65.33" y="-128.21" font-family="Arial" font-size="14.00">lcInteractionLabel2</text>
</g>
<!-- p&#45;&gt;lcInteractionLabel2 -->
<g id="edge5" class="edge">
<title>p&#45;&gt;lcInteractionLabel2</title>
<path fill="none" stroke="#1f78b4" d="M81.64,-103.29C81.34,-103.82 81.03,-104.35 80.73,-104.89"/>
<polygon fill="#a6cee3" stroke="#1f78b4" points="77.66,-103.2 75.75,-113.62 83.74,-106.67 77.66,-103.2"/>
</g>
</g>
</svg>
