<?xml version="1.0" encoding="UTF-8" standalone="no"?>
<!DOCTYPE svg PUBLIC "-//W3C//DTD SVG 1.1//EN"
 "http://www.w3.org/Graphics/SVG/1.1/DTD/svg11.dtd">
<!-- Generated by graphviz version 6.0.1 (20220911.1526)
 -->
<!-- Pages: 1 -->
<svg width="571pt" height="371pt"
 viewBox="0.00 0.00 571.00 371.00" xmlns="http://www.w3.org/2000/svg" xmlns:xlink="http://www.w3.org/1999/xlink">
<g id="graph0" class="graph" transform="scale(1 1) rotate(0) translate(4 367)">
<polygon fill="white" stroke="none" points="-4,4 -4,-367 567,-367 567,4 -4,4"/>
<!-- learningmap&#45;d -->
<g id="node1" class="node">
<title>learningmap&#45;d</title>
<path fill="#dddddd" stroke="black" d="M76.26,-158.33C76.26,-158.33 156.26,-158.33 156.26,-158.33 162.26,-158.33 168.26,-164.33 168.26,-170.33 168.26,-170.33 168.26,-182.33 168.26,-182.33 168.26,-188.33 162.26,-194.33 156.26,-194.33 156.26,-194.33 76.26,-194.33 76.26,-194.33 70.26,-194.33 64.26,-188.33 64.26,-182.33 64.26,-182.33 64.26,-170.33 64.26,-170.33 64.26,-164.33 70.26,-158.33 76.26,-158.33"/>
<text text-anchor="middle" x="116.26" y="-172.63" font-family="Arial" font-size="14.00">learningmap&#45;d</text>
</g>
<!-- topicref -->
<g id="node2" class="node">
<title>topicref</title>
<path fill="#afa7f4" stroke="black" d="M252.39,-173.22C252.39,-173.22 289.39,-173.22 289.39,-173.22 295.39,-173.22 301.39,-179.22 301.39,-185.22 301.39,-185.22 301.39,-197.22 301.39,-197.22 301.39,-203.22 295.39,-209.22 289.39,-209.22 289.39,-209.22 252.39,-209.22 252.39,-209.22 246.39,-209.22 240.39,-203.22 240.39,-197.22 240.39,-197.22 240.39,-185.22 240.39,-185.22 240.39,-179.22 246.39,-173.22 252.39,-173.22"/>
<text text-anchor="middle" x="270.89" y="-187.52" font-family="Arial" font-size="14.00">topicref</text>
</g>
<!-- learningmap&#45;d&#45;&gt;topicref -->
<g id="edge1" class="edge">
<title>learningmap&#45;d&#45;&gt;topicref</title>
<path fill="none" stroke="#1f78b4" d="M168.61,-181.37C188.72,-183.31 211.35,-185.49 230.21,-187.3"/>
<polygon fill="#a6cee3" stroke="#1f78b4" points="229.96,-190.8 240.25,-188.27 230.63,-183.83 229.96,-190.8"/>
</g>
<!-- learningGroup -->
<g id="node3" class="node">
<title>learningGroup</title>
<path fill="#1afabc" stroke="black" d="M316.9,-45.81C316.9,-45.81 395.9,-45.81 395.9,-45.81 401.9,-45.81 407.9,-51.81 407.9,-57.81 407.9,-57.81 407.9,-69.81 407.9,-69.81 407.9,-75.81 401.9,-81.81 395.9,-81.81 395.9,-81.81 316.9,-81.81 316.9,-81.81 310.9,-81.81 304.9,-75.81 304.9,-69.81 304.9,-69.81 304.9,-57.81 304.9,-57.81 304.9,-51.81 310.9,-45.81 316.9,-45.81"/>
<text text-anchor="middle" x="356.4" y="-60.11" font-family="Arial" font-size="14.00">learningGroup</text>
</g>
<!-- topicref&#45;&gt;learningGroup -->
<g id="edge2" class="edge">
<title>topicref&#45;&gt;learningGroup</title>
<path fill="none" stroke="#1f78b4" d="M283.14,-172.97C297.62,-151.4 321.84,-115.32 338.44,-90.58"/>
<polygon fill="#a6cee3" stroke="#1f78b4" points="341.51,-92.28 344.17,-82.03 335.7,-88.38 341.51,-92.28"/>
</g>
<!-- learningObject -->
<g id="node4" class="node">
<title>learningObject</title>
<path fill="#1afabc" stroke="black" d="M266.37,-326.36C266.37,-326.36 346.37,-326.36 346.37,-326.36 352.37,-326.36 358.37,-332.36 358.37,-338.36 358.37,-338.36 358.37,-350.36 358.37,-350.36 358.37,-356.36 352.37,-362.36 346.37,-362.36 346.37,-362.36 266.37,-362.36 266.37,-362.36 260.37,-362.36 254.37,-356.36 254.37,-350.36 254.37,-350.36 254.37,-338.36 254.37,-338.36 254.37,-332.36 260.37,-326.36 266.37,-326.36"/>
<text text-anchor="middle" x="306.37" y="-340.66" font-family="Arial" font-size="14.00">learningObject</text>
</g>
<!-- topicref&#45;&gt;learningObject -->
<g id="edge3" class="edge">
<title>topicref&#45;&gt;learningObject</title>
<path fill="none" stroke="#1f78b4" d="M275.1,-209.39C281.24,-235.87 292.69,-285.29 299.9,-316.42"/>
<polygon fill="#a6cee3" stroke="#1f78b4" points="296.5,-317.26 302.17,-326.21 303.32,-315.68 296.5,-317.26"/>
</g>
<!-- learningPlanRef -->
<g id="node5" class="node">
<title>learningPlanRef</title>
<path fill="#1afabc" stroke="black" d="M237.78,-218.24C237.78,-218.24 326.78,-218.24 326.78,-218.24 332.78,-218.24 338.78,-224.24 338.78,-230.24 338.78,-230.24 338.78,-242.24 338.78,-242.24 338.78,-248.24 332.78,-254.24 326.78,-254.24 326.78,-254.24 237.78,-254.24 237.78,-254.24 231.78,-254.24 225.78,-248.24 225.78,-242.24 225.78,-242.24 225.78,-230.24 225.78,-230.24 225.78,-224.24 231.78,-218.24 237.78,-218.24"/>
<text text-anchor="middle" x="282.28" y="-232.54" font-family="Arial" font-size="14.00">learningPlanRef</text>
</g>
<!-- topicref&#45;&gt;learningPlanRef -->
<g id="edge4" class="edge">
<title>topicref&#45;&gt;learningPlanRef</title>
<path fill="none" stroke="#1f78b4" d="M275.46,-209.28C275.48,-209.37 275.51,-209.46 275.53,-209.55"/>
<polygon fill="#a6cee3" stroke="#1f78b4" points="271.87,-209.35 277.71,-218.19 278.65,-207.63 271.87,-209.35"/>
</g>
<!-- learningOverviewRef -->
<g id="node6" class="node">
<title>learningOverviewRef</title>
<path fill="#1afabc" stroke="black" d="M55,-249.9C55,-249.9 174,-249.9 174,-249.9 180,-249.9 186,-255.9 186,-261.9 186,-261.9 186,-273.9 186,-273.9 186,-279.9 180,-285.9 174,-285.9 174,-285.9 55,-285.9 55,-285.9 49,-285.9 43,-279.9 43,-273.9 43,-273.9 43,-261.9 43,-261.9 43,-255.9 49,-249.9 55,-249.9"/>
<text text-anchor="middle" x="114.5" y="-264.2" font-family="Arial" font-size="14.00">learningOverviewRef</text>
</g>
<!-- topicref&#45;&gt;learningOverviewRef -->
<g id="edge5" class="edge">
<title>topicref&#45;&gt;learningOverviewRef</title>
<path fill="none" stroke="#1f78b4" d="M240.37,-206.19C217.65,-217.33 186.24,-232.73 160.48,-245.35"/>
<polygon fill="#a6cee3" stroke="#1f78b4" points="158.72,-242.32 151.28,-249.87 161.8,-248.61 158.72,-242.32"/>
</g>
<!-- learningSummaryRef -->
<g id="node7" class="node">
<title>learningSummaryRef</title>
<path fill="#1afabc" stroke="black" d="M161.61,-0.94C161.61,-0.94 282.61,-0.94 282.61,-0.94 288.61,-0.94 294.61,-6.94 294.61,-12.94 294.61,-12.94 294.61,-24.94 294.61,-24.94 294.61,-30.94 288.61,-36.94 282.61,-36.94 282.61,-36.94 161.61,-36.94 161.61,-36.94 155.61,-36.94 149.61,-30.94 149.61,-24.94 149.61,-24.94 149.61,-12.94 149.61,-12.94 149.61,-6.94 155.61,-0.94 161.61,-0.94"/>
<text text-anchor="middle" x="222.11" y="-15.24" font-family="Arial" font-size="14.00">learningSummaryRef</text>
</g>
<!-- topicref&#45;&gt;learningSummaryRef -->
<g id="edge6" class="edge">
<title>topicref&#45;&gt;learningSummaryRef</title>
<path fill="none" stroke="#1f78b4" d="M265.76,-173.11C257.24,-143 240.09,-82.43 230.01,-46.83"/>
<polygon fill="#a6cee3" stroke="#1f78b4" points="233.34,-45.74 227.25,-37.07 226.6,-47.65 233.34,-45.74"/>
</g>
<!-- learningContentRef -->
<g id="node8" class="node">
<title>learningContentRef</title>
<path fill="#1afabc" stroke="black" d="M380.67,-98.76C380.67,-98.76 489.67,-98.76 489.67,-98.76 495.67,-98.76 501.67,-104.76 501.67,-110.76 501.67,-110.76 501.67,-122.76 501.67,-122.76 501.67,-128.76 495.67,-134.76 489.67,-134.76 489.67,-134.76 380.67,-134.76 380.67,-134.76 374.67,-134.76 368.67,-128.76 368.67,-122.76 368.67,-122.76 368.67,-110.76 368.67,-110.76 368.67,-104.76 374.67,-98.76 380.67,-98.76"/>
<text text-anchor="middle" x="435.17" y="-113.06" font-family="Arial" font-size="14.00">learningContentRef</text>
</g>
<!-- topicref&#45;&gt;learningContentRef -->
<g id="edge7" class="edge">
<title>topicref&#45;&gt;learningContentRef</title>
<path fill="none" stroke="#1f78b4" d="M301.41,-177.39C325.06,-166.67 358.33,-151.59 385.77,-139.16"/>
<polygon fill="#a6cee3" stroke="#1f78b4" points="387.54,-142.2 395.2,-134.88 384.65,-135.82 387.54,-142.2"/>
</g>
<!-- learningContentComponentRef -->
<g id="node9" class="node">
<title>learningContentComponentRef</title>
<path fill="#1afabc" stroke="black" d="M12.46,-46.39C12.46,-46.39 191.46,-46.39 191.46,-46.39 197.46,-46.39 203.46,-52.39 203.46,-58.39 203.46,-58.39 203.46,-70.39 203.46,-70.39 203.46,-76.39 197.46,-82.39 191.46,-82.39 191.46,-82.39 12.46,-82.39 12.46,-82.39 6.46,-82.39 0.46,-76.39 0.46,-70.39 0.46,-70.39 0.46,-58.39 0.46,-58.39 0.46,-52.39 6.46,-46.39 12.46,-46.39"/>
<text text-anchor="middle" x="101.96" y="-60.69" font-family="Arial" font-size="14.00">learningContentComponentRef</text>
</g>
<!-- topicref&#45;&gt;learningContentComponentRef -->
<g id="edge8" class="edge">
<title>topicref&#45;&gt;learningContentComponentRef</title>
<path fill="none" stroke="#1f78b4" d="M246.69,-173.05C217.21,-150.92 167.3,-113.44 134.48,-88.8"/>
<polygon fill="#a6cee3" stroke="#1f78b4" points="136.22,-85.73 126.12,-82.53 132.02,-91.33 136.22,-85.73"/>
</g>
<!-- learningPreAssessmentRef -->
<g id="node10" class="node">
<title>learningPreAssessmentRef</title>
<path fill="#1afabc" stroke="black" d="M189.95,-127.45C189.95,-127.45 346.95,-127.45 346.95,-127.45 352.95,-127.45 358.95,-133.45 358.95,-139.45 358.95,-139.45 358.95,-151.45 358.95,-151.45 358.95,-157.45 352.95,-163.45 346.95,-163.45 346.95,-163.45 189.95,-163.45 189.95,-163.45 183.95,-163.45 177.95,-157.45 177.95,-151.45 177.95,-151.45 177.95,-139.45 177.95,-139.45 177.95,-133.45 183.95,-127.45 189.95,-127.45"/>
<text text-anchor="middle" x="268.45" y="-141.75" font-family="Arial" font-size="14.00">learningPreAssessmentRef</text>
</g>
<!-- topicref&#45;&gt;learningPreAssessmentRef -->
<g id="edge9" class="edge">
<title>topicref&#45;&gt;learningPreAssessmentRef</title>
<path fill="none" stroke="#1f78b4" d="M269.93,-173.13C269.92,-173.03 269.92,-172.94 269.91,-172.84"/>
<polygon fill="#a6cee3" stroke="#1f78b4" points="273.45,-173.51 269.43,-163.71 266.46,-173.88 273.45,-173.51"/>
</g>
<!-- learningPostAssessmentRef -->
<g id="node11" class="node">
<title>learningPostAssessmentRef</title>
<path fill="#1afabc" stroke="black" d="M388.14,-192.83C388.14,-192.83 551.14,-192.83 551.14,-192.83 557.14,-192.83 563.14,-198.83 563.14,-204.83 563.14,-204.83 563.14,-216.83 563.14,-216.83 563.14,-222.83 557.14,-228.83 551.14,-228.83 551.14,-228.83 388.14,-228.83 388.14,-228.83 382.14,-228.83 376.14,-222.83 376.14,-216.83 376.14,-216.83 376.14,-204.83 376.14,-204.83 376.14,-198.83 382.14,-192.83 388.14,-192.83"/>
<text text-anchor="middle" x="469.64" y="-207.13" font-family="Arial" font-size="14.00">learningPostAssessmentRef</text>
</g>
<!-- topicref&#45;&gt;learningPostAssessmentRef -->
<g id="edge10" class="edge">
<title>topicref&#45;&gt;learningPostAssessmentRef</title>
<path fill="none" stroke="#1f78b4" d="M301.51,-194.24C319.04,-195.97 342.17,-198.26 365.65,-200.57"/>
<polygon fill="#a6cee3" stroke="#1f78b4" points="365.42,-204.07 375.72,-201.57 366.11,-197.1 365.42,-204.07"/>
</g>
<!-- learningGroupMapRef -->
<g id="node12" class="node">
<title>learningGroupMapRef</title>
<path fill="#1afabc" stroke="black" d="M103.82,-323.05C103.82,-323.05 230.82,-323.05 230.82,-323.05 236.82,-323.05 242.82,-329.05 242.82,-335.05 242.82,-335.05 242.82,-347.05 242.82,-347.05 242.82,-353.05 236.82,-359.05 230.82,-359.05 230.82,-359.05 103.82,-359.05 103.82,-359.05 97.82,-359.05 91.82,-353.05 91.82,-347.05 91.82,-347.05 91.82,-335.05 91.82,-335.05 91.82,-329.05 97.82,-323.05 103.82,-323.05"/>
<text text-anchor="middle" x="167.32" y="-337.35" font-family="Arial" font-size="14.00">learningGroupMapRef</text>
</g>
<!-- topicref&#45;&gt;learningGroupMapRef -->
<g id="edge11" class="edge">
<title>topicref&#45;&gt;learningGroupMapRef</title>
<path fill="none" stroke="#1f78b4" d="M258.4,-209.3C240.28,-235.51 206.59,-284.23 185.66,-314.52"/>
<polygon fill="#a6cee3" stroke="#1f78b4" points="182.66,-312.69 179.86,-322.91 188.42,-316.67 182.66,-312.69"/>
</g>
<!-- learningObjectMapRef -->
<g id="node13" class="node">
<title>learningObjectMapRef</title>
<path fill="#1afabc" stroke="black" d="M353.46,-278.13C353.46,-278.13 481.46,-278.13 481.46,-278.13 487.46,-278.13 493.46,-284.13 493.46,-290.13 493.46,-290.13 493.46,-302.13 493.46,-302.13 493.46,-308.13 487.46,-314.13 481.46,-314.13 481.46,-314.13 353.46,-314.13 353.46,-314.13 347.46,-314.13 341.46,-308.13 341.46,-302.13 341.46,-302.13 341.46,-290.13 341.46,-290.13 341.46,-284.13 347.46,-278.13 353.46,-278.13"/>
<text text-anchor="middle" x="417.46" y="-292.43" font-family="Arial" font-size="14.00">learningObjectMapRef</text>
</g>
<!-- topicref&#45;&gt;learningObjectMapRef -->
<g id="edge12" class="edge">
<title>topicref&#45;&gt;learningObjectMapRef</title>
<path fill="none" stroke="#1f78b4" d="M296.09,-209.26C320.31,-226.6 357.09,-252.92 383.81,-272.04"/>
<polygon fill="#a6cee3" stroke="#1f78b4" points="381.94,-275 392.11,-277.98 386.01,-269.31 381.94,-275"/>
</g>
</g>
</svg>
