<?xml version="1.0" encoding="UTF-8" standalone="no"?>
<!DOCTYPE svg PUBLIC "-//W3C//DTD SVG 1.1//EN"
 "http://www.w3.org/Graphics/SVG/1.1/DTD/svg11.dtd">
<!-- Generated by graphviz version 6.0.1 (20220911.1526)
 -->
<!-- Pages: 1 -->
<svg width="278pt" height="277pt"
 viewBox="0.00 0.00 278.00 277.00" xmlns="http://www.w3.org/2000/svg" xmlns:xlink="http://www.w3.org/1999/xlink">
<g id="graph0" class="graph" transform="scale(1 1) rotate(0) translate(4 273)">
<polygon fill="white" stroke="none" points="-4,4 -4,-273 274,-273 274,4 -4,4"/>
<!-- learningInteractionBase&#45;d -->
<g id="node1" class="node">
<title>learningInteractionBase&#45;d</title>
<path fill="#dddddd" stroke="black" d="M12.07,-97.79C12.07,-97.79 158.07,-97.79 158.07,-97.79 164.07,-97.79 170.07,-103.79 170.07,-109.79 170.07,-109.79 170.07,-121.79 170.07,-121.79 170.07,-127.79 164.07,-133.79 158.07,-133.79 158.07,-133.79 12.07,-133.79 12.07,-133.79 6.07,-133.79 0.07,-127.79 0.07,-121.79 0.07,-121.79 0.07,-109.79 0.07,-109.79 0.07,-103.79 6.07,-97.79 12.07,-97.79"/>
<text text-anchor="middle" x="85.07" y="-112.09" font-family="Arial" font-size="14.00">learningInteractionBase&#45;d</text>
</g>
<!-- fig -->
<g id="node2" class="node">
<title>fig</title>
<path fill="#afa7f4" stroke="black" d="M214.65,-45.86C214.65,-45.86 244.65,-45.86 244.65,-45.86 250.65,-45.86 256.65,-51.86 256.65,-57.86 256.65,-57.86 256.65,-69.86 256.65,-69.86 256.65,-75.86 250.65,-81.86 244.65,-81.86 244.65,-81.86 214.65,-81.86 214.65,-81.86 208.65,-81.86 202.65,-75.86 202.65,-69.86 202.65,-69.86 202.65,-57.86 202.65,-57.86 202.65,-51.86 208.65,-45.86 214.65,-45.86"/>
<text text-anchor="middle" x="229.65" y="-60.16" font-family="Arial" font-size="14.00">fig</text>
</g>
<!-- learningInteractionBase&#45;d&#45;&gt;fig -->
<g id="edge1" class="edge">
<title>learningInteractionBase&#45;d&#45;&gt;fig</title>
<path fill="none" stroke="#1f78b4" d="M135.23,-97.77C154.05,-91.02 175.08,-83.46 192.51,-77.2"/>
<polygon fill="#a6cee3" stroke="#1f78b4" points="194.08,-80.36 202.31,-73.68 191.71,-73.77 194.08,-80.36"/>
</g>
<!-- p -->
<g id="node4" class="node">
<title>p</title>
<path fill="#afa7f4" stroke="black" d="M90.26,-147.08C90.26,-147.08 120.26,-147.08 120.26,-147.08 126.26,-147.08 132.26,-153.08 132.26,-159.08 132.26,-159.08 132.26,-171.08 132.26,-171.08 132.26,-177.08 126.26,-183.08 120.26,-183.08 120.26,-183.08 90.26,-183.08 90.26,-183.08 84.26,-183.08 78.26,-177.08 78.26,-171.08 78.26,-171.08 78.26,-159.08 78.26,-159.08 78.26,-153.08 84.26,-147.08 90.26,-147.08"/>
<text text-anchor="middle" x="105.26" y="-161.38" font-family="Arial" font-size="14.00">p</text>
</g>
<!-- learningInteractionBase&#45;d&#45;&gt;p -->
<g id="edge3" class="edge">
<title>learningInteractionBase&#45;d&#45;&gt;p</title>
<path fill="none" stroke="#1f78b4" d="M92.47,-133.86C92.97,-135.07 93.47,-136.3 93.98,-137.54"/>
<polygon fill="#a6cee3" stroke="#1f78b4" points="90.83,-139.08 97.86,-147.01 97.31,-136.43 90.83,-139.08"/>
</g>
<!-- lcInteractionBase -->
<g id="node3" class="node">
<title>lcInteractionBase</title>
<path fill="#1afabc" stroke="black" d="M161.99,-0.24C161.99,-0.24 257.99,-0.24 257.99,-0.24 263.99,-0.24 269.99,-6.24 269.99,-12.24 269.99,-12.24 269.99,-24.24 269.99,-24.24 269.99,-30.24 263.99,-36.24 257.99,-36.24 257.99,-36.24 161.99,-36.24 161.99,-36.24 155.99,-36.24 149.99,-30.24 149.99,-24.24 149.99,-24.24 149.99,-12.24 149.99,-12.24 149.99,-6.24 155.99,-0.24 161.99,-0.24"/>
<text text-anchor="middle" x="209.99" y="-14.54" font-family="Arial" font-size="14.00">lcInteractionBase</text>
</g>
<!-- fig&#45;&gt;lcInteractionBase -->
<g id="edge2" class="edge">
<title>fig&#45;&gt;lcInteractionBase</title>
<path fill="none" stroke="#1f78b4" d="M221.88,-45.83C221.83,-45.74 221.79,-45.64 221.75,-45.54"/>
<polygon fill="#a6cee3" stroke="#1f78b4" points="225,-44.24 217.83,-36.44 218.57,-47.01 225,-44.24"/>
</g>
<!-- lcQuestionBase -->
<g id="node5" class="node">
<title>lcQuestionBase</title>
<path fill="#1afabc" stroke="black" d="M153.63,-232.64C153.63,-232.64 241.63,-232.64 241.63,-232.64 247.63,-232.64 253.63,-238.64 253.63,-244.64 253.63,-244.64 253.63,-256.64 253.63,-256.64 253.63,-262.64 247.63,-268.64 241.63,-268.64 241.63,-268.64 153.63,-268.64 153.63,-268.64 147.63,-268.64 141.63,-262.64 141.63,-256.64 141.63,-256.64 141.63,-244.64 141.63,-244.64 141.63,-238.64 147.63,-232.64 153.63,-232.64"/>
<text text-anchor="middle" x="197.63" y="-246.94" font-family="Arial" font-size="14.00">lcQuestionBase</text>
</g>
<!-- p&#45;&gt;lcQuestionBase -->
<g id="edge4" class="edge">
<title>p&#45;&gt;lcQuestionBase</title>
<path fill="none" stroke="#1f78b4" d="M124.85,-183.23C138.2,-195.59 156.05,-212.12 170.73,-225.72"/>
<polygon fill="#a6cee3" stroke="#1f78b4" points="168.36,-228.3 178.07,-232.52 173.12,-223.16 168.36,-228.3"/>
</g>
</g>
</svg>
