<?xml version="1.0" encoding="UTF-8" standalone="no"?>
<!DOCTYPE svg PUBLIC "-//W3C//DTD SVG 1.1//EN"
 "http://www.w3.org/Graphics/SVG/1.1/DTD/svg11.dtd">
<!-- Generated by graphviz version 6.0.1 (20220911.1526)
 -->
<!-- Pages: 1 -->
<svg width="1044pt" height="1231pt"
 viewBox="0.00 0.00 1044.00 1231.00" xmlns="http://www.w3.org/2000/svg" xmlns:xlink="http://www.w3.org/1999/xlink">
<g id="graph0" class="graph" transform="scale(1 1) rotate(0) translate(4 1227)">
<polygon fill="white" stroke="none" points="-4,4 -4,-1227 1040,-1227 1040,4 -4,4"/>
<!-- learning&#45;d -->
<g id="node1" class="node">
<title>learning&#45;d</title>
<path fill="#dddddd" stroke="black" d="M478.69,-633.72C478.69,-633.72 531.69,-633.72 531.69,-633.72 537.69,-633.72 543.69,-639.72 543.69,-645.72 543.69,-645.72 543.69,-657.72 543.69,-657.72 543.69,-663.72 537.69,-669.72 531.69,-669.72 531.69,-669.72 478.69,-669.72 478.69,-669.72 472.69,-669.72 466.69,-663.72 466.69,-657.72 466.69,-657.72 466.69,-645.72 466.69,-645.72 466.69,-639.72 472.69,-633.72 478.69,-633.72"/>
<text text-anchor="middle" x="505.19" y="-648.02" font-family="Arial" font-size="14.00">learning&#45;d</text>
</g>
<!-- note -->
<g id="node2" class="node">
<title>note</title>
<path fill="#afa7f4" stroke="black" d="M344.25,-482.12C344.25,-482.12 374.25,-482.12 374.25,-482.12 380.25,-482.12 386.25,-488.12 386.25,-494.12 386.25,-494.12 386.25,-506.12 386.25,-506.12 386.25,-512.12 380.25,-518.12 374.25,-518.12 374.25,-518.12 344.25,-518.12 344.25,-518.12 338.25,-518.12 332.25,-512.12 332.25,-506.12 332.25,-506.12 332.25,-494.12 332.25,-494.12 332.25,-488.12 338.25,-482.12 344.25,-482.12"/>
<text text-anchor="middle" x="359.25" y="-496.42" font-family="Arial" font-size="14.00">note</text>
</g>
<!-- learning&#45;d&#45;&gt;note -->
<g id="edge1" class="edge">
<title>learning&#45;d&#45;&gt;note</title>
<path fill="none" stroke="#1f78b4" d="M487.58,-633.43C461.73,-606.57 413.36,-556.33 383.96,-525.79"/>
<polygon fill="#a6cee3" stroke="#1f78b4" points="386.37,-523.25 376.91,-518.47 381.33,-528.1 386.37,-523.25"/>
</g>
<!-- lcInteractionBase -->
<g id="node4" class="node">
<title>lcInteractionBase</title>
<path fill="#afa7f4" stroke="black" d="M447.25,-242.22C447.25,-242.22 543.25,-242.22 543.25,-242.22 549.25,-242.22 555.25,-248.22 555.25,-254.22 555.25,-254.22 555.25,-266.22 555.25,-266.22 555.25,-272.22 549.25,-278.22 543.25,-278.22 543.25,-278.22 447.25,-278.22 447.25,-278.22 441.25,-278.22 435.25,-272.22 435.25,-266.22 435.25,-266.22 435.25,-254.22 435.25,-254.22 435.25,-248.22 441.25,-242.22 447.25,-242.22"/>
<text text-anchor="middle" x="495.25" y="-256.52" font-family="Arial" font-size="14.00">lcInteractionBase</text>
</g>
<!-- learning&#45;d&#45;&gt;lcInteractionBase -->
<g id="edge3" class="edge">
<title>learning&#45;d&#45;&gt;lcInteractionBase</title>
<path fill="none" stroke="#1f78b4" d="M504.73,-633.62C503.15,-571.27 497.91,-365.04 495.98,-288.84"/>
<polygon fill="#a6cee3" stroke="#1f78b4" points="499.47,-288.48 495.72,-278.57 492.47,-288.66 499.47,-288.48"/>
</g>
<!-- lcQuestionBase -->
<g id="node12" class="node">
<title>lcQuestionBase</title>
<path fill="#afa7f4" stroke="black" d="M345.16,-861.4C345.16,-861.4 433.16,-861.4 433.16,-861.4 439.16,-861.4 445.16,-867.4 445.16,-873.4 445.16,-873.4 445.16,-885.4 445.16,-885.4 445.16,-891.4 439.16,-897.4 433.16,-897.4 433.16,-897.4 345.16,-897.4 345.16,-897.4 339.16,-897.4 333.16,-891.4 333.16,-885.4 333.16,-885.4 333.16,-873.4 333.16,-873.4 333.16,-867.4 339.16,-861.4 345.16,-861.4"/>
<text text-anchor="middle" x="389.16" y="-875.7" font-family="Arial" font-size="14.00">lcQuestionBase</text>
</g>
<!-- learning&#45;d&#45;&gt;lcQuestionBase -->
<g id="edge11" class="edge">
<title>learning&#45;d&#45;&gt;lcQuestionBase</title>
<path fill="none" stroke="#1f78b4" d="M495.89,-669.97C475.52,-709.95 426.85,-805.45 402.92,-852.4"/>
<polygon fill="#a6cee3" stroke="#1f78b4" points="399.77,-850.88 398.35,-861.38 406,-854.06 399.77,-850.88"/>
</g>
<!-- p -->
<g id="node14" class="node">
<title>p</title>
<path fill="#afa7f4" stroke="black" d="M515.79,-952.38C515.79,-952.38 545.79,-952.38 545.79,-952.38 551.79,-952.38 557.79,-958.38 557.79,-964.38 557.79,-964.38 557.79,-976.38 557.79,-976.38 557.79,-982.38 551.79,-988.38 545.79,-988.38 545.79,-988.38 515.79,-988.38 515.79,-988.38 509.79,-988.38 503.79,-982.38 503.79,-976.38 503.79,-976.38 503.79,-964.38 503.79,-964.38 503.79,-958.38 509.79,-952.38 515.79,-952.38"/>
<text text-anchor="middle" x="530.79" y="-966.68" font-family="Arial" font-size="14.00">p</text>
</g>
<!-- learning&#45;d&#45;&gt;p -->
<g id="edge13" class="edge">
<title>learning&#45;d&#45;&gt;p</title>
<path fill="none" stroke="#1f78b4" d="M506.64,-669.76C510.89,-722.66 523.34,-877.64 528.5,-941.93"/>
<polygon fill="#a6cee3" stroke="#1f78b4" points="525.03,-942.45 529.32,-952.13 532.01,-941.89 525.03,-942.45"/>
</g>
<!-- ul -->
<g id="node21" class="node">
<title>ul</title>
<path fill="#afa7f4" stroke="black" d="M300.7,-541.4C300.7,-541.4 330.7,-541.4 330.7,-541.4 336.7,-541.4 342.7,-547.4 342.7,-553.4 342.7,-553.4 342.7,-565.4 342.7,-565.4 342.7,-571.4 336.7,-577.4 330.7,-577.4 330.7,-577.4 300.7,-577.4 300.7,-577.4 294.7,-577.4 288.7,-571.4 288.7,-565.4 288.7,-565.4 288.7,-553.4 288.7,-553.4 288.7,-547.4 294.7,-541.4 300.7,-541.4"/>
<text text-anchor="middle" x="315.7" y="-555.7" font-family="Arial" font-size="14.00">ul</text>
</g>
<!-- learning&#45;d&#45;&gt;ul -->
<g id="edge20" class="edge">
<title>learning&#45;d&#45;&gt;ul</title>
<path fill="none" stroke="#1f78b4" d="M468.2,-633.7C434.68,-617.37 385.55,-593.43 352.18,-577.18"/>
<polygon fill="#a6cee3" stroke="#1f78b4" points="353.32,-573.83 342.79,-572.6 350.25,-580.13 353.32,-573.83"/>
</g>
<!-- ol -->
<g id="node23" class="node">
<title>ol</title>
<path fill="#afa7f4" stroke="black" d="M349.04,-794.44C349.04,-794.44 379.04,-794.44 379.04,-794.44 385.04,-794.44 391.04,-800.44 391.04,-806.44 391.04,-806.44 391.04,-818.44 391.04,-818.44 391.04,-824.44 385.04,-830.44 379.04,-830.44 379.04,-830.44 349.04,-830.44 349.04,-830.44 343.04,-830.44 337.04,-824.44 337.04,-818.44 337.04,-818.44 337.04,-806.44 337.04,-806.44 337.04,-800.44 343.04,-794.44 349.04,-794.44"/>
<text text-anchor="middle" x="364.04" y="-808.74" font-family="Arial" font-size="14.00">ol</text>
</g>
<!-- learning&#45;d&#45;&gt;ol -->
<g id="edge22" class="edge">
<title>learning&#45;d&#45;&gt;ol</title>
<path fill="none" stroke="#1f78b4" d="M489.27,-669.84C464.28,-698.3 415.73,-753.58 386.98,-786.33"/>
<polygon fill="#a6cee3" stroke="#1f78b4" points="384.09,-784.31 380.12,-794.14 389.35,-788.93 384.09,-784.31"/>
</g>
<!-- li -->
<g id="node25" class="node">
<title>li</title>
<path fill="#afa7f4" stroke="black" d="M685.34,-510.17C685.34,-510.17 715.34,-510.17 715.34,-510.17 721.34,-510.17 727.34,-516.17 727.34,-522.17 727.34,-522.17 727.34,-534.17 727.34,-534.17 727.34,-540.17 721.34,-546.17 715.34,-546.17 715.34,-546.17 685.34,-546.17 685.34,-546.17 679.34,-546.17 673.34,-540.17 673.34,-534.17 673.34,-534.17 673.34,-522.17 673.34,-522.17 673.34,-516.17 679.34,-510.17 685.34,-510.17"/>
<text text-anchor="middle" x="700.34" y="-524.47" font-family="Arial" font-size="14.00">li</text>
</g>
<!-- learning&#45;d&#45;&gt;li -->
<g id="edge24" class="edge">
<title>learning&#45;d&#45;&gt;li</title>
<path fill="none" stroke="#1f78b4" d="M533.98,-633.49C568.73,-611.49 627.16,-574.5 664.71,-550.73"/>
<polygon fill="#a6cee3" stroke="#1f78b4" points="666.74,-553.59 673.32,-545.28 663,-547.67 666.74,-553.59"/>
</g>
<!-- simpletable -->
<g id="node28" class="node">
<title>simpletable</title>
<path fill="#afa7f4" stroke="black" d="M583.02,-457.51C583.02,-457.51 645.02,-457.51 645.02,-457.51 651.02,-457.51 657.02,-463.51 657.02,-469.51 657.02,-469.51 657.02,-481.51 657.02,-481.51 657.02,-487.51 651.02,-493.51 645.02,-493.51 645.02,-493.51 583.02,-493.51 583.02,-493.51 577.02,-493.51 571.02,-487.51 571.02,-481.51 571.02,-481.51 571.02,-469.51 571.02,-469.51 571.02,-463.51 577.02,-457.51 583.02,-457.51"/>
<text text-anchor="middle" x="614.02" y="-471.81" font-family="Arial" font-size="14.00">simpletable</text>
</g>
<!-- learning&#45;d&#45;&gt;simpletable -->
<g id="edge27" class="edge">
<title>learning&#45;d&#45;&gt;simpletable</title>
<path fill="none" stroke="#1f78b4" d="M516.43,-633.52C535.7,-602.32 575.15,-538.44 597.54,-502.19"/>
<polygon fill="#a6cee3" stroke="#1f78b4" points="600.57,-503.95 602.84,-493.61 594.61,-500.27 600.57,-503.95"/>
</g>
<!-- sthead -->
<g id="node30" class="node">
<title>sthead</title>
<path fill="#afa7f4" stroke="black" d="M668.83,-694.26C668.83,-694.26 701.83,-694.26 701.83,-694.26 707.83,-694.26 713.83,-700.26 713.83,-706.26 713.83,-706.26 713.83,-718.26 713.83,-718.26 713.83,-724.26 707.83,-730.26 701.83,-730.26 701.83,-730.26 668.83,-730.26 668.83,-730.26 662.83,-730.26 656.83,-724.26 656.83,-718.26 656.83,-718.26 656.83,-706.26 656.83,-706.26 656.83,-700.26 662.83,-694.26 668.83,-694.26"/>
<text text-anchor="middle" x="685.33" y="-708.56" font-family="Arial" font-size="14.00">sthead</text>
</g>
<!-- learning&#45;d&#45;&gt;sthead -->
<g id="edge29" class="edge">
<title>learning&#45;d&#45;&gt;sthead</title>
<path fill="none" stroke="#1f78b4" d="M543.83,-664.71C574.3,-674.95 616.57,-689.15 646.96,-699.37"/>
<polygon fill="#a6cee3" stroke="#1f78b4" points="646.18,-702.8 656.78,-702.67 648.41,-696.16 646.18,-702.8"/>
</g>
<!-- strow -->
<g id="node32" class="node">
<title>strow</title>
<path fill="#afa7f4" stroke="black" d="M424.2,-446.29C424.2,-446.29 454.2,-446.29 454.2,-446.29 460.2,-446.29 466.2,-452.29 466.2,-458.29 466.2,-458.29 466.2,-470.29 466.2,-470.29 466.2,-476.29 460.2,-482.29 454.2,-482.29 454.2,-482.29 424.2,-482.29 424.2,-482.29 418.2,-482.29 412.2,-476.29 412.2,-470.29 412.2,-470.29 412.2,-458.29 412.2,-458.29 412.2,-452.29 418.2,-446.29 424.2,-446.29"/>
<text text-anchor="middle" x="439.2" y="-460.59" font-family="Arial" font-size="14.00">strow</text>
</g>
<!-- learning&#45;d&#45;&gt;strow -->
<g id="edge31" class="edge">
<title>learning&#45;d&#45;&gt;strow</title>
<path fill="none" stroke="#1f78b4" d="M498.74,-633.4C487.13,-600.43 462.65,-530.88 448.97,-492.03"/>
<polygon fill="#a6cee3" stroke="#1f78b4" points="452.2,-490.67 445.58,-482.4 445.6,-492.99 452.2,-490.67"/>
</g>
<!-- stentry -->
<g id="node34" class="node">
<title>stentry</title>
<path fill="#afa7f4" stroke="black" d="M696.53,-793.18C696.53,-793.18 729.53,-793.18 729.53,-793.18 735.53,-793.18 741.53,-799.18 741.53,-805.18 741.53,-805.18 741.53,-817.18 741.53,-817.18 741.53,-823.18 735.53,-829.18 729.53,-829.18 729.53,-829.18 696.53,-829.18 696.53,-829.18 690.53,-829.18 684.53,-823.18 684.53,-817.18 684.53,-817.18 684.53,-805.18 684.53,-805.18 684.53,-799.18 690.53,-793.18 696.53,-793.18"/>
<text text-anchor="middle" x="713.03" y="-807.48" font-family="Arial" font-size="14.00">stentry</text>
</g>
<!-- learning&#45;d&#45;&gt;stentry -->
<g id="edge33" class="edge">
<title>learning&#45;d&#45;&gt;stentry</title>
<path fill="none" stroke="#1f78b4" d="M529.03,-670.01C566.62,-698.85 639.66,-754.89 681.53,-787.01"/>
<polygon fill="#a6cee3" stroke="#1f78b4" points="679.4,-789.79 689.47,-793.1 683.66,-784.24 679.4,-789.79"/>
</g>
<!-- figgroup -->
<g id="node38" class="node">
<title>figgroup</title>
<path fill="#afa7f4" stroke="black" d="M232.96,-609.14C232.96,-609.14 273.96,-609.14 273.96,-609.14 279.96,-609.14 285.96,-615.14 285.96,-621.14 285.96,-621.14 285.96,-633.14 285.96,-633.14 285.96,-639.14 279.96,-645.14 273.96,-645.14 273.96,-645.14 232.96,-645.14 232.96,-645.14 226.96,-645.14 220.96,-639.14 220.96,-633.14 220.96,-633.14 220.96,-621.14 220.96,-621.14 220.96,-615.14 226.96,-609.14 232.96,-609.14"/>
<text text-anchor="middle" x="253.46" y="-623.44" font-family="Arial" font-size="14.00">figgroup</text>
</g>
<!-- learning&#45;d&#45;&gt;figgroup -->
<g id="edge37" class="edge">
<title>learning&#45;d&#45;&gt;figgroup</title>
<path fill="none" stroke="#1f78b4" d="M466.68,-647.96C420.75,-643.47 344.18,-636 296.38,-631.33"/>
<polygon fill="#a6cee3" stroke="#1f78b4" points="296.64,-627.84 286.34,-630.35 295.96,-634.81 296.64,-627.84"/>
</g>
<!-- keyword -->
<g id="node41" class="node">
<title>keyword</title>
<path fill="#afa7f4" stroke="black" d="M269.71,-684.75C269.71,-684.75 312.71,-684.75 312.71,-684.75 318.71,-684.75 324.71,-690.75 324.71,-696.75 324.71,-696.75 324.71,-708.75 324.71,-708.75 324.71,-714.75 318.71,-720.75 312.71,-720.75 312.71,-720.75 269.71,-720.75 269.71,-720.75 263.71,-720.75 257.71,-714.75 257.71,-708.75 257.71,-708.75 257.71,-696.75 257.71,-696.75 257.71,-690.75 263.71,-684.75 269.71,-684.75"/>
<text text-anchor="middle" x="291.21" y="-699.05" font-family="Arial" font-size="14.00">keyword</text>
</g>
<!-- learning&#45;d&#45;&gt;keyword -->
<g id="edge40" class="edge">
<title>learning&#45;d&#45;&gt;keyword</title>
<path fill="none" stroke="#1f78b4" d="M466.44,-660.96C429.29,-669.82 373.31,-683.17 334.67,-692.38"/>
<polygon fill="#a6cee3" stroke="#1f78b4" points="333.66,-689.02 324.75,-694.75 335.29,-695.83 333.66,-689.02"/>
</g>
<!-- ph -->
<g id="node43" class="node">
<title>ph</title>
<path fill="#afa7f4" stroke="black" d="M314.47,-740.91C314.47,-740.91 344.47,-740.91 344.47,-740.91 350.47,-740.91 356.47,-746.91 356.47,-752.91 356.47,-752.91 356.47,-764.91 356.47,-764.91 356.47,-770.91 350.47,-776.91 344.47,-776.91 344.47,-776.91 314.47,-776.91 314.47,-776.91 308.47,-776.91 302.47,-770.91 302.47,-764.91 302.47,-764.91 302.47,-752.91 302.47,-752.91 302.47,-746.91 308.47,-740.91 314.47,-740.91"/>
<text text-anchor="middle" x="329.47" y="-755.21" font-family="Arial" font-size="14.00">ph</text>
</g>
<!-- learning&#45;d&#45;&gt;ph -->
<g id="edge42" class="edge">
<title>learning&#45;d&#45;&gt;ph</title>
<path fill="none" stroke="#1f78b4" d="M475.38,-669.9C444.95,-688.46 397.7,-717.29 365.27,-737.07"/>
<polygon fill="#a6cee3" stroke="#1f78b4" points="363.25,-734.2 356.54,-742.4 366.9,-740.18 363.25,-734.2"/>
</g>
<!-- data -->
<g id="node45" class="node">
<title>data</title>
<path fill="#afa7f4" stroke="black" d="M719.74,-611.99C719.74,-611.99 749.74,-611.99 749.74,-611.99 755.74,-611.99 761.74,-617.99 761.74,-623.99 761.74,-623.99 761.74,-635.99 761.74,-635.99 761.74,-641.99 755.74,-647.99 749.74,-647.99 749.74,-647.99 719.74,-647.99 719.74,-647.99 713.74,-647.99 707.74,-641.99 707.74,-635.99 707.74,-635.99 707.74,-623.99 707.74,-623.99 707.74,-617.99 713.74,-611.99 719.74,-611.99"/>
<text text-anchor="middle" x="734.74" y="-626.29" font-family="Arial" font-size="14.00">data</text>
</g>
<!-- learning&#45;d&#45;&gt;data -->
<g id="edge44" class="edge">
<title>learning&#45;d&#45;&gt;data</title>
<path fill="none" stroke="#1f78b4" d="M543.87,-648.06C586.63,-644.01 655.03,-637.54 697.29,-633.54"/>
<polygon fill="#a6cee3" stroke="#1f78b4" points="697.81,-637 707.44,-632.58 697.15,-630.04 697.81,-637"/>
</g>
<!-- lcInstructornote -->
<g id="node3" class="node">
<title>lcInstructornote</title>
<path fill="#1afabc" stroke="black" d="M170.67,-358.81C170.67,-358.81 255.67,-358.81 255.67,-358.81 261.67,-358.81 267.67,-364.81 267.67,-370.81 267.67,-370.81 267.67,-382.81 267.67,-382.81 267.67,-388.81 261.67,-394.81 255.67,-394.81 255.67,-394.81 170.67,-394.81 170.67,-394.81 164.67,-394.81 158.67,-388.81 158.67,-382.81 158.67,-382.81 158.67,-370.81 158.67,-370.81 158.67,-364.81 164.67,-358.81 170.67,-358.81"/>
<text text-anchor="middle" x="213.17" y="-373.11" font-family="Arial" font-size="14.00">lcInstructornote</text>
</g>
<!-- note&#45;&gt;lcInstructornote -->
<g id="edge2" class="edge">
<title>note&#45;&gt;lcInstructornote</title>
<path fill="none" stroke="#1f78b4" d="M337.69,-481.93C312.56,-460.71 270.86,-425.51 242.72,-401.75"/>
<polygon fill="#a6cee3" stroke="#1f78b4" points="244.71,-398.85 234.81,-395.08 240.19,-404.2 244.71,-398.85"/>
</g>
<!-- lcTrueFalse -->
<g id="node5" class="node">
<title>lcTrueFalse</title>
<path fill="#1afabc" stroke="black" d="M340.69,-58.84C340.69,-58.84 403.69,-58.84 403.69,-58.84 409.69,-58.84 415.69,-64.84 415.69,-70.84 415.69,-70.84 415.69,-82.84 415.69,-82.84 415.69,-88.84 409.69,-94.84 403.69,-94.84 403.69,-94.84 340.69,-94.84 340.69,-94.84 334.69,-94.84 328.69,-88.84 328.69,-82.84 328.69,-82.84 328.69,-70.84 328.69,-70.84 328.69,-64.84 334.69,-58.84 340.69,-58.84"/>
<text text-anchor="middle" x="372.19" y="-73.14" font-family="Arial" font-size="14.00">lcTrueFalse</text>
</g>
<!-- lcInteractionBase&#45;&gt;lcTrueFalse -->
<g id="edge4" class="edge">
<title>lcInteractionBase&#45;&gt;lcTrueFalse</title>
<path fill="none" stroke="#1f78b4" d="M483,-241.96C461.16,-209.42 415.42,-141.27 390.07,-103.49"/>
<polygon fill="#a6cee3" stroke="#1f78b4" points="392.87,-101.37 384.39,-95.02 387.05,-105.27 392.87,-101.37"/>
</g>
<!-- lcSingleSelect -->
<g id="node6" class="node">
<title>lcSingleSelect</title>
<path fill="#1afabc" stroke="black" d="M279.12,-105.54C279.12,-105.54 356.12,-105.54 356.12,-105.54 362.12,-105.54 368.12,-111.54 368.12,-117.54 368.12,-117.54 368.12,-129.54 368.12,-129.54 368.12,-135.54 362.12,-141.54 356.12,-141.54 356.12,-141.54 279.12,-141.54 279.12,-141.54 273.12,-141.54 267.12,-135.54 267.12,-129.54 267.12,-129.54 267.12,-117.54 267.12,-117.54 267.12,-111.54 273.12,-105.54 279.12,-105.54"/>
<text text-anchor="middle" x="317.62" y="-119.84" font-family="Arial" font-size="14.00">lcSingleSelect</text>
</g>
<!-- lcInteractionBase&#45;&gt;lcSingleSelect -->
<g id="edge5" class="edge">
<title>lcInteractionBase&#45;&gt;lcSingleSelect</title>
<path fill="none" stroke="#1f78b4" d="M471.66,-242.07C440.12,-217.8 384.12,-174.71 349.03,-147.71"/>
<polygon fill="#a6cee3" stroke="#1f78b4" points="351.08,-144.87 341.02,-141.54 346.81,-150.42 351.08,-144.87"/>
</g>
<!-- lcMultipleSelect -->
<g id="node7" class="node">
<title>lcMultipleSelect</title>
<path fill="#1afabc" stroke="black" d="M594.46,-42.01C594.46,-42.01 681.46,-42.01 681.46,-42.01 687.46,-42.01 693.46,-48.01 693.46,-54.01 693.46,-54.01 693.46,-66.01 693.46,-66.01 693.46,-72.01 687.46,-78.01 681.46,-78.01 681.46,-78.01 594.46,-78.01 594.46,-78.01 588.46,-78.01 582.46,-72.01 582.46,-66.01 582.46,-66.01 582.46,-54.01 582.46,-54.01 582.46,-48.01 588.46,-42.01 594.46,-42.01"/>
<text text-anchor="middle" x="637.96" y="-56.31" font-family="Arial" font-size="14.00">lcMultipleSelect</text>
</g>
<!-- lcInteractionBase&#45;&gt;lcMultipleSelect -->
<g id="edge6" class="edge">
<title>lcInteractionBase&#45;&gt;lcMultipleSelect</title>
<path fill="none" stroke="#1f78b4" d="M508.17,-242.1C533.47,-206.6 589.66,-127.78 619.11,-86.45"/>
<polygon fill="#a6cee3" stroke="#1f78b4" points="622.02,-88.41 624.97,-78.23 616.32,-84.34 622.02,-88.41"/>
</g>
<!-- lcSequencing -->
<g id="node8" class="node">
<title>lcSequencing</title>
<path fill="#1afabc" stroke="black" d="M455.55,-55.54C455.55,-55.54 529.55,-55.54 529.55,-55.54 535.55,-55.54 541.55,-61.54 541.55,-67.54 541.55,-67.54 541.55,-79.54 541.55,-79.54 541.55,-85.54 535.55,-91.54 529.55,-91.54 529.55,-91.54 455.55,-91.54 455.55,-91.54 449.55,-91.54 443.55,-85.54 443.55,-79.54 443.55,-79.54 443.55,-67.54 443.55,-67.54 443.55,-61.54 449.55,-55.54 455.55,-55.54"/>
<text text-anchor="middle" x="492.55" y="-69.84" font-family="Arial" font-size="14.00">lcSequencing</text>
</g>
<!-- lcInteractionBase&#45;&gt;lcSequencing -->
<g id="edge7" class="edge">
<title>lcInteractionBase&#45;&gt;lcSequencing</title>
<path fill="none" stroke="#1f78b4" d="M494.99,-241.98C494.51,-209.27 493.52,-140.45 492.96,-101.67"/>
<polygon fill="#a6cee3" stroke="#1f78b4" points="496.46,-101.53 492.81,-91.58 489.46,-101.63 496.46,-101.53"/>
</g>
<!-- lcMatching -->
<g id="node9" class="node">
<title>lcMatching</title>
<path fill="#1afabc" stroke="black" d="M404.23,-0.94C404.23,-0.94 462.23,-0.94 462.23,-0.94 468.23,-0.94 474.23,-6.94 474.23,-12.94 474.23,-12.94 474.23,-24.94 474.23,-24.94 474.23,-30.94 468.23,-36.94 462.23,-36.94 462.23,-36.94 404.23,-36.94 404.23,-36.94 398.23,-36.94 392.23,-30.94 392.23,-24.94 392.23,-24.94 392.23,-12.94 392.23,-12.94 392.23,-6.94 398.23,-0.94 404.23,-0.94"/>
<text text-anchor="middle" x="433.23" y="-15.24" font-family="Arial" font-size="14.00">lcMatching</text>
</g>
<!-- lcInteractionBase&#45;&gt;lcMatching -->
<g id="edge8" class="edge">
<title>lcInteractionBase&#45;&gt;lcMatching</title>
<path fill="none" stroke="#1f78b4" d="M490.59,-242.08C479.83,-200.24 453.22,-96.7 440.38,-46.76"/>
<polygon fill="#a6cee3" stroke="#1f78b4" points="443.74,-45.77 437.86,-36.96 436.96,-47.51 443.74,-45.77"/>
</g>
<!-- lcHotspot -->
<g id="node10" class="node">
<title>lcHotspot</title>
<path fill="#1afabc" stroke="black" d="M510.62,-2.02C510.62,-2.02 559.62,-2.02 559.62,-2.02 565.62,-2.02 571.62,-8.02 571.62,-14.02 571.62,-14.02 571.62,-26.02 571.62,-26.02 571.62,-32.02 565.62,-38.02 559.62,-38.02 559.62,-38.02 510.62,-38.02 510.62,-38.02 504.62,-38.02 498.62,-32.02 498.62,-26.02 498.62,-26.02 498.62,-14.02 498.62,-14.02 498.62,-8.02 504.62,-2.02 510.62,-2.02"/>
<text text-anchor="middle" x="535.12" y="-16.32" font-family="Arial" font-size="14.00">lcHotspot</text>
</g>
<!-- lcInteractionBase&#45;&gt;lcHotspot -->
<g id="edge9" class="edge">
<title>lcInteractionBase&#45;&gt;lcHotspot</title>
<path fill="none" stroke="#1f78b4" d="M498.25,-242.16C505.13,-200.69 522.12,-98.36 530.41,-48.4"/>
<polygon fill="#a6cee3" stroke="#1f78b4" points="533.9,-48.73 532.09,-38.29 527,-47.58 533.9,-48.73"/>
</g>
<!-- lcOpenQuestion -->
<g id="node11" class="node">
<title>lcOpenQuestion</title>
<path fill="#1afabc" stroke="black" d="M627.47,-89.06C627.47,-89.06 718.47,-89.06 718.47,-89.06 724.47,-89.06 730.47,-95.06 730.47,-101.06 730.47,-101.06 730.47,-113.06 730.47,-113.06 730.47,-119.06 724.47,-125.06 718.47,-125.06 718.47,-125.06 627.47,-125.06 627.47,-125.06 621.47,-125.06 615.47,-119.06 615.47,-113.06 615.47,-113.06 615.47,-101.06 615.47,-101.06 615.47,-95.06 621.47,-89.06 627.47,-89.06"/>
<text text-anchor="middle" x="672.97" y="-103.36" font-family="Arial" font-size="14.00">lcOpenQuestion</text>
</g>
<!-- lcInteractionBase&#45;&gt;lcOpenQuestion -->
<g id="edge10" class="edge">
<title>lcInteractionBase&#45;&gt;lcOpenQuestion</title>
<path fill="none" stroke="#1f78b4" d="M516.33,-242.05C548.13,-214.64 608.44,-162.67 644.23,-131.82"/>
<polygon fill="#a6cee3" stroke="#1f78b4" points="646.62,-134.39 651.91,-125.21 642.05,-129.08 646.62,-134.39"/>
</g>
<!-- lcQuestion -->
<g id="node13" class="node">
<title>lcQuestion</title>
<path fill="#1afabc" stroke="black" d="M235.16,-1032.26C235.16,-1032.26 292.16,-1032.26 292.16,-1032.26 298.16,-1032.26 304.16,-1038.26 304.16,-1044.26 304.16,-1044.26 304.16,-1056.26 304.16,-1056.26 304.16,-1062.26 298.16,-1068.26 292.16,-1068.26 292.16,-1068.26 235.16,-1068.26 235.16,-1068.26 229.16,-1068.26 223.16,-1062.26 223.16,-1056.26 223.16,-1056.26 223.16,-1044.26 223.16,-1044.26 223.16,-1038.26 229.16,-1032.26 235.16,-1032.26"/>
<text text-anchor="middle" x="263.66" y="-1046.56" font-family="Arial" font-size="14.00">lcQuestion</text>
</g>
<!-- lcQuestionBase&#45;&gt;lcQuestion -->
<g id="edge12" class="edge">
<title>lcQuestionBase&#45;&gt;lcQuestion</title>
<path fill="none" stroke="#1f78b4" d="M375.73,-897.68C353.46,-928 308.81,-988.79 283.1,-1023.8"/>
<polygon fill="#a6cee3" stroke="#1f78b4" points="280.09,-1021.98 276.99,-1032.11 285.73,-1026.12 280.09,-1021.98"/>
</g>
<!-- lcOpenAnswer -->
<g id="node15" class="node">
<title>lcOpenAnswer</title>
<path fill="#1afabc" stroke="black" d="M498.28,-1186.57C498.28,-1186.57 579.28,-1186.57 579.28,-1186.57 585.28,-1186.57 591.28,-1192.57 591.28,-1198.57 591.28,-1198.57 591.28,-1210.57 591.28,-1210.57 591.28,-1216.57 585.28,-1222.57 579.28,-1222.57 579.28,-1222.57 498.28,-1222.57 498.28,-1222.57 492.28,-1222.57 486.28,-1216.57 486.28,-1210.57 486.28,-1210.57 486.28,-1198.57 486.28,-1198.57 486.28,-1192.57 492.28,-1186.57 498.28,-1186.57"/>
<text text-anchor="middle" x="538.78" y="-1200.87" font-family="Arial" font-size="14.00">lcOpenAnswer</text>
</g>
<!-- p&#45;&gt;lcOpenAnswer -->
<g id="edge14" class="edge">
<title>p&#45;&gt;lcOpenAnswer</title>
<path fill="none" stroke="#1f78b4" d="M531.42,-988.75C532.8,-1029.45 536.15,-1127.44 537.81,-1176.12"/>
<polygon fill="#a6cee3" stroke="#1f78b4" points="534.32,-1176.4 538.16,-1186.28 541.31,-1176.16 534.32,-1176.4"/>
</g>
<!-- lcAsset -->
<g id="node16" class="node">
<title>lcAsset</title>
<path fill="#1afabc" stroke="black" d="M540.56,-1115.94C540.56,-1115.94 576.56,-1115.94 576.56,-1115.94 582.56,-1115.94 588.56,-1121.94 588.56,-1127.94 588.56,-1127.94 588.56,-1139.94 588.56,-1139.94 588.56,-1145.94 582.56,-1151.94 576.56,-1151.94 576.56,-1151.94 540.56,-1151.94 540.56,-1151.94 534.56,-1151.94 528.56,-1145.94 528.56,-1139.94 528.56,-1139.94 528.56,-1127.94 528.56,-1127.94 528.56,-1121.94 534.56,-1115.94 540.56,-1115.94"/>
<text text-anchor="middle" x="558.56" y="-1130.24" font-family="Arial" font-size="14.00">lcAsset</text>
</g>
<!-- p&#45;&gt;lcAsset -->
<g id="edge15" class="edge">
<title>p&#45;&gt;lcAsset</title>
<path fill="none" stroke="#1f78b4" d="M533.87,-988.51C538.68,-1016.88 548.04,-1071.99 553.76,-1105.63"/>
<polygon fill="#a6cee3" stroke="#1f78b4" points="550.35,-1106.46 555.47,-1115.73 557.25,-1105.28 550.35,-1106.46"/>
</g>
<!-- lcFeedback -->
<g id="node17" class="node">
<title>lcFeedback</title>
<path fill="#1afabc" stroke="black" d="M437.77,-1131.61C437.77,-1131.61 499.77,-1131.61 499.77,-1131.61 505.77,-1131.61 511.77,-1137.61 511.77,-1143.61 511.77,-1143.61 511.77,-1155.61 511.77,-1155.61 511.77,-1161.61 505.77,-1167.61 499.77,-1167.61 499.77,-1167.61 437.77,-1167.61 437.77,-1167.61 431.77,-1167.61 425.77,-1161.61 425.77,-1155.61 425.77,-1155.61 425.77,-1143.61 425.77,-1143.61 425.77,-1137.61 431.77,-1131.61 437.77,-1131.61"/>
<text text-anchor="middle" x="468.77" y="-1145.91" font-family="Arial" font-size="14.00">lcFeedback</text>
</g>
<!-- p&#45;&gt;lcFeedback -->
<g id="edge16" class="edge">
<title>p&#45;&gt;lcFeedback</title>
<path fill="none" stroke="#1f78b4" d="M524.5,-988.55C513.64,-1019.95 491.28,-1084.55 478.43,-1121.69"/>
<polygon fill="#a6cee3" stroke="#1f78b4" points="475.04,-1120.79 475.07,-1131.39 481.65,-1123.08 475.04,-1120.79"/>
</g>
<!-- lcFeedbackCorrect -->
<g id="node18" class="node">
<title>lcFeedbackCorrect</title>
<path fill="#1afabc" stroke="black" d="M625.21,-1146.03C625.21,-1146.03 731.21,-1146.03 731.21,-1146.03 737.21,-1146.03 743.21,-1152.03 743.21,-1158.03 743.21,-1158.03 743.21,-1170.03 743.21,-1170.03 743.21,-1176.03 737.21,-1182.03 731.21,-1182.03 731.21,-1182.03 625.21,-1182.03 625.21,-1182.03 619.21,-1182.03 613.21,-1176.03 613.21,-1170.03 613.21,-1170.03 613.21,-1158.03 613.21,-1158.03 613.21,-1152.03 619.21,-1146.03 625.21,-1146.03"/>
<text text-anchor="middle" x="678.21" y="-1160.33" font-family="Arial" font-size="14.00">lcFeedbackCorrect</text>
</g>
<!-- p&#45;&gt;lcFeedbackCorrect -->
<g id="edge17" class="edge">
<title>p&#45;&gt;lcFeedbackCorrect</title>
<path fill="none" stroke="#1f78b4" d="M544.66,-988.6C570.9,-1023.07 627.91,-1097.95 658.26,-1137.82"/>
<polygon fill="#a6cee3" stroke="#1f78b4" points="655.65,-1140.16 664.49,-1146 661.22,-1135.92 655.65,-1140.16"/>
</g>
<!-- lcFeedbackIncorrect -->
<g id="node19" class="node">
<title>lcFeedbackIncorrect</title>
<path fill="#1afabc" stroke="black" d="M631.53,-1100.04C631.53,-1100.04 745.53,-1100.04 745.53,-1100.04 751.53,-1100.04 757.53,-1106.04 757.53,-1112.04 757.53,-1112.04 757.53,-1124.04 757.53,-1124.04 757.53,-1130.04 751.53,-1136.04 745.53,-1136.04 745.53,-1136.04 631.53,-1136.04 631.53,-1136.04 625.53,-1136.04 619.53,-1130.04 619.53,-1124.04 619.53,-1124.04 619.53,-1112.04 619.53,-1112.04 619.53,-1106.04 625.53,-1100.04 631.53,-1100.04"/>
<text text-anchor="middle" x="688.53" y="-1114.34" font-family="Arial" font-size="14.00">lcFeedbackIncorrect</text>
</g>
<!-- p&#45;&gt;lcFeedbackIncorrect -->
<g id="edge18" class="edge">
<title>p&#45;&gt;lcFeedbackIncorrect</title>
<path fill="none" stroke="#1f78b4" d="M550.13,-988.48C578.04,-1014.61 629.73,-1062.99 661.43,-1092.67"/>
<polygon fill="#a6cee3" stroke="#1f78b4" points="659.34,-1095.51 669.03,-1099.79 664.13,-1090.4 659.34,-1095.51"/>
</g>
<!-- lcAnswerContent -->
<g id="node20" class="node">
<title>lcAnswerContent</title>
<path fill="#1afabc" stroke="black" d="M313.98,-1085.75C313.98,-1085.75 408.98,-1085.75 408.98,-1085.75 414.98,-1085.75 420.98,-1091.75 420.98,-1097.75 420.98,-1097.75 420.98,-1109.75 420.98,-1109.75 420.98,-1115.75 414.98,-1121.75 408.98,-1121.75 408.98,-1121.75 313.98,-1121.75 313.98,-1121.75 307.98,-1121.75 301.98,-1115.75 301.98,-1109.75 301.98,-1109.75 301.98,-1097.75 301.98,-1097.75 301.98,-1091.75 307.98,-1085.75 313.98,-1085.75"/>
<text text-anchor="middle" x="361.48" y="-1100.05" font-family="Arial" font-size="14.00">lcAnswerContent</text>
</g>
<!-- p&#45;&gt;lcAnswerContent -->
<g id="edge19" class="edge">
<title>p&#45;&gt;lcAnswerContent</title>
<path fill="none" stroke="#1f78b4" d="M507.6,-988.64C477.71,-1012.19 425.64,-1053.21 392.41,-1079.39"/>
<polygon fill="#a6cee3" stroke="#1f78b4" points="390.08,-1076.77 384.39,-1085.71 394.41,-1082.27 390.08,-1076.77"/>
</g>
<!-- lcAnswerOptionGroup -->
<g id="node22" class="node">
<title>lcAnswerOptionGroup</title>
<path fill="#1afabc" stroke="black" d="M55.21,-442.56C55.21,-442.56 181.21,-442.56 181.21,-442.56 187.21,-442.56 193.21,-448.56 193.21,-454.56 193.21,-454.56 193.21,-466.56 193.21,-466.56 193.21,-472.56 187.21,-478.56 181.21,-478.56 181.21,-478.56 55.21,-478.56 55.21,-478.56 49.21,-478.56 43.21,-472.56 43.21,-466.56 43.21,-466.56 43.21,-454.56 43.21,-454.56 43.21,-448.56 49.21,-442.56 55.21,-442.56"/>
<text text-anchor="middle" x="118.21" y="-456.86" font-family="Arial" font-size="14.00">lcAnswerOptionGroup</text>
</g>
<!-- ul&#45;&gt;lcAnswerOptionGroup -->
<g id="edge21" class="edge">
<title>ul&#45;&gt;lcAnswerOptionGroup</title>
<path fill="none" stroke="#1f78b4" d="M288.66,-545.87C256.38,-529.71 201.93,-502.47 163.27,-483.12"/>
<polygon fill="#a6cee3" stroke="#1f78b4" points="164.8,-479.97 154.29,-478.62 161.67,-486.23 164.8,-479.97"/>
</g>
<!-- lcSequenceOptionGroup -->
<g id="node24" class="node">
<title>lcSequenceOptionGroup</title>
<path fill="#1afabc" stroke="black" d="M118.45,-945.46C118.45,-945.46 260.45,-945.46 260.45,-945.46 266.45,-945.46 272.45,-951.46 272.45,-957.46 272.45,-957.46 272.45,-969.46 272.45,-969.46 272.45,-975.46 266.45,-981.46 260.45,-981.46 260.45,-981.46 118.45,-981.46 118.45,-981.46 112.45,-981.46 106.45,-975.46 106.45,-969.46 106.45,-969.46 106.45,-957.46 106.45,-957.46 106.45,-951.46 112.45,-945.46 118.45,-945.46"/>
<text text-anchor="middle" x="189.45" y="-959.76" font-family="Arial" font-size="14.00">lcSequenceOptionGroup</text>
</g>
<!-- ol&#45;&gt;lcSequenceOptionGroup -->
<g id="edge23" class="edge">
<title>ol&#45;&gt;lcSequenceOptionGroup</title>
<path fill="none" stroke="#1f78b4" d="M342.98,-830.66C311.83,-857.6 253.38,-908.16 218.28,-938.52"/>
<polygon fill="#a6cee3" stroke="#1f78b4" points="215.58,-936.22 210.31,-945.41 220.16,-941.52 215.58,-936.22"/>
</g>
<!-- lcSequenceOption -->
<g id="node26" class="node">
<title>lcSequenceOption</title>
<path fill="#1afabc" stroke="black" d="M856.49,-430.61C856.49,-430.61 960.49,-430.61 960.49,-430.61 966.49,-430.61 972.49,-436.61 972.49,-442.61 972.49,-442.61 972.49,-454.61 972.49,-454.61 972.49,-460.61 966.49,-466.61 960.49,-466.61 960.49,-466.61 856.49,-466.61 856.49,-466.61 850.49,-466.61 844.49,-460.61 844.49,-454.61 844.49,-454.61 844.49,-442.61 844.49,-442.61 844.49,-436.61 850.49,-430.61 856.49,-430.61"/>
<text text-anchor="middle" x="908.49" y="-444.91" font-family="Arial" font-size="14.00">lcSequenceOption</text>
</g>
<!-- li&#45;&gt;lcSequenceOption -->
<g id="edge25" class="edge">
<title>li&#45;&gt;lcSequenceOption</title>
<path fill="none" stroke="#1f78b4" d="M727.56,-517.77C758.98,-505.76 811.52,-485.68 851.91,-470.24"/>
<polygon fill="#a6cee3" stroke="#1f78b4" points="853.28,-473.46 861.37,-466.62 850.78,-466.92 853.28,-473.46"/>
</g>
<!-- lcAnswerOption -->
<g id="node27" class="node">
<title>lcAnswerOption</title>
<path fill="#1afabc" stroke="black" d="M811.32,-371.31C811.32,-371.31 899.32,-371.31 899.32,-371.31 905.32,-371.31 911.32,-377.31 911.32,-383.31 911.32,-383.31 911.32,-395.31 911.32,-395.31 911.32,-401.31 905.32,-407.31 899.32,-407.31 899.32,-407.31 811.32,-407.31 811.32,-407.31 805.32,-407.31 799.32,-401.31 799.32,-395.31 799.32,-395.31 799.32,-383.31 799.32,-383.31 799.32,-377.31 805.32,-371.31 811.32,-371.31"/>
<text text-anchor="middle" x="855.32" y="-385.61" font-family="Arial" font-size="14.00">lcAnswerOption</text>
</g>
<!-- li&#45;&gt;lcAnswerOption -->
<g id="edge26" class="edge">
<title>li&#45;&gt;lcAnswerOption</title>
<path fill="none" stroke="#1f78b4" d="M720.6,-510.02C747.87,-485.59 796.49,-442.02 827.26,-414.45"/>
<polygon fill="#a6cee3" stroke="#1f78b4" points="829.94,-416.75 835.05,-407.47 825.27,-411.53 829.94,-416.75"/>
</g>
<!-- lcMatchTable -->
<g id="node29" class="node">
<title>lcMatchTable</title>
<path fill="#1afabc" stroke="black" d="M706.46,-292.72C706.46,-292.72 778.46,-292.72 778.46,-292.72 784.46,-292.72 790.46,-298.72 790.46,-304.72 790.46,-304.72 790.46,-316.72 790.46,-316.72 790.46,-322.72 784.46,-328.72 778.46,-328.72 778.46,-328.72 706.46,-328.72 706.46,-328.72 700.46,-328.72 694.46,-322.72 694.46,-316.72 694.46,-316.72 694.46,-304.72 694.46,-304.72 694.46,-298.72 700.46,-292.72 706.46,-292.72"/>
<text text-anchor="middle" x="742.46" y="-307.02" font-family="Arial" font-size="14.00">lcMatchTable</text>
</g>
<!-- simpletable&#45;&gt;lcMatchTable -->
<g id="edge28" class="edge">
<title>simpletable&#45;&gt;lcMatchTable</title>
<path fill="none" stroke="#1f78b4" d="M628.26,-457.25C651.08,-427.97 695.94,-370.41 722.13,-336.81"/>
<polygon fill="#a6cee3" stroke="#1f78b4" points="724.97,-338.85 728.36,-328.81 719.45,-334.55 724.97,-338.85"/>
</g>
<!-- lcMatchingHeader -->
<g id="node31" class="node">
<title>lcMatchingHeader</title>
<path fill="#1afabc" stroke="black" d="M840.65,-745.82C840.65,-745.82 942.65,-745.82 942.65,-745.82 948.65,-745.82 954.65,-751.82 954.65,-757.82 954.65,-757.82 954.65,-769.82 954.65,-769.82 954.65,-775.82 948.65,-781.82 942.65,-781.82 942.65,-781.82 840.65,-781.82 840.65,-781.82 834.65,-781.82 828.65,-775.82 828.65,-769.82 828.65,-769.82 828.65,-757.82 828.65,-757.82 828.65,-751.82 834.65,-745.82 840.65,-745.82"/>
<text text-anchor="middle" x="891.65" y="-760.12" font-family="Arial" font-size="14.00">lcMatchingHeader</text>
</g>
<!-- sthead&#45;&gt;lcMatchingHeader -->
<g id="edge30" class="edge">
<title>sthead&#45;&gt;lcMatchingHeader</title>
<path fill="none" stroke="#1f78b4" d="M714.02,-719.43C740.94,-726.16 782.35,-736.51 818.42,-745.52"/>
<polygon fill="#a6cee3" stroke="#1f78b4" points="817.88,-748.99 828.43,-748.02 819.58,-742.2 817.88,-748.99"/>
</g>
<!-- lcMatchingPair -->
<g id="node33" class="node">
<title>lcMatchingPair</title>
<path fill="#1afabc" stroke="black" d="M300.94,-296.61C300.94,-296.61 382.94,-296.61 382.94,-296.61 388.94,-296.61 394.94,-302.61 394.94,-308.61 394.94,-308.61 394.94,-320.61 394.94,-320.61 394.94,-326.61 388.94,-332.61 382.94,-332.61 382.94,-332.61 300.94,-332.61 300.94,-332.61 294.94,-332.61 288.94,-326.61 288.94,-320.61 288.94,-320.61 288.94,-308.61 288.94,-308.61 288.94,-302.61 294.94,-296.61 300.94,-296.61"/>
<text text-anchor="middle" x="341.94" y="-310.91" font-family="Arial" font-size="14.00">lcMatchingPair</text>
</g>
<!-- strow&#45;&gt;lcMatchingPair -->
<g id="edge32" class="edge">
<title>strow&#45;&gt;lcMatchingPair</title>
<path fill="none" stroke="#1f78b4" d="M427.47,-446.23C410.53,-420.16 379.09,-371.79 359.41,-341.5"/>
<polygon fill="#a6cee3" stroke="#1f78b4" points="362.1,-339.21 353.71,-332.73 356.23,-343.02 362.1,-339.21"/>
</g>
<!-- lcItem -->
<g id="node35" class="node">
<title>lcItem</title>
<path fill="#1afabc" stroke="black" d="M767.77,-935.6C767.77,-935.6 797.77,-935.6 797.77,-935.6 803.77,-935.6 809.77,-941.6 809.77,-947.6 809.77,-947.6 809.77,-959.6 809.77,-959.6 809.77,-965.6 803.77,-971.6 797.77,-971.6 797.77,-971.6 767.77,-971.6 767.77,-971.6 761.77,-971.6 755.77,-965.6 755.77,-959.6 755.77,-959.6 755.77,-947.6 755.77,-947.6 755.77,-941.6 761.77,-935.6 767.77,-935.6"/>
<text text-anchor="middle" x="782.77" y="-949.9" font-family="Arial" font-size="14.00">lcItem</text>
</g>
<!-- stentry&#45;&gt;lcItem -->
<g id="edge34" class="edge">
<title>stentry&#45;&gt;lcItem</title>
<path fill="none" stroke="#1f78b4" d="M721.86,-829.22C733.85,-853.7 755.37,-897.65 769.36,-926.22"/>
<polygon fill="#a6cee3" stroke="#1f78b4" points="766.25,-927.82 773.79,-935.26 772.54,-924.74 766.25,-927.82"/>
</g>
<!-- lcMatchingItem -->
<g id="node36" class="node">
<title>lcMatchingItem</title>
<path fill="#1afabc" stroke="black" d="M840.66,-921.58C840.66,-921.58 925.66,-921.58 925.66,-921.58 931.66,-921.58 937.66,-927.58 937.66,-933.58 937.66,-933.58 937.66,-945.58 937.66,-945.58 937.66,-951.58 931.66,-957.58 925.66,-957.58 925.66,-957.58 840.66,-957.58 840.66,-957.58 834.66,-957.58 828.66,-951.58 828.66,-945.58 828.66,-945.58 828.66,-933.58 828.66,-933.58 828.66,-927.58 834.66,-921.58 840.66,-921.58"/>
<text text-anchor="middle" x="883.16" y="-935.88" font-family="Arial" font-size="14.00">lcMatchingItem</text>
</g>
<!-- stentry&#45;&gt;lcMatchingItem -->
<g id="edge35" class="edge">
<title>stentry&#45;&gt;lcMatchingItem</title>
<path fill="none" stroke="#1f78b4" d="M737.04,-829.3C766.93,-851.86 818.08,-890.46 851.25,-915.49"/>
<polygon fill="#a6cee3" stroke="#1f78b4" points="849.18,-918.31 859.27,-921.54 853.39,-912.73 849.18,-918.31"/>
</g>
<!-- lcMatchingItemFeedback -->
<g id="node37" class="node">
<title>lcMatchingItemFeedback</title>
<path fill="#1afabc" stroke="black" d="M880.35,-875.27C880.35,-875.27 1024.35,-875.27 1024.35,-875.27 1030.35,-875.27 1036.35,-881.27 1036.35,-887.27 1036.35,-887.27 1036.35,-899.27 1036.35,-899.27 1036.35,-905.27 1030.35,-911.27 1024.35,-911.27 1024.35,-911.27 880.35,-911.27 880.35,-911.27 874.35,-911.27 868.35,-905.27 868.35,-899.27 868.35,-899.27 868.35,-887.27 868.35,-887.27 868.35,-881.27 874.35,-875.27 880.35,-875.27"/>
<text text-anchor="middle" x="952.35" y="-889.57" font-family="Arial" font-size="14.00">lcMatchingItemFeedback</text>
</g>
<!-- stentry&#45;&gt;lcMatchingItemFeedback -->
<g id="edge36" class="edge">
<title>stentry&#45;&gt;lcMatchingItemFeedback</title>
<path fill="none" stroke="#1f78b4" d="M741.9,-821.08C778.42,-833.61 842.31,-855.53 890.14,-871.93"/>
<polygon fill="#a6cee3" stroke="#1f78b4" points="889.19,-875.31 899.78,-875.24 891.46,-868.69 889.19,-875.31"/>
</g>
<!-- lcHotspotMap -->
<g id="node39" class="node">
<title>lcHotspotMap</title>
<path fill="#1afabc" stroke="black" d="M11.6,-624.86C11.6,-624.86 87.6,-624.86 87.6,-624.86 93.6,-624.86 99.6,-630.86 99.6,-636.86 99.6,-636.86 99.6,-648.86 99.6,-648.86 99.6,-654.86 93.6,-660.86 87.6,-660.86 87.6,-660.86 11.6,-660.86 11.6,-660.86 5.6,-660.86 -0.4,-654.86 -0.4,-648.86 -0.4,-648.86 -0.4,-636.86 -0.4,-636.86 -0.4,-630.86 5.6,-624.86 11.6,-624.86"/>
<text text-anchor="middle" x="49.6" y="-639.16" font-family="Arial" font-size="14.00">lcHotspotMap</text>
</g>
<!-- figgroup&#45;&gt;lcHotspotMap -->
<g id="edge38" class="edge">
<title>figgroup&#45;&gt;lcHotspotMap</title>
<path fill="none" stroke="#1f78b4" d="M220.71,-629.67C190.87,-631.97 146.07,-635.42 109.79,-638.22"/>
<polygon fill="#a6cee3" stroke="#1f78b4" points="109.5,-634.73 99.8,-638.99 110.04,-641.71 109.5,-634.73"/>
</g>
<!-- lcArea -->
<g id="node40" class="node">
<title>lcArea</title>
<path fill="#1afabc" stroke="black" d="M76.03,-563.64C76.03,-563.64 107.03,-563.64 107.03,-563.64 113.03,-563.64 119.03,-569.64 119.03,-575.64 119.03,-575.64 119.03,-587.64 119.03,-587.64 119.03,-593.64 113.03,-599.64 107.03,-599.64 107.03,-599.64 76.03,-599.64 76.03,-599.64 70.03,-599.64 64.03,-593.64 64.03,-587.64 64.03,-587.64 64.03,-575.64 64.03,-575.64 64.03,-569.64 70.03,-563.64 76.03,-563.64"/>
<text text-anchor="middle" x="91.53" y="-577.94" font-family="Arial" font-size="14.00">lcArea</text>
</g>
<!-- figgroup&#45;&gt;lcArea -->
<g id="edge39" class="edge">
<title>figgroup&#45;&gt;lcArea</title>
<path fill="none" stroke="#1f78b4" d="M220.69,-617.93C194.11,-610.46 156.62,-599.93 128.88,-592.14"/>
<polygon fill="#a6cee3" stroke="#1f78b4" points="129.71,-588.73 119.14,-589.4 127.82,-595.47 129.71,-588.73"/>
</g>
<!-- lcAreaShape -->
<g id="node42" class="node">
<title>lcAreaShape</title>
<path fill="#1afabc" stroke="black" d="M68.82,-739.04C68.82,-739.04 138.82,-739.04 138.82,-739.04 144.82,-739.04 150.82,-745.04 150.82,-751.04 150.82,-751.04 150.82,-763.04 150.82,-763.04 150.82,-769.04 144.82,-775.04 138.82,-775.04 138.82,-775.04 68.82,-775.04 68.82,-775.04 62.82,-775.04 56.82,-769.04 56.82,-763.04 56.82,-763.04 56.82,-751.04 56.82,-751.04 56.82,-745.04 62.82,-739.04 68.82,-739.04"/>
<text text-anchor="middle" x="103.82" y="-753.34" font-family="Arial" font-size="14.00">lcAreaShape</text>
</g>
<!-- keyword&#45;&gt;lcAreaShape -->
<g id="edge41" class="edge">
<title>keyword&#45;&gt;lcAreaShape</title>
<path fill="none" stroke="#1f78b4" d="M257.71,-712.45C230.92,-720.22 192.75,-731.28 161.13,-740.44"/>
<polygon fill="#a6cee3" stroke="#1f78b4" points="159.74,-737.2 151.11,-743.34 161.69,-743.92 159.74,-737.2"/>
</g>
<!-- lcAreaCoords -->
<g id="node44" class="node">
<title>lcAreaCoords</title>
<path fill="#1afabc" stroke="black" d="M131.48,-833.94C131.48,-833.94 205.48,-833.94 205.48,-833.94 211.48,-833.94 217.48,-839.94 217.48,-845.94 217.48,-845.94 217.48,-857.94 217.48,-857.94 217.48,-863.94 211.48,-869.94 205.48,-869.94 205.48,-869.94 131.48,-869.94 131.48,-869.94 125.48,-869.94 119.48,-863.94 119.48,-857.94 119.48,-857.94 119.48,-845.94 119.48,-845.94 119.48,-839.94 125.48,-833.94 131.48,-833.94"/>
<text text-anchor="middle" x="168.48" y="-848.24" font-family="Arial" font-size="14.00">lcAreaCoords</text>
</g>
<!-- ph&#45;&gt;lcAreaCoords -->
<g id="edge43" class="edge">
<title>ph&#45;&gt;lcAreaCoords</title>
<path fill="none" stroke="#1f78b4" d="M302.16,-774.69C276.47,-789.54 237.7,-811.94 208.52,-828.8"/>
<polygon fill="#a6cee3" stroke="#1f78b4" points="206.7,-825.81 199.79,-833.85 210.2,-831.87 206.7,-825.81"/>
</g>
<!-- lcCorrectResponse -->
<g id="node46" class="node">
<title>lcCorrectResponse</title>
<path fill="#1afabc" stroke="black" d="M908.5,-626.7C908.5,-626.7 1015.5,-626.7 1015.5,-626.7 1021.5,-626.7 1027.5,-632.7 1027.5,-638.7 1027.5,-638.7 1027.5,-650.7 1027.5,-650.7 1027.5,-656.7 1021.5,-662.7 1015.5,-662.7 1015.5,-662.7 908.5,-662.7 908.5,-662.7 902.5,-662.7 896.5,-656.7 896.5,-650.7 896.5,-650.7 896.5,-638.7 896.5,-638.7 896.5,-632.7 902.5,-626.7 908.5,-626.7"/>
<text text-anchor="middle" x="962" y="-641" font-family="Arial" font-size="14.00">lcCorrectResponse</text>
</g>
<!-- data&#45;&gt;lcCorrectResponse -->
<g id="edge45" class="edge">
<title>data&#45;&gt;lcCorrectResponse</title>
<path fill="none" stroke="#1f78b4" d="M762.15,-631.77C792.75,-633.75 843.59,-637.04 886.34,-639.8"/>
<polygon fill="#a6cee3" stroke="#1f78b4" points="886.24,-643.3 896.45,-640.46 886.69,-636.32 886.24,-643.3"/>
</g>
<!-- lcSequence -->
<g id="node47" class="node">
<title>lcSequence</title>
<path fill="#1afabc" stroke="black" d="M887.44,-561.93C887.44,-561.93 950.44,-561.93 950.44,-561.93 956.44,-561.93 962.44,-567.93 962.44,-573.93 962.44,-573.93 962.44,-585.93 962.44,-585.93 962.44,-591.93 956.44,-597.93 950.44,-597.93 950.44,-597.93 887.44,-597.93 887.44,-597.93 881.44,-597.93 875.44,-591.93 875.44,-585.93 875.44,-585.93 875.44,-573.93 875.44,-573.93 875.44,-567.93 881.44,-561.93 887.44,-561.93"/>
<text text-anchor="middle" x="918.94" y="-576.23" font-family="Arial" font-size="14.00">lcSequence</text>
</g>
<!-- data&#45;&gt;lcSequence -->
<g id="edge46" class="edge">
<title>data&#45;&gt;lcSequence</title>
<path fill="none" stroke="#1f78b4" d="M761.92,-622.61C789.06,-615.23 831.51,-603.69 865.44,-594.47"/>
<polygon fill="#a6cee3" stroke="#1f78b4" points="866.48,-597.81 875.21,-591.81 864.64,-591.06 866.48,-597.81"/>
</g>
</g>
</svg>
