<?xml version="1.0" encoding="UTF-8" standalone="no"?>
<!DOCTYPE svg PUBLIC "-//W3C//DTD SVG 1.1//EN"
 "http://www.w3.org/Graphics/SVG/1.1/DTD/svg11.dtd">
<!-- Generated by graphviz version 6.0.1 (20220911.1526)
 -->
<!-- Pages: 1 -->
<svg width="1094pt" height="1201pt"
 viewBox="0.00 0.00 1094.00 1201.00" xmlns="http://www.w3.org/2000/svg" xmlns:xlink="http://www.w3.org/1999/xlink">
<g id="graph0" class="graph" transform="scale(1 1) rotate(0) translate(4 1197)">
<polygon fill="white" stroke="none" points="-4,4 -4,-1197 1090,-1197 1090,4 -4,4"/>
<!-- learning2&#45;d -->
<g id="node1" class="node">
<title>learning2&#45;d</title>
<path fill="#dddddd" stroke="black" d="M477.15,-626.85C477.15,-626.85 537.15,-626.85 537.15,-626.85 543.15,-626.85 549.15,-632.85 549.15,-638.85 549.15,-638.85 549.15,-650.85 549.15,-650.85 549.15,-656.85 543.15,-662.85 537.15,-662.85 537.15,-662.85 477.15,-662.85 477.15,-662.85 471.15,-662.85 465.15,-656.85 465.15,-650.85 465.15,-650.85 465.15,-638.85 465.15,-638.85 465.15,-632.85 471.15,-626.85 477.15,-626.85"/>
<text text-anchor="middle" x="507.15" y="-641.15" font-family="Arial" font-size="14.00">learning2&#45;d</text>
</g>
<!-- note -->
<g id="node2" class="node">
<title>note</title>
<path fill="#afa7f4" stroke="black" d="M314.05,-507.62C314.05,-507.62 344.05,-507.62 344.05,-507.62 350.05,-507.62 356.05,-513.62 356.05,-519.62 356.05,-519.62 356.05,-531.62 356.05,-531.62 356.05,-537.62 350.05,-543.62 344.05,-543.62 344.05,-543.62 314.05,-543.62 314.05,-543.62 308.05,-543.62 302.05,-537.62 302.05,-531.62 302.05,-531.62 302.05,-519.62 302.05,-519.62 302.05,-513.62 308.05,-507.62 314.05,-507.62"/>
<text text-anchor="middle" x="329.05" y="-521.92" font-family="Arial" font-size="14.00">note</text>
</g>
<!-- learning2&#45;d&#45;&gt;note -->
<g id="edge1" class="edge">
<title>learning2&#45;d&#45;&gt;note</title>
<path fill="none" stroke="#1f78b4" d="M480.1,-626.74C449.28,-606.11 398.8,-572.31 364.77,-549.53"/>
<polygon fill="#a6cee3" stroke="#1f78b4" points="366.32,-546.36 356.06,-543.7 362.43,-552.17 366.32,-546.36"/>
</g>
<!-- lcInteractionBase2 -->
<g id="node4" class="node">
<title>lcInteractionBase2</title>
<path fill="#afa7f4" stroke="black" d="M400.33,-247.91C400.33,-247.91 504.33,-247.91 504.33,-247.91 510.33,-247.91 516.33,-253.91 516.33,-259.91 516.33,-259.91 516.33,-271.91 516.33,-271.91 516.33,-277.91 510.33,-283.91 504.33,-283.91 504.33,-283.91 400.33,-283.91 400.33,-283.91 394.33,-283.91 388.33,-277.91 388.33,-271.91 388.33,-271.91 388.33,-259.91 388.33,-259.91 388.33,-253.91 394.33,-247.91 400.33,-247.91"/>
<text text-anchor="middle" x="452.33" y="-262.21" font-family="Arial" font-size="14.00">lcInteractionBase2</text>
</g>
<!-- learning2&#45;d&#45;&gt;lcInteractionBase2 -->
<g id="edge3" class="edge">
<title>learning2&#45;d&#45;&gt;lcInteractionBase2</title>
<path fill="none" stroke="#1f78b4" d="M504.54,-626.83C495.74,-565.98 467.08,-367.87 456.4,-294.01"/>
<polygon fill="#a6cee3" stroke="#1f78b4" points="459.85,-293.44 454.96,-284.05 452.92,-294.44 459.85,-293.44"/>
</g>
<!-- lcQuestionBase2 -->
<g id="node12" class="node">
<title>lcQuestionBase2</title>
<path fill="#afa7f4" stroke="black" d="M401.97,-877.79C401.97,-877.79 496.97,-877.79 496.97,-877.79 502.97,-877.79 508.97,-883.79 508.97,-889.79 508.97,-889.79 508.97,-901.79 508.97,-901.79 508.97,-907.79 502.97,-913.79 496.97,-913.79 496.97,-913.79 401.97,-913.79 401.97,-913.79 395.97,-913.79 389.97,-907.79 389.97,-901.79 389.97,-901.79 389.97,-889.79 389.97,-889.79 389.97,-883.79 395.97,-877.79 401.97,-877.79"/>
<text text-anchor="middle" x="449.47" y="-892.09" font-family="Arial" font-size="14.00">lcQuestionBase2</text>
</g>
<!-- learning2&#45;d&#45;&gt;lcQuestionBase2 -->
<g id="edge11" class="edge">
<title>learning2&#45;d&#45;&gt;lcQuestionBase2</title>
<path fill="none" stroke="#1f78b4" d="M503,-662.9C493.07,-706.11 467.86,-815.77 455.93,-867.7"/>
<polygon fill="#a6cee3" stroke="#1f78b4" points="452.49,-867.04 453.66,-877.57 459.31,-868.61 452.49,-867.04"/>
</g>
<!-- div -->
<g id="node14" class="node">
<title>div</title>
<path fill="#afa7f4" stroke="black" d="M606.88,-938.08C606.88,-938.08 636.88,-938.08 636.88,-938.08 642.88,-938.08 648.88,-944.08 648.88,-950.08 648.88,-950.08 648.88,-962.08 648.88,-962.08 648.88,-968.08 642.88,-974.08 636.88,-974.08 636.88,-974.08 606.88,-974.08 606.88,-974.08 600.88,-974.08 594.88,-968.08 594.88,-962.08 594.88,-962.08 594.88,-950.08 594.88,-950.08 594.88,-944.08 600.88,-938.08 606.88,-938.08"/>
<text text-anchor="middle" x="621.88" y="-952.38" font-family="Arial" font-size="14.00">div</text>
</g>
<!-- learning2&#45;d&#45;&gt;div -->
<g id="edge13" class="edge">
<title>learning2&#45;d&#45;&gt;div</title>
<path fill="none" stroke="#1f78b4" d="M513.81,-662.93C533.02,-715.03 588.59,-865.78 611.66,-928.35"/>
<polygon fill="#a6cee3" stroke="#1f78b4" points="608.45,-929.78 615.2,-937.95 615.02,-927.35 608.45,-929.78"/>
</g>
<!-- ul -->
<g id="node21" class="node">
<title>ul</title>
<path fill="#afa7f4" stroke="black" d="M282.89,-574.58C282.89,-574.58 312.89,-574.58 312.89,-574.58 318.89,-574.58 324.89,-580.58 324.89,-586.58 324.89,-586.58 324.89,-598.58 324.89,-598.58 324.89,-604.58 318.89,-610.58 312.89,-610.58 312.89,-610.58 282.89,-610.58 282.89,-610.58 276.89,-610.58 270.89,-604.58 270.89,-598.58 270.89,-598.58 270.89,-586.58 270.89,-586.58 270.89,-580.58 276.89,-574.58 282.89,-574.58"/>
<text text-anchor="middle" x="297.89" y="-588.88" font-family="Arial" font-size="14.00">ul</text>
</g>
<!-- learning2&#45;d&#45;&gt;ul -->
<g id="edge20" class="edge">
<title>learning2&#45;d&#45;&gt;ul</title>
<path fill="none" stroke="#1f78b4" d="M465.05,-634.33C426.87,-624.8 371.14,-610.87 334.7,-601.77"/>
<polygon fill="#a6cee3" stroke="#1f78b4" points="335.51,-598.37 324.96,-599.34 333.81,-605.16 335.51,-598.37"/>
</g>
<!-- ol -->
<g id="node23" class="node">
<title>ol</title>
<path fill="#afa7f4" stroke="black" d="M396.08,-812.35C396.08,-812.35 426.08,-812.35 426.08,-812.35 432.08,-812.35 438.08,-818.35 438.08,-824.35 438.08,-824.35 438.08,-836.35 438.08,-836.35 438.08,-842.35 432.08,-848.35 426.08,-848.35 426.08,-848.35 396.08,-848.35 396.08,-848.35 390.08,-848.35 384.08,-842.35 384.08,-836.35 384.08,-836.35 384.08,-824.35 384.08,-824.35 384.08,-818.35 390.08,-812.35 396.08,-812.35"/>
<text text-anchor="middle" x="411.08" y="-826.65" font-family="Arial" font-size="14.00">ol</text>
</g>
<!-- learning2&#45;d&#45;&gt;ol -->
<g id="edge22" class="edge">
<title>learning2&#45;d&#45;&gt;ol</title>
<path fill="none" stroke="#1f78b4" d="M497.76,-662.97C480.83,-695.67 445.09,-764.67 425.2,-803.09"/>
<polygon fill="#a6cee3" stroke="#1f78b4" points="421.99,-801.66 420.5,-812.15 428.21,-804.88 421.99,-801.66"/>
</g>
<!-- li -->
<g id="node25" class="node">
<title>li</title>
<path fill="#afa7f4" stroke="black" d="M663.27,-471.18C663.27,-471.18 693.27,-471.18 693.27,-471.18 699.27,-471.18 705.27,-477.18 705.27,-483.18 705.27,-483.18 705.27,-495.18 705.27,-495.18 705.27,-501.18 699.27,-507.18 693.27,-507.18 693.27,-507.18 663.27,-507.18 663.27,-507.18 657.27,-507.18 651.27,-501.18 651.27,-495.18 651.27,-495.18 651.27,-483.18 651.27,-483.18 651.27,-477.18 657.27,-471.18 663.27,-471.18"/>
<text text-anchor="middle" x="678.27" y="-485.48" font-family="Arial" font-size="14.00">li</text>
</g>
<!-- learning2&#45;d&#45;&gt;li -->
<g id="edge24" class="edge">
<title>learning2&#45;d&#45;&gt;li</title>
<path fill="none" stroke="#1f78b4" d="M527.11,-626.69C557.77,-598.8 616.5,-545.37 651.03,-513.96"/>
<polygon fill="#a6cee3" stroke="#1f78b4" points="653.39,-516.55 658.43,-507.23 648.68,-511.37 653.39,-516.55"/>
</g>
<!-- simpletable -->
<g id="node28" class="node">
<title>simpletable</title>
<path fill="#afa7f4" stroke="black" d="M552.61,-429.2C552.61,-429.2 614.61,-429.2 614.61,-429.2 620.61,-429.2 626.61,-435.2 626.61,-441.2 626.61,-441.2 626.61,-453.2 626.61,-453.2 626.61,-459.2 620.61,-465.2 614.61,-465.2 614.61,-465.2 552.61,-465.2 552.61,-465.2 546.61,-465.2 540.61,-459.2 540.61,-453.2 540.61,-453.2 540.61,-441.2 540.61,-441.2 540.61,-435.2 546.61,-429.2 552.61,-429.2"/>
<text text-anchor="middle" x="583.61" y="-443.5" font-family="Arial" font-size="14.00">simpletable</text>
</g>
<!-- learning2&#45;d&#45;&gt;simpletable -->
<g id="edge27" class="edge">
<title>learning2&#45;d&#45;&gt;simpletable</title>
<path fill="none" stroke="#1f78b4" d="M514.21,-626.61C527.66,-591.82 557.07,-515.82 572.94,-474.79"/>
<polygon fill="#a6cee3" stroke="#1f78b4" points="576.23,-475.98 576.57,-465.39 569.7,-473.46 576.23,-475.98"/>
</g>
<!-- sthead -->
<g id="node30" class="node">
<title>sthead</title>
<path fill="#afa7f4" stroke="black" d="M675.26,-652.76C675.26,-652.76 708.26,-652.76 708.26,-652.76 714.26,-652.76 720.26,-658.76 720.26,-664.76 720.26,-664.76 720.26,-676.76 720.26,-676.76 720.26,-682.76 714.26,-688.76 708.26,-688.76 708.26,-688.76 675.26,-688.76 675.26,-688.76 669.26,-688.76 663.26,-682.76 663.26,-676.76 663.26,-676.76 663.26,-664.76 663.26,-664.76 663.26,-658.76 669.26,-652.76 675.26,-652.76"/>
<text text-anchor="middle" x="691.76" y="-667.06" font-family="Arial" font-size="14.00">sthead</text>
</g>
<!-- learning2&#45;d&#45;&gt;sthead -->
<g id="edge29" class="edge">
<title>learning2&#45;d&#45;&gt;sthead</title>
<path fill="none" stroke="#1f78b4" d="M549.5,-650.79C580.64,-655.16 622.63,-661.06 652.92,-665.31"/>
<polygon fill="#a6cee3" stroke="#1f78b4" points="652.71,-668.81 663.1,-666.74 653.68,-661.88 652.71,-668.81"/>
</g>
<!-- strow -->
<g id="node32" class="node">
<title>strow</title>
<path fill="#afa7f4" stroke="black" d="M381.29,-457.35C381.29,-457.35 411.29,-457.35 411.29,-457.35 417.29,-457.35 423.29,-463.35 423.29,-469.35 423.29,-469.35 423.29,-481.35 423.29,-481.35 423.29,-487.35 417.29,-493.35 411.29,-493.35 411.29,-493.35 381.29,-493.35 381.29,-493.35 375.29,-493.35 369.29,-487.35 369.29,-481.35 369.29,-481.35 369.29,-469.35 369.29,-469.35 369.29,-463.35 375.29,-457.35 381.29,-457.35"/>
<text text-anchor="middle" x="396.29" y="-471.65" font-family="Arial" font-size="14.00">strow</text>
</g>
<!-- learning2&#45;d&#45;&gt;strow -->
<g id="edge31" class="edge">
<title>learning2&#45;d&#45;&gt;strow</title>
<path fill="none" stroke="#1f78b4" d="M495.28,-626.71C475.7,-596.76 436.51,-536.84 413.75,-502.04"/>
<polygon fill="#a6cee3" stroke="#1f78b4" points="416.47,-499.81 408.07,-493.36 410.61,-503.64 416.47,-499.81"/>
</g>
<!-- stentry -->
<g id="node34" class="node">
<title>stentry</title>
<path fill="#afa7f4" stroke="black" d="M735.08,-742.31C735.08,-742.31 768.08,-742.31 768.08,-742.31 774.08,-742.31 780.08,-748.31 780.08,-754.31 780.08,-754.31 780.08,-766.31 780.08,-766.31 780.08,-772.31 774.08,-778.31 768.08,-778.31 768.08,-778.31 735.08,-778.31 735.08,-778.31 729.08,-778.31 723.08,-772.31 723.08,-766.31 723.08,-766.31 723.08,-754.31 723.08,-754.31 723.08,-748.31 729.08,-742.31 735.08,-742.31"/>
<text text-anchor="middle" x="751.58" y="-756.61" font-family="Arial" font-size="14.00">stentry</text>
</g>
<!-- learning2&#45;d&#45;&gt;stentry -->
<g id="edge33" class="edge">
<title>learning2&#45;d&#45;&gt;stentry</title>
<path fill="none" stroke="#1f78b4" d="M545.34,-662.89C591.22,-684.56 667.72,-720.69 713.53,-742.34"/>
<polygon fill="#a6cee3" stroke="#1f78b4" points="712.28,-745.62 722.82,-746.72 715.27,-739.29 712.28,-745.62"/>
</g>
<!-- figgroup -->
<g id="node38" class="node">
<title>figgroup</title>
<path fill="#afa7f4" stroke="black" d="M229.64,-652.53C229.64,-652.53 270.64,-652.53 270.64,-652.53 276.64,-652.53 282.64,-658.53 282.64,-664.53 282.64,-664.53 282.64,-676.53 282.64,-676.53 282.64,-682.53 276.64,-688.53 270.64,-688.53 270.64,-688.53 229.64,-688.53 229.64,-688.53 223.64,-688.53 217.64,-682.53 217.64,-676.53 217.64,-676.53 217.64,-664.53 217.64,-664.53 217.64,-658.53 223.64,-652.53 229.64,-652.53"/>
<text text-anchor="middle" x="250.14" y="-666.83" font-family="Arial" font-size="14.00">figgroup</text>
</g>
<!-- learning2&#45;d&#45;&gt;figgroup -->
<g id="edge37" class="edge">
<title>learning2&#45;d&#45;&gt;figgroup</title>
<path fill="none" stroke="#1f78b4" d="M465,-649.06C417.5,-653.81 340.71,-661.48 292.95,-666.25"/>
<polygon fill="#a6cee3" stroke="#1f78b4" points="292.53,-662.78 282.93,-667.26 293.23,-669.74 292.53,-662.78"/>
</g>
<!-- keyword -->
<g id="node41" class="node">
<title>keyword</title>
<path fill="#afa7f4" stroke="black" d="M274.16,-729.73C274.16,-729.73 317.16,-729.73 317.16,-729.73 323.16,-729.73 329.16,-735.73 329.16,-741.73 329.16,-741.73 329.16,-753.73 329.16,-753.73 329.16,-759.73 323.16,-765.73 317.16,-765.73 317.16,-765.73 274.16,-765.73 274.16,-765.73 268.16,-765.73 262.16,-759.73 262.16,-753.73 262.16,-753.73 262.16,-741.73 262.16,-741.73 262.16,-735.73 268.16,-729.73 274.16,-729.73"/>
<text text-anchor="middle" x="295.66" y="-744.03" font-family="Arial" font-size="14.00">keyword</text>
</g>
<!-- learning2&#45;d&#45;&gt;keyword -->
<g id="edge40" class="edge">
<title>learning2&#45;d&#45;&gt;keyword</title>
<path fill="none" stroke="#1f78b4" d="M469.83,-663C433.2,-680.82 377.39,-707.97 338.87,-726.71"/>
<polygon fill="#a6cee3" stroke="#1f78b4" points="336.93,-723.76 329.47,-731.28 339.99,-730.06 336.93,-723.76"/>
</g>
<!-- ph -->
<g id="node43" class="node">
<title>ph</title>
<path fill="#afa7f4" stroke="black" d="M330.65,-781.6C330.65,-781.6 360.65,-781.6 360.65,-781.6 366.65,-781.6 372.65,-787.6 372.65,-793.6 372.65,-793.6 372.65,-805.6 372.65,-805.6 372.65,-811.6 366.65,-817.6 360.65,-817.6 360.65,-817.6 330.65,-817.6 330.65,-817.6 324.65,-817.6 318.65,-811.6 318.65,-805.6 318.65,-805.6 318.65,-793.6 318.65,-793.6 318.65,-787.6 324.65,-781.6 330.65,-781.6"/>
<text text-anchor="middle" x="345.65" y="-795.9" font-family="Arial" font-size="14.00">ph</text>
</g>
<!-- learning2&#45;d&#45;&gt;ph -->
<g id="edge42" class="edge">
<title>learning2&#45;d&#45;&gt;ph</title>
<path fill="none" stroke="#1f78b4" d="M488.31,-662.9C459.57,-690.44 404.71,-743.01 372.03,-774.33"/>
<polygon fill="#a6cee3" stroke="#1f78b4" points="369.42,-771.98 364.62,-781.42 374.26,-777.03 369.42,-771.98"/>
</g>
<!-- data -->
<g id="node45" class="node">
<title>data</title>
<path fill="#afa7f4" stroke="black" d="M718.68,-563.95C718.68,-563.95 748.68,-563.95 748.68,-563.95 754.68,-563.95 760.68,-569.95 760.68,-575.95 760.68,-575.95 760.68,-587.95 760.68,-587.95 760.68,-593.95 754.68,-599.95 748.68,-599.95 748.68,-599.95 718.68,-599.95 718.68,-599.95 712.68,-599.95 706.68,-593.95 706.68,-587.95 706.68,-587.95 706.68,-575.95 706.68,-575.95 706.68,-569.95 712.68,-563.95 718.68,-563.95"/>
<text text-anchor="middle" x="733.68" y="-578.25" font-family="Arial" font-size="14.00">data</text>
</g>
<!-- learning2&#45;d&#45;&gt;data -->
<g id="edge44" class="edge">
<title>learning2&#45;d&#45;&gt;data</title>
<path fill="none" stroke="#1f78b4" d="M549.23,-633.17C591.57,-621.41 656.24,-603.45 696.68,-592.22"/>
<polygon fill="#a6cee3" stroke="#1f78b4" points="697.71,-595.57 706.41,-589.52 695.84,-588.83 697.71,-595.57"/>
</g>
<!-- lcInstructornote2 -->
<g id="node3" class="node">
<title>lcInstructornote2</title>
<path fill="#1afabc" stroke="black" d="M114.55,-410.79C114.55,-410.79 206.55,-410.79 206.55,-410.79 212.55,-410.79 218.55,-416.79 218.55,-422.79 218.55,-422.79 218.55,-434.79 218.55,-434.79 218.55,-440.79 212.55,-446.79 206.55,-446.79 206.55,-446.79 114.55,-446.79 114.55,-446.79 108.55,-446.79 102.55,-440.79 102.55,-434.79 102.55,-434.79 102.55,-422.79 102.55,-422.79 102.55,-416.79 108.55,-410.79 114.55,-410.79"/>
<text text-anchor="middle" x="160.55" y="-425.09" font-family="Arial" font-size="14.00">lcInstructornote2</text>
</g>
<!-- note&#45;&gt;lcInstructornote2 -->
<g id="edge2" class="edge">
<title>note&#45;&gt;lcInstructornote2</title>
<path fill="none" stroke="#1f78b4" d="M301.98,-510.06C274.71,-494.4 232.32,-470.04 201.05,-452.07"/>
<polygon fill="#a6cee3" stroke="#1f78b4" points="202.56,-448.9 192.14,-446.95 199.07,-454.97 202.56,-448.9"/>
</g>
<!-- lcTrueFalse2 -->
<g id="node5" class="node">
<title>lcTrueFalse2</title>
<path fill="#1afabc" stroke="black" d="M286.43,-63.94C286.43,-63.94 357.43,-63.94 357.43,-63.94 363.43,-63.94 369.43,-69.94 369.43,-75.94 369.43,-75.94 369.43,-87.94 369.43,-87.94 369.43,-93.94 363.43,-99.94 357.43,-99.94 357.43,-99.94 286.43,-99.94 286.43,-99.94 280.43,-99.94 274.43,-93.94 274.43,-87.94 274.43,-87.94 274.43,-75.94 274.43,-75.94 274.43,-69.94 280.43,-63.94 286.43,-63.94"/>
<text text-anchor="middle" x="321.93" y="-78.24" font-family="Arial" font-size="14.00">lcTrueFalse2</text>
</g>
<!-- lcInteractionBase2&#45;&gt;lcTrueFalse2 -->
<g id="edge4" class="edge">
<title>lcInteractionBase2&#45;&gt;lcTrueFalse2</title>
<path fill="none" stroke="#1f78b4" d="M439.35,-247.6C416.21,-214.95 367.74,-146.57 340.87,-108.67"/>
<polygon fill="#a6cee3" stroke="#1f78b4" points="343.49,-106.31 334.85,-100.17 337.78,-110.36 343.49,-106.31"/>
</g>
<!-- lcSingleSelect2 -->
<g id="node6" class="node">
<title>lcSingleSelect2</title>
<path fill="#1afabc" stroke="black" d="M207.1,-113.85C207.1,-113.85 292.1,-113.85 292.1,-113.85 298.1,-113.85 304.1,-119.85 304.1,-125.85 304.1,-125.85 304.1,-137.85 304.1,-137.85 304.1,-143.85 298.1,-149.85 292.1,-149.85 292.1,-149.85 207.1,-149.85 207.1,-149.85 201.1,-149.85 195.1,-143.85 195.1,-137.85 195.1,-137.85 195.1,-125.85 195.1,-125.85 195.1,-119.85 201.1,-113.85 207.1,-113.85"/>
<text text-anchor="middle" x="249.6" y="-128.15" font-family="Arial" font-size="14.00">lcSingleSelect2</text>
</g>
<!-- lcInteractionBase2&#45;&gt;lcSingleSelect2 -->
<g id="edge5" class="edge">
<title>lcInteractionBase2&#45;&gt;lcSingleSelect2</title>
<path fill="none" stroke="#1f78b4" d="M424.99,-247.83C388.84,-223.93 325.08,-181.76 285.2,-155.39"/>
<polygon fill="#a6cee3" stroke="#1f78b4" points="287.1,-152.45 276.83,-149.86 283.24,-158.29 287.1,-152.45"/>
</g>
<!-- lcMultipleSelect2 -->
<g id="node7" class="node">
<title>lcMultipleSelect2</title>
<path fill="#1afabc" stroke="black" d="M405.32,-59.81C405.32,-59.81 500.32,-59.81 500.32,-59.81 506.32,-59.81 512.32,-65.81 512.32,-71.81 512.32,-71.81 512.32,-83.81 512.32,-83.81 512.32,-89.81 506.32,-95.81 500.32,-95.81 500.32,-95.81 405.32,-95.81 405.32,-95.81 399.32,-95.81 393.32,-89.81 393.32,-83.81 393.32,-83.81 393.32,-71.81 393.32,-71.81 393.32,-65.81 399.32,-59.81 405.32,-59.81"/>
<text text-anchor="middle" x="452.82" y="-74.11" font-family="Arial" font-size="14.00">lcMultipleSelect2</text>
</g>
<!-- lcInteractionBase2&#45;&gt;lcMultipleSelect2 -->
<g id="edge6" class="edge">
<title>lcInteractionBase2&#45;&gt;lcMultipleSelect2</title>
<path fill="none" stroke="#1f78b4" d="M452.38,-247.88C452.47,-215.1 452.65,-145.52 452.75,-106.27"/>
<polygon fill="#a6cee3" stroke="#1f78b4" points="456.25,-106.07 452.78,-96.06 449.25,-106.06 456.25,-106.07"/>
</g>
<!-- lcSequencing2 -->
<g id="node8" class="node">
<title>lcSequencing2</title>
<path fill="#1afabc" stroke="black" d="M284.54,-11.52C284.54,-11.52 365.54,-11.52 365.54,-11.52 371.54,-11.52 377.54,-17.52 377.54,-23.52 377.54,-23.52 377.54,-35.52 377.54,-35.52 377.54,-41.52 371.54,-47.52 365.54,-47.52 365.54,-47.52 284.54,-47.52 284.54,-47.52 278.54,-47.52 272.54,-41.52 272.54,-35.52 272.54,-35.52 272.54,-23.52 272.54,-23.52 272.54,-17.52 278.54,-11.52 284.54,-11.52"/>
<text text-anchor="middle" x="325.04" y="-25.82" font-family="Arial" font-size="14.00">lcSequencing2</text>
</g>
<!-- lcInteractionBase2&#45;&gt;lcSequencing2 -->
<g id="edge7" class="edge">
<title>lcInteractionBase2&#45;&gt;lcSequencing2</title>
<path fill="none" stroke="#1f78b4" d="M442.56,-247.76C420.34,-206.5 365.97,-105.53 339.71,-56.77"/>
<polygon fill="#a6cee3" stroke="#1f78b4" points="342.67,-54.89 334.85,-47.74 336.51,-58.2 342.67,-54.89"/>
</g>
<!-- lcMatching2 -->
<g id="node9" class="node">
<title>lcMatching2</title>
<path fill="#1afabc" stroke="black" d="M400.21,-0.25C400.21,-0.25 465.21,-0.25 465.21,-0.25 471.21,-0.25 477.21,-6.25 477.21,-12.25 477.21,-12.25 477.21,-24.25 477.21,-24.25 477.21,-30.25 471.21,-36.25 465.21,-36.25 465.21,-36.25 400.21,-36.25 400.21,-36.25 394.21,-36.25 388.21,-30.25 388.21,-24.25 388.21,-24.25 388.21,-12.25 388.21,-12.25 388.21,-6.25 394.21,-0.25 400.21,-0.25"/>
<text text-anchor="middle" x="432.71" y="-14.55" font-family="Arial" font-size="14.00">lcMatching2</text>
</g>
<!-- lcInteractionBase2&#45;&gt;lcMatching2 -->
<g id="edge8" class="edge">
<title>lcInteractionBase2&#45;&gt;lcMatching2</title>
<path fill="none" stroke="#1f78b4" d="M450.89,-247.7C447.5,-204.94 439.02,-97.87 434.95,-46.55"/>
<polygon fill="#a6cee3" stroke="#1f78b4" points="438.44,-46.18 434.16,-36.49 431.46,-46.73 438.44,-46.18"/>
</g>
<!-- lcHotspot2 -->
<g id="node10" class="node">
<title>lcHotspot2</title>
<path fill="#1afabc" stroke="black" d="M513.12,-13.01C513.12,-13.01 569.12,-13.01 569.12,-13.01 575.12,-13.01 581.12,-19.01 581.12,-25.01 581.12,-25.01 581.12,-37.01 581.12,-37.01 581.12,-43.01 575.12,-49.01 569.12,-49.01 569.12,-49.01 513.12,-49.01 513.12,-49.01 507.12,-49.01 501.12,-43.01 501.12,-37.01 501.12,-37.01 501.12,-25.01 501.12,-25.01 501.12,-19.01 507.12,-13.01 513.12,-13.01"/>
<text text-anchor="middle" x="541.12" y="-27.31" font-family="Arial" font-size="14.00">lcHotspot2</text>
</g>
<!-- lcInteractionBase2&#45;&gt;lcHotspot2 -->
<g id="edge9" class="edge">
<title>lcInteractionBase2&#45;&gt;lcHotspot2</title>
<path fill="none" stroke="#1f78b4" d="M459.15,-247.87C474.58,-207.05 512.25,-107.38 530.66,-58.69"/>
<polygon fill="#a6cee3" stroke="#1f78b4" points="534.01,-59.71 534.28,-49.12 527.47,-57.23 534.01,-59.71"/>
</g>
<!-- lcOpenQuestion2 -->
<g id="node11" class="node">
<title>lcOpenQuestion2</title>
<path fill="#1afabc" stroke="black" d="M576.47,-66.35C576.47,-66.35 674.47,-66.35 674.47,-66.35 680.47,-66.35 686.47,-72.35 686.47,-78.35 686.47,-78.35 686.47,-90.35 686.47,-90.35 686.47,-96.35 680.47,-102.35 674.47,-102.35 674.47,-102.35 576.47,-102.35 576.47,-102.35 570.47,-102.35 564.47,-96.35 564.47,-90.35 564.47,-90.35 564.47,-78.35 564.47,-78.35 564.47,-72.35 570.47,-66.35 576.47,-66.35"/>
<text text-anchor="middle" x="625.47" y="-80.65" font-family="Arial" font-size="14.00">lcOpenQuestion2</text>
</g>
<!-- lcInteractionBase2&#45;&gt;lcOpenQuestion2 -->
<g id="edge10" class="edge">
<title>lcInteractionBase2&#45;&gt;lcOpenQuestion2</title>
<path fill="none" stroke="#1f78b4" d="M469.57,-247.84C500.47,-215.43 565.39,-147.35 600.93,-110.08"/>
<polygon fill="#a6cee3" stroke="#1f78b4" points="603.68,-112.27 608.05,-102.62 598.61,-107.44 603.68,-112.27"/>
</g>
<!-- lcQuestion2 -->
<g id="node13" class="node">
<title>lcQuestion2</title>
<path fill="#1afabc" stroke="black" d="M338.19,-1081.96C338.19,-1081.96 403.19,-1081.96 403.19,-1081.96 409.19,-1081.96 415.19,-1087.96 415.19,-1093.96 415.19,-1093.96 415.19,-1105.96 415.19,-1105.96 415.19,-1111.96 409.19,-1117.96 403.19,-1117.96 403.19,-1117.96 338.19,-1117.96 338.19,-1117.96 332.19,-1117.96 326.19,-1111.96 326.19,-1105.96 326.19,-1105.96 326.19,-1093.96 326.19,-1093.96 326.19,-1087.96 332.19,-1081.96 338.19,-1081.96"/>
<text text-anchor="middle" x="370.69" y="-1096.26" font-family="Arial" font-size="14.00">lcQuestion2</text>
</g>
<!-- lcQuestionBase2&#45;&gt;lcQuestion2 -->
<g id="edge12" class="edge">
<title>lcQuestionBase2&#45;&gt;lcQuestion2</title>
<path fill="none" stroke="#1f78b4" d="M442.48,-913.91C428.64,-949.78 397.67,-1030.02 381.3,-1072.45"/>
<polygon fill="#a6cee3" stroke="#1f78b4" points="378,-1071.29 377.66,-1081.88 384.53,-1073.81 378,-1071.29"/>
</g>
<!-- lcOpenAnswer2 -->
<g id="node15" class="node">
<title>lcOpenAnswer2</title>
<path fill="#1afabc" stroke="black" d="M617.57,-1065.46C617.57,-1065.46 706.57,-1065.46 706.57,-1065.46 712.57,-1065.46 718.57,-1071.46 718.57,-1077.46 718.57,-1077.46 718.57,-1089.46 718.57,-1089.46 718.57,-1095.46 712.57,-1101.46 706.57,-1101.46 706.57,-1101.46 617.57,-1101.46 617.57,-1101.46 611.57,-1101.46 605.57,-1095.46 605.57,-1089.46 605.57,-1089.46 605.57,-1077.46 605.57,-1077.46 605.57,-1071.46 611.57,-1065.46 617.57,-1065.46"/>
<text text-anchor="middle" x="662.07" y="-1079.76" font-family="Arial" font-size="14.00">lcOpenAnswer2</text>
</g>
<!-- div&#45;&gt;lcOpenAnswer2 -->
<g id="edge14" class="edge">
<title>div&#45;&gt;lcOpenAnswer2</title>
<path fill="none" stroke="#1f78b4" d="M627.64,-974.33C634.32,-995.51 645.43,-1030.7 653.21,-1055.38"/>
<polygon fill="#a6cee3" stroke="#1f78b4" points="649.98,-1056.76 656.32,-1065.24 656.65,-1054.65 649.98,-1056.76"/>
</g>
<!-- lcAsset2 -->
<g id="node16" class="node">
<title>lcAsset2</title>
<path fill="#1afabc" stroke="black" d="M669.08,-1110.85C669.08,-1110.85 713.08,-1110.85 713.08,-1110.85 719.08,-1110.85 725.08,-1116.85 725.08,-1122.85 725.08,-1122.85 725.08,-1134.85 725.08,-1134.85 725.08,-1140.85 719.08,-1146.85 713.08,-1146.85 713.08,-1146.85 669.08,-1146.85 669.08,-1146.85 663.08,-1146.85 657.08,-1140.85 657.08,-1134.85 657.08,-1134.85 657.08,-1122.85 657.08,-1122.85 657.08,-1116.85 663.08,-1110.85 669.08,-1110.85"/>
<text text-anchor="middle" x="691.08" y="-1125.15" font-family="Arial" font-size="14.00">lcAsset2</text>
</g>
<!-- div&#45;&gt;lcAsset2 -->
<g id="edge15" class="edge">
<title>div&#45;&gt;lcAsset2</title>
<path fill="none" stroke="#1f78b4" d="M629.15,-974.24C641.3,-1004.57 665.79,-1065.71 680.06,-1101.34"/>
<polygon fill="#a6cee3" stroke="#1f78b4" points="676.83,-1102.69 683.8,-1110.67 683.33,-1100.09 676.83,-1102.69"/>
</g>
<!-- lcFeedback2 -->
<g id="node17" class="node">
<title>lcFeedback2</title>
<path fill="#1afabc" stroke="black" d="M504.03,-1103.22C504.03,-1103.22 573.03,-1103.22 573.03,-1103.22 579.03,-1103.22 585.03,-1109.22 585.03,-1115.22 585.03,-1115.22 585.03,-1127.22 585.03,-1127.22 585.03,-1133.22 579.03,-1139.22 573.03,-1139.22 573.03,-1139.22 504.03,-1139.22 504.03,-1139.22 498.03,-1139.22 492.03,-1133.22 492.03,-1127.22 492.03,-1127.22 492.03,-1115.22 492.03,-1115.22 492.03,-1109.22 498.03,-1103.22 504.03,-1103.22"/>
<text text-anchor="middle" x="538.53" y="-1117.52" font-family="Arial" font-size="14.00">lcFeedback2</text>
</g>
<!-- div&#45;&gt;lcFeedback2 -->
<g id="edge16" class="edge">
<title>div&#45;&gt;lcFeedback2</title>
<path fill="none" stroke="#1f78b4" d="M612.64,-974.38C598.02,-1003.35 569.46,-1059.93 552.38,-1093.77"/>
<polygon fill="#a6cee3" stroke="#1f78b4" points="549.06,-1092.58 547.68,-1103.08 555.31,-1095.73 549.06,-1092.58"/>
</g>
<!-- lcFeedbackCorrect2 -->
<g id="node18" class="node">
<title>lcFeedbackCorrect2</title>
<path fill="#1afabc" stroke="black" d="M559.15,-1156.8C559.15,-1156.8 672.15,-1156.8 672.15,-1156.8 678.15,-1156.8 684.15,-1162.8 684.15,-1168.8 684.15,-1168.8 684.15,-1180.8 684.15,-1180.8 684.15,-1186.8 678.15,-1192.8 672.15,-1192.8 672.15,-1192.8 559.15,-1192.8 559.15,-1192.8 553.15,-1192.8 547.15,-1186.8 547.15,-1180.8 547.15,-1180.8 547.15,-1168.8 547.15,-1168.8 547.15,-1162.8 553.15,-1156.8 559.15,-1156.8"/>
<text text-anchor="middle" x="615.65" y="-1171.1" font-family="Arial" font-size="14.00">lcFeedbackCorrect2</text>
</g>
<!-- div&#45;&gt;lcFeedbackCorrect2 -->
<g id="edge17" class="edge">
<title>div&#45;&gt;lcFeedbackCorrect2</title>
<path fill="none" stroke="#1f78b4" d="M621.36,-974.35C620.27,-1012.56 617.75,-1101.13 616.45,-1146.66"/>
<polygon fill="#a6cee3" stroke="#1f78b4" points="612.95,-1146.64 616.16,-1156.73 619.95,-1146.84 612.95,-1146.64"/>
</g>
<!-- lcFeedbackIncorrect2 -->
<g id="node19" class="node">
<title>lcFeedbackIncorrect2</title>
<path fill="#1afabc" stroke="black" d="M753.06,-1038.68C753.06,-1038.68 875.06,-1038.68 875.06,-1038.68 881.06,-1038.68 887.06,-1044.68 887.06,-1050.68 887.06,-1050.68 887.06,-1062.68 887.06,-1062.68 887.06,-1068.68 881.06,-1074.68 875.06,-1074.68 875.06,-1074.68 753.06,-1074.68 753.06,-1074.68 747.06,-1074.68 741.06,-1068.68 741.06,-1062.68 741.06,-1062.68 741.06,-1050.68 741.06,-1050.68 741.06,-1044.68 747.06,-1038.68 753.06,-1038.68"/>
<text text-anchor="middle" x="814.06" y="-1052.98" font-family="Arial" font-size="14.00">lcFeedbackIncorrect2</text>
</g>
<!-- div&#45;&gt;lcFeedbackIncorrect2 -->
<g id="edge18" class="edge">
<title>div&#45;&gt;lcFeedbackIncorrect2</title>
<path fill="none" stroke="#1f78b4" d="M649.01,-970.28C680.58,-986.8 733.14,-1014.32 770.46,-1033.85"/>
<polygon fill="#a6cee3" stroke="#1f78b4" points="769.12,-1037.1 779.6,-1038.64 772.37,-1030.9 769.12,-1037.1"/>
</g>
<!-- lcAnswerContent2 -->
<g id="node20" class="node">
<title>lcAnswerContent2</title>
<path fill="#1afabc" stroke="black" d="M750.47,-1088.11C750.47,-1088.11 852.47,-1088.11 852.47,-1088.11 858.47,-1088.11 864.47,-1094.11 864.47,-1100.11 864.47,-1100.11 864.47,-1112.11 864.47,-1112.11 864.47,-1118.11 858.47,-1124.11 852.47,-1124.11 852.47,-1124.11 750.47,-1124.11 750.47,-1124.11 744.47,-1124.11 738.47,-1118.11 738.47,-1112.11 738.47,-1112.11 738.47,-1100.11 738.47,-1100.11 738.47,-1094.11 744.47,-1088.11 750.47,-1088.11"/>
<text text-anchor="middle" x="801.47" y="-1102.41" font-family="Arial" font-size="14.00">lcAnswerContent2</text>
</g>
<!-- div&#45;&gt;lcAnswerContent2 -->
<g id="edge19" class="edge">
<title>div&#45;&gt;lcAnswerContent2</title>
<path fill="none" stroke="#1f78b4" d="M643.54,-974.17C675.63,-1000.98 735.89,-1051.32 771.98,-1081.48"/>
<polygon fill="#a6cee3" stroke="#1f78b4" points="769.81,-1084.23 779.73,-1087.95 774.3,-1078.85 769.81,-1084.23"/>
</g>
<!-- lcAnswerOptionGroup2 -->
<g id="node22" class="node">
<title>lcAnswerOptionGroup2</title>
<path fill="#1afabc" stroke="black" d="M15.69,-512.33C15.69,-512.33 149.69,-512.33 149.69,-512.33 155.69,-512.33 161.69,-518.33 161.69,-524.33 161.69,-524.33 161.69,-536.33 161.69,-536.33 161.69,-542.33 155.69,-548.33 149.69,-548.33 149.69,-548.33 15.69,-548.33 15.69,-548.33 9.69,-548.33 3.69,-542.33 3.69,-536.33 3.69,-536.33 3.69,-524.33 3.69,-524.33 3.69,-518.33 9.69,-512.33 15.69,-512.33"/>
<text text-anchor="middle" x="82.69" y="-526.63" font-family="Arial" font-size="14.00">lcAnswerOptionGroup2</text>
</g>
<!-- ul&#45;&gt;lcAnswerOptionGroup2 -->
<g id="edge21" class="edge">
<title>ul&#45;&gt;lcAnswerOptionGroup2</title>
<path fill="none" stroke="#1f78b4" d="M270.63,-584.69C241.69,-576.32 194.73,-562.74 154.99,-551.25"/>
<polygon fill="#a6cee3" stroke="#1f78b4" points="155.9,-547.87 145.33,-548.45 153.96,-554.59 155.9,-547.87"/>
</g>
<!-- lcSequenceOptionGroup2 -->
<g id="node24" class="node">
<title>lcSequenceOptionGroup2</title>
<path fill="#1afabc" stroke="black" d="M205.19,-1002.66C205.19,-1002.66 354.19,-1002.66 354.19,-1002.66 360.19,-1002.66 366.19,-1008.66 366.19,-1014.66 366.19,-1014.66 366.19,-1026.66 366.19,-1026.66 366.19,-1032.66 360.19,-1038.66 354.19,-1038.66 354.19,-1038.66 205.19,-1038.66 205.19,-1038.66 199.19,-1038.66 193.19,-1032.66 193.19,-1026.66 193.19,-1026.66 193.19,-1014.66 193.19,-1014.66 193.19,-1008.66 199.19,-1002.66 205.19,-1002.66"/>
<text text-anchor="middle" x="279.69" y="-1016.96" font-family="Arial" font-size="14.00">lcSequenceOptionGroup2</text>
</g>
<!-- ol&#45;&gt;lcSequenceOptionGroup2 -->
<g id="edge23" class="edge">
<title>ol&#45;&gt;lcSequenceOptionGroup2</title>
<path fill="none" stroke="#1f78b4" d="M398.48,-848.6C375.13,-882.42 325.06,-954.95 297.98,-994.17"/>
<polygon fill="#a6cee3" stroke="#1f78b4" points="295.05,-992.25 292.25,-1002.47 300.81,-996.23 295.05,-992.25"/>
</g>
<!-- lcSequenceOption2 -->
<g id="node26" class="node">
<title>lcSequenceOption2</title>
<path fill="#1afabc" stroke="black" d="M816.32,-352.81C816.32,-352.81 927.32,-352.81 927.32,-352.81 933.32,-352.81 939.32,-358.81 939.32,-364.81 939.32,-364.81 939.32,-376.81 939.32,-376.81 939.32,-382.81 933.32,-388.81 927.32,-388.81 927.32,-388.81 816.32,-388.81 816.32,-388.81 810.32,-388.81 804.32,-382.81 804.32,-376.81 804.32,-376.81 804.32,-364.81 804.32,-364.81 804.32,-358.81 810.32,-352.81 816.32,-352.81"/>
<text text-anchor="middle" x="871.82" y="-367.11" font-family="Arial" font-size="14.00">lcSequenceOption2</text>
</g>
<!-- li&#45;&gt;lcSequenceOption2 -->
<g id="edge25" class="edge">
<title>li&#45;&gt;lcSequenceOption2</title>
<path fill="none" stroke="#1f78b4" d="M705.59,-472.47C738.97,-452.06 795.65,-417.4 833.41,-394.3"/>
<polygon fill="#a6cee3" stroke="#1f78b4" points="835.4,-397.19 842.1,-388.99 831.74,-391.22 835.4,-397.19"/>
</g>
<!-- lcAnswerOption2 -->
<g id="node27" class="node">
<title>lcAnswerOption2</title>
<path fill="#1afabc" stroke="black" d="M760.61,-304.06C760.61,-304.06 855.61,-304.06 855.61,-304.06 861.61,-304.06 867.61,-310.06 867.61,-316.06 867.61,-316.06 867.61,-328.06 867.61,-328.06 867.61,-334.06 861.61,-340.06 855.61,-340.06 855.61,-340.06 760.61,-340.06 760.61,-340.06 754.61,-340.06 748.61,-334.06 748.61,-328.06 748.61,-328.06 748.61,-316.06 748.61,-316.06 748.61,-310.06 754.61,-304.06 760.61,-304.06"/>
<text text-anchor="middle" x="808.11" y="-318.36" font-family="Arial" font-size="14.00">lcAnswerOption2</text>
</g>
<!-- li&#45;&gt;lcAnswerOption2 -->
<g id="edge26" class="edge">
<title>li&#45;&gt;lcAnswerOption2</title>
<path fill="none" stroke="#1f78b4" d="M692.41,-470.98C715.44,-441.34 761.12,-382.55 787.67,-348.37"/>
<polygon fill="#a6cee3" stroke="#1f78b4" points="790.62,-350.29 793.99,-340.24 785.09,-345.99 790.62,-350.29"/>
</g>
<!-- lcMatchTable2 -->
<g id="node29" class="node">
<title>lcMatchTable2</title>
<path fill="#1afabc" stroke="black" d="M643.58,-242.19C643.58,-242.19 723.58,-242.19 723.58,-242.19 729.58,-242.19 735.58,-248.19 735.58,-254.19 735.58,-254.19 735.58,-266.19 735.58,-266.19 735.58,-272.19 729.58,-278.19 723.58,-278.19 723.58,-278.19 643.58,-278.19 643.58,-278.19 637.58,-278.19 631.58,-272.19 631.58,-266.19 631.58,-266.19 631.58,-254.19 631.58,-254.19 631.58,-248.19 637.58,-242.19 643.58,-242.19"/>
<text text-anchor="middle" x="683.58" y="-256.49" font-family="Arial" font-size="14.00">lcMatchTable2</text>
</g>
<!-- simpletable&#45;&gt;lcMatchTable2 -->
<g id="edge28" class="edge">
<title>simpletable&#45;&gt;lcMatchTable2</title>
<path fill="none" stroke="#1f78b4" d="M593.38,-428.93C611.05,-395.88 648.38,-326.04 669.05,-287.38"/>
<polygon fill="#a6cee3" stroke="#1f78b4" points="672.29,-288.73 673.92,-278.26 666.12,-285.43 672.29,-288.73"/>
</g>
<!-- lcMatchingHeader2 -->
<g id="node31" class="node">
<title>lcMatchingHeader2</title>
<path fill="#1afabc" stroke="black" d="M852.46,-661.77C852.46,-661.77 962.46,-661.77 962.46,-661.77 968.46,-661.77 974.46,-667.77 974.46,-673.77 974.46,-673.77 974.46,-685.77 974.46,-685.77 974.46,-691.77 968.46,-697.77 962.46,-697.77 962.46,-697.77 852.46,-697.77 852.46,-697.77 846.46,-697.77 840.46,-691.77 840.46,-685.77 840.46,-685.77 840.46,-673.77 840.46,-673.77 840.46,-667.77 846.46,-661.77 852.46,-661.77"/>
<text text-anchor="middle" x="907.46" y="-676.07" font-family="Arial" font-size="14.00">lcMatchingHeader2</text>
</g>
<!-- sthead&#45;&gt;lcMatchingHeader2 -->
<g id="edge30" class="edge">
<title>sthead&#45;&gt;lcMatchingHeader2</title>
<path fill="none" stroke="#1f78b4" d="M720.41,-671.96C748.28,-673.12 791.89,-674.94 830,-676.53"/>
<polygon fill="#a6cee3" stroke="#1f78b4" points="829.93,-680.03 840.06,-676.95 830.22,-673.04 829.93,-680.03"/>
</g>
<!-- lcMatchingPair2 -->
<g id="node33" class="node">
<title>lcMatchingPair2</title>
<path fill="#1afabc" stroke="black" d="M222.7,-324.9C222.7,-324.9 311.7,-324.9 311.7,-324.9 317.7,-324.9 323.7,-330.9 323.7,-336.9 323.7,-336.9 323.7,-348.9 323.7,-348.9 323.7,-354.9 317.7,-360.9 311.7,-360.9 311.7,-360.9 222.7,-360.9 222.7,-360.9 216.7,-360.9 210.7,-354.9 210.7,-348.9 210.7,-348.9 210.7,-336.9 210.7,-336.9 210.7,-330.9 216.7,-324.9 222.7,-324.9"/>
<text text-anchor="middle" x="267.2" y="-339.2" font-family="Arial" font-size="14.00">lcMatchingPair2</text>
</g>
<!-- strow&#45;&gt;lcMatchingPair2 -->
<g id="edge32" class="edge">
<title>strow&#45;&gt;lcMatchingPair2</title>
<path fill="none" stroke="#1f78b4" d="M378.61,-457.21C356.24,-434.25 317.56,-394.57 292.18,-368.53"/>
<polygon fill="#a6cee3" stroke="#1f78b4" points="294.57,-365.96 285.08,-361.24 289.55,-370.85 294.57,-365.96"/>
</g>
<!-- lcItem2 -->
<g id="node35" class="node">
<title>lcItem2</title>
<path fill="#1afabc" stroke="black" d="M828.61,-863.01C828.61,-863.01 865.61,-863.01 865.61,-863.01 871.61,-863.01 877.61,-869.01 877.61,-875.01 877.61,-875.01 877.61,-887.01 877.61,-887.01 877.61,-893.01 871.61,-899.01 865.61,-899.01 865.61,-899.01 828.61,-899.01 828.61,-899.01 822.61,-899.01 816.61,-893.01 816.61,-887.01 816.61,-887.01 816.61,-875.01 816.61,-875.01 816.61,-869.01 822.61,-863.01 828.61,-863.01"/>
<text text-anchor="middle" x="847.11" y="-877.31" font-family="Arial" font-size="14.00">lcItem2</text>
</g>
<!-- stentry&#45;&gt;lcItem2 -->
<g id="edge34" class="edge">
<title>stentry&#45;&gt;lcItem2</title>
<path fill="none" stroke="#1f78b4" d="M765.88,-778.38C781.92,-798.64 808.08,-831.69 826.37,-854.8"/>
<polygon fill="#a6cee3" stroke="#1f78b4" points="823.76,-857.15 832.71,-862.82 829.25,-852.8 823.76,-857.15"/>
</g>
<!-- lcMatchingItem2 -->
<g id="node36" class="node">
<title>lcMatchingItem2</title>
<path fill="#1afabc" stroke="black" d="M890.74,-817.62C890.74,-817.62 982.74,-817.62 982.74,-817.62 988.74,-817.62 994.74,-823.62 994.74,-829.62 994.74,-829.62 994.74,-841.62 994.74,-841.62 994.74,-847.62 988.74,-853.62 982.74,-853.62 982.74,-853.62 890.74,-853.62 890.74,-853.62 884.74,-853.62 878.74,-847.62 878.74,-841.62 878.74,-841.62 878.74,-829.62 878.74,-829.62 878.74,-823.62 884.74,-817.62 890.74,-817.62"/>
<text text-anchor="middle" x="936.74" y="-831.92" font-family="Arial" font-size="14.00">lcMatchingItem2</text>
</g>
<!-- stentry&#45;&gt;lcMatchingItem2 -->
<g id="edge35" class="edge">
<title>stentry&#45;&gt;lcMatchingItem2</title>
<path fill="none" stroke="#1f78b4" d="M780.11,-771.91C807.34,-782.99 849.09,-799.97 882.64,-813.61"/>
<polygon fill="#a6cee3" stroke="#1f78b4" points="881.73,-817.02 892.31,-817.55 884.37,-810.54 881.73,-817.02"/>
</g>
<!-- lcMatchingItemFeedback2 -->
<g id="node37" class="node">
<title>lcMatchingItemFeedback2</title>
<path fill="#1afabc" stroke="black" d="M921.63,-767.78C921.63,-767.78 1073.63,-767.78 1073.63,-767.78 1079.63,-767.78 1085.63,-773.78 1085.63,-779.78 1085.63,-779.78 1085.63,-791.78 1085.63,-791.78 1085.63,-797.78 1079.63,-803.78 1073.63,-803.78 1073.63,-803.78 921.63,-803.78 921.63,-803.78 915.63,-803.78 909.63,-797.78 909.63,-791.78 909.63,-791.78 909.63,-779.78 909.63,-779.78 909.63,-773.78 915.63,-767.78 921.63,-767.78"/>
<text text-anchor="middle" x="997.63" y="-782.08" font-family="Arial" font-size="14.00">lcMatchingItemFeedback2</text>
</g>
<!-- stentry&#45;&gt;lcMatchingItemFeedback2 -->
<g id="edge36" class="edge">
<title>stentry&#45;&gt;lcMatchingItemFeedback2</title>
<path fill="none" stroke="#1f78b4" d="M780.29,-763.28C809.51,-766.3 856.48,-771.17 899.29,-775.6"/>
<polygon fill="#a6cee3" stroke="#1f78b4" points="899.18,-779.1 909.49,-776.65 899.9,-772.14 899.18,-779.1"/>
</g>
<!-- lcHotspotMap2 -->
<g id="node39" class="node">
<title>lcHotspotMap2</title>
<path fill="#1afabc" stroke="black" d="M12.37,-708.02C12.37,-708.02 95.37,-708.02 95.37,-708.02 101.37,-708.02 107.37,-714.02 107.37,-720.02 107.37,-720.02 107.37,-732.02 107.37,-732.02 107.37,-738.02 101.37,-744.02 95.37,-744.02 95.37,-744.02 12.37,-744.02 12.37,-744.02 6.37,-744.02 0.37,-738.02 0.37,-732.02 0.37,-732.02 0.37,-720.02 0.37,-720.02 0.37,-714.02 6.37,-708.02 12.37,-708.02"/>
<text text-anchor="middle" x="53.87" y="-722.32" font-family="Arial" font-size="14.00">lcHotspotMap2</text>
</g>
<!-- figgroup&#45;&gt;lcHotspotMap2 -->
<g id="edge38" class="edge">
<title>figgroup&#45;&gt;lcHotspotMap2</title>
<path fill="none" stroke="#1f78b4" d="M217.29,-679.82C190.08,-687.51 150.6,-698.67 117.27,-708.1"/>
<polygon fill="#a6cee3" stroke="#1f78b4" points="116.26,-704.74 107.59,-710.83 118.17,-711.48 116.26,-704.74"/>
</g>
<!-- lcArea2 -->
<g id="node40" class="node">
<title>lcArea2</title>
<path fill="#1afabc" stroke="black" d="M60.88,-637.63C60.88,-637.63 98.88,-637.63 98.88,-637.63 104.88,-637.63 110.88,-643.63 110.88,-649.63 110.88,-649.63 110.88,-661.63 110.88,-661.63 110.88,-667.63 104.88,-673.63 98.88,-673.63 98.88,-673.63 60.88,-673.63 60.88,-673.63 54.88,-673.63 48.88,-667.63 48.88,-661.63 48.88,-661.63 48.88,-649.63 48.88,-649.63 48.88,-643.63 54.88,-637.63 60.88,-637.63"/>
<text text-anchor="middle" x="79.88" y="-651.93" font-family="Arial" font-size="14.00">lcArea2</text>
</g>
<!-- figgroup&#45;&gt;lcArea2 -->
<g id="edge39" class="edge">
<title>figgroup&#45;&gt;lcArea2</title>
<path fill="none" stroke="#1f78b4" d="M217.32,-667.66C189.83,-665.25 150.46,-661.81 120.9,-659.22"/>
<polygon fill="#a6cee3" stroke="#1f78b4" points="121.16,-655.73 110.89,-658.34 120.55,-662.7 121.16,-655.73"/>
</g>
<!-- lcAreaShape2 -->
<g id="node42" class="node">
<title>lcAreaShape2</title>
<path fill="#1afabc" stroke="black" d="M82.9,-821.56C82.9,-821.56 159.9,-821.56 159.9,-821.56 165.9,-821.56 171.9,-827.56 171.9,-833.56 171.9,-833.56 171.9,-845.56 171.9,-845.56 171.9,-851.56 165.9,-857.56 159.9,-857.56 159.9,-857.56 82.9,-857.56 82.9,-857.56 76.9,-857.56 70.9,-851.56 70.9,-845.56 70.9,-845.56 70.9,-833.56 70.9,-833.56 70.9,-827.56 76.9,-821.56 82.9,-821.56"/>
<text text-anchor="middle" x="121.4" y="-835.86" font-family="Arial" font-size="14.00">lcAreaShape2</text>
</g>
<!-- keyword&#45;&gt;lcAreaShape2 -->
<g id="edge41" class="edge">
<title>keyword&#45;&gt;lcAreaShape2</title>
<path fill="none" stroke="#1f78b4" d="M262.06,-765.43C234.36,-780.03 194.89,-800.83 164.8,-816.69"/>
<polygon fill="#a6cee3" stroke="#1f78b4" points="163.01,-813.68 155.79,-821.44 166.27,-819.87 163.01,-813.68"/>
</g>
<!-- lcAreaCoords2 -->
<g id="node44" class="node">
<title>lcAreaCoords2</title>
<path fill="#1afabc" stroke="black" d="M162.89,-909.42C162.89,-909.42 244.89,-909.42 244.89,-909.42 250.89,-909.42 256.89,-915.42 256.89,-921.42 256.89,-921.42 256.89,-933.42 256.89,-933.42 256.89,-939.42 250.89,-945.42 244.89,-945.42 244.89,-945.42 162.89,-945.42 162.89,-945.42 156.89,-945.42 150.89,-939.42 150.89,-933.42 150.89,-933.42 150.89,-921.42 150.89,-921.42 150.89,-915.42 156.89,-909.42 162.89,-909.42"/>
<text text-anchor="middle" x="203.89" y="-923.72" font-family="Arial" font-size="14.00">lcAreaCoords2</text>
</g>
<!-- ph&#45;&gt;lcAreaCoords2 -->
<g id="edge43" class="edge">
<title>ph&#45;&gt;lcAreaCoords2</title>
<path fill="none" stroke="#1f78b4" d="M325.64,-817.64C301.19,-839.69 259.67,-877.13 232.01,-902.06"/>
<polygon fill="#a6cee3" stroke="#1f78b4" points="229.34,-899.76 224.26,-909.05 234.03,-904.96 229.34,-899.76"/>
</g>
<!-- lcCorrectResponse2 -->
<g id="node46" class="node">
<title>lcCorrectResponse2</title>
<path fill="#1afabc" stroke="black" d="M908.02,-533.85C908.02,-533.85 1023.02,-533.85 1023.02,-533.85 1029.02,-533.85 1035.02,-539.85 1035.02,-545.85 1035.02,-545.85 1035.02,-557.85 1035.02,-557.85 1035.02,-563.85 1029.02,-569.85 1023.02,-569.85 1023.02,-569.85 908.02,-569.85 908.02,-569.85 902.02,-569.85 896.02,-563.85 896.02,-557.85 896.02,-557.85 896.02,-545.85 896.02,-545.85 896.02,-539.85 902.02,-533.85 908.02,-533.85"/>
<text text-anchor="middle" x="965.52" y="-548.15" font-family="Arial" font-size="14.00">lcCorrectResponse2</text>
</g>
<!-- data&#45;&gt;lcCorrectResponse2 -->
<g id="edge45" class="edge">
<title>data&#45;&gt;lcCorrectResponse2</title>
<path fill="none" stroke="#1f78b4" d="M760.73,-578.44C791.2,-574.48 842.16,-567.87 885.61,-562.22"/>
<polygon fill="#a6cee3" stroke="#1f78b4" points="886.15,-565.68 895.62,-560.92 885.25,-558.74 886.15,-565.68"/>
</g>
<!-- lcSequence2 -->
<g id="node47" class="node">
<title>lcSequence2</title>
<path fill="#1afabc" stroke="black" d="M874.12,-477.97C874.12,-477.97 945.12,-477.97 945.12,-477.97 951.12,-477.97 957.12,-483.97 957.12,-489.97 957.12,-489.97 957.12,-501.97 957.12,-501.97 957.12,-507.97 951.12,-513.97 945.12,-513.97 945.12,-513.97 874.12,-513.97 874.12,-513.97 868.12,-513.97 862.12,-507.97 862.12,-501.97 862.12,-501.97 862.12,-489.97 862.12,-489.97 862.12,-483.97 868.12,-477.97 874.12,-477.97"/>
<text text-anchor="middle" x="909.62" y="-492.27" font-family="Arial" font-size="14.00">lcSequence2</text>
</g>
<!-- data&#45;&gt;lcSequence2 -->
<g id="edge46" class="edge">
<title>data&#45;&gt;lcSequence2</title>
<path fill="none" stroke="#1f78b4" d="M760.78,-568.71C788.07,-555.37 830.68,-534.55 863.33,-518.6"/>
<polygon fill="#a6cee3" stroke="#1f78b4" points="865.23,-521.56 872.68,-514.03 862.16,-515.27 865.23,-521.56"/>
</g>
</g>
</svg>
