<?xml version="1.0" encoding="UTF-8" standalone="no"?>
<!-- Generated by graphviz version 6.0.1 (20220911.1526)
 -->
<!-- Pages: 1 -->
<svg width="264pt" height="218pt"
 viewBox="0.00 0.00 264.00 218.00" xmlns="http://www.w3.org/2000/svg" xmlns:xlink="http://www.w3.org/1999/xlink">
<g id="graph0" class="graph" transform="scale(1 1) rotate(0) translate(4 214)">
<polygon fill="white" stroke="none" points="-4,4 -4,-214 260,-214 260,4 -4,4"/>
<!-- mapgroup&#45;d -->
<g id="node1" class="node">
<title>mapgroup&#45;d</title>
<path fill="#dddddd" stroke="black" d="M12.04,-99.72C12.04,-99.72 78.04,-99.72 78.04,-99.72 84.04,-99.72 90.04,-105.72 90.04,-111.72 90.04,-111.72 90.04,-123.72 90.04,-123.72 90.04,-129.72 84.04,-135.72 78.04,-135.72 78.04,-135.72 12.04,-135.72 12.04,-135.72 6.04,-135.72 0.04,-129.72 0.04,-123.72 0.04,-123.72 0.04,-111.72 0.04,-111.72 0.04,-105.72 6.04,-99.72 12.04,-99.72"/>
<text text-anchor="middle" x="45.04" y="-114.02" font-family="Arial" font-size="14.00">mapgroup&#45;d</text>
</g>
<!-- topicref -->
<g id="node2" class="node">
<title>topicref</title>
<path fill="#afa7f4" stroke="black" d="M110.6,-110.69C110.6,-110.69 147.6,-110.69 147.6,-110.69 153.6,-110.69 159.6,-116.69 159.6,-122.69 159.6,-122.69 159.6,-134.69 159.6,-134.69 159.6,-140.69 153.6,-146.69 147.6,-146.69 147.6,-146.69 110.6,-146.69 110.6,-146.69 104.6,-146.69 98.6,-140.69 98.6,-134.69 98.6,-134.69 98.6,-122.69 98.6,-122.69 98.6,-116.69 104.6,-110.69 110.6,-110.69"/>
<text text-anchor="middle" x="129.1" y="-124.99" font-family="Arial" font-size="14.00">topicref</text>
</g>
<!-- mapgroup&#45;d&#45;&gt;topicref -->
<g id="edge1" class="edge">
<title>mapgroup&#45;d&#45;&gt;topicref</title>
<path fill="none" stroke="#1f78b4" d="M90.51,-123.65C90.68,-123.67 90.84,-123.69 91.01,-123.71"/>
<polygon fill="#a6cee3" stroke="#1f78b4" points="87.94,-126.84 98.31,-124.67 88.85,-119.9 87.94,-126.84"/>
</g>
<!-- topichead -->
<g id="node3" class="node">
<title>topichead</title>
<path fill="#1afabc" stroke="black" d="M178.05,-17.08C178.05,-17.08 229.05,-17.08 229.05,-17.08 235.05,-17.08 241.05,-23.08 241.05,-29.08 241.05,-29.08 241.05,-41.08 241.05,-41.08 241.05,-47.08 235.05,-53.08 229.05,-53.08 229.05,-53.08 178.05,-53.08 178.05,-53.08 172.05,-53.08 166.05,-47.08 166.05,-41.08 166.05,-41.08 166.05,-29.08 166.05,-29.08 166.05,-23.08 172.05,-17.08 178.05,-17.08"/>
<text text-anchor="middle" x="203.55" y="-31.38" font-family="Arial" font-size="14.00">topichead</text>
</g>
<!-- topicref&#45;&gt;topichead -->
<g id="edge2" class="edge">
<title>topicref&#45;&gt;topichead</title>
<path fill="none" stroke="#1f78b4" d="M143.45,-110.64C154.61,-96.61 170.24,-76.97 182.76,-61.22"/>
<polygon fill="#a6cee3" stroke="#1f78b4" points="185.5,-63.4 188.99,-53.39 180.02,-59.04 185.5,-63.4"/>
</g>
<!-- topicgroup -->
<g id="node4" class="node">
<title>topicgroup</title>
<path fill="#1afabc" stroke="black" d="M130.08,-173.79C130.08,-173.79 186.08,-173.79 186.08,-173.79 192.08,-173.79 198.08,-179.79 198.08,-185.79 198.08,-185.79 198.08,-197.79 198.08,-197.79 198.08,-203.79 192.08,-209.79 186.08,-209.79 186.08,-209.79 130.08,-209.79 130.08,-209.79 124.08,-209.79 118.08,-203.79 118.08,-197.79 118.08,-197.79 118.08,-185.79 118.08,-185.79 118.08,-179.79 124.08,-173.79 130.08,-173.79"/>
<text text-anchor="middle" x="158.08" y="-188.09" font-family="Arial" font-size="14.00">topicgroup</text>
</g>
<!-- topicref&#45;&gt;topicgroup -->
<g id="edge3" class="edge">
<title>topicref&#45;&gt;topicgroup</title>
<path fill="none" stroke="#1f78b4" d="M137.48,-146.94C139.92,-152.25 142.65,-158.19 145.3,-163.95"/>
<polygon fill="#a6cee3" stroke="#1f78b4" points="142.26,-165.73 149.62,-173.36 148.62,-162.81 142.26,-165.73"/>
</g>
<!-- anchorref -->
<g id="node5" class="node">
<title>anchorref</title>
<path fill="#1afabc" stroke="black" d="M193.84,-128.7C193.84,-128.7 243.84,-128.7 243.84,-128.7 249.84,-128.7 255.84,-134.7 255.84,-140.7 255.84,-140.7 255.84,-152.7 255.84,-152.7 255.84,-158.7 249.84,-164.7 243.84,-164.7 243.84,-164.7 193.84,-164.7 193.84,-164.7 187.84,-164.7 181.84,-158.7 181.84,-152.7 181.84,-152.7 181.84,-140.7 181.84,-140.7 181.84,-134.7 187.84,-128.7 193.84,-128.7"/>
<text text-anchor="middle" x="218.84" y="-143" font-family="Arial" font-size="14.00">anchorref</text>
</g>
<!-- topicref&#45;&gt;anchorref -->
<g id="edge4" class="edge">
<title>topicref&#45;&gt;anchorref</title>
<path fill="none" stroke="#1f78b4" d="M159.73,-134.83C163.62,-135.61 167.67,-136.43 171.74,-137.24"/>
<polygon fill="#a6cee3" stroke="#1f78b4" points="171.34,-140.73 181.83,-139.27 172.72,-133.87 171.34,-140.73"/>
</g>
<!-- mapref -->
<g id="node6" class="node">
<title>mapref</title>
<path fill="#1afabc" stroke="black" d="M59.73,-156.92C59.73,-156.92 94.73,-156.92 94.73,-156.92 100.73,-156.92 106.73,-162.92 106.73,-168.92 106.73,-168.92 106.73,-180.92 106.73,-180.92 106.73,-186.92 100.73,-192.92 94.73,-192.92 94.73,-192.92 59.73,-192.92 59.73,-192.92 53.73,-192.92 47.73,-186.92 47.73,-180.92 47.73,-180.92 47.73,-168.92 47.73,-168.92 47.73,-162.92 53.73,-156.92 59.73,-156.92"/>
<text text-anchor="middle" x="77.23" y="-171.22" font-family="Arial" font-size="14.00">mapref</text>
</g>
<!-- topicref&#45;&gt;mapref -->
<g id="edge5" class="edge">
<title>topicref&#45;&gt;mapref</title>
<path fill="none" stroke="#1f78b4" d="M108.89,-146.69C107.6,-147.84 106.29,-149.01 104.98,-150.19"/>
<polygon fill="#a6cee3" stroke="#1f78b4" points="102.6,-147.62 97.46,-156.89 107.25,-152.84 102.6,-147.62"/>
</g>
<!-- topicset -->
<g id="node7" class="node">
<title>topicset</title>
<path fill="#1afabc" stroke="black" d="M104.69,-0.52C104.69,-0.52 143.69,-0.52 143.69,-0.52 149.69,-0.52 155.69,-6.52 155.69,-12.52 155.69,-12.52 155.69,-24.52 155.69,-24.52 155.69,-30.52 149.69,-36.52 143.69,-36.52 143.69,-36.52 104.69,-36.52 104.69,-36.52 98.69,-36.52 92.69,-30.52 92.69,-24.52 92.69,-24.52 92.69,-12.52 92.69,-12.52 92.69,-6.52 98.69,-0.52 104.69,-0.52"/>
<text text-anchor="middle" x="124.19" y="-14.82" font-family="Arial" font-size="14.00">topicset</text>
</g>
<!-- topicref&#45;&gt;topicset -->
<g id="edge6" class="edge">
<title>topicref&#45;&gt;topicset</title>
<path fill="none" stroke="#1f78b4" d="M128.29,-110.49C127.52,-93.19 126.34,-66.9 125.45,-46.85"/>
<polygon fill="#a6cee3" stroke="#1f78b4" points="128.94,-46.57 125,-36.74 121.95,-46.88 128.94,-46.57"/>
</g>
<!-- topicsetref -->
<g id="node8" class="node">
<title>topicsetref</title>
<path fill="#1afabc" stroke="black" d="M180.95,-68.99C180.95,-68.99 235.95,-68.99 235.95,-68.99 241.95,-68.99 247.95,-74.99 247.95,-80.99 247.95,-80.99 247.95,-92.99 247.95,-92.99 247.95,-98.99 241.95,-104.99 235.95,-104.99 235.95,-104.99 180.95,-104.99 180.95,-104.99 174.95,-104.99 168.95,-98.99 168.95,-92.99 168.95,-92.99 168.95,-80.99 168.95,-80.99 168.95,-74.99 174.95,-68.99 180.95,-68.99"/>
<text text-anchor="middle" x="208.45" y="-83.29" font-family="Arial" font-size="14.00">topicsetref</text>
</g>
<!-- topicref&#45;&gt;topicsetref -->
<g id="edge7" class="edge">
<title>topicref&#45;&gt;topicsetref</title>
<path fill="none" stroke="#1f78b4" d="M160.01,-112.45C161.59,-111.61 163.2,-110.77 164.81,-109.92"/>
<polygon fill="#a6cee3" stroke="#1f78b4" points="166.85,-112.8 174.08,-105.05 163.6,-106.6 166.85,-112.8"/>
</g>
<!-- keydef -->
<g id="node9" class="node">
<title>keydef</title>
<path fill="#1afabc" stroke="black" d="M37.31,-49.2C37.31,-49.2 69.31,-49.2 69.31,-49.2 75.31,-49.2 81.31,-55.2 81.31,-61.2 81.31,-61.2 81.31,-73.2 81.31,-73.2 81.31,-79.2 75.31,-85.2 69.31,-85.2 69.31,-85.2 37.31,-85.2 37.31,-85.2 31.31,-85.2 25.31,-79.2 25.31,-73.2 25.31,-73.2 25.31,-61.2 25.31,-61.2 25.31,-55.2 31.31,-49.2 37.31,-49.2"/>
<text text-anchor="middle" x="53.31" y="-63.5" font-family="Arial" font-size="14.00">keydef</text>
</g>
<!-- topicref&#45;&gt;keydef -->
<g id="edge8" class="edge">
<title>topicref&#45;&gt;keydef</title>
<path fill="none" stroke="#1f78b4" d="M106.77,-110.57C99.59,-104.74 91.5,-98.18 83.84,-91.96"/>
<polygon fill="#a6cee3" stroke="#1f78b4" points="85.72,-88.98 75.74,-85.4 81.3,-94.41 85.72,-88.98"/>
</g>
</g>
</svg>
