<?xml version="1.0" encoding="UTF-8" standalone="no"?>
<!-- Generated by graphviz version 6.0.1 (20220911.1526)
 -->
<!-- Pages: 1 -->
<svg width="160pt" height="139pt"
 viewBox="0.00 0.00 160.00 139.00" xmlns="http://www.w3.org/2000/svg" xmlns:xlink="http://www.w3.org/1999/xlink">
<g id="graph0" class="graph" transform="scale(1 1) rotate(0) translate(4 135)">
<polygon fill="white" stroke="none" points="-4,4 -4,-135 156,-135 156,4 -4,4"/>
<!-- markup&#45;d -->
<g id="node1" class="node">
<title>markup&#45;d</title>
<path fill="#dddddd" stroke="black" d="M12.12,-94.01C12.12,-94.01 62.12,-94.01 62.12,-94.01 68.12,-94.01 74.12,-100.01 74.12,-106.01 74.12,-106.01 74.12,-118.01 74.12,-118.01 74.12,-124.01 68.12,-130.01 62.12,-130.01 62.12,-130.01 12.12,-130.01 12.12,-130.01 6.12,-130.01 0.12,-124.01 0.12,-118.01 0.12,-118.01 0.12,-106.01 0.12,-106.01 0.12,-100.01 6.12,-94.01 12.12,-94.01"/>
<text text-anchor="middle" x="37.12" y="-108.31" font-family="Arial" font-size="14.00">markup&#45;d</text>
</g>
<!-- keyword -->
<g id="node2" class="node">
<title>keyword</title>
<path fill="#afa7f4" stroke="black" d="M83.81,-46.8C83.81,-46.8 126.81,-46.8 126.81,-46.8 132.81,-46.8 138.81,-52.8 138.81,-58.8 138.81,-58.8 138.81,-70.8 138.81,-70.8 138.81,-76.8 132.81,-82.8 126.81,-82.8 126.81,-82.8 83.81,-82.8 83.81,-82.8 77.81,-82.8 71.81,-76.8 71.81,-70.8 71.81,-70.8 71.81,-58.8 71.81,-58.8 71.81,-52.8 77.81,-46.8 83.81,-46.8"/>
<text text-anchor="middle" x="105.31" y="-61.1" font-family="Arial" font-size="14.00">keyword</text>
</g>
<!-- markup&#45;d&#45;&gt;keyword -->
<g id="edge1" class="edge">
<title>markup&#45;d&#45;&gt;keyword</title>
<path fill="none" stroke="#1f78b4" d="M63.29,-93.89C65.68,-92.24 68.13,-90.54 70.59,-88.84"/>
<polygon fill="#a6cee3" stroke="#1f78b4" points="72.64,-91.67 78.87,-83.1 68.66,-85.92 72.64,-91.67"/>
</g>
<!-- markupname -->
<g id="node3" class="node">
<title>markupname</title>
<path fill="#1afabc" stroke="black" d="M67.48,-0.27C67.48,-0.27 140.48,-0.27 140.48,-0.27 146.48,-0.27 152.48,-6.27 152.48,-12.27 152.48,-12.27 152.48,-24.27 152.48,-24.27 152.48,-30.27 146.48,-36.27 140.48,-36.27 140.48,-36.27 67.48,-36.27 67.48,-36.27 61.48,-36.27 55.48,-30.27 55.48,-24.27 55.48,-24.27 55.48,-12.27 55.48,-12.27 55.48,-6.27 61.48,-0.27 67.48,-0.27"/>
<text text-anchor="middle" x="103.98" y="-14.57" font-family="Arial" font-size="14.00">markupname</text>
</g>
<!-- keyword&#45;&gt;markupname -->
<g id="edge2" class="edge">
<title>keyword&#45;&gt;markupname</title>
<path fill="none" stroke="#1f78b4" d="M104.79,-46.68C104.79,-46.57 104.78,-46.47 104.78,-46.36"/>
<polygon fill="#a6cee3" stroke="#1f78b4" points="108.28,-46.32 104.5,-36.42 101.28,-46.52 108.28,-46.32"/>
</g>
</g>
</svg>
