<?xml version="1.0" encoding="UTF-8" standalone="no"?>
<!DOCTYPE svg PUBLIC "-//W3C//DTD SVG 1.1//EN"
 "http://www.w3.org/Graphics/SVG/1.1/DTD/svg11.dtd">
<!-- Generated by graphviz version 6.0.1 (20220911.1526)
 -->
<!-- Pages: 1 -->
<svg width="452pt" height="517pt"
 viewBox="0.00 0.00 452.00 517.00" xmlns="http://www.w3.org/2000/svg" xmlns:xlink="http://www.w3.org/1999/xlink">
<g id="graph0" class="graph" transform="scale(1 1) rotate(0) translate(4 513)">
<polygon fill="white" stroke="none" points="-4,4 -4,-513 448,-513 448,4 -4,4"/>
<!-- relmgmt&#45;d -->
<g id="node1" class="node">
<title>relmgmt&#45;d</title>
<path fill="#dddddd" stroke="black" d="M161.99,-234.82C161.99,-234.82 216.99,-234.82 216.99,-234.82 222.99,-234.82 228.99,-240.82 228.99,-246.82 228.99,-246.82 228.99,-258.82 228.99,-258.82 228.99,-264.82 222.99,-270.82 216.99,-270.82 216.99,-270.82 161.99,-270.82 161.99,-270.82 155.99,-270.82 149.99,-264.82 149.99,-258.82 149.99,-258.82 149.99,-246.82 149.99,-246.82 149.99,-240.82 155.99,-234.82 161.99,-234.82"/>
<text text-anchor="middle" x="189.49" y="-249.12" font-family="Arial" font-size="14.00">relmgmt&#45;d</text>
</g>
<!-- metadata -->
<g id="node2" class="node">
<title>metadata</title>
<path fill="#afa7f4" stroke="black" d="M107.91,-123.12C107.91,-123.12 157.91,-123.12 157.91,-123.12 163.91,-123.12 169.91,-129.12 169.91,-135.12 169.91,-135.12 169.91,-147.12 169.91,-147.12 169.91,-153.12 163.91,-159.12 157.91,-159.12 157.91,-159.12 107.91,-159.12 107.91,-159.12 101.91,-159.12 95.91,-153.12 95.91,-147.12 95.91,-147.12 95.91,-135.12 95.91,-135.12 95.91,-129.12 101.91,-123.12 107.91,-123.12"/>
<text text-anchor="middle" x="132.91" y="-137.42" font-family="Arial" font-size="14.00">metadata</text>
</g>
<!-- relmgmt&#45;d&#45;&gt;metadata -->
<g id="edge1" class="edge">
<title>relmgmt&#45;d&#45;&gt;metadata</title>
<path fill="none" stroke="#1f78b4" d="M180.14,-234.38C171.04,-216.4 157.09,-188.86 146.71,-168.36"/>
<polygon fill="#a6cee3" stroke="#1f78b4" points="149.72,-166.56 142.08,-159.22 143.48,-169.72 149.72,-166.56"/>
</g>
<!-- data -->
<g id="node4" class="node">
<title>data</title>
<path fill="#afa7f4" stroke="black" d="M230.39,-344.16C230.39,-344.16 260.39,-344.16 260.39,-344.16 266.39,-344.16 272.39,-350.16 272.39,-356.16 272.39,-356.16 272.39,-368.16 272.39,-368.16 272.39,-374.16 266.39,-380.16 260.39,-380.16 260.39,-380.16 230.39,-380.16 230.39,-380.16 224.39,-380.16 218.39,-374.16 218.39,-368.16 218.39,-368.16 218.39,-356.16 218.39,-356.16 218.39,-350.16 224.39,-344.16 230.39,-344.16"/>
<text text-anchor="middle" x="245.39" y="-358.46" font-family="Arial" font-size="14.00">data</text>
</g>
<!-- relmgmt&#45;d&#45;&gt;data -->
<g id="edge3" class="edge">
<title>relmgmt&#45;d&#45;&gt;data</title>
<path fill="none" stroke="#1f78b4" d="M198.72,-270.88C207.66,-288.37 221.33,-315.11 231.57,-335.14"/>
<polygon fill="#a6cee3" stroke="#1f78b4" points="228.47,-336.77 236.14,-344.08 234.71,-333.59 228.47,-336.77"/>
</g>
<!-- change&#45;historylist -->
<g id="node3" class="node">
<title>change&#45;historylist</title>
<path fill="#1afabc" stroke="black" d="M19.92,-0.7C19.92,-0.7 117.92,-0.7 117.92,-0.7 123.92,-0.7 129.92,-6.7 129.92,-12.7 129.92,-12.7 129.92,-24.7 129.92,-24.7 129.92,-30.7 123.92,-36.7 117.92,-36.7 117.92,-36.7 19.92,-36.7 19.92,-36.7 13.92,-36.7 7.92,-30.7 7.92,-24.7 7.92,-24.7 7.92,-12.7 7.92,-12.7 7.92,-6.7 13.92,-0.7 19.92,-0.7"/>
<text text-anchor="middle" x="68.92" y="-15" font-family="Arial" font-size="14.00">change&#45;historylist</text>
</g>
<!-- metadata&#45;&gt;change&#45;historylist -->
<g id="edge2" class="edge">
<title>metadata&#45;&gt;change&#45;historylist</title>
<path fill="none" stroke="#1f78b4" d="M123.47,-123.06C112.84,-102.71 95.44,-69.43 83.15,-45.93"/>
<polygon fill="#a6cee3" stroke="#1f78b4" points="86.13,-44.08 78.4,-36.84 79.93,-47.32 86.13,-44.08"/>
</g>
<!-- change&#45;item -->
<g id="node5" class="node">
<title>change&#45;item</title>
<path fill="#1afabc" stroke="black" d="M308.56,-416.81C308.56,-416.81 376.56,-416.81 376.56,-416.81 382.56,-416.81 388.56,-422.81 388.56,-428.81 388.56,-428.81 388.56,-440.81 388.56,-440.81 388.56,-446.81 382.56,-452.81 376.56,-452.81 376.56,-452.81 308.56,-452.81 308.56,-452.81 302.56,-452.81 296.56,-446.81 296.56,-440.81 296.56,-440.81 296.56,-428.81 296.56,-428.81 296.56,-422.81 302.56,-416.81 308.56,-416.81"/>
<text text-anchor="middle" x="342.56" y="-431.11" font-family="Arial" font-size="14.00">change&#45;item</text>
</g>
<!-- data&#45;&gt;change&#45;item -->
<g id="edge4" class="edge">
<title>data&#45;&gt;change&#45;item</title>
<path fill="none" stroke="#1f78b4" d="M269.91,-380.5C282.08,-389.6 296.96,-400.72 310.07,-410.52"/>
<polygon fill="#a6cee3" stroke="#1f78b4" points="308.28,-413.55 318.38,-416.74 312.47,-407.94 308.28,-413.55"/>
</g>
<!-- change&#45;person -->
<g id="node6" class="node">
<title>change&#45;person</title>
<path fill="#1afabc" stroke="black" d="M127.19,-445.07C127.19,-445.07 210.19,-445.07 210.19,-445.07 216.19,-445.07 222.19,-451.07 222.19,-457.07 222.19,-457.07 222.19,-469.07 222.19,-469.07 222.19,-475.07 216.19,-481.07 210.19,-481.07 210.19,-481.07 127.19,-481.07 127.19,-481.07 121.19,-481.07 115.19,-475.07 115.19,-469.07 115.19,-469.07 115.19,-457.07 115.19,-457.07 115.19,-451.07 121.19,-445.07 127.19,-445.07"/>
<text text-anchor="middle" x="168.69" y="-459.37" font-family="Arial" font-size="14.00">change&#45;person</text>
</g>
<!-- data&#45;&gt;change&#45;person -->
<g id="edge5" class="edge">
<title>data&#45;&gt;change&#45;person</title>
<path fill="none" stroke="#1f78b4" d="M231.68,-380.2C219.75,-395.89 202.32,-418.83 188.81,-436.6"/>
<polygon fill="#a6cee3" stroke="#1f78b4" points="185.81,-434.77 182.54,-444.85 191.38,-439 185.81,-434.77"/>
</g>
<!-- change&#45;organization -->
<g id="node7" class="node">
<title>change&#45;organization</title>
<path fill="#1afabc" stroke="black" d="M46.32,-389.36C46.32,-389.36 161.32,-389.36 161.32,-389.36 167.32,-389.36 173.32,-395.36 173.32,-401.36 173.32,-401.36 173.32,-413.36 173.32,-413.36 173.32,-419.36 167.32,-425.36 161.32,-425.36 161.32,-425.36 46.32,-425.36 46.32,-425.36 40.32,-425.36 34.32,-419.36 34.32,-413.36 34.32,-413.36 34.32,-401.36 34.32,-401.36 34.32,-395.36 40.32,-389.36 46.32,-389.36"/>
<text text-anchor="middle" x="103.82" y="-403.66" font-family="Arial" font-size="14.00">change&#45;organization</text>
</g>
<!-- data&#45;&gt;change&#45;organization -->
<g id="edge6" class="edge">
<title>data&#45;&gt;change&#45;organization</title>
<path fill="none" stroke="#1f78b4" d="M218.09,-370.88C204.39,-375.25 187.14,-380.76 170.22,-386.16"/>
<polygon fill="#a6cee3" stroke="#1f78b4" points="168.79,-382.95 160.33,-389.32 170.92,-389.61 168.79,-382.95"/>
</g>
<!-- change&#45;revisionid -->
<g id="node8" class="node">
<title>change&#45;revisionid</title>
<path fill="#1afabc" stroke="black" d="M324.99,-299.73C324.99,-299.73 422.99,-299.73 422.99,-299.73 428.99,-299.73 434.99,-305.73 434.99,-311.73 434.99,-311.73 434.99,-323.73 434.99,-323.73 434.99,-329.73 428.99,-335.73 422.99,-335.73 422.99,-335.73 324.99,-335.73 324.99,-335.73 318.99,-335.73 312.99,-329.73 312.99,-323.73 312.99,-323.73 312.99,-311.73 312.99,-311.73 312.99,-305.73 318.99,-299.73 324.99,-299.73"/>
<text text-anchor="middle" x="373.99" y="-314.03" font-family="Arial" font-size="14.00">change&#45;revisionid</text>
</g>
<!-- data&#45;&gt;change&#45;revisionid -->
<g id="edge7" class="edge">
<title>data&#45;&gt;change&#45;revisionid</title>
<path fill="none" stroke="#1f78b4" d="M272.66,-352.74C284.28,-348.73 298.35,-343.86 312.26,-339.06"/>
<polygon fill="#a6cee3" stroke="#1f78b4" points="313.53,-342.33 321.84,-335.75 311.24,-335.71 313.53,-342.33"/>
</g>
<!-- change&#45;request&#45;reference -->
<g id="node9" class="node">
<title>change&#45;request&#45;reference</title>
<path fill="#1afabc" stroke="black" d="M11.98,-319.57C11.98,-319.57 159.98,-319.57 159.98,-319.57 165.98,-319.57 171.98,-325.57 171.98,-331.57 171.98,-331.57 171.98,-343.57 171.98,-343.57 171.98,-349.57 165.98,-355.57 159.98,-355.57 159.98,-355.57 11.98,-355.57 11.98,-355.57 5.98,-355.57 -0.02,-349.57 -0.02,-343.57 -0.02,-343.57 -0.02,-331.57 -0.02,-331.57 -0.02,-325.57 5.98,-319.57 11.98,-319.57"/>
<text text-anchor="middle" x="85.98" y="-333.87" font-family="Arial" font-size="14.00">change&#45;request&#45;reference</text>
</g>
<!-- data&#45;&gt;change&#45;request&#45;reference -->
<g id="edge8" class="edge">
<title>data&#45;&gt;change&#45;request&#45;reference</title>
<path fill="none" stroke="#1f78b4" d="M218.35,-357.99C208.01,-356.4 195.54,-354.47 182.43,-352.45"/>
<polygon fill="#a6cee3" stroke="#1f78b4" points="182.73,-348.96 172.31,-350.89 181.66,-355.88 182.73,-348.96"/>
</g>
<!-- change&#45;request&#45;system -->
<g id="node10" class="node">
<title>change&#45;request&#45;system</title>
<path fill="#1afabc" stroke="black" d="M258.06,-215.33C258.06,-215.33 392.06,-215.33 392.06,-215.33 398.06,-215.33 404.06,-221.33 404.06,-227.33 404.06,-227.33 404.06,-239.33 404.06,-239.33 404.06,-245.33 398.06,-251.33 392.06,-251.33 392.06,-251.33 258.06,-251.33 258.06,-251.33 252.06,-251.33 246.06,-245.33 246.06,-239.33 246.06,-239.33 246.06,-227.33 246.06,-227.33 246.06,-221.33 252.06,-215.33 258.06,-215.33"/>
<text text-anchor="middle" x="325.06" y="-229.63" font-family="Arial" font-size="14.00">change&#45;request&#45;system</text>
</g>
<!-- data&#45;&gt;change&#45;request&#45;system -->
<g id="edge9" class="edge">
<title>data&#45;&gt;change&#45;request&#45;system</title>
<path fill="none" stroke="#1f78b4" d="M256.63,-343.98C270.16,-322.11 292.97,-285.22 308.51,-260.09"/>
<polygon fill="#a6cee3" stroke="#1f78b4" points="311.59,-261.77 313.87,-251.42 305.64,-258.08 311.59,-261.77"/>
</g>
<!-- change&#45;request&#45;id -->
<g id="node11" class="node">
<title>change&#45;request&#45;id</title>
<path fill="#1afabc" stroke="black" d="M191.98,-298.97C191.98,-298.97 292.98,-298.97 292.98,-298.97 298.98,-298.97 304.98,-304.97 304.98,-310.97 304.98,-310.97 304.98,-322.97 304.98,-322.97 304.98,-328.97 298.98,-334.97 292.98,-334.97 292.98,-334.97 191.98,-334.97 191.98,-334.97 185.98,-334.97 179.98,-328.97 179.98,-322.97 179.98,-322.97 179.98,-310.97 179.98,-310.97 179.98,-304.97 185.98,-298.97 191.98,-298.97"/>
<text text-anchor="middle" x="242.48" y="-313.27" font-family="Arial" font-size="14.00">change&#45;request&#45;id</text>
</g>
<!-- data&#45;&gt;change&#45;request&#45;id -->
<g id="edge10" class="edge">
<title>data&#45;&gt;change&#45;request&#45;id</title>
<path fill="none" stroke="#1f78b4" d="M244.22,-344.04C244.22,-343.95 244.21,-343.86 244.2,-343.77"/>
<polygon fill="#a6cee3" stroke="#1f78b4" points="247.78,-344.85 243.65,-335.1 240.8,-345.3 247.78,-344.85"/>
</g>
<!-- change&#45;started -->
<g id="node12" class="node">
<title>change&#45;started</title>
<path fill="#1afabc" stroke="black" d="M193.43,-389.24C193.43,-389.24 276.43,-389.24 276.43,-389.24 282.43,-389.24 288.43,-395.24 288.43,-401.24 288.43,-401.24 288.43,-413.24 288.43,-413.24 288.43,-419.24 282.43,-425.24 276.43,-425.24 276.43,-425.24 193.43,-425.24 193.43,-425.24 187.43,-425.24 181.43,-419.24 181.43,-413.24 181.43,-413.24 181.43,-401.24 181.43,-401.24 181.43,-395.24 187.43,-389.24 193.43,-389.24"/>
<text text-anchor="middle" x="234.93" y="-403.54" font-family="Arial" font-size="14.00">change&#45;started</text>
</g>
<!-- data&#45;&gt;change&#45;started -->
<g id="edge11" class="edge">
<title>data&#45;&gt;change&#45;started</title>
<path fill="none" stroke="#1f78b4" d="M241.2,-380.24C241.18,-380.33 241.15,-380.42 241.13,-380.51"/>
<polygon fill="#a6cee3" stroke="#1f78b4" points="237.98,-378.63 239.13,-389.16 244.8,-380.21 237.98,-378.63"/>
</g>
<!-- change&#45;completed -->
<g id="node13" class="node">
<title>change&#45;completed</title>
<path fill="#1afabc" stroke="black" d="M328.36,-368.37C328.36,-368.37 432.36,-368.37 432.36,-368.37 438.36,-368.37 444.36,-374.37 444.36,-380.37 444.36,-380.37 444.36,-392.37 444.36,-392.37 444.36,-398.37 438.36,-404.37 432.36,-404.37 432.36,-404.37 328.36,-404.37 328.36,-404.37 322.36,-404.37 316.36,-398.37 316.36,-392.37 316.36,-392.37 316.36,-380.37 316.36,-380.37 316.36,-374.37 322.36,-368.37 328.36,-368.37"/>
<text text-anchor="middle" x="380.36" y="-382.67" font-family="Arial" font-size="14.00">change&#45;completed</text>
</g>
<!-- data&#45;&gt;change&#45;completed -->
<g id="edge12" class="edge">
<title>data&#45;&gt;change&#45;completed</title>
<path fill="none" stroke="#1f78b4" d="M272.7,-367.06C282.57,-368.83 294.24,-370.93 306.2,-373.07"/>
<polygon fill="#a6cee3" stroke="#1f78b4" points="305.81,-376.56 316.27,-374.88 307.04,-369.66 305.81,-376.56"/>
</g>
<!-- change&#45;summary -->
<g id="node14" class="node">
<title>change&#45;summary</title>
<path fill="#1afabc" stroke="black" d="M242.24,-472C242.24,-472 340.24,-472 340.24,-472 346.24,-472 352.24,-478 352.24,-484 352.24,-484 352.24,-496 352.24,-496 352.24,-502 346.24,-508 340.24,-508 340.24,-508 242.24,-508 242.24,-508 236.24,-508 230.24,-502 230.24,-496 230.24,-496 230.24,-484 230.24,-484 230.24,-478 236.24,-472 242.24,-472"/>
<text text-anchor="middle" x="291.24" y="-486.3" font-family="Arial" font-size="14.00">change&#45;summary</text>
</g>
<!-- data&#45;&gt;change&#45;summary -->
<g id="edge13" class="edge">
<title>data&#45;&gt;change&#45;summary</title>
<path fill="none" stroke="#1f78b4" d="M251.86,-380.21C259.5,-401.5 272.28,-437.15 281.21,-462.03"/>
<polygon fill="#a6cee3" stroke="#1f78b4" points="277.98,-463.4 284.65,-471.64 284.57,-461.04 277.98,-463.4"/>
</g>
</g>
</svg>
