<?xml version="1.0" encoding="UTF-8" standalone="no"?>
<!DOCTYPE svg PUBLIC "-//W3C//DTD SVG 1.1//EN"
 "http://www.w3.org/Graphics/SVG/1.1/DTD/svg11.dtd">
<!-- Generated by graphviz version 6.0.1 (20220911.1526)
 -->
<!-- Pages: 1 -->
<svg width="151pt" height="179pt"
 viewBox="0.00 0.00 151.00 179.00" xmlns="http://www.w3.org/2000/svg" xmlns:xlink="http://www.w3.org/1999/xlink">
<g id="graph0" class="graph" transform="scale(1 1) rotate(0) translate(4 175)">
<polygon fill="white" stroke="none" points="-4,4 -4,-175 147,-175 147,4 -4,4"/>
<!-- svg&#45;d -->
<g id="node1" class="node">
<title>svg&#45;d</title>
<path fill="#dddddd" stroke="black" d="M12.55,-78.94C12.55,-78.94 42.55,-78.94 42.55,-78.94 48.55,-78.94 54.55,-84.94 54.55,-90.94 54.55,-90.94 54.55,-102.94 54.55,-102.94 54.55,-108.94 48.55,-114.94 42.55,-114.94 42.55,-114.94 12.55,-114.94 12.55,-114.94 6.55,-114.94 0.55,-108.94 0.55,-102.94 0.55,-102.94 0.55,-90.94 0.55,-90.94 0.55,-84.94 6.55,-78.94 12.55,-78.94"/>
<text text-anchor="middle" x="27.55" y="-93.24" font-family="Arial" font-size="14.00">svg&#45;d</text>
</g>
<!-- foreign -->
<g id="node2" class="node">
<title>foreign</title>
<path fill="#afa7f4" stroke="black" d="M84.58,-54.16C84.58,-54.16 118.58,-54.16 118.58,-54.16 124.58,-54.16 130.58,-60.16 130.58,-66.16 130.58,-66.16 130.58,-78.16 130.58,-78.16 130.58,-84.16 124.58,-90.16 118.58,-90.16 118.58,-90.16 84.58,-90.16 84.58,-90.16 78.58,-90.16 72.58,-84.16 72.58,-78.16 72.58,-78.16 72.58,-66.16 72.58,-66.16 72.58,-60.16 78.58,-54.16 84.58,-54.16"/>
<text text-anchor="middle" x="101.58" y="-68.46" font-family="Arial" font-size="14.00">foreign</text>
</g>
<!-- svg&#45;d&#45;&gt;foreign -->
<g id="edge1" class="edge">
<title>svg&#45;d&#45;&gt;foreign</title>
<path fill="none" stroke="#1f78b4" d="M54.7,-87.86C57.31,-86.98 60,-86.08 62.7,-85.18"/>
<polygon fill="#a6cee3" stroke="#1f78b4" points="64.07,-88.41 72.44,-81.91 61.85,-81.77 64.07,-88.41"/>
</g>
<!-- xref -->
<g id="node4" class="node">
<title>xref</title>
<path fill="#afa7f4" stroke="black" d="M11.66,-132.65C11.66,-132.65 41.66,-132.65 41.66,-132.65 47.66,-132.65 53.66,-138.65 53.66,-144.65 53.66,-144.65 53.66,-156.65 53.66,-156.65 53.66,-162.65 47.66,-168.65 41.66,-168.65 41.66,-168.65 11.66,-168.65 11.66,-168.65 5.66,-168.65 -0.34,-162.65 -0.34,-156.65 -0.34,-156.65 -0.34,-144.65 -0.34,-144.65 -0.34,-138.65 5.66,-132.65 11.66,-132.65"/>
<text text-anchor="middle" x="26.66" y="-146.95" font-family="Arial" font-size="14.00">xref</text>
</g>
<!-- svg&#45;d&#45;&gt;xref -->
<g id="edge3" class="edge">
<title>svg&#45;d&#45;&gt;xref</title>
<path fill="none" stroke="#1f78b4" d="M27.25,-115.13C27.21,-117.49 27.17,-119.95 27.13,-122.43"/>
<polygon fill="#a6cee3" stroke="#1f78b4" points="23.63,-122.43 26.96,-132.48 30.63,-122.54 23.63,-122.43"/>
</g>
<!-- svg&#45;container -->
<g id="node3" class="node">
<title>svg&#45;container</title>
<path fill="#1afabc" stroke="black" d="M57.2,-0.62C57.2,-0.62 131.2,-0.62 131.2,-0.62 137.2,-0.62 143.2,-6.62 143.2,-12.62 143.2,-12.62 143.2,-24.62 143.2,-24.62 143.2,-30.62 137.2,-36.62 131.2,-36.62 131.2,-36.62 57.2,-36.62 57.2,-36.62 51.2,-36.62 45.2,-30.62 45.2,-24.62 45.2,-24.62 45.2,-12.62 45.2,-12.62 45.2,-6.62 51.2,-0.62 57.2,-0.62"/>
<text text-anchor="middle" x="94.2" y="-14.92" font-family="Arial" font-size="14.00">svg&#45;container</text>
</g>
<!-- foreign&#45;&gt;svg&#45;container -->
<g id="edge2" class="edge">
<title>foreign&#45;&gt;svg&#45;container</title>
<path fill="none" stroke="#1f78b4" d="M99.08,-54.03C98.75,-51.68 98.41,-49.22 98.07,-46.75"/>
<polygon fill="#a6cee3" stroke="#1f78b4" points="101.52,-46.15 96.69,-36.73 94.59,-47.11 101.52,-46.15"/>
</g>
<!-- svgref -->
<g id="node5" class="node">
<title>svgref</title>
<path fill="#1afabc" stroke="black" d="M93.57,-134.31C93.57,-134.31 123.57,-134.31 123.57,-134.31 129.57,-134.31 135.57,-140.31 135.57,-146.31 135.57,-146.31 135.57,-158.31 135.57,-158.31 135.57,-164.31 129.57,-170.31 123.57,-170.31 123.57,-170.31 93.57,-170.31 93.57,-170.31 87.57,-170.31 81.57,-164.31 81.57,-158.31 81.57,-158.31 81.57,-146.31 81.57,-146.31 81.57,-140.31 87.57,-134.31 93.57,-134.31"/>
<text text-anchor="middle" x="108.57" y="-148.61" font-family="Arial" font-size="14.00">svgref</text>
</g>
<!-- xref&#45;&gt;svgref -->
<g id="edge4" class="edge">
<title>xref&#45;&gt;svgref</title>
<path fill="none" stroke="#1f78b4" d="M53.94,-151.2C59.46,-151.31 65.37,-151.43 71.17,-151.55"/>
<polygon fill="#a6cee3" stroke="#1f78b4" points="71.35,-155.06 81.42,-151.76 71.49,-148.06 71.35,-155.06"/>
</g>
</g>
</svg>
