<?xml version="1.0" encoding="UTF-8" standalone="no"?>
<!DOCTYPE svg PUBLIC "-//W3C//DTD SVG 1.1//EN"
 "http://www.w3.org/Graphics/SVG/1.1/DTD/svg11.dtd">
<!-- Generated by graphviz version 6.0.1 (20220911.1526)
 -->
<!-- Pages: 1 -->
<svg width="272pt" height="296pt"
 viewBox="0.00 0.00 272.00 296.00" xmlns="http://www.w3.org/2000/svg" xmlns:xlink="http://www.w3.org/1999/xlink">
<g id="graph0" class="graph" transform="scale(1 1) rotate(0) translate(4 292)">
<polygon fill="white" stroke="none" points="-4,4 -4,-292 268,-292 268,4 -4,4"/>
<!-- sw&#45;d -->
<g id="node1" class="node">
<title>sw&#45;d</title>
<path fill="#dddddd" stroke="black" d="M113.66,-121.74C113.66,-121.74 143.66,-121.74 143.66,-121.74 149.66,-121.74 155.66,-127.74 155.66,-133.74 155.66,-133.74 155.66,-145.74 155.66,-145.74 155.66,-151.74 149.66,-157.74 143.66,-157.74 143.66,-157.74 113.66,-157.74 113.66,-157.74 107.66,-157.74 101.66,-151.74 101.66,-145.74 101.66,-145.74 101.66,-133.74 101.66,-133.74 101.66,-127.74 107.66,-121.74 113.66,-121.74"/>
<text text-anchor="middle" x="128.66" y="-136.04" font-family="Arial" font-size="14.00">sw&#45;d</text>
</g>
<!-- ph -->
<g id="node2" class="node">
<title>ph</title>
<path fill="#afa7f4" stroke="black" d="M131.05,-205.77C131.05,-205.77 161.05,-205.77 161.05,-205.77 167.05,-205.77 173.05,-211.77 173.05,-217.77 173.05,-217.77 173.05,-229.77 173.05,-229.77 173.05,-235.77 167.05,-241.77 161.05,-241.77 161.05,-241.77 131.05,-241.77 131.05,-241.77 125.05,-241.77 119.05,-235.77 119.05,-229.77 119.05,-229.77 119.05,-217.77 119.05,-217.77 119.05,-211.77 125.05,-205.77 131.05,-205.77"/>
<text text-anchor="middle" x="146.05" y="-220.07" font-family="Arial" font-size="14.00">ph</text>
</g>
<!-- sw&#45;d&#45;&gt;ph -->
<g id="edge1" class="edge">
<title>sw&#45;d&#45;&gt;ph</title>
<path fill="none" stroke="#1f78b4" d="M132.43,-157.97C134.71,-168.98 137.66,-183.25 140.23,-195.68"/>
<polygon fill="#a6cee3" stroke="#1f78b4" points="136.83,-196.49 142.28,-205.57 143.68,-195.07 136.83,-196.49"/>
</g>
<!-- pre -->
<g id="node7" class="node">
<title>pre</title>
<path fill="#afa7f4" stroke="black" d="M48.71,-48.74C48.71,-48.74 78.71,-48.74 78.71,-48.74 84.71,-48.74 90.71,-54.74 90.71,-60.74 90.71,-60.74 90.71,-72.74 90.71,-72.74 90.71,-78.74 84.71,-84.74 78.71,-84.74 78.71,-84.74 48.71,-84.74 48.71,-84.74 42.71,-84.74 36.71,-78.74 36.71,-72.74 36.71,-72.74 36.71,-60.74 36.71,-60.74 36.71,-54.74 42.71,-48.74 48.71,-48.74"/>
<text text-anchor="middle" x="63.71" y="-63.04" font-family="Arial" font-size="14.00">pre</text>
</g>
<!-- sw&#45;d&#45;&gt;pre -->
<g id="edge6" class="edge">
<title>sw&#45;d&#45;&gt;pre</title>
<path fill="none" stroke="#1f78b4" d="M112.61,-121.69C104.72,-112.83 95.09,-102 86.46,-92.31"/>
<polygon fill="#a6cee3" stroke="#1f78b4" points="89.07,-89.98 79.81,-84.83 83.84,-94.63 89.07,-89.98"/>
</g>
<!-- keyword -->
<g id="node9" class="node">
<title>keyword</title>
<path fill="#afa7f4" stroke="black" d="M115.34,-64.62C115.34,-64.62 158.34,-64.62 158.34,-64.62 164.34,-64.62 170.34,-70.62 170.34,-76.62 170.34,-76.62 170.34,-88.62 170.34,-88.62 170.34,-94.62 164.34,-100.62 158.34,-100.62 158.34,-100.62 115.34,-100.62 115.34,-100.62 109.34,-100.62 103.34,-94.62 103.34,-88.62 103.34,-88.62 103.34,-76.62 103.34,-76.62 103.34,-70.62 109.34,-64.62 115.34,-64.62"/>
<text text-anchor="middle" x="136.84" y="-78.92" font-family="Arial" font-size="14.00">keyword</text>
</g>
<!-- sw&#45;d&#45;&gt;keyword -->
<g id="edge8" class="edge">
<title>sw&#45;d&#45;&gt;keyword</title>
<path fill="none" stroke="#1f78b4" d="M131.25,-121.67C131.74,-118.23 132.27,-114.56 132.79,-110.89"/>
<polygon fill="#a6cee3" stroke="#1f78b4" points="136.29,-111.17 134.24,-100.77 129.36,-110.18 136.29,-111.17"/>
</g>
<!-- msgph -->
<g id="node3" class="node">
<title>msgph</title>
<path fill="#1afabc" stroke="black" d="M209.8,-147.37C209.8,-147.37 243.8,-147.37 243.8,-147.37 249.8,-147.37 255.8,-153.37 255.8,-159.37 255.8,-159.37 255.8,-171.37 255.8,-171.37 255.8,-177.37 249.8,-183.37 243.8,-183.37 243.8,-183.37 209.8,-183.37 209.8,-183.37 203.8,-183.37 197.8,-177.37 197.8,-171.37 197.8,-171.37 197.8,-159.37 197.8,-159.37 197.8,-153.37 203.8,-147.37 209.8,-147.37"/>
<text text-anchor="middle" x="226.8" y="-161.67" font-family="Arial" font-size="14.00">msgph</text>
</g>
<!-- ph&#45;&gt;msgph -->
<g id="edge2" class="edge">
<title>ph&#45;&gt;msgph</title>
<path fill="none" stroke="#1f78b4" d="M171.15,-205.61C178.14,-200.56 185.85,-194.99 193.24,-189.64"/>
<polygon fill="#a6cee3" stroke="#1f78b4" points="195.65,-192.21 201.71,-183.52 191.55,-186.54 195.65,-192.21"/>
</g>
<!-- filepath -->
<g id="node4" class="node">
<title>filepath</title>
<path fill="#1afabc" stroke="black" d="M102.98,-251.37C102.98,-251.37 138.98,-251.37 138.98,-251.37 144.98,-251.37 150.98,-257.37 150.98,-263.37 150.98,-263.37 150.98,-275.37 150.98,-275.37 150.98,-281.37 144.98,-287.37 138.98,-287.37 138.98,-287.37 102.98,-287.37 102.98,-287.37 96.98,-287.37 90.98,-281.37 90.98,-275.37 90.98,-275.37 90.98,-263.37 90.98,-263.37 90.98,-257.37 96.98,-251.37 102.98,-251.37"/>
<text text-anchor="middle" x="120.98" y="-265.67" font-family="Arial" font-size="14.00">filepath</text>
</g>
<!-- ph&#45;&gt;filepath -->
<g id="edge3" class="edge">
<title>ph&#45;&gt;filepath</title>
<path fill="none" stroke="#1f78b4" d="M136.14,-241.8C136.03,-241.99 135.93,-242.18 135.82,-242.38"/>
<polygon fill="#a6cee3" stroke="#1f78b4" points="132.73,-240.73 130.98,-251.18 138.87,-244.11 132.73,-240.73"/>
</g>
<!-- userinput -->
<g id="node5" class="node">
<title>userinput</title>
<path fill="#1afabc" stroke="black" d="M203.23,-230.54C203.23,-230.54 251.23,-230.54 251.23,-230.54 257.23,-230.54 263.23,-236.54 263.23,-242.54 263.23,-242.54 263.23,-254.54 263.23,-254.54 263.23,-260.54 257.23,-266.54 251.23,-266.54 251.23,-266.54 203.23,-266.54 203.23,-266.54 197.23,-266.54 191.23,-260.54 191.23,-254.54 191.23,-254.54 191.23,-242.54 191.23,-242.54 191.23,-236.54 197.23,-230.54 203.23,-230.54"/>
<text text-anchor="middle" x="227.23" y="-244.84" font-family="Arial" font-size="14.00">userinput</text>
</g>
<!-- ph&#45;&gt;userinput -->
<g id="edge4" class="edge">
<title>ph&#45;&gt;userinput</title>
<path fill="none" stroke="#1f78b4" d="M173.08,-232.02C175.8,-232.85 178.62,-233.71 181.47,-234.58"/>
<polygon fill="#a6cee3" stroke="#1f78b4" points="180.63,-237.98 191.21,-237.55 182.67,-231.29 180.63,-237.98"/>
</g>
<!-- systemoutput -->
<g id="node6" class="node">
<title>systemoutput</title>
<path fill="#1afabc" stroke="black" d="M16.24,-192.12C16.24,-192.12 90.24,-192.12 90.24,-192.12 96.24,-192.12 102.24,-198.12 102.24,-204.12 102.24,-204.12 102.24,-216.12 102.24,-216.12 102.24,-222.12 96.24,-228.12 90.24,-228.12 90.24,-228.12 16.24,-228.12 16.24,-228.12 10.24,-228.12 4.24,-222.12 4.24,-216.12 4.24,-216.12 4.24,-204.12 4.24,-204.12 4.24,-198.12 10.24,-192.12 16.24,-192.12"/>
<text text-anchor="middle" x="53.24" y="-206.42" font-family="Arial" font-size="14.00">systemoutput</text>
</g>
<!-- ph&#45;&gt;systemoutput -->
<g id="edge5" class="edge">
<title>ph&#45;&gt;systemoutput</title>
<path fill="none" stroke="#1f78b4" d="M118.7,-219.75C116.7,-219.45 114.63,-219.15 112.53,-218.84"/>
<polygon fill="#a6cee3" stroke="#1f78b4" points="112.9,-215.36 102.49,-217.36 111.88,-222.28 112.9,-215.36"/>
</g>
<!-- msgblock -->
<g id="node8" class="node">
<title>msgblock</title>
<path fill="#1afabc" stroke="black" d="M17.64,-0.3C17.64,-0.3 67.64,-0.3 67.64,-0.3 73.64,-0.3 79.64,-6.3 79.64,-12.3 79.64,-12.3 79.64,-24.3 79.64,-24.3 79.64,-30.3 73.64,-36.3 67.64,-36.3 67.64,-36.3 17.64,-36.3 17.64,-36.3 11.64,-36.3 5.64,-30.3 5.64,-24.3 5.64,-24.3 5.64,-12.3 5.64,-12.3 5.64,-6.3 11.64,-0.3 17.64,-0.3"/>
<text text-anchor="middle" x="42.64" y="-14.6" font-family="Arial" font-size="14.00">msgblock</text>
</g>
<!-- pre&#45;&gt;msgblock -->
<g id="edge7" class="edge">
<title>pre&#45;&gt;msgblock</title>
<path fill="none" stroke="#1f78b4" d="M55.86,-48.7C55.49,-47.83 55.1,-46.95 54.72,-46.06"/>
<polygon fill="#a6cee3" stroke="#1f78b4" points="57.76,-44.29 50.56,-36.51 51.34,-47.08 57.76,-44.29"/>
</g>
<!-- msgnum -->
<g id="node10" class="node">
<title>msgnum</title>
<path fill="#1afabc" stroke="black" d="M136.1,-8.31C136.1,-8.31 182.1,-8.31 182.1,-8.31 188.1,-8.31 194.1,-14.31 194.1,-20.31 194.1,-20.31 194.1,-32.31 194.1,-32.31 194.1,-38.31 188.1,-44.31 182.1,-44.31 182.1,-44.31 136.1,-44.31 136.1,-44.31 130.1,-44.31 124.1,-38.31 124.1,-32.31 124.1,-32.31 124.1,-20.31 124.1,-20.31 124.1,-14.31 130.1,-8.31 136.1,-8.31"/>
<text text-anchor="middle" x="159.1" y="-22.61" font-family="Arial" font-size="14.00">msgnum</text>
</g>
<!-- keyword&#45;&gt;msgnum -->
<g id="edge9" class="edge">
<title>keyword&#45;&gt;msgnum</title>
<path fill="none" stroke="#1f78b4" d="M144,-64.5C145.35,-61.08 146.79,-57.44 148.23,-53.81"/>
<polygon fill="#a6cee3" stroke="#1f78b4" points="151.52,-54.99 151.94,-44.4 145.01,-52.42 151.52,-54.99"/>
</g>
<!-- cmdname -->
<g id="node11" class="node">
<title>cmdname</title>
<path fill="#1afabc" stroke="black" d="M198.71,-58.46C198.71,-58.46 251.71,-58.46 251.71,-58.46 257.71,-58.46 263.71,-64.46 263.71,-70.46 263.71,-70.46 263.71,-82.46 263.71,-82.46 263.71,-88.46 257.71,-94.46 251.71,-94.46 251.71,-94.46 198.71,-94.46 198.71,-94.46 192.71,-94.46 186.71,-88.46 186.71,-82.46 186.71,-82.46 186.71,-70.46 186.71,-70.46 186.71,-64.46 192.71,-58.46 198.71,-58.46"/>
<text text-anchor="middle" x="225.21" y="-72.76" font-family="Arial" font-size="14.00">cmdname</text>
</g>
<!-- keyword&#45;&gt;cmdname -->
<g id="edge10" class="edge">
<title>keyword&#45;&gt;cmdname</title>
<path fill="none" stroke="#1f78b4" d="M170.5,-80.28C172.47,-80.14 174.48,-80 176.5,-79.86"/>
<polygon fill="#a6cee3" stroke="#1f78b4" points="176.88,-83.34 186.61,-79.15 176.39,-76.36 176.88,-83.34"/>
</g>
<!-- varname -->
<g id="node12" class="node">
<title>varname</title>
<path fill="#1afabc" stroke="black" d="M11.76,-110.48C11.76,-110.48 57.76,-110.48 57.76,-110.48 63.76,-110.48 69.76,-116.48 69.76,-122.48 69.76,-122.48 69.76,-134.48 69.76,-134.48 69.76,-140.48 63.76,-146.48 57.76,-146.48 57.76,-146.48 11.76,-146.48 11.76,-146.48 5.76,-146.48 -0.24,-140.48 -0.24,-134.48 -0.24,-134.48 -0.24,-122.48 -0.24,-122.48 -0.24,-116.48 5.76,-110.48 11.76,-110.48"/>
<text text-anchor="middle" x="34.76" y="-124.78" font-family="Arial" font-size="14.00">varname</text>
</g>
<!-- keyword&#45;&gt;varname -->
<g id="edge11" class="edge">
<title>keyword&#45;&gt;varname</title>
<path fill="none" stroke="#1f78b4" d="M103.13,-97.77C95.45,-101.22 87.17,-104.94 79.13,-108.55"/>
<polygon fill="#a6cee3" stroke="#1f78b4" points="77.52,-105.44 69.83,-112.73 80.39,-111.82 77.52,-105.44"/>
</g>
</g>
</svg>
