<?xml version="1.0" encoding="UTF-8" standalone="no"?>
<!-- Generated by graphviz version 6.0.1 (20220911.1526)
 -->
<!-- Pages: 1 -->
<svg width="920pt" height="806pt"
 viewBox="0.00 0.00 920.00 806.00" xmlns="http://www.w3.org/2000/svg" xmlns:xlink="http://www.w3.org/1999/xlink">
<g id="graph0" class="graph" transform="scale(1 1) rotate(0) translate(4 802)">
<polygon fill="white" stroke="none" points="-4,4 -4,-802 916,-802 916,4 -4,4"/>
<!-- taskreq&#45;d -->
<g id="node1" class="node">
<title>taskreq&#45;d</title>
<path fill="#dddddd" stroke="black" d="M474.85,-408.96C474.85,-408.96 523.85,-408.96 523.85,-408.96 529.85,-408.96 535.85,-414.96 535.85,-420.96 535.85,-420.96 535.85,-432.96 535.85,-432.96 535.85,-438.96 529.85,-444.96 523.85,-444.96 523.85,-444.96 474.85,-444.96 474.85,-444.96 468.85,-444.96 462.85,-438.96 462.85,-432.96 462.85,-432.96 462.85,-420.96 462.85,-420.96 462.85,-414.96 468.85,-408.96 474.85,-408.96"/>
<text text-anchor="middle" x="499.35" y="-423.26" font-family="Arial" font-size="14.00">taskreq&#45;d</text>
</g>
<!-- prereq -->
<g id="node2" class="node">
<title>prereq</title>
<path fill="#afa7f4" stroke="black" d="M641.22,-324.48C641.22,-324.48 673.22,-324.48 673.22,-324.48 679.22,-324.48 685.22,-330.48 685.22,-336.48 685.22,-336.48 685.22,-348.48 685.22,-348.48 685.22,-354.48 679.22,-360.48 673.22,-360.48 673.22,-360.48 641.22,-360.48 641.22,-360.48 635.22,-360.48 629.22,-354.48 629.22,-348.48 629.22,-348.48 629.22,-336.48 629.22,-336.48 629.22,-330.48 635.22,-324.48 641.22,-324.48"/>
<text text-anchor="middle" x="657.22" y="-338.78" font-family="Arial" font-size="14.00">prereq</text>
</g>
<!-- taskreq&#45;d&#45;&gt;prereq -->
<g id="edge1" class="edge">
<title>taskreq&#45;d&#45;&gt;prereq</title>
<path fill="none" stroke="#1f78b4" d="M533.21,-408.84C558.83,-395.14 593.96,-376.34 620.29,-362.25"/>
<polygon fill="#a6cee3" stroke="#1f78b4" points="622.04,-365.28 629.2,-357.48 618.74,-359.11 622.04,-365.28"/>
</g>
<!-- postreq -->
<g id="node4" class="node">
<title>postreq</title>
<path fill="#afa7f4" stroke="black" d="M488.68,-585.51C488.68,-585.51 526.68,-585.51 526.68,-585.51 532.68,-585.51 538.68,-591.51 538.68,-597.51 538.68,-597.51 538.68,-609.51 538.68,-609.51 538.68,-615.51 532.68,-621.51 526.68,-621.51 526.68,-621.51 488.68,-621.51 488.68,-621.51 482.68,-621.51 476.68,-615.51 476.68,-609.51 476.68,-609.51 476.68,-597.51 476.68,-597.51 476.68,-591.51 482.68,-585.51 488.68,-585.51"/>
<text text-anchor="middle" x="507.68" y="-599.81" font-family="Arial" font-size="14.00">postreq</text>
</g>
<!-- taskreq&#45;d&#45;&gt;postreq -->
<g id="edge3" class="edge">
<title>taskreq&#45;d&#45;&gt;postreq</title>
<path fill="none" stroke="#1f78b4" d="M500.21,-445.19C501.66,-476.06 504.62,-538.84 506.35,-575.38"/>
<polygon fill="#a6cee3" stroke="#1f78b4" points="502.85,-575.56 506.82,-585.38 509.84,-575.23 502.85,-575.56"/>
</g>
<!-- ul -->
<g id="node6" class="node">
<title>ul</title>
<path fill="#afa7f4" stroke="black" d="M568.08,-159.88C568.08,-159.88 598.08,-159.88 598.08,-159.88 604.08,-159.88 610.08,-165.88 610.08,-171.88 610.08,-171.88 610.08,-183.88 610.08,-183.88 610.08,-189.88 604.08,-195.88 598.08,-195.88 598.08,-195.88 568.08,-195.88 568.08,-195.88 562.08,-195.88 556.08,-189.88 556.08,-183.88 556.08,-183.88 556.08,-171.88 556.08,-171.88 556.08,-165.88 562.08,-159.88 568.08,-159.88"/>
<text text-anchor="middle" x="583.08" y="-174.18" font-family="Arial" font-size="14.00">ul</text>
</g>
<!-- taskreq&#45;d&#45;&gt;ul -->
<g id="edge5" class="edge">
<title>taskreq&#45;d&#45;&gt;ul</title>
<path fill="none" stroke="#1f78b4" d="M505.5,-408.65C520.03,-365.45 556.49,-256.98 573.75,-205.64"/>
<polygon fill="#a6cee3" stroke="#1f78b4" points="577.16,-206.48 577.03,-195.89 570.52,-204.25 577.16,-206.48"/>
</g>
<!-- li -->
<g id="node12" class="node">
<title>li</title>
<path fill="#afa7f4" stroke="black" d="M215.1,-486.6C215.1,-486.6 245.1,-486.6 245.1,-486.6 251.1,-486.6 257.1,-492.6 257.1,-498.6 257.1,-498.6 257.1,-510.6 257.1,-510.6 257.1,-516.6 251.1,-522.6 245.1,-522.6 245.1,-522.6 215.1,-522.6 215.1,-522.6 209.1,-522.6 203.1,-516.6 203.1,-510.6 203.1,-510.6 203.1,-498.6 203.1,-498.6 203.1,-492.6 209.1,-486.6 215.1,-486.6"/>
<text text-anchor="middle" x="230.1" y="-500.9" font-family="Arial" font-size="14.00">li</text>
</g>
<!-- taskreq&#45;d&#45;&gt;li -->
<g id="edge11" class="edge">
<title>taskreq&#45;d&#45;&gt;li</title>
<path fill="none" stroke="#1f78b4" d="M462.75,-437.51C411.4,-452.32 318.47,-479.12 266.97,-493.97"/>
<polygon fill="#a6cee3" stroke="#1f78b4" points="265.88,-490.64 257.24,-496.78 267.82,-497.37 265.88,-490.64"/>
</g>
<!-- p -->
<g id="node25" class="node">
<title>p</title>
<path fill="#afa7f4" stroke="black" d="M626.94,-595.53C626.94,-595.53 656.94,-595.53 656.94,-595.53 662.94,-595.53 668.94,-601.53 668.94,-607.53 668.94,-607.53 668.94,-619.53 668.94,-619.53 668.94,-625.53 662.94,-631.53 656.94,-631.53 656.94,-631.53 626.94,-631.53 626.94,-631.53 620.94,-631.53 614.94,-625.53 614.94,-619.53 614.94,-619.53 614.94,-607.53 614.94,-607.53 614.94,-601.53 620.94,-595.53 626.94,-595.53"/>
<text text-anchor="middle" x="641.94" y="-609.83" font-family="Arial" font-size="14.00">p</text>
</g>
<!-- taskreq&#45;d&#45;&gt;p -->
<g id="edge24" class="edge">
<title>taskreq&#45;d&#45;&gt;p</title>
<path fill="none" stroke="#1f78b4" d="M513.28,-445.19C538.69,-478.44 592.63,-549.02 621.95,-587.38"/>
<polygon fill="#a6cee3" stroke="#1f78b4" points="619.31,-589.69 628.16,-595.51 624.87,-585.43 619.31,-589.69"/>
</g>
<!-- data -->
<g id="node29" class="node">
<title>data</title>
<path fill="#afa7f4" stroke="black" d="M706.98,-436.63C706.98,-436.63 736.98,-436.63 736.98,-436.63 742.98,-436.63 748.98,-442.63 748.98,-448.63 748.98,-448.63 748.98,-460.63 748.98,-460.63 748.98,-466.63 742.98,-472.63 736.98,-472.63 736.98,-472.63 706.98,-472.63 706.98,-472.63 700.98,-472.63 694.98,-466.63 694.98,-460.63 694.98,-460.63 694.98,-448.63 694.98,-448.63 694.98,-442.63 700.98,-436.63 706.98,-436.63"/>
<text text-anchor="middle" x="721.98" y="-450.93" font-family="Arial" font-size="14.00">data</text>
</g>
<!-- taskreq&#45;d&#45;&gt;data -->
<g id="edge28" class="edge">
<title>taskreq&#45;d&#45;&gt;data</title>
<path fill="none" stroke="#1f78b4" d="M536.11,-431.53C577.24,-436.64 643.5,-444.88 684.8,-450.01"/>
<polygon fill="#a6cee3" stroke="#1f78b4" points="684.63,-453.52 694.98,-451.28 685.49,-446.57 684.63,-453.52"/>
</g>
<!-- ol -->
<g id="node33" class="node">
<title>ol</title>
<path fill="#afa7f4" stroke="black" d="M413.18,-255.53C413.18,-255.53 443.18,-255.53 443.18,-255.53 449.18,-255.53 455.18,-261.53 455.18,-267.53 455.18,-267.53 455.18,-279.53 455.18,-279.53 455.18,-285.53 449.18,-291.53 443.18,-291.53 443.18,-291.53 413.18,-291.53 413.18,-291.53 407.18,-291.53 401.18,-285.53 401.18,-279.53 401.18,-279.53 401.18,-267.53 401.18,-267.53 401.18,-261.53 407.18,-255.53 413.18,-255.53"/>
<text text-anchor="middle" x="428.18" y="-269.83" font-family="Arial" font-size="14.00">ol</text>
</g>
<!-- taskreq&#45;d&#45;&gt;ol -->
<g id="edge32" class="edge">
<title>taskreq&#45;d&#45;&gt;ol</title>
<path fill="none" stroke="#1f78b4" d="M490.9,-408.76C478.54,-382.11 455.43,-332.28 440.97,-301.12"/>
<polygon fill="#a6cee3" stroke="#1f78b4" points="443.99,-299.31 436.61,-291.71 437.64,-302.25 443.99,-299.31"/>
</g>
<!-- prelreqs -->
<g id="node3" class="node">
<title>prelreqs</title>
<path fill="#1afabc" stroke="black" d="M767.17,-259.47C767.17,-259.47 808.17,-259.47 808.17,-259.47 814.17,-259.47 820.17,-265.47 820.17,-271.47 820.17,-271.47 820.17,-283.47 820.17,-283.47 820.17,-289.47 814.17,-295.47 808.17,-295.47 808.17,-295.47 767.17,-295.47 767.17,-295.47 761.17,-295.47 755.17,-289.47 755.17,-283.47 755.17,-283.47 755.17,-271.47 755.17,-271.47 755.17,-265.47 761.17,-259.47 767.17,-259.47"/>
<text text-anchor="middle" x="787.67" y="-273.77" font-family="Arial" font-size="14.00">prelreqs</text>
</g>
<!-- prereq&#45;&gt;prelreqs -->
<g id="edge2" class="edge">
<title>prereq&#45;&gt;prelreqs</title>
<path fill="none" stroke="#1f78b4" d="M685.53,-328.38C703.12,-319.61 726.06,-308.18 745.75,-298.37"/>
<polygon fill="#a6cee3" stroke="#1f78b4" points="747.43,-301.44 754.82,-293.85 744.31,-295.18 747.43,-301.44"/>
</g>
<!-- closereqs -->
<g id="node5" class="node">
<title>closereqs</title>
<path fill="#1afabc" stroke="black" d="M479.34,-761.28C479.34,-761.28 529.34,-761.28 529.34,-761.28 535.34,-761.28 541.34,-767.28 541.34,-773.28 541.34,-773.28 541.34,-785.28 541.34,-785.28 541.34,-791.28 535.34,-797.28 529.34,-797.28 529.34,-797.28 479.34,-797.28 479.34,-797.28 473.34,-797.28 467.34,-791.28 467.34,-785.28 467.34,-785.28 467.34,-773.28 467.34,-773.28 467.34,-767.28 473.34,-761.28 479.34,-761.28"/>
<text text-anchor="middle" x="504.34" y="-775.58" font-family="Arial" font-size="14.00">closereqs</text>
</g>
<!-- postreq&#45;&gt;closereqs -->
<g id="edge4" class="edge">
<title>postreq&#45;&gt;closereqs</title>
<path fill="none" stroke="#1f78b4" d="M507.33,-621.66C506.75,-652.27 505.58,-714.35 504.88,-750.81"/>
<polygon fill="#a6cee3" stroke="#1f78b4" points="501.38,-751.17 504.69,-761.23 508.38,-751.3 501.38,-751.17"/>
</g>
<!-- reqconds -->
<g id="node7" class="node">
<title>reqconds</title>
<path fill="#1afabc" stroke="black" d="M457.42,-32.58C457.42,-32.58 505.42,-32.58 505.42,-32.58 511.42,-32.58 517.42,-38.58 517.42,-44.58 517.42,-44.58 517.42,-56.58 517.42,-56.58 517.42,-62.58 511.42,-68.58 505.42,-68.58 505.42,-68.58 457.42,-68.58 457.42,-68.58 451.42,-68.58 445.42,-62.58 445.42,-56.58 445.42,-56.58 445.42,-44.58 445.42,-44.58 445.42,-38.58 451.42,-32.58 457.42,-32.58"/>
<text text-anchor="middle" x="481.42" y="-46.88" font-family="Arial" font-size="14.00">reqconds</text>
</g>
<!-- ul&#45;&gt;reqconds -->
<g id="edge6" class="edge">
<title>ul&#45;&gt;reqconds</title>
<path fill="none" stroke="#1f78b4" d="M568.52,-159.64C551.15,-137.9 522.01,-101.4 502.27,-76.68"/>
<polygon fill="#a6cee3" stroke="#1f78b4" points="504.93,-74.41 495.96,-68.78 499.46,-78.78 504.93,-74.41"/>
</g>
<!-- reqpers -->
<g id="node8" class="node">
<title>reqpers</title>
<path fill="#1afabc" stroke="black" d="M698.44,-103.86C698.44,-103.86 736.44,-103.86 736.44,-103.86 742.44,-103.86 748.44,-109.86 748.44,-115.86 748.44,-115.86 748.44,-127.86 748.44,-127.86 748.44,-133.86 742.44,-139.86 736.44,-139.86 736.44,-139.86 698.44,-139.86 698.44,-139.86 692.44,-139.86 686.44,-133.86 686.44,-127.86 686.44,-127.86 686.44,-115.86 686.44,-115.86 686.44,-109.86 692.44,-103.86 698.44,-103.86"/>
<text text-anchor="middle" x="717.44" y="-118.16" font-family="Arial" font-size="14.00">reqpers</text>
</g>
<!-- ul&#45;&gt;reqpers -->
<g id="edge7" class="edge">
<title>ul&#45;&gt;reqpers</title>
<path fill="none" stroke="#1f78b4" d="M610.27,-166.54C629.37,-158.58 655.26,-147.78 676.81,-138.8"/>
<polygon fill="#a6cee3" stroke="#1f78b4" points="678.17,-142.03 686.05,-134.95 675.48,-135.56 678.17,-142.03"/>
</g>
<!-- supeqli -->
<g id="node9" class="node">
<title>supeqli</title>
<path fill="#1afabc" stroke="black" d="M548.57,-4.23C548.57,-4.23 583.57,-4.23 583.57,-4.23 589.57,-4.23 595.57,-10.23 595.57,-16.23 595.57,-16.23 595.57,-28.23 595.57,-28.23 595.57,-34.23 589.57,-40.23 583.57,-40.23 583.57,-40.23 548.57,-40.23 548.57,-40.23 542.57,-40.23 536.57,-34.23 536.57,-28.23 536.57,-28.23 536.57,-16.23 536.57,-16.23 536.57,-10.23 542.57,-4.23 548.57,-4.23"/>
<text text-anchor="middle" x="566.07" y="-18.53" font-family="Arial" font-size="14.00">supeqli</text>
</g>
<!-- ul&#45;&gt;supeqli -->
<g id="edge8" class="edge">
<title>ul&#45;&gt;supeqli</title>
<path fill="none" stroke="#1f78b4" d="M581.1,-159.72C578.15,-132.78 572.6,-81.98 569.13,-50.25"/>
<polygon fill="#a6cee3" stroke="#1f78b4" points="572.61,-49.84 568.04,-40.28 565.65,-50.6 572.61,-49.84"/>
</g>
<!-- supplyli -->
<g id="node10" class="node">
<title>supplyli</title>
<path fill="#1afabc" stroke="black" d="M682.11,-49.75C682.11,-49.75 720.11,-49.75 720.11,-49.75 726.11,-49.75 732.11,-55.75 732.11,-61.75 732.11,-61.75 732.11,-73.75 732.11,-73.75 732.11,-79.75 726.11,-85.75 720.11,-85.75 720.11,-85.75 682.11,-85.75 682.11,-85.75 676.11,-85.75 670.11,-79.75 670.11,-73.75 670.11,-73.75 670.11,-61.75 670.11,-61.75 670.11,-55.75 676.11,-49.75 682.11,-49.75"/>
<text text-anchor="middle" x="701.11" y="-64.05" font-family="Arial" font-size="14.00">supplyli</text>
</g>
<!-- ul&#45;&gt;supplyli -->
<g id="edge9" class="edge">
<title>ul&#45;&gt;supplyli</title>
<path fill="none" stroke="#1f78b4" d="M602.57,-159.69C622.13,-141.44 652.42,-113.18 674.25,-92.81"/>
<polygon fill="#a6cee3" stroke="#1f78b4" points="676.67,-95.34 681.59,-85.96 671.89,-90.22 676.67,-95.34"/>
</g>
<!-- sparesli -->
<g id="node11" class="node">
<title>sparesli</title>
<path fill="#1afabc" stroke="black" d="M615.96,-0.76C615.96,-0.76 654.96,-0.76 654.96,-0.76 660.96,-0.76 666.96,-6.76 666.96,-12.76 666.96,-12.76 666.96,-24.76 666.96,-24.76 666.96,-30.76 660.96,-36.76 654.96,-36.76 654.96,-36.76 615.96,-36.76 615.96,-36.76 609.96,-36.76 603.96,-30.76 603.96,-24.76 603.96,-24.76 603.96,-12.76 603.96,-12.76 603.96,-6.76 609.96,-0.76 615.96,-0.76"/>
<text text-anchor="middle" x="635.46" y="-15.06" font-family="Arial" font-size="14.00">sparesli</text>
</g>
<!-- ul&#45;&gt;sparesli -->
<g id="edge10" class="edge">
<title>ul&#45;&gt;sparesli</title>
<path fill="none" stroke="#1f78b4" d="M589.09,-159.63C598.21,-131.93 615.6,-79.08 626.3,-46.58"/>
<polygon fill="#a6cee3" stroke="#1f78b4" points="629.72,-47.39 629.52,-36.8 623.07,-45.21 629.72,-47.39"/>
</g>
<!-- noconds -->
<g id="node13" class="node">
<title>noconds</title>
<path fill="#1afabc" stroke="black" d="M106.5,-634.61C106.5,-634.61 150.5,-634.61 150.5,-634.61 156.5,-634.61 162.5,-640.61 162.5,-646.61 162.5,-646.61 162.5,-658.61 162.5,-658.61 162.5,-664.61 156.5,-670.61 150.5,-670.61 150.5,-670.61 106.5,-670.61 106.5,-670.61 100.5,-670.61 94.5,-664.61 94.5,-658.61 94.5,-658.61 94.5,-646.61 94.5,-646.61 94.5,-640.61 100.5,-634.61 106.5,-634.61"/>
<text text-anchor="middle" x="128.5" y="-648.91" font-family="Arial" font-size="14.00">noconds</text>
</g>
<!-- li&#45;&gt;noconds -->
<g id="edge12" class="edge">
<title>li&#45;&gt;noconds</title>
<path fill="none" stroke="#1f78b4" d="M217.65,-522.75C199.9,-548.61 167.22,-596.21 146.74,-626.04"/>
<polygon fill="#a6cee3" stroke="#1f78b4" points="143.84,-624.09 141.06,-634.31 149.61,-628.05 143.84,-624.09"/>
</g>
<!-- reqcond -->
<g id="node14" class="node">
<title>reqcond</title>
<path fill="#1afabc" stroke="black" d="M46.69,-410.22C46.69,-410.22 87.69,-410.22 87.69,-410.22 93.69,-410.22 99.69,-416.22 99.69,-422.22 99.69,-422.22 99.69,-434.22 99.69,-434.22 99.69,-440.22 93.69,-446.22 87.69,-446.22 87.69,-446.22 46.69,-446.22 46.69,-446.22 40.69,-446.22 34.69,-440.22 34.69,-434.22 34.69,-434.22 34.69,-422.22 34.69,-422.22 34.69,-416.22 40.69,-410.22 46.69,-410.22"/>
<text text-anchor="middle" x="67.19" y="-424.52" font-family="Arial" font-size="14.00">reqcond</text>
</g>
<!-- li&#45;&gt;reqcond -->
<g id="edge13" class="edge">
<title>li&#45;&gt;reqcond</title>
<path fill="none" stroke="#1f78b4" d="M202.84,-491.82C177.25,-479.82 138.62,-461.71 109.11,-447.88"/>
<polygon fill="#a6cee3" stroke="#1f78b4" points="110.42,-444.62 99.88,-443.55 107.45,-450.96 110.42,-444.62"/>
</g>
<!-- reqcontp -->
<g id="node15" class="node">
<title>reqcontp</title>
<path fill="#1afabc" stroke="black" d="M20.95,-526.3C20.95,-526.3 65.95,-526.3 65.95,-526.3 71.95,-526.3 77.95,-532.3 77.95,-538.3 77.95,-538.3 77.95,-550.3 77.95,-550.3 77.95,-556.3 71.95,-562.3 65.95,-562.3 65.95,-562.3 20.95,-562.3 20.95,-562.3 14.95,-562.3 8.95,-556.3 8.95,-550.3 8.95,-550.3 8.95,-538.3 8.95,-538.3 8.95,-532.3 14.95,-526.3 20.95,-526.3"/>
<text text-anchor="middle" x="43.45" y="-540.6" font-family="Arial" font-size="14.00">reqcontp</text>
</g>
<!-- li&#45;&gt;reqcontp -->
<g id="edge14" class="edge">
<title>li&#45;&gt;reqcontp</title>
<path fill="none" stroke="#1f78b4" d="M202.96,-510.37C172.96,-516.75 124.16,-527.13 88.43,-534.73"/>
<polygon fill="#a6cee3" stroke="#1f78b4" points="87.31,-531.39 78.26,-536.9 88.77,-538.24 87.31,-531.39"/>
</g>
<!-- personnel -->
<g id="node16" class="node">
<title>personnel</title>
<path fill="#1afabc" stroke="black" d="M11.76,-460.35C11.76,-460.35 63.76,-460.35 63.76,-460.35 69.76,-460.35 75.76,-466.35 75.76,-472.35 75.76,-472.35 75.76,-484.35 75.76,-484.35 75.76,-490.35 69.76,-496.35 63.76,-496.35 63.76,-496.35 11.76,-496.35 11.76,-496.35 5.76,-496.35 -0.24,-490.35 -0.24,-484.35 -0.24,-484.35 -0.24,-472.35 -0.24,-472.35 -0.24,-466.35 5.76,-460.35 11.76,-460.35"/>
<text text-anchor="middle" x="37.76" y="-474.65" font-family="Arial" font-size="14.00">personnel</text>
</g>
<!-- li&#45;&gt;personnel -->
<g id="edge15" class="edge">
<title>li&#45;&gt;personnel</title>
<path fill="none" stroke="#1f78b4" d="M202.95,-500.9C172.66,-496.76 123.07,-489.99 86.11,-484.95"/>
<polygon fill="#a6cee3" stroke="#1f78b4" points="86.43,-481.46 76.05,-483.57 85.48,-488.4 86.43,-481.46"/>
</g>
<!-- perscat -->
<g id="node17" class="node">
<title>perscat</title>
<path fill="#1afabc" stroke="black" d="M271.91,-612.67C271.91,-612.67 308.91,-612.67 308.91,-612.67 314.91,-612.67 320.91,-618.67 320.91,-624.67 320.91,-624.67 320.91,-636.67 320.91,-636.67 320.91,-642.67 314.91,-648.67 308.91,-648.67 308.91,-648.67 271.91,-648.67 271.91,-648.67 265.91,-648.67 259.91,-642.67 259.91,-636.67 259.91,-636.67 259.91,-624.67 259.91,-624.67 259.91,-618.67 265.91,-612.67 271.91,-612.67"/>
<text text-anchor="middle" x="290.41" y="-626.97" font-family="Arial" font-size="14.00">perscat</text>
</g>
<!-- li&#45;&gt;perscat -->
<g id="edge16" class="edge">
<title>li&#45;&gt;perscat</title>
<path fill="none" stroke="#1f78b4" d="M238.74,-522.66C248.87,-543.82 265.73,-579.08 277.43,-603.53"/>
<polygon fill="#a6cee3" stroke="#1f78b4" points="274.31,-605.13 281.79,-612.64 280.63,-602.11 274.31,-605.13"/>
</g>
<!-- perskill -->
<g id="node18" class="node">
<title>perskill</title>
<path fill="#1afabc" stroke="black" d="M189.01,-660.71C189.01,-660.71 224.01,-660.71 224.01,-660.71 230.01,-660.71 236.01,-666.71 236.01,-672.71 236.01,-672.71 236.01,-684.71 236.01,-684.71 236.01,-690.71 230.01,-696.71 224.01,-696.71 224.01,-696.71 189.01,-696.71 189.01,-696.71 183.01,-696.71 177.01,-690.71 177.01,-684.71 177.01,-684.71 177.01,-672.71 177.01,-672.71 177.01,-666.71 183.01,-660.71 189.01,-660.71"/>
<text text-anchor="middle" x="206.51" y="-675.01" font-family="Arial" font-size="14.00">perskill</text>
</g>
<!-- li&#45;&gt;perskill -->
<g id="edge17" class="edge">
<title>li&#45;&gt;perskill</title>
<path fill="none" stroke="#1f78b4" d="M227.62,-522.91C223.51,-553.29 215.23,-614.35 210.36,-650.34"/>
<polygon fill="#a6cee3" stroke="#1f78b4" points="206.83,-650.27 208.96,-660.65 213.77,-651.21 206.83,-650.27"/>
</g>
<!-- esttime -->
<g id="node19" class="node">
<title>esttime</title>
<path fill="#1afabc" stroke="black" d="M106.69,-520.59C106.69,-520.59 143.69,-520.59 143.69,-520.59 149.69,-520.59 155.69,-526.59 155.69,-532.59 155.69,-532.59 155.69,-544.59 155.69,-544.59 155.69,-550.59 149.69,-556.59 143.69,-556.59 143.69,-556.59 106.69,-556.59 106.69,-556.59 100.69,-556.59 94.69,-550.59 94.69,-544.59 94.69,-544.59 94.69,-532.59 94.69,-532.59 94.69,-526.59 100.69,-520.59 106.69,-520.59"/>
<text text-anchor="middle" x="125.19" y="-534.89" font-family="Arial" font-size="14.00">esttime</text>
</g>
<!-- li&#45;&gt;esttime -->
<g id="edge18" class="edge">
<title>li&#45;&gt;esttime</title>
<path fill="none" stroke="#1f78b4" d="M203.08,-513.35C191.68,-517.05 178.17,-521.43 165.62,-525.49"/>
<polygon fill="#a6cee3" stroke="#1f78b4" points="164.26,-522.25 155.82,-528.66 166.41,-528.91 164.26,-522.25"/>
</g>
<!-- supequi -->
<g id="node20" class="node">
<title>supequi</title>
<path fill="#1afabc" stroke="black" d="M190.84,-596.54C190.84,-596.54 230.84,-596.54 230.84,-596.54 236.84,-596.54 242.84,-602.54 242.84,-608.54 242.84,-608.54 242.84,-620.54 242.84,-620.54 242.84,-626.54 236.84,-632.54 230.84,-632.54 230.84,-632.54 190.84,-632.54 190.84,-632.54 184.84,-632.54 178.84,-626.54 178.84,-620.54 178.84,-620.54 178.84,-608.54 178.84,-608.54 178.84,-602.54 184.84,-596.54 190.84,-596.54"/>
<text text-anchor="middle" x="210.84" y="-610.84" font-family="Arial" font-size="14.00">supequi</text>
</g>
<!-- li&#45;&gt;supequi -->
<g id="edge19" class="edge">
<title>li&#45;&gt;supequi</title>
<path fill="none" stroke="#1f78b4" d="M226.92,-522.76C223.9,-540.02 219.3,-566.26 215.79,-586.26"/>
<polygon fill="#a6cee3" stroke="#1f78b4" points="212.3,-585.9 214.02,-596.36 219.2,-587.11 212.3,-585.9"/>
</g>
<!-- supply -->
<g id="node21" class="node">
<title>supply</title>
<path fill="#1afabc" stroke="black" d="M114.08,-343.13C114.08,-343.13 146.08,-343.13 146.08,-343.13 152.08,-343.13 158.08,-349.13 158.08,-355.13 158.08,-355.13 158.08,-367.13 158.08,-367.13 158.08,-373.13 152.08,-379.13 146.08,-379.13 146.08,-379.13 114.08,-379.13 114.08,-379.13 108.08,-379.13 102.08,-373.13 102.08,-367.13 102.08,-367.13 102.08,-355.13 102.08,-355.13 102.08,-349.13 108.08,-343.13 114.08,-343.13"/>
<text text-anchor="middle" x="130.08" y="-357.43" font-family="Arial" font-size="14.00">supply</text>
</g>
<!-- li&#45;&gt;supply -->
<g id="edge20" class="edge">
<title>li&#45;&gt;supply</title>
<path fill="none" stroke="#1f78b4" d="M217.44,-486.43C200,-461.42 168.5,-416.23 148.47,-387.5"/>
<polygon fill="#a6cee3" stroke="#1f78b4" points="151.24,-385.35 142.65,-379.15 145.5,-389.35 151.24,-385.35"/>
</g>
<!-- spare -->
<g id="node22" class="node">
<title>spare</title>
<path fill="#1afabc" stroke="black" d="M138.49,-393.99C138.49,-393.99 168.49,-393.99 168.49,-393.99 174.49,-393.99 180.49,-399.99 180.49,-405.99 180.49,-405.99 180.49,-417.99 180.49,-417.99 180.49,-423.99 174.49,-429.99 168.49,-429.99 168.49,-429.99 138.49,-429.99 138.49,-429.99 132.49,-429.99 126.49,-423.99 126.49,-417.99 126.49,-417.99 126.49,-405.99 126.49,-405.99 126.49,-399.99 132.49,-393.99 138.49,-393.99"/>
<text text-anchor="middle" x="153.49" y="-408.29" font-family="Arial" font-size="14.00">spare</text>
</g>
<!-- li&#45;&gt;spare -->
<g id="edge21" class="edge">
<title>li&#45;&gt;spare</title>
<path fill="none" stroke="#1f78b4" d="M214.97,-486.3C203.63,-472.61 187.97,-453.67 175.28,-438.34"/>
<polygon fill="#a6cee3" stroke="#1f78b4" points="177.66,-435.72 168.59,-430.25 172.27,-440.19 177.66,-435.72"/>
</g>
<!-- nosafety -->
<g id="node23" class="node">
<title>nosafety</title>
<path fill="#1afabc" stroke="black" d="M191.61,-334.36C191.61,-334.36 235.61,-334.36 235.61,-334.36 241.61,-334.36 247.61,-340.36 247.61,-346.36 247.61,-346.36 247.61,-358.36 247.61,-358.36 247.61,-364.36 241.61,-370.36 235.61,-370.36 235.61,-370.36 191.61,-370.36 191.61,-370.36 185.61,-370.36 179.61,-364.36 179.61,-358.36 179.61,-358.36 179.61,-346.36 179.61,-346.36 179.61,-340.36 185.61,-334.36 191.61,-334.36"/>
<text text-anchor="middle" x="213.61" y="-348.66" font-family="Arial" font-size="14.00">nosafety</text>
</g>
<!-- li&#45;&gt;nosafety -->
<g id="edge22" class="edge">
<title>li&#45;&gt;nosafety</title>
<path fill="none" stroke="#1f78b4" d="M228.15,-486.54C225.31,-460.33 220.02,-411.51 216.66,-380.54"/>
<polygon fill="#a6cee3" stroke="#1f78b4" points="220.12,-379.96 215.56,-370.4 213.16,-380.72 220.12,-379.96"/>
</g>
<!-- safecond -->
<g id="node24" class="node">
<title>safecond</title>
<path fill="#1afabc" stroke="black" d="M46.84,-588.02C46.84,-588.02 93.84,-588.02 93.84,-588.02 99.84,-588.02 105.84,-594.02 105.84,-600.02 105.84,-600.02 105.84,-612.02 105.84,-612.02 105.84,-618.02 99.84,-624.02 93.84,-624.02 93.84,-624.02 46.84,-624.02 46.84,-624.02 40.84,-624.02 34.84,-618.02 34.84,-612.02 34.84,-612.02 34.84,-600.02 34.84,-600.02 34.84,-594.02 40.84,-588.02 46.84,-588.02"/>
<text text-anchor="middle" x="70.34" y="-602.32" font-family="Arial" font-size="14.00">safecond</text>
</g>
<!-- li&#45;&gt;safecond -->
<g id="edge23" class="edge">
<title>li&#45;&gt;safecond</title>
<path fill="none" stroke="#1f78b4" d="M203,-521.81C176.78,-538.45 136.83,-563.82 107.62,-582.36"/>
<polygon fill="#a6cee3" stroke="#1f78b4" points="105.49,-579.56 98.93,-587.88 109.25,-585.47 105.49,-579.56"/>
</g>
<!-- supequip -->
<g id="node26" class="node">
<title>supequip</title>
<path fill="#1afabc" stroke="black" d="M752.53,-669.66C752.53,-669.66 799.53,-669.66 799.53,-669.66 805.53,-669.66 811.53,-675.66 811.53,-681.66 811.53,-681.66 811.53,-693.66 811.53,-693.66 811.53,-699.66 805.53,-705.66 799.53,-705.66 799.53,-705.66 752.53,-705.66 752.53,-705.66 746.53,-705.66 740.53,-699.66 740.53,-693.66 740.53,-693.66 740.53,-681.66 740.53,-681.66 740.53,-675.66 746.53,-669.66 752.53,-669.66"/>
<text text-anchor="middle" x="776.03" y="-683.96" font-family="Arial" font-size="14.00">supequip</text>
</g>
<!-- p&#45;&gt;supequip -->
<g id="edge25" class="edge">
<title>p&#45;&gt;supequip</title>
<path fill="none" stroke="#1f78b4" d="M669.07,-628.53C687.82,-638.9 713.12,-652.88 734.4,-664.65"/>
<polygon fill="#a6cee3" stroke="#1f78b4" points="732.8,-667.76 743.25,-669.54 736.19,-661.64 732.8,-667.76"/>
</g>
<!-- supplies -->
<g id="node27" class="node">
<title>supplies</title>
<path fill="#1afabc" stroke="black" d="M708.53,-719.48C708.53,-719.48 750.53,-719.48 750.53,-719.48 756.53,-719.48 762.53,-725.48 762.53,-731.48 762.53,-731.48 762.53,-743.48 762.53,-743.48 762.53,-749.48 756.53,-755.48 750.53,-755.48 750.53,-755.48 708.53,-755.48 708.53,-755.48 702.53,-755.48 696.53,-749.48 696.53,-743.48 696.53,-743.48 696.53,-731.48 696.53,-731.48 696.53,-725.48 702.53,-719.48 708.53,-719.48"/>
<text text-anchor="middle" x="729.53" y="-733.78" font-family="Arial" font-size="14.00">supplies</text>
</g>
<!-- p&#45;&gt;supplies -->
<g id="edge26" class="edge">
<title>p&#45;&gt;supplies</title>
<path fill="none" stroke="#1f78b4" d="M654.67,-631.56C669.47,-652.48 693.99,-687.19 710.92,-711.14"/>
<polygon fill="#a6cee3" stroke="#1f78b4" points="708.15,-713.29 716.78,-719.43 713.87,-709.25 708.15,-713.29"/>
</g>
<!-- spares -->
<g id="node28" class="node">
<title>spares</title>
<path fill="#1afabc" stroke="black" d="M634.38,-740.96C634.38,-740.96 667.38,-740.96 667.38,-740.96 673.38,-740.96 679.38,-746.96 679.38,-752.96 679.38,-752.96 679.38,-764.96 679.38,-764.96 679.38,-770.96 673.38,-776.96 667.38,-776.96 667.38,-776.96 634.38,-776.96 634.38,-776.96 628.38,-776.96 622.38,-770.96 622.38,-764.96 622.38,-764.96 622.38,-752.96 622.38,-752.96 622.38,-746.96 628.38,-740.96 634.38,-740.96"/>
<text text-anchor="middle" x="650.88" y="-755.26" font-family="Arial" font-size="14.00">spares</text>
</g>
<!-- p&#45;&gt;spares -->
<g id="edge27" class="edge">
<title>p&#45;&gt;spares</title>
<path fill="none" stroke="#1f78b4" d="M643.05,-631.66C644.58,-656.48 647.33,-701.29 649.14,-730.58"/>
<polygon fill="#a6cee3" stroke="#1f78b4" points="645.64,-730.84 649.75,-740.61 652.63,-730.41 645.64,-730.84"/>
</g>
<!-- nosupeq -->
<g id="node30" class="node">
<title>nosupeq</title>
<path fill="#1afabc" stroke="black" d="M841.94,-385.31C841.94,-385.31 885.94,-385.31 885.94,-385.31 891.94,-385.31 897.94,-391.31 897.94,-397.31 897.94,-397.31 897.94,-409.31 897.94,-409.31 897.94,-415.31 891.94,-421.31 885.94,-421.31 885.94,-421.31 841.94,-421.31 841.94,-421.31 835.94,-421.31 829.94,-415.31 829.94,-409.31 829.94,-409.31 829.94,-397.31 829.94,-397.31 829.94,-391.31 835.94,-385.31 841.94,-385.31"/>
<text text-anchor="middle" x="863.94" y="-399.61" font-family="Arial" font-size="14.00">nosupeq</text>
</g>
<!-- data&#45;&gt;nosupeq -->
<g id="edge29" class="edge">
<title>data&#45;&gt;nosupeq</title>
<path fill="none" stroke="#1f78b4" d="M749.02,-444.86C769.08,-437.61 796.86,-427.56 820.08,-419.17"/>
<polygon fill="#a6cee3" stroke="#1f78b4" points="821.5,-422.37 829.72,-415.68 819.12,-415.79 821.5,-422.37"/>
</g>
<!-- nosupply -->
<g id="node31" class="node">
<title>nosupply</title>
<path fill="#1afabc" stroke="black" d="M826.82,-517.99C826.82,-517.99 873.82,-517.99 873.82,-517.99 879.82,-517.99 885.82,-523.99 885.82,-529.99 885.82,-529.99 885.82,-541.99 885.82,-541.99 885.82,-547.99 879.82,-553.99 873.82,-553.99 873.82,-553.99 826.82,-553.99 826.82,-553.99 820.82,-553.99 814.82,-547.99 814.82,-541.99 814.82,-541.99 814.82,-529.99 814.82,-529.99 814.82,-523.99 820.82,-517.99 826.82,-517.99"/>
<text text-anchor="middle" x="850.32" y="-532.29" font-family="Arial" font-size="14.00">nosupply</text>
</g>
<!-- data&#45;&gt;nosupply -->
<g id="edge30" class="edge">
<title>data&#45;&gt;nosupply</title>
<path fill="none" stroke="#1f78b4" d="M749.2,-471.89C767.87,-483.72 792.87,-499.57 813.34,-512.55"/>
<polygon fill="#a6cee3" stroke="#1f78b4" points="811.49,-515.52 821.81,-517.92 815.24,-509.61 811.49,-515.52"/>
</g>
<!-- nospares -->
<g id="node32" class="node">
<title>nospares</title>
<path fill="#1afabc" stroke="black" d="M852.48,-453.53C852.48,-453.53 900.48,-453.53 900.48,-453.53 906.48,-453.53 912.48,-459.53 912.48,-465.53 912.48,-465.53 912.48,-477.53 912.48,-477.53 912.48,-483.53 906.48,-489.53 900.48,-489.53 900.48,-489.53 852.48,-489.53 852.48,-489.53 846.48,-489.53 840.48,-483.53 840.48,-477.53 840.48,-477.53 840.48,-465.53 840.48,-465.53 840.48,-459.53 846.48,-453.53 852.48,-453.53"/>
<text text-anchor="middle" x="876.48" y="-467.83" font-family="Arial" font-size="14.00">nospares</text>
</g>
<!-- data&#45;&gt;nospares -->
<g id="edge31" class="edge">
<title>data&#45;&gt;nospares</title>
<path fill="none" stroke="#1f78b4" d="M749.25,-457.62C771.58,-460.06 803.68,-463.57 830.04,-466.45"/>
<polygon fill="#a6cee3" stroke="#1f78b4" points="829.89,-469.96 840.21,-467.56 830.65,-463 829.89,-469.96"/>
</g>
<!-- safety -->
<g id="node34" class="node">
<title>safety</title>
<path fill="#1afabc" stroke="black" d="M333.13,-118C333.13,-118 363.13,-118 363.13,-118 369.13,-118 375.13,-124 375.13,-130 375.13,-130 375.13,-142 375.13,-142 375.13,-148 369.13,-154 363.13,-154 363.13,-154 333.13,-154 333.13,-154 327.13,-154 321.13,-148 321.13,-142 321.13,-142 321.13,-130 321.13,-130 321.13,-124 327.13,-118 333.13,-118"/>
<text text-anchor="middle" x="348.13" y="-132.3" font-family="Arial" font-size="14.00">safety</text>
</g>
<!-- ol&#45;&gt;safety -->
<g id="edge33" class="edge">
<title>ol&#45;&gt;safety</title>
<path fill="none" stroke="#1f78b4" d="M417.55,-255.27C403.79,-231.63 379.72,-190.26 363.85,-163"/>
<polygon fill="#a6cee3" stroke="#1f78b4" points="366.86,-161.22 358.81,-154.34 360.81,-164.74 366.86,-161.22"/>
</g>
</g>
</svg>
