<?xml version="1.0" encoding="UTF-8" standalone="no"?>
<!DOCTYPE svg PUBLIC "-//W3C//DTD SVG 1.1//EN"
 "http://www.w3.org/Graphics/SVG/1.1/DTD/svg11.dtd">
<!-- Generated by graphviz version 6.0.1 (20220911.1526)
 -->
<!-- Pages: 1 -->
<svg width="315pt" height="222pt"
 viewBox="0.00 0.00 315.00 222.00" xmlns="http://www.w3.org/2000/svg" xmlns:xlink="http://www.w3.org/1999/xlink">
<g id="graph0" class="graph" transform="scale(1 1) rotate(0) translate(4 218)">
<polygon fill="white" stroke="none" points="-4,4 -4,-218 311,-218 311,4 -4,4"/>
<!-- ui&#45;d -->
<g id="node1" class="node">
<title>ui&#45;d</title>
<path fill="#dddddd" stroke="black" d="M122.62,-74.2C122.62,-74.2 152.62,-74.2 152.62,-74.2 158.62,-74.2 164.62,-80.2 164.62,-86.2 164.62,-86.2 164.62,-98.2 164.62,-98.2 164.62,-104.2 158.62,-110.2 152.62,-110.2 152.62,-110.2 122.62,-110.2 122.62,-110.2 116.62,-110.2 110.62,-104.2 110.62,-98.2 110.62,-98.2 110.62,-86.2 110.62,-86.2 110.62,-80.2 116.62,-74.2 122.62,-74.2"/>
<text text-anchor="middle" x="137.62" y="-88.5" font-family="Arial" font-size="14.00">ui&#45;d</text>
</g>
<!-- ph -->
<g id="node2" class="node">
<title>ph</title>
<path fill="#afa7f4" stroke="black" d="M186.84,-117.15C186.84,-117.15 216.84,-117.15 216.84,-117.15 222.84,-117.15 228.84,-123.15 228.84,-129.15 228.84,-129.15 228.84,-141.15 228.84,-141.15 228.84,-147.15 222.84,-153.15 216.84,-153.15 216.84,-153.15 186.84,-153.15 186.84,-153.15 180.84,-153.15 174.84,-147.15 174.84,-141.15 174.84,-141.15 174.84,-129.15 174.84,-129.15 174.84,-123.15 180.84,-117.15 186.84,-117.15"/>
<text text-anchor="middle" x="201.84" y="-131.45" font-family="Arial" font-size="14.00">ph</text>
</g>
<!-- ui&#45;d&#45;&gt;ph -->
<g id="edge1" class="edge">
<title>ui&#45;d&#45;&gt;ph</title>
<path fill="none" stroke="#1f78b4" d="M164.86,-110.42C165.37,-110.76 165.88,-111.1 166.4,-111.45"/>
<polygon fill="#a6cee3" stroke="#1f78b4" points="164.51,-114.4 174.77,-117.05 168.4,-108.58 164.51,-114.4"/>
</g>
<!-- keyword -->
<g id="node5" class="node">
<title>keyword</title>
<path fill="#afa7f4" stroke="black" d="M89.08,-127.5C89.08,-127.5 132.08,-127.5 132.08,-127.5 138.08,-127.5 144.08,-133.5 144.08,-139.5 144.08,-139.5 144.08,-151.5 144.08,-151.5 144.08,-157.5 138.08,-163.5 132.08,-163.5 132.08,-163.5 89.08,-163.5 89.08,-163.5 83.08,-163.5 77.08,-157.5 77.08,-151.5 77.08,-151.5 77.08,-139.5 77.08,-139.5 77.08,-133.5 83.08,-127.5 89.08,-127.5"/>
<text text-anchor="middle" x="110.58" y="-141.8" font-family="Arial" font-size="14.00">keyword</text>
</g>
<!-- ui&#45;d&#45;&gt;keyword -->
<g id="edge4" class="edge">
<title>ui&#45;d&#45;&gt;keyword</title>
<path fill="none" stroke="#1f78b4" d="M128.46,-110.25C127.14,-112.85 125.76,-115.58 124.37,-118.31"/>
<polygon fill="#a6cee3" stroke="#1f78b4" points="121.13,-116.97 119.72,-127.48 127.37,-120.14 121.13,-116.97"/>
</g>
<!-- pre -->
<g id="node8" class="node">
<title>pre</title>
<path fill="#afa7f4" stroke="black" d="M187.84,-27.54C187.84,-27.54 217.84,-27.54 217.84,-27.54 223.84,-27.54 229.84,-33.54 229.84,-39.54 229.84,-39.54 229.84,-51.54 229.84,-51.54 229.84,-57.54 223.84,-63.54 217.84,-63.54 217.84,-63.54 187.84,-63.54 187.84,-63.54 181.84,-63.54 175.84,-57.54 175.84,-51.54 175.84,-51.54 175.84,-39.54 175.84,-39.54 175.84,-33.54 181.84,-27.54 187.84,-27.54"/>
<text text-anchor="middle" x="202.84" y="-41.84" font-family="Arial" font-size="14.00">pre</text>
</g>
<!-- ui&#45;d&#45;&gt;pre -->
<g id="edge7" class="edge">
<title>ui&#45;d&#45;&gt;pre</title>
<path fill="none" stroke="#1f78b4" d="M163.02,-74.03C164.94,-72.66 166.89,-71.26 168.85,-69.86"/>
<polygon fill="#a6cee3" stroke="#1f78b4" points="171.3,-72.41 177.4,-63.74 167.23,-66.71 171.3,-72.41"/>
</g>
<!-- uicontrol -->
<g id="node3" class="node">
<title>uicontrol</title>
<path fill="#1afabc" stroke="black" d="M250.76,-94.49C250.76,-94.49 294.76,-94.49 294.76,-94.49 300.76,-94.49 306.76,-100.49 306.76,-106.49 306.76,-106.49 306.76,-118.49 306.76,-118.49 306.76,-124.49 300.76,-130.49 294.76,-130.49 294.76,-130.49 250.76,-130.49 250.76,-130.49 244.76,-130.49 238.76,-124.49 238.76,-118.49 238.76,-118.49 238.76,-106.49 238.76,-106.49 238.76,-100.49 244.76,-94.49 250.76,-94.49"/>
<text text-anchor="middle" x="272.76" y="-108.79" font-family="Arial" font-size="14.00">uicontrol</text>
</g>
<!-- ph&#45;&gt;uicontrol -->
<g id="edge2" class="edge">
<title>ph&#45;&gt;uicontrol</title>
<path fill="none" stroke="#1f78b4" d="M229.06,-126.45C229.16,-126.42 229.26,-126.39 229.35,-126.36"/>
<polygon fill="#a6cee3" stroke="#1f78b4" points="230.14,-129.78 238.6,-123.4 228.01,-123.11 230.14,-129.78"/>
</g>
<!-- menucascade -->
<g id="node4" class="node">
<title>menucascade</title>
<path fill="#1afabc" stroke="black" d="M167.04,-168.12C167.04,-168.12 244.04,-168.12 244.04,-168.12 250.04,-168.12 256.04,-174.12 256.04,-180.12 256.04,-180.12 256.04,-192.12 256.04,-192.12 256.04,-198.12 250.04,-204.12 244.04,-204.12 244.04,-204.12 167.04,-204.12 167.04,-204.12 161.04,-204.12 155.04,-198.12 155.04,-192.12 155.04,-192.12 155.04,-180.12 155.04,-180.12 155.04,-174.12 161.04,-168.12 167.04,-168.12"/>
<text text-anchor="middle" x="205.54" y="-182.42" font-family="Arial" font-size="14.00">menucascade</text>
</g>
<!-- ph&#45;&gt;menucascade -->
<g id="edge3" class="edge">
<title>ph&#45;&gt;menucascade</title>
<path fill="none" stroke="#1f78b4" d="M203.16,-153.26C203.27,-154.77 203.38,-156.31 203.49,-157.86"/>
<polygon fill="#a6cee3" stroke="#1f78b4" points="200.02,-158.34 204.23,-168.06 207,-157.84 200.02,-158.34"/>
</g>
<!-- wintitle -->
<g id="node6" class="node">
<title>wintitle</title>
<path fill="#1afabc" stroke="black" d="M60.72,-177.15C60.72,-177.15 94.72,-177.15 94.72,-177.15 100.72,-177.15 106.72,-183.15 106.72,-189.15 106.72,-189.15 106.72,-201.15 106.72,-201.15 106.72,-207.15 100.72,-213.15 94.72,-213.15 94.72,-213.15 60.72,-213.15 60.72,-213.15 54.72,-213.15 48.72,-207.15 48.72,-201.15 48.72,-201.15 48.72,-189.15 48.72,-189.15 48.72,-183.15 54.72,-177.15 60.72,-177.15"/>
<text text-anchor="middle" x="77.72" y="-191.45" font-family="Arial" font-size="14.00">wintitle</text>
</g>
<!-- keyword&#45;&gt;wintitle -->
<g id="edge5" class="edge">
<title>keyword&#45;&gt;wintitle</title>
<path fill="none" stroke="#1f78b4" d="M98.53,-163.71C97.55,-165.19 96.54,-166.71 95.53,-168.24"/>
<polygon fill="#a6cee3" stroke="#1f78b4" points="92.37,-166.67 89.77,-176.94 98.21,-170.54 92.37,-166.67"/>
</g>
<!-- shortcut -->
<g id="node7" class="node">
<title>shortcut</title>
<path fill="#1afabc" stroke="black" d="M12.12,-79.15C12.12,-79.15 53.12,-79.15 53.12,-79.15 59.12,-79.15 65.12,-85.15 65.12,-91.15 65.12,-91.15 65.12,-103.15 65.12,-103.15 65.12,-109.15 59.12,-115.15 53.12,-115.15 53.12,-115.15 12.12,-115.15 12.12,-115.15 6.12,-115.15 0.12,-109.15 0.12,-103.15 0.12,-103.15 0.12,-91.15 0.12,-91.15 0.12,-85.15 6.12,-79.15 12.12,-79.15"/>
<text text-anchor="middle" x="32.62" y="-93.45" font-family="Arial" font-size="14.00">shortcut</text>
</g>
<!-- keyword&#45;&gt;shortcut -->
<g id="edge6" class="edge">
<title>keyword&#45;&gt;shortcut</title>
<path fill="none" stroke="#1f78b4" d="M81.55,-127.5C77.89,-125.23 74.12,-122.89 70.35,-120.56"/>
<polygon fill="#a6cee3" stroke="#1f78b4" points="72.01,-117.47 61.67,-115.17 68.32,-123.42 72.01,-117.47"/>
</g>
<!-- screen -->
<g id="node9" class="node">
<title>screen</title>
<path fill="#1afabc" stroke="black" d="M103.36,-0.96C103.36,-0.96 136.36,-0.96 136.36,-0.96 142.36,-0.96 148.36,-6.96 148.36,-12.96 148.36,-12.96 148.36,-24.96 148.36,-24.96 148.36,-30.96 142.36,-36.96 136.36,-36.96 136.36,-36.96 103.36,-36.96 103.36,-36.96 97.36,-36.96 91.36,-30.96 91.36,-24.96 91.36,-24.96 91.36,-12.96 91.36,-12.96 91.36,-6.96 97.36,-0.96 103.36,-0.96"/>
<text text-anchor="middle" x="119.86" y="-15.26" font-family="Arial" font-size="14.00">screen</text>
</g>
<!-- pre&#45;&gt;screen -->
<g id="edge8" class="edge">
<title>pre&#45;&gt;screen</title>
<path fill="none" stroke="#1f78b4" d="M175.67,-36.84C170.1,-35.05 164.13,-33.14 158.25,-31.26"/>
<polygon fill="#a6cee3" stroke="#1f78b4" points="159.11,-27.86 148.52,-28.14 156.97,-34.52 159.11,-27.86"/>
</g>
</g>
</svg>
