<?xml version="1.0" encoding="UTF-8" standalone="no"?>
<!DOCTYPE svg PUBLIC "-//W3C//DTD SVG 1.1//EN"
 "http://www.w3.org/Graphics/SVG/1.1/DTD/svg11.dtd">
<!-- Generated by graphviz version 6.0.1 (20220911.1526)
 -->
<!-- Pages: 1 -->
<svg width="328pt" height="292pt"
 viewBox="0.00 0.00 328.00 292.00" xmlns="http://www.w3.org/2000/svg" xmlns:xlink="http://www.w3.org/1999/xlink">
<g id="graph0" class="graph" transform="scale(1 1) rotate(0) translate(4 288)">
<polygon fill="white" stroke="none" points="-4,4 -4,-288 324,-288 324,4 -4,4"/>
<!-- ut&#45;d -->
<g id="node1" class="node">
<title>ut&#45;d</title>
<path fill="#dddddd" stroke="black" d="M162.33,-104.07C162.33,-104.07 192.33,-104.07 192.33,-104.07 198.33,-104.07 204.33,-110.07 204.33,-116.07 204.33,-116.07 204.33,-128.07 204.33,-128.07 204.33,-134.07 198.33,-140.07 192.33,-140.07 192.33,-140.07 162.33,-140.07 162.33,-140.07 156.33,-140.07 150.33,-134.07 150.33,-128.07 150.33,-128.07 150.33,-116.07 150.33,-116.07 150.33,-110.07 156.33,-104.07 162.33,-104.07"/>
<text text-anchor="middle" x="177.33" y="-118.37" font-family="Arial" font-size="14.00">ut&#45;d</text>
</g>
<!-- fig -->
<g id="node2" class="node">
<title>fig</title>
<path fill="#afa7f4" stroke="black" d="M234.41,-139.85C234.41,-139.85 264.41,-139.85 264.41,-139.85 270.41,-139.85 276.41,-145.85 276.41,-151.85 276.41,-151.85 276.41,-163.85 276.41,-163.85 276.41,-169.85 270.41,-175.85 264.41,-175.85 264.41,-175.85 234.41,-175.85 234.41,-175.85 228.41,-175.85 222.41,-169.85 222.41,-163.85 222.41,-163.85 222.41,-151.85 222.41,-151.85 222.41,-145.85 228.41,-139.85 234.41,-139.85"/>
<text text-anchor="middle" x="249.41" y="-154.15" font-family="Arial" font-size="14.00">fig</text>
</g>
<!-- ut&#45;d&#45;&gt;fig -->
<g id="edge1" class="edge">
<title>ut&#45;d&#45;&gt;fig</title>
<path fill="none" stroke="#1f78b4" d="M204.58,-135.59C207.36,-136.97 210.21,-138.39 213.07,-139.81"/>
<polygon fill="#a6cee3" stroke="#1f78b4" points="211.61,-142.99 222.12,-144.3 214.72,-136.72 211.61,-142.99"/>
</g>
<!-- figgroup -->
<g id="node4" class="node">
<title>figgroup</title>
<path fill="#afa7f4" stroke="black" d="M118.15,-187.08C118.15,-187.08 159.15,-187.08 159.15,-187.08 165.15,-187.08 171.15,-193.08 171.15,-199.08 171.15,-199.08 171.15,-211.08 171.15,-211.08 171.15,-217.08 165.15,-223.08 159.15,-223.08 159.15,-223.08 118.15,-223.08 118.15,-223.08 112.15,-223.08 106.15,-217.08 106.15,-211.08 106.15,-211.08 106.15,-199.08 106.15,-199.08 106.15,-193.08 112.15,-187.08 118.15,-187.08"/>
<text text-anchor="middle" x="138.65" y="-201.38" font-family="Arial" font-size="14.00">figgroup</text>
</g>
<!-- ut&#45;d&#45;&gt;figgroup -->
<g id="edge3" class="edge">
<title>ut&#45;d&#45;&gt;figgroup</title>
<path fill="none" stroke="#1f78b4" d="M168.93,-140.08C163.85,-150.99 157.26,-165.13 151.53,-177.44"/>
<polygon fill="#a6cee3" stroke="#1f78b4" points="148.21,-176.27 147.16,-186.81 154.55,-179.23 148.21,-176.27"/>
</g>
<!-- keyword -->
<g id="node6" class="node">
<title>keyword</title>
<path fill="#afa7f4" stroke="black" d="M82.1,-126.55C82.1,-126.55 125.1,-126.55 125.1,-126.55 131.1,-126.55 137.1,-132.55 137.1,-138.55 137.1,-138.55 137.1,-150.55 137.1,-150.55 137.1,-156.55 131.1,-162.55 125.1,-162.55 125.1,-162.55 82.1,-162.55 82.1,-162.55 76.1,-162.55 70.1,-156.55 70.1,-150.55 70.1,-150.55 70.1,-138.55 70.1,-138.55 70.1,-132.55 76.1,-126.55 82.1,-126.55"/>
<text text-anchor="middle" x="103.6" y="-140.85" font-family="Arial" font-size="14.00">keyword</text>
</g>
<!-- ut&#45;d&#45;&gt;keyword -->
<g id="edge5" class="edge">
<title>ut&#45;d&#45;&gt;keyword</title>
<path fill="none" stroke="#1f78b4" d="M150.29,-130.31C149.22,-130.64 148.14,-130.97 147.06,-131.3"/>
<polygon fill="#a6cee3" stroke="#1f78b4" points="145.7,-128.05 137.15,-134.32 147.74,-134.75 145.7,-128.05"/>
</g>
<!-- ph -->
<g id="node8" class="node">
<title>ph</title>
<path fill="#afa7f4" stroke="black" d="M234.25,-71.67C234.25,-71.67 264.25,-71.67 264.25,-71.67 270.25,-71.67 276.25,-77.67 276.25,-83.67 276.25,-83.67 276.25,-95.67 276.25,-95.67 276.25,-101.67 270.25,-107.67 264.25,-107.67 264.25,-107.67 234.25,-107.67 234.25,-107.67 228.25,-107.67 222.25,-101.67 222.25,-95.67 222.25,-95.67 222.25,-83.67 222.25,-83.67 222.25,-77.67 228.25,-71.67 234.25,-71.67"/>
<text text-anchor="middle" x="249.25" y="-85.97" font-family="Arial" font-size="14.00">ph</text>
</g>
<!-- ut&#45;d&#45;&gt;ph -->
<g id="edge7" class="edge">
<title>ut&#45;d&#45;&gt;ph</title>
<path fill="none" stroke="#1f78b4" d="M204.52,-109.82C207.2,-108.61 209.96,-107.37 212.72,-106.13"/>
<polygon fill="#a6cee3" stroke="#1f78b4" points="214.34,-109.23 222.02,-101.94 211.47,-102.85 214.34,-109.23"/>
</g>
<!-- data -->
<g id="node10" class="node">
<title>data</title>
<path fill="#afa7f4" stroke="black" d="M148.61,-41.69C148.61,-41.69 178.61,-41.69 178.61,-41.69 184.61,-41.69 190.61,-47.69 190.61,-53.69 190.61,-53.69 190.61,-65.69 190.61,-65.69 190.61,-71.69 184.61,-77.69 178.61,-77.69 178.61,-77.69 148.61,-77.69 148.61,-77.69 142.61,-77.69 136.61,-71.69 136.61,-65.69 136.61,-65.69 136.61,-53.69 136.61,-53.69 136.61,-47.69 142.61,-41.69 148.61,-41.69"/>
<text text-anchor="middle" x="163.61" y="-55.99" font-family="Arial" font-size="14.00">data</text>
</g>
<!-- ut&#45;d&#45;&gt;data -->
<g id="edge9" class="edge">
<title>ut&#45;d&#45;&gt;data</title>
<path fill="none" stroke="#1f78b4" d="M173.36,-104.02C172.26,-99.03 171.04,-93.47 169.85,-88.04"/>
<polygon fill="#a6cee3" stroke="#1f78b4" points="173.18,-86.92 167.62,-77.91 166.35,-88.42 173.18,-86.92"/>
</g>
<!-- imagemap -->
<g id="node3" class="node">
<title>imagemap</title>
<path fill="#1afabc" stroke="black" d="M250.75,-187.34C250.75,-187.34 307.75,-187.34 307.75,-187.34 313.75,-187.34 319.75,-193.34 319.75,-199.34 319.75,-199.34 319.75,-211.34 319.75,-211.34 319.75,-217.34 313.75,-223.34 307.75,-223.34 307.75,-223.34 250.75,-223.34 250.75,-223.34 244.75,-223.34 238.75,-217.34 238.75,-211.34 238.75,-211.34 238.75,-199.34 238.75,-199.34 238.75,-193.34 244.75,-187.34 250.75,-187.34"/>
<text text-anchor="middle" x="279.25" y="-201.64" font-family="Arial" font-size="14.00">imagemap</text>
</g>
<!-- fig&#45;&gt;imagemap -->
<g id="edge2" class="edge">
<title>fig&#45;&gt;imagemap</title>
<path fill="none" stroke="#1f78b4" d="M260.86,-176.07C261.36,-176.87 261.87,-177.68 262.38,-178.5"/>
<polygon fill="#a6cee3" stroke="#1f78b4" points="259.59,-180.63 267.88,-187.24 265.52,-176.91 259.59,-180.63"/>
</g>
<!-- area -->
<g id="node5" class="node">
<title>area</title>
<path fill="#1afabc" stroke="black" d="M169.32,-247.98C169.32,-247.98 199.32,-247.98 199.32,-247.98 205.32,-247.98 211.32,-253.98 211.32,-259.98 211.32,-259.98 211.32,-271.98 211.32,-271.98 211.32,-277.98 205.32,-283.98 199.32,-283.98 199.32,-283.98 169.32,-283.98 169.32,-283.98 163.32,-283.98 157.32,-277.98 157.32,-271.98 157.32,-271.98 157.32,-259.98 157.32,-259.98 157.32,-253.98 163.32,-247.98 169.32,-247.98"/>
<text text-anchor="middle" x="184.32" y="-262.28" font-family="Arial" font-size="14.00">area</text>
</g>
<!-- figgroup&#45;&gt;area -->
<g id="edge4" class="edge">
<title>figgroup&#45;&gt;area</title>
<path fill="none" stroke="#1f78b4" d="M152.35,-223.35C156.14,-228.41 160.34,-234 164.41,-239.43"/>
<polygon fill="#a6cee3" stroke="#1f78b4" points="161.83,-241.82 170.63,-247.72 167.43,-237.62 161.83,-241.82"/>
</g>
<!-- shape -->
<g id="node7" class="node">
<title>shape</title>
<path fill="#1afabc" stroke="black" d="M12.44,-92.4C12.44,-92.4 42.44,-92.4 42.44,-92.4 48.44,-92.4 54.44,-98.4 54.44,-104.4 54.44,-104.4 54.44,-116.4 54.44,-116.4 54.44,-122.4 48.44,-128.4 42.44,-128.4 42.44,-128.4 12.44,-128.4 12.44,-128.4 6.44,-128.4 0.44,-122.4 0.44,-116.4 0.44,-116.4 0.44,-104.4 0.44,-104.4 0.44,-98.4 6.44,-92.4 12.44,-92.4"/>
<text text-anchor="middle" x="27.44" y="-106.7" font-family="Arial" font-size="14.00">shape</text>
</g>
<!-- keyword&#45;&gt;shape -->
<g id="edge6" class="edge">
<title>keyword&#45;&gt;shape</title>
<path fill="none" stroke="#1f78b4" d="M69.97,-129.47C68.06,-128.61 66.13,-127.75 64.21,-126.89"/>
<polygon fill="#a6cee3" stroke="#1f78b4" points="65.28,-123.53 54.72,-122.63 62.42,-129.92 65.28,-123.53"/>
</g>
<!-- coords -->
<g id="node9" class="node">
<title>coords</title>
<path fill="#1afabc" stroke="black" d="M239.75,-16.92C239.75,-16.92 272.75,-16.92 272.75,-16.92 278.75,-16.92 284.75,-22.92 284.75,-28.92 284.75,-28.92 284.75,-40.92 284.75,-40.92 284.75,-46.92 278.75,-52.92 272.75,-52.92 272.75,-52.92 239.75,-52.92 239.75,-52.92 233.75,-52.92 227.75,-46.92 227.75,-40.92 227.75,-40.92 227.75,-28.92 227.75,-28.92 227.75,-22.92 233.75,-16.92 239.75,-16.92"/>
<text text-anchor="middle" x="256.25" y="-31.22" font-family="Arial" font-size="14.00">coords</text>
</g>
<!-- ph&#45;&gt;coords -->
<g id="edge8" class="edge">
<title>ph&#45;&gt;coords</title>
<path fill="none" stroke="#1f78b4" d="M251.58,-71.44C251.92,-68.79 252.28,-66.01 252.63,-63.22"/>
<polygon fill="#a6cee3" stroke="#1f78b4" points="256.11,-63.62 253.91,-53.26 249.17,-62.74 256.11,-63.62"/>
</g>
<!-- sort&#45;as -->
<g id="node11" class="node">
<title>sort&#45;as</title>
<path fill="#1afabc" stroke="black" d="M66.4,-0.82C66.4,-0.82 100.4,-0.82 100.4,-0.82 106.4,-0.82 112.4,-6.82 112.4,-12.82 112.4,-12.82 112.4,-24.82 112.4,-24.82 112.4,-30.82 106.4,-36.82 100.4,-36.82 100.4,-36.82 66.4,-36.82 66.4,-36.82 60.4,-36.82 54.4,-30.82 54.4,-24.82 54.4,-24.82 54.4,-12.82 54.4,-12.82 54.4,-6.82 60.4,-0.82 66.4,-0.82"/>
<text text-anchor="middle" x="83.4" y="-15.12" font-family="Arial" font-size="14.00">sort&#45;as</text>
</g>
<!-- data&#45;&gt;sort&#45;as -->
<g id="edge10" class="edge">
<title>data&#45;&gt;sort&#45;as</title>
<path fill="none" stroke="#1f78b4" d="M136.46,-45.85C131.63,-43.39 126.52,-40.79 121.45,-38.21"/>
<polygon fill="#a6cee3" stroke="#1f78b4" points="122.95,-35.04 112.45,-33.62 119.77,-41.28 122.95,-35.04"/>
</g>
</g>
</svg>
