<?xml version="1.0" encoding="UTF-8" standalone="no"?>
<!DOCTYPE svg PUBLIC "-//W3C//DTD SVG 1.1//EN"
 "http://www.w3.org/Graphics/SVG/1.1/DTD/svg11.dtd">
<!-- Generated by graphviz version 6.0.1 (20220911.1526)
 -->
<!-- Pages: 1 -->
<svg width="335pt" height="255pt"
 viewBox="0.00 0.00 335.00 255.00" xmlns="http://www.w3.org/2000/svg" xmlns:xlink="http://www.w3.org/1999/xlink">
<g id="graph0" class="graph" transform="scale(1 1) rotate(0) translate(4 251)">
<polygon fill="white" stroke="none" points="-4,4 -4,-251 331,-251 331,4 -4,4"/>
<!-- xml&#45;d -->
<g id="node1" class="node">
<title>xml&#45;d</title>
<path fill="#dddddd" stroke="black" d="M12.2,-126.01C12.2,-126.01 42.2,-126.01 42.2,-126.01 48.2,-126.01 54.2,-132.01 54.2,-138.01 54.2,-138.01 54.2,-150.01 54.2,-150.01 54.2,-156.01 48.2,-162.01 42.2,-162.01 42.2,-162.01 12.2,-162.01 12.2,-162.01 6.2,-162.01 0.2,-156.01 0.2,-150.01 0.2,-150.01 0.2,-138.01 0.2,-138.01 0.2,-132.01 6.2,-126.01 12.2,-126.01"/>
<text text-anchor="middle" x="27.2" y="-140.31" font-family="Arial" font-size="14.00">xml&#45;d</text>
</g>
<!-- markupname -->
<g id="node2" class="node">
<title>markupname</title>
<path fill="#afa7f4" stroke="black" d="M113.76,-114.78C113.76,-114.78 186.76,-114.78 186.76,-114.78 192.76,-114.78 198.76,-120.78 198.76,-126.78 198.76,-126.78 198.76,-138.78 198.76,-138.78 198.76,-144.78 192.76,-150.78 186.76,-150.78 186.76,-150.78 113.76,-150.78 113.76,-150.78 107.76,-150.78 101.76,-144.78 101.76,-138.78 101.76,-138.78 101.76,-126.78 101.76,-126.78 101.76,-120.78 107.76,-114.78 113.76,-114.78"/>
<text text-anchor="middle" x="150.26" y="-129.08" font-family="Arial" font-size="14.00">markupname</text>
</g>
<!-- xml&#45;d&#45;&gt;markupname -->
<g id="edge1" class="edge">
<title>xml&#45;d&#45;&gt;markupname</title>
<path fill="none" stroke="#1f78b4" d="M54.21,-141.55C65.15,-140.55 78.25,-139.35 91.2,-138.17"/>
<polygon fill="#a6cee3" stroke="#1f78b4" points="91.87,-141.63 101.51,-137.23 91.23,-134.65 91.87,-141.63"/>
</g>
<!-- numcharref -->
<g id="node3" class="node">
<title>numcharref</title>
<path fill="#1afabc" stroke="black" d="M200.69,-0.62C200.69,-0.62 262.69,-0.62 262.69,-0.62 268.69,-0.62 274.69,-6.62 274.69,-12.62 274.69,-12.62 274.69,-24.62 274.69,-24.62 274.69,-30.62 268.69,-36.62 262.69,-36.62 262.69,-36.62 200.69,-36.62 200.69,-36.62 194.69,-36.62 188.69,-30.62 188.69,-24.62 188.69,-24.62 188.69,-12.62 188.69,-12.62 188.69,-6.62 194.69,-0.62 200.69,-0.62"/>
<text text-anchor="middle" x="231.69" y="-14.92" font-family="Arial" font-size="14.00">numcharref</text>
</g>
<!-- markupname&#45;&gt;numcharref -->
<g id="edge2" class="edge">
<title>markupname&#45;&gt;numcharref</title>
<path fill="none" stroke="#1f78b4" d="M163.17,-114.69C176.57,-95.91 197.67,-66.32 212.92,-44.94"/>
<polygon fill="#a6cee3" stroke="#1f78b4" points="215.89,-46.8 218.85,-36.62 210.2,-42.73 215.89,-46.8"/>
</g>
<!-- parameterentity -->
<g id="node4" class="node">
<title>parameterentity</title>
<path fill="#1afabc" stroke="black" d="M120.43,-160C120.43,-160 207.43,-160 207.43,-160 213.43,-160 219.43,-166 219.43,-172 219.43,-172 219.43,-184 219.43,-184 219.43,-190 213.43,-196 207.43,-196 207.43,-196 120.43,-196 120.43,-196 114.43,-196 108.43,-190 108.43,-184 108.43,-184 108.43,-172 108.43,-172 108.43,-166 114.43,-160 120.43,-160"/>
<text text-anchor="middle" x="163.93" y="-174.3" font-family="Arial" font-size="14.00">parameterentity</text>
</g>
<!-- markupname&#45;&gt;parameterentity -->
<g id="edge3" class="edge">
<title>markupname&#45;&gt;parameterentity</title>
<path fill="none" stroke="#1f78b4" d="M155.74,-150.91C155.77,-151.01 155.8,-151.1 155.83,-151.19"/>
<polygon fill="#a6cee3" stroke="#1f78b4" points="152.21,-151.31 158.45,-159.87 158.91,-149.28 152.21,-151.31"/>
</g>
<!-- textentity -->
<g id="node5" class="node">
<title>textentity</title>
<path fill="#1afabc" stroke="black" d="M246.41,-173.29C246.41,-173.29 293.41,-173.29 293.41,-173.29 299.41,-173.29 305.41,-179.29 305.41,-185.29 305.41,-185.29 305.41,-197.29 305.41,-197.29 305.41,-203.29 299.41,-209.29 293.41,-209.29 293.41,-209.29 246.41,-209.29 246.41,-209.29 240.41,-209.29 234.41,-203.29 234.41,-197.29 234.41,-197.29 234.41,-185.29 234.41,-185.29 234.41,-179.29 240.41,-173.29 246.41,-173.29"/>
<text text-anchor="middle" x="269.91" y="-187.59" font-family="Arial" font-size="14.00">textentity</text>
</g>
<!-- markupname&#45;&gt;textentity -->
<g id="edge4" class="edge">
<title>markupname&#45;&gt;textentity</title>
<path fill="none" stroke="#1f78b4" d="M187.14,-150.82C199.06,-156.65 212.43,-163.18 224.88,-169.27"/>
<polygon fill="#a6cee3" stroke="#1f78b4" points="223.66,-172.57 234.18,-173.82 226.74,-166.29 223.66,-172.57"/>
</g>
<!-- xmlatt -->
<g id="node6" class="node">
<title>xmlatt</title>
<path fill="#1afabc" stroke="black" d="M61,-210.07C61,-210.07 91,-210.07 91,-210.07 97,-210.07 103,-216.07 103,-222.07 103,-222.07 103,-234.07 103,-234.07 103,-240.07 97,-246.07 91,-246.07 91,-246.07 61,-246.07 61,-246.07 55,-246.07 49,-240.07 49,-234.07 49,-234.07 49,-222.07 49,-222.07 49,-216.07 55,-210.07 61,-210.07"/>
<text text-anchor="middle" x="76" y="-224.37" font-family="Arial" font-size="14.00">xmlatt</text>
</g>
<!-- markupname&#45;&gt;xmlatt -->
<g id="edge5" class="edge">
<title>markupname&#45;&gt;xmlatt</title>
<path fill="none" stroke="#1f78b4" d="M135.94,-151.16C124.74,-165.52 109.03,-185.69 96.49,-201.77"/>
<polygon fill="#a6cee3" stroke="#1f78b4" points="93.66,-199.71 90.27,-209.75 99.18,-204.02 93.66,-199.71"/>
</g>
<!-- xmlelement -->
<g id="node7" class="node">
<title>xmlelement</title>
<path fill="#1afabc" stroke="black" d="M110.59,-68.35C110.59,-68.35 173.59,-68.35 173.59,-68.35 179.59,-68.35 185.59,-74.35 185.59,-80.35 185.59,-80.35 185.59,-92.35 185.59,-92.35 185.59,-98.35 179.59,-104.35 173.59,-104.35 173.59,-104.35 110.59,-104.35 110.59,-104.35 104.59,-104.35 98.59,-98.35 98.59,-92.35 98.59,-92.35 98.59,-80.35 98.59,-80.35 98.59,-74.35 104.59,-68.35 110.59,-68.35"/>
<text text-anchor="middle" x="142.09" y="-82.65" font-family="Arial" font-size="14.00">xmlelement</text>
</g>
<!-- markupname&#45;&gt;xmlelement -->
<g id="edge6" class="edge">
<title>markupname&#45;&gt;xmlelement</title>
<path fill="none" stroke="#1f78b4" d="M147.08,-114.7C147.06,-114.59 147.04,-114.49 147.02,-114.38"/>
<polygon fill="#a6cee3" stroke="#1f78b4" points="150.46,-113.71 145.28,-104.46 143.56,-114.92 150.46,-113.71"/>
</g>
<!-- xmlnsname -->
<g id="node8" class="node">
<title>xmlnsname</title>
<path fill="#1afabc" stroke="black" d="M252.19,-79.46C252.19,-79.46 315.19,-79.46 315.19,-79.46 321.19,-79.46 327.19,-85.46 327.19,-91.46 327.19,-91.46 327.19,-103.46 327.19,-103.46 327.19,-109.46 321.19,-115.46 315.19,-115.46 315.19,-115.46 252.19,-115.46 252.19,-115.46 246.19,-115.46 240.19,-109.46 240.19,-103.46 240.19,-103.46 240.19,-91.46 240.19,-91.46 240.19,-85.46 246.19,-79.46 252.19,-79.46"/>
<text text-anchor="middle" x="283.69" y="-93.76" font-family="Arial" font-size="14.00">xmlnsname</text>
</g>
<!-- markupname&#45;&gt;xmlnsname -->
<g id="edge7" class="edge">
<title>markupname&#45;&gt;xmlnsname</title>
<path fill="none" stroke="#1f78b4" d="M198.81,-119.93C208.98,-117.24 219.75,-114.39 230.09,-111.65"/>
<polygon fill="#a6cee3" stroke="#1f78b4" points="231.06,-115.01 239.83,-109.07 229.27,-108.25 231.06,-115.01"/>
</g>
<!-- xmlpi -->
<g id="node9" class="node">
<title>xmlpi</title>
<path fill="#1afabc" stroke="black" d="M37.05,-35.05C37.05,-35.05 67.05,-35.05 67.05,-35.05 73.05,-35.05 79.05,-41.05 79.05,-47.05 79.05,-47.05 79.05,-59.05 79.05,-59.05 79.05,-65.05 73.05,-71.05 67.05,-71.05 67.05,-71.05 37.05,-71.05 37.05,-71.05 31.05,-71.05 25.05,-65.05 25.05,-59.05 25.05,-59.05 25.05,-47.05 25.05,-47.05 25.05,-41.05 31.05,-35.05 37.05,-35.05"/>
<text text-anchor="middle" x="52.05" y="-49.35" font-family="Arial" font-size="14.00">xmlpi</text>
</g>
<!-- markupname&#45;&gt;xmlpi -->
<g id="edge8" class="edge">
<title>markupname&#45;&gt;xmlpi</title>
<path fill="none" stroke="#1f78b4" d="M127.98,-114.69C114.41,-103.68 96.92,-89.47 82.13,-77.47"/>
<polygon fill="#a6cee3" stroke="#1f78b4" points="84.22,-74.65 74.25,-71.07 79.8,-80.09 84.22,-74.65"/>
</g>
</g>
</svg>
