<?xml version="1.0" encoding="UTF-8" standalone="no"?>
<!DOCTYPE svg PUBLIC "-//W3C//DTD SVG 1.1//EN"
 "http://www.w3.org/Graphics/SVG/1.1/DTD/svg11.dtd">
<!-- Generated by graphviz version 6.0.1 (20220911.1526)
 -->
<!-- Pages: 1 -->
<svg width="1020pt" height="684pt"
 viewBox="0.00 0.00 1020.00 684.00" xmlns="http://www.w3.org/2000/svg" xmlns:xlink="http://www.w3.org/1999/xlink">
<g id="graph0" class="graph" transform="scale(1 1) rotate(0) translate(4 680)">
<polygon fill="white" stroke="none" points="-4,4 -4,-680 1016,-680 1016,4 -4,4"/>
<!-- xnal&#45;d -->
<g id="node1" class="node">
<title>xnal&#45;d</title>
<path fill="#dddddd" stroke="black" d="M520.99,-293.03C520.99,-293.03 550.99,-293.03 550.99,-293.03 556.99,-293.03 562.99,-299.03 562.99,-305.03 562.99,-305.03 562.99,-317.03 562.99,-317.03 562.99,-323.03 556.99,-329.03 550.99,-329.03 550.99,-329.03 520.99,-329.03 520.99,-329.03 514.99,-329.03 508.99,-323.03 508.99,-317.03 508.99,-317.03 508.99,-305.03 508.99,-305.03 508.99,-299.03 514.99,-293.03 520.99,-293.03"/>
<text text-anchor="middle" x="535.99" y="-307.33" font-family="Arial" font-size="14.00">xnal&#45;d</text>
</g>
<!-- author -->
<g id="node2" class="node">
<title>author</title>
<path fill="#afa7f4" stroke="black" d="M629.97,-164.95C629.97,-164.95 660.97,-164.95 660.97,-164.95 666.97,-164.95 672.97,-170.95 672.97,-176.95 672.97,-176.95 672.97,-188.95 672.97,-188.95 672.97,-194.95 666.97,-200.95 660.97,-200.95 660.97,-200.95 629.97,-200.95 629.97,-200.95 623.97,-200.95 617.97,-194.95 617.97,-188.95 617.97,-188.95 617.97,-176.95 617.97,-176.95 617.97,-170.95 623.97,-164.95 629.97,-164.95"/>
<text text-anchor="middle" x="645.47" y="-179.25" font-family="Arial" font-size="14.00">author</text>
</g>
<!-- xnal&#45;d&#45;&gt;author -->
<g id="edge1" class="edge">
<title>xnal&#45;d&#45;&gt;author</title>
<path fill="none" stroke="#1f78b4" d="M551.45,-292.95C570.17,-271.05 601.84,-233.99 623.2,-209"/>
<polygon fill="#a6cee3" stroke="#1f78b4" points="625.9,-211.23 629.74,-201.35 620.58,-206.68 625.9,-211.23"/>
</g>
<!-- data -->
<g id="node4" class="node">
<title>data</title>
<path fill="#afa7f4" stroke="black" d="M248.67,-202.67C248.67,-202.67 278.67,-202.67 278.67,-202.67 284.67,-202.67 290.67,-208.67 290.67,-214.67 290.67,-214.67 290.67,-226.67 290.67,-226.67 290.67,-232.67 284.67,-238.67 278.67,-238.67 278.67,-238.67 248.67,-238.67 248.67,-238.67 242.67,-238.67 236.67,-232.67 236.67,-226.67 236.67,-226.67 236.67,-214.67 236.67,-214.67 236.67,-208.67 242.67,-202.67 248.67,-202.67"/>
<text text-anchor="middle" x="263.67" y="-216.97" font-family="Arial" font-size="14.00">data</text>
</g>
<!-- xnal&#45;d&#45;&gt;data -->
<g id="edge3" class="edge">
<title>xnal&#45;d&#45;&gt;data</title>
<path fill="none" stroke="#1f78b4" d="M508.89,-302.04C459.87,-285.78 356.45,-251.46 300.87,-233.01"/>
<polygon fill="#a6cee3" stroke="#1f78b4" points="301.66,-229.59 291.07,-229.76 299.46,-236.23 301.66,-229.59"/>
</g>
<!-- ph -->
<g id="node21" class="node">
<title>ph</title>
<path fill="#afa7f4" stroke="black" d="M733.91,-427.01C733.91,-427.01 763.91,-427.01 763.91,-427.01 769.91,-427.01 775.91,-433.01 775.91,-439.01 775.91,-439.01 775.91,-451.01 775.91,-451.01 775.91,-457.01 769.91,-463.01 763.91,-463.01 763.91,-463.01 733.91,-463.01 733.91,-463.01 727.91,-463.01 721.91,-457.01 721.91,-451.01 721.91,-451.01 721.91,-439.01 721.91,-439.01 721.91,-433.01 727.91,-427.01 733.91,-427.01"/>
<text text-anchor="middle" x="748.91" y="-441.31" font-family="Arial" font-size="14.00">ph</text>
</g>
<!-- xnal&#45;d&#45;&gt;ph -->
<g id="edge20" class="edge">
<title>xnal&#45;d&#45;&gt;ph</title>
<path fill="none" stroke="#1f78b4" d="M563.39,-328.28C601.56,-352.29 670.79,-395.85 713.03,-422.44"/>
<polygon fill="#a6cee3" stroke="#1f78b4" points="711.29,-425.47 721.62,-427.84 715.02,-419.55 711.29,-425.47"/>
</g>
<!-- authorinformation -->
<g id="node3" class="node">
<title>authorinformation</title>
<path fill="#1afabc" stroke="black" d="M719.24,-12.75C719.24,-12.75 817.24,-12.75 817.24,-12.75 823.24,-12.75 829.24,-18.75 829.24,-24.75 829.24,-24.75 829.24,-36.75 829.24,-36.75 829.24,-42.75 823.24,-48.75 817.24,-48.75 817.24,-48.75 719.24,-48.75 719.24,-48.75 713.24,-48.75 707.24,-42.75 707.24,-36.75 707.24,-36.75 707.24,-24.75 707.24,-24.75 707.24,-18.75 713.24,-12.75 719.24,-12.75"/>
<text text-anchor="middle" x="768.24" y="-27.05" font-family="Arial" font-size="14.00">authorinformation</text>
</g>
<!-- author&#45;&gt;authorinformation -->
<g id="edge2" class="edge">
<title>author&#45;&gt;authorinformation</title>
<path fill="none" stroke="#1f78b4" d="M660.03,-164.89C681.63,-138.12 722.27,-87.74 747.13,-56.92"/>
<polygon fill="#a6cee3" stroke="#1f78b4" points="750.14,-58.77 753.69,-48.78 744.69,-54.37 750.14,-58.77"/>
</g>
<!-- namedetails -->
<g id="node5" class="node">
<title>namedetails</title>
<path fill="#1afabc" stroke="black" d="M344.56,-315.34C344.56,-315.34 410.56,-315.34 410.56,-315.34 416.56,-315.34 422.56,-321.34 422.56,-327.34 422.56,-327.34 422.56,-339.34 422.56,-339.34 422.56,-345.34 416.56,-351.34 410.56,-351.34 410.56,-351.34 344.56,-351.34 344.56,-351.34 338.56,-351.34 332.56,-345.34 332.56,-339.34 332.56,-339.34 332.56,-327.34 332.56,-327.34 332.56,-321.34 338.56,-315.34 344.56,-315.34"/>
<text text-anchor="middle" x="377.56" y="-329.64" font-family="Arial" font-size="14.00">namedetails</text>
</g>
<!-- data&#45;&gt;namedetails -->
<g id="edge4" class="edge">
<title>data&#45;&gt;namedetails</title>
<path fill="none" stroke="#1f78b4" d="M281.96,-238.77C300.98,-257.58 330.87,-287.15 352.16,-308.22"/>
<polygon fill="#a6cee3" stroke="#1f78b4" points="349.73,-310.74 359.3,-315.28 354.66,-305.76 349.73,-310.74"/>
</g>
<!-- personname -->
<g id="node6" class="node">
<title>personname</title>
<path fill="#1afabc" stroke="black" d="M173.25,-389.73C173.25,-389.73 241.25,-389.73 241.25,-389.73 247.25,-389.73 253.25,-395.73 253.25,-401.73 253.25,-401.73 253.25,-413.73 253.25,-413.73 253.25,-419.73 247.25,-425.73 241.25,-425.73 241.25,-425.73 173.25,-425.73 173.25,-425.73 167.25,-425.73 161.25,-419.73 161.25,-413.73 161.25,-413.73 161.25,-401.73 161.25,-401.73 161.25,-395.73 167.25,-389.73 173.25,-389.73"/>
<text text-anchor="middle" x="207.25" y="-404.03" font-family="Arial" font-size="14.00">personname</text>
</g>
<!-- data&#45;&gt;personname -->
<g id="edge5" class="edge">
<title>data&#45;&gt;personname</title>
<path fill="none" stroke="#1f78b4" d="M258.15,-238.95C248.23,-271.86 227.29,-341.26 215.6,-380.04"/>
<polygon fill="#a6cee3" stroke="#1f78b4" points="212.24,-379.07 212.7,-389.65 218.94,-381.09 212.24,-379.07"/>
</g>
<!-- honorific -->
<g id="node7" class="node">
<title>honorific</title>
<path fill="#1afabc" stroke="black" d="M214.43,-51.55C214.43,-51.55 258.43,-51.55 258.43,-51.55 264.43,-51.55 270.43,-57.55 270.43,-63.55 270.43,-63.55 270.43,-75.55 270.43,-75.55 270.43,-81.55 264.43,-87.55 258.43,-87.55 258.43,-87.55 214.43,-87.55 214.43,-87.55 208.43,-87.55 202.43,-81.55 202.43,-75.55 202.43,-75.55 202.43,-63.55 202.43,-63.55 202.43,-57.55 208.43,-51.55 214.43,-51.55"/>
<text text-anchor="middle" x="236.43" y="-65.85" font-family="Arial" font-size="14.00">honorific</text>
</g>
<!-- data&#45;&gt;honorific -->
<g id="edge6" class="edge">
<title>data&#45;&gt;honorific</title>
<path fill="none" stroke="#1f78b4" d="M260.38,-202.44C255.7,-176.46 247.06,-128.54 241.54,-97.9"/>
<polygon fill="#a6cee3" stroke="#1f78b4" points="244.94,-97.07 239.73,-87.85 238.06,-98.31 244.94,-97.07"/>
</g>
<!-- firstname -->
<g id="node8" class="node">
<title>firstname</title>
<path fill="#1afabc" stroke="black" d="M296.3,-23.76C296.3,-23.76 345.3,-23.76 345.3,-23.76 351.3,-23.76 357.3,-29.76 357.3,-35.76 357.3,-35.76 357.3,-47.76 357.3,-47.76 357.3,-53.76 351.3,-59.76 345.3,-59.76 345.3,-59.76 296.3,-59.76 296.3,-59.76 290.3,-59.76 284.3,-53.76 284.3,-47.76 284.3,-47.76 284.3,-35.76 284.3,-35.76 284.3,-29.76 290.3,-23.76 296.3,-23.76"/>
<text text-anchor="middle" x="320.8" y="-38.06" font-family="Arial" font-size="14.00">firstname</text>
</g>
<!-- data&#45;&gt;firstname -->
<g id="edge7" class="edge">
<title>data&#45;&gt;firstname</title>
<path fill="none" stroke="#1f78b4" d="M269.46,-202.53C279.47,-171.19 300.06,-106.69 311.9,-69.62"/>
<polygon fill="#a6cee3" stroke="#1f78b4" points="315.29,-70.54 314.99,-59.95 308.62,-68.41 315.29,-70.54"/>
</g>
<!-- middlename -->
<g id="node9" class="node">
<title>middlename</title>
<path fill="#1afabc" stroke="black" d="M51.55,-176.68C51.55,-176.68 119.55,-176.68 119.55,-176.68 125.55,-176.68 131.55,-182.68 131.55,-188.68 131.55,-188.68 131.55,-200.68 131.55,-200.68 131.55,-206.68 125.55,-212.68 119.55,-212.68 119.55,-212.68 51.55,-212.68 51.55,-212.68 45.55,-212.68 39.55,-206.68 39.55,-200.68 39.55,-200.68 39.55,-188.68 39.55,-188.68 39.55,-182.68 45.55,-176.68 51.55,-176.68"/>
<text text-anchor="middle" x="85.55" y="-190.98" font-family="Arial" font-size="14.00">middlename</text>
</g>
<!-- data&#45;&gt;middlename -->
<g id="edge8" class="edge">
<title>data&#45;&gt;middlename</title>
<path fill="none" stroke="#1f78b4" d="M236.61,-216.72C211.5,-213.06 173.32,-207.49 141.63,-202.87"/>
<polygon fill="#a6cee3" stroke="#1f78b4" points="142,-199.38 131.59,-201.4 140.98,-206.31 142,-199.38"/>
</g>
<!-- lastname -->
<g id="node10" class="node">
<title>lastname</title>
<path fill="#1afabc" stroke="black" d="M127.46,-71.84C127.46,-71.84 175.46,-71.84 175.46,-71.84 181.46,-71.84 187.46,-77.84 187.46,-83.84 187.46,-83.84 187.46,-95.84 187.46,-95.84 187.46,-101.84 181.46,-107.84 175.46,-107.84 175.46,-107.84 127.46,-107.84 127.46,-107.84 121.46,-107.84 115.46,-101.84 115.46,-95.84 115.46,-95.84 115.46,-83.84 115.46,-83.84 115.46,-77.84 121.46,-71.84 127.46,-71.84"/>
<text text-anchor="middle" x="151.46" y="-86.14" font-family="Arial" font-size="14.00">lastname</text>
</g>
<!-- data&#45;&gt;lastname -->
<g id="edge9" class="edge">
<title>data&#45;&gt;lastname</title>
<path fill="none" stroke="#1f78b4" d="M248.06,-202.48C228.72,-179.92 195.62,-141.33 173.64,-115.7"/>
<polygon fill="#a6cee3" stroke="#1f78b4" points="176.1,-113.19 166.93,-107.87 170.78,-117.74 176.1,-113.19"/>
</g>
<!-- generationidentifier -->
<g id="node11" class="node">
<title>generationidentifier</title>
<path fill="#1afabc" stroke="black" d="M144.76,-0.56C144.76,-0.56 251.76,-0.56 251.76,-0.56 257.76,-0.56 263.76,-6.56 263.76,-12.56 263.76,-12.56 263.76,-24.56 263.76,-24.56 263.76,-30.56 257.76,-36.56 251.76,-36.56 251.76,-36.56 144.76,-36.56 144.76,-36.56 138.76,-36.56 132.76,-30.56 132.76,-24.56 132.76,-24.56 132.76,-12.56 132.76,-12.56 132.76,-6.56 138.76,-0.56 144.76,-0.56"/>
<text text-anchor="middle" x="198.26" y="-14.86" font-family="Arial" font-size="14.00">generationidentifier</text>
</g>
<!-- data&#45;&gt;generationidentifier -->
<g id="edge10" class="edge">
<title>data&#45;&gt;generationidentifier</title>
<path fill="none" stroke="#1f78b4" d="M257.75,-202.38C246.24,-166.83 220.81,-88.24 207.23,-46.26"/>
<polygon fill="#a6cee3" stroke="#1f78b4" points="210.53,-45.11 204.12,-36.67 203.87,-47.26 210.53,-45.11"/>
</g>
<!-- otherinfo -->
<g id="node12" class="node">
<title>otherinfo</title>
<path fill="#1afabc" stroke="black" d="M62.79,-119.57C62.79,-119.57 107.79,-119.57 107.79,-119.57 113.79,-119.57 119.79,-125.57 119.79,-131.57 119.79,-131.57 119.79,-143.57 119.79,-143.57 119.79,-149.57 113.79,-155.57 107.79,-155.57 107.79,-155.57 62.79,-155.57 62.79,-155.57 56.79,-155.57 50.79,-149.57 50.79,-143.57 50.79,-143.57 50.79,-131.57 50.79,-131.57 50.79,-125.57 56.79,-119.57 62.79,-119.57"/>
<text text-anchor="middle" x="85.29" y="-133.87" font-family="Arial" font-size="14.00">otherinfo</text>
</g>
<!-- data&#45;&gt;otherinfo -->
<g id="edge11" class="edge">
<title>data&#45;&gt;otherinfo</title>
<path fill="none" stroke="#1f78b4" d="M236.57,-208.05C208.07,-194.77 162.75,-173.66 129.14,-158"/>
<polygon fill="#a6cee3" stroke="#1f78b4" points="130.54,-154.79 120,-153.74 127.58,-161.13 130.54,-154.79"/>
</g>
<!-- personinfo -->
<g id="node13" class="node">
<title>personinfo</title>
<path fill="#1afabc" stroke="black" d="M373.16,-158.35C373.16,-158.35 429.16,-158.35 429.16,-158.35 435.16,-158.35 441.16,-164.35 441.16,-170.35 441.16,-170.35 441.16,-182.35 441.16,-182.35 441.16,-188.35 435.16,-194.35 429.16,-194.35 429.16,-194.35 373.16,-194.35 373.16,-194.35 367.16,-194.35 361.16,-188.35 361.16,-182.35 361.16,-182.35 361.16,-170.35 361.16,-170.35 361.16,-164.35 367.16,-158.35 373.16,-158.35"/>
<text text-anchor="middle" x="401.16" y="-172.65" font-family="Arial" font-size="14.00">personinfo</text>
</g>
<!-- data&#45;&gt;personinfo -->
<g id="edge12" class="edge">
<title>data&#45;&gt;personinfo</title>
<path fill="none" stroke="#1f78b4" d="M290.83,-211.91C308.05,-206.36 330.84,-199.02 351.24,-192.44"/>
<polygon fill="#a6cee3" stroke="#1f78b4" points="352.58,-195.69 361.02,-189.29 350.43,-189.03 352.58,-195.69"/>
</g>
<!-- organizationinfo -->
<g id="node14" class="node">
<title>organizationinfo</title>
<path fill="#1afabc" stroke="black" d="M36.42,-287.3C36.42,-287.3 124.42,-287.3 124.42,-287.3 130.42,-287.3 136.42,-293.3 136.42,-299.3 136.42,-299.3 136.42,-311.3 136.42,-311.3 136.42,-317.3 130.42,-323.3 124.42,-323.3 124.42,-323.3 36.42,-323.3 36.42,-323.3 30.42,-323.3 24.42,-317.3 24.42,-311.3 24.42,-311.3 24.42,-299.3 24.42,-299.3 24.42,-293.3 30.42,-287.3 36.42,-287.3"/>
<text text-anchor="middle" x="80.42" y="-301.6" font-family="Arial" font-size="14.00">organizationinfo</text>
</g>
<!-- data&#45;&gt;organizationinfo -->
<g id="edge13" class="edge">
<title>data&#45;&gt;organizationinfo</title>
<path fill="none" stroke="#1f78b4" d="M236.63,-233.16C208.33,-246.23 163.3,-267.03 128.84,-282.94"/>
<polygon fill="#a6cee3" stroke="#1f78b4" points="127.03,-279.92 119.42,-287.29 129.97,-286.27 127.03,-279.92"/>
</g>
<!-- contactnumbers -->
<g id="node15" class="node">
<title>contactnumbers</title>
<path fill="#1afabc" stroke="black" d="M11.76,-228.7C11.76,-228.7 100.76,-228.7 100.76,-228.7 106.76,-228.7 112.76,-234.7 112.76,-240.7 112.76,-240.7 112.76,-252.7 112.76,-252.7 112.76,-258.7 106.76,-264.7 100.76,-264.7 100.76,-264.7 11.76,-264.7 11.76,-264.7 5.76,-264.7 -0.24,-258.7 -0.24,-252.7 -0.24,-252.7 -0.24,-240.7 -0.24,-240.7 -0.24,-234.7 5.76,-228.7 11.76,-228.7"/>
<text text-anchor="middle" x="56.26" y="-243" font-family="Arial" font-size="14.00">contactnumbers</text>
</g>
<!-- data&#45;&gt;contactnumbers -->
<g id="edge14" class="edge">
<title>data&#45;&gt;contactnumbers</title>
<path fill="none" stroke="#1f78b4" d="M236.55,-224.07C207.92,-227.66 161.71,-233.46 123.23,-238.29"/>
<polygon fill="#a6cee3" stroke="#1f78b4" points="122.61,-234.84 113.12,-239.56 123.48,-241.79 122.61,-234.84"/>
</g>
<!-- contactnumber -->
<g id="node16" class="node">
<title>contactnumber</title>
<path fill="#1afabc" stroke="black" d="M351.18,-73.02C351.18,-73.02 434.18,-73.02 434.18,-73.02 440.18,-73.02 446.18,-79.02 446.18,-85.02 446.18,-85.02 446.18,-97.02 446.18,-97.02 446.18,-103.02 440.18,-109.02 434.18,-109.02 434.18,-109.02 351.18,-109.02 351.18,-109.02 345.18,-109.02 339.18,-103.02 339.18,-97.02 339.18,-97.02 339.18,-85.02 339.18,-85.02 339.18,-79.02 345.18,-73.02 351.18,-73.02"/>
<text text-anchor="middle" x="392.68" y="-87.32" font-family="Arial" font-size="14.00">contactnumber</text>
</g>
<!-- data&#45;&gt;contactnumber -->
<g id="edge15" class="edge">
<title>data&#45;&gt;contactnumber</title>
<path fill="none" stroke="#1f78b4" d="M281.61,-202.64C303.91,-180.23 342.13,-141.82 367.4,-116.43"/>
<polygon fill="#a6cee3" stroke="#1f78b4" points="369.91,-118.87 374.48,-109.32 364.95,-113.93 369.91,-118.87"/>
</g>
<!-- emailaddresses -->
<g id="node17" class="node">
<title>emailaddresses</title>
<path fill="#1afabc" stroke="black" d="M149.74,-123.4C149.74,-123.4 237.74,-123.4 237.74,-123.4 243.74,-123.4 249.74,-129.4 249.74,-135.4 249.74,-135.4 249.74,-147.4 249.74,-147.4 249.74,-153.4 243.74,-159.4 237.74,-159.4 237.74,-159.4 149.74,-159.4 149.74,-159.4 143.74,-159.4 137.74,-153.4 137.74,-147.4 137.74,-147.4 137.74,-135.4 137.74,-135.4 137.74,-129.4 143.74,-123.4 149.74,-123.4"/>
<text text-anchor="middle" x="193.74" y="-137.7" font-family="Arial" font-size="14.00">emailaddresses</text>
</g>
<!-- data&#45;&gt;emailaddresses -->
<g id="edge16" class="edge">
<title>data&#45;&gt;emailaddresses</title>
<path fill="none" stroke="#1f78b4" d="M247.45,-202.29C238.2,-191.81 226.48,-178.51 216.34,-167.03"/>
<polygon fill="#a6cee3" stroke="#1f78b4" points="218.87,-164.6 209.63,-159.42 213.62,-169.23 218.87,-164.6"/>
</g>
<!-- emailaddress -->
<g id="node18" class="node">
<title>emailaddress</title>
<path fill="#1afabc" stroke="black" d="M67.66,-339.3C67.66,-339.3 141.66,-339.3 141.66,-339.3 147.66,-339.3 153.66,-345.3 153.66,-351.3 153.66,-351.3 153.66,-363.3 153.66,-363.3 153.66,-369.3 147.66,-375.3 141.66,-375.3 141.66,-375.3 67.66,-375.3 67.66,-375.3 61.66,-375.3 55.66,-369.3 55.66,-363.3 55.66,-363.3 55.66,-351.3 55.66,-351.3 55.66,-345.3 61.66,-339.3 67.66,-339.3"/>
<text text-anchor="middle" x="104.66" y="-353.6" font-family="Arial" font-size="14.00">emailaddress</text>
</g>
<!-- data&#45;&gt;emailaddress -->
<g id="edge17" class="edge">
<title>data&#45;&gt;emailaddress</title>
<path fill="none" stroke="#1f78b4" d="M242.55,-238.81C214.56,-262.87 165.04,-305.42 133.58,-332.45"/>
<polygon fill="#a6cee3" stroke="#1f78b4" points="130.91,-330.13 125.61,-339.3 135.48,-335.44 130.91,-330.13"/>
</g>
<!-- urls -->
<g id="node19" class="node">
<title>urls</title>
<path fill="#1afabc" stroke="black" d="M184.89,-317.44C184.89,-317.44 214.89,-317.44 214.89,-317.44 220.89,-317.44 226.89,-323.44 226.89,-329.44 226.89,-329.44 226.89,-341.44 226.89,-341.44 226.89,-347.44 220.89,-353.44 214.89,-353.44 214.89,-353.44 184.89,-353.44 184.89,-353.44 178.89,-353.44 172.89,-347.44 172.89,-341.44 172.89,-341.44 172.89,-329.44 172.89,-329.44 172.89,-323.44 178.89,-317.44 184.89,-317.44"/>
<text text-anchor="middle" x="199.89" y="-331.74" font-family="Arial" font-size="14.00">urls</text>
</g>
<!-- data&#45;&gt;urls -->
<g id="edge18" class="edge">
<title>data&#45;&gt;urls</title>
<path fill="none" stroke="#1f78b4" d="M253.56,-238.86C243.16,-257.58 226.83,-286.96 214.92,-308.4"/>
<polygon fill="#a6cee3" stroke="#1f78b4" points="211.75,-306.9 209.95,-317.34 217.87,-310.3 211.75,-306.9"/>
</g>
<!-- url -->
<g id="node20" class="node">
<title>url</title>
<path fill="#1afabc" stroke="black" d="M274.88,-351.98C274.88,-351.98 304.88,-351.98 304.88,-351.98 310.88,-351.98 316.88,-357.98 316.88,-363.98 316.88,-363.98 316.88,-375.98 316.88,-375.98 316.88,-381.98 310.88,-387.98 304.88,-387.98 304.88,-387.98 274.88,-387.98 274.88,-387.98 268.88,-387.98 262.88,-381.98 262.88,-375.98 262.88,-375.98 262.88,-363.98 262.88,-363.98 262.88,-357.98 268.88,-351.98 274.88,-351.98"/>
<text text-anchor="middle" x="289.88" y="-366.28" font-family="Arial" font-size="14.00">url</text>
</g>
<!-- data&#45;&gt;url -->
<g id="edge19" class="edge">
<title>data&#45;&gt;url</title>
<path fill="none" stroke="#1f78b4" d="M266.83,-238.68C271.34,-264.35 279.65,-311.7 284.96,-341.98"/>
<polygon fill="#a6cee3" stroke="#1f78b4" points="281.53,-342.66 286.71,-351.91 288.42,-341.45 281.53,-342.66"/>
</g>
<!-- organizationnamedetails -->
<g id="node22" class="node">
<title>organizationnamedetails</title>
<path fill="#1afabc" stroke="black" d="M782.9,-639.94C782.9,-639.94 922.9,-639.94 922.9,-639.94 928.9,-639.94 934.9,-645.94 934.9,-651.94 934.9,-651.94 934.9,-663.94 934.9,-663.94 934.9,-669.94 928.9,-675.94 922.9,-675.94 922.9,-675.94 782.9,-675.94 782.9,-675.94 776.9,-675.94 770.9,-669.94 770.9,-663.94 770.9,-663.94 770.9,-651.94 770.9,-651.94 770.9,-645.94 776.9,-639.94 782.9,-639.94"/>
<text text-anchor="middle" x="852.9" y="-654.24" font-family="Arial" font-size="14.00">organizationnamedetails</text>
</g>
<!-- ph&#45;&gt;organizationnamedetails -->
<g id="edge21" class="edge">
<title>ph&#45;&gt;organizationnamedetails</title>
<path fill="none" stroke="#1f78b4" d="M757.78,-463.17C776.08,-500.64 818.13,-586.75 839.67,-630.84"/>
<polygon fill="#a6cee3" stroke="#1f78b4" points="836.53,-632.38 844.06,-639.83 842.82,-629.31 836.53,-632.38"/>
</g>
<!-- organizationname -->
<g id="node23" class="node">
<title>organizationname</title>
<path fill="#1afabc" stroke="black" d="M834.81,-287.13C834.81,-287.13 935.81,-287.13 935.81,-287.13 941.81,-287.13 947.81,-293.13 947.81,-299.13 947.81,-299.13 947.81,-311.13 947.81,-311.13 947.81,-317.13 941.81,-323.13 935.81,-323.13 935.81,-323.13 834.81,-323.13 834.81,-323.13 828.81,-323.13 822.81,-317.13 822.81,-311.13 822.81,-311.13 822.81,-299.13 822.81,-299.13 822.81,-293.13 828.81,-287.13 834.81,-287.13"/>
<text text-anchor="middle" x="885.31" y="-301.43" font-family="Arial" font-size="14.00">organizationname</text>
</g>
<!-- ph&#45;&gt;organizationname -->
<g id="edge22" class="edge">
<title>ph&#45;&gt;organizationname</title>
<path fill="none" stroke="#1f78b4" d="M766.46,-427.01C790.27,-402.59 832.94,-358.83 860.15,-330.93"/>
<polygon fill="#a6cee3" stroke="#1f78b4" points="862.91,-333.11 867.39,-323.5 857.9,-328.22 862.91,-333.11"/>
</g>
<!-- addressdetails -->
<g id="node24" class="node">
<title>addressdetails</title>
<path fill="#1afabc" stroke="black" d="M903.17,-445.21C903.17,-445.21 983.17,-445.21 983.17,-445.21 989.17,-445.21 995.17,-451.21 995.17,-457.21 995.17,-457.21 995.17,-469.21 995.17,-469.21 995.17,-475.21 989.17,-481.21 983.17,-481.21 983.17,-481.21 903.17,-481.21 903.17,-481.21 897.17,-481.21 891.17,-475.21 891.17,-469.21 891.17,-469.21 891.17,-457.21 891.17,-457.21 891.17,-451.21 897.17,-445.21 903.17,-445.21"/>
<text text-anchor="middle" x="943.17" y="-459.51" font-family="Arial" font-size="14.00">addressdetails</text>
</g>
<!-- ph&#45;&gt;addressdetails -->
<g id="edge23" class="edge">
<title>ph&#45;&gt;addressdetails</title>
<path fill="none" stroke="#1f78b4" d="M775.92,-447.54C802.87,-450.07 845.24,-454.03 880.58,-457.35"/>
<polygon fill="#a6cee3" stroke="#1f78b4" points="880.54,-460.86 890.82,-458.31 881.2,-453.89 880.54,-460.86"/>
</g>
<!-- locality -->
<g id="node25" class="node">
<title>locality</title>
<path fill="#1afabc" stroke="black" d="M744.74,-580.38C744.74,-580.38 778.74,-580.38 778.74,-580.38 784.74,-580.38 790.74,-586.38 790.74,-592.38 790.74,-592.38 790.74,-604.38 790.74,-604.38 790.74,-610.38 784.74,-616.38 778.74,-616.38 778.74,-616.38 744.74,-616.38 744.74,-616.38 738.74,-616.38 732.74,-610.38 732.74,-604.38 732.74,-604.38 732.74,-592.38 732.74,-592.38 732.74,-586.38 738.74,-580.38 744.74,-580.38"/>
<text text-anchor="middle" x="761.74" y="-594.68" font-family="Arial" font-size="14.00">locality</text>
</g>
<!-- ph&#45;&gt;locality -->
<g id="edge24" class="edge">
<title>ph&#45;&gt;locality</title>
<path fill="none" stroke="#1f78b4" d="M750.43,-463.21C752.64,-489.61 756.75,-538.79 759.36,-569.99"/>
<polygon fill="#a6cee3" stroke="#1f78b4" points="755.9,-570.53 760.22,-580.2 762.87,-569.95 755.9,-570.53"/>
</g>
<!-- localityname -->
<g id="node26" class="node">
<title>localityname</title>
<path fill="#1afabc" stroke="black" d="M891.25,-360.76C891.25,-360.76 959.25,-360.76 959.25,-360.76 965.25,-360.76 971.25,-366.76 971.25,-372.76 971.25,-372.76 971.25,-384.76 971.25,-384.76 971.25,-390.76 965.25,-396.76 959.25,-396.76 959.25,-396.76 891.25,-396.76 891.25,-396.76 885.25,-396.76 879.25,-390.76 879.25,-384.76 879.25,-384.76 879.25,-372.76 879.25,-372.76 879.25,-366.76 885.25,-360.76 891.25,-360.76"/>
<text text-anchor="middle" x="925.25" y="-375.06" font-family="Arial" font-size="14.00">localityname</text>
</g>
<!-- ph&#45;&gt;localityname -->
<g id="edge25" class="edge">
<title>ph&#45;&gt;localityname</title>
<path fill="none" stroke="#1f78b4" d="M776.08,-434.8C800.94,-425.46 838.5,-411.35 869.71,-399.62"/>
<polygon fill="#a6cee3" stroke="#1f78b4" points="871.04,-402.86 879.18,-396.07 868.58,-396.31 871.04,-402.86"/>
</g>
<!-- administrativearea -->
<g id="node27" class="node">
<title>administrativearea</title>
<path fill="#1afabc" stroke="black" d="M896.16,-508.4C896.16,-508.4 1000.16,-508.4 1000.16,-508.4 1006.16,-508.4 1012.16,-514.4 1012.16,-520.4 1012.16,-520.4 1012.16,-532.4 1012.16,-532.4 1012.16,-538.4 1006.16,-544.4 1000.16,-544.4 1000.16,-544.4 896.16,-544.4 896.16,-544.4 890.16,-544.4 884.16,-538.4 884.16,-532.4 884.16,-532.4 884.16,-520.4 884.16,-520.4 884.16,-514.4 890.16,-508.4 896.16,-508.4"/>
<text text-anchor="middle" x="948.16" y="-522.7" font-family="Arial" font-size="14.00">administrativearea</text>
</g>
<!-- ph&#45;&gt;administrativearea -->
<g id="edge26" class="edge">
<title>ph&#45;&gt;administrativearea</title>
<path fill="none" stroke="#1f78b4" d="M776.2,-456.16C806.56,-468.56 856.37,-488.91 894.58,-504.52"/>
<polygon fill="#a6cee3" stroke="#1f78b4" points="893.45,-507.84 904.03,-508.38 896.1,-501.36 893.45,-507.84"/>
</g>
<!-- thoroughfare -->
<g id="node28" class="node">
<title>thoroughfare</title>
<path fill="#1afabc" stroke="black" d="M643.13,-578.62C643.13,-578.62 712.13,-578.62 712.13,-578.62 718.13,-578.62 724.13,-584.62 724.13,-590.62 724.13,-590.62 724.13,-602.62 724.13,-602.62 724.13,-608.62 718.13,-614.62 712.13,-614.62 712.13,-614.62 643.13,-614.62 643.13,-614.62 637.13,-614.62 631.13,-608.62 631.13,-602.62 631.13,-602.62 631.13,-590.62 631.13,-590.62 631.13,-584.62 637.13,-578.62 643.13,-578.62"/>
<text text-anchor="middle" x="677.63" y="-592.92" font-family="Arial" font-size="14.00">thoroughfare</text>
</g>
<!-- ph&#45;&gt;thoroughfare -->
<g id="edge27" class="edge">
<title>ph&#45;&gt;thoroughfare</title>
<path fill="none" stroke="#1f78b4" d="M740.31,-463.3C727.95,-489.59 705.06,-538.29 690.62,-568.99"/>
<polygon fill="#a6cee3" stroke="#1f78b4" points="687.34,-567.73 686.26,-578.27 693.68,-570.71 687.34,-567.73"/>
</g>
<!-- postalcode -->
<g id="node29" class="node">
<title>postalcode</title>
<path fill="#1afabc" stroke="black" d="M825.51,-556.7C825.51,-556.7 883.51,-556.7 883.51,-556.7 889.51,-556.7 895.51,-562.7 895.51,-568.7 895.51,-568.7 895.51,-580.7 895.51,-580.7 895.51,-586.7 889.51,-592.7 883.51,-592.7 883.51,-592.7 825.51,-592.7 825.51,-592.7 819.51,-592.7 813.51,-586.7 813.51,-580.7 813.51,-580.7 813.51,-568.7 813.51,-568.7 813.51,-562.7 819.51,-556.7 825.51,-556.7"/>
<text text-anchor="middle" x="854.51" y="-571" font-family="Arial" font-size="14.00">postalcode</text>
</g>
<!-- ph&#45;&gt;postalcode -->
<g id="edge28" class="edge">
<title>ph&#45;&gt;postalcode</title>
<path fill="none" stroke="#1f78b4" d="M763.59,-463.04C781.7,-485.28 812.6,-523.23 833.29,-548.63"/>
<polygon fill="#a6cee3" stroke="#1f78b4" points="830.59,-550.86 839.61,-556.4 836.01,-546.44 830.59,-550.86"/>
</g>
<!-- country -->
<g id="node30" class="node">
<title>country</title>
<path fill="#1afabc" stroke="black" d="M830.6,-411.08C830.6,-411.08 867.6,-411.08 867.6,-411.08 873.6,-411.08 879.6,-417.08 879.6,-423.08 879.6,-423.08 879.6,-435.08 879.6,-435.08 879.6,-441.08 873.6,-447.08 867.6,-447.08 867.6,-447.08 830.6,-447.08 830.6,-447.08 824.6,-447.08 818.6,-441.08 818.6,-435.08 818.6,-435.08 818.6,-423.08 818.6,-423.08 818.6,-417.08 824.6,-411.08 830.6,-411.08"/>
<text text-anchor="middle" x="849.1" y="-425.38" font-family="Arial" font-size="14.00">country</text>
</g>
<!-- ph&#45;&gt;country -->
<g id="edge29" class="edge">
<title>ph&#45;&gt;country</title>
<path fill="none" stroke="#1f78b4" d="M776.02,-440.7C785.95,-439.12 797.41,-437.3 808.27,-435.57"/>
<polygon fill="#a6cee3" stroke="#1f78b4" points="809.1,-438.99 818.43,-433.96 808,-432.07 809.1,-438.99"/>
</g>
</g>
</svg>
