<?xml version="1.0" encoding="UTF-8" standalone="no"?>
<!-- Generated by graphviz version 6.0.1 (20220911.1526)
 -->
<!-- Pages: 1 -->
<svg width="494pt" height="441pt"
 viewBox="0.00 0.00 494.00 441.00" xmlns="http://www.w3.org/2000/svg" xmlns:xlink="http://www.w3.org/1999/xlink">
<g id="graph0" class="graph" transform="scale(1 1) rotate(0) translate(4 437)">
<polygon fill="white" stroke="none" points="-4,4 -4,-437 490,-437 490,4 -4,4"/>
<!-- elements -->
<g id="node1" class="node">
<title>elements</title>
<path fill="#afa7f4" stroke="black" d="M99.5,-143.92C99.5,-143.92 243.5,-143.92 243.5,-143.92 249.5,-143.92 255.5,-149.92 255.5,-155.92 255.5,-155.92 255.5,-167.92 255.5,-167.92 255.5,-173.92 249.5,-179.92 243.5,-179.92 243.5,-179.92 99.5,-179.92 99.5,-179.92 93.5,-179.92 87.5,-173.92 87.5,-167.92 87.5,-167.92 87.5,-155.92 87.5,-155.92 87.5,-149.92 93.5,-143.92 99.5,-143.92"/>
<text text-anchor="middle" x="155.5" y="-158.22" font-family="Arial" font-size="14.00">DITA map elements</text>
<polyline fill="none" stroke="black" points="223.5,-143.92 223.5,-179.92"/>
<text text-anchor="middle" x="239.5" y="-158.22" font-family="Arial" font-size="14.00">87</text>
</g>
<!-- baseMapElements -->
<g id="node2" class="node">
<title>baseMapElements</title>
<path fill="#1afabc" stroke="black" d="M197.25,-195.43C197.25,-195.43 310.25,-195.43 310.25,-195.43 316.25,-195.43 322.25,-201.43 322.25,-207.43 322.25,-207.43 322.25,-219.43 322.25,-219.43 322.25,-225.43 316.25,-231.43 310.25,-231.43 310.25,-231.43 197.25,-231.43 197.25,-231.43 191.25,-231.43 185.25,-225.43 185.25,-219.43 185.25,-219.43 185.25,-207.43 185.25,-207.43 185.25,-201.43 191.25,-195.43 197.25,-195.43"/>
<text text-anchor="middle" x="237.75" y="-209.73" font-family="Arial" font-size="14.00">base elements</text>
<polyline fill="none" stroke="black" points="290.25,-195.43 290.25,-231.43"/>
<text text-anchor="middle" x="306.25" y="-209.73" font-family="Arial" font-size="14.00">14</text>
</g>
<!-- elements&#45;&gt;baseMapElements -->
<g id="edge1" class="edge">
<title>elements&#45;&gt;baseMapElements</title>
<path fill="none" stroke="#1f78b4" d="M200.27,-179.94C205.37,-183.13 210.76,-186.5 216.07,-189.83"/>
<polygon fill="#a6cee3" stroke="#1f78b4" points="214.53,-192.99 224.86,-195.34 218.25,-187.06 214.53,-192.99"/>
</g>
<!-- otherElements -->
<g id="node17" class="node">
<title>otherElements</title>
<path fill="#1afabc" stroke="black" d="M157.89,-92.04C157.89,-92.04 308.89,-92.04 308.89,-92.04 314.89,-92.04 320.89,-98.04 320.89,-104.04 320.89,-104.04 320.89,-116.04 320.89,-116.04 320.89,-122.04 314.89,-128.04 308.89,-128.04 308.89,-128.04 157.89,-128.04 157.89,-128.04 151.89,-128.04 145.89,-122.04 145.89,-116.04 145.89,-116.04 145.89,-104.04 145.89,-104.04 145.89,-98.04 151.89,-92.04 157.89,-92.04"/>
<text text-anchor="middle" x="217.39" y="-106.34" font-family="Arial" font-size="14.00">specialized elements</text>
<polyline fill="none" stroke="black" points="288.89,-92.04 288.89,-128.04"/>
<text text-anchor="middle" x="304.89" y="-106.34" font-family="Arial" font-size="14.00">73</text>
</g>
<!-- elements&#45;&gt;otherElements -->
<g id="edge16" class="edge">
<title>elements&#45;&gt;otherElements</title>
<path fill="none" stroke="#1f78b4" d="M193.15,-143.78C196.61,-140.87 200.25,-137.82 203.86,-134.79"/>
<polygon fill="#a6cee3" stroke="#1f78b4" points="206.24,-137.37 211.65,-128.26 201.74,-132 206.24,-137.37"/>
</g>
<!-- map -->
<g id="node3" class="node">
<title>map</title>
<path fill="#bfcfff" stroke="black" d="M70.89,-74.49C70.89,-74.49 100.89,-74.49 100.89,-74.49 106.89,-74.49 112.89,-80.49 112.89,-86.49 112.89,-86.49 112.89,-98.49 112.89,-98.49 112.89,-104.49 106.89,-110.49 100.89,-110.49 100.89,-110.49 70.89,-110.49 70.89,-110.49 64.89,-110.49 58.89,-104.49 58.89,-98.49 58.89,-98.49 58.89,-86.49 58.89,-86.49 58.89,-80.49 64.89,-74.49 70.89,-74.49"/>
<text text-anchor="middle" x="85.89" y="-88.79" font-family="Arial" font-size="14.00">map</text>
</g>
<!-- baseMapElements&#45;&gt;map -->
<g id="edge2" class="edge">
<title>baseMapElements&#45;&gt;map</title>
<path fill="none" stroke="#1f78b4" d="M228.62,-195.32C199.49,-174.33 151.36,-139.66 119.15,-116.45"/>
<polygon fill="#a6cee3" stroke="#1f78b4" points="121.08,-113.53 110.92,-110.52 116.98,-119.2 121.08,-113.53"/>
</g>
<!-- navref -->
<g id="node4" class="node">
<title>navref</title>
<path fill="#bfcfff" stroke="black" d="M236.17,-245.65C236.17,-245.65 266.17,-245.65 266.17,-245.65 272.17,-245.65 278.17,-251.65 278.17,-257.65 278.17,-257.65 278.17,-269.65 278.17,-269.65 278.17,-275.65 272.17,-281.65 266.17,-281.65 266.17,-281.65 236.17,-281.65 236.17,-281.65 230.17,-281.65 224.17,-275.65 224.17,-269.65 224.17,-269.65 224.17,-257.65 224.17,-257.65 224.17,-251.65 230.17,-245.65 236.17,-245.65"/>
<text text-anchor="middle" x="251.17" y="-259.95" font-family="Arial" font-size="14.00">navref</text>
</g>
<!-- baseMapElements&#45;&gt;navref -->
<g id="edge3" class="edge">
<title>baseMapElements&#45;&gt;navref</title>
<path fill="none" stroke="#1f78b4" d="M252.82,-231.56C252.76,-232.68 252.7,-233.82 252.64,-234.98"/>
<polygon fill="#a6cee3" stroke="#1f78b4" points="249.13,-235.21 252.11,-245.37 256.12,-235.57 249.13,-235.21"/>
</g>
<!-- topicref -->
<g id="node5" class="node">
<title>topicref</title>
<path fill="#bfcfff" stroke="black" d="M397.7,-286.02C397.7,-286.02 434.7,-286.02 434.7,-286.02 440.7,-286.02 446.7,-292.02 446.7,-298.02 446.7,-298.02 446.7,-310.02 446.7,-310.02 446.7,-316.02 440.7,-322.02 434.7,-322.02 434.7,-322.02 397.7,-322.02 397.7,-322.02 391.7,-322.02 385.7,-316.02 385.7,-310.02 385.7,-310.02 385.7,-298.02 385.7,-298.02 385.7,-292.02 391.7,-286.02 397.7,-286.02"/>
<text text-anchor="middle" x="416.2" y="-300.32" font-family="Arial" font-size="14.00">topicref</text>
</g>
<!-- baseMapElements&#45;&gt;topicref -->
<g id="edge4" class="edge">
<title>baseMapElements&#45;&gt;topicref</title>
<path fill="none" stroke="#1f78b4" d="M286.24,-231.54C312.27,-246.06 348.91,-266.5 376.65,-281.97"/>
<polygon fill="#a6cee3" stroke="#1f78b4" points="375.25,-285.2 385.69,-287.01 378.66,-279.08 375.25,-285.2"/>
</g>
<!-- anchor -->
<g id="node6" class="node">
<title>anchor</title>
<path fill="#bfcfff" stroke="black" d="M89.23,-317.79C89.23,-317.79 123.23,-317.79 123.23,-317.79 129.23,-317.79 135.23,-323.79 135.23,-329.79 135.23,-329.79 135.23,-341.79 135.23,-341.79 135.23,-347.79 129.23,-353.79 123.23,-353.79 123.23,-353.79 89.23,-353.79 89.23,-353.79 83.23,-353.79 77.23,-347.79 77.23,-341.79 77.23,-341.79 77.23,-329.79 77.23,-329.79 77.23,-323.79 83.23,-317.79 89.23,-317.79"/>
<text text-anchor="middle" x="106.23" y="-332.09" font-family="Arial" font-size="14.00">anchor</text>
</g>
<!-- baseMapElements&#45;&gt;anchor -->
<g id="edge5" class="edge">
<title>baseMapElements&#45;&gt;anchor</title>
<path fill="none" stroke="#1f78b4" d="M231.99,-231.48C206.6,-252.54 164.5,-287.46 136.08,-311.04"/>
<polygon fill="#a6cee3" stroke="#1f78b4" points="133.55,-308.58 128.09,-317.66 138.02,-313.97 133.55,-308.58"/>
</g>
<!-- reltable -->
<g id="node7" class="node">
<title>reltable</title>
<path fill="#bfcfff" stroke="black" d="M42.01,-251.78C42.01,-251.78 79.01,-251.78 79.01,-251.78 85.01,-251.78 91.01,-257.78 91.01,-263.78 91.01,-263.78 91.01,-275.78 91.01,-275.78 91.01,-281.78 85.01,-287.78 79.01,-287.78 79.01,-287.78 42.01,-287.78 42.01,-287.78 36.01,-287.78 30.01,-281.78 30.01,-275.78 30.01,-275.78 30.01,-263.78 30.01,-263.78 30.01,-257.78 36.01,-251.78 42.01,-251.78"/>
<text text-anchor="middle" x="60.51" y="-266.08" font-family="Arial" font-size="14.00">reltable</text>
</g>
<!-- baseMapElements&#45;&gt;reltable -->
<g id="edge6" class="edge">
<title>baseMapElements&#45;&gt;reltable</title>
<path fill="none" stroke="#1f78b4" d="M191.81,-231.49C161.96,-240.2 127,-250.39 100.67,-258.07"/>
<polygon fill="#a6cee3" stroke="#1f78b4" points="99.65,-254.72 91.03,-260.88 101.61,-261.44 99.65,-254.72"/>
</g>
<!-- relheader -->
<g id="node8" class="node">
<title>relheader</title>
<path fill="#bfcfff" stroke="black" d="M359.46,-39.99C359.46,-39.99 409.46,-39.99 409.46,-39.99 415.46,-39.99 421.46,-45.99 421.46,-51.99 421.46,-51.99 421.46,-63.99 421.46,-63.99 421.46,-69.99 415.46,-75.99 409.46,-75.99 409.46,-75.99 359.46,-75.99 359.46,-75.99 353.46,-75.99 347.46,-69.99 347.46,-63.99 347.46,-63.99 347.46,-51.99 347.46,-51.99 347.46,-45.99 353.46,-39.99 359.46,-39.99"/>
<text text-anchor="middle" x="384.46" y="-54.29" font-family="Arial" font-size="14.00">relheader</text>
</g>
<!-- baseMapElements&#45;&gt;relheader -->
<g id="edge7" class="edge">
<title>baseMapElements&#45;&gt;relheader</title>
<path fill="none" stroke="#1f78b4" d="M269,-195.29C292.12,-167.8 336.15,-115.44 362.65,-83.92"/>
<polygon fill="#a6cee3" stroke="#1f78b4" points="365.55,-85.91 369.31,-76.01 360.2,-81.41 365.55,-85.91"/>
</g>
<!-- relcolspec -->
<g id="node9" class="node">
<title>relcolspec</title>
<path fill="#bfcfff" stroke="black" d="M12.15,-163.57C12.15,-163.57 65.15,-163.57 65.15,-163.57 71.15,-163.57 77.15,-169.57 77.15,-175.57 77.15,-175.57 77.15,-187.57 77.15,-187.57 77.15,-193.57 71.15,-199.57 65.15,-199.57 65.15,-199.57 12.15,-199.57 12.15,-199.57 6.15,-199.57 0.15,-193.57 0.15,-187.57 0.15,-187.57 0.15,-175.57 0.15,-175.57 0.15,-169.57 6.15,-163.57 12.15,-163.57"/>
<text text-anchor="middle" x="38.65" y="-177.87" font-family="Arial" font-size="14.00">relcolspec</text>
</g>
<!-- baseMapElements&#45;&gt;relcolspec -->
<g id="edge8" class="edge">
<title>baseMapElements&#45;&gt;relcolspec</title>
<path fill="none" stroke="#1f78b4" d="M185.1,-203.26C153.35,-198.56 116.36,-193.08 87.51,-188.81"/>
<polygon fill="#a6cee3" stroke="#1f78b4" points="87.67,-185.29 77.27,-187.29 86.65,-192.22 87.67,-185.29"/>
</g>
<!-- relrow -->
<g id="node10" class="node">
<title>relrow</title>
<path fill="#bfcfff" stroke="black" d="M168.35,-0.82C168.35,-0.82 198.35,-0.82 198.35,-0.82 204.35,-0.82 210.35,-6.82 210.35,-12.82 210.35,-12.82 210.35,-24.82 210.35,-24.82 210.35,-30.82 204.35,-36.82 198.35,-36.82 198.35,-36.82 168.35,-36.82 168.35,-36.82 162.35,-36.82 156.35,-30.82 156.35,-24.82 156.35,-24.82 156.35,-12.82 156.35,-12.82 156.35,-6.82 162.35,-0.82 168.35,-0.82"/>
<text text-anchor="middle" x="183.35" y="-15.12" font-family="Arial" font-size="14.00">relrow</text>
</g>
<!-- baseMapElements&#45;&gt;relrow -->
<g id="edge9" class="edge">
<title>baseMapElements&#45;&gt;relrow</title>
<path fill="none" stroke="#1f78b4" d="M247.13,-195.12C234.73,-160.84 207.94,-86.79 193.34,-46.43"/>
<polygon fill="#a6cee3" stroke="#1f78b4" points="196.6,-45.15 189.9,-36.93 190.01,-47.53 196.6,-45.15"/>
</g>
<!-- relcell -->
<g id="node11" class="node">
<title>relcell</title>
<path fill="#bfcfff" stroke="black" d="M282.85,-1.08C282.85,-1.08 312.85,-1.08 312.85,-1.08 318.85,-1.08 324.85,-7.08 324.85,-13.08 324.85,-13.08 324.85,-25.08 324.85,-25.08 324.85,-31.08 318.85,-37.08 312.85,-37.08 312.85,-37.08 282.85,-37.08 282.85,-37.08 276.85,-37.08 270.85,-31.08 270.85,-25.08 270.85,-25.08 270.85,-13.08 270.85,-13.08 270.85,-7.08 276.85,-1.08 282.85,-1.08"/>
<text text-anchor="middle" x="297.85" y="-15.38" font-family="Arial" font-size="14.00">relcell</text>
</g>
<!-- baseMapElements&#45;&gt;relcell -->
<g id="edge10" class="edge">
<title>baseMapElements&#45;&gt;relcell</title>
<path fill="none" stroke="#1f78b4" d="M257.9,-195.14C265.64,-161.05 282.31,-87.59 291.48,-47.17"/>
<polygon fill="#a6cee3" stroke="#1f78b4" points="294.95,-47.7 293.75,-37.18 288.12,-46.15 294.95,-47.7"/>
</g>
<!-- topicmeta -->
<g id="node12" class="node">
<title>topicmeta</title>
<path fill="#bfcfff" stroke="black" d="M148.48,-374.41C148.48,-374.41 200.48,-374.41 200.48,-374.41 206.48,-374.41 212.48,-380.41 212.48,-386.41 212.48,-386.41 212.48,-398.41 212.48,-398.41 212.48,-404.41 206.48,-410.41 200.48,-410.41 200.48,-410.41 148.48,-410.41 148.48,-410.41 142.48,-410.41 136.48,-404.41 136.48,-398.41 136.48,-398.41 136.48,-386.41 136.48,-386.41 136.48,-380.41 142.48,-374.41 148.48,-374.41"/>
<text text-anchor="middle" x="174.48" y="-388.71" font-family="Arial" font-size="14.00">topicmeta</text>
</g>
<!-- baseMapElements&#45;&gt;topicmeta -->
<g id="edge11" class="edge">
<title>baseMapElements&#45;&gt;topicmeta</title>
<path fill="none" stroke="#1f78b4" d="M245.72,-231.57C231.77,-263.06 203.01,-328 186.62,-365.01"/>
<polygon fill="#a6cee3" stroke="#1f78b4" points="183.39,-363.66 182.54,-374.22 189.79,-366.49 183.39,-363.66"/>
</g>
<!-- shortdesc -->
<g id="node13" class="node">
<title>shortdesc</title>
<path fill="#bfcfff" stroke="black" d="M423.22,-204.99C423.22,-204.99 474.22,-204.99 474.22,-204.99 480.22,-204.99 486.22,-210.99 486.22,-216.99 486.22,-216.99 486.22,-228.99 486.22,-228.99 486.22,-234.99 480.22,-240.99 474.22,-240.99 474.22,-240.99 423.22,-240.99 423.22,-240.99 417.22,-240.99 411.22,-234.99 411.22,-228.99 411.22,-228.99 411.22,-216.99 411.22,-216.99 411.22,-210.99 417.22,-204.99 423.22,-204.99"/>
<text text-anchor="middle" x="448.72" y="-219.29" font-family="Arial" font-size="14.00">shortdesc</text>
</g>
<!-- baseMapElements&#45;&gt;shortdesc -->
<g id="edge12" class="edge">
<title>baseMapElements&#45;&gt;shortdesc</title>
<path fill="none" stroke="#1f78b4" d="M322.49,-216.8C348.47,-218.07 377.43,-219.49 401.06,-220.65"/>
<polygon fill="#a6cee3" stroke="#1f78b4" points="401.01,-224.16 411.17,-221.15 401.36,-217.16 401.01,-224.16"/>
</g>
<!-- linktext -->
<g id="node14" class="node">
<title>linktext</title>
<path fill="#bfcfff" stroke="black" d="M340.1,-343.31C340.1,-343.31 375.1,-343.31 375.1,-343.31 381.1,-343.31 387.1,-349.31 387.1,-355.31 387.1,-355.31 387.1,-367.31 387.1,-367.31 387.1,-373.31 381.1,-379.31 375.1,-379.31 375.1,-379.31 340.1,-379.31 340.1,-379.31 334.1,-379.31 328.1,-373.31 328.1,-367.31 328.1,-367.31 328.1,-355.31 328.1,-355.31 328.1,-349.31 334.1,-343.31 340.1,-343.31"/>
<text text-anchor="middle" x="357.6" y="-357.61" font-family="Arial" font-size="14.00">linktext</text>
</g>
<!-- baseMapElements&#45;&gt;linktext -->
<g id="edge13" class="edge">
<title>baseMapElements&#45;&gt;linktext</title>
<path fill="none" stroke="#1f78b4" d="M266.49,-231.56C284.63,-257.39 318.03,-304.96 338.96,-334.76"/>
<polygon fill="#a6cee3" stroke="#1f78b4" points="336.16,-336.86 344.77,-343.03 341.88,-332.84 336.16,-336.86"/>
</g>
<!-- searchtitle -->
<g id="node15" class="node">
<title>searchtitle</title>
<path fill="#bfcfff" stroke="black" d="M243.68,-396.95C243.68,-396.95 297.68,-396.95 297.68,-396.95 303.68,-396.95 309.68,-402.95 309.68,-408.95 309.68,-408.95 309.68,-420.95 309.68,-420.95 309.68,-426.95 303.68,-432.95 297.68,-432.95 297.68,-432.95 243.68,-432.95 243.68,-432.95 237.68,-432.95 231.68,-426.95 231.68,-420.95 231.68,-420.95 231.68,-408.95 231.68,-408.95 231.68,-402.95 237.68,-396.95 243.68,-396.95"/>
<text text-anchor="middle" x="270.68" y="-411.25" font-family="Arial" font-size="14.00">searchtitle</text>
</g>
<!-- baseMapElements&#45;&gt;searchtitle -->
<g id="edge14" class="edge">
<title>baseMapElements&#45;&gt;searchtitle</title>
<path fill="none" stroke="#1f78b4" d="M255.29,-231.66C258.25,-266.96 264.79,-344.81 268.31,-386.8"/>
<polygon fill="#a6cee3" stroke="#1f78b4" points="264.84,-387.22 269.16,-396.89 271.81,-386.63 264.84,-387.22"/>
</g>
<!-- ux&#45;window -->
<g id="node16" class="node">
<title>ux&#45;window</title>
<path fill="#bfcfff" stroke="black" d="M410.17,-115.12C410.17,-115.12 466.17,-115.12 466.17,-115.12 472.17,-115.12 478.17,-121.12 478.17,-127.12 478.17,-127.12 478.17,-139.12 478.17,-139.12 478.17,-145.12 472.17,-151.12 466.17,-151.12 466.17,-151.12 410.17,-151.12 410.17,-151.12 404.17,-151.12 398.17,-145.12 398.17,-139.12 398.17,-139.12 398.17,-127.12 398.17,-127.12 398.17,-121.12 404.17,-115.12 410.17,-115.12"/>
<text text-anchor="middle" x="438.17" y="-129.42" font-family="Arial" font-size="14.00">ux&#45;window</text>
</g>
<!-- baseMapElements&#45;&gt;ux&#45;window -->
<g id="edge15" class="edge">
<title>baseMapElements&#45;&gt;ux&#45;window</title>
<path fill="none" stroke="#1f78b4" d="M295.14,-195.4C322.83,-183.34 359.42,-167.41 388.66,-154.68"/>
<polygon fill="#a6cee3" stroke="#1f78b4" points="390.1,-157.87 397.87,-150.67 387.31,-151.45 390.1,-157.87"/>
</g>
</g>
</svg>
