<?xml version="1.0" encoding="UTF-8" standalone="no"?>
<!DOCTYPE svg PUBLIC "-//W3C//DTD SVG 1.1//EN"
 "http://www.w3.org/Graphics/SVG/1.1/DTD/svg11.dtd">
<!-- Generated by graphviz version 6.0.1 (20220911.1526)
 -->
<!-- Pages: 1 -->
<svg width="129pt" height="133pt"
 viewBox="0.00 0.00 129.00 133.00" xmlns="http://www.w3.org/2000/svg" xmlns:xlink="http://www.w3.org/1999/xlink">
<g id="graph0" class="graph" transform="scale(1 1) rotate(0) translate(4 129)">
<polygon fill="white" stroke="none" points="-4,4 -4,-129 125,-129 125,4 -4,4"/>
<!-- DITA -->
<g id="node1" class="node">
<title>DITA</title>
<path fill="#dddddd" stroke="black" d="M12.48,-51.9C12.48,-51.9 42.48,-51.9 42.48,-51.9 48.48,-51.9 54.48,-57.9 54.48,-63.9 54.48,-63.9 54.48,-75.9 54.48,-75.9 54.48,-81.9 48.48,-87.9 42.48,-87.9 42.48,-87.9 12.48,-87.9 12.48,-87.9 6.48,-87.9 0.48,-81.9 0.48,-75.9 0.48,-75.9 0.48,-63.9 0.48,-63.9 0.48,-57.9 6.48,-51.9 12.48,-51.9"/>
<text text-anchor="middle" x="27.48" y="-66.2" font-family="Arial" font-size="14.00">DITA</text>
</g>
<!-- map -->
<g id="node2" class="node">
<title>map</title>
<path fill="#afa7f4" stroke="black" d="M78.66,-88.05C78.66,-88.05 108.66,-88.05 108.66,-88.05 114.66,-88.05 120.66,-94.05 120.66,-100.05 120.66,-100.05 120.66,-112.05 120.66,-112.05 120.66,-118.05 114.66,-124.05 108.66,-124.05 108.66,-124.05 78.66,-124.05 78.66,-124.05 72.66,-124.05 66.66,-118.05 66.66,-112.05 66.66,-112.05 66.66,-100.05 66.66,-100.05 66.66,-94.05 72.66,-88.05 78.66,-88.05"/>
<text text-anchor="middle" x="93.66" y="-102.35" font-family="Arial" font-size="14.00">map</text>
</g>
<!-- DITA&#45;&gt;map -->
<g id="edge1" class="edge">
<title>DITA&#45;&gt;map</title>
<path fill="none" stroke="#1f78b4" d="M54.78,-84.81C55.62,-85.27 56.47,-85.73 57.32,-86.2"/>
<polygon fill="#a6cee3" stroke="#1f78b4" points="55.97,-89.45 66.42,-91.17 59.32,-83.31 55.97,-89.45"/>
</g>
<!-- topic -->
<g id="node3" class="node">
<title>topic</title>
<path fill="#afa7f4" stroke="black" d="M12.99,-0.79C12.99,-0.79 42.99,-0.79 42.99,-0.79 48.99,-0.79 54.99,-6.79 54.99,-12.79 54.99,-12.79 54.99,-24.79 54.99,-24.79 54.99,-30.79 48.99,-36.79 42.99,-36.79 42.99,-36.79 12.99,-36.79 12.99,-36.79 6.99,-36.79 0.99,-30.79 0.99,-24.79 0.99,-24.79 0.99,-12.79 0.99,-12.79 0.99,-6.79 6.99,-0.79 12.99,-0.79"/>
<text text-anchor="middle" x="27.99" y="-15.09" font-family="Arial" font-size="14.00">topic</text>
</g>
<!-- DITA&#45;&gt;topic -->
<g id="edge2" class="edge">
<title>DITA&#45;&gt;topic</title>
<path fill="none" stroke="#1f78b4" d="M27.66,-51.74C27.67,-50.23 27.69,-48.69 27.7,-47.13"/>
<polygon fill="#a6cee3" stroke="#1f78b4" points="31.21,-46.93 27.81,-36.89 24.21,-46.86 31.21,-46.93"/>
</g>
</g>
</svg>
