<?xml version="1.0" encoding="UTF-8" standalone="no"?>
<!DOCTYPE svg PUBLIC "-//W3C//DTD SVG 1.1//EN"
 "http://www.w3.org/Graphics/SVG/1.1/DTD/svg11.dtd">
<!-- Generated by graphviz version 6.0.1 (20220911.1526)
 -->
<!-- Pages: 1 -->
<svg width="1446pt" height="1178pt"
 viewBox="0.00 0.00 1446.00 1178.00" xmlns="http://www.w3.org/2000/svg" xmlns:xlink="http://www.w3.org/1999/xlink">
<g id="graph0" class="graph" transform="scale(1 1) rotate(0) translate(4 1174)">
<polygon fill="white" stroke="none" points="-4,4 -4,-1174 1442,-1174 1442,4 -4,4"/>
<!-- map -->
<g id="node1" class="node">
<title>map</title>
<path fill="#afa7f4" stroke="black" d="M298.54,-211.09C298.54,-211.09 328.54,-211.09 328.54,-211.09 334.54,-211.09 340.54,-217.09 340.54,-223.09 340.54,-223.09 340.54,-235.09 340.54,-235.09 340.54,-241.09 334.54,-247.09 328.54,-247.09 328.54,-247.09 298.54,-247.09 298.54,-247.09 292.54,-247.09 286.54,-241.09 286.54,-235.09 286.54,-235.09 286.54,-223.09 286.54,-223.09 286.54,-217.09 292.54,-211.09 298.54,-211.09"/>
<text text-anchor="middle" x="313.54" y="-225.39" font-family="Arial" font-size="14.00">map</text>
</g>
<!-- bookmap -->
<g id="node2" class="node">
<title>bookmap</title>
<path fill="#1afabc" stroke="black" d="M550.6,-306.11C550.6,-306.11 599.6,-306.11 599.6,-306.11 605.6,-306.11 611.6,-312.11 611.6,-318.11 611.6,-318.11 611.6,-330.11 611.6,-330.11 611.6,-336.11 605.6,-342.11 599.6,-342.11 599.6,-342.11 550.6,-342.11 550.6,-342.11 544.6,-342.11 538.6,-336.11 538.6,-330.11 538.6,-330.11 538.6,-318.11 538.6,-318.11 538.6,-312.11 544.6,-306.11 550.6,-306.11"/>
<text text-anchor="middle" x="575.1" y="-320.41" font-family="Arial" font-size="14.00">bookmap</text>
</g>
<!-- map&#45;&gt;bookmap -->
<g id="edge1" class="edge">
<title>map&#45;&gt;bookmap</title>
<path fill="none" stroke="#1f78b4" d="M340.55,-238.9C385,-255.05 474.08,-287.41 528.76,-307.28"/>
<polygon fill="#a6cee3" stroke="#1f78b4" points="527.63,-310.59 538.22,-310.71 530.02,-304.01 527.63,-310.59"/>
</g>
<!-- learningObjectMap -->
<g id="node3" class="node">
<title>learningObjectMap</title>
<path fill="#1afabc" stroke="black" d="M12.1,-193.52C12.1,-193.52 119.1,-193.52 119.1,-193.52 125.1,-193.52 131.1,-199.52 131.1,-205.52 131.1,-205.52 131.1,-217.52 131.1,-217.52 131.1,-223.52 125.1,-229.52 119.1,-229.52 119.1,-229.52 12.1,-229.52 12.1,-229.52 6.1,-229.52 0.1,-223.52 0.1,-217.52 0.1,-217.52 0.1,-205.52 0.1,-205.52 0.1,-199.52 6.1,-193.52 12.1,-193.52"/>
<text text-anchor="middle" x="65.6" y="-207.82" font-family="Arial" font-size="14.00">learningObjectMap</text>
</g>
<!-- map&#45;&gt;learningObjectMap -->
<g id="edge2" class="edge">
<title>map&#45;&gt;learningObjectMap</title>
<path fill="none" stroke="#1f78b4" d="M286.54,-227.18C251.96,-224.73 190.61,-220.38 141.33,-216.89"/>
<polygon fill="#a6cee3" stroke="#1f78b4" points="141.55,-213.4 131.32,-216.18 141.05,-220.38 141.55,-213.4"/>
</g>
<!-- learningmap&#45;d -->
<g id="node4" class="node">
<title>learningmap&#45;d</title>
<path fill="#1afabc" stroke="black" d="M78.65,-128.31C78.65,-128.31 158.65,-128.31 158.65,-128.31 164.65,-128.31 170.65,-134.31 170.65,-140.31 170.65,-140.31 170.65,-152.31 170.65,-152.31 170.65,-158.31 164.65,-164.31 158.65,-164.31 158.65,-164.31 78.65,-164.31 78.65,-164.31 72.65,-164.31 66.65,-158.31 66.65,-152.31 66.65,-152.31 66.65,-140.31 66.65,-140.31 66.65,-134.31 72.65,-128.31 78.65,-128.31"/>
<text text-anchor="middle" x="118.65" y="-142.61" font-family="Arial" font-size="14.00">learningmap&#45;d</text>
</g>
<!-- map&#45;&gt;learningmap&#45;d -->
<g id="edge3" class="edge">
<title>map&#45;&gt;learningmap&#45;d</title>
<path fill="none" stroke="#1f78b4" d="M286.44,-217.58C256.55,-204.89 207.75,-184.16 170.47,-168.32"/>
<polygon fill="#a6cee3" stroke="#1f78b4" points="171.83,-165.1 161.25,-164.41 169.09,-171.54 171.83,-165.1"/>
</g>
<!-- learningGroupMap -->
<g id="node5" class="node">
<title>learningGroupMap</title>
<path fill="#1afabc" stroke="black" d="M56.11,-56.44C56.11,-56.44 162.11,-56.44 162.11,-56.44 168.11,-56.44 174.11,-62.44 174.11,-68.44 174.11,-68.44 174.11,-80.44 174.11,-80.44 174.11,-86.44 168.11,-92.44 162.11,-92.44 162.11,-92.44 56.11,-92.44 56.11,-92.44 50.11,-92.44 44.11,-86.44 44.11,-80.44 44.11,-80.44 44.11,-68.44 44.11,-68.44 44.11,-62.44 50.11,-56.44 56.11,-56.44"/>
<text text-anchor="middle" x="109.11" y="-70.74" font-family="Arial" font-size="14.00">learningGroupMap</text>
</g>
<!-- map&#45;&gt;learningGroupMap -->
<g id="edge4" class="edge">
<title>map&#45;&gt;learningGroupMap</title>
<path fill="none" stroke="#1f78b4" d="M289.69,-211.05C252.94,-183.25 182.4,-129.88 141.21,-98.72"/>
<polygon fill="#a6cee3" stroke="#1f78b4" points="143.22,-95.85 133.13,-92.61 138.99,-101.43 143.22,-95.85"/>
</g>
<!-- glossref&#45;d -->
<g id="node6" class="node">
<title>glossref&#45;d</title>
<path fill="#1afabc" stroke="black" d="M99.71,-259.14C99.71,-259.14 151.71,-259.14 151.71,-259.14 157.71,-259.14 163.71,-265.14 163.71,-271.14 163.71,-271.14 163.71,-283.14 163.71,-283.14 163.71,-289.14 157.71,-295.14 151.71,-295.14 151.71,-295.14 99.71,-295.14 99.71,-295.14 93.71,-295.14 87.71,-289.14 87.71,-283.14 87.71,-283.14 87.71,-271.14 87.71,-271.14 87.71,-265.14 93.71,-259.14 99.71,-259.14"/>
<text text-anchor="middle" x="125.71" y="-273.44" font-family="Arial" font-size="14.00">glossref&#45;d</text>
</g>
<!-- map&#45;&gt;glossref&#45;d -->
<g id="edge5" class="edge">
<title>map&#45;&gt;glossref&#45;d</title>
<path fill="none" stroke="#1f78b4" d="M286.23,-236.08C256.75,-243.62 209.23,-255.78 173.52,-264.91"/>
<polygon fill="#a6cee3" stroke="#1f78b4" points="172.61,-261.53 163.79,-267.4 174.35,-268.31 172.61,-261.53"/>
</g>
<!-- ditavalref&#45;d -->
<g id="node7" class="node">
<title>ditavalref&#45;d</title>
<path fill="#1afabc" stroke="black" d="M459.27,-349.33C459.27,-349.33 518.27,-349.33 518.27,-349.33 524.27,-349.33 530.27,-355.33 530.27,-361.33 530.27,-361.33 530.27,-373.33 530.27,-373.33 530.27,-379.33 524.27,-385.33 518.27,-385.33 518.27,-385.33 459.27,-385.33 459.27,-385.33 453.27,-385.33 447.27,-379.33 447.27,-373.33 447.27,-373.33 447.27,-361.33 447.27,-361.33 447.27,-355.33 453.27,-349.33 459.27,-349.33"/>
<text text-anchor="middle" x="488.77" y="-363.63" font-family="Arial" font-size="14.00">ditavalref&#45;d</text>
</g>
<!-- map&#45;&gt;ditavalref&#45;d -->
<g id="edge6" class="edge">
<title>map&#45;&gt;ditavalref&#45;d</title>
<path fill="none" stroke="#1f78b4" d="M336.45,-247.16C367.54,-271.69 423.19,-315.59 457.93,-342.99"/>
<polygon fill="#a6cee3" stroke="#1f78b4" points="455.84,-345.8 465.86,-349.25 460.18,-340.31 455.84,-345.8"/>
</g>
<!-- mapgroup&#45;d -->
<g id="node8" class="node">
<title>mapgroup&#45;d</title>
<path fill="#1afabc" stroke="black" d="M238.09,-0.74C238.09,-0.74 304.09,-0.74 304.09,-0.74 310.09,-0.74 316.09,-6.74 316.09,-12.74 316.09,-12.74 316.09,-24.74 316.09,-24.74 316.09,-30.74 310.09,-36.74 304.09,-36.74 304.09,-36.74 238.09,-36.74 238.09,-36.74 232.09,-36.74 226.09,-30.74 226.09,-24.74 226.09,-24.74 226.09,-12.74 226.09,-12.74 226.09,-6.74 232.09,-0.74 238.09,-0.74"/>
<text text-anchor="middle" x="271.09" y="-15.04" font-family="Arial" font-size="14.00">mapgroup&#45;d</text>
</g>
<!-- map&#45;&gt;mapgroup&#45;d -->
<g id="edge7" class="edge">
<title>map&#45;&gt;mapgroup&#45;d</title>
<path fill="none" stroke="#1f78b4" d="M309.85,-210.79C302.41,-173.95 285.6,-90.61 276.76,-46.83"/>
<polygon fill="#a6cee3" stroke="#1f78b4" points="280.15,-45.96 274.74,-36.85 273.29,-47.34 280.15,-45.96"/>
</g>
<!-- classify&#45;d -->
<g id="node9" class="node">
<title>classify&#45;d</title>
<path fill="#1afabc" stroke="black" d="M195.19,-50.63C195.19,-50.63 244.19,-50.63 244.19,-50.63 250.19,-50.63 256.19,-56.63 256.19,-62.63 256.19,-62.63 256.19,-74.63 256.19,-74.63 256.19,-80.63 250.19,-86.63 244.19,-86.63 244.19,-86.63 195.19,-86.63 195.19,-86.63 189.19,-86.63 183.19,-80.63 183.19,-74.63 183.19,-74.63 183.19,-62.63 183.19,-62.63 183.19,-56.63 189.19,-50.63 195.19,-50.63"/>
<text text-anchor="middle" x="219.69" y="-64.93" font-family="Arial" font-size="14.00">classify&#45;d</text>
</g>
<!-- map&#45;&gt;classify&#45;d -->
<g id="edge8" class="edge">
<title>map&#45;&gt;classify&#45;d</title>
<path fill="none" stroke="#1f78b4" d="M302.96,-211C286.48,-182.83 254.61,-128.33 235.43,-95.54"/>
<polygon fill="#a6cee3" stroke="#1f78b4" points="238.45,-93.77 230.38,-86.91 232.41,-97.31 238.45,-93.77"/>
</g>
<!-- subjectScheme -->
<g id="node10" class="node">
<title>subjectScheme</title>
<path fill="#1afabc" stroke="black" d="M475.15,-394.78C475.15,-394.78 561.15,-394.78 561.15,-394.78 567.15,-394.78 573.15,-400.78 573.15,-406.78 573.15,-406.78 573.15,-418.78 573.15,-418.78 573.15,-424.78 567.15,-430.78 561.15,-430.78 561.15,-430.78 475.15,-430.78 475.15,-430.78 469.15,-430.78 463.15,-424.78 463.15,-418.78 463.15,-418.78 463.15,-406.78 463.15,-406.78 463.15,-400.78 469.15,-394.78 475.15,-394.78"/>
<text text-anchor="middle" x="518.15" y="-409.08" font-family="Arial" font-size="14.00">subjectScheme</text>
</g>
<!-- map&#45;&gt;subjectScheme -->
<g id="edge9" class="edge">
<title>map&#45;&gt;subjectScheme</title>
<path fill="none" stroke="#1f78b4" d="M333.91,-247.38C370.75,-280.45 448.52,-350.27 490.26,-387.74"/>
<polygon fill="#a6cee3" stroke="#1f78b4" points="488.09,-390.49 497.87,-394.57 492.76,-385.28 488.09,-390.49"/>
</g>
<!-- topic -->
<g id="node11" class="node">
<title>topic</title>
<path fill="#afa7f4" stroke="black" d="M761.35,-512.28C761.35,-512.28 791.35,-512.28 791.35,-512.28 797.35,-512.28 803.35,-518.28 803.35,-524.28 803.35,-524.28 803.35,-536.28 803.35,-536.28 803.35,-542.28 797.35,-548.28 791.35,-548.28 791.35,-548.28 761.35,-548.28 761.35,-548.28 755.35,-548.28 749.35,-542.28 749.35,-536.28 749.35,-536.28 749.35,-524.28 749.35,-524.28 749.35,-518.28 755.35,-512.28 761.35,-512.28"/>
<text text-anchor="middle" x="776.35" y="-526.58" font-family="Arial" font-size="14.00">topic</text>
</g>
<!-- topic&#45;&gt;bookmap -->
<g id="edge10" class="edge">
<title>topic&#45;&gt;bookmap</title>
<path fill="none" stroke="#1f78b4" d="M758.49,-511.98C722.54,-475.15 641.35,-391.98 600.13,-349.75"/>
<polygon fill="#a6cee3" stroke="#1f78b4" points="602.41,-347.08 592.92,-342.37 597.4,-351.97 602.41,-347.08"/>
</g>
<!-- topic&#45;&gt;ditavalref&#45;d -->
<g id="edge40" class="edge">
<title>topic&#45;&gt;ditavalref&#45;d</title>
<path fill="none" stroke="#1f78b4" d="M749.3,-514.95C698.63,-486.24 589.17,-424.21 529.52,-390.42"/>
<polygon fill="#a6cee3" stroke="#1f78b4" points="531.17,-387.33 520.75,-385.44 527.72,-393.42 531.17,-387.33"/>
</g>
<!-- topic&#45;&gt;subjectScheme -->
<g id="edge46" class="edge">
<title>topic&#45;&gt;subjectScheme</title>
<path fill="none" stroke="#1f78b4" d="M749.21,-517.93C706.09,-498.3 621.32,-459.73 567.31,-435.15"/>
<polygon fill="#a6cee3" stroke="#1f78b4" points="568.49,-431.84 557.94,-430.88 565.59,-438.21 568.49,-431.84"/>
</g>
<!-- learningBase -->
<g id="node12" class="node">
<title>learningBase</title>
<path fill="#1afabc" stroke="black" d="M1065.01,-309.98C1065.01,-309.98 1136.01,-309.98 1136.01,-309.98 1142.01,-309.98 1148.01,-315.98 1148.01,-321.98 1148.01,-321.98 1148.01,-333.98 1148.01,-333.98 1148.01,-339.98 1142.01,-345.98 1136.01,-345.98 1136.01,-345.98 1065.01,-345.98 1065.01,-345.98 1059.01,-345.98 1053.01,-339.98 1053.01,-333.98 1053.01,-333.98 1053.01,-321.98 1053.01,-321.98 1053.01,-315.98 1059.01,-309.98 1065.01,-309.98"/>
<text text-anchor="middle" x="1100.51" y="-324.28" font-family="Arial" font-size="14.00">learningBase</text>
</g>
<!-- topic&#45;&gt;learningBase -->
<g id="edge11" class="edge">
<title>topic&#45;&gt;learningBase</title>
<path fill="none" stroke="#1f78b4" d="M803.43,-513.38C861.13,-477.37 996.3,-393.02 1062.55,-351.67"/>
<polygon fill="#a6cee3" stroke="#1f78b4" points="1064.79,-354.39 1071.42,-346.13 1061.09,-348.45 1064.79,-354.39"/>
</g>
<!-- learningInteractionBase2&#45;d -->
<g id="node18" class="node">
<title>learningInteractionBase2&#45;d</title>
<path fill="#1afabc" stroke="black" d="M656.18,-849.94C656.18,-849.94 810.18,-849.94 810.18,-849.94 816.18,-849.94 822.18,-855.94 822.18,-861.94 822.18,-861.94 822.18,-873.94 822.18,-873.94 822.18,-879.94 816.18,-885.94 810.18,-885.94 810.18,-885.94 656.18,-885.94 656.18,-885.94 650.18,-885.94 644.18,-879.94 644.18,-873.94 644.18,-873.94 644.18,-861.94 644.18,-861.94 644.18,-855.94 650.18,-849.94 656.18,-849.94"/>
<text text-anchor="middle" x="733.18" y="-864.24" font-family="Arial" font-size="14.00">learningInteractionBase2&#45;d</text>
</g>
<!-- topic&#45;&gt;learningInteractionBase2&#45;d -->
<g id="edge17" class="edge">
<title>topic&#45;&gt;learningInteractionBase2&#45;d</title>
<path fill="none" stroke="#1f78b4" d="M774.03,-548.43C766.93,-603.97 745.46,-771.89 736.83,-839.39"/>
<polygon fill="#a6cee3" stroke="#1f78b4" points="733.31,-839.33 735.51,-849.69 740.25,-840.22 733.31,-839.33"/>
</g>
<!-- learningInteractionBase&#45;d -->
<g id="node20" class="node">
<title>learningInteractionBase&#45;d</title>
<path fill="#1afabc" stroke="black" d="M483.15,-765.79C483.15,-765.79 629.15,-765.79 629.15,-765.79 635.15,-765.79 641.15,-771.79 641.15,-777.79 641.15,-777.79 641.15,-789.79 641.15,-789.79 641.15,-795.79 635.15,-801.79 629.15,-801.79 629.15,-801.79 483.15,-801.79 483.15,-801.79 477.15,-801.79 471.15,-795.79 471.15,-789.79 471.15,-789.79 471.15,-777.79 471.15,-777.79 471.15,-771.79 477.15,-765.79 483.15,-765.79"/>
<text text-anchor="middle" x="556.15" y="-780.09" font-family="Arial" font-size="14.00">learningInteractionBase&#45;d</text>
</g>
<!-- topic&#45;&gt;learningInteractionBase&#45;d -->
<g id="edge19" class="edge">
<title>topic&#45;&gt;learningInteractionBase&#45;d</title>
<path fill="none" stroke="#1f78b4" d="M760.52,-548.51C721.95,-592.91 623.07,-706.75 578.51,-758.05"/>
<polygon fill="#a6cee3" stroke="#1f78b4" points="575.76,-755.88 571.84,-765.72 581.04,-760.47 575.76,-755.88"/>
</g>
<!-- learningmeta&#45;d -->
<g id="node22" class="node">
<title>learningmeta&#45;d</title>
<path fill="#1afabc" stroke="black" d="M504.27,-561.23C504.27,-561.23 587.27,-561.23 587.27,-561.23 593.27,-561.23 599.27,-567.23 599.27,-573.23 599.27,-573.23 599.27,-585.23 599.27,-585.23 599.27,-591.23 593.27,-597.23 587.27,-597.23 587.27,-597.23 504.27,-597.23 504.27,-597.23 498.27,-597.23 492.27,-591.23 492.27,-585.23 492.27,-585.23 492.27,-573.23 492.27,-573.23 492.27,-567.23 498.27,-561.23 504.27,-561.23"/>
<text text-anchor="middle" x="545.77" y="-575.53" font-family="Arial" font-size="14.00">learningmeta&#45;d</text>
</g>
<!-- topic&#45;&gt;learningmeta&#45;d -->
<g id="edge21" class="edge">
<title>topic&#45;&gt;learningmeta&#45;d</title>
<path fill="none" stroke="#1f78b4" d="M749,-536.09C714.77,-543.35 655.07,-556.02 609.21,-565.76"/>
<polygon fill="#a6cee3" stroke="#1f78b4" points="608.41,-562.35 599.35,-567.85 609.86,-569.2 608.41,-562.35"/>
</g>
<!-- abbrev&#45;d -->
<g id="node23" class="node">
<title>abbrev&#45;d</title>
<path fill="#1afabc" stroke="black" d="M751,-324.78C751,-324.78 797,-324.78 797,-324.78 803,-324.78 809,-330.78 809,-336.78 809,-336.78 809,-348.78 809,-348.78 809,-354.78 803,-360.78 797,-360.78 797,-360.78 751,-360.78 751,-360.78 745,-360.78 739,-354.78 739,-348.78 739,-348.78 739,-336.78 739,-336.78 739,-330.78 745,-324.78 751,-324.78"/>
<text text-anchor="middle" x="774" y="-339.08" font-family="Arial" font-size="14.00">abbrev&#45;d</text>
</g>
<!-- topic&#45;&gt;abbrev&#45;d -->
<g id="edge22" class="edge">
<title>topic&#45;&gt;abbrev&#45;d</title>
<path fill="none" stroke="#1f78b4" d="M776.13,-511.96C775.71,-479.11 774.85,-409.99 774.36,-371.03"/>
<polygon fill="#a6cee3" stroke="#1f78b4" points="777.86,-370.85 774.23,-360.9 770.86,-370.94 777.86,-370.85"/>
</g>
<!-- markup&#45;d -->
<g id="node24" class="node">
<title>markup&#45;d</title>
<path fill="#1afabc" stroke="black" d="M859.02,-765.31C859.02,-765.31 909.02,-765.31 909.02,-765.31 915.02,-765.31 921.02,-771.31 921.02,-777.31 921.02,-777.31 921.02,-789.31 921.02,-789.31 921.02,-795.31 915.02,-801.31 909.02,-801.31 909.02,-801.31 859.02,-801.31 859.02,-801.31 853.02,-801.31 847.02,-795.31 847.02,-789.31 847.02,-789.31 847.02,-777.31 847.02,-777.31 847.02,-771.31 853.02,-765.31 859.02,-765.31"/>
<text text-anchor="middle" x="884.02" y="-779.61" font-family="Arial" font-size="14.00">markup&#45;d</text>
</g>
<!-- topic&#45;&gt;markup&#45;d -->
<g id="edge23" class="edge">
<title>topic&#45;&gt;markup&#45;d</title>
<path fill="none" stroke="#1f78b4" d="M784.1,-548.48C802.76,-592.34 850.31,-704.09 872.41,-756.02"/>
<polygon fill="#a6cee3" stroke="#1f78b4" points="869.21,-757.45 876.35,-765.28 875.65,-754.71 869.21,-757.45"/>
</g>
<!-- mathml&#45;d -->
<g id="node26" class="node">
<title>mathml&#45;d</title>
<path fill="#1afabc" stroke="black" d="M696.77,-720.86C696.77,-720.86 746.77,-720.86 746.77,-720.86 752.77,-720.86 758.77,-726.86 758.77,-732.86 758.77,-732.86 758.77,-744.86 758.77,-744.86 758.77,-750.86 752.77,-756.86 746.77,-756.86 746.77,-756.86 696.77,-756.86 696.77,-756.86 690.77,-756.86 684.77,-750.86 684.77,-744.86 684.77,-744.86 684.77,-732.86 684.77,-732.86 684.77,-726.86 690.77,-720.86 696.77,-720.86"/>
<text text-anchor="middle" x="721.77" y="-735.16" font-family="Arial" font-size="14.00">mathml&#45;d</text>
</g>
<!-- topic&#45;&gt;mathml&#45;d -->
<g id="edge25" class="edge">
<title>topic&#45;&gt;mathml&#45;d</title>
<path fill="none" stroke="#1f78b4" d="M771.61,-548.42C762.07,-584.87 740.53,-667.18 729.14,-710.68"/>
<polygon fill="#a6cee3" stroke="#1f78b4" points="725.69,-710.05 726.55,-720.61 732.46,-711.82 725.69,-710.05"/>
</g>
<!-- troubleshooting -->
<g id="node27" class="node">
<title>troubleshooting</title>
<path fill="#1afabc" stroke="black" d="M531.61,-629.9C531.61,-629.9 616.61,-629.9 616.61,-629.9 622.61,-629.9 628.61,-635.9 628.61,-641.9 628.61,-641.9 628.61,-653.9 628.61,-653.9 628.61,-659.9 622.61,-665.9 616.61,-665.9 616.61,-665.9 531.61,-665.9 531.61,-665.9 525.61,-665.9 519.61,-659.9 519.61,-653.9 519.61,-653.9 519.61,-641.9 519.61,-641.9 519.61,-635.9 525.61,-629.9 531.61,-629.9"/>
<text text-anchor="middle" x="574.11" y="-644.2" font-family="Arial" font-size="14.00">troubleshooting</text>
</g>
<!-- topic&#45;&gt;troubleshooting -->
<g id="edge26" class="edge">
<title>topic&#45;&gt;troubleshooting</title>
<path fill="none" stroke="#1f78b4" d="M749.08,-546.14C714.3,-566.37 653.88,-601.51 613.95,-624.73"/>
<polygon fill="#a6cee3" stroke="#1f78b4" points="612.14,-621.73 605.26,-629.79 615.66,-627.78 612.14,-621.73"/>
</g>
<!-- svg&#45;d -->
<g id="node28" class="node">
<title>svg&#45;d</title>
<path fill="#1afabc" stroke="black" d="M928.23,-438.77C928.23,-438.77 958.23,-438.77 958.23,-438.77 964.23,-438.77 970.23,-444.77 970.23,-450.77 970.23,-450.77 970.23,-462.77 970.23,-462.77 970.23,-468.77 964.23,-474.77 958.23,-474.77 958.23,-474.77 928.23,-474.77 928.23,-474.77 922.23,-474.77 916.23,-468.77 916.23,-462.77 916.23,-462.77 916.23,-450.77 916.23,-450.77 916.23,-444.77 922.23,-438.77 928.23,-438.77"/>
<text text-anchor="middle" x="943.23" y="-453.07" font-family="Arial" font-size="14.00">svg&#45;d</text>
</g>
<!-- topic&#45;&gt;svg&#45;d -->
<g id="edge27" class="edge">
<title>topic&#45;&gt;svg&#45;d</title>
<path fill="none" stroke="#1f78b4" d="M803.54,-518.3C831.66,-505.92 875.74,-486.5 906.85,-472.79"/>
<polygon fill="#a6cee3" stroke="#1f78b4" points="908.32,-475.97 916.06,-468.74 905.5,-469.57 908.32,-475.97"/>
</g>
<!-- ui&#45;d -->
<g id="node29" class="node">
<title>ui&#45;d</title>
<path fill="#1afabc" stroke="black" d="M900.38,-378.13C900.38,-378.13 930.38,-378.13 930.38,-378.13 936.38,-378.13 942.38,-384.13 942.38,-390.13 942.38,-390.13 942.38,-402.13 942.38,-402.13 942.38,-408.13 936.38,-414.13 930.38,-414.13 930.38,-414.13 900.38,-414.13 900.38,-414.13 894.38,-414.13 888.38,-408.13 888.38,-402.13 888.38,-402.13 888.38,-390.13 888.38,-390.13 888.38,-384.13 894.38,-378.13 900.38,-378.13"/>
<text text-anchor="middle" x="915.38" y="-392.43" font-family="Arial" font-size="14.00">ui&#45;d</text>
</g>
<!-- topic&#45;&gt;ui&#45;d -->
<g id="edge28" class="edge">
<title>topic&#45;&gt;ui&#45;d</title>
<path fill="none" stroke="#1f78b4" d="M795.1,-512.19C819.36,-488.79 861.74,-447.89 889.17,-421.42"/>
<polygon fill="#a6cee3" stroke="#1f78b4" points="891.71,-423.83 896.48,-414.37 886.85,-418.79 891.71,-423.83"/>
</g>
<!-- reference -->
<g id="node30" class="node">
<title>reference</title>
<path fill="#1afabc" stroke="black" d="M785.64,-709.59C785.64,-709.59 835.64,-709.59 835.64,-709.59 841.64,-709.59 847.64,-715.59 847.64,-721.59 847.64,-721.59 847.64,-733.59 847.64,-733.59 847.64,-739.59 841.64,-745.59 835.64,-745.59 835.64,-745.59 785.64,-745.59 785.64,-745.59 779.64,-745.59 773.64,-739.59 773.64,-733.59 773.64,-733.59 773.64,-721.59 773.64,-721.59 773.64,-715.59 779.64,-709.59 785.64,-709.59"/>
<text text-anchor="middle" x="810.64" y="-723.89" font-family="Arial" font-size="14.00">reference</text>
</g>
<!-- topic&#45;&gt;reference -->
<g id="edge29" class="edge">
<title>topic&#45;&gt;reference</title>
<path fill="none" stroke="#1f78b4" d="M779.52,-548.49C785.53,-583.07 798.63,-658.44 805.76,-699.52"/>
<polygon fill="#a6cee3" stroke="#1f78b4" points="802.32,-700.17 807.48,-709.42 809.22,-698.97 802.32,-700.17"/>
</g>
<!-- equation&#45;d -->
<g id="node31" class="node">
<title>equation&#45;d</title>
<path fill="#1afabc" stroke="black" d="M697.2,-659.74C697.2,-659.74 753.2,-659.74 753.2,-659.74 759.2,-659.74 765.2,-665.74 765.2,-671.74 765.2,-671.74 765.2,-683.74 765.2,-683.74 765.2,-689.74 759.2,-695.74 753.2,-695.74 753.2,-695.74 697.2,-695.74 697.2,-695.74 691.2,-695.74 685.2,-689.74 685.2,-683.74 685.2,-683.74 685.2,-671.74 685.2,-671.74 685.2,-665.74 691.2,-659.74 697.2,-659.74"/>
<text text-anchor="middle" x="725.2" y="-674.04" font-family="Arial" font-size="14.00">equation&#45;d</text>
</g>
<!-- topic&#45;&gt;equation&#45;d -->
<g id="edge30" class="edge">
<title>topic&#45;&gt;equation&#45;d</title>
<path fill="none" stroke="#1f78b4" d="M770.08,-548.36C761.3,-573.68 745.26,-619.92 734.92,-649.72"/>
<polygon fill="#a6cee3" stroke="#1f78b4" points="731.49,-648.92 731.52,-659.51 738.11,-651.21 731.49,-648.92"/>
</g>
<!-- task -->
<g id="node32" class="node">
<title>task</title>
<path fill="#1afabc" stroke="black" d="M794.82,-257.75C794.82,-257.75 824.82,-257.75 824.82,-257.75 830.82,-257.75 836.82,-263.75 836.82,-269.75 836.82,-269.75 836.82,-281.75 836.82,-281.75 836.82,-287.75 830.82,-293.75 824.82,-293.75 824.82,-293.75 794.82,-293.75 794.82,-293.75 788.82,-293.75 782.82,-287.75 782.82,-281.75 782.82,-281.75 782.82,-269.75 782.82,-269.75 782.82,-263.75 788.82,-257.75 794.82,-257.75"/>
<text text-anchor="middle" x="809.82" y="-272.05" font-family="Arial" font-size="14.00">task</text>
</g>
<!-- topic&#45;&gt;task -->
<g id="edge31" class="edge">
<title>topic&#45;&gt;task</title>
<path fill="none" stroke="#1f78b4" d="M778.76,-511.97C784.54,-468.04 799.22,-356.37 806.12,-303.86"/>
<polygon fill="#a6cee3" stroke="#1f78b4" points="809.6,-304.26 807.44,-293.89 802.66,-303.35 809.6,-304.26"/>
</g>
<!-- pr&#45;d -->
<g id="node34" class="node">
<title>pr&#45;d</title>
<path fill="#1afabc" stroke="black" d="M837.96,-355.23C837.96,-355.23 867.96,-355.23 867.96,-355.23 873.96,-355.23 879.96,-361.23 879.96,-367.23 879.96,-367.23 879.96,-379.23 879.96,-379.23 879.96,-385.23 873.96,-391.23 867.96,-391.23 867.96,-391.23 837.96,-391.23 837.96,-391.23 831.96,-391.23 825.96,-385.23 825.96,-379.23 825.96,-379.23 825.96,-367.23 825.96,-367.23 825.96,-361.23 831.96,-355.23 837.96,-355.23"/>
<text text-anchor="middle" x="852.96" y="-369.53" font-family="Arial" font-size="14.00">pr&#45;d</text>
</g>
<!-- topic&#45;&gt;pr&#45;d -->
<g id="edge33" class="edge">
<title>topic&#45;&gt;pr&#45;d</title>
<path fill="none" stroke="#1f78b4" d="M785.14,-512.26C798.46,-484.96 823.87,-432.88 839.52,-400.79"/>
<polygon fill="#a6cee3" stroke="#1f78b4" points="842.8,-402.04 844.04,-391.52 836.51,-398.98 842.8,-402.04"/>
</g>
<!-- concept -->
<g id="node35" class="node">
<title>concept</title>
<path fill="#1afabc" stroke="black" d="M1013.31,-674.23C1013.31,-674.23 1053.31,-674.23 1053.31,-674.23 1059.31,-674.23 1065.31,-680.23 1065.31,-686.23 1065.31,-686.23 1065.31,-698.23 1065.31,-698.23 1065.31,-704.23 1059.31,-710.23 1053.31,-710.23 1053.31,-710.23 1013.31,-710.23 1013.31,-710.23 1007.31,-710.23 1001.31,-704.23 1001.31,-698.23 1001.31,-698.23 1001.31,-686.23 1001.31,-686.23 1001.31,-680.23 1007.31,-674.23 1013.31,-674.23"/>
<text text-anchor="middle" x="1033.31" y="-688.53" font-family="Arial" font-size="14.00">concept</text>
</g>
<!-- topic&#45;&gt;concept -->
<g id="edge34" class="edge">
<title>topic&#45;&gt;concept</title>
<path fill="none" stroke="#1f78b4" d="M803.37,-547.3C849.53,-576.4 943.68,-635.74 996.06,-668.75"/>
<polygon fill="#a6cee3" stroke="#1f78b4" points="994.38,-671.83 1004.71,-674.2 998.12,-665.91 994.38,-671.83"/>
</g>
<!-- sw&#45;d -->
<g id="node38" class="node">
<title>sw&#45;d</title>
<path fill="#1afabc" stroke="black" d="M852.04,-650.4C852.04,-650.4 882.04,-650.4 882.04,-650.4 888.04,-650.4 894.04,-656.4 894.04,-662.4 894.04,-662.4 894.04,-674.4 894.04,-674.4 894.04,-680.4 888.04,-686.4 882.04,-686.4 882.04,-686.4 852.04,-686.4 852.04,-686.4 846.04,-686.4 840.04,-680.4 840.04,-674.4 840.04,-674.4 840.04,-662.4 840.04,-662.4 840.04,-656.4 846.04,-650.4 852.04,-650.4"/>
<text text-anchor="middle" x="867.04" y="-664.7" font-family="Arial" font-size="14.00">sw&#45;d</text>
</g>
<!-- topic&#45;&gt;sw&#45;d -->
<g id="edge37" class="edge">
<title>topic&#45;&gt;sw&#45;d</title>
<path fill="none" stroke="#1f78b4" d="M788.21,-548.34C803.89,-572.22 831.65,-614.5 849.69,-641.98"/>
<polygon fill="#a6cee3" stroke="#1f78b4" points="846.77,-643.9 855.18,-650.34 852.62,-640.06 846.77,-643.9"/>
</g>
<!-- relmgmt&#45;d -->
<g id="node39" class="node">
<title>relmgmt&#45;d</title>
<path fill="#1afabc" stroke="black" d="M566.14,-507.06C566.14,-507.06 621.14,-507.06 621.14,-507.06 627.14,-507.06 633.14,-513.06 633.14,-519.06 633.14,-519.06 633.14,-531.06 633.14,-531.06 633.14,-537.06 627.14,-543.06 621.14,-543.06 621.14,-543.06 566.14,-543.06 566.14,-543.06 560.14,-543.06 554.14,-537.06 554.14,-531.06 554.14,-531.06 554.14,-519.06 554.14,-519.06 554.14,-513.06 560.14,-507.06 566.14,-507.06"/>
<text text-anchor="middle" x="593.64" y="-521.36" font-family="Arial" font-size="14.00">relmgmt&#45;d</text>
</g>
<!-- topic&#45;&gt;relmgmt&#45;d -->
<g id="edge38" class="edge">
<title>topic&#45;&gt;relmgmt&#45;d</title>
<path fill="none" stroke="#1f78b4" d="M749,-529.5C721.21,-528.7 677.55,-527.46 643.58,-526.49"/>
<polygon fill="#a6cee3" stroke="#1f78b4" points="643.47,-522.98 633.37,-526.2 643.27,-529.98 643.47,-522.98"/>
</g>
<!-- xnal&#45;d -->
<g id="node40" class="node">
<title>xnal&#45;d</title>
<path fill="#1afabc" stroke="black" d="M687.52,-350.12C687.52,-350.12 717.52,-350.12 717.52,-350.12 723.52,-350.12 729.52,-356.12 729.52,-362.12 729.52,-362.12 729.52,-374.12 729.52,-374.12 729.52,-380.12 723.52,-386.12 717.52,-386.12 717.52,-386.12 687.52,-386.12 687.52,-386.12 681.52,-386.12 675.52,-380.12 675.52,-374.12 675.52,-374.12 675.52,-362.12 675.52,-362.12 675.52,-356.12 681.52,-350.12 687.52,-350.12"/>
<text text-anchor="middle" x="702.52" y="-364.42" font-family="Arial" font-size="14.00">xnal&#45;d</text>
</g>
<!-- topic&#45;&gt;xnal&#45;d -->
<g id="edge39" class="edge">
<title>topic&#45;&gt;xnal&#45;d</title>
<path fill="none" stroke="#1f78b4" d="M768.03,-511.99C755.12,-483.65 730.2,-428.92 715.09,-395.74"/>
<polygon fill="#a6cee3" stroke="#1f78b4" points="718.26,-394.24 710.93,-386.59 711.89,-397.14 718.26,-394.24"/>
</g>
<!-- delay&#45;d -->
<g id="node41" class="node">
<title>delay&#45;d</title>
<path fill="#1afabc" stroke="black" d="M942.51,-560.15C942.51,-560.15 979.51,-560.15 979.51,-560.15 985.51,-560.15 991.51,-566.15 991.51,-572.15 991.51,-572.15 991.51,-584.15 991.51,-584.15 991.51,-590.15 985.51,-596.15 979.51,-596.15 979.51,-596.15 942.51,-596.15 942.51,-596.15 936.51,-596.15 930.51,-590.15 930.51,-584.15 930.51,-584.15 930.51,-572.15 930.51,-572.15 930.51,-566.15 936.51,-560.15 942.51,-560.15"/>
<text text-anchor="middle" x="961.01" y="-574.45" font-family="Arial" font-size="14.00">delay&#45;d</text>
</g>
<!-- topic&#45;&gt;delay&#45;d -->
<g id="edge41" class="edge">
<title>topic&#45;&gt;delay&#45;d</title>
<path fill="none" stroke="#1f78b4" d="M803.6,-537.34C834.37,-545.32 884.77,-558.38 920.23,-567.58"/>
<polygon fill="#a6cee3" stroke="#1f78b4" points="919.71,-571.06 930.26,-570.18 921.46,-564.28 919.71,-571.06"/>
</g>
<!-- indexing&#45;d -->
<g id="node42" class="node">
<title>indexing&#45;d</title>
<path fill="#1afabc" stroke="black" d="M608.86,-675.38C608.86,-675.38 663.86,-675.38 663.86,-675.38 669.86,-675.38 675.86,-681.38 675.86,-687.38 675.86,-687.38 675.86,-699.38 675.86,-699.38 675.86,-705.38 669.86,-711.38 663.86,-711.38 663.86,-711.38 608.86,-711.38 608.86,-711.38 602.86,-711.38 596.86,-705.38 596.86,-699.38 596.86,-699.38 596.86,-687.38 596.86,-687.38 596.86,-681.38 602.86,-675.38 608.86,-675.38"/>
<text text-anchor="middle" x="636.36" y="-689.68" font-family="Arial" font-size="14.00">indexing&#45;d</text>
</g>
<!-- topic&#45;&gt;indexing&#45;d -->
<g id="edge42" class="edge">
<title>topic&#45;&gt;indexing&#45;d</title>
<path fill="none" stroke="#1f78b4" d="M760.84,-548.36C736.03,-577.26 687.33,-634 658.76,-667.29"/>
<polygon fill="#a6cee3" stroke="#1f78b4" points="655.81,-665.35 651.95,-675.22 661.12,-669.91 655.81,-665.35"/>
</g>
<!-- hazard&#45;d -->
<g id="node43" class="node">
<title>hazard&#45;d</title>
<path fill="#1afabc" stroke="black" d="M914.09,-629.86C914.09,-629.86 960.09,-629.86 960.09,-629.86 966.09,-629.86 972.09,-635.86 972.09,-641.86 972.09,-641.86 972.09,-653.86 972.09,-653.86 972.09,-659.86 966.09,-665.86 960.09,-665.86 960.09,-665.86 914.09,-665.86 914.09,-665.86 908.09,-665.86 902.09,-659.86 902.09,-653.86 902.09,-653.86 902.09,-641.86 902.09,-641.86 902.09,-635.86 908.09,-629.86 914.09,-629.86"/>
<text text-anchor="middle" x="937.09" y="-644.16" font-family="Arial" font-size="14.00">hazard&#45;d</text>
</g>
<!-- topic&#45;&gt;hazard&#45;d -->
<g id="edge43" class="edge">
<title>topic&#45;&gt;hazard&#45;d</title>
<path fill="none" stroke="#1f78b4" d="M801.12,-548.39C828.73,-568.59 873.51,-601.35 904.08,-623.71"/>
<polygon fill="#a6cee3" stroke="#1f78b4" points="902.16,-626.64 912.3,-629.72 906.3,-621 902.16,-626.64"/>
</g>
<!-- hi&#45;d -->
<g id="node44" class="node">
<title>hi&#45;d</title>
<path fill="#1afabc" stroke="black" d="M631.16,-423.62C631.16,-423.62 661.16,-423.62 661.16,-423.62 667.16,-423.62 673.16,-429.62 673.16,-435.62 673.16,-435.62 673.16,-447.62 673.16,-447.62 673.16,-453.62 667.16,-459.62 661.16,-459.62 661.16,-459.62 631.16,-459.62 631.16,-459.62 625.16,-459.62 619.16,-453.62 619.16,-447.62 619.16,-447.62 619.16,-435.62 619.16,-435.62 619.16,-429.62 625.16,-423.62 631.16,-423.62"/>
<text text-anchor="middle" x="646.16" y="-437.92" font-family="Arial" font-size="14.00">hi&#45;d</text>
</g>
<!-- topic&#45;&gt;hi&#45;d -->
<g id="edge44" class="edge">
<title>topic&#45;&gt;hi&#45;d</title>
<path fill="none" stroke="#1f78b4" d="M749.69,-512.12C729.95,-498.68 702.85,-480.22 681.33,-465.57"/>
<polygon fill="#a6cee3" stroke="#1f78b4" points="683.02,-462.49 672.79,-459.75 679.08,-468.27 683.02,-462.49"/>
</g>
<!-- ut&#45;d -->
<g id="node45" class="node">
<title>ut&#45;d</title>
<path fill="#1afabc" stroke="black" d="M954.43,-496.77C954.43,-496.77 984.43,-496.77 984.43,-496.77 990.43,-496.77 996.43,-502.77 996.43,-508.77 996.43,-508.77 996.43,-520.77 996.43,-520.77 996.43,-526.77 990.43,-532.77 984.43,-532.77 984.43,-532.77 954.43,-532.77 954.43,-532.77 948.43,-532.77 942.43,-526.77 942.43,-520.77 942.43,-520.77 942.43,-508.77 942.43,-508.77 942.43,-502.77 948.43,-496.77 954.43,-496.77"/>
<text text-anchor="middle" x="969.43" y="-511.07" font-family="Arial" font-size="14.00">ut&#45;d</text>
</g>
<!-- topic&#45;&gt;ut&#45;d -->
<g id="edge45" class="edge">
<title>topic&#45;&gt;ut&#45;d</title>
<path fill="none" stroke="#1f78b4" d="M803.61,-528.09C837.24,-525.39 894.59,-520.78 932.25,-517.76"/>
<polygon fill="#a6cee3" stroke="#1f78b4" points="932.62,-521.24 942.31,-516.95 932.06,-514.26 932.62,-521.24"/>
</g>
<!-- learningSummary -->
<g id="node13" class="node">
<title>learningSummary</title>
<path fill="#bfcfff" stroke="black" d="M1274.53,-170.27C1274.53,-170.27 1374.53,-170.27 1374.53,-170.27 1380.53,-170.27 1386.53,-176.27 1386.53,-182.27 1386.53,-182.27 1386.53,-194.27 1386.53,-194.27 1386.53,-200.27 1380.53,-206.27 1374.53,-206.27 1374.53,-206.27 1274.53,-206.27 1274.53,-206.27 1268.53,-206.27 1262.53,-200.27 1262.53,-194.27 1262.53,-194.27 1262.53,-182.27 1262.53,-182.27 1262.53,-176.27 1268.53,-170.27 1274.53,-170.27"/>
<text text-anchor="middle" x="1324.53" y="-184.57" font-family="Arial" font-size="14.00">learningSummary</text>
</g>
<!-- learningBase&#45;&gt;learningSummary -->
<g id="edge12" class="edge">
<title>learningBase&#45;&gt;learningSummary</title>
<path fill="none" stroke="#1f78b4" d="M1129.8,-309.71C1170.07,-284.6 1242.59,-239.37 1286.86,-211.76"/>
<polygon fill="#a6cee3" stroke="#1f78b4" points="1288.96,-214.58 1295.59,-206.32 1285.25,-208.64 1288.96,-214.58"/>
</g>
<!-- learningPlan -->
<g id="node14" class="node">
<title>learningPlan</title>
<path fill="#bfcfff" stroke="black" d="M1120.47,-81.26C1120.47,-81.26 1188.47,-81.26 1188.47,-81.26 1194.47,-81.26 1200.47,-87.26 1200.47,-93.26 1200.47,-93.26 1200.47,-105.26 1200.47,-105.26 1200.47,-111.26 1194.47,-117.26 1188.47,-117.26 1188.47,-117.26 1120.47,-117.26 1120.47,-117.26 1114.47,-117.26 1108.47,-111.26 1108.47,-105.26 1108.47,-105.26 1108.47,-93.26 1108.47,-93.26 1108.47,-87.26 1114.47,-81.26 1120.47,-81.26"/>
<text text-anchor="middle" x="1154.47" y="-95.56" font-family="Arial" font-size="14.00">learningPlan</text>
</g>
<!-- learningBase&#45;&gt;learningPlan -->
<g id="edge13" class="edge">
<title>learningBase&#45;&gt;learningPlan</title>
<path fill="none" stroke="#1f78b4" d="M1104.83,-309.65C1114.25,-269.73 1136.66,-174.74 1147.86,-127.27"/>
<polygon fill="#a6cee3" stroke="#1f78b4" points="1151.31,-127.89 1150.2,-117.36 1144.49,-126.29 1151.31,-127.89"/>
</g>
<!-- learningOverview -->
<g id="node15" class="node">
<title>learningOverview</title>
<path fill="#bfcfff" stroke="black" d="M1301.88,-248.42C1301.88,-248.42 1399.88,-248.42 1399.88,-248.42 1405.88,-248.42 1411.88,-254.42 1411.88,-260.42 1411.88,-260.42 1411.88,-272.42 1411.88,-272.42 1411.88,-278.42 1405.88,-284.42 1399.88,-284.42 1399.88,-284.42 1301.88,-284.42 1301.88,-284.42 1295.88,-284.42 1289.88,-278.42 1289.88,-272.42 1289.88,-272.42 1289.88,-260.42 1289.88,-260.42 1289.88,-254.42 1295.88,-248.42 1301.88,-248.42"/>
<text text-anchor="middle" x="1350.88" y="-262.72" font-family="Arial" font-size="14.00">learningOverview</text>
</g>
<!-- learningBase&#45;&gt;learningOverview -->
<g id="edge14" class="edge">
<title>learningBase&#45;&gt;learningOverview</title>
<path fill="none" stroke="#1f78b4" d="M1148.19,-316.25C1185.37,-307.12 1237.57,-294.28 1279.69,-283.93"/>
<polygon fill="#a6cee3" stroke="#1f78b4" points="1280.73,-287.27 1289.61,-281.49 1279.06,-280.48 1280.73,-287.27"/>
</g>
<!-- learningContent -->
<g id="node16" class="node">
<title>learningContent</title>
<path fill="#bfcfff" stroke="black" d="M1221.82,-116.37C1221.82,-116.37 1309.82,-116.37 1309.82,-116.37 1315.82,-116.37 1321.82,-122.37 1321.82,-128.37 1321.82,-128.37 1321.82,-140.37 1321.82,-140.37 1321.82,-146.37 1315.82,-152.37 1309.82,-152.37 1309.82,-152.37 1221.82,-152.37 1221.82,-152.37 1215.82,-152.37 1209.82,-146.37 1209.82,-140.37 1209.82,-140.37 1209.82,-128.37 1209.82,-128.37 1209.82,-122.37 1215.82,-116.37 1221.82,-116.37"/>
<text text-anchor="middle" x="1265.82" y="-130.67" font-family="Arial" font-size="14.00">learningContent</text>
</g>
<!-- learningBase&#45;&gt;learningContent -->
<g id="edge15" class="edge">
<title>learningBase&#45;&gt;learningContent</title>
<path fill="none" stroke="#1f78b4" d="M1116.06,-309.76C1145.61,-275.15 1209.95,-199.8 1243.87,-160.07"/>
<polygon fill="#a6cee3" stroke="#1f78b4" points="1246.59,-162.27 1250.43,-152.39 1241.27,-157.73 1246.59,-162.27"/>
</g>
<!-- learningAssessment -->
<g id="node17" class="node">
<title>learningAssessment</title>
<path fill="#bfcfff" stroke="black" d="M1310.66,-336.44C1310.66,-336.44 1425.66,-336.44 1425.66,-336.44 1431.66,-336.44 1437.66,-342.44 1437.66,-348.44 1437.66,-348.44 1437.66,-360.44 1437.66,-360.44 1437.66,-366.44 1431.66,-372.44 1425.66,-372.44 1425.66,-372.44 1310.66,-372.44 1310.66,-372.44 1304.66,-372.44 1298.66,-366.44 1298.66,-360.44 1298.66,-360.44 1298.66,-348.44 1298.66,-348.44 1298.66,-342.44 1304.66,-336.44 1310.66,-336.44"/>
<text text-anchor="middle" x="1368.16" y="-350.74" font-family="Arial" font-size="14.00">learningAssessment</text>
</g>
<!-- learningBase&#45;&gt;learningAssessment -->
<g id="edge16" class="edge">
<title>learningBase&#45;&gt;learningAssessment</title>
<path fill="none" stroke="#1f78b4" d="M1148.05,-332.68C1186.87,-336.51 1242.59,-342.02 1288.25,-346.54"/>
<polygon fill="#a6cee3" stroke="#1f78b4" points="1288.13,-350.04 1298.42,-347.54 1288.82,-343.07 1288.13,-350.04"/>
</g>
<!-- learning2&#45;d -->
<g id="node19" class="node">
<title>learning2&#45;d</title>
<path fill="#bfcfff" stroke="black" d="M669.69,-1133.71C669.69,-1133.71 729.69,-1133.71 729.69,-1133.71 735.69,-1133.71 741.69,-1139.71 741.69,-1145.71 741.69,-1145.71 741.69,-1157.71 741.69,-1157.71 741.69,-1163.71 735.69,-1169.71 729.69,-1169.71 729.69,-1169.71 669.69,-1169.71 669.69,-1169.71 663.69,-1169.71 657.69,-1163.71 657.69,-1157.71 657.69,-1157.71 657.69,-1145.71 657.69,-1145.71 657.69,-1139.71 663.69,-1133.71 669.69,-1133.71"/>
<text text-anchor="middle" x="699.69" y="-1148.01" font-family="Arial" font-size="14.00">learning2&#45;d</text>
</g>
<!-- learningInteractionBase2&#45;d&#45;&gt;learning2&#45;d -->
<g id="edge18" class="edge">
<title>learningInteractionBase2&#45;d&#45;&gt;learning2&#45;d</title>
<path fill="none" stroke="#1f78b4" d="M731.03,-886.12C725.35,-934.27 709.88,-1065.37 703.03,-1123.41"/>
<polygon fill="#a6cee3" stroke="#1f78b4" points="699.51,-1123.34 701.81,-1133.68 706.46,-1124.16 699.51,-1123.34"/>
</g>
<!-- learning&#45;d -->
<g id="node21" class="node">
<title>learning&#45;d</title>
<path fill="#bfcfff" stroke="black" d="M350.75,-975.87C350.75,-975.87 403.75,-975.87 403.75,-975.87 409.75,-975.87 415.75,-981.87 415.75,-987.87 415.75,-987.87 415.75,-999.87 415.75,-999.87 415.75,-1005.87 409.75,-1011.87 403.75,-1011.87 403.75,-1011.87 350.75,-1011.87 350.75,-1011.87 344.75,-1011.87 338.75,-1005.87 338.75,-999.87 338.75,-999.87 338.75,-987.87 338.75,-987.87 338.75,-981.87 344.75,-975.87 350.75,-975.87"/>
<text text-anchor="middle" x="377.25" y="-990.17" font-family="Arial" font-size="14.00">learning&#45;d</text>
</g>
<!-- learningInteractionBase&#45;d&#45;&gt;learning&#45;d -->
<g id="edge20" class="edge">
<title>learningInteractionBase&#45;d&#45;&gt;learning&#45;d</title>
<path fill="none" stroke="#1f78b4" d="M540.59,-802.06C508.72,-839.48 435.97,-924.92 399.28,-968"/>
<polygon fill="#a6cee3" stroke="#1f78b4" points="396.47,-965.9 392.65,-975.78 401.8,-970.44 396.47,-965.9"/>
</g>
<!-- xml&#45;d -->
<g id="node25" class="node">
<title>xml&#45;d</title>
<path fill="#bfcfff" stroke="black" d="M947.14,-966.93C947.14,-966.93 977.14,-966.93 977.14,-966.93 983.14,-966.93 989.14,-972.93 989.14,-978.93 989.14,-978.93 989.14,-990.93 989.14,-990.93 989.14,-996.93 983.14,-1002.93 977.14,-1002.93 977.14,-1002.93 947.14,-1002.93 947.14,-1002.93 941.14,-1002.93 935.14,-996.93 935.14,-990.93 935.14,-990.93 935.14,-978.93 935.14,-978.93 935.14,-972.93 941.14,-966.93 947.14,-966.93"/>
<text text-anchor="middle" x="962.14" y="-981.23" font-family="Arial" font-size="14.00">xml&#45;d</text>
</g>
<!-- markup&#45;d&#45;&gt;xml&#45;d -->
<g id="edge24" class="edge">
<title>markup&#45;d&#45;&gt;xml&#45;d</title>
<path fill="none" stroke="#1f78b4" d="M891.09,-801.56C904.83,-837.02 935.21,-915.42 951.44,-957.3"/>
<polygon fill="#a6cee3" stroke="#1f78b4" points="948.27,-958.81 955.14,-966.87 954.79,-956.28 948.27,-958.81"/>
</g>
<!-- taskreq&#45;d -->
<g id="node33" class="node">
<title>taskreq&#45;d</title>
<path fill="#bfcfff" stroke="black" d="M806.69,-48.44C806.69,-48.44 855.69,-48.44 855.69,-48.44 861.69,-48.44 867.69,-54.44 867.69,-60.44 867.69,-60.44 867.69,-72.44 867.69,-72.44 867.69,-78.44 861.69,-84.44 855.69,-84.44 855.69,-84.44 806.69,-84.44 806.69,-84.44 800.69,-84.44 794.69,-78.44 794.69,-72.44 794.69,-72.44 794.69,-60.44 794.69,-60.44 794.69,-54.44 800.69,-48.44 806.69,-48.44"/>
<text text-anchor="middle" x="831.19" y="-62.74" font-family="Arial" font-size="14.00">taskreq&#45;d</text>
</g>
<!-- task&#45;&gt;taskreq&#45;d -->
<g id="edge32" class="edge">
<title>task&#45;&gt;taskreq&#45;d</title>
<path fill="none" stroke="#1f78b4" d="M811.68,-257.54C815.41,-220.95 823.85,-138.31 828.31,-94.66"/>
<polygon fill="#a6cee3" stroke="#1f78b4" points="831.81,-94.76 829.35,-84.46 824.85,-94.05 831.81,-94.76"/>
</g>
<!-- glossentry -->
<g id="node36" class="node">
<title>glossentry</title>
<path fill="#bfcfff" stroke="black" d="M1213.42,-751.13C1213.42,-751.13 1267.42,-751.13 1267.42,-751.13 1273.42,-751.13 1279.42,-757.13 1279.42,-763.13 1279.42,-763.13 1279.42,-775.13 1279.42,-775.13 1279.42,-781.13 1273.42,-787.13 1267.42,-787.13 1267.42,-787.13 1213.42,-787.13 1213.42,-787.13 1207.42,-787.13 1201.42,-781.13 1201.42,-775.13 1201.42,-775.13 1201.42,-763.13 1201.42,-763.13 1201.42,-757.13 1207.42,-751.13 1213.42,-751.13"/>
<text text-anchor="middle" x="1240.42" y="-765.43" font-family="Arial" font-size="14.00">glossentry</text>
</g>
<!-- concept&#45;&gt;glossentry -->
<g id="edge35" class="edge">
<title>concept&#45;&gt;glossentry</title>
<path fill="none" stroke="#1f78b4" d="M1065.67,-704.24C1099.44,-716.78 1152.8,-736.6 1191.67,-751.03"/>
<polygon fill="#a6cee3" stroke="#1f78b4" points="1190.63,-754.38 1201.22,-754.58 1193.07,-747.82 1190.63,-754.38"/>
</g>
<!-- glossgroup -->
<g id="node37" class="node">
<title>glossgroup</title>
<path fill="#bfcfff" stroke="black" d="M1161.04,-835.77C1161.04,-835.77 1220.04,-835.77 1220.04,-835.77 1226.04,-835.77 1232.04,-841.77 1232.04,-847.77 1232.04,-847.77 1232.04,-859.77 1232.04,-859.77 1232.04,-865.77 1226.04,-871.77 1220.04,-871.77 1220.04,-871.77 1161.04,-871.77 1161.04,-871.77 1155.04,-871.77 1149.04,-865.77 1149.04,-859.77 1149.04,-859.77 1149.04,-847.77 1149.04,-847.77 1149.04,-841.77 1155.04,-835.77 1161.04,-835.77"/>
<text text-anchor="middle" x="1190.54" y="-850.07" font-family="Arial" font-size="14.00">glossgroup</text>
</g>
<!-- concept&#45;&gt;glossgroup -->
<g id="edge36" class="edge">
<title>concept&#45;&gt;glossgroup</title>
<path fill="none" stroke="#1f78b4" d="M1051.04,-710.44C1079,-739.17 1133.42,-795.08 1165.4,-827.94"/>
<polygon fill="#a6cee3" stroke="#1f78b4" points="1163.15,-830.65 1172.63,-835.37 1168.17,-825.76 1163.15,-830.65"/>
</g>
</g>
</svg>
