<?xml version="1.0" encoding="UTF-8" standalone="no"?>
<!-- Generated by graphviz version 6.0.1 (20220911.1526)
 -->
<!-- Pages: 1 -->
<svg width="197pt" height="212pt"
 viewBox="0.00 0.00 197.00 212.00" xmlns="http://www.w3.org/2000/svg" xmlns:xlink="http://www.w3.org/1999/xlink">
<g id="graph0" class="graph" transform="scale(1 1) rotate(0) translate(4 208)">
<polygon fill="white" stroke="none" points="-4,4 -4,-208 193,-208 193,4 -4,4"/>
<!-- delay&#45;d -->
<g id="node1" class="node">
<title>delay&#45;d</title>
<path fill="#dddddd" stroke="black" d="M12.35,-71.62C12.35,-71.62 49.35,-71.62 49.35,-71.62 55.35,-71.62 61.35,-77.62 61.35,-83.62 61.35,-83.62 61.35,-95.62 61.35,-95.62 61.35,-101.62 55.35,-107.62 49.35,-107.62 49.35,-107.62 12.35,-107.62 12.35,-107.62 6.35,-107.62 0.35,-101.62 0.35,-95.62 0.35,-95.62 0.35,-83.62 0.35,-83.62 0.35,-77.62 6.35,-71.62 12.35,-71.62"/>
<text text-anchor="middle" x="30.85" y="-85.92" font-family="Arial" font-size="14.00">delay&#45;d</text>
</g>
<!-- keywords -->
<g id="node2" class="node">
<title>keywords</title>
<path fill="#afa7f4" stroke="black" d="M97.27,-46.26C97.27,-46.26 147.27,-46.26 147.27,-46.26 153.27,-46.26 159.27,-52.26 159.27,-58.26 159.27,-58.26 159.27,-70.26 159.27,-70.26 159.27,-76.26 153.27,-82.26 147.27,-82.26 147.27,-82.26 97.27,-82.26 97.27,-82.26 91.27,-82.26 85.27,-76.26 85.27,-70.26 85.27,-70.26 85.27,-58.26 85.27,-58.26 85.27,-52.26 91.27,-46.26 97.27,-46.26"/>
<text text-anchor="middle" x="122.27" y="-60.56" font-family="Arial" font-size="14.00">keywords</text>
</g>
<!-- delay&#45;d&#45;&gt;keywords -->
<g id="edge1" class="edge">
<title>delay&#45;d&#45;&gt;keywords</title>
<path fill="none" stroke="#1f78b4" d="M61.54,-81.11C66.04,-79.86 70.76,-78.55 75.49,-77.24"/>
<polygon fill="#a6cee3" stroke="#1f78b4" points="76.45,-80.6 85.15,-74.56 74.58,-73.86 76.45,-80.6"/>
</g>
<!-- keyword -->
<g id="node4" class="node">
<title>keyword</title>
<path fill="#afa7f4" stroke="black" d="M44.34,-120.06C44.34,-120.06 87.34,-120.06 87.34,-120.06 93.34,-120.06 99.34,-126.06 99.34,-132.06 99.34,-132.06 99.34,-144.06 99.34,-144.06 99.34,-150.06 93.34,-156.06 87.34,-156.06 87.34,-156.06 44.34,-156.06 44.34,-156.06 38.34,-156.06 32.34,-150.06 32.34,-144.06 32.34,-144.06 32.34,-132.06 32.34,-132.06 32.34,-126.06 38.34,-120.06 44.34,-120.06"/>
<text text-anchor="middle" x="65.84" y="-134.36" font-family="Arial" font-size="14.00">keyword</text>
</g>
<!-- delay&#45;d&#45;&gt;keyword -->
<g id="edge3" class="edge">
<title>delay&#45;d&#45;&gt;keyword</title>
<path fill="none" stroke="#1f78b4" d="M43.88,-107.66C44.78,-108.9 45.69,-110.17 46.61,-111.45"/>
<polygon fill="#a6cee3" stroke="#1f78b4" points="43.99,-113.79 52.68,-119.85 49.66,-109.69 43.99,-113.79"/>
</g>
<!-- exportanchors -->
<g id="node3" class="node">
<title>exportanchors</title>
<path fill="#1afabc" stroke="black" d="M57.92,-0.76C57.92,-0.76 135.92,-0.76 135.92,-0.76 141.92,-0.76 147.92,-6.76 147.92,-12.76 147.92,-12.76 147.92,-24.76 147.92,-24.76 147.92,-30.76 141.92,-36.76 135.92,-36.76 135.92,-36.76 57.92,-36.76 57.92,-36.76 51.92,-36.76 45.92,-30.76 45.92,-24.76 45.92,-24.76 45.92,-12.76 45.92,-12.76 45.92,-6.76 51.92,-0.76 57.92,-0.76"/>
<text text-anchor="middle" x="96.92" y="-15.06" font-family="Arial" font-size="14.00">exportanchors</text>
</g>
<!-- keywords&#45;&gt;exportanchors -->
<g id="edge2" class="edge">
<title>keywords&#45;&gt;exportanchors</title>
<path fill="none" stroke="#1f78b4" d="M112.1,-46.02C112.05,-45.92 112,-45.83 111.95,-45.74"/>
<polygon fill="#a6cee3" stroke="#1f78b4" points="115.01,-44.04 107.09,-37.01 108.9,-47.45 115.01,-44.04"/>
</g>
<!-- anchorid -->
<g id="node5" class="node">
<title>anchorid</title>
<path fill="#1afabc" stroke="black" d="M132.92,-141.12C132.92,-141.12 176.92,-141.12 176.92,-141.12 182.92,-141.12 188.92,-147.12 188.92,-153.12 188.92,-153.12 188.92,-165.12 188.92,-165.12 188.92,-171.12 182.92,-177.12 176.92,-177.12 176.92,-177.12 132.92,-177.12 132.92,-177.12 126.92,-177.12 120.92,-171.12 120.92,-165.12 120.92,-165.12 120.92,-153.12 120.92,-153.12 120.92,-147.12 126.92,-141.12 132.92,-141.12"/>
<text text-anchor="middle" x="154.92" y="-155.42" font-family="Arial" font-size="14.00">anchorid</text>
</g>
<!-- keyword&#45;&gt;anchorid -->
<g id="edge4" class="edge">
<title>keyword&#45;&gt;anchorid</title>
<path fill="none" stroke="#1f78b4" d="M99.51,-146.03C103.23,-146.9 107.06,-147.81 110.88,-148.71"/>
<polygon fill="#a6cee3" stroke="#1f78b4" points="110.36,-152.19 120.9,-151.08 111.97,-145.37 110.36,-152.19"/>
</g>
<!-- anchorkey -->
<g id="node6" class="node">
<title>anchorkey</title>
<path fill="#1afabc" stroke="black" d="M18.22,-167.03C18.22,-167.03 73.22,-167.03 73.22,-167.03 79.22,-167.03 85.22,-173.03 85.22,-179.03 85.22,-179.03 85.22,-191.03 85.22,-191.03 85.22,-197.03 79.22,-203.03 73.22,-203.03 73.22,-203.03 18.22,-203.03 18.22,-203.03 12.22,-203.03 6.22,-197.03 6.22,-191.03 6.22,-191.03 6.22,-179.03 6.22,-179.03 6.22,-173.03 12.22,-167.03 18.22,-167.03"/>
<text text-anchor="middle" x="45.72" y="-181.33" font-family="Arial" font-size="14.00">anchorkey</text>
</g>
<!-- keyword&#45;&gt;anchorkey -->
<g id="edge5" class="edge">
<title>keyword&#45;&gt;anchorkey</title>
<path fill="none" stroke="#1f78b4" d="M58.12,-156.09C57.93,-156.53 57.74,-156.97 57.55,-157.41"/>
<polygon fill="#a6cee3" stroke="#1f78b4" points="54.24,-156.25 53.52,-166.82 60.68,-159.01 54.24,-156.25"/>
</g>
</g>
</svg>
