<?xml version="1.0" encoding="UTF-8" standalone="no"?>
<!-- Generated by graphviz version 6.0.1 (20220911.1526)
 -->
<!-- Pages: 1 -->
<svg width="640pt" height="766pt"
 viewBox="0.00 0.00 640.00 766.00" xmlns="http://www.w3.org/2000/svg" xmlns:xlink="http://www.w3.org/1999/xlink">
<g id="graph0" class="graph" transform="scale(1 1) rotate(0) translate(4 762)">
<polygon fill="white" stroke="none" points="-4,4 -4,-762 636,-762 636,4 -4,4"/>
<!-- learningmeta&#45;d -->
<g id="node1" class="node">
<title>learningmeta&#45;d</title>
<path fill="#dddddd" stroke="black" d="M206.9,-332.62C206.9,-332.62 289.9,-332.62 289.9,-332.62 295.9,-332.62 301.9,-338.62 301.9,-344.62 301.9,-344.62 301.9,-356.62 301.9,-356.62 301.9,-362.62 295.9,-368.62 289.9,-368.62 289.9,-368.62 206.9,-368.62 206.9,-368.62 200.9,-368.62 194.9,-362.62 194.9,-356.62 194.9,-356.62 194.9,-344.62 194.9,-344.62 194.9,-338.62 200.9,-332.62 206.9,-332.62"/>
<text text-anchor="middle" x="248.4" y="-346.92" font-family="Arial" font-size="14.00">learningmeta&#45;d</text>
</g>
<!-- metadata -->
<g id="node2" class="node">
<title>metadata</title>
<path fill="#afa7f4" stroke="black" d="M176.74,-135.88C176.74,-135.88 226.74,-135.88 226.74,-135.88 232.74,-135.88 238.74,-141.88 238.74,-147.88 238.74,-147.88 238.74,-159.88 238.74,-159.88 238.74,-165.88 232.74,-171.88 226.74,-171.88 226.74,-171.88 176.74,-171.88 176.74,-171.88 170.74,-171.88 164.74,-165.88 164.74,-159.88 164.74,-159.88 164.74,-147.88 164.74,-147.88 164.74,-141.88 170.74,-135.88 176.74,-135.88"/>
<text text-anchor="middle" x="201.74" y="-150.18" font-family="Arial" font-size="14.00">metadata</text>
</g>
<!-- learningmeta&#45;d&#45;&gt;metadata -->
<g id="edge1" class="edge">
<title>learningmeta&#45;d&#45;&gt;metadata</title>
<path fill="none" stroke="#1f78b4" d="M244.09,-332.46C235.92,-297.98 218.09,-222.82 208.38,-181.86"/>
<polygon fill="#a6cee3" stroke="#1f78b4" points="211.75,-180.91 206.04,-171.99 204.94,-182.53 211.75,-180.91"/>
</g>
<!-- data -->
<g id="node4" class="node">
<title>data</title>
<path fill="#afa7f4" stroke="black" d="M272.48,-539.24C272.48,-539.24 302.48,-539.24 302.48,-539.24 308.48,-539.24 314.48,-545.24 314.48,-551.24 314.48,-551.24 314.48,-563.24 314.48,-563.24 314.48,-569.24 308.48,-575.24 302.48,-575.24 302.48,-575.24 272.48,-575.24 272.48,-575.24 266.48,-575.24 260.48,-569.24 260.48,-563.24 260.48,-563.24 260.48,-551.24 260.48,-551.24 260.48,-545.24 266.48,-539.24 272.48,-539.24"/>
<text text-anchor="middle" x="287.48" y="-553.54" font-family="Arial" font-size="14.00">data</text>
</g>
<!-- learningmeta&#45;d&#45;&gt;data -->
<g id="edge3" class="edge">
<title>learningmeta&#45;d&#45;&gt;data</title>
<path fill="none" stroke="#1f78b4" d="M251.87,-368.95C258.72,-405.19 274.04,-486.19 282.17,-529.18"/>
<polygon fill="#a6cee3" stroke="#1f78b4" points="278.78,-530.07 284.08,-539.24 285.66,-528.77 278.78,-530.07"/>
</g>
<!-- lcLom -->
<g id="node3" class="node">
<title>lcLom</title>
<path fill="#1afabc" stroke="black" d="M151.67,-0.84C151.67,-0.84 181.67,-0.84 181.67,-0.84 187.67,-0.84 193.67,-6.84 193.67,-12.84 193.67,-12.84 193.67,-24.84 193.67,-24.84 193.67,-30.84 187.67,-36.84 181.67,-36.84 181.67,-36.84 151.67,-36.84 151.67,-36.84 145.67,-36.84 139.67,-30.84 139.67,-24.84 139.67,-24.84 139.67,-12.84 139.67,-12.84 139.67,-6.84 145.67,-0.84 151.67,-0.84"/>
<text text-anchor="middle" x="166.67" y="-15.14" font-family="Arial" font-size="14.00">lcLom</text>
</g>
<!-- metadata&#45;&gt;lcLom -->
<g id="edge2" class="edge">
<title>metadata&#45;&gt;lcLom</title>
<path fill="none" stroke="#1f78b4" d="M197.01,-135.67C191.1,-112.91 180.93,-73.73 174,-47.08"/>
<polygon fill="#a6cee3" stroke="#1f78b4" points="177.34,-45.99 171.43,-37.19 170.56,-47.75 177.34,-45.99"/>
</g>
<!-- lomStructure -->
<g id="node5" class="node">
<title>lomStructure</title>
<path fill="#1afabc" stroke="black" d="M275.26,-721.52C275.26,-721.52 345.26,-721.52 345.26,-721.52 351.26,-721.52 357.26,-727.52 357.26,-733.52 357.26,-733.52 357.26,-745.52 357.26,-745.52 357.26,-751.52 351.26,-757.52 345.26,-757.52 345.26,-757.52 275.26,-757.52 275.26,-757.52 269.26,-757.52 263.26,-751.52 263.26,-745.52 263.26,-745.52 263.26,-733.52 263.26,-733.52 263.26,-727.52 269.26,-721.52 275.26,-721.52"/>
<text text-anchor="middle" x="310.26" y="-735.82" font-family="Arial" font-size="14.00">lomStructure</text>
</g>
<!-- data&#45;&gt;lomStructure -->
<g id="edge4" class="edge">
<title>data&#45;&gt;lomStructure</title>
<path fill="none" stroke="#1f78b4" d="M289.75,-575.39C293.72,-607.19 301.97,-673.2 306.71,-711.11"/>
<polygon fill="#a6cee3" stroke="#1f78b4" points="303.28,-711.96 308,-721.45 310.23,-711.09 303.28,-711.96"/>
</g>
<!-- lomCoverage -->
<g id="node6" class="node">
<title>lomCoverage</title>
<path fill="#1afabc" stroke="black" d="M158.66,-403.13C158.66,-403.13 232.66,-403.13 232.66,-403.13 238.66,-403.13 244.66,-409.13 244.66,-415.13 244.66,-415.13 244.66,-427.13 244.66,-427.13 244.66,-433.13 238.66,-439.13 232.66,-439.13 232.66,-439.13 158.66,-439.13 158.66,-439.13 152.66,-439.13 146.66,-433.13 146.66,-427.13 146.66,-427.13 146.66,-415.13 146.66,-415.13 146.66,-409.13 152.66,-403.13 158.66,-403.13"/>
<text text-anchor="middle" x="195.66" y="-417.43" font-family="Arial" font-size="14.00">lomCoverage</text>
</g>
<!-- data&#45;&gt;lomCoverage -->
<g id="edge5" class="edge">
<title>data&#45;&gt;lomCoverage</title>
<path fill="none" stroke="#1f78b4" d="M275.29,-539.17C259.51,-515.78 231.89,-474.84 213.68,-447.85"/>
<polygon fill="#a6cee3" stroke="#1f78b4" points="216.4,-445.62 207.9,-439.28 210.59,-449.53 216.4,-445.62"/>
</g>
<!-- lomAggregationLevel -->
<g id="node7" class="node">
<title>lomAggregationLevel</title>
<path fill="#1afabc" stroke="black" d="M69.56,-602.59C69.56,-602.59 189.56,-602.59 189.56,-602.59 195.56,-602.59 201.56,-608.59 201.56,-614.59 201.56,-614.59 201.56,-626.59 201.56,-626.59 201.56,-632.59 195.56,-638.59 189.56,-638.59 189.56,-638.59 69.56,-638.59 69.56,-638.59 63.56,-638.59 57.56,-632.59 57.56,-626.59 57.56,-626.59 57.56,-614.59 57.56,-614.59 57.56,-608.59 63.56,-602.59 69.56,-602.59"/>
<text text-anchor="middle" x="129.56" y="-616.89" font-family="Arial" font-size="14.00">lomAggregationLevel</text>
</g>
<!-- data&#45;&gt;lomAggregationLevel -->
<g id="edge6" class="edge">
<title>data&#45;&gt;lomAggregationLevel</title>
<path fill="none" stroke="#1f78b4" d="M260.34,-568.13C239.36,-576.54 209.66,-588.46 183.87,-598.8"/>
<polygon fill="#a6cee3" stroke="#1f78b4" points="182.54,-595.56 174.56,-602.54 185.15,-602.06 182.54,-595.56"/>
</g>
<!-- lomTechRequirement -->
<g id="node8" class="node">
<title>lomTechRequirement</title>
<path fill="#1afabc" stroke="black" d="M419.03,-571.93C419.03,-571.93 541.03,-571.93 541.03,-571.93 547.03,-571.93 553.03,-577.93 553.03,-583.93 553.03,-583.93 553.03,-595.93 553.03,-595.93 553.03,-601.93 547.03,-607.93 541.03,-607.93 541.03,-607.93 419.03,-607.93 419.03,-607.93 413.03,-607.93 407.03,-601.93 407.03,-595.93 407.03,-595.93 407.03,-583.93 407.03,-583.93 407.03,-577.93 413.03,-571.93 419.03,-571.93"/>
<text text-anchor="middle" x="480.03" y="-586.23" font-family="Arial" font-size="14.00">lomTechRequirement</text>
</g>
<!-- data&#45;&gt;lomTechRequirement -->
<g id="edge7" class="edge">
<title>data&#45;&gt;lomTechRequirement</title>
<path fill="none" stroke="#1f78b4" d="M314.66,-561.86C336.18,-565.51 367.42,-570.81 396.97,-575.83"/>
<polygon fill="#a6cee3" stroke="#1f78b4" points="396.47,-579.3 406.91,-577.52 397.64,-572.39 396.47,-579.3"/>
</g>
<!-- lomInstallationRemarks -->
<g id="node9" class="node">
<title>lomInstallationRemarks</title>
<path fill="#1afabc" stroke="black" d="M29.58,-455.47C29.58,-455.47 163.58,-455.47 163.58,-455.47 169.58,-455.47 175.58,-461.47 175.58,-467.47 175.58,-467.47 175.58,-479.47 175.58,-479.47 175.58,-485.47 169.58,-491.47 163.58,-491.47 163.58,-491.47 29.58,-491.47 29.58,-491.47 23.58,-491.47 17.58,-485.47 17.58,-479.47 17.58,-479.47 17.58,-467.47 17.58,-467.47 17.58,-461.47 23.58,-455.47 29.58,-455.47"/>
<text text-anchor="middle" x="96.58" y="-469.77" font-family="Arial" font-size="14.00">lomInstallationRemarks</text>
</g>
<!-- data&#45;&gt;lomInstallationRemarks -->
<g id="edge8" class="edge">
<title>data&#45;&gt;lomInstallationRemarks</title>
<path fill="none" stroke="#1f78b4" d="M260.13,-545.24C230.79,-532.37 183.54,-511.63 147.36,-495.75"/>
<polygon fill="#a6cee3" stroke="#1f78b4" points="148.51,-492.43 137.94,-491.62 145.69,-498.84 148.51,-492.43"/>
</g>
<!-- lomOtherPlatformRequirements -->
<g id="node10" class="node">
<title>lomOtherPlatformRequirements</title>
<path fill="#1afabc" stroke="black" d="M434.71,-504.34C434.71,-504.34 619.71,-504.34 619.71,-504.34 625.71,-504.34 631.71,-510.34 631.71,-516.34 631.71,-516.34 631.71,-528.34 631.71,-528.34 631.71,-534.34 625.71,-540.34 619.71,-540.34 619.71,-540.34 434.71,-540.34 434.71,-540.34 428.71,-540.34 422.71,-534.34 422.71,-528.34 422.71,-528.34 422.71,-516.34 422.71,-516.34 422.71,-510.34 428.71,-504.34 434.71,-504.34"/>
<text text-anchor="middle" x="527.21" y="-518.64" font-family="Arial" font-size="14.00">lomOtherPlatformRequirements</text>
</g>
<!-- data&#45;&gt;lomOtherPlatformRequirements -->
<g id="edge9" class="edge">
<title>data&#45;&gt;lomOtherPlatformRequirements</title>
<path fill="none" stroke="#1f78b4" d="M314.52,-553.31C338.69,-549.79 375.85,-544.38 412.39,-539.06"/>
<polygon fill="#a6cee3" stroke="#1f78b4" points="413.27,-542.46 422.66,-537.56 412.26,-535.54 413.27,-542.46"/>
</g>
<!-- lomInteractivityType -->
<g id="node11" class="node">
<title>lomInteractivityType</title>
<path fill="#1afabc" stroke="black" d="M263.94,-448.58C263.94,-448.58 376.94,-448.58 376.94,-448.58 382.94,-448.58 388.94,-454.58 388.94,-460.58 388.94,-460.58 388.94,-472.58 388.94,-472.58 388.94,-478.58 382.94,-484.58 376.94,-484.58 376.94,-484.58 263.94,-484.58 263.94,-484.58 257.94,-484.58 251.94,-478.58 251.94,-472.58 251.94,-472.58 251.94,-460.58 251.94,-460.58 251.94,-454.58 257.94,-448.58 263.94,-448.58"/>
<text text-anchor="middle" x="320.44" y="-462.88" font-family="Arial" font-size="14.00">lomInteractivityType</text>
</g>
<!-- data&#45;&gt;lomInteractivityType -->
<g id="edge10" class="edge">
<title>data&#45;&gt;lomInteractivityType</title>
<path fill="none" stroke="#1f78b4" d="M294.15,-538.9C298.83,-526.03 305.16,-508.61 310.44,-494.09"/>
<polygon fill="#a6cee3" stroke="#1f78b4" points="313.77,-495.19 313.9,-484.59 307.19,-492.8 313.77,-495.19"/>
</g>
<!-- lomLearningResourceType -->
<g id="node12" class="node">
<title>lomLearningResourceType</title>
<path fill="#1afabc" stroke="black" d="M224.28,-591.01C224.28,-591.01 379.28,-591.01 379.28,-591.01 385.28,-591.01 391.28,-597.01 391.28,-603.01 391.28,-603.01 391.28,-615.01 391.28,-615.01 391.28,-621.01 385.28,-627.01 379.28,-627.01 379.28,-627.01 224.28,-627.01 224.28,-627.01 218.28,-627.01 212.28,-621.01 212.28,-615.01 212.28,-615.01 212.28,-603.01 212.28,-603.01 212.28,-597.01 218.28,-591.01 224.28,-591.01"/>
<text text-anchor="middle" x="301.78" y="-605.31" font-family="Arial" font-size="14.00">lomLearningResourceType</text>
</g>
<!-- data&#45;&gt;lomLearningResourceType -->
<g id="edge11" class="edge">
<title>data&#45;&gt;lomLearningResourceType</title>
<path fill="none" stroke="#1f78b4" d="M292.48,-575.35C293,-577.23 293.54,-579.17 294.08,-581.13"/>
<polygon fill="#a6cee3" stroke="#1f78b4" points="290.72,-582.12 296.76,-590.83 297.47,-580.25 290.72,-582.12"/>
</g>
<!-- lomInteractivityLevel -->
<g id="node13" class="node">
<title>lomInteractivityLevel</title>
<path fill="#1afabc" stroke="black" d="M391.89,-638.61C391.89,-638.61 507.89,-638.61 507.89,-638.61 513.89,-638.61 519.89,-644.61 519.89,-650.61 519.89,-650.61 519.89,-662.61 519.89,-662.61 519.89,-668.61 513.89,-674.61 507.89,-674.61 507.89,-674.61 391.89,-674.61 391.89,-674.61 385.89,-674.61 379.89,-668.61 379.89,-662.61 379.89,-662.61 379.89,-650.61 379.89,-650.61 379.89,-644.61 385.89,-638.61 391.89,-638.61"/>
<text text-anchor="middle" x="449.89" y="-652.91" font-family="Arial" font-size="14.00">lomInteractivityLevel</text>
</g>
<!-- data&#45;&gt;lomInteractivityLevel -->
<g id="edge12" class="edge">
<title>data&#45;&gt;lomInteractivityLevel</title>
<path fill="none" stroke="#1f78b4" d="M314.67,-573.88C341.18,-590.1 381.76,-614.92 411.55,-633.15"/>
<polygon fill="#a6cee3" stroke="#1f78b4" points="410.06,-636.34 420.42,-638.58 413.72,-630.37 410.06,-636.34"/>
</g>
<!-- lomSemanticDensity -->
<g id="node14" class="node">
<title>lomSemanticDensity</title>
<path fill="#1afabc" stroke="black" d="M380.19,-686.76C380.19,-686.76 497.19,-686.76 497.19,-686.76 503.19,-686.76 509.19,-692.76 509.19,-698.76 509.19,-698.76 509.19,-710.76 509.19,-710.76 509.19,-716.76 503.19,-722.76 497.19,-722.76 497.19,-722.76 380.19,-722.76 380.19,-722.76 374.19,-722.76 368.19,-716.76 368.19,-710.76 368.19,-710.76 368.19,-698.76 368.19,-698.76 368.19,-692.76 374.19,-686.76 380.19,-686.76"/>
<text text-anchor="middle" x="438.69" y="-701.06" font-family="Arial" font-size="14.00">lomSemanticDensity</text>
</g>
<!-- data&#45;&gt;lomSemanticDensity -->
<g id="edge13" class="edge">
<title>data&#45;&gt;lomSemanticDensity</title>
<path fill="none" stroke="#1f78b4" d="M306.02,-575.33C332.78,-601.43 382.32,-649.77 412.71,-679.41"/>
<polygon fill="#a6cee3" stroke="#1f78b4" points="410.39,-682.04 420,-686.52 415.28,-677.03 410.39,-682.04"/>
</g>
<!-- lomIntendedUserRole -->
<g id="node15" class="node">
<title>lomIntendedUserRole</title>
<path fill="#1afabc" stroke="black" d="M13.24,-654.12C13.24,-654.12 137.24,-654.12 137.24,-654.12 143.24,-654.12 149.24,-660.12 149.24,-666.12 149.24,-666.12 149.24,-678.12 149.24,-678.12 149.24,-684.12 143.24,-690.12 137.24,-690.12 137.24,-690.12 13.24,-690.12 13.24,-690.12 7.24,-690.12 1.24,-684.12 1.24,-678.12 1.24,-678.12 1.24,-666.12 1.24,-666.12 1.24,-660.12 7.24,-654.12 13.24,-654.12"/>
<text text-anchor="middle" x="75.24" y="-668.42" font-family="Arial" font-size="14.00">lomIntendedUserRole</text>
</g>
<!-- data&#45;&gt;lomIntendedUserRole -->
<g id="edge14" class="edge">
<title>data&#45;&gt;lomIntendedUserRole</title>
<path fill="none" stroke="#1f78b4" d="M260.17,-572.03C224.08,-591.56 160.13,-626.18 117.71,-649.14"/>
<polygon fill="#a6cee3" stroke="#1f78b4" points="115.87,-646.15 108.74,-653.99 119.2,-652.31 115.87,-646.15"/>
</g>
<!-- lomContext -->
<g id="node16" class="node">
<title>lomContext</title>
<path fill="#1afabc" stroke="black" d="M331.55,-399.77C331.55,-399.77 393.55,-399.77 393.55,-399.77 399.55,-399.77 405.55,-405.77 405.55,-411.77 405.55,-411.77 405.55,-423.77 405.55,-423.77 405.55,-429.77 399.55,-435.77 393.55,-435.77 393.55,-435.77 331.55,-435.77 331.55,-435.77 325.55,-435.77 319.55,-429.77 319.55,-423.77 319.55,-423.77 319.55,-411.77 319.55,-411.77 319.55,-405.77 325.55,-399.77 331.55,-399.77"/>
<text text-anchor="middle" x="362.55" y="-414.07" font-family="Arial" font-size="14.00">lomContext</text>
</g>
<!-- data&#45;&gt;lomContext -->
<g id="edge15" class="edge">
<title>data&#45;&gt;lomContext</title>
<path fill="none" stroke="#1f78b4" d="M297.3,-539.01C310.17,-515.1 332.86,-472.94 347.8,-445.17"/>
<polygon fill="#a6cee3" stroke="#1f78b4" points="351.08,-446.47 352.74,-436.01 344.91,-443.15 351.08,-446.47"/>
</g>
<!-- lomTypicalAgeRange -->
<g id="node17" class="node">
<title>lomTypicalAgeRange</title>
<path fill="#1afabc" stroke="black" d="M416.56,-450.54C416.56,-450.54 537.56,-450.54 537.56,-450.54 543.56,-450.54 549.56,-456.54 549.56,-462.54 549.56,-462.54 549.56,-474.54 549.56,-474.54 549.56,-480.54 543.56,-486.54 537.56,-486.54 537.56,-486.54 416.56,-486.54 416.56,-486.54 410.56,-486.54 404.56,-480.54 404.56,-474.54 404.56,-474.54 404.56,-462.54 404.56,-462.54 404.56,-456.54 410.56,-450.54 416.56,-450.54"/>
<text text-anchor="middle" x="477.06" y="-464.84" font-family="Arial" font-size="14.00">lomTypicalAgeRange</text>
</g>
<!-- data&#45;&gt;lomTypicalAgeRange -->
<g id="edge16" class="edge">
<title>data&#45;&gt;lomTypicalAgeRange</title>
<path fill="none" stroke="#1f78b4" d="M314.64,-544.54C344.44,-530.6 392.83,-507.95 429.06,-491"/>
<polygon fill="#a6cee3" stroke="#1f78b4" points="430.88,-494.02 438.45,-486.61 427.91,-487.67 430.88,-494.02"/>
</g>
<!-- lomDifficulty -->
<g id="node18" class="node">
<title>lomDifficulty</title>
<path fill="#1afabc" stroke="black" d="M173.33,-677.55C173.33,-677.55 239.33,-677.55 239.33,-677.55 245.33,-677.55 251.33,-683.55 251.33,-689.55 251.33,-689.55 251.33,-701.55 251.33,-701.55 251.33,-707.55 245.33,-713.55 239.33,-713.55 239.33,-713.55 173.33,-713.55 173.33,-713.55 167.33,-713.55 161.33,-707.55 161.33,-701.55 161.33,-701.55 161.33,-689.55 161.33,-689.55 161.33,-683.55 167.33,-677.55 173.33,-677.55"/>
<text text-anchor="middle" x="206.33" y="-691.85" font-family="Arial" font-size="14.00">lomDifficulty</text>
</g>
<!-- data&#45;&gt;lomDifficulty -->
<g id="edge17" class="edge">
<title>data&#45;&gt;lomDifficulty</title>
<path fill="none" stroke="#1f78b4" d="M276.87,-575.33C262.9,-599.14 238.22,-641.21 222.07,-668.74"/>
<polygon fill="#a6cee3" stroke="#1f78b4" points="218.99,-667.07 216.94,-677.47 225.02,-670.61 218.99,-667.07"/>
</g>
<!-- lomTypicalLearningTime -->
<g id="node19" class="node">
<title>lomTypicalLearningTime</title>
<path fill="#1afabc" stroke="black" d="M11.75,-535.5C11.75,-535.5 151.75,-535.5 151.75,-535.5 157.75,-535.5 163.75,-541.5 163.75,-547.5 163.75,-547.5 163.75,-559.5 163.75,-559.5 163.75,-565.5 157.75,-571.5 151.75,-571.5 151.75,-571.5 11.75,-571.5 11.75,-571.5 5.75,-571.5 -0.25,-565.5 -0.25,-559.5 -0.25,-559.5 -0.25,-547.5 -0.25,-547.5 -0.25,-541.5 5.75,-535.5 11.75,-535.5"/>
<text text-anchor="middle" x="81.75" y="-549.8" font-family="Arial" font-size="14.00">lomTypicalLearningTime</text>
</g>
<!-- data&#45;&gt;lomTypicalLearningTime -->
<g id="edge18" class="edge">
<title>data&#45;&gt;lomTypicalLearningTime</title>
<path fill="none" stroke="#1f78b4" d="M260.16,-556.75C237.97,-556.34 205.33,-555.75 174.01,-555.18"/>
<polygon fill="#a6cee3" stroke="#1f78b4" points="173.96,-551.68 163.9,-554.99 173.83,-558.68 173.96,-551.68"/>
</g>
</g>
</svg>
