<?xml version="1.0" encoding="UTF-8" standalone="no"?>
<!-- Generated by graphviz version 6.0.1 (20220911.1526)
 -->
<!-- Pages: 1 -->
<svg width="805pt" height="824pt"
 viewBox="0.00 0.00 805.00 824.00" xmlns="http://www.w3.org/2000/svg" xmlns:xlink="http://www.w3.org/1999/xlink">
<g id="graph0" class="graph" transform="scale(1 1) rotate(0) translate(4 820)">
<polygon fill="white" stroke="none" points="-4,4 -4,-820 801,-820 801,4 -4,4"/>
<!-- pr&#45;d -->
<g id="node1" class="node">
<title>pr&#45;d</title>
<path fill="#dddddd" stroke="black" d="M383.71,-405.65C383.71,-405.65 413.71,-405.65 413.71,-405.65 419.71,-405.65 425.71,-411.65 425.71,-417.65 425.71,-417.65 425.71,-429.65 425.71,-429.65 425.71,-435.65 419.71,-441.65 413.71,-441.65 413.71,-441.65 383.71,-441.65 383.71,-441.65 377.71,-441.65 371.71,-435.65 371.71,-429.65 371.71,-429.65 371.71,-417.65 371.71,-417.65 371.71,-411.65 377.71,-405.65 383.71,-405.65"/>
<text text-anchor="middle" x="398.71" y="-419.95" font-family="Arial" font-size="14.00">pr&#45;d</text>
</g>
<!-- ph -->
<g id="node2" class="node">
<title>ph</title>
<path fill="#afa7f4" stroke="black" d="M511.02,-174.05C511.02,-174.05 541.02,-174.05 541.02,-174.05 547.02,-174.05 553.02,-180.05 553.02,-186.05 553.02,-186.05 553.02,-198.05 553.02,-198.05 553.02,-204.05 547.02,-210.05 541.02,-210.05 541.02,-210.05 511.02,-210.05 511.02,-210.05 505.02,-210.05 499.02,-204.05 499.02,-198.05 499.02,-198.05 499.02,-186.05 499.02,-186.05 499.02,-180.05 505.02,-174.05 511.02,-174.05"/>
<text text-anchor="middle" x="526.02" y="-188.35" font-family="Arial" font-size="14.00">ph</text>
</g>
<!-- pr&#45;d&#45;&gt;ph -->
<g id="edge1" class="edge">
<title>pr&#45;d&#45;&gt;ph</title>
<path fill="none" stroke="#1f78b4" d="M408.7,-405.48C431.02,-364.89 484.99,-266.7 511.22,-218.98"/>
<polygon fill="#a6cee3" stroke="#1f78b4" points="514.33,-220.59 516.08,-210.14 508.2,-217.22 514.33,-220.59"/>
</g>
<!-- pre -->
<g id="node10" class="node">
<title>pre</title>
<path fill="#afa7f4" stroke="black" d="M530.72,-357.22C530.72,-357.22 560.72,-357.22 560.72,-357.22 566.72,-357.22 572.72,-363.22 572.72,-369.22 572.72,-369.22 572.72,-381.22 572.72,-381.22 572.72,-387.22 566.72,-393.22 560.72,-393.22 560.72,-393.22 530.72,-393.22 530.72,-393.22 524.72,-393.22 518.72,-387.22 518.72,-381.22 518.72,-381.22 518.72,-369.22 518.72,-369.22 518.72,-363.22 524.72,-357.22 530.72,-357.22"/>
<text text-anchor="middle" x="545.72" y="-371.52" font-family="Arial" font-size="14.00">pre</text>
</g>
<!-- pr&#45;d&#45;&gt;pre -->
<g id="edge9" class="edge">
<title>pr&#45;d&#45;&gt;pre</title>
<path fill="none" stroke="#1f78b4" d="M426.02,-414.66C449.33,-406.98 483.07,-395.86 508.79,-387.39"/>
<polygon fill="#a6cee3" stroke="#1f78b4" points="510.16,-390.62 518.56,-384.17 507.97,-383.97 510.16,-390.62"/>
</g>
<!-- xref -->
<g id="node12" class="node">
<title>xref</title>
<path fill="#afa7f4" stroke="black" d="M285.44,-620.52C285.44,-620.52 315.44,-620.52 315.44,-620.52 321.44,-620.52 327.44,-626.52 327.44,-632.52 327.44,-632.52 327.44,-644.52 327.44,-644.52 327.44,-650.52 321.44,-656.52 315.44,-656.52 315.44,-656.52 285.44,-656.52 285.44,-656.52 279.44,-656.52 273.44,-650.52 273.44,-644.52 273.44,-644.52 273.44,-632.52 273.44,-632.52 273.44,-626.52 279.44,-620.52 285.44,-620.52"/>
<text text-anchor="middle" x="300.44" y="-634.82" font-family="Arial" font-size="14.00">xref</text>
</g>
<!-- pr&#45;d&#45;&gt;xref -->
<g id="edge11" class="edge">
<title>pr&#45;d&#45;&gt;xref</title>
<path fill="none" stroke="#1f78b4" d="M390.34,-441.97C373.08,-479.71 333.47,-566.32 313.08,-610.89"/>
<polygon fill="#a6cee3" stroke="#1f78b4" points="309.78,-609.7 308.8,-620.25 316.14,-612.61 309.78,-609.7"/>
</g>
<!-- keyword -->
<g id="node16" class="node">
<title>keyword</title>
<path fill="#afa7f4" stroke="black" d="M179.08,-261.55C179.08,-261.55 222.08,-261.55 222.08,-261.55 228.08,-261.55 234.08,-267.55 234.08,-273.55 234.08,-273.55 234.08,-285.55 234.08,-285.55 234.08,-291.55 228.08,-297.55 222.08,-297.55 222.08,-297.55 179.08,-297.55 179.08,-297.55 173.08,-297.55 167.08,-291.55 167.08,-285.55 167.08,-285.55 167.08,-273.55 167.08,-273.55 167.08,-267.55 173.08,-261.55 179.08,-261.55"/>
<text text-anchor="middle" x="200.58" y="-275.85" font-family="Arial" font-size="14.00">keyword</text>
</g>
<!-- pr&#45;d&#45;&gt;keyword -->
<g id="edge15" class="edge">
<title>pr&#45;d&#45;&gt;keyword</title>
<path fill="none" stroke="#1f78b4" d="M373.62,-405.4C338.19,-379.63 273.43,-332.53 233.97,-303.83"/>
<polygon fill="#a6cee3" stroke="#1f78b4" points="235.62,-300.71 225.47,-297.65 231.5,-306.37 235.62,-300.71"/>
</g>
<!-- dl -->
<g id="node21" class="node">
<title>dl</title>
<path fill="#afa7f4" stroke="black" d="M204.23,-384.4C204.23,-384.4 234.23,-384.4 234.23,-384.4 240.23,-384.4 246.23,-390.4 246.23,-396.4 246.23,-396.4 246.23,-408.4 246.23,-408.4 246.23,-414.4 240.23,-420.4 234.23,-420.4 234.23,-420.4 204.23,-420.4 204.23,-420.4 198.23,-420.4 192.23,-414.4 192.23,-408.4 192.23,-408.4 192.23,-396.4 192.23,-396.4 192.23,-390.4 198.23,-384.4 204.23,-384.4"/>
<text text-anchor="middle" x="219.23" y="-398.7" font-family="Arial" font-size="14.00">dl</text>
</g>
<!-- pr&#45;d&#45;&gt;dl -->
<g id="edge20" class="edge">
<title>pr&#45;d&#45;&gt;dl</title>
<path fill="none" stroke="#1f78b4" d="M371.46,-420.43C340.79,-416.8 290.82,-410.88 256.55,-406.82"/>
<polygon fill="#a6cee3" stroke="#1f78b4" points="256.8,-403.32 246.46,-405.62 255.97,-410.28 256.8,-403.32"/>
</g>
<!-- dlentry -->
<g id="node23" class="node">
<title>dlentry</title>
<path fill="#afa7f4" stroke="black" d="M404.5,-574.15C404.5,-574.15 437.5,-574.15 437.5,-574.15 443.5,-574.15 449.5,-580.15 449.5,-586.15 449.5,-586.15 449.5,-598.15 449.5,-598.15 449.5,-604.15 443.5,-610.15 437.5,-610.15 437.5,-610.15 404.5,-610.15 404.5,-610.15 398.5,-610.15 392.5,-604.15 392.5,-598.15 392.5,-598.15 392.5,-586.15 392.5,-586.15 392.5,-580.15 398.5,-574.15 404.5,-574.15"/>
<text text-anchor="middle" x="421" y="-588.45" font-family="Arial" font-size="14.00">dlentry</text>
</g>
<!-- pr&#45;d&#45;&gt;dlentry -->
<g id="edge22" class="edge">
<title>pr&#45;d&#45;&gt;dlentry</title>
<path fill="none" stroke="#1f78b4" d="M401.1,-441.69C404.98,-471 412.67,-529.2 417.27,-564"/>
<polygon fill="#a6cee3" stroke="#1f78b4" points="413.81,-564.54 418.59,-573.99 420.75,-563.62 413.81,-564.54"/>
</g>
<!-- dt -->
<g id="node25" class="node">
<title>dt</title>
<path fill="#afa7f4" stroke="black" d="M331.44,-247.48C331.44,-247.48 361.44,-247.48 361.44,-247.48 367.44,-247.48 373.44,-253.48 373.44,-259.48 373.44,-259.48 373.44,-271.48 373.44,-271.48 373.44,-277.48 367.44,-283.48 361.44,-283.48 361.44,-283.48 331.44,-283.48 331.44,-283.48 325.44,-283.48 319.44,-277.48 319.44,-271.48 319.44,-271.48 319.44,-259.48 319.44,-259.48 319.44,-253.48 325.44,-247.48 331.44,-247.48"/>
<text text-anchor="middle" x="346.44" y="-261.78" font-family="Arial" font-size="14.00">dt</text>
</g>
<!-- pr&#45;d&#45;&gt;dt -->
<g id="edge24" class="edge">
<title>pr&#45;d&#45;&gt;dt</title>
<path fill="none" stroke="#1f78b4" d="M392.72,-405.51C383.67,-378.12 366.44,-326 355.75,-293.65"/>
<polygon fill="#a6cee3" stroke="#1f78b4" points="358.99,-292.3 352.53,-283.9 352.35,-294.49 358.99,-292.3"/>
</g>
<!-- dd -->
<g id="node27" class="node">
<title>dd</title>
<path fill="#afa7f4" stroke="black" d="M211.1,-458.2C211.1,-458.2 241.1,-458.2 241.1,-458.2 247.1,-458.2 253.1,-464.2 253.1,-470.2 253.1,-470.2 253.1,-482.2 253.1,-482.2 253.1,-488.2 247.1,-494.2 241.1,-494.2 241.1,-494.2 211.1,-494.2 211.1,-494.2 205.1,-494.2 199.1,-488.2 199.1,-482.2 199.1,-482.2 199.1,-470.2 199.1,-470.2 199.1,-464.2 205.1,-458.2 211.1,-458.2"/>
<text text-anchor="middle" x="226.1" y="-472.5" font-family="Arial" font-size="14.00">dd</text>
</g>
<!-- pr&#45;d&#45;&gt;dd -->
<g id="edge26" class="edge">
<title>pr&#45;d&#45;&gt;dd</title>
<path fill="none" stroke="#1f78b4" d="M371.36,-431.98C342.07,-440.9 295.43,-455.1 262.92,-464.99"/>
<polygon fill="#a6cee3" stroke="#1f78b4" points="261.87,-461.65 253.33,-467.91 263.91,-468.35 261.87,-461.65"/>
</g>
<!-- fig -->
<g id="node29" class="node">
<title>fig</title>
<path fill="#afa7f4" stroke="black" d="M536.4,-434.65C536.4,-434.65 566.4,-434.65 566.4,-434.65 572.4,-434.65 578.4,-440.65 578.4,-446.65 578.4,-446.65 578.4,-458.65 578.4,-458.65 578.4,-464.65 572.4,-470.65 566.4,-470.65 566.4,-470.65 536.4,-470.65 536.4,-470.65 530.4,-470.65 524.4,-464.65 524.4,-458.65 524.4,-458.65 524.4,-446.65 524.4,-446.65 524.4,-440.65 530.4,-434.65 536.4,-434.65"/>
<text text-anchor="middle" x="551.4" y="-448.95" font-family="Arial" font-size="14.00">fig</text>
</g>
<!-- pr&#45;d&#45;&gt;fig -->
<g id="edge28" class="edge">
<title>pr&#45;d&#45;&gt;fig</title>
<path fill="none" stroke="#1f78b4" d="M426.01,-428.84C450.65,-433.52 487.12,-440.45 514.38,-445.62"/>
<polygon fill="#a6cee3" stroke="#1f78b4" points="513.86,-449.09 524.34,-447.51 515.17,-442.21 513.86,-449.09"/>
</g>
<!-- figgroup -->
<g id="node31" class="node">
<title>figgroup</title>
<path fill="#afa7f4" stroke="black" d="M553,-578.08C553,-578.08 594,-578.08 594,-578.08 600,-578.08 606,-584.08 606,-590.08 606,-590.08 606,-602.08 606,-602.08 606,-608.08 600,-614.08 594,-614.08 594,-614.08 553,-614.08 553,-614.08 547,-614.08 541,-608.08 541,-602.08 541,-602.08 541,-590.08 541,-590.08 541,-584.08 547,-578.08 553,-578.08"/>
<text text-anchor="middle" x="573.5" y="-592.38" font-family="Arial" font-size="14.00">figgroup</text>
</g>
<!-- pr&#45;d&#45;&gt;figgroup -->
<g id="edge30" class="edge">
<title>pr&#45;d&#45;&gt;figgroup</title>
<path fill="none" stroke="#1f78b4" d="M417.09,-441.78C448.43,-472.7 512.28,-535.69 547.95,-570.87"/>
<polygon fill="#a6cee3" stroke="#1f78b4" points="545.54,-573.41 555.11,-577.94 550.45,-568.42 545.54,-573.41"/>
</g>
<!-- fn -->
<g id="node37" class="node">
<title>fn</title>
<path fill="#afa7f4" stroke="black" d="M254.18,-518.11C254.18,-518.11 284.18,-518.11 284.18,-518.11 290.18,-518.11 296.18,-524.11 296.18,-530.11 296.18,-530.11 296.18,-542.11 296.18,-542.11 296.18,-548.11 290.18,-554.11 284.18,-554.11 284.18,-554.11 254.18,-554.11 254.18,-554.11 248.18,-554.11 242.18,-548.11 242.18,-542.11 242.18,-542.11 242.18,-530.11 242.18,-530.11 242.18,-524.11 248.18,-518.11 254.18,-518.11"/>
<text text-anchor="middle" x="269.18" y="-532.41" font-family="Arial" font-size="14.00">fn</text>
</g>
<!-- pr&#45;d&#45;&gt;fn -->
<g id="edge36" class="edge">
<title>pr&#45;d&#45;&gt;fn</title>
<path fill="none" stroke="#1f78b4" d="M377.9,-441.72C356.19,-460.58 321.99,-490.27 297.75,-511.31"/>
<polygon fill="#a6cee3" stroke="#1f78b4" points="295.2,-508.89 289.94,-518.09 299.79,-514.18 295.2,-508.89"/>
</g>
<!-- codeph -->
<g id="node3" class="node">
<title>codeph</title>
<path fill="#1afabc" stroke="black" d="M441.38,-26.65C441.38,-26.65 478.38,-26.65 478.38,-26.65 484.38,-26.65 490.38,-32.65 490.38,-38.65 490.38,-38.65 490.38,-50.65 490.38,-50.65 490.38,-56.65 484.38,-62.65 478.38,-62.65 478.38,-62.65 441.38,-62.65 441.38,-62.65 435.38,-62.65 429.38,-56.65 429.38,-50.65 429.38,-50.65 429.38,-38.65 429.38,-38.65 429.38,-32.65 435.38,-26.65 441.38,-26.65"/>
<text text-anchor="middle" x="459.88" y="-40.95" font-family="Arial" font-size="14.00">codeph</text>
</g>
<!-- ph&#45;&gt;codeph -->
<g id="edge2" class="edge">
<title>ph&#45;&gt;codeph</title>
<path fill="none" stroke="#1f78b4" d="M517.91,-173.98C506.51,-148.56 485.63,-102.04 472.27,-72.27"/>
<polygon fill="#a6cee3" stroke="#1f78b4" points="475.34,-70.56 468.06,-62.87 468.96,-73.42 475.34,-70.56"/>
</g>
<!-- var -->
<g id="node4" class="node">
<title>var</title>
<path fill="#1afabc" stroke="black" d="M632.02,-53.16C632.02,-53.16 662.02,-53.16 662.02,-53.16 668.02,-53.16 674.02,-59.16 674.02,-65.16 674.02,-65.16 674.02,-77.16 674.02,-77.16 674.02,-83.16 668.02,-89.16 662.02,-89.16 662.02,-89.16 632.02,-89.16 632.02,-89.16 626.02,-89.16 620.02,-83.16 620.02,-77.16 620.02,-77.16 620.02,-65.16 620.02,-65.16 620.02,-59.16 626.02,-53.16 632.02,-53.16"/>
<text text-anchor="middle" x="647.02" y="-67.46" font-family="Arial" font-size="14.00">var</text>
</g>
<!-- ph&#45;&gt;var -->
<g id="edge3" class="edge">
<title>ph&#45;&gt;var</title>
<path fill="none" stroke="#1f78b4" d="M544.14,-173.95C564.72,-153.39 598.46,-119.68 621.66,-96.51"/>
<polygon fill="#a6cee3" stroke="#1f78b4" points="624.19,-98.93 628.79,-89.39 619.24,-93.98 624.19,-98.93"/>
</g>
<!-- synph -->
<g id="node5" class="node">
<title>synph</title>
<path fill="#1afabc" stroke="black" d="M665.85,-161.18C665.85,-161.18 695.85,-161.18 695.85,-161.18 701.85,-161.18 707.85,-167.18 707.85,-173.18 707.85,-173.18 707.85,-185.18 707.85,-185.18 707.85,-191.18 701.85,-197.18 695.85,-197.18 695.85,-197.18 665.85,-197.18 665.85,-197.18 659.85,-197.18 653.85,-191.18 653.85,-185.18 653.85,-185.18 653.85,-173.18 653.85,-173.18 653.85,-167.18 659.85,-161.18 665.85,-161.18"/>
<text text-anchor="middle" x="680.85" y="-175.48" font-family="Arial" font-size="14.00">synph</text>
</g>
<!-- ph&#45;&gt;synph -->
<g id="edge4" class="edge">
<title>ph&#45;&gt;synph</title>
<path fill="none" stroke="#1f78b4" d="M553.35,-189.78C578.44,-187.69 615.84,-184.58 643.65,-182.27"/>
<polygon fill="#a6cee3" stroke="#1f78b4" points="644.12,-185.75 653.8,-181.43 643.54,-178.77 644.12,-185.75"/>
</g>
<!-- oper -->
<g id="node6" class="node">
<title>oper</title>
<path fill="#1afabc" stroke="black" d="M523.74,-58.15C523.74,-58.15 553.74,-58.15 553.74,-58.15 559.74,-58.15 565.74,-64.15 565.74,-70.15 565.74,-70.15 565.74,-82.15 565.74,-82.15 565.74,-88.15 559.74,-94.15 553.74,-94.15 553.74,-94.15 523.74,-94.15 523.74,-94.15 517.74,-94.15 511.74,-88.15 511.74,-82.15 511.74,-82.15 511.74,-70.15 511.74,-70.15 511.74,-64.15 517.74,-58.15 523.74,-58.15"/>
<text text-anchor="middle" x="538.74" y="-72.45" font-family="Arial" font-size="14.00">oper</text>
</g>
<!-- ph&#45;&gt;oper -->
<g id="edge5" class="edge">
<title>ph&#45;&gt;oper</title>
<path fill="none" stroke="#1f78b4" d="M528.01,-173.94C530.05,-155.34 533.26,-126.12 535.63,-104.46"/>
<polygon fill="#a6cee3" stroke="#1f78b4" points="539.11,-104.84 536.72,-94.52 532.15,-104.08 539.11,-104.84"/>
</g>
<!-- delim -->
<g id="node7" class="node">
<title>delim</title>
<path fill="#1afabc" stroke="black" d="M512.77,-0.59C512.77,-0.59 542.77,-0.59 542.77,-0.59 548.77,-0.59 554.77,-6.59 554.77,-12.59 554.77,-12.59 554.77,-24.59 554.77,-24.59 554.77,-30.59 548.77,-36.59 542.77,-36.59 542.77,-36.59 512.77,-36.59 512.77,-36.59 506.77,-36.59 500.77,-30.59 500.77,-24.59 500.77,-24.59 500.77,-12.59 500.77,-12.59 500.77,-6.59 506.77,-0.59 512.77,-0.59"/>
<text text-anchor="middle" x="527.77" y="-14.89" font-family="Arial" font-size="14.00">delim</text>
</g>
<!-- ph&#45;&gt;delim -->
<g id="edge6" class="edge">
<title>ph&#45;&gt;delim</title>
<path fill="none" stroke="#1f78b4" d="M526.21,-173.81C526.51,-143.62 527.12,-83.03 527.48,-47.13"/>
<polygon fill="#a6cee3" stroke="#1f78b4" points="530.99,-46.88 527.59,-36.84 523.99,-46.81 530.99,-46.88"/>
</g>
<!-- sep -->
<g id="node8" class="node">
<title>sep</title>
<path fill="#1afabc" stroke="black" d="M655.94,-111.14C655.94,-111.14 685.94,-111.14 685.94,-111.14 691.94,-111.14 697.94,-117.14 697.94,-123.14 697.94,-123.14 697.94,-135.14 697.94,-135.14 697.94,-141.14 691.94,-147.14 685.94,-147.14 685.94,-147.14 655.94,-147.14 655.94,-147.14 649.94,-147.14 643.94,-141.14 643.94,-135.14 643.94,-135.14 643.94,-123.14 643.94,-123.14 643.94,-117.14 649.94,-111.14 655.94,-111.14"/>
<text text-anchor="middle" x="670.94" y="-125.44" font-family="Arial" font-size="14.00">sep</text>
</g>
<!-- ph&#45;&gt;sep -->
<g id="edge7" class="edge">
<title>ph&#45;&gt;sep</title>
<path fill="none" stroke="#1f78b4" d="M553.28,-180.22C576.26,-170.25 609.32,-155.89 634.56,-144.94"/>
<polygon fill="#a6cee3" stroke="#1f78b4" points="636.03,-148.12 643.81,-140.92 633.24,-141.69 636.03,-148.12"/>
</g>
<!-- repsep -->
<g id="node9" class="node">
<title>repsep</title>
<path fill="#1afabc" stroke="black" d="M586.71,-5.4C586.71,-5.4 620.71,-5.4 620.71,-5.4 626.71,-5.4 632.71,-11.4 632.71,-17.4 632.71,-17.4 632.71,-29.4 632.71,-29.4 632.71,-35.4 626.71,-41.4 620.71,-41.4 620.71,-41.4 586.71,-41.4 586.71,-41.4 580.71,-41.4 574.71,-35.4 574.71,-29.4 574.71,-29.4 574.71,-17.4 574.71,-17.4 574.71,-11.4 580.71,-5.4 586.71,-5.4"/>
<text text-anchor="middle" x="603.71" y="-19.7" font-family="Arial" font-size="14.00">repsep</text>
</g>
<!-- ph&#45;&gt;repsep -->
<g id="edge8" class="edge">
<title>ph&#45;&gt;repsep</title>
<path fill="none" stroke="#1f78b4" d="M534.34,-174C547.97,-144.41 575.15,-85.39 591.15,-50.67"/>
<polygon fill="#a6cee3" stroke="#1f78b4" points="594.33,-52.12 595.34,-41.57 587.98,-49.19 594.33,-52.12"/>
</g>
<!-- codeblock -->
<g id="node11" class="node">
<title>codeblock</title>
<path fill="#1afabc" stroke="black" d="M685.2,-325.34C685.2,-325.34 738.2,-325.34 738.2,-325.34 744.2,-325.34 750.2,-331.34 750.2,-337.34 750.2,-337.34 750.2,-349.34 750.2,-349.34 750.2,-355.34 744.2,-361.34 738.2,-361.34 738.2,-361.34 685.2,-361.34 685.2,-361.34 679.2,-361.34 673.2,-355.34 673.2,-349.34 673.2,-349.34 673.2,-337.34 673.2,-337.34 673.2,-331.34 679.2,-325.34 685.2,-325.34"/>
<text text-anchor="middle" x="711.7" y="-339.64" font-family="Arial" font-size="14.00">codeblock</text>
</g>
<!-- pre&#45;&gt;codeblock -->
<g id="edge10" class="edge">
<title>pre&#45;&gt;codeblock</title>
<path fill="none" stroke="#1f78b4" d="M572.76,-370.03C597.08,-365.35 633.4,-358.38 662.81,-352.73"/>
<polygon fill="#a6cee3" stroke="#1f78b4" points="663.73,-356.12 672.89,-350.79 662.41,-349.24 663.73,-356.12"/>
</g>
<!-- coderef -->
<g id="node13" class="node">
<title>coderef</title>
<path fill="#1afabc" stroke="black" d="M294.68,-779.46C294.68,-779.46 332.68,-779.46 332.68,-779.46 338.68,-779.46 344.68,-785.46 344.68,-791.46 344.68,-791.46 344.68,-803.46 344.68,-803.46 344.68,-809.46 338.68,-815.46 332.68,-815.46 332.68,-815.46 294.68,-815.46 294.68,-815.46 288.68,-815.46 282.68,-809.46 282.68,-803.46 282.68,-803.46 282.68,-791.46 282.68,-791.46 282.68,-785.46 288.68,-779.46 294.68,-779.46"/>
<text text-anchor="middle" x="313.68" y="-793.76" font-family="Arial" font-size="14.00">coderef</text>
</g>
<!-- xref&#45;&gt;coderef -->
<g id="edge12" class="edge">
<title>xref&#45;&gt;coderef</title>
<path fill="none" stroke="#1f78b4" d="M301.96,-656.75C304.26,-684.3 308.62,-736.75 311.33,-769.25"/>
<polygon fill="#a6cee3" stroke="#1f78b4" points="307.86,-769.76 312.18,-779.44 314.83,-769.18 307.86,-769.76"/>
</g>
<!-- fragref -->
<g id="node14" class="node">
<title>fragref</title>
<path fill="#1afabc" stroke="black" d="M222.98,-771.63C222.98,-771.63 254.98,-771.63 254.98,-771.63 260.98,-771.63 266.98,-777.63 266.98,-783.63 266.98,-783.63 266.98,-795.63 266.98,-795.63 266.98,-801.63 260.98,-807.63 254.98,-807.63 254.98,-807.63 222.98,-807.63 222.98,-807.63 216.98,-807.63 210.98,-801.63 210.98,-795.63 210.98,-795.63 210.98,-783.63 210.98,-783.63 210.98,-777.63 216.98,-771.63 222.98,-771.63"/>
<text text-anchor="middle" x="238.98" y="-785.93" font-family="Arial" font-size="14.00">fragref</text>
</g>
<!-- xref&#45;&gt;fragref -->
<g id="edge13" class="edge">
<title>xref&#45;&gt;fragref</title>
<path fill="none" stroke="#1f78b4" d="M293.03,-656.75C282.42,-682.84 262.8,-731.07 250.35,-761.69"/>
<polygon fill="#a6cee3" stroke="#1f78b4" points="246.95,-760.76 246.42,-771.34 253.43,-763.39 246.95,-760.76"/>
</g>
<!-- synnoteref -->
<g id="node15" class="node">
<title>synnoteref</title>
<path fill="#1afabc" stroke="black" d="M143.24,-725.63C143.24,-725.63 199.24,-725.63 199.24,-725.63 205.24,-725.63 211.24,-731.63 211.24,-737.63 211.24,-737.63 211.24,-749.63 211.24,-749.63 211.24,-755.63 205.24,-761.63 199.24,-761.63 199.24,-761.63 143.24,-761.63 143.24,-761.63 137.24,-761.63 131.24,-755.63 131.24,-749.63 131.24,-749.63 131.24,-737.63 131.24,-737.63 131.24,-731.63 137.24,-725.63 143.24,-725.63"/>
<text text-anchor="middle" x="171.24" y="-739.93" font-family="Arial" font-size="14.00">synnoteref</text>
</g>
<!-- xref&#45;&gt;synnoteref -->
<g id="edge14" class="edge">
<title>xref&#45;&gt;synnoteref</title>
<path fill="none" stroke="#1f78b4" d="M278.23,-656.59C257.07,-673.81 225.02,-699.88 201.52,-719"/>
<polygon fill="#a6cee3" stroke="#1f78b4" points="199.15,-716.42 193.6,-725.45 203.56,-721.85 199.15,-716.42"/>
</g>
<!-- option -->
<g id="node17" class="node">
<title>option</title>
<path fill="#1afabc" stroke="black" d="M78.98,-149.19C78.98,-149.19 108.98,-149.19 108.98,-149.19 114.98,-149.19 120.98,-155.19 120.98,-161.19 120.98,-161.19 120.98,-173.19 120.98,-173.19 120.98,-179.19 114.98,-185.19 108.98,-185.19 108.98,-185.19 78.98,-185.19 78.98,-185.19 72.98,-185.19 66.98,-179.19 66.98,-173.19 66.98,-173.19 66.98,-161.19 66.98,-161.19 66.98,-155.19 72.98,-149.19 78.98,-149.19"/>
<text text-anchor="middle" x="93.98" y="-163.49" font-family="Arial" font-size="14.00">option</text>
</g>
<!-- keyword&#45;&gt;option -->
<g id="edge16" class="edge">
<title>keyword&#45;&gt;option</title>
<path fill="none" stroke="#1f78b4" d="M183.46,-261.5C165.74,-242.82 137.93,-213.51 118.01,-192.52"/>
<polygon fill="#a6cee3" stroke="#1f78b4" points="120.49,-190.04 111.07,-185.19 115.41,-194.86 120.49,-190.04"/>
</g>
<!-- parmname -->
<g id="node18" class="node">
<title>parmname</title>
<path fill="#1afabc" stroke="black" d="M104.08,-99.9C104.08,-99.9 163.08,-99.9 163.08,-99.9 169.08,-99.9 175.08,-105.9 175.08,-111.9 175.08,-111.9 175.08,-123.9 175.08,-123.9 175.08,-129.9 169.08,-135.9 163.08,-135.9 163.08,-135.9 104.08,-135.9 104.08,-135.9 98.08,-135.9 92.08,-129.9 92.08,-123.9 92.08,-123.9 92.08,-111.9 92.08,-111.9 92.08,-105.9 98.08,-99.9 104.08,-99.9"/>
<text text-anchor="middle" x="133.58" y="-114.2" font-family="Arial" font-size="14.00">parmname</text>
</g>
<!-- keyword&#45;&gt;parmname -->
<g id="edge17" class="edge">
<title>keyword&#45;&gt;parmname</title>
<path fill="none" stroke="#1f78b4" d="M193.03,-261.32C181.37,-233.19 158.89,-178.98 145.17,-145.86"/>
<polygon fill="#a6cee3" stroke="#1f78b4" points="148.27,-144.21 141.21,-136.31 141.81,-146.89 148.27,-144.21"/>
</g>
<!-- apiname -->
<g id="node19" class="node">
<title>apiname</title>
<path fill="#1afabc" stroke="black" d="M11.7,-252.51C11.7,-252.51 56.7,-252.51 56.7,-252.51 62.7,-252.51 68.7,-258.51 68.7,-264.51 68.7,-264.51 68.7,-276.51 68.7,-276.51 68.7,-282.51 62.7,-288.51 56.7,-288.51 56.7,-288.51 11.7,-288.51 11.7,-288.51 5.7,-288.51 -0.3,-282.51 -0.3,-276.51 -0.3,-276.51 -0.3,-264.51 -0.3,-264.51 -0.3,-258.51 5.7,-252.51 11.7,-252.51"/>
<text text-anchor="middle" x="34.2" y="-266.81" font-family="Arial" font-size="14.00">apiname</text>
</g>
<!-- keyword&#45;&gt;apiname -->
<g id="edge18" class="edge">
<title>keyword&#45;&gt;apiname</title>
<path fill="none" stroke="#1f78b4" d="M166.91,-277.72C141.65,-276.35 106.81,-274.46 79.17,-272.95"/>
<polygon fill="#a6cee3" stroke="#1f78b4" points="79.14,-269.45 68.96,-272.4 78.76,-276.44 79.14,-269.45"/>
</g>
<!-- kwd -->
<g id="node20" class="node">
<title>kwd</title>
<path fill="#1afabc" stroke="black" d="M42.96,-194.86C42.96,-194.86 72.96,-194.86 72.96,-194.86 78.96,-194.86 84.96,-200.86 84.96,-206.86 84.96,-206.86 84.96,-218.86 84.96,-218.86 84.96,-224.86 78.96,-230.86 72.96,-230.86 72.96,-230.86 42.96,-230.86 42.96,-230.86 36.96,-230.86 30.96,-224.86 30.96,-218.86 30.96,-218.86 30.96,-206.86 30.96,-206.86 30.96,-200.86 36.96,-194.86 42.96,-194.86"/>
<text text-anchor="middle" x="57.96" y="-209.16" font-family="Arial" font-size="14.00">kwd</text>
</g>
<!-- keyword&#45;&gt;kwd -->
<g id="edge19" class="edge">
<title>keyword&#45;&gt;kwd</title>
<path fill="none" stroke="#1f78b4" d="M166.78,-263.75C145.02,-253.57 116.73,-240.34 94.45,-229.93"/>
<polygon fill="#a6cee3" stroke="#1f78b4" points="95.85,-226.72 85.31,-225.65 92.89,-233.06 95.85,-226.72"/>
</g>
<!-- parml -->
<g id="node22" class="node">
<title>parml</title>
<path fill="#1afabc" stroke="black" d="M57.18,-387.23C57.18,-387.23 87.18,-387.23 87.18,-387.23 93.18,-387.23 99.18,-393.23 99.18,-399.23 99.18,-399.23 99.18,-411.23 99.18,-411.23 99.18,-417.23 93.18,-423.23 87.18,-423.23 87.18,-423.23 57.18,-423.23 57.18,-423.23 51.18,-423.23 45.18,-417.23 45.18,-411.23 45.18,-411.23 45.18,-399.23 45.18,-399.23 45.18,-393.23 51.18,-387.23 57.18,-387.23"/>
<text text-anchor="middle" x="72.18" y="-401.53" font-family="Arial" font-size="14.00">parml</text>
</g>
<!-- dl&#45;&gt;parml -->
<g id="edge21" class="edge">
<title>dl&#45;&gt;parml</title>
<path fill="none" stroke="#1f78b4" d="M191.92,-402.93C168.7,-403.37 135.15,-404.02 109.47,-404.51"/>
<polygon fill="#a6cee3" stroke="#1f78b4" points="109.28,-401.01 99.34,-404.7 109.41,-408.01 109.28,-401.01"/>
</g>
<!-- plentry -->
<g id="node24" class="node">
<title>plentry</title>
<path fill="#1afabc" stroke="black" d="M419.05,-720.01C419.05,-720.01 452.05,-720.01 452.05,-720.01 458.05,-720.01 464.05,-726.01 464.05,-732.01 464.05,-732.01 464.05,-744.01 464.05,-744.01 464.05,-750.01 458.05,-756.01 452.05,-756.01 452.05,-756.01 419.05,-756.01 419.05,-756.01 413.05,-756.01 407.05,-750.01 407.05,-744.01 407.05,-744.01 407.05,-732.01 407.05,-732.01 407.05,-726.01 413.05,-720.01 419.05,-720.01"/>
<text text-anchor="middle" x="435.55" y="-734.31" font-family="Arial" font-size="14.00">plentry</text>
</g>
<!-- dlentry&#45;&gt;plentry -->
<g id="edge23" class="edge">
<title>dlentry&#45;&gt;plentry</title>
<path fill="none" stroke="#1f78b4" d="M422.81,-610.33C425.29,-635.22 429.78,-680.17 432.71,-709.55"/>
<polygon fill="#a6cee3" stroke="#1f78b4" points="429.24,-710 433.71,-719.6 436.2,-709.3 429.24,-710"/>
</g>
<!-- pt -->
<g id="node26" class="node">
<title>pt</title>
<path fill="#1afabc" stroke="black" d="M284.71,-114.01C284.71,-114.01 314.71,-114.01 314.71,-114.01 320.71,-114.01 326.71,-120.01 326.71,-126.01 326.71,-126.01 326.71,-138.01 326.71,-138.01 326.71,-144.01 320.71,-150.01 314.71,-150.01 314.71,-150.01 284.71,-150.01 284.71,-150.01 278.71,-150.01 272.71,-144.01 272.71,-138.01 272.71,-138.01 272.71,-126.01 272.71,-126.01 272.71,-120.01 278.71,-114.01 284.71,-114.01"/>
<text text-anchor="middle" x="299.71" y="-128.31" font-family="Arial" font-size="14.00">pt</text>
</g>
<!-- dt&#45;&gt;pt -->
<g id="edge25" class="edge">
<title>dt&#45;&gt;pt</title>
<path fill="none" stroke="#1f78b4" d="M340.14,-247.48C332.27,-224.99 318.71,-186.27 309.49,-159.92"/>
<polygon fill="#a6cee3" stroke="#1f78b4" points="312.67,-158.43 306.07,-150.15 306.07,-160.75 312.67,-158.43"/>
</g>
<!-- pd -->
<g id="node28" class="node">
<title>pd</title>
<path fill="#1afabc" stroke="black" d="M68.01,-503.66C68.01,-503.66 98.01,-503.66 98.01,-503.66 104.01,-503.66 110.01,-509.66 110.01,-515.66 110.01,-515.66 110.01,-527.66 110.01,-527.66 110.01,-533.66 104.01,-539.66 98.01,-539.66 98.01,-539.66 68.01,-539.66 68.01,-539.66 62.01,-539.66 56.01,-533.66 56.01,-527.66 56.01,-527.66 56.01,-515.66 56.01,-515.66 56.01,-509.66 62.01,-503.66 68.01,-503.66"/>
<text text-anchor="middle" x="83.01" y="-517.96" font-family="Arial" font-size="14.00">pd</text>
</g>
<!-- dd&#45;&gt;pd -->
<g id="edge27" class="edge">
<title>dd&#45;&gt;pd</title>
<path fill="none" stroke="#1f78b4" d="M198.85,-484.86C176.47,-491.97 144.56,-502.1 119.9,-509.94"/>
<polygon fill="#a6cee3" stroke="#1f78b4" points="118.63,-506.67 110.16,-513.03 120.75,-513.34 118.63,-506.67"/>
</g>
<!-- syntaxdiagram -->
<g id="node30" class="node">
<title>syntaxdiagram</title>
<path fill="#1afabc" stroke="black" d="M696.55,-446.76C696.55,-446.76 777.55,-446.76 777.55,-446.76 783.55,-446.76 789.55,-452.76 789.55,-458.76 789.55,-458.76 789.55,-470.76 789.55,-470.76 789.55,-476.76 783.55,-482.76 777.55,-482.76 777.55,-482.76 696.55,-482.76 696.55,-482.76 690.55,-482.76 684.55,-476.76 684.55,-470.76 684.55,-470.76 684.55,-458.76 684.55,-458.76 684.55,-452.76 690.55,-446.76 696.55,-446.76"/>
<text text-anchor="middle" x="737.05" y="-461.06" font-family="Arial" font-size="14.00">syntaxdiagram</text>
</g>
<!-- fig&#45;&gt;syntaxdiagram -->
<g id="edge29" class="edge">
<title>fig&#45;&gt;syntaxdiagram</title>
<path fill="none" stroke="#1f78b4" d="M578.79,-454.44C603.82,-456.07 641.76,-458.55 674.22,-460.66"/>
<polygon fill="#a6cee3" stroke="#1f78b4" points="674.33,-464.18 684.54,-461.34 674.79,-457.19 674.33,-464.18"/>
</g>
<!-- synblk -->
<g id="node32" class="node">
<title>synblk</title>
<path fill="#1afabc" stroke="black" d="M585.98,-750.88C585.98,-750.88 616.98,-750.88 616.98,-750.88 622.98,-750.88 628.98,-756.88 628.98,-762.88 628.98,-762.88 628.98,-774.88 628.98,-774.88 628.98,-780.88 622.98,-786.88 616.98,-786.88 616.98,-786.88 585.98,-786.88 585.98,-786.88 579.98,-786.88 573.98,-780.88 573.98,-774.88 573.98,-774.88 573.98,-762.88 573.98,-762.88 573.98,-756.88 579.98,-750.88 585.98,-750.88"/>
<text text-anchor="middle" x="601.48" y="-765.18" font-family="Arial" font-size="14.00">synblk</text>
</g>
<!-- figgroup&#45;&gt;synblk -->
<g id="edge31" class="edge">
<title>figgroup&#45;&gt;synblk</title>
<path fill="none" stroke="#1f78b4" d="M576.45,-614.25C581.32,-644.32 591.09,-704.69 596.88,-740.45"/>
<polygon fill="#a6cee3" stroke="#1f78b4" points="593.49,-741.39 598.54,-750.7 600.4,-740.27 593.49,-741.39"/>
</g>
<!-- groupseq -->
<g id="node33" class="node">
<title>groupseq</title>
<path fill="#1afabc" stroke="black" d="M676.85,-717.88C676.85,-717.88 725.85,-717.88 725.85,-717.88 731.85,-717.88 737.85,-723.88 737.85,-729.88 737.85,-729.88 737.85,-741.88 737.85,-741.88 737.85,-747.88 731.85,-753.88 725.85,-753.88 725.85,-753.88 676.85,-753.88 676.85,-753.88 670.85,-753.88 664.85,-747.88 664.85,-741.88 664.85,-741.88 664.85,-729.88 664.85,-729.88 664.85,-723.88 670.85,-717.88 676.85,-717.88"/>
<text text-anchor="middle" x="701.35" y="-732.18" font-family="Arial" font-size="14.00">groupseq</text>
</g>
<!-- figgroup&#45;&gt;groupseq -->
<g id="edge32" class="edge">
<title>figgroup&#45;&gt;groupseq</title>
<path fill="none" stroke="#1f78b4" d="M590.22,-614.36C612.62,-638.84 652.48,-682.44 677.88,-710.21"/>
<polygon fill="#a6cee3" stroke="#1f78b4" points="675.3,-712.58 684.64,-717.6 680.47,-707.85 675.3,-712.58"/>
</g>
<!-- groupchoice -->
<g id="node34" class="node">
<title>groupchoice</title>
<path fill="#1afabc" stroke="black" d="M711.18,-669.45C711.18,-669.45 777.18,-669.45 777.18,-669.45 783.18,-669.45 789.18,-675.45 789.18,-681.45 789.18,-681.45 789.18,-693.45 789.18,-693.45 789.18,-699.45 783.18,-705.45 777.18,-705.45 777.18,-705.45 711.18,-705.45 711.18,-705.45 705.18,-705.45 699.18,-699.45 699.18,-693.45 699.18,-693.45 699.18,-681.45 699.18,-681.45 699.18,-675.45 705.18,-669.45 711.18,-669.45"/>
<text text-anchor="middle" x="744.18" y="-683.75" font-family="Arial" font-size="14.00">groupchoice</text>
</g>
<!-- figgroup&#45;&gt;groupchoice -->
<g id="edge33" class="edge">
<title>figgroup&#45;&gt;groupchoice</title>
<path fill="none" stroke="#1f78b4" d="M606.01,-613.48C633.09,-627.98 671.88,-648.75 701.47,-664.59"/>
<polygon fill="#a6cee3" stroke="#1f78b4" points="699.87,-667.7 710.34,-669.33 703.17,-661.53 699.87,-667.7"/>
</g>
<!-- groupcomp -->
<g id="node35" class="node">
<title>groupcomp</title>
<path fill="#1afabc" stroke="black" d="M724.18,-600.76C724.18,-600.76 785.18,-600.76 785.18,-600.76 791.18,-600.76 797.18,-606.76 797.18,-612.76 797.18,-612.76 797.18,-624.76 797.18,-624.76 797.18,-630.76 791.18,-636.76 785.18,-636.76 785.18,-636.76 724.18,-636.76 724.18,-636.76 718.18,-636.76 712.18,-630.76 712.18,-624.76 712.18,-624.76 712.18,-612.76 712.18,-612.76 712.18,-606.76 718.18,-600.76 724.18,-600.76"/>
<text text-anchor="middle" x="754.68" y="-615.06" font-family="Arial" font-size="14.00">groupcomp</text>
</g>
<!-- figgroup&#45;&gt;groupcomp -->
<g id="edge34" class="edge">
<title>figgroup&#45;&gt;groupcomp</title>
<path fill="none" stroke="#1f78b4" d="M606.31,-600.19C632.88,-603.51 670.83,-608.27 701.7,-612.13"/>
<polygon fill="#a6cee3" stroke="#1f78b4" points="701.51,-615.63 711.87,-613.4 702.38,-608.69 701.51,-615.63"/>
</g>
<!-- fragment -->
<g id="node36" class="node">
<title>fragment</title>
<path fill="#1afabc" stroke="black" d="M592.45,-693.29C592.45,-693.29 639.45,-693.29 639.45,-693.29 645.45,-693.29 651.45,-699.29 651.45,-705.29 651.45,-705.29 651.45,-717.29 651.45,-717.29 651.45,-723.29 645.45,-729.29 639.45,-729.29 639.45,-729.29 592.45,-729.29 592.45,-729.29 586.45,-729.29 580.45,-723.29 580.45,-717.29 580.45,-717.29 580.45,-705.29 580.45,-705.29 580.45,-699.29 586.45,-693.29 592.45,-693.29"/>
<text text-anchor="middle" x="615.95" y="-707.59" font-family="Arial" font-size="14.00">fragment</text>
</g>
<!-- figgroup&#45;&gt;fragment -->
<g id="edge35" class="edge">
<title>figgroup&#45;&gt;fragment</title>
<path fill="none" stroke="#1f78b4" d="M580.14,-614.08C586.98,-632.66 597.75,-661.88 605.69,-683.44"/>
<polygon fill="#a6cee3" stroke="#1f78b4" points="602.48,-684.86 609.22,-693.04 609.05,-682.44 602.48,-684.86"/>
</g>
<!-- synnote -->
<g id="node38" class="node">
<title>synnote</title>
<path fill="#1afabc" stroke="black" d="M122.99,-603.63C122.99,-603.63 162.99,-603.63 162.99,-603.63 168.99,-603.63 174.99,-609.63 174.99,-615.63 174.99,-615.63 174.99,-627.63 174.99,-627.63 174.99,-633.63 168.99,-639.63 162.99,-639.63 162.99,-639.63 122.99,-639.63 122.99,-639.63 116.99,-639.63 110.99,-633.63 110.99,-627.63 110.99,-627.63 110.99,-615.63 110.99,-615.63 110.99,-609.63 116.99,-603.63 122.99,-603.63"/>
<text text-anchor="middle" x="142.99" y="-617.93" font-family="Arial" font-size="14.00">synnote</text>
</g>
<!-- fn&#45;&gt;synnote -->
<g id="edge37" class="edge">
<title>fn&#45;&gt;synnote</title>
<path fill="none" stroke="#1f78b4" d="M242.42,-554.25C223.68,-566.95 198.46,-584.04 178.11,-597.84"/>
<polygon fill="#a6cee3" stroke="#1f78b4" points="176.03,-595.01 169.72,-603.52 179.96,-600.81 176.03,-595.01"/>
</g>
</g>
</svg>
