<?xml version="1.0" encoding="UTF-8" standalone="no"?>
<!-- Generated by graphviz version 6.0.1 (20220911.1526)
 -->
<!-- Pages: 1 -->
<svg width="341pt" height="257pt"
 viewBox="0.00 0.00 341.00 257.00" xmlns="http://www.w3.org/2000/svg" xmlns:xlink="http://www.w3.org/1999/xlink">
<g id="graph0" class="graph" transform="scale(1 1) rotate(0) translate(4 253)">
<polygon fill="white" stroke="none" points="-4,4 -4,-253 337,-253 337,4 -4,4"/>
<!-- learningOverviewModule -->
<g id="node1" class="node">
<title>learningOverviewModule</title>
<path fill="#dddddd" stroke="black" d="M11.81,-95.41C11.81,-95.41 154.81,-95.41 154.81,-95.41 160.81,-95.41 166.81,-101.41 166.81,-107.41 166.81,-107.41 166.81,-119.41 166.81,-119.41 166.81,-125.41 160.81,-131.41 154.81,-131.41 154.81,-131.41 11.81,-131.41 11.81,-131.41 5.81,-131.41 -0.19,-125.41 -0.19,-119.41 -0.19,-119.41 -0.19,-107.41 -0.19,-107.41 -0.19,-101.41 5.81,-95.41 11.81,-95.41"/>
<text text-anchor="middle" x="83.31" y="-109.71" font-family="Arial" font-size="14.00">learningOverviewModule</text>
</g>
<!-- learningBase -->
<g id="node2" class="node">
<title>learningBase</title>
<path fill="#afa7f4" stroke="black" d="M185.91,-49.17C185.91,-49.17 256.91,-49.17 256.91,-49.17 262.91,-49.17 268.91,-55.17 268.91,-61.17 268.91,-61.17 268.91,-73.17 268.91,-73.17 268.91,-79.17 262.91,-85.17 256.91,-85.17 256.91,-85.17 185.91,-85.17 185.91,-85.17 179.91,-85.17 173.91,-79.17 173.91,-73.17 173.91,-73.17 173.91,-61.17 173.91,-61.17 173.91,-55.17 179.91,-49.17 185.91,-49.17"/>
<text text-anchor="middle" x="221.41" y="-63.47" font-family="Arial" font-size="14.00">learningBase</text>
</g>
<!-- learningOverviewModule&#45;&gt;learningBase -->
<g id="edge1" class="edge">
<title>learningOverviewModule&#45;&gt;learningBase</title>
<path fill="none" stroke="#1f78b4" d="M137.1,-95.4C146,-92.42 155.25,-89.32 164.23,-86.32"/>
<polygon fill="#a6cee3" stroke="#1f78b4" points="165.47,-89.6 173.84,-83.1 163.24,-82.96 165.47,-89.6"/>
</g>
<!-- learningBasebody -->
<g id="node4" class="node">
<title>learningBasebody</title>
<path fill="#afa7f4" stroke="black" d="M42.02,-143.23C42.02,-143.23 143.02,-143.23 143.02,-143.23 149.02,-143.23 155.02,-149.23 155.02,-155.23 155.02,-155.23 155.02,-167.23 155.02,-167.23 155.02,-173.23 149.02,-179.23 143.02,-179.23 143.02,-179.23 42.02,-179.23 42.02,-179.23 36.02,-179.23 30.02,-173.23 30.02,-167.23 30.02,-167.23 30.02,-155.23 30.02,-155.23 30.02,-149.23 36.02,-143.23 42.02,-143.23"/>
<text text-anchor="middle" x="92.52" y="-157.53" font-family="Arial" font-size="14.00">learningBasebody</text>
</g>
<!-- learningOverviewModule&#45;&gt;learningBasebody -->
<g id="edge3" class="edge">
<title>learningOverviewModule&#45;&gt;learningBasebody</title>
<path fill="none" stroke="#1f78b4" d="M86.79,-131.49C86.91,-132.09 87.02,-132.69 87.14,-133.29"/>
<polygon fill="#a6cee3" stroke="#1f78b4" points="83.7,-133.97 89.03,-143.13 90.58,-132.65 83.7,-133.97"/>
</g>
<!-- learningOverview -->
<g id="node3" class="node">
<title>learningOverview</title>
<path fill="#1afabc" stroke="black" d="M136.95,-0.58C136.95,-0.58 234.95,-0.58 234.95,-0.58 240.95,-0.58 246.95,-6.58 246.95,-12.58 246.95,-12.58 246.95,-24.58 246.95,-24.58 246.95,-30.58 240.95,-36.58 234.95,-36.58 234.95,-36.58 136.95,-36.58 136.95,-36.58 130.95,-36.58 124.95,-30.58 124.95,-24.58 124.95,-24.58 124.95,-12.58 124.95,-12.58 124.95,-6.58 130.95,-0.58 136.95,-0.58"/>
<text text-anchor="middle" x="185.95" y="-14.88" font-family="Arial" font-size="14.00">learningOverview</text>
</g>
<!-- learningBase&#45;&gt;learningOverview -->
<g id="edge2" class="edge">
<title>learningBase&#45;&gt;learningOverview</title>
<path fill="none" stroke="#1f78b4" d="M208.21,-49.08C207.3,-47.83 206.37,-46.56 205.43,-45.28"/>
<polygon fill="#a6cee3" stroke="#1f78b4" points="208,-42.86 199.28,-36.85 202.35,-46.99 208,-42.86"/>
</g>
<!-- learningOverviewbody -->
<g id="node5" class="node">
<title>learningOverviewbody</title>
<path fill="#1afabc" stroke="black" d="M193.71,-212.09C193.71,-212.09 320.71,-212.09 320.71,-212.09 326.71,-212.09 332.71,-218.09 332.71,-224.09 332.71,-224.09 332.71,-236.09 332.71,-236.09 332.71,-242.09 326.71,-248.09 320.71,-248.09 320.71,-248.09 193.71,-248.09 193.71,-248.09 187.71,-248.09 181.71,-242.09 181.71,-236.09 181.71,-236.09 181.71,-224.09 181.71,-224.09 181.71,-218.09 187.71,-212.09 193.71,-212.09"/>
<text text-anchor="middle" x="257.21" y="-226.39" font-family="Arial" font-size="14.00">learningOverviewbody</text>
</g>
<!-- learningBasebody&#45;&gt;learningOverviewbody -->
<g id="edge4" class="edge">
<title>learningBasebody&#45;&gt;learningOverviewbody</title>
<path fill="none" stroke="#1f78b4" d="M135.79,-179.32C156.89,-188.14 182.44,-198.83 204.65,-208.11"/>
<polygon fill="#a6cee3" stroke="#1f78b4" points="203.37,-211.37 213.94,-212 206.07,-204.91 203.37,-211.37"/>
</g>
</g>
</svg>
