<?xml version="1.0" encoding="UTF-8" standalone="no"?>
<!-- Generated by graphviz version 6.0.1 (20220911.1526)
 -->
<!-- Pages: 1 -->
<svg width="344pt" height="257pt"
 viewBox="0.00 0.00 344.00 257.00" xmlns="http://www.w3.org/2000/svg" xmlns:xlink="http://www.w3.org/1999/xlink">
<g id="graph0" class="graph" transform="scale(1 1) rotate(0) translate(4 253)">
<polygon fill="white" stroke="none" points="-4,4 -4,-253 340,-253 340,4 -4,4"/>
<!-- learningSummaryModule -->
<g id="node1" class="node">
<title>learningSummaryModule</title>
<path fill="#dddddd" stroke="black" d="M12.06,-95.37C12.06,-95.37 157.06,-95.37 157.06,-95.37 163.06,-95.37 169.06,-101.37 169.06,-107.37 169.06,-107.37 169.06,-119.37 169.06,-119.37 169.06,-125.37 163.06,-131.37 157.06,-131.37 157.06,-131.37 12.06,-131.37 12.06,-131.37 6.06,-131.37 0.06,-125.37 0.06,-119.37 0.06,-119.37 0.06,-107.37 0.06,-107.37 0.06,-101.37 6.06,-95.37 12.06,-95.37"/>
<text text-anchor="middle" x="84.56" y="-109.67" font-family="Arial" font-size="14.00">learningSummaryModule</text>
</g>
<!-- learningBase -->
<g id="node2" class="node">
<title>learningBase</title>
<path fill="#afa7f4" stroke="black" d="M186.45,-49.42C186.45,-49.42 257.45,-49.42 257.45,-49.42 263.45,-49.42 269.45,-55.42 269.45,-61.42 269.45,-61.42 269.45,-73.42 269.45,-73.42 269.45,-79.42 263.45,-85.42 257.45,-85.42 257.45,-85.42 186.45,-85.42 186.45,-85.42 180.45,-85.42 174.45,-79.42 174.45,-73.42 174.45,-73.42 174.45,-61.42 174.45,-61.42 174.45,-55.42 180.45,-49.42 186.45,-49.42"/>
<text text-anchor="middle" x="221.95" y="-63.72" font-family="Arial" font-size="14.00">learningBase</text>
</g>
<!-- learningSummaryModule&#45;&gt;learningBase -->
<g id="edge1" class="edge">
<title>learningSummaryModule&#45;&gt;learningBase</title>
<path fill="none" stroke="#1f78b4" d="M138.47,-95.34C147.1,-92.45 156.06,-89.46 164.76,-86.55"/>
<polygon fill="#a6cee3" stroke="#1f78b4" points="166.08,-89.8 174.45,-83.3 163.85,-83.16 166.08,-89.8"/>
</g>
<!-- learningBasebody -->
<g id="node4" class="node">
<title>learningBasebody</title>
<path fill="#afa7f4" stroke="black" d="M42.98,-143.23C42.98,-143.23 143.98,-143.23 143.98,-143.23 149.98,-143.23 155.98,-149.23 155.98,-155.23 155.98,-155.23 155.98,-167.23 155.98,-167.23 155.98,-173.23 149.98,-179.23 143.98,-179.23 143.98,-179.23 42.98,-179.23 42.98,-179.23 36.98,-179.23 30.98,-173.23 30.98,-167.23 30.98,-167.23 30.98,-155.23 30.98,-155.23 30.98,-149.23 36.98,-143.23 42.98,-143.23"/>
<text text-anchor="middle" x="93.48" y="-157.53" font-family="Arial" font-size="14.00">learningBasebody</text>
</g>
<!-- learningSummaryModule&#45;&gt;learningBasebody -->
<g id="edge3" class="edge">
<title>learningSummaryModule&#45;&gt;learningBasebody</title>
<path fill="none" stroke="#1f78b4" d="M87.93,-131.46C88.04,-132.06 88.16,-132.66 88.27,-133.26"/>
<polygon fill="#a6cee3" stroke="#1f78b4" points="84.83,-133.92 90.1,-143.11 91.71,-132.64 84.83,-133.92"/>
</g>
<!-- learningSummary -->
<g id="node3" class="node">
<title>learningSummary</title>
<path fill="#1afabc" stroke="black" d="M136.74,-0.74C136.74,-0.74 236.74,-0.74 236.74,-0.74 242.74,-0.74 248.74,-6.74 248.74,-12.74 248.74,-12.74 248.74,-24.74 248.74,-24.74 248.74,-30.74 242.74,-36.74 236.74,-36.74 236.74,-36.74 136.74,-36.74 136.74,-36.74 130.74,-36.74 124.74,-30.74 124.74,-24.74 124.74,-24.74 124.74,-12.74 124.74,-12.74 124.74,-6.74 130.74,-0.74 136.74,-0.74"/>
<text text-anchor="middle" x="186.74" y="-15.04" font-family="Arial" font-size="14.00">learningSummary</text>
</g>
<!-- learningBase&#45;&gt;learningSummary -->
<g id="edge2" class="edge">
<title>learningBase&#45;&gt;learningSummary</title>
<path fill="none" stroke="#1f78b4" d="M208.84,-49.29C207.94,-48.04 207.02,-46.77 206.09,-45.48"/>
<polygon fill="#a6cee3" stroke="#1f78b4" points="208.68,-43.09 199.98,-37.04 203.01,-47.19 208.68,-43.09"/>
</g>
<!-- learningSummarybody -->
<g id="node5" class="node">
<title>learningSummarybody</title>
<path fill="#1afabc" stroke="black" d="M194.54,-212.16C194.54,-212.16 323.54,-212.16 323.54,-212.16 329.54,-212.16 335.54,-218.16 335.54,-224.16 335.54,-224.16 335.54,-236.16 335.54,-236.16 335.54,-242.16 329.54,-248.16 323.54,-248.16 323.54,-248.16 194.54,-248.16 194.54,-248.16 188.54,-248.16 182.54,-242.16 182.54,-236.16 182.54,-236.16 182.54,-224.16 182.54,-224.16 182.54,-218.16 188.54,-212.16 194.54,-212.16"/>
<text text-anchor="middle" x="259.04" y="-226.46" font-family="Arial" font-size="14.00">learningSummarybody</text>
</g>
<!-- learningBasebody&#45;&gt;learningSummarybody -->
<g id="edge4" class="edge">
<title>learningBasebody&#45;&gt;learningSummarybody</title>
<path fill="none" stroke="#1f78b4" d="M136.98,-179.34C158.19,-188.17 183.88,-198.86 206.2,-208.16"/>
<polygon fill="#a6cee3" stroke="#1f78b4" points="204.97,-211.43 215.55,-212.05 207.66,-204.97 204.97,-211.43"/>
</g>
</g>
</svg>
